<?xml version="1.0" standalone="no"?>
<!DOCTYPE svg PUBLIC "-//W3C//DTD SVG 1.1//EN" "http://www.w3.org/Graphics/SVG/1.1/DTD/svg11.dtd" >
<svg xmlns="http://www.w3.org/2000/svg" xmlns:xlink="http://www.w3.org/1999/xlink" version="1.1">
<metadata></metadata>
<defs>
<font id="prumo_textlight" horiz-adv-x="1049" >
<font-face units-per-em="2048" ascent="1536" descent="-512" />
<missing-glyph horiz-adv-x="532" />
<glyph unicode="&#xfb01;" horiz-adv-x="1134" d="M57 0v53h146v959h-146v53h146v115q0 119 53 208t145 135t211 46q79 0 142 -15.5t101 -39.5t63.5 -55.5t35 -60.5t9.5 -56q0 -22 -8 -41t-22 -32t-33.5 -20t-41.5 -7q-49 0 -77.5 24.5t-28.5 68.5q0 27 17.5 53t61.5 35q-60 100 -215 100q-42 0 -80 -11t-72 -33.5 t-59 -55.5t-39 -80t-14 -103v-175h593v-1012h146v-53h-441v53h147v959h-445v-959h146v-53h-441z" />
<glyph unicode="&#xfb02;" horiz-adv-x="1147" d="M57 0v53h146v959h-146v53h146v115q0 182 94.5 278.5t271.5 96.5q142 0 277 -73l63 52h36v-1481h146v-53h-441v53h147v1382q-89 71 -226 71q-100 0 -159.5 -67.5t-59.5 -205.5v-168h217v-53h-217v-959h191v-53h-486z" />
<glyph horiz-adv-x="0" />
<glyph horiz-adv-x="682" />
<glyph unicode=" "  horiz-adv-x="532" />
<glyph unicode="&#x09;" horiz-adv-x="532" />
<glyph unicode="&#xa0;" horiz-adv-x="532" />
<glyph unicode="!" horiz-adv-x="538" d="M179 71q0 26 11 45.5t31 29.5t47 10q42 0 66 -23t24 -62.5t-24 -62.5t-65.5 -23t-65.5 23t-24 63zM183 1427q0 -121 13 -290.5t28 -373t18 -387.5h54q5 226 32.5 568t27.5 483q0 24 -8 42t-21.5 26.5t-28 12.5t-30.5 4q-34 0 -59.5 -19.5t-25.5 -65.5z" />
<glyph unicode="&#x22;" horiz-adv-x="668" d="M124 1406q-11 40 10 73t57 33q38 0 60 -33t11 -73l-49 -373h-40zM407 1406q-10 40 11.5 73t58.5 33q24 0 42.5 -15.5t25.5 -40t0 -50.5l-49 -373h-38z" />
<glyph unicode="#" horiz-adv-x="1594" d="M115 583v53h420l119 218h-539v53h566l318 584h58l-318 -584h255l318 584h58l-318 -584h426v-53h-454l-119 -218h573v-53h-600l-317 -583h-59l318 583h-255l-317 -583h-59l317 583h-391zM592 636h256l119 218h-256z" />
<glyph unicode="$" horiz-adv-x="1213" d="M110 -10v386h54q96 -292 364 -333l53 652q-60 25 -92 38.5t-86 40.5t-83.5 49t-67.5 56.5t-57.5 70t-33.5 83.5t-14 103q0 81 27.5 149.5t81 119t138.5 79t194 28.5q39 0 58 -2l23 301h42l-23 -307q96 -15 175 -67.5t129 -147.5l16 213h40v-388h-54q-86 290 -311 333 l-47 -593q15 -6 43 -18q60 -26 91 -40t85 -42t83.5 -49.5t68 -56.5t57.5 -70.5t33.5 -83.5t14.5 -102q0 -190 -123 -301.5t-355 -111.5q-43 0 -67 2l-24 -300h-43l24 304q-235 33 -358 211l-10 -206h-46zM303 1191q0 -49 15.5 -91t40.5 -73t64.5 -60.5t78.5 -50.5t92 -44 l47 581q-15 2 -45 2q-148 0 -220.5 -72t-72.5 -192zM571 38l49 -2q161 0 250 76.5t89 222.5q0 40 -10 75t-25.5 62.5t-42 53.5t-52 44.5t-64 39t-68.5 34.5t-75 33z" />
<glyph unicode="%" horiz-adv-x="1573" d="M96 1171q0 -68 18 -127.5t53 -105.5t92.5 -72.5t130.5 -26.5t130 26.5t92 72.5t53 105.5t18 128t-18 127.5t-53 105.5t-92 73t-130 26.5q-59 0 -107.5 -17.5t-83 -48t-58 -73t-34.5 -91.5t-11 -103zM181 1171q0 146 54 224.5t155 78.5t154.5 -78t53.5 -224.5 t-53.5 -224.5t-154.5 -78t-155 78t-54 224zM323 0l895 1491h40l-894 -1491h-41zM890 319q0 -38 6 -74.5t17.5 -69.5t29 -61.5t42 -52t54 -39.5t66.5 -25t80 -9q73 0 130.5 26t92 72.5t52.5 105.5t18 127.5t-18 127.5t-52.5 105.5t-92 73t-130.5 26.5q-50 0 -92 -12 t-74 -34.5t-57 -53t-40.5 -67.5t-23.5 -79t-8 -87zM978 319.5q0 146.5 53 224.5t154 78t154.5 -78t53.5 -225t-53.5 -224.5t-154.5 -77.5t-154 78t-53 224.5z" />
<glyph unicode="&#x26;" horiz-adv-x="1573" d="M104 364q0 256 324 384q-127 240 -127 419q0 83 31.5 150t85 109t120 64t139.5 22q165 0 258.5 -78t93.5 -216q0 -45 -11 -87t-42 -92.5t-80.5 -95.5t-132 -91.5t-190.5 -85.5q48 -79 106.5 -157.5t122 -150t132.5 -135t137 -112.5q182 182 239 507h-243v53h447v-53h-148 q-68 -346 -254 -535q160 -108 285 -108q57 0 117 17v-51q-33 -28 -88 -45t-107 -17q-145 0 -315 115q-169 -115 -412 -115q-235 0 -361.5 104.5t-126.5 280.5zM250 392q0 -50 10 -96t38 -94t71.5 -83.5t116 -58t164.5 -22.5q171 0 309 86q-143 102 -278.5 258.5 t-231.5 326.5q-88 -54 -143.5 -133t-55.5 -184zM417 1210q0 -170 134 -409q79 33 142 75.5t104 85.5t68.5 89t39 88t11.5 82q0 60 -19 106t-45.5 70.5t-62 40t-61 19.5t-49.5 4q-61 0 -109 -17.5t-76 -44.5t-46 -62.5t-24.5 -66.5t-6.5 -60z" />
<glyph unicode="'" horiz-adv-x="384" d="M124 1406q-11 40 10 73t57 33q38 0 60 -33t11 -73l-49 -373h-40z" />
<glyph unicode="(" horiz-adv-x="602" d="M113 746q0 177 43.5 363.5t133.5 371.5t216 330h61q-161 -261 -240 -532t-79 -533q0 -539 319 -1065h-61q-188 216 -290.5 504t-102.5 561z" />
<glyph unicode=")" horiz-adv-x="602" d="M36 -319h60q189 217 292.5 505t103.5 559.5t-103.5 559.5t-292.5 506h-60q162 -260 241 -530.5t79 -534.5q0 -544 -320 -1065z" />
<glyph unicode="*" horiz-adv-x="853" d="M128 1063l258 128l-258 124l40 71l239 -159l-21 285h83l-20 -285l236 159l41 -71l-255 -124l255 -128l-41 -71l-236 162l20 -285h-83l21 285l-239 -162z" />
<glyph unicode="+" horiz-adv-x="941" d="M108 506v55h337v333h53v-333h335v-55h-335v-335h-53v335h-337z" />
<glyph unicode="," horiz-adv-x="425" d="M63 -240q23 13 44 30t47.5 45t45.5 68t26 85q-102 3 -102 83q0 40 24 63.5t65 23.5t65.5 -27t24.5 -70q0 -31 -9.5 -67.5t-32 -82t-69 -93t-111.5 -86.5z" />
<glyph unicode="-" horiz-adv-x="996" d="M136 506v55h724v-55h-724z" />
<glyph unicode="." horiz-adv-x="425" d="M126 71q0 26 10.5 45t30.5 29.5t48 10.5q41 0 64.5 -22.5t23.5 -62.5t-23.5 -63t-64.5 -23q-42 0 -65.5 23t-23.5 63z" />
<glyph unicode="/" horiz-adv-x="1008" d="M73 0l809 1491h57l-809 -1491h-57z" />
<glyph unicode="0" horiz-adv-x="1390" d="M118 746q0 130 19.5 242.5t64 210t111 166.5t164.5 108t220 39q102 0 187 -27t148 -77.5t109.5 -119.5t75.5 -155.5t43 -182.5t14 -204q0 -133 -19.5 -246t-63.5 -210t-110.5 -165t-164 -107t-219.5 -39t-220 38.5t-164.5 107t-111 165.5t-64 210t-19.5 246zM283 746 q0 -118 12 -220t42.5 -195.5t76.5 -159t118 -104.5t165 -39q66 0 122 20t98 56t74.5 88t54 113t36 134t20.5 148t6 159q0 98 -9 184t-27.5 168.5t-50.5 147.5t-76.5 114.5t-107.5 76t-140 26.5q-93 0 -165 -39t-118 -104.5t-76.5 -159t-42.5 -195t-12 -219.5z" />
<glyph unicode="1" horiz-adv-x="689" d="M73 0v57h208v1353h-208v55q80 0 173 9.5t156 21.5h37v-1439h209v-57h-575z" />
<glyph unicode="2" horiz-adv-x="1175" d="M71 0v92q125 93 223 172t192.5 165t162 164.5t120 159t79 160.5t26.5 158q0 66 -14 123.5t-44.5 106.5t-75.5 84t-109.5 54.5t-144.5 19.5q-98 0 -182.5 -35.5t-105.5 -83.5q39 -5 60 -25.5t21 -51.5q0 -37 -23 -59t-63 -22t-63.5 25t-23.5 65q0 44 31.5 87t85 77t131 55 t164.5 21q69 0 132.5 -11.5t121.5 -35t106 -61t83 -86t54.5 -114t19.5 -141.5q0 -66 -21.5 -131.5t-52.5 -122.5t-94.5 -127t-117 -122.5t-153 -133t-170.5 -134.5t-198 -150h748l18 238h50v-380h-973z" />
<glyph unicode="3" horiz-adv-x="1122" d="M89 219q0 41 23.5 65.5t64.5 24.5q39 0 62 -22t23 -59q0 -30 -21 -51.5t-60 -25.5q21 -48 105.5 -83.5t182.5 -35.5q197 0 292 97t95 269q0 82 -27.5 145.5t-73 102t-109.5 63t-129.5 34t-142.5 9.5v40q72 13 132 30t120.5 46.5t102 67.5t68 95t26.5 125t-21.5 122.5 t-64 95.5t-109.5 63t-155 22q-87 0 -160.5 -30t-95.5 -72q38 -4 58.5 -24.5t20.5 -48.5q0 -35 -22.5 -57t-60.5 -22q-40 0 -62.5 24t-22.5 62q0 40 28 80t76 71t119.5 50.5t152.5 19.5q99 0 181.5 -21.5t145.5 -64t98.5 -110t35.5 -153.5q0 -65 -22 -119t-59 -93.5 t-92.5 -72t-115.5 -54.5t-135 -40q471 -50 471 -394q0 -87 -28 -157t-75.5 -117t-113.5 -78t-140 -45t-157 -14q-70 0 -134.5 14t-113.5 37.5t-85.5 54t-56 65.5t-19.5 69z" />
<glyph unicode="4" horiz-adv-x="1177" d="M26 400v43l758 1059h125v-1049h188v-53h-188v-343h188v-57h-532v57h187v343h-726zM98 453h654v921z" />
<glyph unicode="5" horiz-adv-x="1113" d="M94 219q0 41 23.5 65.5t65.5 24.5q38 0 61.5 -22.5t23.5 -58.5q0 -30 -22 -51.5t-61 -25.5q23 -48 107.5 -83.5t180.5 -35.5q101 0 176 29.5t121 83.5t68 126t22 162q0 103 -28.5 180.5t-79.5 123.5t-116 68t-144 22q-161 0 -281 -94l-49 11l64 747h735v-143h-695 l-51 -556q153 96 320 96q144 0 251.5 -51t168.5 -154.5t61 -249.5q0 -78 -19 -144t-54 -115t-82.5 -87t-105 -61t-121 -35t-132.5 -12q-70 0 -134.5 14t-113.5 37.5t-85.5 54t-55.5 65.5t-19 69z" />
<glyph unicode="6" horiz-adv-x="1264" d="M115 660q0 98 11.5 189t37 176.5t62.5 158.5t91.5 134t121.5 104t154.5 66.5t188.5 23.5q76 0 137.5 -17t98 -44t56 -58t19.5 -62q0 -39 -23 -64t-64 -25q-38 0 -62 21t-24 58q0 20 7.5 35.5t24.5 26.5t42 12q-25 29 -81 47.5t-116 18.5q-93 0 -169.5 -28t-128 -71.5 t-91.5 -106.5t-62.5 -123t-37.5 -131.5t-20 -121t-7 -101.5l4 -3q65 86 175 140t217 54q84 0 159 -20.5t135.5 -62t105 -99.5t68.5 -135.5t24 -167.5q0 -113 -40 -208.5t-108.5 -160t-160.5 -100.5t-195 -36q-118 0 -212.5 38.5t-156.5 102.5t-103.5 152.5t-59.5 185 t-18 202.5zM281 707q0 -679 381 -679q70 0 133.5 30t112 85.5t77.5 141.5t29 190q0 60 -8.5 114t-26 103.5t-47 89t-69 69t-94.5 45.5t-121 16q-100 0 -203.5 -58.5t-163.5 -146.5z" />
<glyph unicode="7" horiz-adv-x="1092" d="M59 1112v379h1023v-91q-2 -2 -4 -5q-69 -90 -101.5 -134t-88 -122.5t-81.5 -124.5t-66.5 -121.5t-59 -133.5t-43.5 -140t-35 -161.5t-18 -178t-8 -208.5q0 -27 -9.5 -45.5t-25 -26.5t-28.5 -11t-26 -3q-36 0 -62 19.5t-26 66.5q0 115 14 219.5t32 185.5t58.5 170.5 t70.5 147.5t91.5 144.5t99 134.5t114.5 144q23 28 35.5 44t32 41t36.5 46h-854l-20 -236h-51z" />
<glyph unicode="8" horiz-adv-x="1281" d="M108 345q0 58 24 113t63.5 98t94.5 83t111.5 69t120.5 54q-47 20 -82 36t-76 38.5t-70 44t-57.5 50t-46 59t-28.5 69t-11 81.5q0 74 35 141.5t97.5 118.5t157 81.5t205.5 30.5q106 0 196.5 -28.5t150.5 -76.5t93.5 -111.5t33.5 -132.5q0 -54 -17 -99t-47 -80t-77.5 -66 t-103.5 -55t-129 -48q53 -21 91.5 -38t86.5 -42t81.5 -49.5t68 -58t55 -70.5t33.5 -84t13 -101q0 -122 -70 -211.5t-192.5 -135.5t-282.5 -46q-130 0 -231.5 29t-164 79.5t-94.5 116t-32 141.5zM240 347q0 -142 101.5 -230.5t288.5 -88.5q98 0 173.5 25.5t120.5 68 t67.5 94.5t22.5 110q0 48 -14 91.5t-33.5 76t-58 65.5t-68 53.5t-84.5 47.5t-87 41t-94 40q-8 3 -12 5q-65 -35 -120.5 -77.5t-102 -93t-73.5 -109.5t-27 -119zM301 1178q0 -27 5 -52t16.5 -47t24 -41t34 -37t39.5 -32.5t47.5 -30.5t51 -27t56 -26t57.5 -24t61 -24 q81 32 135.5 61.5t96 67t60.5 85t19 108.5q0 53 -17 99t-46 78.5t-65 57.5t-77 39.5t-79.5 22t-73.5 7.5q-39 0 -81.5 -7.5t-90.5 -28.5t-86 -51.5t-62.5 -82t-24.5 -115.5z" />
<glyph unicode="9" horiz-adv-x="1264" d="M96 1008q0 112 40 207.5t108.5 160t161 100.5t195.5 36q118 0 212.5 -38t156.5 -102.5t103.5 -153t59 -184.5t17.5 -203q0 -139 -22.5 -261.5t-73.5 -232t-127 -188t-188.5 -124.5t-252.5 -46q-76 0 -138 17.5t-99 44.5t-56.5 58t-19.5 61q0 39 23.5 64.5t63.5 25.5 q39 0 63 -21t24 -58q0 -19 -7.5 -35.5t-25.5 -27.5t-44 -12q28 -29 84 -47.5t115 -18.5q73 0 136 17t109.5 45.5t85.5 70.5t66 86t47.5 97.5t33 100.5t21 99.5t11.5 90t5 76.5l-4 3q-64 -86 -174 -140t-216 -54t-196.5 33t-157 94.5t-103.5 153.5t-37 205zM254 1016 q0 -72 12 -135t39 -119.5t68.5 -96t104.5 -63t142 -23.5q65 0 135 27t130.5 74t98.5 104q0 679 -379 679q-70 0 -133.5 -30t-112 -85.5t-77 -141t-28.5 -190.5z" />
<glyph unicode=":" horiz-adv-x="470" d="M147 240q0 41 23.5 64.5t65.5 23.5q41 0 64 -24t23 -64q0 -39 -22.5 -60.5t-64.5 -21.5q-28 0 -48.5 9.5t-30.5 28t-10 44.5zM147 752q0 40 23.5 63.5t65.5 23.5q41 0 64 -23.5t23 -63.5t-22.5 -61.5t-64.5 -21.5q-17 0 -31 3.5t-25 10.5t-18.5 17t-11 23t-3.5 29z" />
<glyph unicode=";" horiz-adv-x="540" d="M138 -240q22 13 43.5 30t47.5 45t45 68t24 85q-100 3 -100 83q0 39 23.5 63t63.5 24q41 0 65 -27t24 -70q0 -31 -9 -67.5t-30.5 -82t-67.5 -93t-111 -86.5zM198 752q0 40 23.5 63.5t65.5 23.5q41 0 64 -23.5t23 -63.5t-23 -61.5t-64 -21.5q-17 0 -31 3.5t-25 10.5 t-18.5 17t-11 23t-3.5 29z" />
<glyph unicode="&#x3c;" d="M140 509v42l724 222v-57l-602 -184v-4l602 -179v-55z" />
<glyph unicode="=" horiz-adv-x="1028" d="M153 370v54h725v-54h-725zM153 641v54h725v-54h-725z" />
<glyph unicode="&#x3e;" d="M183 294l724 215v42l-724 222v-57l605 -184v-4l-605 -179v-55z" />
<glyph unicode="?" horiz-adv-x="1138" d="M89 1272q0 44 31 87t84 77t130.5 55t163.5 21q83 0 157.5 -15.5t141 -50.5t114 -86.5t75.5 -127.5t28 -169q0 -107 -37 -192t-104.5 -140.5t-158 -85t-200.5 -31.5l-10 -238h-53v291h24q80 0 147 22t120 68t83.5 123.5t30.5 180.5q0 90 -22 161.5t-67.5 125t-120.5 82.5 t-175 29q-98 0 -182.5 -35.5t-105.5 -83.5q39 -5 60 -25.5t21 -51.5q0 -37 -23 -59t-62 -22q-27 0 -47.5 11.5t-31.5 31.5t-11 47zM388 71q0 26 10.5 45t30.5 29.5t48 10.5q42 0 65 -22.5t23 -62.5t-23 -63t-65 -23t-65.5 23t-23.5 63z" />
<glyph unicode="@" horiz-adv-x="1856" d="M120 539q0 183 65 341.5t178.5 269.5t273 174.5t343.5 63.5q160 0 303 -50.5t248.5 -140.5t167 -220.5t61.5 -281.5q0 -88 -16.5 -168t-52.5 -151.5t-88 -123.5t-128 -83t-168 -31q-167 0 -167 137v34q-18 -52 -49.5 -89t-68.5 -55t-69.5 -25.5t-64.5 -7.5 q-145 0 -227 109.5t-82 305.5q0 120 41.5 214t119 148t178.5 54q32 0 68 -5.5t77.5 -18.5t76.5 -32l78 56h24v-660q0 -105 106 -105q70 0 129 27t100 74.5t70 111t43 135t14 149.5q0 83 -20 160t-56.5 140.5t-87 118t-113 95.5t-134.5 70t-151.5 43.5t-161.5 14.5 q-138 0 -262 -36.5t-222.5 -106.5t-170.5 -166.5t-111 -222t-39 -266.5q0 -164 55.5 -303t153.5 -235.5t234.5 -151t293.5 -54.5l-7 -51q-170 0 -316.5 61t-249 166.5t-161 252.5t-58.5 315zM685 547q0 -180 65 -273t172 -93q41 0 77 13.5t69 42.5t52.5 82.5t19.5 125.5v427 q-76 44 -181 44q-47 0 -87.5 -13.5t-75 -43t-59 -72.5t-38.5 -104t-14 -136z" />
<glyph unicode="A" horiz-adv-x="1415" d="M-4 0v57h166l490 1445h98l532 -1445h149v-57h-526v57h198l-148 420h-593l-140 -420h225v-57h-451zM382 535h551l-283 792h-4z" />
<glyph unicode="B" horiz-adv-x="1326" d="M96 0v57h144v1376h-144v58h615q68 0 126 -10t103.5 -28.5t82 -45t62 -59t43 -71.5t25.5 -81t8 -88q0 -135 -72.5 -222t-221.5 -115q171 -27 264.5 -129.5t93.5 -247.5q0 -82 -31 -153t-90.5 -125t-152.5 -85t-209 -31h-646zM396 57h309q77 0 138.5 19t101.5 51.5t66.5 77 t38 93t11.5 103t-11.5 102.5t-38 92t-66.5 75.5t-101.5 50t-138.5 18.5h-309v-682zM396 795h279q90 0 154 22.5t100 65.5t51.5 96t15.5 122q0 55 -9.5 102t-32.5 90.5t-59 73.5t-92 48t-128 18h-279v-638z" />
<glyph unicode="C" horiz-adv-x="1439" d="M106 745.5q0 160.5 49 301.5t137 243.5t217.5 162t282.5 59.5q53 0 108 -10t120 -34t129.5 -74t116.5 -120l16 228h43v-388h-53q-76 170 -198.5 255.5t-270.5 85.5q-102 0 -188.5 -37.5t-148 -103.5t-105.5 -156t-65 -194.5t-21 -218t21 -218t65 -194t105.5 -155.5 t148 -104t188.5 -38q149 0 271 85t198 255h53v-386h-43l-16 227q-52 -70 -116.5 -119.5t-129.5 -74t-120 -34.5t-108 -10q-153 0 -282.5 59.5t-217.5 162.5t-137 243.5t-49 301z" />
<glyph unicode="D" horiz-adv-x="1524" d="M96 0v57h144v1376h-144v58h603q156 0 291 -57t228.5 -156t147 -237t53.5 -295q0 -160 -53.5 -298t-147.5 -236.5t-228 -155t-291 -56.5h-603zM396 57h303q103 0 192 35.5t154.5 99t112.5 149.5t70.5 189t23.5 216t-23.5 216t-70.5 188.5t-112.5 149t-154.5 98.5t-192 35 h-303v-1376z" />
<glyph unicode="E" horiz-adv-x="1279" d="M96 0v57h144v1376h-144v58h1060v-355h-48l-67 297h-645v-638h424l32 227h49v-516h-49l-32 231h-424v-680h667l65 299h50v-356h-1082z" />
<glyph unicode="F" horiz-adv-x="1203" d="M96 0v57h144v1376h-144v58h1056v-355h-49l-66 297h-641v-681h419l33 228h48v-516h-48l-33 231h-419v-638h252v-57h-552z" />
<glyph unicode="G" horiz-adv-x="1518" d="M106 745.5q0 -160.5 49 -301t137 -243.5t217.5 -162.5t282.5 -59.5q53 0 108 10t120 34.5t129.5 74t116.5 119.5l16 -223h43v652h112v57h-517v-57h255v-386q-59 -112 -154 -168t-212 -56q-103 0 -191 38t-150.5 104t-106.5 155.5t-65 194t-21 218.5q0 94 15 183t44 168 t74.5 144.5t103 113t132 74t159.5 26.5q148 0 270.5 -85.5t198.5 -255.5h53v384h-43l-16 -224q-52 70 -116.5 120t-129.5 74t-120 34t-108 10q-153 0 -282.5 -59.5t-217.5 -162t-137 -243.5t-49 -301.5z" />
<glyph unicode="H" horiz-adv-x="1530" d="M96 0v57h144v1376h-144v58h447v-58h-147v-638h740v638h-146v58h447v-58h-146v-1376h146v-57h-447v57h146v680h-740v-680h147v-57h-447z" />
<glyph unicode="I" horiz-adv-x="636" d="M96 0v57h144v1376h-144v58h447v-58h-147v-1376h147v-57h-447z" />
<glyph unicode="J" horiz-adv-x="734" d="M51 83q0 26 11.5 45t30 28.5t41.5 9.5q36 0 59.5 -16.5t23.5 -53.5q0 -17 -11 -38.5t-38 -31.5q29 -9 41 -9q77 0 112 55t35 168v1193h-173v58h475v-58h-144v-1128q0 -106 -37 -179.5t-105 -110t-163 -36.5q-73 0 -115.5 29.5t-42.5 74.5z" />
<glyph unicode="K" horiz-adv-x="1405" d="M96 0v57h144v1376h-144v58h447v-58h-147v-1376h147v-57h-447zM411 724l707 709h-238v58h468v-58h-153l-639 -638l696 -738h145v-57h-545v57h203z" />
<glyph unicode="L" horiz-adv-x="1171" d="M96 0v57h144v1376h-144v58h447v-58h-147v-1376h620l66 299h48v-356h-1034z" />
<glyph unicode="M" horiz-adv-x="1890" d="M83 0v57h167v1376h-167v58h317l563 -1243h4l533 1243h298v-58h-148v-1376h148v-57h-448v57h146v1276l-559 -1295h-55l-573 1279v-1260h170v-57h-396z" />
<glyph unicode="N" horiz-adv-x="1537" d="M83 0v57h167v1376h-167v58h279l878 -1293v1235h-177v58h411v-58h-175v-1433h-114l-876 1293v-1236h179v-57h-405z" />
<glyph unicode="O" horiz-adv-x="1652" d="M106 745.5q0 163.5 56.5 307t153.5 244t229.5 158t281 57.5t281.5 -57.5t229.5 -158t152.5 -244t56 -307t-56 -307t-152.5 -243.5t-229.5 -158t-281.5 -58t-281 58t-229.5 158t-153.5 243.5t-56.5 307zM272 745.5q0 -112.5 24 -217.5t71.5 -194t113.5 -155.5t155 -104.5 t191 -38t191 38t154.5 104.5t113 155.5t71 194t23.5 217.5t-23.5 217.5t-71 194t-113 156t-154.5 104.5t-191 37.5t-191 -37.5t-155 -104.5t-113.5 -156t-71.5 -194t-24 -217.5z" />
<glyph unicode="P" horiz-adv-x="1226" d="M96 0v57h144v1376h-144v58h617q117 0 206.5 -31.5t144 -88t82 -130.5t27.5 -164q0 -71 -17 -133t-53 -114.5t-89.5 -90t-130 -58.5t-170.5 -21h-317v-603h224v-57h-524zM396 718h287q73 0 130 18.5t94 50.5t61 78t34 97.5t10 112.5t-10 112.5t-34 98t-61 78.5t-94 50.5 t-130 18.5h-287v-715z" />
<glyph unicode="Q" horiz-adv-x="1652" d="M106 746q0 157 54.5 298t149 244t229 163.5t288 60.5t288.5 -60.5t229.5 -163.5t149.5 -244t55 -298q0 -151 -49 -286t-135 -235.5t-208 -165t-263 -78.5q5 -139 41 -229t100 -132t158 -42q76 0 141 33t95 99q-44 0 -71 20.5t-27 56.5q0 23 10 40t28 26t41 9q39 0 60 -25 t21 -65q0 -42 -22.5 -84t-62.5 -77.5t-103.5 -57.5t-137.5 -22q-68 0 -125.5 15.5t-99 41t-74 62t-53 76t-35 85.5t-20.5 87.5t-8 84.5q-139 15 -259 79.5t-204.5 164.5t-132.5 234.5t-48 284.5zM272 746q0 -113 24 -218.5t71 -194.5t112.5 -155.5t155 -104t192.5 -37.5 q74 0 141.5 19.5t122.5 55.5t101.5 86t81 111.5t58.5 132t36 147.5t12 158q0 113 -23 218t-70 194t-112.5 155.5t-155 104t-192.5 37.5t-192.5 -37.5t-155 -104t-112.5 -155.5t-71 -194t-24 -218z" />
<glyph unicode="R" horiz-adv-x="1339" d="M96 0v57h144v1376h-144v58h599q94 0 170.5 -18.5t131 -52.5t91.5 -82.5t55 -107.5t18 -129q0 -71 -22.5 -134.5t-66.5 -115.5t-116 -88t-166 -50q83 -19 132.5 -60.5t76.5 -113.5l172 -482h169v-57h-326l-179 532q-31 91 -89 132t-160 41h-190v-648h224v-57h-524z M396 756h275q72 0 128.5 18.5t93 50t60.5 76t33.5 92t9.5 102.5q0 77 -16.5 136.5t-53 106t-101 71t-154.5 24.5h-275v-677z" />
<glyph unicode="S" horiz-adv-x="1217" d="M113 -10v386h53q111 -340 456 -340q160 0 249.5 76.5t89.5 222.5q0 43 -12 80.5t-28.5 66t-49.5 57t-58.5 46t-73.5 41t-76 36t-83 35.5q-53 21 -80 33t-75.5 34.5t-75 40.5t-63.5 45t-57.5 55t-41 63.5t-29.5 77.5t-9 90q0 81 27.5 149.5t81 119t138 79t192.5 28.5 q39 0 76 -4.5t75.5 -14.5t73.5 -28t67.5 -42t61 -58t50.5 -76l18 213h40v-388h-54q-50 168 -147 254.5t-251 86.5q-148 0 -220.5 -72t-72.5 -192q0 -41 11.5 -77.5t28 -64t49 -55.5t57.5 -45.5t72 -41.5t75 -36t83 -35q60 -26 91.5 -40t85.5 -41.5t83 -49.5t67.5 -57 t58 -70.5t33.5 -83.5t14 -102q0 -190 -123 -301.5t-355 -111.5q-316 0 -468 217l-10 -206h-45z" />
<glyph unicode="T" horiz-adv-x="1268" d="M51 1136v355h1172v-355h-52l-76 297h-388v-1376h252v-57h-661v57h253v1376h-374l-77 -297h-49z" />
<glyph unicode="U" horiz-adv-x="1537" d="M63 1433v58h449v-58h-148v-947q0 -123 26 -210t78.5 -139.5t126 -76.5t174.5 -24t174.5 24t126 76.5t78 139t25.5 210.5v947h-144v58h447v-58h-145v-915q0 -184 -59 -302t-183.5 -177.5t-319.5 -59.5q-291 0 -425.5 132t-134.5 407v915h-146z" />
<glyph unicode="V" horiz-adv-x="1407" d="M-17 1433h151l535 -1443h97l486 1443h167v58h-452v-58h226l-420 -1267h-4l-458 1267h198v58h-526v-58z" />
<glyph unicode="W" horiz-adv-x="2126" d="M-15 1433v58h527v-58h-201l460 -1260h4l292 894l-108 366h-158v58h526v-58h-199l368 -1250h4l400 1250h-221v58h451v-58h-169l-465 -1443h-108l-291 979l-326 -979h-104l-533 1443h-149z" />
<glyph unicode="X" horiz-adv-x="1358" d="M28 0v57h214l363 661l-383 715h-194v58h600v-58h-230l328 -610l331 610h-252v58h526v-58h-209l-368 -664l382 -712h195v-57h-598v57h226l-327 608l-325 -608h246v-57h-525z" />
<glyph unicode="Y" horiz-adv-x="1326" d="M-19 1433v58h531v-58h-207l425 -756h5l383 756h-213v58h430v-58h-157l-416 -828v-548h145v-57h-447v57h145v539l-479 837h-145z" />
<glyph unicode="Z" horiz-adv-x="1277" d="M81 0v57l899 1376h-738l-76 -297h-51v355h1044v-58l-899 -1376h799l77 299h51v-356h-1106z" />
<glyph unicode="[" horiz-adv-x="567" d="M183 -319v2130h326v-58h-192v-2015h192v-57h-326z" />
<glyph unicode="\" horiz-adv-x="1008" d="M71 1491l809 -1491h57l-809 1491h-57z" />
<glyph unicode="]" horiz-adv-x="567" d="M59 -262h193v2015h-193v58h327v-2130h-327v57z" />
<glyph unicode="^" horiz-adv-x="1000" d="M106 551l256 224q58 54 85 70.5t53 16.5q25 0 53 -17t86 -70l253 -224l-16 -25l-378 220l-372 -220z" />
<glyph unicode="_" horiz-adv-x="787" d="M32 0h724v-53h-724v53z" />
<glyph unicode="`" horiz-adv-x="666" d="M134 1445q0 -58 134 -128l248 -146l16 26l-191 207q-56 59 -85.5 81.5t-54.5 22.5q-27 0 -47 -18.5t-20 -44.5z" />
<glyph unicode="a" d="M81 240q0 33 6.5 63t20.5 61.5t39 60t60.5 55.5t86 49t113.5 40t146.5 30t181.5 17v159q0 264 -275 264q-97 0 -172 -35.5t-97 -85.5q28 0 48.5 -10t32 -28t11.5 -41q0 -36 -23 -57.5t-64 -21.5t-64.5 24.5t-23.5 65.5q0 43 27.5 84.5t76 75.5t122.5 55t160 21 q93 0 162 -19t112.5 -51.5t69.5 -82.5t36 -106t10 -128v-508q0 -41 6 -69t18 -41.5t24.5 -18.5t30.5 -5q37 0 70 22v-49q-64 -45 -145 -45q-75 0 -114 36t-39 132v101q-26 -72 -68.5 -126t-93.5 -86t-104.5 -47.5t-108.5 -15.5q-128 0 -203.5 74t-75.5 187zM236 272 q0 -83 54.5 -137t144.5 -54q128 0 214 92t86 229v171q-115 -5 -204 -26t-144 -50t-89.5 -67.5t-48 -76.5t-13.5 -81z" />
<glyph unicode="b" horiz-adv-x="1154" d="M12 1480v54h297v-684q15 47 39.5 85t54 63t61 43t65 27.5t62 13.5t55.5 4q198 0 308.5 -146t110.5 -408q0 -159 -56 -284t-161 -197t-243 -72q-68 0 -148.5 20.5t-147.5 61.5l-118 -82h-31v1501h-148zM309 106q107 -63 238 -63q78 0 143 30t113.5 88.5t76 153.5t27.5 217 q0 238 -84.5 362t-226.5 124q-33 0 -65 -7.5t-65 -23.5t-61 -44t-49.5 -65t-34 -91t-12.5 -118v-563z" />
<glyph unicode="c" horiz-adv-x="1064" d="M87 539q0 74 13.5 141t38.5 122t60.5 100.5t78.5 79.5t93.5 57t106 35t114.5 12q87 0 163.5 -21t127.5 -54.5t80 -76t29 -84.5q0 -28 -10 -49t-30 -33t-49 -12q-40 0 -63 22t-23 57t26 57t69 22q-21 49 -104 85t-182 36q-57 0 -107 -13.5t-88.5 -37.5t-70 -58t-53 -75.5 t-36.5 -90t-22 -100t-7 -107.5q0 -126 31 -223.5t86.5 -158.5t130.5 -91.5t166 -30.5q185 0 328 115v-54q-164 -131 -375 -131q-125 0 -225 42.5t-164.5 118t-98.5 177t-34 222.5z" />
<glyph unicode="d" horiz-adv-x="1181" d="M89 532q0 160 56 285t161 197t243 72q68 0 149 -20.5t148 -61.5v476h-145v54h293v-1481h148v-53h-296v215q-14 -40 -34 -74t-43.5 -58t-51 -42.5t-54.5 -30t-55.5 -18.5t-52 -10t-46.5 -3q-199 0 -309.5 146t-110.5 407zM248 532q0 -237 84 -361t226 -124q33 0 65.5 7.5 t65.5 23.5t60.5 44t49.5 65t34.5 91t12.5 118v563q-108 63 -241 63q-77 0 -141.5 -30t-113 -88.5t-75.5 -153.5t-27 -218z" />
<glyph unicode="e" horiz-adv-x="1085" d="M87 539q0 129 39.5 234t108 172.5t159 104t194.5 36.5q83 0 156 -27t130 -78t89.5 -132.5t32.5 -183.5q0 -68 -12 -128h-742q0 -102 20 -183.5t56 -138t87.5 -94t113 -55t133.5 -17.5q185 0 328 115v-54q-160 -131 -375 -131q-101 0 -185.5 27.5t-145.5 77.5t-103 119.5 t-63 154t-21 181.5zM242 590h604q8 52 8 111q0 65 -16.5 124t-48 107t-83.5 76.5t-116 28.5q-71 0 -129 -26t-97 -69t-66.5 -101t-40.5 -121t-15 -130z" />
<glyph unicode="f" horiz-adv-x="616" d="M57 0v53h146v959h-146v53h146v166q0 159 77 241.5t220 82.5q73 0 115.5 -29.5t42.5 -74.5q0 -38 -24.5 -60.5t-58.5 -22.5q-23 0 -40.5 6t-30 22.5t-12.5 42.5q0 17 11 38t38 31q-25 8 -41 8q-77 0 -112.5 -55t-35.5 -168v-228h217v-53h-217v-959h217v-53h-512z" />
<glyph unicode="g" horiz-adv-x="1073" d="M55 -219q0 89 74 150t188 75q-67 22 -103.5 72.5t-36.5 106.5q0 50 26 93t73.5 74t111.5 46q-77 20 -134 55.5t-89.5 81.5t-47.5 95.5t-15 104.5q0 160 109 255.5t289 95.5q173 0 280 -87q71 129 187 129q44 0 69 -21t25 -57q0 -34 -19 -56.5t-54 -22.5q-30 0 -54 21.5 t-27 74.5q-59 -16 -98 -96q87 -93 87 -236q0 -160 -107 -255.5t-289 -95.5q-44 0 -81.5 -10t-64 -27.5t-41.5 -42.5t-15 -54q0 -53 40.5 -87.5t108.5 -34.5h228q169 0 256 -62t87 -179q0 -83 -43 -148t-118.5 -105t-172.5 -60.5t-211 -20.5q-90 0 -163 12t-131.5 37.5 t-91 71t-32.5 107.5zM168 -203q0 -91 80 -141t238 -50q198 0 299 63.5t101 174.5q0 72 -61.5 112t-183.5 40h-226q-64 0 -113.5 -18t-77.5 -47.5t-42 -63.5t-14 -70zM240 735q0 -138 73.5 -220t186.5 -82t185.5 82.5t72.5 220t-72.5 219.5t-185.5 82q-114 0 -187 -82 t-73 -220z" />
<glyph unicode="h" horiz-adv-x="1203" d="M45 0v53h144v1427h-144v54h294v-782q20 68 51 124t67.5 94.5t79.5 65t87.5 38.5t91.5 12q65 0 119.5 -18.5t98 -56t68 -103t24.5 -152.5v-703h147v-53h-436v53h141v699q0 120 -57.5 181t-168.5 61q-61 0 -117.5 -30.5t-100 -85.5t-69.5 -138.5t-26 -183.5v-503h145v-53 h-439z" />
<glyph unicode="i" horiz-adv-x="544" d="M59 0v53h148v959h-148v53h297v-1012h144v-53h-441zM160 1327q0 43 29 68.5t75 25.5q45 0 73.5 -26t28.5 -68q0 -29 -13 -50t-36 -31t-53 -10q-47 0 -75.5 24t-28.5 67z" />
<glyph unicode="j" horiz-adv-x="510" d="M-102 -343q0 38 24 60.5t59 22.5q36 0 59 -16.5t23 -55.5q0 -17 -11 -38t-37 -30q25 -9 40 -9q77 0 112.5 55.5t35.5 168.5v1197h-188v53h337v-1189q0 -79 -20 -140t-58 -101.5t-93 -61t-126 -20.5q-73 0 -115 29t-42 75zM158 1327q0 42 28.5 68t73.5 26t73.5 -26 t28.5 -68q0 -29 -13 -50t-36 -31t-53 -10q-46 0 -74 24t-28 67z" />
<glyph unicode="k" horiz-adv-x="1238" d="M45 0v53h144v1427h-144v54h294v-1481h145v-53h-439zM366 567l556 445h-225v53h478v-53h-176l-490 -386l548 -573h161v-53h-523v53h181z" />
<glyph unicode="l" horiz-adv-x="553" d="M57 0v53h146v1427h-146v54h295v-1481h144v-53h-439z" />
<glyph unicode="m" horiz-adv-x="1903" d="M57 0v53h146v959h-146v53h295v-313q24 85 65.5 150.5t92 104.5t106 59t114.5 20q65 0 119.5 -18.5t98 -56t68.5 -102t25 -151.5q24 83 65.5 147.5t92.5 103t106.5 58t113.5 19.5q52 0 97 -11t84.5 -36t68 -62.5t45 -94t16.5 -126.5v-703h144v-53h-437v53h144v699 q0 80 -26.5 134t-77.5 81t-125 27q-48 0 -93.5 -19t-85 -56.5t-69 -89.5t-46.5 -122.5t-17 -150.5v-503h146v-53h-437v53h142v699q0 79 -26.5 133.5t-77 81.5t-123.5 27q-49 0 -95 -19t-85.5 -56.5t-69.5 -90t-46.5 -122.5t-16.5 -150v-503h146v-53h-441z" />
<glyph unicode="n" horiz-adv-x="1215" d="M57 0v53h146v959h-146v53h295v-313q24 85 65.5 150.5t92 104.5t106 59t114.5 20q51 0 96 -11t85 -36t68.5 -62.5t45 -94t16.5 -126.5v-703h146v-53h-437v53h142v699q0 79 -26.5 133.5t-77 81.5t-123.5 27q-49 0 -95 -19t-85.5 -56.5t-69.5 -90t-46.5 -122.5t-16.5 -150 v-503h146v-53h-441z" />
<glyph unicode="o" horiz-adv-x="1162" d="M87 532q0 -91 19 -172.5t59 -151.5t97.5 -120.5t139 -79.5t179.5 -29t180 29t139.5 79.5t97 120.5t58.5 151.5t19 173t-19 173t-58.5 151.5t-97 120.5t-139.5 79.5t-180 29q-82 0 -152.5 -20t-124 -57t-95.5 -87.5t-68.5 -112.5t-40 -131.5t-13.5 -145.5zM245 532.5 q0 243.5 86.5 374t250 130.5t250 -130.5t86.5 -374t-86.5 -374t-250 -130.5t-250 130.5t-86.5 374z" />
<glyph unicode="p" horiz-adv-x="1183" d="M43 -372h146v1384h-146v53h296v-215q15 47 39.5 85t54 63t60.5 43t64.5 27.5t62 13.5t55.5 4q131 0 225.5 -65.5t144.5 -190t50 -298.5q0 -159 -56 -284t-161.5 -197t-243.5 -72q-68 0 -148 20.5t-147 61.5v-433h145v-54h-441v54zM339 106q107 -63 238 -63q78 0 143 30 t114 88.5t76 153.5t27 217q0 238 -84.5 362t-226.5 124q-33 0 -65 -7.5t-65 -23.5t-61 -44t-49.5 -65t-34 -91t-12.5 -118v-563z" />
<glyph unicode="q" horiz-adv-x="1154" d="M89 532q0 160 56 285t161 197t243 72q68 0 149 -20.5t148 -61.5l117 82h31v-1458h148v-54h-484v54h188v587q-14 -40 -34 -74t-43.5 -58t-51 -42.5t-54.5 -30t-55.5 -18.5t-52 -10t-46.5 -3q-199 0 -309.5 146t-110.5 407zM248 532q0 -237 84 -361t226 -124q33 0 65.5 7.5 t65.5 23.5t60.5 44t49.5 65t34.5 91t12.5 118v563q-108 63 -241 63q-77 0 -141.5 -30t-113 -88.5t-75.5 -153.5t-27 -218z" />
<glyph unicode="r" horiz-adv-x="827" d="M57 0v53h146v959h-146v53h295v-317q16 80 52 145.5t81 106.5t95 63.5t99 22.5q58 0 88 -29.5t30 -74.5q0 -42 -26 -70t-68 -28q-38 0 -62.5 22.5t-24.5 62.5q0 41 27 66q-39 -4 -79.5 -27.5t-78.5 -67.5t-67.5 -104t-47.5 -143t-18 -177v-463h231v-53h-526z" />
<glyph unicode="s" horiz-adv-x="974" d="M94 -21v326h48q48 -124 137.5 -201.5t212.5 -77.5q75 0 130 21.5t88.5 70t33.5 120.5q0 48 -21.5 86t-57.5 64t-83 47.5t-98.5 40t-103.5 38t-98.5 45.5t-83 58t-57.5 80t-21 108q0 126 91.5 203.5t270.5 77.5q88 0 173 -39.5t140 -124.5l10 164h34v-326h-49 q-79 279 -298 279q-116 0 -173 -52t-57 -131q0 -43 17.5 -78.5t48 -60t71 -46.5t85.5 -38t93 -35t93.5 -36.5t86 -44t70.5 -56.5t47.5 -74t17.5 -97q0 -147 -98.5 -229t-281.5 -82q-41 0 -85 8.5t-95 27t-101.5 56.5t-90.5 91l-10 -183h-36z" />
<glyph unicode="t" horiz-adv-x="632" d="M38 1012v53h145l96 277h53v-277h282v-53h-282v-803q0 -84 28.5 -126t106.5 -42q58 0 147 28v-52q-103 -38 -216 -38q-37 0 -66 5t-58 19.5t-48 37.5t-31 62.5t-12 92.5v816h-145z" />
<glyph unicode="u" horiz-adv-x="1201" d="M28 1012v53h295v-752q0 -120 58 -181t168 -61q61 0 117.5 30.5t100 85.5t69.5 138.5t26 183.5v503h-202v53h352v-1012h144v-53h-294v315q-25 -86 -66 -151.5t-91 -105t-105 -59.5t-114 -20q-66 0 -120.5 18.5t-98 56t-68 103t-24.5 152.5v703h-147z" />
<glyph unicode="v" horiz-adv-x="1162" d="M-6 1012h146l405 -1022h122l343 1022h155v53h-421v-53h208l-287 -880h-5l-341 880h205v53h-530v-53z" />
<glyph unicode="w" horiz-adv-x="1823" d="M-6 1012v53h502v-53h-181l345 -880h5l236 718l-60 162h-144v53h517v-53h-200l315 -880h4l279 880h-200v53h413v-53h-155l-333 -1022h-121l-285 781l-264 -781h-122l-405 1022h-146z" />
<glyph unicode="x" horiz-adv-x="1154" d="M24 0v53h157l313 482l-293 477h-158v53h528v-53h-195l250 -403l262 403h-207v53h429v-53h-158l-294 -451l315 -508h157v-53h-525v53h185l-264 431l-278 -431h203v-53h-427z" />
<glyph unicode="y" horiz-adv-x="1154" d="M-8 1012v53h528v-53h-205l341 -880h4l290 880h-208v53h421v-53h-155l-343 -1018q-77 -226 -171.5 -333.5t-227.5 -107.5q-72 0 -115 32t-43 78q0 40 24 62.5t59 22.5q36 0 60 -17t24 -54q0 -18 -11.5 -40t-37.5 -31q18 -6 44 -6q31 0 60 8.5t66.5 34t71.5 67t71 113.5 t68 167h-66l-405 1022h-144z" />
<glyph unicode="z" horiz-adv-x="1043" d="M69 0v49l697 963h-559l-56 -252h-51v305h839v-49l-691 -963h608l58 252h49v-305h-894z" />
<glyph unicode="{" horiz-adv-x="632" d="M77 707q24 -3 44 -10.5t34.5 -15.5t26 -22.5t19 -26t12.5 -32.5t7.5 -35t3.5 -40t1.5 -41t0.5 -45q0 -61 -10.5 -215t-10.5 -220q0 -59 9 -105t24.5 -80t42 -58.5t57.5 -40t74 -24.5t87.5 -12t103.5 -3v57q-44 0 -69 1.5t-67.5 14.5t-65.5 37t-41.5 74t-18.5 120 q0 62 10.5 253.5t10.5 253.5q0 124 -50 180.5t-154 71.5v4q104 15 154 71t50 180q0 62 -10.5 253.5t-10.5 253.5q0 51 9.5 91.5t23 66t38 43.5t43.5 27t50.5 13.5t49 5t48.5 0.5v58q-69 0 -119.5 -5t-98 -18t-79 -36t-55.5 -58.5t-35 -87t-11 -119.5q0 -66 10.5 -220.5 t10.5 -216.5q0 -30 -0.5 -44.5t-1.5 -40.5t-3.5 -40t-7.5 -34.5t-12.5 -32t-19 -26t-26 -22.5t-34.5 -15t-44 -11v-77z" />
<glyph unicode="|" horiz-adv-x="421" d="M183 -319v2130h55v-2130h-55z" />
<glyph unicode="}" horiz-adv-x="632" d="M30 -262q45 0 70 1.5t67 14.5t65 37t41.5 74t18.5 120q0 62 -11 253.5t-11 253.5q0 124 50.5 180.5t154.5 71.5v4q-69 10 -112.5 35t-68 78.5t-24.5 137.5q0 62 11 253.5t11 253.5q0 51 -9.5 91.5t-23 66t-38 43.5t-43 27t-50.5 13.5t-49.5 5t-48.5 0.5v58q69 0 119.5 -5 t98 -18t79 -36t55.5 -58.5t35 -87t11 -119.5q0 -66 -10.5 -220.5t-10.5 -216.5v-44.5t1.5 -41t4 -39.5t7.5 -34.5t12.5 -32t19 -26t26 -22.5t34.5 -15t44 -11v-77q-24 -3 -44 -10.5t-34.5 -15.5t-26 -22.5t-19 -26.5t-12.5 -32.5t-7.5 -35t-4 -40t-1.5 -41v-44.5 q0 -61 10.5 -215t10.5 -220q0 -59 -8.5 -105t-24.5 -80t-42.5 -58.5t-57 -40t-74 -24.5t-88 -12t-103.5 -3v57z" />
<glyph unicode="~" horiz-adv-x="1077" d="M138 620q59 54 99.5 82t77 39t83.5 11q43 0 98 -15.5t97.5 -34.5t89 -34.5t75.5 -15.5q43 0 76 18t75 78l36 -22q-37 -71 -78 -100.5t-107 -29.5q-38 0 -104 25t-137 50.5t-123 25.5q-58 0 -104 -19.5t-121 -83.5z" />
<glyph unicode="&#xa1;" horiz-adv-x="498" d="M162 -356q0 -46 26 -65.5t62 -19.5q16 0 30 4t27.5 13t21.5 26.5t8 41.5q0 141 -28 484t-32 569h-53q-6 -222 -34 -565.5t-28 -487.5zM162 1002q0 41 23 62.5t65 21.5q43 0 66 -21.5t23 -62.5q0 -39 -23.5 -62.5t-65.5 -23.5q-41 0 -64.5 23.5t-23.5 62.5z" />
<glyph unicode="&#xa2;" horiz-adv-x="1118" d="M106 539q0 129 40 234t109.5 172.5t160 104t193.5 36.5h27l39 298h30l-38 -300q152 -12 248.5 -82t96.5 -152q0 -21 -6 -38t-17.5 -29.5t-28 -19.5t-38.5 -7q-40 0 -62.5 21.5t-22.5 57.5q0 23 11.5 41t32.5 28t48 10q-20 47 -97 82.5t-172 38.5l-123 -964 q64 -22 138 -22q186 0 329 115v-54q-164 -131 -378 -131q-59 0 -102 9l-38 -307h-30l40 311q-125 27 -214 104.5t-132.5 190t-43.5 252.5zM262 553q0 -187 64.5 -305.5t179.5 -166.5l124 954q-76 -3 -138.5 -29.5t-104.5 -71t-70.5 -105.5t-41.5 -129.5t-13 -146.5z" />
<glyph unicode="&#xa3;" horiz-adv-x="1260" d="M110 0v63q65 80 109.5 152.5t68.5 135.5t34 116t10 108q0 68 -21 143h-201v55h182q-7 19 -32 81t-35.5 92.5t-22 85t-11.5 104.5q0 81 28 149.5t82 119t138.5 79t192.5 28.5q60 0 114.5 -11t109.5 -35.5t102 -69.5t79 -107l15 213h43v-388h-54q-35 112 -86.5 185.5 t-130 114.5t-181.5 41q-150 0 -222 -72t-72 -192q0 -71 18.5 -140.5t50.5 -152.5t44 -125h379v-55h-366q9 -41 9 -90q0 -68 -23.5 -138.5t-83.5 -159.5t-158 -188h846l19 238h50v-380h-1024z" />
<glyph unicode="&#xa4;" horiz-adv-x="1583" d="M100 581v58h119q-6 51 -6 107q0 54 6 106h-119v57h126q22 131 79.5 241.5t143 191t201 125.5t249.5 45q52 0 106.5 -10t119.5 -34t129 -74t116 -120l18 228h43v-388h-53q-76 170 -198 255.5t-271 85.5q-109 0 -200 -42t-154.5 -117t-104.5 -173t-58 -214h439v-57h-447 q-4 -69 -4 -106q0 -39 4 -107h447v-58h-439q17 -116 58 -213.5t104.5 -172.5t154.5 -117t200 -42q149 0 271 85t198 255h53v-386h-43l-18 227q-42 -56 -93 -100t-99.5 -69.5t-101.5 -41.5t-94.5 -21.5t-82.5 -5.5q-107 0 -203.5 29t-173.5 82.5t-138 128t-101 166.5t-57 196 h-126z" />
<glyph unicode="&#xa5;" horiz-adv-x="1494" d="M69 1433v58h529v-58h-206l431 -766h4l380 766h-213v58h429v-58h-155l-408 -819h274v-56h-284v-501h144v-57h-447v57h148v501h-286v56h274l-468 819h-146z" />
<glyph unicode="&#xa6;" horiz-adv-x="427" d="M185 -319v958h57v-958h-57zM185 852v959h57v-959h-57z" />
<glyph unicode="&#xa7;" horiz-adv-x="1067" d="M108 1214q0 140 61 242t166 153.5t242 51.5q98 0 182.5 -30.5t132 -78t47.5 -97.5q0 -15 -5 -26t-15 -17t-23 -6q-12 0 -21.5 4t-15 13.5t-5.5 23.5q0 21 16 32.5t39 11.5q-10 30 -41 57.5t-74.5 47.5t-100 32t-116.5 12q-102 0 -182 -26.5t-132 -74t-82.5 -106 t-42.5 -128.5q145 -120 249 -212t202.5 -187.5t162.5 -173t113 -156.5t71.5 -152.5t22.5 -146.5q0 -106 -35 -191t-97.5 -141t-148.5 -86t-188 -30q-98 0 -182.5 31t-132 78.5t-47.5 97.5q0 23 11.5 36t31.5 13q19 0 30.5 -10t11.5 -30q0 -22 -16 -33.5t-39 -11.5 q21 -62 116.5 -105.5t215.5 -43.5q102 0 182 26.5t132 73.5t82.5 105t42.5 127q-145 121 -250 213.5t-202.5 187.5t-161.5 173t-113 157t-71.5 152.5t-22.5 147.5zM130 1214q0 -54 13.5 -109t36 -106.5t61.5 -109.5t78 -108t98.5 -111t110.5 -110.5t126 -115t134.5 -115.5 t144.5 -120q4 48 4 68q0 53 -14 108.5t-36 106.5t-61.5 109.5t-78 107.5t-99 111.5t-110 110t-127 115.5t-133.5 115.5t-144 120.5q-4 -48 -4 -68z" />
<glyph unicode="&#xa8;" horiz-adv-x="815" d="M134 1333q0 36 21 57.5t62 21.5q27 0 45.5 -10.5t27 -28t8.5 -40.5q0 -36 -20 -56.5t-61 -20.5t-62 20.5t-21 56.5zM518 1333q0 36 21 57.5t62 21.5q40 0 60 -21.5t20 -57.5t-20 -56.5t-60 -20.5q-42 0 -62.5 20.5t-20.5 56.5z" />
<glyph unicode="&#xa9;" horiz-adv-x="1716" d="M113 746q0 158 57 300t155.5 244t237 162t295.5 60t296 -60t237.5 -162t155.5 -244t57 -300q0 -161 -57 -303t-155.5 -244t-237.5 -161t-296 -59t-295.5 59t-237 161t-155.5 244t-57 303zM149 746q0 -163 56 -301t152.5 -231.5t226 -146t274.5 -52.5t274.5 52.5t226 146 t152.5 231.5t56 301q0 161 -56 299t-152.5 231.5t-226 146.5t-274.5 53t-274.5 -53t-226 -146.5t-152.5 -231.5t-56 -299zM451 746q0 130 50 234t144 164.5t217 60.5q32 0 64.5 -5.5t72 -20t78 -43.5t69.5 -71l10 134h26v-234h-32q-46 104 -118.5 154t-162.5 50 q-76 0 -137 -34t-99.5 -93t-59 -135t-20.5 -161.5t20.5 -161.5t59 -135t99.5 -93.5t137 -34.5q59 0 110.5 21.5t95.5 68t75 115.5h32v-234h-26l-10 134q-31 -41 -69.5 -70.5t-78 -44t-72 -20.5t-64.5 -6q-123 0 -217.5 61t-144 165.5t-49.5 234.5z" />
<glyph unicode="&#xaa;" horiz-adv-x="866" d="M142 724v30h602v-30h-602zM158 1006q0 31 9.5 59t36 57t69 50.5t113 37t163.5 19.5v98q0 155 -163 155q-59 0 -104 -20.5t-58 -49.5q25 0 40 -13t15 -36q0 -22 -13 -35t-38 -13t-39 15t-14 40q0 55 64.5 98.5t167.5 43.5q69 0 115.5 -16.5t71.5 -49t35 -72.5t10 -96v-302 q0 -47 13 -63.5t36 -16.5q28 0 40 13v-31q-39 -26 -87 -26q-22 0 -38 4t-28.5 15t-19 31t-6.5 50v60q-30 -83 -92 -123.5t-134 -40.5q-76 0 -120.5 44.5t-44.5 113.5zM254 1026q0 -34 14 -60.5t40.5 -41.5t61.5 -15q49 0 90.5 26t65 70.5t23.5 97.5v100q-68 -3 -121 -15 t-85 -29t-53 -40t-28.5 -45.5t-7.5 -47.5z" />
<glyph unicode="&#xab;" horiz-adv-x="1189" d="M87 509v42l533 435v-57l-398 -397v-4l398 -392v-55zM547 509v42l533 435v-57l-397 -397v-4l397 -392v-55z" />
<glyph unicode="&#xac;" horiz-adv-x="1098" d="M193 506v55h752v-390h-53v335h-699z" />
<glyph unicode="&#xad;" horiz-adv-x="996" d="M136 506v55h724v-55h-724z" />
<glyph unicode="&#xae;" horiz-adv-x="1716" d="M113 746q0 158 57 300t155.5 244t237 162t295.5 60t296 -60t237.5 -162t155.5 -244t57 -300q0 -161 -57 -303t-155.5 -244t-237.5 -161t-296 -59t-295.5 59t-237 161t-155.5 244t-57 303zM149 746q0 -163 56 -301t152.5 -231.5t226 -146t274.5 -52.5t274.5 52.5t226 146 t152.5 231.5t56 301q0 161 -56 299t-152.5 231.5t-226 146.5t-274.5 53t-274.5 -53t-226 -146.5t-152.5 -231.5t-56 -299zM524 319v35h88v826h-88v34h360q70 0 124 -17t87.5 -48.5t50.5 -74t17 -94.5q0 -87 -55.5 -150t-162.5 -80q92 -22 122 -107l104 -289h101v-35h-197 l-106 320q-19 54 -55 79.5t-97 25.5h-110v-390h132v-35h-315zM707 773h162q53 0 92 16.5t60.5 46t31.5 65t10 77.5q0 202 -194 202h-162v-407z" />
<glyph unicode="&#xaf;" horiz-adv-x="809" d="M134 1258v57h541v-57h-541z" />
<glyph unicode="&#xb0;" horiz-adv-x="557" d="M100 1333q0 75 52.5 127t126.5 52q75 0 127 -52t52 -127q0 -73 -52.5 -126t-126.5 -53t-126.5 53t-52.5 126zM138 1333q0 -40 18 -72t50.5 -50t72.5 -18q61 0 100.5 39.5t39.5 100.5q0 40 -18 73t-50 51.5t-72 18.5q-61 0 -101 -41t-40 -102z" />
<glyph unicode="&#xb1;" horiz-adv-x="943" d="M110 160v53h725v-53h-725zM110 634v54h335v334h53v-334h337v-54h-337v-336h-53v336h-335z" />
<glyph unicode="&#xb2;" horiz-adv-x="708" d="M43 817v63q115 85 196.5 154t149.5 142.5t101.5 144.5t33.5 140q0 102 -58 166t-174 64q-37 0 -73.5 -10t-62 -26t-32.5 -34q23 -3 35 -16t12 -31q0 -16 -6 -27t-17.5 -16.5t-27.5 -5.5q-28 0 -43.5 15t-15.5 41q0 55 73.5 99.5t178.5 44.5q63 0 118 -16t99 -47.5t70 -84 t26 -120.5q0 -31 -8 -61.5t-19.5 -58t-35 -59t-45 -57t-58.5 -59.5t-66 -59t-78 -63t-84 -64t-94 -69h445l13 141h34v-231h-587z" />
<glyph unicode="&#xb3;" horiz-adv-x="679" d="M51 950q0 26 15 42t40 16t39.5 -14t14.5 -37q0 -19 -13 -32t-37 -16q13 -28 63.5 -49t107.5 -21q118 0 174.5 57.5t56.5 160.5q0 35 -8.5 64.5t-23.5 51t-36 38.5t-45.5 28t-54 18t-58 10t-60.5 3v25q266 49 266 217q0 54 -22.5 93.5t-70.5 62.5t-116 23 q-51 0 -94.5 -17.5t-54.5 -41.5q22 -3 33.5 -15.5t11.5 -29.5q0 -49 -51 -49q-25 0 -39 14.5t-14 38.5q0 52 66 93t164 41q78 0 139.5 -22.5t99 -70.5t37.5 -116q0 -48 -19 -86t-54.5 -64.5t-78 -45t-97.5 -31.5q131 -14 204 -71.5t73 -165.5q0 -64 -25 -113t-69.5 -77.5 t-98.5 -42.5t-118 -14q-104 0 -175.5 44.5t-71.5 100.5z" />
<glyph unicode="&#xb4;" horiz-adv-x="666" d="M134 1197l194 207q53 58 84 81t55 23q27 0 46 -18t19 -45q0 -57 -132 -128l-249 -146z" />
<glyph unicode="&#xb6;" horiz-adv-x="1514" d="M122 724q0 -160 53 -295t147.5 -229t228.5 -147t292 -53h114v1449h-114q-157 0 -291.5 -54t-229 -149t-147.5 -230t-53 -292zM1101 0v1449h303v-59h-146v-1333h146v-57h-303z" />
<glyph unicode="&#xb7;" horiz-adv-x="442" d="M132 504q0 39 24 62.5t65.5 23.5t65.5 -23.5t24 -62.5q0 -27 -11 -46t-31 -29t-47 -10q-42 0 -66 22.5t-24 62.5z" />
<glyph unicode="&#xb8;" horiz-adv-x="616" d="M134 -426l8 34q61 -21 116 -21q39 0 67.5 13t43 34.5t21 42.5t6.5 42q0 23 -7 44t-23 41.5t-48.5 33t-77.5 11.5v151h39v-122q93 0 149 -41t56 -118q0 -78 -57.5 -124t-154.5 -46q-61 0 -138 25z" />
<glyph unicode="&#xb9;" horiz-adv-x="417" d="M45 817v41h126v801h-126v36q91 0 203 20h20v-857h126v-41h-349z" />
<glyph unicode="&#xba;" horiz-adv-x="913" d="M147 724v30h622v-30h-622zM160 1180q0 -69 18.5 -128.5t54 -105.5t92.5 -72t131 -26q73 0 131 26t94 72t54.5 105.5t18.5 128.5t-18.5 128.5t-54.5 105.5t-94 72t-131 26q-74 0 -131 -26t-92.5 -72t-54 -105.5t-18.5 -128.5zM258 1180.5q0 145.5 50 222.5t148 77t150 -77 t52 -222.5t-52 -223t-150 -77.5q-97 0 -147.5 77.5t-50.5 223z" />
<glyph unicode="&#xbb;" horiz-adv-x="1189" d="M110 81l533 428v42l-533 435v-57l399 -397v-4l-399 -392v-55zM573 81l533 428v42l-533 435v-57l396 -397v-4l-396 -392v-55z" />
<glyph unicode="&#xbc;" horiz-adv-x="1396" d="M45 605v41h126v801h-126v35q91 0 203 20h20v-856h126v-41h-349zM147 0l810 1491h57l-809 -1491h-58zM701 240v30l455 631h77v-624h113v-37h-113v-199h113v-41h-322v41h112v199h-435zM750 277h386v536z" />
<glyph unicode="&#xbd;" horiz-adv-x="1443" d="M45 605v41h126v801h-126v35q91 0 203 20h20v-856h126v-41h-349zM147 0l810 1491h57l-809 -1491h-58zM778 0v61q115 85 196.5 154t149 143t101 145t33.5 140q0 49 -13.5 90t-41 73t-72.5 50t-105 18q-56 0 -106.5 -21.5t-61.5 -49.5q47 -6 47 -47q0 -23 -13.5 -36 t-37.5 -13q-18 0 -31 6.5t-19.5 19t-6.5 29.5q0 56 73 100.5t178 44.5q63 0 118 -16t99.5 -47.5t70 -84.5t25.5 -120q0 -31 -7.5 -62t-19.5 -58.5t-35.5 -59t-44.5 -56.5t-58.5 -59t-66 -58.5t-78 -63t-84 -64t-93.5 -69.5h445l12 141h35v-230h-588z" />
<glyph unicode="&#xbe;" horiz-adv-x="1654" d="M51 737q0 26 15 42t40 16t39.5 -14t14.5 -37q0 -9 -3 -17t-9.5 -14t-16 -10.5t-21.5 -5.5q13 -28 63.5 -49.5t107.5 -21.5q79 0 131.5 27.5t76 75t23.5 114.5q0 49 -16.5 87t-43 61.5t-64.5 38.5t-77.5 21t-84.5 6v25q266 49 266 217q0 82 -53.5 130.5t-155.5 48.5 q-51 0 -94.5 -17.5t-54.5 -41.5q22 -3 33.5 -16t11.5 -29q0 -49 -51 -49q-25 0 -39 14t-14 39q0 52 66 93t164 41q78 0 139.5 -22.5t99 -70.5t37.5 -116q0 -38 -12.5 -70.5t-34.5 -56.5t-54.5 -43.5t-68 -33t-79.5 -24.5q64 -6 114 -23t87 -45t56.5 -70.5t19.5 -97.5 q0 -64 -25 -113t-69.5 -77.5t-98.5 -42.5t-118 -14q-69 0 -127 21.5t-89 55t-31 68.5zM405 0l809 1491h58l-810 -1491h-57zM959 240v30l455 631h77v-624h113v-37h-113v-199h113v-41h-322v41h111v199h-434zM1008 277h385v536z" />
<glyph unicode="&#xbf;" horiz-adv-x="1111" d="M108 8q0 108 37.5 192.5t104.5 140t158.5 85t200.5 32.5l9 239h53v-292h-23q-80 0 -147 -22.5t-120.5 -68.5t-84 -123.5t-30.5 -180.5q0 -89 22.5 -160.5t68 -125.5t120.5 -83t175 -29q98 0 182 35.5t105 84.5q-39 4 -60 25.5t-21 53.5q0 35 23 57t62 22q41 0 65.5 -25 t24.5 -66q0 -43 -31 -86t-84 -77t-130.5 -55.5t-163.5 -21.5q-83 0 -157.5 16t-140.5 51t-114 86.5t-76 127.5t-28 168zM558 1002q0 41 23 62.5t65 21.5q43 0 66 -21.5t23 -62.5q0 -39 -23.5 -62.5t-65.5 -23.5q-41 0 -64.5 23.5t-23.5 62.5z" />
<glyph unicode="&#xc0;" horiz-adv-x="1415" d="M-4 0v57h166l490 1445h98l532 -1445h149v-57h-526v57h198l-148 420h-593l-140 -420h225v-57h-451zM315 1870q0 -57 134 -128l248 -145l16 26l-191 206q-57 60 -86 82.5t-54 22.5q-27 0 -47 -18.5t-20 -45.5zM382 535h551l-283 792h-4z" />
<glyph unicode="&#xc1;" horiz-adv-x="1415" d="M-4 0v57h166l490 1445h98l532 -1445h149v-57h-526v57h198l-148 420h-593l-140 -420h225v-57h-451zM382 535h551l-283 792h-4zM681 1623l195 206q53 59 83.5 82t54.5 23q27 0 46.5 -18.5t19.5 -45.5q0 -57 -133 -128l-248 -145z" />
<glyph unicode="&#xc2;" horiz-adv-x="1415" d="M-4 0v57h166l490 1445h98l532 -1445h149v-57h-526v57h198l-148 420h-593l-140 -420h225v-57h-451zM366 1616l211 224q24 27 41.5 44t32 26.5t25.5 13t23 3.5q24 0 48.5 -17.5t72.5 -69.5l209 -224l-17 -25l-315 218l-313 -218zM382 535h551l-283 792h-4z" />
<glyph unicode="&#xc3;" horiz-adv-x="1415" d="M-4 0v57h166l490 1445h98l532 -1445h149v-57h-526v57h198l-148 420h-593l-140 -420h225v-57h-451zM358 1670q30 43 49.5 68.5t41 50t40 36.5t40 19t46.5 7q34 0 82.5 -15t88.5 -33.5t82 -34t66 -15.5q34 0 59.5 16.5t56.5 70.5l29 -11q-18 -46 -32.5 -75t-33.5 -54.5 t-42.5 -37.5t-52.5 -12q-32 0 -93 24.5t-126 49t-106 24.5q-45 0 -80 -18.5t-87 -76.5zM382 535h551l-283 792h-4z" />
<glyph unicode="&#xc4;" horiz-adv-x="1415" d="M-4 0v57h166l490 1445h98l532 -1445h149v-57h-526v57h198l-148 420h-593l-140 -420h225v-57h-451zM382 535h551l-283 792h-4zM424 1760q0 35 20.5 56.5t61.5 21.5q40 0 61 -21.5t21 -56.5q0 -36 -20.5 -56.5t-61.5 -20.5q-82 0 -82 77zM807 1760q0 35 21 56.5t62 21.5 q40 0 60.5 -21.5t20.5 -56.5q0 -36 -20 -56.5t-61 -20.5t-62 20t-21 57z" />
<glyph unicode="&#xc5;" horiz-adv-x="1415" d="M-4 0v57h166l490 1445h98l532 -1445h149v-57h-526v57h198l-148 420h-593l-140 -420h225v-57h-451zM382 535h551l-283 792h-4zM520 1806q0 75 52.5 127t126.5 52q75 0 127 -52t52 -127q0 -73 -52 -124.5t-127 -51.5q-74 0 -126.5 51.5t-52.5 124.5zM558 1806 q0 -40 18.5 -72t50.5 -50t72 -18q61 0 100.5 40t39.5 100q0 62 -39.5 102.5t-100.5 40.5t-101 -40.5t-40 -102.5z" />
<glyph unicode="&#xc6;" horiz-adv-x="2004" d="M-30 0v57h164l797 1434h949v-355h-51l-63 297h-646v-638h422l32 227h52v-516h-52l-32 231h-422v-680h667l64 299h51v-356h-1085v57h148v439h-526l-243 -439h226v-57h-452zM471 551h494v890z" />
<glyph unicode="&#xc7;" horiz-adv-x="1439" d="M106 746q0 160 49 301t137 243.5t217.5 162t282.5 59.5q53 0 108 -10t120 -34t129.5 -74t116.5 -120l16 228h43v-388h-53q-76 170 -198.5 255.5t-270.5 85.5q-102 0 -188.5 -37.5t-148 -103.5t-105.5 -156t-65 -194.5t-21 -218t21 -218t65 -194t105.5 -155.5t148 -104 t188.5 -38q149 0 271 85t198 255h53v-386h-43l-16 227q-50 -66 -111 -114.5t-122.5 -73.5t-115 -36.5t-106.5 -13.5v-101q93 0 149 -41t56 -118q0 -78 -57.5 -124t-153.5 -46q-62 0 -138 25l8 34q60 -21 115 -21q39 0 68 13t43.5 34.5t21 42.5t6.5 42q0 23 -7 44t-23.5 41.5 t-49 33t-76.5 11.5v130q-150 4 -275.5 65t-211 163.5t-133 241t-47.5 297.5z" />
<glyph unicode="&#xc8;" horiz-adv-x="1279" d="M96 0v57h144v1376h-144v58h1060v-355h-48l-67 297h-645v-638h424l32 227h49v-516h-49l-32 231h-424v-680h667l65 299h50v-356h-1082zM315 1870q0 -57 134 -128l248 -145l16 26l-191 206q-57 60 -86 82.5t-54 22.5q-27 0 -47 -18.5t-20 -45.5z" />
<glyph unicode="&#xc9;" horiz-adv-x="1279" d="M96 0v57h144v1376h-144v58h1060v-355h-48l-67 297h-645v-638h424l32 227h49v-516h-49l-32 231h-424v-680h667l65 299h50v-356h-1082zM679 1623l195 206q53 59 83.5 82t54.5 23q18 0 33 -8.5t23.5 -23t8.5 -32.5q0 -57 -132 -128l-248 -145z" />
<glyph unicode="&#xca;" horiz-adv-x="1279" d="M96 0v57h144v1376h-144v58h1060v-355h-48l-67 297h-645v-638h424l32 227h49v-516h-49l-32 231h-424v-680h667l65 299h50v-356h-1082zM366 1616l211 224q24 27 41.5 44t32 26.5t25.5 13t23 3.5q24 0 48.5 -17.5t72.5 -69.5l209 -224l-17 -25l-315 218l-313 -218z" />
<glyph unicode="&#xcb;" horiz-adv-x="1279" d="M96 0v57h144v1376h-144v58h1060v-355h-48l-67 297h-645v-638h424l32 227h49v-516h-49l-32 231h-424v-680h667l65 299h50v-356h-1082zM424 1760q0 35 20.5 56.5t61.5 21.5q40 0 61 -21.5t21 -56.5q0 -36 -20.5 -56.5t-61.5 -20.5q-82 0 -82 77zM807 1760q0 35 21 56.5 t62 21.5q40 0 60.5 -21.5t20.5 -56.5q0 -36 -20 -56.5t-61 -20.5t-62 20t-21 57z" />
<glyph unicode="&#xcc;" horiz-adv-x="636" d="M-63 1870q0 -57 134 -128l246 -145l18 26l-193 206q-38 41 -61.5 62.5t-42.5 32t-36 10.5q-26 0 -45.5 -18.5t-19.5 -45.5zM96 0v57h144v1376h-144v58h447v-58h-147v-1376h147v-57h-447z" />
<glyph unicode="&#xcd;" horiz-adv-x="636" d="M96 0v57h144v1376h-144v58h447v-58h-147v-1376h147v-57h-447zM303 1623l193 206q54 59 84.5 82t53.5 23q18 0 33.5 -8t24.5 -23t9 -33q0 -57 -132 -128l-250 -145z" />
<glyph unicode="&#xce;" horiz-adv-x="636" d="M-12 1616l210 224q45 52 71 69.5t50 17.5t49.5 -17.5t72.5 -69.5l209 -224l-18 -25l-315 218l-313 -218zM96 0v57h144v1376h-144v58h447v-58h-147v-1376h147v-57h-447z" />
<glyph unicode="&#xcf;" horiz-adv-x="636" d="M45 1760q0 35 21 56.5t62 21.5q40 0 60.5 -21.5t20.5 -56.5q0 -36 -20.5 -56.5t-60.5 -20.5q-42 0 -62.5 20t-20.5 57zM96 0v57h144v1376h-144v58h447v-58h-147v-1376h147v-57h-447zM428 1760q0 35 21 56.5t63 21.5q39 0 59.5 -21.5t20.5 -56.5q0 -37 -20 -57t-60 -20 q-42 0 -63 20t-21 57z" />
<glyph unicode="&#xd0;" horiz-adv-x="1524" d="M96 0v57h144v680h-144v58h144v638h-144v58h603q156 0 291 -57t228.5 -156t147 -237t53.5 -295q0 -160 -53.5 -298t-147.5 -236.5t-228 -155t-291 -56.5h-603zM396 57h303q103 0 192 35.5t154.5 99t112.5 149.5t70.5 189t23.5 216t-23.5 216t-70.5 188.5t-112.5 149 t-154.5 98.5t-192 35h-303v-638h192v-58h-192v-680z" />
<glyph unicode="&#xd1;" horiz-adv-x="1537" d="M83 0v57h167v1376h-167v58h279l878 -1293v1235h-177v58h411v-58h-175v-1433h-114l-876 1293v-1236h179v-57h-405zM428 1670q38 54 61 83.5t49.5 54.5t51.5 34t56 9q43 0 107.5 -24.5t123.5 -49t88 -24.5q23 0 38 5t35 24.5t42 57.5l30 -11q-36 -92 -71 -135.5t-92 -43.5 q-31 0 -92 24.5t-126 49t-105 24.5q-46 0 -81 -18.5t-87 -76.5z" />
<glyph unicode="&#xd2;" horiz-adv-x="1652" d="M106 745.5q0 163.5 56.5 307t153.5 244t229.5 158t281 57.5t281.5 -57.5t229.5 -158t152.5 -244t56 -307t-56 -307t-152.5 -243.5t-229.5 -158t-281.5 -58t-281 58t-229.5 158t-153.5 243.5t-56.5 307zM272 745.5q0 -112.5 24 -217.5t71.5 -194t113.5 -155.5t155 -104.5 t191 -38t191 38t154.5 104.5t113 155.5t71 194t23.5 217.5t-23.5 217.5t-71 194t-113 156t-154.5 104.5t-191 37.5t-191 -37.5t-155 -104.5t-113.5 -156t-71.5 -194t-24 -217.5zM445 1870q0 -57 134 -128l248 -145l16 26l-191 206q-57 60 -86 82.5t-54 22.5q-27 0 -47 -18.5 t-20 -45.5z" />
<glyph unicode="&#xd3;" horiz-adv-x="1652" d="M106 745.5q0 163.5 56.5 307t153.5 244t229.5 158t281 57.5t281.5 -57.5t229.5 -158t152.5 -244t56 -307t-56 -307t-152.5 -243.5t-229.5 -158t-281.5 -58t-281 58t-229.5 158t-153.5 243.5t-56.5 307zM272 745.5q0 -112.5 24 -217.5t71.5 -194t113.5 -155.5t155 -104.5 t191 -38t191 38t154.5 104.5t113 155.5t71 194t23.5 217.5t-23.5 217.5t-71 194t-113 156t-154.5 104.5t-191 37.5t-191 -37.5t-155 -104.5t-113.5 -156t-71.5 -194t-24 -217.5zM809 1623l195 206q53 59 83.5 82t54.5 23q13 0 25.5 -5t21 -13.5t13.5 -20.5t5 -25 q0 -57 -132 -128l-248 -145z" />
<glyph unicode="&#xd4;" horiz-adv-x="1652" d="M106 745.5q0 163.5 56.5 307t153.5 244t229.5 158t281 57.5t281.5 -57.5t229.5 -158t152.5 -244t56 -307t-56 -307t-152.5 -243.5t-229.5 -158t-281.5 -58t-281 58t-229.5 158t-153.5 243.5t-56.5 307zM272 745.5q0 -112.5 24 -217.5t71.5 -194t113.5 -155.5t155 -104.5 t191 -38t191 38t154.5 104.5t113 155.5t71 194t23.5 217.5t-23.5 217.5t-71 194t-113 156t-154.5 104.5t-191 37.5t-191 -37.5t-155 -104.5t-113.5 -156t-71.5 -194t-24 -217.5zM494 1616l211 224q31 35 53.5 54.5t37.5 26t31 6.5q23 0 48 -17.5t72 -69.5l209 -224l-16 -25 l-315 218l-313 -218z" />
<glyph unicode="&#xd5;" horiz-adv-x="1652" d="M106 745.5q0 163.5 56.5 307t153.5 244t229.5 158t281 57.5t281.5 -57.5t229.5 -158t152.5 -244t56 -307t-56 -307t-152.5 -243.5t-229.5 -158t-281.5 -58t-281 58t-229.5 158t-153.5 243.5t-56.5 307zM272 745.5q0 -112.5 24 -217.5t71.5 -194t113.5 -155.5t155 -104.5 t191 -38t191 38t154.5 104.5t113 155.5t71 194t23.5 217.5t-23.5 217.5t-71 194t-113 156t-154.5 104.5t-191 37.5t-191 -37.5t-155 -104.5t-113.5 -156t-71.5 -194t-24 -217.5zM486 1670q30 43 49 68.5t41 50t40.5 36.5t40 19t46.5 7q34 0 82.5 -15t88.5 -33.5t82 -34 t66 -15.5q34 0 59.5 16.5t56.5 70.5l29 -11q-36 -93 -70.5 -136t-90.5 -43q-32 0 -93.5 24.5t-126 49t-105.5 24.5q-45 0 -80 -18.5t-87 -76.5z" />
<glyph unicode="&#xd6;" horiz-adv-x="1652" d="M106 745.5q0 163.5 56.5 307t153.5 244t229.5 158t281 57.5t281.5 -57.5t229.5 -158t152.5 -244t56 -307t-56 -307t-152.5 -243.5t-229.5 -158t-281.5 -58t-281 58t-229.5 158t-153.5 243.5t-56.5 307zM272 745.5q0 -112.5 24 -217.5t71.5 -194t113.5 -155.5t155 -104.5 t191 -38t191 38t154.5 104.5t113 155.5t71 194t23.5 217.5t-23.5 217.5t-71 194t-113 156t-154.5 104.5t-191 37.5t-191 -37.5t-155 -104.5t-113.5 -156t-71.5 -194t-24 -217.5zM551 1760q0 35 21 56.5t62 21.5q40 0 61 -21.5t21 -56.5q0 -36 -20.5 -56.5t-61.5 -20.5 t-62 20t-21 57zM935 1760q0 35 21 56.5t62 21.5q40 0 60.5 -21.5t20.5 -56.5q0 -36 -20.5 -56.5t-60.5 -20.5q-42 0 -62.5 20t-20.5 57z" />
<glyph unicode="&#xd7;" horiz-adv-x="985" d="M138 215l673 673l37 -38l-671 -673z" />
<glyph unicode="&#xd8;" horiz-adv-x="1652" d="M106 746q0 -213 90.5 -385t246.5 -272l-106 -195h57l94 172q150 -87 339 -87q148 0 281 58t229.5 158t152.5 243.5t56 307.5q0 207 -88 377t-240 272l113 202h-57l-99 -178q-161 93 -348 93q-149 0 -281.5 -57.5t-229.5 -158t-153.5 -244t-56.5 -306.5zM272 746 q0 112 24 217t71.5 194t113.5 156t155 104.5t191 37.5q172 0 301 -120l-628 -1142q-106 94 -167 239.5t-61 313.5zM532 149l629 1142q103 -96 161 -238.5t58 -306.5q0 -113 -23.5 -218t-71 -194t-113 -155.5t-154.5 -104.5t-191 -38q-162 0 -295 113z" />
<glyph unicode="&#xd9;" horiz-adv-x="1537" d="M63 1433v58h449v-58h-148v-947q0 -123 26 -210t78.5 -139.5t126 -76.5t174.5 -24t174.5 24t126 76.5t78 139t25.5 210.5v947h-144v58h447v-58h-145v-915q0 -184 -59 -302t-183.5 -177.5t-319.5 -59.5q-291 0 -425.5 132t-134.5 407v915h-146zM388 1870q0 -57 134 -128 l247 -145l17 26l-192 206q-57 60 -86.5 82.5t-54.5 22.5q-26 0 -45.5 -18.5t-19.5 -45.5z" />
<glyph unicode="&#xda;" horiz-adv-x="1537" d="M63 1433v58h449v-58h-148v-947q0 -123 26 -210t78.5 -139.5t126 -76.5t174.5 -24t174.5 24t126 76.5t78 139t25.5 210.5v947h-144v58h447v-58h-145v-915q0 -184 -59 -302t-183.5 -177.5t-319.5 -59.5q-291 0 -425.5 132t-134.5 407v915h-146zM752 1623l193 206 q54 59 84.5 82t54.5 23q10 0 20.5 -3t18.5 -9t14 -14t9.5 -17.5t3.5 -20.5q0 -57 -132 -128l-249 -145z" />
<glyph unicode="&#xdb;" horiz-adv-x="1537" d="M63 1433v58h449v-58h-148v-947q0 -123 26 -210t78.5 -139.5t126 -76.5t174.5 -24t174.5 24t126 76.5t78 139t25.5 210.5v947h-144v58h447v-58h-145v-915q0 -184 -59 -302t-183.5 -177.5t-319.5 -59.5q-291 0 -425.5 132t-134.5 407v915h-146zM439 1616l211 224 q45 52 71 69.5t50 17.5q23 0 48.5 -17.5t72.5 -69.5l209 -224l-17 -25l-315 218l-313 -218z" />
<glyph unicode="&#xdc;" horiz-adv-x="1537" d="M63 1433v58h449v-58h-148v-947q0 -123 26 -210t78.5 -139.5t126 -76.5t174.5 -24t174.5 24t126 76.5t78 139t25.5 210.5v947h-144v58h447v-58h-145v-915q0 -184 -59 -302t-183.5 -177.5t-319.5 -59.5q-291 0 -425.5 132t-134.5 407v915h-146zM496 1760q0 35 21 56.5 t62 21.5q27 0 45.5 -10.5t27 -27.5t8.5 -40q0 -36 -20 -56.5t-61 -20.5t-62 20t-21 57zM880 1760q0 35 21 56.5t62 21.5q27 0 45.5 -10.5t27 -27.5t8.5 -40q0 -36 -20.5 -56.5t-60.5 -20.5q-42 0 -62.5 20t-20.5 57z" />
<glyph unicode="&#xdd;" horiz-adv-x="1326" d="M-19 1433v58h531v-58h-207l425 -756h5l383 756h-213v58h430v-58h-157l-416 -828v-548h145v-57h-447v57h145v539l-479 837h-145zM673 1623l194 206q54 59 84.5 82t54.5 23q18 0 33 -8.5t23.5 -23t8.5 -32.5q0 -57 -132 -128l-248 -145z" />
<glyph unicode="&#xde;" horiz-adv-x="1230" d="M96 0v57h144v1376h-144v58h300v-298h317q117 0 206.5 -31.5t144 -87.5t82 -130t27.5 -164t-27.5 -164.5t-82 -132t-144 -89.5t-206.5 -32h-317v-305h224v-57h-524zM396 419h287q73 0 130 19t94 51t61 78.5t34 98t10 112.5q0 50 -7 94.5t-22.5 85t-41.5 72.5t-61.5 56 t-85.5 37t-111 13h-287v-717z" />
<glyph unicode="&#xdf;" horiz-adv-x="1213" d="M57 0v53h146v959h-146v53h146v115q0 179 105 277t284 98q96 0 171 -22.5t118 -59.5t64.5 -79.5t21.5 -88.5q0 -52 -22 -92.5t-57.5 -65.5t-78 -46t-85 -40t-78 -40.5t-57.5 -55t-22 -77.5q0 -37 17 -69t46 -55.5t67.5 -45.5t82 -40t89.5 -40t89.5 -43t82 -50t67.5 -62 t46 -78t17 -98q0 -145 -104.5 -236.5t-271.5 -91.5q-111 0 -197.5 43t-141.5 116l23 35q57 -66 126 -104.5t164 -38.5q67 0 123 24.5t93 77t37 124.5q0 43 -15.5 79.5t-42.5 62.5t-62.5 50.5t-75.5 43t-82.5 39t-83 40t-76 45.5t-62.5 55t-42.5 69t-15.5 87q0 56 21.5 99.5 t56 71t76.5 51t84 45.5t76.5 47.5t56 64.5t21.5 89q0 94 -65.5 152.5t-194.5 58.5q-49 0 -91.5 -16.5t-77.5 -49t-55 -87t-20 -124.5v-1229h-295z" />
<glyph unicode="&#xe0;" d="M81 240q0 33 6.5 63t20.5 61.5t39 60t60.5 55.5t86 49t113.5 40t146.5 30t181.5 17v159q0 264 -275 264q-97 0 -172 -35.5t-97 -85.5q28 0 48.5 -10t32 -28t11.5 -41q0 -36 -23 -57.5t-64 -21.5t-64.5 24.5t-23.5 65.5q0 43 27.5 84.5t76 75.5t122.5 55t160 21 q93 0 162 -19t112.5 -51.5t69.5 -82.5t36 -106t10 -128v-508q0 -41 6 -69t18 -41.5t24.5 -18.5t30.5 -5q37 0 70 22v-49q-64 -45 -145 -45q-75 0 -114 36t-39 132v101q-26 -72 -68.5 -126t-93.5 -86t-104.5 -47.5t-108.5 -15.5q-128 0 -203.5 74t-75.5 187zM113 1445 q0 -58 135 -128l246 -146l18 26l-193 207q-56 59 -85.5 81.5t-54.5 22.5q-26 0 -46 -18.5t-20 -44.5zM236 272q0 -83 54.5 -137t144.5 -54q128 0 214 92t86 229v171q-115 -5 -204 -26t-144 -50t-89.5 -67.5t-48 -76.5t-13.5 -81z" />
<glyph unicode="&#xe1;" d="M81 240q0 33 6.5 63t20.5 61.5t39 60t60.5 55.5t86 49t113.5 40t146.5 30t181.5 17v159q0 264 -275 264q-97 0 -172 -35.5t-97 -85.5q28 0 48.5 -10t32 -28t11.5 -41q0 -36 -23 -57.5t-64 -21.5t-64.5 24.5t-23.5 65.5q0 43 27.5 84.5t76 75.5t122.5 55t160 21 q93 0 162 -19t112.5 -51.5t69.5 -82.5t36 -106t10 -128v-508q0 -41 6 -69t18 -41.5t24.5 -18.5t30.5 -5q37 0 70 22v-49q-64 -45 -145 -45q-75 0 -114 36t-39 132v101q-26 -72 -68.5 -126t-93.5 -86t-104.5 -47.5t-108.5 -15.5q-128 0 -203.5 74t-75.5 187zM236 272 q0 -83 54.5 -137t144.5 -54q128 0 214 92t86 229v171q-115 -5 -204 -26t-144 -50t-89.5 -67.5t-48 -76.5t-13.5 -81zM477 1197l194 207q36 39 60.5 61.5t43 32.5t34.5 10q28 0 47.5 -18t19.5 -45q0 -57 -132 -128l-250 -146z" />
<glyph unicode="&#xe2;" d="M81 240q0 33 6.5 63t20.5 61.5t39 60t60.5 55.5t86 49t113.5 40t146.5 30t181.5 17v159q0 264 -275 264q-97 0 -172 -35.5t-97 -85.5q28 0 48.5 -10t32 -28t11.5 -41q0 -36 -23 -57.5t-64 -21.5t-64.5 24.5t-23.5 65.5q0 43 27.5 84.5t76 75.5t122.5 55t160 21 q93 0 162 -19t112.5 -51.5t69.5 -82.5t36 -106t10 -128v-508q0 -41 6 -69t18 -41.5t24.5 -18.5t30.5 -5q37 0 70 22v-49q-64 -45 -145 -45q-75 0 -114 36t-39 132v101q-26 -72 -68.5 -126t-93.5 -86t-104.5 -47.5t-108.5 -15.5q-128 0 -203.5 74t-75.5 187zM164 1191 l210 223q46 52 72 70t50 18t49.5 -17.5t72.5 -70.5l209 -223l-18 -26l-315 217l-313 -217zM236 272q0 -83 54.5 -137t144.5 -54q128 0 214 92t86 229v171q-115 -5 -204 -26t-144 -50t-89.5 -67.5t-48 -76.5t-13.5 -81z" />
<glyph unicode="&#xe3;" d="M81 240q0 33 6.5 63t20.5 61.5t39 60t60.5 55.5t86 49t113.5 40t146.5 30t181.5 17v159q0 264 -275 264q-97 0 -172 -35.5t-97 -85.5q28 0 48.5 -10t32 -28t11.5 -41q0 -36 -23 -57.5t-64 -21.5t-64.5 24.5t-23.5 65.5q0 43 27.5 84.5t76 75.5t122.5 55t160 21 q93 0 162 -19t112.5 -51.5t69.5 -82.5t36 -106t10 -128v-508q0 -41 6 -69t18 -41.5t24.5 -18.5t30.5 -5q37 0 70 22v-49q-64 -45 -145 -45q-75 0 -114 36t-39 132v101q-26 -72 -68.5 -126t-93.5 -86t-104.5 -47.5t-108.5 -15.5q-128 0 -203.5 74t-75.5 187zM153 1244 q38 54 61 83t49.5 54t51 34.5t55.5 9.5q44 0 108.5 -24.5t123.5 -49t89 -24.5q22 0 37 5t35.5 25t41.5 57l30 -10q-36 -93 -71 -136t-91 -43q-32 0 -93 24.5t-125.5 49t-105.5 24.5q-45 0 -80.5 -19t-87.5 -77zM236 272q0 -83 54.5 -137t144.5 -54q128 0 214 92t86 229v171 q-115 -5 -204 -26t-144 -50t-89.5 -67.5t-48 -76.5t-13.5 -81z" />
<glyph unicode="&#xe4;" d="M81 240q0 33 6.5 63t20.5 61.5t39 60t60.5 55.5t86 49t113.5 40t146.5 30t181.5 17v159q0 264 -275 264q-97 0 -172 -35.5t-97 -85.5q28 0 48.5 -10t32 -28t11.5 -41q0 -36 -23 -57.5t-64 -21.5t-64.5 24.5t-23.5 65.5q0 43 27.5 84.5t76 75.5t122.5 55t160 21 q93 0 162 -19t112.5 -51.5t69.5 -82.5t36 -106t10 -128v-508q0 -41 6 -69t18 -41.5t24.5 -18.5t30.5 -5q37 0 70 22v-49q-64 -45 -145 -45q-75 0 -114 36t-39 132v101q-26 -72 -68.5 -126t-93.5 -86t-104.5 -47.5t-108.5 -15.5q-128 0 -203.5 74t-75.5 187zM222 1333 q0 23 8.5 40.5t27.5 28t47 10.5q26 0 45 -10.5t27.5 -28t8.5 -40.5q0 -36 -20.5 -56.5t-60.5 -20.5q-42 0 -62.5 20.5t-20.5 56.5zM236 272q0 -83 54.5 -137t144.5 -54q128 0 214 92t86 229v171q-115 -5 -204 -26t-144 -50t-89.5 -67.5t-48 -76.5t-13.5 -81zM605 1333 q0 36 21 57.5t62 21.5q40 0 60.5 -21.5t20.5 -57.5t-20 -56.5t-61 -20.5t-62 20.5t-21 56.5z" />
<glyph unicode="&#xe5;" d="M81 240q0 33 6.5 63t20.5 61.5t39 60t60.5 55.5t86 49t113.5 40t146.5 30t181.5 17v159q0 264 -275 264q-97 0 -172 -35.5t-97 -85.5q28 0 48.5 -10t32 -28t11.5 -41q0 -36 -23 -57.5t-64 -21.5t-64.5 24.5t-23.5 65.5q0 43 27.5 84.5t76 75.5t122.5 55t160 21 q93 0 162 -19t112.5 -51.5t69.5 -82.5t36 -106t10 -128v-508q0 -41 6 -69t18 -41.5t24.5 -18.5t30.5 -5q37 0 70 22v-49q-64 -45 -145 -45q-75 0 -114 36t-39 132v101q-26 -72 -68.5 -126t-93.5 -86t-104.5 -47.5t-108.5 -15.5q-128 0 -203.5 74t-75.5 187zM236 272 q0 -83 54.5 -137t144.5 -54q128 0 214 92t86 229v171q-115 -5 -204 -26t-144 -50t-89.5 -67.5t-48 -76.5t-13.5 -81zM315 1380q0 49 24 90.5t65.5 65t89.5 23.5q75 0 127 -52t52 -127q0 -73 -52 -125t-127 -52q-74 0 -126.5 52t-52.5 125zM354 1380q0 -61 39.5 -100.5 t100.5 -39.5t100.5 39.5t39.5 100.5q0 40 -18 72.5t-50 51.5t-72 19q-61 0 -100.5 -41t-39.5 -102z" />
<glyph unicode="&#xe6;" horiz-adv-x="1731" d="M81 240q0 53 16.5 97.5t60.5 88.5t115 76t188 56t272 32v185q0 264 -273 264q-99 0 -174 -35.5t-97 -85.5q28 0 49.5 -10t33 -27.5t11.5 -41.5q0 -17 -6 -31.5t-17 -25t-27.5 -16.5t-36.5 -6q-42 0 -65 24.5t-23 65.5q0 43 27 84.5t75.5 75.5t122.5 55t161 21 q150 0 234.5 -46t121.5 -133q68 87 167.5 133t215.5 46q84 0 157 -27t130 -78t89.5 -132.5t32.5 -183.5q0 -61 -10 -128h-742q0 -127 30 -222t85.5 -152.5t128 -85.5t163.5 -28q189 0 329 115v-54q-161 -131 -376 -131q-196 0 -320.5 98.5t-169.5 269.5q-14 -105 -73.5 -190 t-145.5 -131.5t-181 -46.5q-128 0 -203.5 74t-75.5 187zM236 272q0 -83 54 -137t143 -54q129 0 214.5 93t85.5 237v130q-115 -6 -203 -23t-143 -41.5t-89.5 -58t-48 -69t-13.5 -77.5zM890 586h601q9 52 9 115q0 65 -16.5 124t-47.5 107t-83 76.5t-117 28.5q-71 0 -129 -26 t-97 -69t-66 -102t-39.5 -122.5t-14.5 -131.5z" />
<glyph unicode="&#xe7;" horiz-adv-x="1064" d="M87 539q0 74 13.5 141t38.5 122t60.5 100.5t78.5 79.5t93.5 57t106 35t114.5 12q87 0 163.5 -21t127.5 -54.5t80 -76t29 -84.5q0 -28 -10 -49t-30 -33t-49 -12q-40 0 -63 22t-23 57t26 57t69 22q-21 49 -104 85t-182 36q-57 0 -107 -13.5t-88.5 -37.5t-70 -58t-53 -75.5 t-36.5 -90t-22 -100t-7 -107.5q0 -126 31 -223.5t86.5 -158.5t130.5 -91.5t166 -30.5q185 0 328 115v-54q-154 -125 -356 -131v-101q93 0 149 -41t56 -118q0 -78 -57.5 -124t-153.5 -46q-62 0 -138 25l8 34q60 -21 115 -21q39 0 68 13t43.5 34.5t21 42.5t6.5 42 q0 23 -7.5 44t-23.5 41.5t-48.5 33t-76.5 11.5v130q-97 3 -178.5 31.5t-141 79t-101 119.5t-62 152t-20.5 178z" />
<glyph unicode="&#xe8;" horiz-adv-x="1085" d="M87 539q0 129 39.5 234t108 172.5t159 104t194.5 36.5q83 0 156 -27t130 -78t89.5 -132.5t32.5 -183.5q0 -68 -12 -128h-742q0 -102 20 -183.5t56 -138t87.5 -94t113 -55t133.5 -17.5q185 0 328 115v-54q-160 -131 -375 -131q-101 0 -185.5 27.5t-145.5 77.5t-103 119.5 t-63 154t-21 181.5zM207 1445q0 -58 134 -128l247 -146l17 26l-192 207q-56 59 -85.5 81.5t-55.5 22.5t-45.5 -18.5t-19.5 -44.5zM242 590h604q8 52 8 111q0 65 -16.5 124t-48 107t-83.5 76.5t-116 28.5q-71 0 -129 -26t-97 -69t-66.5 -101t-40.5 -121t-15 -130z" />
<glyph unicode="&#xe9;" horiz-adv-x="1085" d="M87 539q0 129 39.5 234t108 172.5t159 104t194.5 36.5q83 0 156 -27t130 -78t89.5 -132.5t32.5 -183.5q0 -68 -12 -128h-742q0 -102 20 -183.5t56 -138t87.5 -94t113 -55t133.5 -17.5q185 0 328 115v-54q-160 -131 -375 -131q-101 0 -185.5 27.5t-145.5 77.5t-103 119.5 t-63 154t-21 181.5zM242 590h604q8 52 8 111q0 65 -16.5 124t-48 107t-83.5 76.5t-116 28.5q-71 0 -129 -26t-97 -69t-66.5 -101t-40.5 -121t-15 -130zM571 1197l193 207q54 58 84.5 81t54.5 23q27 0 46.5 -18t19.5 -45q0 -57 -132 -128l-249 -146z" />
<glyph unicode="&#xea;" horiz-adv-x="1085" d="M87 539q0 129 39.5 234t108 172.5t159 104t194.5 36.5q83 0 156 -27t130 -78t89.5 -132.5t32.5 -183.5q0 -68 -12 -128h-742q0 -102 20 -183.5t56 -138t87.5 -94t113 -55t133.5 -17.5q185 0 328 115v-54q-160 -131 -375 -131q-101 0 -185.5 27.5t-145.5 77.5t-103 119.5 t-63 154t-21 181.5zM242 590h604q8 52 8 111q0 65 -16.5 124t-48 107t-83.5 76.5t-116 28.5q-71 0 -129 -26t-97 -69t-66.5 -101t-40.5 -121t-15 -130zM256 1191l211 223q45 52 70.5 70t50.5 18q23 0 48.5 -17.5t72.5 -70.5l209 -223l-17 -26l-315 217l-314 -217z" />
<glyph unicode="&#xeb;" horiz-adv-x="1085" d="M87 539q0 129 39.5 234t108 172.5t159 104t194.5 36.5q83 0 156 -27t130 -78t89.5 -132.5t32.5 -183.5q0 -68 -12 -128h-742q0 -102 20 -183.5t56 -138t87.5 -94t113 -55t133.5 -17.5q185 0 328 115v-54q-160 -131 -375 -131q-101 0 -185.5 27.5t-145.5 77.5t-103 119.5 t-63 154t-21 181.5zM242 590h604q8 52 8 111q0 65 -16.5 124t-48 107t-83.5 76.5t-116 28.5q-71 0 -129 -26t-97 -69t-66.5 -101t-40.5 -121t-15 -130zM313 1333q0 36 21 57.5t62 21.5q27 0 45.5 -10.5t27 -28t8.5 -40.5q0 -36 -20 -56.5t-61 -20.5t-62 20.5t-21 56.5z M697 1333q0 36 21 57.5t62 21.5q40 0 60 -21.5t20 -57.5t-20 -56.5t-60 -20.5q-42 0 -62.5 20.5t-20.5 56.5z" />
<glyph unicode="&#xec;" horiz-adv-x="540" d="M-110 1445q0 -58 134 -128l246 -146l17 26l-191 207q-57 59 -86.5 81.5t-54.5 22.5q-26 0 -45.5 -18.5t-19.5 -44.5zM57 0v53h146v959h-146v53h295v-1012h146v-53h-441z" />
<glyph unicode="&#xed;" horiz-adv-x="540" d="M57 0v53h146v959h-146v53h295v-1012h146v-53h-441zM209 1197l193 207q54 58 84.5 81t54.5 23q27 0 46.5 -18t19.5 -45q0 -57 -132 -128l-249 -146z" />
<glyph unicode="&#xee;" horiz-adv-x="540" d="M-53 1191l211 223q45 52 71 70t50 18t49 -17.5t72 -70.5l209 -223l-17 -26l-315 217l-313 -217zM57 0v53h146v959h-146v53h295v-1012h146v-53h-441z" />
<glyph unicode="&#xef;" horiz-adv-x="540" d="M-15 1333q0 36 21.5 57.5t62.5 21.5q26 0 44.5 -10.5t27 -28t8.5 -40.5q0 -36 -20 -56.5t-60 -20.5q-42 0 -63 20.5t-21 56.5zM57 0v53h146v959h-146v53h295v-1012h146v-53h-441zM368 1333q0 36 21 57.5t62 21.5q40 0 60.5 -21.5t20.5 -57.5t-20 -56.5t-61 -20.5 t-62 20.5t-21 56.5z" />
<glyph unicode="&#xf0;" horiz-adv-x="1245" d="M92 482q0 113 36.5 205.5t101 154t153 94.5t192.5 33q108 0 217.5 -55.5t174.5 -144.5l4 2q-11 304 -130 487l-200 -91v54l170 78q-128 164 -355 164q-61 0 -116 -17.5t-80 -45.5q36 -3 54 -23.5t18 -51.5q0 -36 -22 -55.5t-58 -19.5q-39 0 -61.5 24t-22.5 61 q0 30 19.5 60.5t55 57t95.5 43t133 16.5q267 0 434 -170l198 91v-53l-164 -77q95 -115 141 -282.5t46 -362.5q0 -106 -17.5 -201.5t-58.5 -184t-102 -152.5t-154 -102.5t-208 -38.5q-102 0 -192 36t-157 100t-106 159t-39 208zM236 475q0 -105 29 -191.5t78 -142 t112.5 -85.5t134.5 -30q85 0 151 35t109 95.5t70.5 148t39 185.5t11.5 215q-60 90 -164.5 150.5t-203.5 60.5q-79 0 -142 -24t-104.5 -64.5t-69 -97.5t-39.5 -120t-12 -135z" />
<glyph unicode="&#xf1;" horiz-adv-x="1215" d="M57 0v53h146v959h-146v53h295v-313q24 85 65.5 150.5t92 104.5t106 59t114.5 20q51 0 96 -11t85 -36t68.5 -62.5t45 -94t16.5 -126.5v-703h146v-53h-437v53h142v699q0 79 -26.5 133.5t-77 81.5t-123.5 27q-49 0 -95 -19t-85.5 -56.5t-69.5 -90t-46.5 -122.5t-16.5 -150 v-503h146v-53h-441zM323 1244q25 35 42 58t36 45.5t34 35t32.5 23t35 15t38.5 4.5q34 0 82.5 -15.5t88 -33.5t82 -33.5t66.5 -15.5q34 0 59.5 16.5t56.5 70.5l30 -10q-36 -93 -71 -136t-92 -43q-31 0 -92 24.5t-126 49t-105 24.5q-46 0 -81 -19t-87 -77z" />
<glyph unicode="&#xf2;" horiz-adv-x="1162" d="M87 532q0 -91 19 -172.5t59 -151.5t97.5 -120.5t139 -79.5t179.5 -29t180 29t139.5 79.5t97 120.5t58.5 151.5t19 173t-19 173t-58.5 151.5t-97 120.5t-139.5 79.5t-180 29q-82 0 -152.5 -20t-124 -57t-95.5 -87.5t-68.5 -112.5t-40 -131.5t-13.5 -145.5zM201 1445 q0 -58 134 -128l246 -146l17 26l-191 207q-57 59 -86.5 81.5t-54.5 22.5q-26 0 -45.5 -18.5t-19.5 -44.5zM245 532.5q0 243.5 86.5 374t250 130.5t250 -130.5t86.5 -374t-86.5 -374t-250 -130.5t-250 130.5t-86.5 374z" />
<glyph unicode="&#xf3;" horiz-adv-x="1162" d="M87 532q0 -91 19 -172.5t59 -151.5t97.5 -120.5t139 -79.5t179.5 -29t180 29t139.5 79.5t97 120.5t58.5 151.5t19 173t-19 173t-58.5 151.5t-97 120.5t-139.5 79.5t-180 29q-82 0 -152.5 -20t-124 -57t-95.5 -87.5t-68.5 -112.5t-40 -131.5t-13.5 -145.5zM245 532.5 q0 243.5 86.5 374t250 130.5t250 -130.5t86.5 -374t-86.5 -374t-250 -130.5t-250 130.5t-86.5 374zM565 1197l193 207q53 58 83.5 81t54.5 23q28 0 47.5 -18t19.5 -45q0 -57 -132 -128l-250 -146z" />
<glyph unicode="&#xf4;" horiz-adv-x="1162" d="M87 532.5q0 91.5 19 173t59 151.5t97.5 120.5t139 79.5t179.5 29q82 0 153 -20t124.5 -57t95 -87.5t68 -112.5t40 -131.5t13.5 -145.5q0 -91 -19 -172.5t-58.5 -151.5t-97 -120.5t-139.5 -79.5t-180 -29t-179.5 29t-139 79.5t-97.5 120.5t-59 151.5t-19 173zM245 532.5 q0 -243.5 86.5 -374t250 -130.5t250 130.5t86.5 374t-86.5 374t-250 130.5t-250 -130.5t-86.5 -374zM250 1191l210 223q31 36 53 55.5t37 26t31 6.5q24 0 49.5 -17.5t72.5 -70.5l209 -223l-18 -26l-315 217l-313 -217z" />
<glyph unicode="&#xf5;" horiz-adv-x="1162" d="M87 532q0 -91 19 -172.5t59 -151.5t97.5 -120.5t139 -79.5t179.5 -29t180 29t139.5 79.5t97 120.5t58.5 151.5t19 173t-19 173t-58.5 151.5t-97 120.5t-139.5 79.5t-180 29q-82 0 -152.5 -20t-124 -57t-95.5 -87.5t-68.5 -112.5t-40 -131.5t-13.5 -145.5zM240 1244 q38 54 61 83t49.5 54t51.5 34.5t56 9.5q43 0 107.5 -24.5t123.5 -49t89 -24.5q33 0 58.5 16.5t55.5 70.5l30 -10q-14 -36 -25.5 -61t-26 -49t-30.5 -38t-36 -22.5t-44 -8.5q-31 0 -92 24.5t-126 49t-105 24.5q-46 0 -81.5 -19t-87.5 -77zM245 532.5q0 243.5 86.5 374 t250 130.5t250 -130.5t86.5 -374t-86.5 -374t-250 -130.5t-250 130.5t-86.5 374z" />
<glyph unicode="&#xf6;" horiz-adv-x="1162" d="M87 532q0 -91 19 -172.5t59 -151.5t97.5 -120.5t139 -79.5t179.5 -29t180 29t139.5 79.5t97 120.5t58.5 151.5t19 173t-19 173t-58.5 151.5t-97 120.5t-139.5 79.5t-180 29q-82 0 -152.5 -20t-124 -57t-95.5 -87.5t-68.5 -112.5t-40 -131.5t-13.5 -145.5zM245 532.5 q0 243.5 86.5 374t250 130.5t250 -130.5t86.5 -374t-86.5 -374t-250 -130.5t-250 130.5t-86.5 374zM307 1333q0 23 8.5 40.5t27.5 28t47 10.5q27 0 45.5 -10.5t27 -28t8.5 -40.5q0 -36 -20.5 -56.5t-60.5 -20.5q-42 0 -62.5 20.5t-20.5 56.5zM691 1333q0 36 20.5 57.5 t61.5 21.5q39 0 60 -21.5t21 -57.5t-20.5 -56.5t-60.5 -20.5q-82 0 -82 77z" />
<glyph unicode="&#xf7;" horiz-adv-x="1015" d="M147 506v55h725v-55h-725zM445 260q0 28 16 44.5t48 16.5q29 0 45.5 -16.5t16.5 -44.5q0 -29 -16 -45.5t-46 -16.5q-32 0 -48 16t-16 46zM445 805q0 28 16.5 45t47.5 17q29 0 45.5 -17t16.5 -45q0 -29 -16 -45t-46 -16q-64 0 -64 61z" />
<glyph unicode="&#xf8;" horiz-adv-x="1162" d="M87 532q0 92 19 173.5t59 151.5t97.5 120.5t139 79.5t179.5 29q142 0 242 -55l78 140h58l-95 -165q104 -73 157.5 -197.5t53.5 -276.5q0 -91 -19 -172.5t-58.5 -151.5t-97 -120.5t-139.5 -79.5t-180 -29q-141 0 -253 62l-80 -147h-57l96 175q-98 71 -149 193.5t-51 269.5 zM245 532q0 -249 90 -381l451 812q-80 74 -205 74q-163 0 -249.5 -130.5t-86.5 -374.5zM368 110q82 -82 213 -82q164 0 250.5 130.5t86.5 373.5q0 258 -98 390z" />
<glyph unicode="&#xf9;" horiz-adv-x="1201" d="M28 1012v53h295v-752q0 -120 58 -181t168 -61q61 0 117.5 30.5t100 85.5t69.5 138.5t26 183.5v503h-202v53h352v-1012h144v-53h-294v315q-25 -86 -66 -151.5t-91 -105t-105 -59.5t-114 -20q-66 0 -120.5 18.5t-98 56t-68 103t-24.5 152.5v703h-147zM166 1445 q0 -58 135 -128l246 -146l18 26l-193 207q-56 59 -85.5 81.5t-54.5 22.5q-26 0 -46 -18.5t-20 -44.5z" />
<glyph unicode="&#xfa;" horiz-adv-x="1201" d="M28 1012v53h295v-752q0 -120 58 -181t168 -61q61 0 117.5 30.5t100 85.5t69.5 138.5t26 183.5v503h-202v53h352v-1012h144v-53h-294v315q-25 -86 -66 -151.5t-91 -105t-105 -59.5t-114 -20q-66 0 -120.5 18.5t-98 56t-68 103t-24.5 152.5v703h-147zM532 1197l194 207 q53 58 83.5 81t54.5 23q28 0 47.5 -18t19.5 -45q0 -57 -132 -128l-250 -146z" />
<glyph unicode="&#xfb;" horiz-adv-x="1201" d="M28 1012v53h295v-752q0 -120 58 -181t168 -61q61 0 117.5 30.5t100 85.5t69.5 138.5t26 183.5v503h-202v53h352v-1012h144v-53h-294v315q-25 -86 -66 -151.5t-91 -105t-105 -59.5t-114 -20q-66 0 -120.5 18.5t-98 56t-68 103t-24.5 152.5v703h-147zM217 1191l211 223 q46 52 71.5 70t49.5 18t49.5 -17.5t72.5 -70.5l209 -223l-18 -26l-315 217l-313 -217z" />
<glyph unicode="&#xfc;" horiz-adv-x="1201" d="M28 1012v53h295v-752q0 -120 58 -181t168 -61q61 0 117.5 30.5t100 85.5t69.5 138.5t26 183.5v503h-202v53h352v-1012h144v-53h-294v315q-25 -86 -66 -151.5t-91 -105t-105 -59.5t-114 -20q-66 0 -120.5 18.5t-98 56t-68 103t-24.5 152.5v703h-147zM275 1333 q0 23 8.5 40.5t27.5 28t47 10.5q26 0 45 -10.5t27.5 -28t8.5 -40.5q0 -36 -20.5 -56.5t-60.5 -20.5q-42 0 -62.5 20.5t-20.5 56.5zM658 1333q0 36 21 57.5t63 21.5q39 0 60 -21.5t21 -57.5t-20.5 -56.5t-60.5 -20.5q-42 0 -63 20.5t-21 56.5z" />
<glyph unicode="&#xfd;" horiz-adv-x="1154" d="M-8 1012v53h528v-53h-205l341 -880h4l290 880h-208v53h421v-53h-155l-343 -1018q-77 -226 -171.5 -333.5t-227.5 -107.5q-72 0 -115 32t-43 78q0 40 24 62.5t59 22.5q36 0 60 -17t24 -54q0 -18 -11.5 -40t-37.5 -31q18 -6 44 -6q31 0 60 8.5t66.5 34t71.5 67t71 113.5 t68 167h-66l-405 1022h-144zM563 1197l193 207q53 58 83.5 81t54.5 23q28 0 47.5 -18t19.5 -45q0 -57 -132 -128l-250 -146z" />
<glyph unicode="&#xfe;" horiz-adv-x="1154" d="M12 -372h148v1852h-148v54h297v-684q15 47 39.5 85t54 63t61 43t65 27.5t62 13.5t55.5 4q198 0 308.5 -146t110.5 -408q0 -159 -56 -284t-161 -197t-243 -72q-68 0 -148.5 20.5t-147.5 61.5v-433h144v-54h-441v54zM309 106q107 -63 238 -63q78 0 143 30t113.5 88.5 t76 153.5t27.5 217q0 238 -84.5 362t-226.5 124q-33 0 -65 -7.5t-65 -23.5t-61 -44t-49.5 -65t-34 -91t-12.5 -118v-563z" />
<glyph unicode="&#xff;" horiz-adv-x="1154" d="M-8 1012v53h528v-53h-205l341 -880h4l290 880h-208v53h421v-53h-155l-343 -1018q-77 -226 -171.5 -333.5t-227.5 -107.5q-72 0 -115 32t-43 78q0 40 24 62.5t59 22.5q36 0 60 -17t24 -54q0 -18 -11.5 -40t-37.5 -31q18 -6 44 -6q31 0 60 8.5t66.5 34t71.5 67t71 113.5 t68 167h-66l-405 1022h-144zM305 1333q0 23 8.5 40.5t27.5 28t47 10.5q27 0 45.5 -10.5t27 -28t8.5 -40.5q0 -36 -20.5 -56.5t-60.5 -20.5q-42 0 -62.5 20.5t-20.5 56.5zM688 1333q0 23 8.5 40.5t27.5 28t47 10.5q39 0 60 -21.5t21 -57.5t-20.5 -56.5t-60.5 -20.5 q-83 0 -83 77z" />
<glyph unicode="&#x152;" horiz-adv-x="2431" d="M106 746q0 157 54.5 298t149 244t229 163.5t288.5 60.5q204 0 365 -103.5t249 -280.5v363h868v-355h-49l-67 297h-644v-638h423l32 227h49v-516h-49l-32 231h-423v-680h666l66 299h50v-356h-890v360q-88 -176 -248.5 -278.5t-365.5 -102.5q-154 0 -288.5 59.5t-229 162 t-149 244t-54.5 301.5zM272 746q0 -113 24 -218.5t71 -194.5t112.5 -155.5t155 -104t192.5 -37.5q74 0 141.5 19.5t122.5 55.5t101.5 86t81 111.5t58.5 132t36 147.5t12 158q0 113 -23 218t-70 194t-112.5 155.5t-155 104t-192.5 37.5t-192.5 -37.5t-155 -104t-112.5 -155.5 t-71 -194t-24 -218z" />
<glyph unicode="&#x153;" horiz-adv-x="1916" d="M87 532.5q0 91.5 19 173t59 151.5t97.5 120.5t139 79.5t179.5 29q150 0 255 -64.5t163 -178.5q63 119 173 181t247 62q83 0 156 -27t130 -78t89.5 -132.5t32.5 -183.5q0 -61 -10 -128h-742q0 -127 30 -222t85.5 -152.5t128 -85.5t163.5 -28q189 0 329 115v-54 q-161 -131 -376 -131q-157 0 -266.5 63.5t-169.5 179.5q-58 -114 -163 -178.5t-255 -64.5q-98 0 -179.5 29t-139 79.5t-97.5 120.5t-59 151.5t-19 173zM245 532.5q0 -243.5 86.5 -374t250 -130.5t250 130.5t86.5 374t-86.5 374t-250 130.5t-250 -130.5t-86.5 -374zM1075 590 h601q9 52 9 111q0 65 -16.5 124t-47.5 107t-83 76.5t-117 28.5q-71 0 -129 -26t-97 -69t-66 -101t-39.5 -121t-14.5 -130z" />
<glyph unicode="&#x178;" horiz-adv-x="1326" d="M-19 1433v58h531v-58h-207l425 -756h5l383 756h-213v58h430v-58h-157l-416 -828v-548h145v-57h-447v57h145v539l-479 837h-145zM417 1760q0 35 21 56.5t62 21.5q27 0 45.5 -10.5t27 -27.5t8.5 -40q0 -36 -20 -56.5t-61 -20.5t-62 20t-21 57zM801 1760q0 35 21 56.5 t62 21.5q27 0 45.5 -10.5t27 -27.5t8.5 -40q0 -36 -20.5 -56.5t-60.5 -20.5q-42 0 -62.5 20t-20.5 57z" />
<glyph unicode="&#x2c6;" horiz-adv-x="929" d="M134 1191l211 223q45 52 71.5 70t50.5 18t48.5 -17.5t72.5 -70.5l209 -223l-17 -26l-316 217l-313 -217z" />
<glyph unicode="&#x2dc;" horiz-adv-x="949" d="M134 1244q38 54 61 83t49.5 54t51.5 34.5t56 9.5q43 0 107.5 -24.5t123 -49t88.5 -24.5q22 0 37.5 5t36 25t41.5 57l29 -10q-36 -93 -70 -136t-91 -43q-31 0 -92.5 24.5t-126.5 49t-105 24.5q-46 0 -81 -19t-87 -77z" />
<glyph unicode="&#x2000;" horiz-adv-x="992" />
<glyph unicode="&#x2001;" horiz-adv-x="1985" />
<glyph unicode="&#x2002;" horiz-adv-x="992" />
<glyph unicode="&#x2003;" horiz-adv-x="1985" />
<glyph unicode="&#x2004;" horiz-adv-x="661" />
<glyph unicode="&#x2005;" horiz-adv-x="496" />
<glyph unicode="&#x2006;" horiz-adv-x="330" />
<glyph unicode="&#x2007;" horiz-adv-x="330" />
<glyph unicode="&#x2008;" horiz-adv-x="248" />
<glyph unicode="&#x2009;" horiz-adv-x="397" />
<glyph unicode="&#x200a;" horiz-adv-x="110" />
<glyph unicode="&#x2010;" horiz-adv-x="996" d="M136 506v55h724v-55h-724z" />
<glyph unicode="&#x2011;" horiz-adv-x="996" d="M136 506v55h724v-55h-724z" />
<glyph unicode="&#x2012;" horiz-adv-x="996" d="M136 506v55h724v-55h-724z" />
<glyph unicode="&#x2013;" horiz-adv-x="1315" d="M136 506v55h1044v-55h-1044z" />
<glyph unicode="&#x2014;" horiz-adv-x="1528" d="M136 506v55h1257v-55h-1257z" />
<glyph unicode="&#x2018;" horiz-adv-x="427" d="M110 1182q0 25 5 52t20 63.5t38 71t63.5 73t93.5 70.5l17 -28q-16 -10 -32 -22t-38 -33.5t-38.5 -45t-31 -58t-20.5 -71.5q100 0 100 -83q0 -38 -23.5 -61.5t-62.5 -23.5q-41 0 -66 26.5t-25 69.5z" />
<glyph unicode="&#x2019;" horiz-adv-x="437" d="M118 1114q16 10 32.5 22t37.5 33.5t38 45t31 57t20 70.5q-100 3 -100 83q0 40 23.5 63.5t63.5 23.5q41 0 65.5 -26.5t24.5 -69.5q0 -31 -9.5 -67t-31.5 -81.5t-68 -93.5t-111 -88z" />
<glyph unicode="&#x201a;" horiz-adv-x="425" d="M63 -240q23 13 44 30t47.5 45t45.5 68t26 85q-102 3 -102 83q0 40 24 63.5t65 23.5t65.5 -27t24.5 -70q0 -31 -9.5 -67.5t-32 -82t-69 -93t-111.5 -86.5z" />
<glyph unicode="&#x201c;" horiz-adv-x="711" d="M110 1182q0 25 5 52t20 63.5t38 71t63.5 73t93.5 70.5l17 -28q-16 -10 -32 -22t-38 -33.5t-38.5 -45t-31 -58t-20.5 -71.5q100 0 100 -83q0 -38 -23.5 -61.5t-62.5 -23.5q-41 0 -66 26.5t-25 69.5zM394 1182q0 13 1.5 27t5.5 31.5t10 35t15.5 37.5t21.5 39t29 40t37 41 t46 40.5t56 38.5l16 -28q-22 -13 -43 -30.5t-47 -45.5t-45 -68t-26 -86q102 0 102 -83q0 -38 -24 -61.5t-65 -23.5t-65.5 26.5t-24.5 69.5z" />
<glyph unicode="&#x201d;" horiz-adv-x="721" d="M118 1114q16 10 32.5 22t37.5 33.5t38 45t31 57t20 70.5q-100 3 -100 83q0 40 23.5 63.5t63.5 23.5q41 0 65.5 -26.5t24.5 -69.5q0 -31 -9.5 -67t-31.5 -81.5t-68 -93.5t-111 -88zM400 1114q23 13 44 30t47 45t45 68t25 85q-101 3 -101 83q0 20 6 36t17.5 27.5t28.5 17.5 t37 6q41 0 65.5 -26.5t24.5 -69.5q0 -31 -9.5 -67t-32 -81.5t-69 -93.5t-111.5 -88z" />
<glyph unicode="&#x201e;" horiz-adv-x="708" d="M63 -240q23 13 44 30t47.5 45t45.5 68t26 85q-102 3 -102 83q0 40 24 63.5t65 23.5t65.5 -27t24.5 -70q0 -31 -9.5 -67.5t-32 -82t-69 -93t-111.5 -86.5zM349 -240q22 13 42.5 30t46.5 45t45 68t26 85q-100 3 -100 83q0 39 23.5 63t63.5 24q41 0 65.5 -27t24.5 -70 q0 -31 -9.5 -67.5t-31.5 -82t-68 -93t-111 -86.5z" />
<glyph unicode="&#x2022;" horiz-adv-x="486" d="M130 506q0 49 30.5 79.5t84.5 30.5q52 0 81.5 -30.5t29.5 -79.5q0 -51 -29 -79.5t-82 -28.5q-55 0 -85 28.5t-30 79.5z" />
<glyph unicode="&#x2026;" horiz-adv-x="1319" d="M126 71q0 40 23.5 63.5t65.5 23.5q41 0 64.5 -23.5t23.5 -63.5t-23 -61.5t-65 -21.5q-43 0 -66 21.5t-23 61.5zM573 71q0 40 23.5 63.5t65.5 23.5q41 0 64.5 -23.5t23.5 -63.5t-23 -61.5t-65 -21.5t-65.5 21.5t-23.5 61.5zM1020 71q0 40 23.5 63.5t66.5 23.5 q41 0 64 -23.5t23 -63.5t-23 -61.5t-64 -21.5q-43 0 -66.5 21.5t-23.5 61.5z" />
<glyph unicode="&#x202f;" horiz-adv-x="397" />
<glyph unicode="&#x2039;" horiz-adv-x="730" d="M87 509v42l533 435v-57l-398 -397v-4l398 -392v-55z" />
<glyph unicode="&#x203a;" horiz-adv-x="730" d="M110 81l533 428v42l-533 435v-57l399 -397v-4l-399 -392v-55z" />
<glyph unicode="&#x205f;" horiz-adv-x="496" />
<glyph unicode="&#x20ac;" horiz-adv-x="1583" d="M100 581v58h119q-6 51 -6 107q0 54 6 106h-119v57h126q22 131 79.5 241.5t143 191t201 125.5t249.5 45q52 0 106.5 -10t119.5 -34t129 -74t116 -120l18 228h43v-388h-53q-76 170 -198 255.5t-271 85.5q-109 0 -200 -42t-154.5 -117t-104.5 -173t-58 -214h439v-57h-447 q-4 -69 -4 -106q0 -39 4 -107h447v-58h-439q17 -116 58 -213.5t104.5 -172.5t154.5 -117t200 -42q149 0 271 85t198 255h53v-386h-43l-18 227q-42 -56 -93 -100t-99.5 -69.5t-101.5 -41.5t-94.5 -21.5t-82.5 -5.5q-107 0 -203.5 29t-173.5 82.5t-138 128t-101 166.5t-57 196 h-126z" />
<glyph unicode="&#x2122;" horiz-adv-x="2112" d="M151 1278v213h703v-213h-29l-47 179h-231v-827h152v-34h-398v34h150v827h-223l-47 -179h-30zM952 596v34h100v827h-100v34h200l322 -741h4l302 741h188v-34h-88v-827h88v-34h-269v34h88v767l-324 -807h-34l-340 810v-770h102v-34h-239z" />
<glyph unicode="&#x25fc;" horiz-adv-x="1064" d="M0 0v1065h1065v-1065h-1065z" />
<glyph unicode="&#xfb03;" horiz-adv-x="1764" d="M57 0v53h146v959h-146v53h146v166q0 159 77 241.5t220 82.5q73 0 115.5 -29.5t42.5 -74.5q0 -38 -24.5 -60.5t-58.5 -22.5q-23 0 -40.5 6t-30 22.5t-12.5 42.5q0 17 11 38t38 31q-25 8 -41 8q-77 0 -112.5 -55t-35.5 -168v-228h483v115q0 119 53 208t145 135t209 46 q80 0 143.5 -15.5t101.5 -39.5t63.5 -55.5t35 -60.5t9.5 -56q0 -44 -29.5 -72t-74.5 -28q-51 0 -79 24.5t-28 68.5q0 27 17.5 53t59.5 35q-56 100 -215 100q-52 0 -98 -17.5t-83 -51.5t-59 -89t-22 -125v-175h593v-1012h146v-53h-441v53h145v959h-443v-959h144v-53h-437v53 h144v959h-483v-959h174v-53h-469z" />
<glyph unicode="&#xfb04;" horiz-adv-x="1778" d="M57 0v53h146v959h-146v53h146v166q0 159 77 241.5t220 82.5q73 0 115.5 -29.5t42.5 -74.5q0 -38 -24.5 -60.5t-58.5 -22.5q-23 0 -40.5 6t-30 22.5t-12.5 42.5q0 17 11 38t38 31q-25 8 -41 8q-77 0 -112.5 -55t-35.5 -168v-228h483v115q0 182 94 278.5t270 96.5 q140 0 279 -73l64 52h35v-1481h146v-53h-441v53h145v1384q-90 69 -224 69q-100 0 -159.5 -67.5t-59.5 -205.5v-168h217v-53h-217v-959h191v-53h-484v53h144v959h-483v-959h174v-53h-469z" />
</font>
</defs>
</svg>
