<?xml version="1.0" standalone="no"?>
<!DOCTYPE svg PUBLIC "-//W3C//DTD SVG 1.1//EN" "http://www.w3.org/Graphics/SVG/1.1/DTD/svg11.dtd" >
<svg xmlns="http://www.w3.org/2000/svg" xmlns:xlink="http://www.w3.org/1999/xlink" version="1.1">
<metadata></metadata>
<defs>
<font id="jenna_sueregular" horiz-adv-x="742" >
<font-face units-per-em="2048" ascent="1536" descent="-512" />
<missing-glyph horiz-adv-x="474" />
<glyph horiz-adv-x="0" />
<glyph unicode="&#xd;" horiz-adv-x="397" />
<glyph unicode=" "  horiz-adv-x="474" />
<glyph unicode="&#x09;" horiz-adv-x="474" />
<glyph unicode="&#xa0;" horiz-adv-x="474" />
<glyph unicode="!" horiz-adv-x="748" d="M142 2088q0 14 15.5 18.5t38 -2.5t42.5 -22.5t35 -35.5q3 -80 13.5 -224t25 -316t31.5 -353t28.5 -334t17 -259t0.5 -124q-15 6 -28 4.5t-28 -1.5t-29.5 9t-30.5 39q-3 280 -12 480t-25 373.5t-40.5 347.5t-53.5 400zM300 45q-6 45 10 69.5t43 35.5t61 7.5t67 -15.5 q12 -23 13.5 -37t-4.5 -27t-18 -27.5t-24 -38.5q-62 -18 -96 -8t-52 41z" />
<glyph unicode="&#x22;" horiz-adv-x="507" d="M65 1986q0 34 5 57t29 26q29 0 37.5 -3t33.5 -26q-9 -82 -9 -152.5t7 -136t19 -129t26 -134.5q-14 -15 -51 -6t-52 23q-11 60 -17.5 141.5t-11 155.5t-7.5 128t-9 56zM286 1930q26 20 48.5 4t39.5 -49q0 -54 10 -114t19.5 -112t12.5 -87.5t-11 -41.5q-34 -3 -55 41 t-34 108t-20 133.5t-10 117.5z" />
<glyph unicode="#" horiz-adv-x="1653" d="M182.5 901q-1.5 11 19.5 26q26 20 72 35t97 28t104.5 22.5t94.5 15.5q-9 77 -14.5 136.5t-11.5 111t-12.5 102t-15.5 110.5q39 6 51 8.5t45 -11.5q9 -18 17.5 -65.5t18 -110t19.5 -133.5t19 -136q36 11 68.5 20t58.5 14q34 9 60 14q-3 28 -9 107.5t-14.5 165t-21 157 t-26.5 86.5q45 50 66.5 54.5t40.5 -28.5q23 -42 35 -119t18.5 -158t9 -151.5t5.5 -93.5q77 11 139.5 23t114.5 21t98 15t93 6q42 -33 48 -40.5t-14 -21.5q-57 -12 -180 -41.5t-290 -66.5q3 -65 8.5 -117t3.5 -118q62 15 102 24.5t74.5 15t68.5 10t84 10.5q42 3 52 -4.5 t20 -39.5q-14 -26 -57.5 -41t-103 -29t-123.5 -27t-117 -33q2 -68 8 -114.5t11 -89.5t8 -93.5t3 -130.5q-39 3 -50.5 10.5t-27.5 39.5q-18 42 -26.5 97t-13 108.5t-6 95t-4.5 55.5q-53 -11 -99.5 -21.5t-91.5 -18.5q0 -42 6.5 -97.5t12.5 -106t7.5 -92t-7.5 -55.5 q-33 -9 -52 -3t-35 17q-6 36 -7.5 79t-3 88t-3 83.5t-3.5 61.5q-37 -6 -78 -16t-84 -21t-78.5 -16.5t-57.5 -3.5q-17 45 -15.5 66t32.5 33t96.5 23.5t172.5 35.5q-6 54 -9 78.5t-4.5 45.5t-4 45t-10.5 75q-119 -17 -211.5 -31t-173.5 -11q-15 20 -16.5 31zM689 929 q3 -36 5.5 -74.5t4 -71t3 -56.5t1.5 -30q39 15 93 24.5t94 23.5q-3 29 -3 51.5t-1.5 48t-2.5 55t-7 74.5q-34 -5 -65.5 -13t-59.5 -14q-33 -9 -62 -18z" />
<glyph unicode="$" horiz-adv-x="1537" d="M289 1116q0 15 7 39t35.5 58t83.5 79t149 104q-9 48 -16 85t-13 74t-16.5 81.5t-25.5 112.5q6 65 83 59q8 -80 25 -172t31 -196q29 14 48.5 23.5t35 15.5t30 13t38.5 16q-2 45 -16 90t-11 83q29 0 56.5 -4.5t39.5 -13.5q0 -23 2.5 -55t11.5 -81h74q33 -3 68.5 -6 t67.5 -19q18 -26 23 -30.5t-20 -9.5q-33 5 -81.5 -3t-119.5 -22q8 -104 14.5 -171t12.5 -121.5t13.5 -112.5t15.5 -145q202 -26 334.5 -57t147.5 -88q11 -88 -45.5 -149t-134.5 -100t-154.5 -59.5t-99.5 -26.5q15 -107 20.5 -169.5t2.5 -115.5q-33 -12 -62 2.5t-26 20.5 q-6 65 -7.5 129t-7.5 118q-59 -9 -107 -12t-77 0q6 -136 12 -225.5t11 -171.5q-20 0 -44 4t-38 16q-6 14 -9.5 60.5t-5 103t-4.5 114t-3 99.5q-14 0 -51 7t-82 25.5t-88 49.5t-72 85q-6 11 -4.5 20t7.5 6q29 -18 70.5 -39t82 -37t76 -23t49.5 -1q-2 65 -2 100.5t-1.5 66.5 t-4.5 69.5t-6 109.5q-62 18 -121.5 37.5t-106 50.5t-72.5 82t-23 127zM380 1048q14 -29 32.5 -45.5t45 -28t62 -22.5t83.5 -28q-6 74 -7.5 109.5t-2.5 65t-5 68t-9 119.5q-6 0 -43 -18t-77 -50.5t-67 -75.5t-12 -94zM654 1343q9 -74 11.5 -117.5t5.5 -83.5t6 -91t15 -142 q42 -9 73 -12.5t88 -9.5q-9 77 -15.5 129.5t-12.5 106t-14.5 118.5t-20.5 173q-20 -9 -35 -15t-28.5 -12.5t-30 -16.5t-42.5 -27zM695 811q0 -66 1 -104.5t2.5 -71t4.5 -69.5t6 -99h54t38.5 3t37 5.5t48.5 8.5q-8 86 -9.5 155.5t-13.5 147.5q-51 6 -92 10.5t-77 13.5z M950 784q3 -36 3 -57t1.5 -44t6.5 -65t13 -119q51 11 115 29.5t117 43.5t87 58t28 73q-6 23 -43 35.5t-92 20t-119 12.5t-117 13z" />
<glyph unicode="%" horiz-adv-x="1465" d="M49.5 1128q-4.5 74 16 169.5t59.5 187t79 127.5q37 45 62 42.5t63 2.5q15 3 48 -2.5t67 -16.5t59.5 -30t28.5 -43q113 53 228.5 95t222.5 122q15 60 17.5 98t8.5 63.5t21 41.5t50 32q15 6 34 6q36 0 85 -25q0 -17 1.5 -23t1.5 -14.5t-4.5 -31t-18.5 -76.5 q-45 -54 -86.5 -168.5t-78.5 -262t-71 -319t-62 -341.5t-50.5 -329.5t-41 -279.5t-28.5 -193t-13 -73h-91q-23 0 -48 29.5t0 125.5q51 193 96.5 402.5t87 422.5t83.5 424t87 411q-60 -26 -118 -63.5t-117.5 -77.5t-120 -77.5t-123.5 -58.5q-23 -71 -57.5 -140.5t-80.5 -123 t-107 -85t-140 -25.5q-45 3 -49.5 77zM135 1195.5q7 -36.5 40 -28.5q74 29 133.5 99.5t80.5 138.5t-7 114t-130 31q-39 -59 -68.5 -129t-42.5 -129.5t-6 -96zM928 224q1 40 13 96q6 42 21 100t36 102q59 139 279 125q37 -15 53 -62t-6 -125q-20 -60 -40 -132.5t-51 -132 t-78 -92t-124 -15.5q-9 6 -40 18.5t-41 26.5q-23 51 -22 91zM1015.5 322.5q-6.5 -60.5 35.5 -104.5q18 -18 44.5 -0.5t53.5 53t48 82.5t31 90.5t6 73.5t-35 30q-33 8 -76 -24.5t-72 -86t-35.5 -114z" />
<glyph unicode="&#x26;" horiz-adv-x="1241" d="M104 1571q0 134 47.5 236.5t141 149.5t229.5 1q107 -45 162.5 -133t68.5 -202.5t-4.5 -245t-51.5 -258t-77 -243.5t-82 -199q20 -42 39.5 -76t41.5 -69.5t49 -77t69 -100.5q36 65 63.5 131.5t50 122t42 94t39.5 46.5q15 -3 36 -44t32 -69q-33 -39 -52 -79t-38.5 -84 t-44 -98t-66.5 -119q33 -59 59 -97.5t50 -68.5t46.5 -56.5t48.5 -55.5q48 -57 85 -76.5t58 -25t25.5 -13t-7.5 -37.5q-88 -3 -149.5 25t-107.5 74.5t-83 106.5t-76 127q-33 -36 -84.5 -74.5t-111 -59.5t-119 -14t-107.5 64q-50 77 -17 222.5t107 389.5q-59 133 -128.5 292 t-129.5 331q-54 128 -54 262zM203 1548.5q7 -69.5 26 -140.5q17 -68 45.5 -156t61 -172.5t68 -155.5t72.5 -111q26 63 61.5 149t66.5 181t52 194.5t22.5 188.5t-24 160t-87.5 116q-12 9 -38.5 24.5t-60.5 27t-71 14t-71 -8.5q-53 -23 -83 -71t-38.5 -109t-1.5 -130.5z M393 214q-1 -56 32 -92q23 -26 61.5 -20.5t77.5 27.5t71.5 56.5t44.5 66.5q-36 54 -59.5 88t-43 62.5t-42 58t-54.5 77.5q-8 -36 -30.5 -92.5t-39.5 -116t-18 -115.5z" />
<glyph unicode="'" horiz-adv-x="334" d="M68 1530q12 68 23 129t16.5 122t2.5 126t-14 145q23 20 33 23.5t44 3.5q26 -5 31.5 -27.5t5.5 -56.5q-6 0 -7 -50t-2.5 -120.5t-4.5 -147t-15 -133.5q-17 -11 -57.5 -20.5t-55.5 6.5z" />
<glyph unicode="(" horiz-adv-x="542" d="M108.5 765q-1.5 73 1.5 134t6 113q39 244 104.5 410.5t127.5 271.5t111 157.5t57 69.5q60 15 60 -39q-113 -142 -181.5 -278.5t-105.5 -258t-51.5 -227.5t-17.5 -186q-8 -264 15 -445t61.5 -308.5t83.5 -211t77 -151.5q26 -42 14.5 -59.5t-40.5 -39.5q-48 71 -92.5 159 t-80 177t-63.5 177t-44 164q-23 116 -32 207t-10.5 164z" />
<glyph unicode=")" horiz-adv-x="604" d="M59 -213q108 145 171.5 282.5t97.5 262.5t46 230.5t12 185.5q0 264 -30 445.5t-71 306t-89 206.5t-83 150q-29 42 -17.5 59.5t40.5 39.5q51 -71 97.5 -156t86.5 -174t69.5 -177t46.5 -162q27 -113 39 -203.5t16.5 -164.5t3 -133.5t-1.5 -113.5q-33 -246 -92 -414.5 t-118.5 -275t-107 -160t-56.5 -70.5q-60 -21 -60 36z" />
<glyph unicode="*" horiz-adv-x="620" d="M68 1570q39 6 69 20t81 14q-24 20 -56 48.5t-58 42.5q12 20 33 22.5t44 -6.5t45.5 -22.5l37.5 -22.5q-6 36 -9 58t-4.5 37t-4 24t-5.5 23q-3 23 5.5 29.5t23.5 6.5q6 3 12.5 -15t12 -43.5t10 -54.5t4.5 -48q23 24 35.5 49t47.5 76q28 0 50 -26q-11 -33 -21.5 -49 t-22.5 -27t-24 -22.5t-26 -31.5q48 0 78.5 10t72.5 24q36 9 42 -43q-51 -18 -79 -30t-70 -21q11 -23 26.5 -37t30 -27.5t32.5 -32.5t35 -55q-11 -3 -23 -3t-36 12q-45 23 -64 44t-61 45q6 -42 8 -64.5t3.5 -41t3 -41t7.5 -60.5q-34 -6 -44 0t-24 29q0 36 -9.5 74.5 t-9.5 76.5q-18 -15 -37.5 -46t-25.5 -57q-23 -15 -28.5 -9t-21.5 12q17 39 28 59.5t16.5 32t10 22.5t9.5 31q-9 0 -31.5 -7.5t-46.5 -16t-42 -15t-21 -6.5q-6 17 -6 31t-3 28z" />
<glyph unicode="+" horiz-adv-x="1020" d="M77 606q-15 57 6 89.5t68 29.5h52h70.5t66.5 1.5t46 1.5q-3 33 -7.5 86t-10.5 105.5t-13 92t-10 45.5q57 15 78.5 10.5t18.5 -52.5q0 -17 3 -58.5t4.5 -86.5t4.5 -85t3 -57h57.5t86.5 1.5t90 3t77 1.5q9 0 12.5 -12.5t2.5 -28.5t-6.5 -31t-8.5 -21q-11 0 -49.5 1.5 t-84 1.5t-93.5 -1.5t-78 -1.5q2 -23 6 -63t6.5 -85t5.5 -88t6 -70q0 -9 -12 -12t-28 -3t-31.5 4.5t-21.5 7.5v51v83t-1 90.5t-4 78.5q-37 -3 -88.5 -6t-99 -5.5t-83 -7t-41.5 -10.5z" />
<glyph unicode="," horiz-adv-x="340" d="M-99 -312q-14 12 11.5 49t65 95t86 136t72.5 177q34 6 51 -1.5t42 -13.5q-11 -56 -53.5 -133t-94.5 -146t-100.5 -116t-79.5 -47z" />
<glyph unicode="-" d="M59 581q-14 57 5 89.5t66 29.5q54 0 94 1.5t82 1.5t92 1.5t127 4.5q9 0 12.5 -11.5t2 -27.5t-6 -31t-8.5 -21q-33 3 -103.5 1.5t-148 -6t-140 -12t-74.5 -20.5z" />
<glyph unicode="." horiz-adv-x="284" d="M51 68q8 39 38 62.5t61 27t55 -14.5t18 -63q-3 -23 -25.5 -41.5t-50.5 -24t-56.5 6t-39.5 47.5z" />
<glyph unicode="/" horiz-adv-x="578" d="M74 -170q-3 26 11 130.5t37 257.5t55.5 341.5t67.5 383t67.5 383t57 340t40 253t12.5 124.5q9 17 30 31t44 20t48.5 6t39.5 -12q-45 -170 -90.5 -398t-89.5 -473t-84 -489t-71 -442t-52.5 -329.5t-23.5 -155.5q-40 -20 -99 29z" />
<glyph unicode="0" horiz-adv-x="896" d="M122 1734q213 -17 336 -87.5t187 -153t82 -158.5t21 -105q20 -301 -14 -517.5t-93.5 -359.5t-127.5 -217t-116 -91q-68 -17 -103.5 -1.5t-70.5 75.5q-33 65 -52.5 173t-28.5 233.5t-9 251.5t6 223q9 119 14 199.5t12.5 146t14.5 129t22 149.5q-48 6 -64 42t-16 68z M210 703q3 -91 14 -184.5t30 -169.5t50 -122t79 -43q45 -6 87.5 61t76.5 162t59.5 197t37.5 167q11 83 13.5 168.5t-4 158t-18 133.5t-23.5 96q-33 98 -113 175.5t-208 89.5q-5 -26 -13 -90.5t-17 -147t-19 -178.5t-17 -184.5t-12.5 -164.5t-2.5 -124z" />
<glyph unicode="1" horiz-adv-x="800" d="M290 1696q-1 30 4.5 47t28.5 9h96q-12 -187 -3 -390t26.5 -414t38.5 -423.5t32 -420.5q-8 -23 -20 -25t-33 -2q-57 -15 -68 27q0 179 -13.5 394t-30 421t-31 381.5t-20.5 272.5q0 23 -3 58t-4 65z" />
<glyph unicode="2" horiz-adv-x="1222" d="M-74 1088q-17 53 38.5 141.5t139 183.5t170 177t131.5 124q39 23 75 35.5t87 -29.5q39 -34 37.5 -129t-27 -229.5t-66.5 -296.5t-86 -330t-85 -327t-60 -289q80 39 185 105.5t211 143.5t199.5 156t152.5 142q20 0 29 -14t12 -34.5t1.5 -44t-1.5 -44.5 q-196 -158 -402.5 -300.5t-428.5 -273.5q-34 -14 -49.5 -11.5t-30.5 27.5q17 139 54 308t81.5 343t88 340t71.5 301.5t32.5 226t-28.5 114.5q-6 20 -67 -21.5t-138 -120.5t-148 -178t-95 -196q-18 -6 -25 -7t-15 1.5t-17 4t-26 1.5z" />
<glyph unicode="3" horiz-adv-x="1204" d="M86 1366q79 142 182 225.5t196.5 107.5t165.5 -9.5t92 -119.5q12 -48 4.5 -95t-25.5 -89.5t-46.5 -83t-57.5 -72.5q-71 -80 -166 -150q88 42 183 51t181.5 -13t159.5 -72.5t114 -130.5q59 -116 44.5 -259t-93.5 -277.5t-216.5 -245t-322.5 -156.5q-62 -18 -126 -27 t-113 -13.5t-80.5 -4.5t-31.5 6l40 62q204 14 358.5 84t258 170t154.5 213.5t48 221t-61 194t-174 123.5q-86 29 -170.5 20.5t-160 -36t-138 -64t-101.5 -59.5q-17 -6 -21.5 24t7.5 62q98 62 186.5 139.5t151 154.5t93.5 150t14 124q-18 51 -64 74t-113 7t-147.5 -79.5 t-162.5 -185.5l-24 11q-20 12 -18 18z" />
<glyph unicode="4" horiz-adv-x="972" d="M39 748q18 77 44.5 157.5t55 161t54 161.5t39.5 168q9 26 35.5 40.5t86.5 0.5q3 -20 -24 -99t-61 -171.5t-68 -178t-47 -121.5q113 23 217.5 54.5t204.5 70.5q8 136 17.5 268.5t15.5 238t7.5 175t-7.5 80.5q0 6 7.5 17t19 17t29.5 4.5t41 -16.5q3 -33 0 -102.5t-7 -169 t-11.5 -221.5t-10.5 -255q60 9 98 19t66 1q23 -11 36 -39.5t-4 -52.5q-62 -6 -114.5 -25t-92.5 -35q-6 -107 -7.5 -258t-3 -295t-8 -256.5t-21.5 -148.5q-5 -6 -23.5 -7.5t-38.5 0t-35.5 4.5t-15.5 8q9 43 20 137.5t19.5 222.5t14.5 278t6 298q-42 -9 -117.5 -33 t-155.5 -45.5t-153 -40t-108 -12.5z" />
<glyph unicode="5" horiz-adv-x="1238" d="M154 154q-9 8 5 20.5t34 21.5l53 24q99 -50 217 -65.5t230 10t198 90.5t115 176q26 101 -1.5 179.5t-92.5 139.5t-153 103.5t-175.5 76t-164.5 55t-122 40.5q-68 26 -62 125.5t17 263.5q-17 8 -28 9.5t-16.5 3t-8.5 6t-9 23.5q-9 48 1.5 72.5t21.5 27.5 q102 14 192.5 39.5t182.5 49.5t190 40t214 13q8 -9 19 -25t15.5 -34t4.5 -31t-13 -16q-83 3 -165 -11t-163 -34t-163 -42.5t-165 -37.5q-17 -33 -26.5 -92.5t-9.5 -119t8 -105t17 -54.5q88 -14 179 -38t175.5 -58t157 -75t126.5 -87q101 -88 131 -187t13 -188t-67.5 -163 t-105.5 -119q-71 -53 -169.5 -87.5t-206.5 -40t-220 18.5t-210 82z" />
<glyph unicode="6" horiz-adv-x="1049" d="M143 1159q41 303 146 564q23 5 39.5 1t28.5 -13q11 -13 23 -28q-80 -163 -117 -329t-45 -323.5t6 -297t36.5 -249.5t45.5 -184t36 -98q18 74 47.5 155.5t68 152.5t80 126.5t86.5 82.5q26 23 76.5 40t105.5 18.5t106 -17t74 -57.5q23 -36 16 -94.5t-40 -128.5t-88 -144.5 t-126 -138.5t-154.5 -109.5t-174.5 -58.5q-6 -20 1.5 -45.5t1.5 -31.5q-48 -6 -72 4.5t-32 26.5q-6 11 -9 15.5t-3 13v22.5t6 43q-63 74 -98.5 185.5t-52.5 221.5q-59 372 -18 675zM431 125q95 5 193 75t172 157.5t108 168t5 103.5q-88 68 -171.5 25.5t-149.5 -137.5 t-107.5 -208t-49.5 -184z" />
<glyph unicode="7" horiz-adv-x="804" d="M-29 1702q77 21 167.5 39.5t187 37t190 33.5t179.5 27q23 11 26.5 -55.5t-6 -185.5t-27 -276.5t-37 -325.5t-35.5 -331t-22 -294q-8 -85 -4 -144.5t4 -104.5q-11 -12 -47.5 -0.5t-41.5 48.5q-9 201 2.5 392.5t32.5 380t40.5 378.5t25.5 396q-23 9 -99 -6.5t-169.5 -37 t-183 -41.5t-134.5 -17q-20 3 -31.5 18.5t-17.5 68.5z" />
<glyph unicode="8" horiz-adv-x="854" d="M128 1383q-3 48 28 96t54 68q71 60 178.5 67t237.5 -47q26 -8 54.5 -25.5t19.5 -79.5q-26 -92 -50 -166.5t-49 -142.5t-53.5 -134t-60.5 -137q65 -77 106.5 -197.5t49.5 -245t-23 -232.5t-110 -156q-56 -29 -86 -27t-64 38q-37 40 -54 105t-21.5 140.5t2.5 157.5t19 156 q6 26 16 65t26 74q14 42 32 90q-20 45 -68 97.5t-92.5 118t-74 144.5t-17.5 173zM234 1236.5q24 -75.5 79 -149t115 -127.5q11 36 44 108t64 149.5t49 140t-1 76.5q-48 33 -111 53.5t-113 6.5q-102 -43 -126 -112.5t0 -145zM371 369.5q-3 -72.5 7.5 -126t33 -80.5t61.5 -12 q50 9 69 88t13.5 181t-34 203.5t-70.5 155.5q-20 -48 -38.5 -117.5t-28.5 -144.5t-13 -147.5z" />
<glyph unicode="9" horiz-adv-x="881" d="M107 1315q-23 54 22.5 144.5t138 171t218.5 123.5t262 -2q6 8 -2.5 -55.5t-24 -157t-31.5 -197.5t-24 -178q0 -8 -7.5 -90t-15.5 -204t-18 -264.5t-17.5 -274.5t-10.5 -234.5t0 -144.5q-36 -6 -47.5 -4.5t-47.5 19.5q6 198 16.5 369.5t22 341t25 345.5t31.5 388 q-56 -54 -126.5 -99t-140 -63.5t-129 -7t-94.5 73.5zM218 1369q26 -51 88 -34.5t130.5 66.5t126.5 125t75 143q-99 6 -183 -29.5t-145 -86.5t-87 -104.5t-5 -79.5z" />
<glyph unicode=":" horiz-adv-x="355" d="M86 668q8 40 41.5 63t67.5 26t59.5 -16t18.5 -64q-3 -23 -26.5 -41t-54.5 -24t-61.5 5.5t-44.5 50.5zM91 80q-11 48 8.5 77.5t52 41t66.5 6t55 -26.5q0 -33 -14.5 -57.5t-40 -40t-58 -17t-69.5 16.5z" />
<glyph unicode=";" horiz-adv-x="477" d="M-29 -276q-15 12 10 49t65 95t86 136.5t72 176.5q3 12 22.5 22t43.5 13.5t48 -4.5t36 -31q-15 -56 -65.5 -135t-111.5 -151.5t-119 -121.5t-87 -49zM178 734q9 39 38.5 62t61 26t55.5 -14.5t18 -62.5q-3 -23 -25.5 -41t-51 -24t-56.5 5.5t-40 48.5z" />
<glyph unicode="&#x3c;" horiz-adv-x="794" d="M184 655q-3 31 34 64q76 80 163 170.5t192 200.5q6 6 15 2t16.5 -13.5t13.5 -20t6 -15.5q-24 -21 -85 -87t-127.5 -138.5t-120 -134.5t-62.5 -77q-42 18 -45 49zM187 644q-6 6 0 16.5t19.5 19.5t26.5 16t22 10q51 -68 119 -136t128 -122q71 -62 142 -122q-29 -50 -66 -56 t-68 30q-76 77 -146 155.5t-177 188.5z" />
<glyph unicode="=" horiz-adv-x="1020" d="M170 603q-15 57 5.5 89.5t68.5 29.5q110 3 236 3t280 6q8 0 12 -12.5t1.5 -28.5t-6.5 -31t-7 -21h-69.5t-112 -3t-129 -7t-126 -8.5t-101 -9t-52.5 -7.5zM182.5 478q1.5 15 6 31t7.5 23q33 -6 128 -3t198 9q119 6 265 12q15 -57 -7.5 -88t-66.5 -28q-113 2 -239.5 3.5 t-277.5 1.5q-9 0 -12 12t-1.5 27z" />
<glyph unicode="&#x3e;" horiz-adv-x="842" d="M210 273q23 20 89 81.5t137.5 129.5t129.5 126t66 73q42 -20 43.5 -51.5t-37.5 -61.5q-80 -77 -173.5 -159.5t-206.5 -187.5q-6 -5 -14.5 -1t-14.5 13t-12.5 20.5t-6.5 17.5zM238 989q33 48 70 52t63 -35q74 -82 138 -165.5t162 -199.5q6 -6 -1 -14.5t-21 -17.5t-27 -17 t-22 -8q-48 71 -110 143t-119 131q-65 69 -133 131z" />
<glyph unicode="?" horiz-adv-x="1258" d="M222.5 1537q18.5 87 85 185t171.5 181t227 114q77 17 151.5 15.5t128.5 -34t80.5 -100.5t10.5 -184q-14 -99 -54 -222t-95 -252t-116 -255.5t-111 -230t-86 -174t-39 -90.5q-21 -17 -37.5 -11.5t-29.5 18.5t-26 33t-26 28q-18 34 19 92.5t107.5 164.5t162.5 266t181 398 q45 110 59 184t11.5 119t-18.5 66.5t-35 30.5q-107 57 -212.5 28.5t-197.5 -104t-164.5 -182.5t-114.5 -210q-51 39 -32.5 126zM449 100.5q8 32.5 37.5 48t69.5 14.5t79 -15q12 -23 14 -36t-1.5 -25.5t-9.5 -27t-12 -39.5q-50 -11 -80 -11t-79 11q-26 48 -18 80.5z" />
<glyph unicode="@" horiz-adv-x="1368" d="M126 650.5q-4 125.5 19 245.5q17 91 52 181t83.5 165.5t111 129t137.5 77.5q122 36 220 15t169 -59.5t111 -78.5t45 -43q27 -23 51.5 -83t37.5 -131t14.5 -142t-16.5 -119q-47 -131 -85.5 -210t-72.5 -123t-66 -59.5t-58 -18.5q-45 0 -79 45t-54.5 106t-30 122t-2.5 96 q-42 -57 -97 -134t-123 -113q-59 -29 -114.5 -17.5t-60.5 74.5q-3 23 22 114.5t74 189t122 171.5t164 65q51 -5 76.5 -5t34.5 -39q8 -40 8 -101.5t-4 -132t-5.5 -138.5t7 -119.5t34 -77t76.5 -10.5q29 12 62 74t53.5 148.5t25 188.5t-22.5 195.5t-91 167t-175 105.5 q-148 39 -257 -22t-179 -177t-97.5 -264.5t-13.5 -287.5q9 -71 31.5 -157.5t72.5 -156t136 -108t220 -18.5q59 9 178 38.5t291 125.5q15 -11 -3 -52t-59 -58q-77 -33 -157.5 -70t-165 -61t-174 -27t-183.5 36q-96 36 -158 117.5t-96.5 188t-38.5 232zM407.5 643 q-5.5 -40 11.5 -46q9 -3 14.5 -8t11.5 -6.5t17 5t31 21.5q104 113 151.5 214t32.5 183q-29 26 -63.5 9t-69 -61.5t-64 -102.5t-48.5 -113t-24.5 -95z" />
<glyph unicode="A" horiz-adv-x="1233" d="M-71 594q-17 15 0 34t32 35q56 5 98.5 8t78 7.5t68 9t67.5 9.5q45 167 83 318.5t74.5 300t70.5 300.5t72 317q26 39 44 40.5t60 -1.5q18 -96 27 -161t16.5 -132t17.5 -148.5t28 -206.5q11 -128 32 -251t36 -254q77 12 148.5 25.5t126.5 24t89 16t34 2.5q9 -26 -28 -51 t-96.5 -50.5t-127.5 -47.5t-122 -41q6 -56 20.5 -140t31.5 -179t35 -192.5t31 -175.5t18.5 -130.5t0.5 -57.5q-14 -2 -25 -2q-32 0 -48 12q-22 16 -55 29q-23 196 -59.5 399t-56.5 406q-68 -15 -173 -40.5t-218 -44.5q-18 -65 -33 -144.5t-29.5 -153t-25.5 -130.5t-20 -76 q-14 -15 -51 -19q-5 -1 -11 -1q-30 0 -51 20q0 17 14 81.5t31.5 141.5t37 149.5t30.5 114.5q-42 0 -93.5 -4.5t-99 -4.5t-84.5 7.5t-46 31.5zM394 709q45 9 99 20t99.5 22.5t79.5 19.5t41 11q-5 65 -10.5 107.5t-9.5 90.5t-10 112t-17 172q-24 188 -34 280q-8 69 -15 68 q-2 0 -5 -8q-42 -161 -73 -278t-56.5 -217t-46.5 -195t-42 -205z" />
<glyph unicode="B" horiz-adv-x="1454" d="M-119 1366q6 77 44.5 143.5t95 119t123 89t129.5 61.5q3 33 0 50.5t3 32.5q14 3 44.5 31t41.5 28q6 -17 9 -34t6 -28q3 -15 6 -26q77 45 175 58q53 7 105 7q43 0 85 -5q90 -11 159.5 -42t92.5 -72q46 -62 46 -136q0 -22 -4 -44q-18 -100 -72.5 -195t-130.5 -174.5 t-130 -124.5q91 17 187 26q64 6 124 6q30 1 60 -1q88 -4 161.5 -19.5t124.5 -44.5q98 -54 113 -144q4 -23 4 -47q0 -69 -32 -146q-43 -103 -126.5 -209.5t-181.5 -193.5q-12 -12 -32.5 -27.5t-41.5 -32.5t-40.5 -30t-28.5 -22q-142 -98 -287.5 -167.5t-312.5 -129.5 q-46 -9 -85 -9q-23 0 -45 4q-56 8 -93.5 28.5t-55 47t-14.5 48.5q71 -14 108 -17t58 2.5t30 13t23 13.5q3 68 3 121.5t1.5 98t3 85.5t4.5 86q-3 125 -7.5 223t-4.5 163q-80 -33 -116.5 -52t-55 -28t-22.5 -9t-16 6t-14.5 22.5t-2.5 34.5q0 20 3 48q20 14 38 24t40 22.5 t54.5 28.5t83.5 46q-3 105 -4.5 184.5t-6 155t-11.5 159t-16 190.5q0 12 -42 -4t-96 -47.5t-105 -73.5t-76 -82q-23 -26 -33.5 -51t-18.5 -41t-12 -17t-16 19zM392 1705q-5 -83 -5 -161q0 -97 8 -187q15 -161 21 -332q77 33 157.5 86t151.5 127t124.5 166t77.5 206q1 8 1 16 q0 46 -38 80q-46 40 -124 54q-42 7 -90 7q-40 1 -86 -5q-100 -12 -198 -57zM416 734.5q0 -102.5 3 -224t9 -240.5t14 -187q158 45 327 142.5t307 214.5q140 118 222 242q71 106 70 192q0 15 -2 29q-12 67 -124 91q-85 19 -194 18q-32 0 -68 -2q-152 -8 -308 -43t-256 -88 v-144.5z" />
<glyph unicode="C" horiz-adv-x="1113" d="M58 548q-3 44 -3 88q0 88 13 175q18 252 92.5 466t187 378.5t255 271.5t297.5 147q12 0 44.5 -7t64 -18.5t48.5 -26.5t0 -33q-23 -8 -99 -26.5t-180 -74t-218.5 -164.5t-211.5 -296q-33 -68 -64.5 -176.5t-55.5 -214t-37 -181.5q-9 -52 -9 -69q0 -8 2 -8 q-10 -104 -10 -187q0 -78 9 -140q19 -126 61 -197t97.5 -99t109.5 -32q17 -1 33 -2q34 0 64 7q44 10 55 10q86 36 165 95.5t147 135t124.5 165t100.5 184.5q11 15 30.5 29.5t38 25t31.5 12t13 -9.5q-51 -164 -141 -297.5t-195.5 -235t-214 -166.5t-197.5 -91q-32 -6 -63 -6 q-92 0 -176 54q-112 72 -178 275q-20 107 -30 239z" />
<glyph unicode="D" horiz-adv-x="1822" d="M85.5 1968q10.5 18 16.5 52q73 -18 117.5 -34.5t75.5 -33t62.5 -29.5t84.5 -25q0 26 -1.5 40t-3 22.5t-2.5 16t-1 21.5q13 56 70 56q12 0 25 -2q18 -18 25 -39t8.5 -45t1.5 -55t2 -71q154 -83 332.5 -169.5t334.5 -186.5t272 -218t152 -265q10 -60 9 -119 q0 -117 -38 -225q-58 -163 -182.5 -295t-302 -222.5t-386.5 -129.5q-53 -11 -103 -11q-20 0 -40 2q-70 6 -128 31t-99.5 69.5t-60.5 103.5q-3 37 11 62t28.5 35.5t23 7.5t-2.5 -26q0 -63 24 -100.5t59.5 -58t73.5 -31t66 -16.5q-15 91 -27 229.5t-25 297.5t-25.5 327 t-24 324t-24.5 285t-26 209q-80 36 -127 61.5t-82 44t-67.5 34t-81.5 29.5q-24 29 -13.5 47zM576 1695q0 -26 6.5 -85.5t12 -133.5t11.5 -154.5t12 -148.5t10 -113t4 -51q6 -51 14 -129t15 -168.5t16 -185.5t14.5 -178.5t11.5 -149t10 -94.5q14 -2 29 -2q62 0 156 26 q116 32 242.5 111t238.5 203.5t171 302.5q7 49 7 95q-1 81 -23 152q-36 110 -108 197.5t-175.5 157.5t-218 130.5t-233.5 113t-223 104.5z" />
<glyph unicode="E" horiz-adv-x="1468" d="M59.5 806q5.5 22 31 53t62.5 66t73 58q-17 122 -34 254t-32 252.5t-22.5 216.5t-7.5 147q18 9 27.5 13t19.5 7t25.5 4.5l46.5 4.5q6 -14 7.5 -41t1.5 -47q151 39 273.5 74.5t237.5 69.5t234 68t261 70q24 6 47 2t37.5 -15t20.5 -20t-3 -12q-71 -42 -206 -92t-291 -100.5 t-314 -103t-272 -99.5q6 -69 8.5 -117.5t7 -106.5t14.5 -142.5t32 -226.5q116 50 187 78.5t148 51.5t183 53t287 83q14 -3 34.5 -18.5t34 -37t13.5 -42.5t-20 -32q-124 -15 -244.5 -46t-228 -71t-199.5 -82t-163 -74q6 -139 31.5 -270t68 -236.5t100.5 -173.5t129 -81 q34 -7 93 -11q9 -1 19 0q52 0 120 20q80 24 181.5 88t223.5 197q79 71 115 80.5t9 -26.5q-79 -86 -146.5 -162t-138.5 -137t-154.5 -105t-193.5 -63q-61 -13 -113 -13q-78 0 -139 29q-101 49 -164.5 161t-102.5 278t-69 369q-50 -6 -83 -20t-86 -48q-23 2 -17.5 24z" />
<glyph unicode="F" horiz-adv-x="872" d="M62 1006q9 26 30 40t46.5 21t50 16.5t43.5 30.5q-3 113 -6 192.5t-4.5 143.5t-6.5 125t-8 133q-29 -12 -53 -11t-38 20q-20 23 -20 52.5t3 38.5q-3 3 13 12.5t33 18.5q20 11 51 23q-1 13 -1 25q0 24 4 46q5 26 17.5 50t38.5 24q9 6 21 -6q8 -9 17.5 -35.5t18.5 -76.5 q88 18 157 32.5t131.5 29.5t127.5 31t151 35q53 6 83 13t46.5 11.5t24 7.5t15.5 0q6 -26 9 -38.5t1.5 -18.5t-6 -11.5t-12.5 -17.5q-40 -14 -112 -38t-158.5 -49.5t-174 -51t-159.5 -39.5q-11 -3 -29 -9t-36 -11q-20 -9 -45 -16q3 -54 3 -73t-1.5 -42.5t-3.5 -73.5 q0 -10 1 -22q0 -50 4 -142q-3 -11 -1.5 -50.5t4.5 -83.5q3 -54 10 -115q54 9 102.5 29t111 47t147 58t209.5 62q17 -18 -6.5 -39t-69.5 -45t-104 -50.5t-108 -55.5q-66 -26 -108.5 -49.5t-71 -39.5t-49.5 -23t-41 -7q0 -29 3 -106.5t7 -179t9 -215.5t10.5 -217t11 -185.5 t12.5 -121.5q-29 -6 -63.5 -9t-70.5 -3v178q0 205 -7.5 403t-21.5 414q-40 -15 -58.5 -22t-31 -10.5t-25.5 -1.5t-41 8q6 23 -10 23t-16 17z" />
<glyph unicode="G" horiz-adv-x="1421" d="M98 285q-1 7 -1 14q0 152 31 333q33 205 80 371.5t111 307t150 259.5t199 229q12 3 36 21.5t55 37t66 34.5q29 12 59 12h12q9 -18 12.5 -27t0.5 -18t-12.5 -20.5t-26.5 -36.5q-9 -3 -88 -69.5t-179.5 -206.5t-200 -351.5t-147.5 -503.5q0 -11 -7 -66t-14.5 -131.5 t-10.5 -165.5q-1 -18 -1 -36q0 -71 10 -139q20 -53 45.5 -83t93.5 -70q26 -5 52 -5q56 0 115 22q86 32 169 96.5t157 150t132 177.5t93.5 183t38.5 162q-20 0 -69.5 -20.5t-110.5 -49t-123 -58t-106 -44.5q-39 18 -67 45q-24 23 -24 69q0 8 1 17q26 0 84 20.5t136 51.5 t164 71.5t167.5 80.5t148.5 77t105 64q26 0 56.5 19t56.5 19q-6 -33 -43 -79t-83 -88.5t-92 -79.5t-73 -53v-75.5t8 -140.5t29.5 -148.5t66.5 -98.5q-17 -59 -47 -61h-3q-29 0 -56 26q-30 27 -51 71t-24 77q-71 -88 -142 -182t-164 -200q-48 -42 -88 -73.5t-79.5 -58 t-83 -47.5t-97.5 -39q-60 -17 -109 -24q-24 -4 -46.5 -4t-43.5 4q-43 7 -82.5 36.5t-76.5 89.5q-68 148 -69 305z" />
<glyph unicode="H" horiz-adv-x="1210" d="M-54 882q-5 0 3.5 28t24.5 53q48 9 81 16t61.5 14t57 18t70.5 29q-9 153 -16.5 275t-18 226.5t-25 203.5t-39.5 215q15 24 61 49q26 14 55 14q23 0 48 -9q-1 -43 -1 -84q0 -82 4 -155q6 -109 14.5 -219t18 -228.5t12.5 -264.5q68 9 163 38.5t225 57.5q0 73 -2.5 198 t-11.5 255.5t-20 245t-22 171.5q-3 20 -6 27t-4.5 10t-1.5 9.5t3 21.5q14 5 58 9q11 1 21 2q31 0 54 -11q3 -12 6 -73t8 -150t9.5 -193.5t10.5 -201t10 -172t10 -108.5q74 15 122 24t80.5 13.5t59.5 7.5t64 12q51 3 79.5 3t41.5 -7.5t15 -19t2 -30.5q-45 -9 -103 -25 t-119 -34t-121.5 -36.5t-114.5 -32.5q3 -23 8.5 -100.5t15 -181t20 -222.5t22 -230t23.5 -203t24 -137q12 -33 13 -59.5t16 -82.5q-29 -12 -66 -20q-15 -3 -28 -3q-20 0 -37 7q-14 36 -21 66t-13 65.5t-11 80.5t-14 113q-3 33 -7.5 102t-11.5 158t-14.5 187.5t-14 185.5 t-9 154.5t-2.5 93.5q-54 -11 -94 -20.5t-82.5 -18.5t-96.5 -20.5t-131 -28.5q0 -62 3 -132.5t9 -180.5q3 -71 7.5 -219t10.5 -345q-30 -15 -65.5 -28t-59.5 -13q-3 17 -3 116.5v233t-1.5 280.5t-7.5 263q-123 -39 -207 -57q-38 -8 -63 -7q-29 0 -39 11z" />
<glyph unicode="I" horiz-adv-x="495" d="M0 2049q-6 -3 4 3t28.5 15t42.5 19.5t47 15.5q-2 -136 -4 -371q0 -41 -1 -85q0 -201 6 -436q7 -286 27.5 -601t62.5 -609q-20 -20 -34.5 -23t-30 4t-31 20t-34.5 22q-3 42 -12 186.5t-17.5 343t-19.5 425.5t-18 438t-13 382q-4 114 -4 188q0 36 1 63z" />
<glyph unicode="J" horiz-adv-x="804" d="M54 -226q8 93 50 212q26 76 59 143t71.5 129t87.5 123t109 129q0 24 -13 127t-34.5 247t-48 311.5t-53.5 323.5t-51 283.5t-38 189.5q9 3 19.5 15.5t21 24t22 21.5t27.5 7q8 15 24 -42.5t37 -166t43.5 -255.5t46 -309t46 -326.5t42.5 -309.5q9 -36 13 -39q3 -6 6 -9 q14 3 51 28.5t83.5 56.5t92 61t79.5 44q23 -6 24.5 -8.5t-4.5 -8.5q-167 -131 -309 -298q26 -243 44.5 -391.5t28.5 -242t11 -151.5q1 -12 1 -23q0 -48 -5 -98q-6 -68 -22 -110.5t-40 -69.5t-52 -43.5t-54 -28.5q-60 -16 -108 -16h-6q-50 1 -90 15.5t-71 40t-56 56.5 q-26 29 -50 78t-34 118q-5 38 -5 82q0 38 4 80zM154 -383q20 -62 44.5 -99t51 -58t56 -31t56.5 -21q-5 3 19 -1t38 1q33 6 58 25.5t45 44.5q29 33 31 122v21q0 82 -13 193q-15 127 -39.5 279.5t-46.5 313.5q-62 -79 -120 -164t-101 -180.5t-65 -204.5q-17 -79 -17 -168 q0 -36 3 -73z" />
<glyph unicode="K" horiz-adv-x="987" d="M42 1015q12 23 50 44t69 49q-3 11 -6.5 69t-8 143t-10.5 181.5t-8.5 182.5t-4 151.5t-1.5 85.5q0 3 18 12t40 15.5t40 9t18 -10.5q6 -213 17.5 -392.5t14.5 -358.5q23 23 63.5 75.5t88.5 118.5t96.5 135.5t90.5 130.5t69.5 106.5t34.5 57.5q29 8 49 15t33 11t28 8.5 t41 10.5q-14 -37 -39.5 -79.5t-54 -87t-56.5 -88t-54 -77.5q-3 -6 -45 -70t-101.5 -146t-121 -163t-103.5 -117q11 -18 104.5 -76t218.5 -124t254 -121.5t214 -68.5q9 -29 14 -42t6.5 -21t3 -15.5t1.5 -24.5q-39 3 -122 28t-196 68t-246.5 102.5t-267.5 127.5 q0 -139 -4.5 -274.5t-4.5 -275.5q0 -5 1.5 -53.5t1.5 -109.5v-116t-3 -74l-89 30q-2 33 -2 104.5v162v189.5t-1.5 190t-4.5 163.5t-6 105.5q-9 9 -28.5 16t-37.5 19.5t-34 28.5t-19 39z" />
<glyph unicode="L" horiz-adv-x="981" d="M9 1998q17 12 31 25.5t30 24t37 16t54 2.5q6 -23 14.5 -106.5t20 -203.5t27 -269.5t31.5 -307t34 -312t39 -285.5t41.5 -229t41.5 -140q35 -32 76 -32q12 1 25 3q56 12 115.5 55.5t116 108.5t105 130.5t85 120.5t50.5 75q12 -17 20 -33q6 -15 9 -28t-3 -19 q-36 -73 -83 -149.5t-97 -146t-101 -124.5t-90 -88q-91 -60 -155 -80q-16 -5 -33 -5q-51 0 -112 44q-34 48 -51 105t-30 136t-25 177t-28 226q-36 354 -68 593t-58.5 390t-45 225.5t-23.5 100.5z" />
<glyph unicode="M" horiz-adv-x="1848" d="M-130 950q11 62 46.5 169.5t86.5 230.5t109 248t117 219q71 113 124.5 172.5t51.5 59.5q42 26 83 37q16 4 32 4q26 0 53 -11q26 -8 44 -56t29 -106t14 -116t3 -84q0 -83 -4.5 -156t-9.5 -153.5t-11 -170.5t-9 -209q12 62 43 150.5t73 175t95 158t116 98.5h9q64 0 83 -70 q21 -76 29 -192q0 -11 4 -57.5t8 -107.5t8.5 -127.5t10.5 -119t11.5 -83.5t11.5 -22q36 59 77.5 131t86.5 135.5t90.5 109.5t90.5 57q8 2 16 2q40 0 66 -50q31 -60 48.5 -164.5t28.5 -235t22.5 -255.5t28 -230t45.5 -158q-17 -7 -32 -7q-21 0 -39 15q-30 26 -65 48 q-9 29 -14 102.5t-10.5 165.5t-11.5 191t-16 183.5t-25.5 139.5t-35.5 61q-15 0 -20.5 8t-27.5 -17q-80 -89 -132 -172t-83 -150t-44.5 -113.5t-15.5 -54.5q-24 -65 -45 -179t-26 -240q-30 -9 -37.5 10.5t-35.5 45.5q3 15 5 94q1 40 1 88.5t-1 106.5q-2 116 -6.5 250.5 t-11.5 262.5t-18.5 232t-27.5 158q-18 3 -47.5 -29.5t-58 -79t-51.5 -90.5t-31 -66q-59 -161 -90 -269t-44 -183.5t-16 -129t-12 -107.5q-6 -80 -10 -139.5t-4 -117.5t2.5 -124.5t8.5 -157.5h-12q-36 -1 -57 15q-24 18 -74 67q3 29 9.5 98t12 143t10 132t4.5 64 q9 110 11.5 184t5.5 133.5t4.5 116t1.5 133.5q3 68 4.5 117t1.5 120q0 9 2 98.5t2 204t-3.5 228t-12.5 179.5q-3 2 1.5 7.5t7.5 8t0 2.5t-17 -2q-66 -27 -132.5 -108.5t-127.5 -193.5t-114.5 -235t-90.5 -229q-36 -108 -56 -184q-14 -56 -15 -78q0 -8 2 -12q-33 -14 -65 -16 q-1 0 -1 -1q-30 0 -35 49z" />
<glyph unicode="N" horiz-adv-x="1650" d="M-173 929q27 108 71.5 234t101.5 255t120.5 251t130.5 215.5t133.5 151.5t128.5 58q6 1 12 1q57 0 83 -53q30 -58 42 -142q10 -67 11 -138q0 -16 -1 -34q-3 -90 -3 -145v-123.5v-178t-1.5 -199t-3 -187t-2 -141.5t-0.5 -62q6 5 19.5 63t33 140t44 174t52.5 169 q3 9 19 71.5t47 129t79 117.5q37 39 86 39q14 0 30 -3q6 1 13 1q47 -1 81 -79q40 -90 68 -235t47.5 -322.5t35.5 -338.5t29.5 -279.5t28.5 -151.5q26 -33 60 -33q29 0 65 24q77 54 175 176q6 -9 7.5 -34.5t-11.5 -62.5t-51 -86t-106 -106q-61 -30 -109 -30q-37 1 -65 17 q-66 40 -90 129q-6 29 -17.5 136.5t-26.5 249.5t-33 296.5t-37 285.5q-20 131 -42 214q-21 77 -39 77h-3q-18 11 -39 -16.5t-43.5 -81t-45 -124.5t-44 -143t-38.5 -132.5t-28 -95.5q-29 -102 -50 -185t-39 -178t-32.5 -215.5t-26.5 -288.5q-14 -1 -25 -1q-39 0 -53 15 q-18 20 -51 39q0 57 2 181t2 280.5t1.5 327t1.5 318.5q0 6 4.5 62.5t7.5 137.5q4 80 6 176q1 37 0 73q0 59 -2 113q-4 90 -15 159t-34 99q-11 6 -23 6q-28 0 -62 -33q-49 -48 -105.5 -135t-113 -201.5t-103.5 -229t-81 -217t-47 -161.5q-9 -23 -28 -41.5t-40 -27t-40.5 -7 t-28.5 15.5z" />
<glyph unicode="O" horiz-adv-x="1023" d="M-96 1966q273 -11 463.5 -53.5t314 -101.5t191.5 -127.5t100.5 -130.5t40.5 -113t11 -71q13 -95 13 -188q0 -73 -8 -143q-18 -162 -62 -309.5t-109.5 -273.5t-136.5 -219.5t-141.5 -153t-123.5 -70.5q-59 -9 -104 -9q-43 1 -73 9q-62 18 -119 90q-57 73 -88 199.5 t-45 269t-14 286t9 259.5q15 137 27 227.5t25 166.5t30 150t40 173q-42 3 -83.5 17.5t-77 34t-58 41t-22.5 40.5zM145 771q6 -107 19.5 -218t41.5 -203q30 -92 78 -150q46 -55 121 -55h8q8 -1 15 -1q46 0 90 32q52 37 101 98t93.5 140t78.5 159.5t61 153t38 120.5 q24 98 29 194q2 31 2 61q1 64 -7 120q-10 84 -28.5 154t-38.5 112q-60 113 -217 205t-375 106q-9 -33 -20.5 -105.5t-25 -169t-25 -206t-22.5 -214.5q-12 -104 -16 -192q-3 -52 -2 -92q0 -27 1 -49z" />
<glyph unicode="P" horiz-adv-x="1023" d="M-34.5 2037q1.5 6 9.5 13.5t25 23.5q4 1 9 1q28 0 102 -21q88 -25 208 -71.5t258.5 -110.5t267.5 -130.5t231.5 -133.5t150.5 -123q45 -35 61 -83q11 -32 11 -67q-1 -15 -3 -31q-8 -50 -37 -100.5t-74 -95.5q-45 -42 -106 -88t-132 -86.5t-154.5 -68.5t-174.5 -34 q14 -110 31 -231.5t28.5 -234.5t14.5 -205q1 -23 1 -43q0 -61 -7 -97q-9 -48 -35.5 -41t-77.5 92q0 205 -19 387.5t-49 366.5q-69 0 -134 22.5t-118.5 51t-85 59.5t-31.5 51q21 -6 65.5 -14.5t94 -15.5t98 -11.5t79.5 -4.5q-18 133 -34.5 239.5t-33 207.5t-32.5 207t-31 236 q-91 39 -185.5 72t-179.5 73q-6 18 -9.5 25.5t-2 13.5zM448 1811q6 -62 17 -134.5t25.5 -169t37 -227t51.5 -311.5q139 0 247.5 29.5t183.5 82.5t109 125q25 52 25 106q0 21 -4 42q-6 60 -80 121t-179 119t-222.5 112t-210.5 105z" />
<glyph unicode="Q" horiz-adv-x="1139" d="M12 2007v93q17 -6 96 -23t193.5 -55t254 -103.5t282.5 -166.5q154 -111 234.5 -227.5t109.5 -234.5q20 -77 20 -156q0 -40 -5 -80q-15 -119 -50 -229q-26 -77 -68 -156.5t-91.5 -157t-101.5 -146t-99 -119.5q12 -79 41.5 -144.5t64 -114.5t68.5 -80.5t61 -45.5 q64 -37 130 -37h9q71 3 140 37q5 -29 -5 -40t-13 -17q-96 -47 -175 -47q-19 0 -38 3q-93 14 -164.5 73.5t-123 144t-87.5 161.5q-12 -9 -46 -41.5t-86.5 -59t-118.5 -35.5q-14 -2 -28 -2q-54 0 -113 28q-77 51 -125 171t-69 296q-18 147 -18 329q0 34 1 70q4 224 27 488 q3 18 7 86.5t10 155t14 173.5t17 146q-29 15 -48.5 26t-36.5 16.5t-31.5 10t-38.5 10.5zM213 1006q0 -8 2.5 -85t3.5 -172t7 -184t15 -129q14 -88 36.5 -155.5t82.5 -107.5q41 -31 82 -31h7q44 3 84 22.5t69.5 48t44.5 51.5q-15 62 -25 127.5t-16 126.5t-11.5 111.5 t-10.5 86.5q29 0 62.5 -19.5t72.5 -33.5q6 -48 9 -76.5t6 -55t8.5 -58t17.5 -81.5q48 53 119 156t123 235t64 285q1 21 1 43q0 131 -61 264q-29 59 -92.5 123t-145.5 123.5t-170 113t-160.5 92t-121.5 61t-52 22.5q-6 -66 -14.5 -189t-17.5 -258.5t-14 -260.5t-5 -196z" />
<glyph unicode="R" horiz-adv-x="1641" d="M-148 1927q41 5 99 5h30q78 -2 160 -5t157.5 -8.5t123.5 -8.5q368 -42 580.5 -112t307.5 -148q91 -74 91 -147q-1 -3 -1 -7q-4 -76 -66 -130q-45 -51 -144.5 -99.5t-219.5 -90.5t-240.5 -73t-204.5 -49q29 -80 71 -125t107 -110q99 -77 170 -132t135 -99t130.5 -84.5 t156.5 -90.5q119 -48 184 -69t100.5 -28t51 -7t32.5 -9q6 -17 -26.5 -25t-77.5 -8t-91 4.5t-66 11.5q-45 11 -104.5 31.5t-140 58t-179.5 98.5t-221 155q-51 40 -92 68t-71 48q-33 24 -62 42q6 -36 16 -102.5t21.5 -150t25.5 -172.5t25.5 -169t24 -142t21.5 -90 q-27 -10 -52 -10q-16 0 -34 4q-33 9 -54 10q-5 0 -10 -1q-11 196 -39.5 413.5t-45.5 478.5q-3 8 -1 4q0 -4 2 -7q-2 3 -7 23q-33 45 -52 67.5t-37 40t-39 40t-59 69.5q8 12 45 20.5t82 23.5q-14 101 -23.5 189t-18 170.5t-17.5 164.5t-20 175q-26 0 -138 4.5t-252 6.5 q-24 15 -37 25t-7 58zM419 1814q12 -131 24 -297t38 -370q99 17 234 57t258 86.5t208.5 95t82.5 90.5v26q-11 45 -93.5 93t-206 89.5t-268 77t-277.5 52.5z" />
<glyph unicode="S" horiz-adv-x="1363" d="M-20 1610q20 96 63 159.5t95 99t85 46.5q68 21 138 36q51 11 103 11q19 0 38 -2q71 -6 144 -40.5t147 -105.5q26 -60 33.5 -77t14.5 -59q-36 29 -63 50t-54 37.5t-59.5 28t-75.5 20.5q-45 5 -88 5q-71 0 -137 -14q-106 -23 -178 -75t-102 -128q-15 -38 -15 -79t14 -86 q33 -99 101 -188.5t156 -176t187 -162.5t190 -143t168.5 -120t117.5 -92q92 48 172.5 80.5t167.5 64.5h17q12 -3 3 -17q-26 -23 -63.5 -50t-76 -55t-75.5 -55t-68 -47q86 -86 114 -156q15 -38 14 -75q0 -33 -11 -63q-24 -66 -98 -135.5t-193 -150.5q-77 -54 -166 -92.5 t-165 -45.5q-13 -1 -24 -1q-59 -1 -98 29q-35 27 -35 90q0 20 4 44q48 161 175.5 297.5t292.5 275.5q0 9 -57 50t-148 107t-199.5 151.5t-208 180.5t-177 199.5t-103.5 204.5q-23 83 -23 152q-1 38 6 72zM550 -65q-6 -21 14 -35q16 -11 51 -10h17q48 3 120.5 28t174.5 85 q73 51 113 110.5t48 117.5q2 13 2 26q0 43 -20 81q-26 48 -90 78q-29 -14 -99 -69.5t-142.5 -127t-129.5 -148.5t-59 -136z" />
<glyph unicode="T" horiz-adv-x="756" d="M-589 1820.5q-5 15.5 13 32.5t68 36q214 39 413 64t392 44.5t389 38.5t404 49q15 0 34 -16.5t32.5 -39t19.5 -44.5t-6 -30q-28 1 -56 1q-76 0 -152 -6q-106 -8 -210.5 -20t-202.5 -26.5t-178 -27.5q9 -226 17 -448.5t22.5 -449.5t33.5 -461t49 -488q0 -12 -21 -20.5 t-44 -8.5t-45.5 7t-28.5 32q-12 142 -21.5 320.5t-18 364t-18.5 368.5t-22.5 337t-25.5 266.5t-28 160.5q-172 0 -363.5 -21t-369.5 -41q-29 -6 -50 2.5t-26 24z" />
<glyph unicode="U" horiz-adv-x="1445" d="M59 1924q0 15 9 30t65 15q18 -3 29 -28.5t15 -62t7 -79t6 -79.5q6 -48 18 -181.5t28 -307.5t37 -361t41 -340q21 -154 42 -250q19 -86 34 -85q2 0 4 1q15 -5 29 -5q47 0 93 54q60 70 110.5 191.5t92 280.5t67 319t35.5 304q5 66 5 122q0 67 -7 118q-3 21 17 29.5 t43.5 8.5t47 -8.5t29.5 -26.5q0 -101 -6 -237.5t-9 -288t-3 -303t11 -277.5t35.5 -218t72.5 -123q37 -11 70 -11q39 0 75 15q65 27 114.5 74t82 99l47.5 76q12 23 18 3q2 -6 2 -16q0 -19 -10 -50q-39 -68 -94.5 -142t-119.5 -123q-62 -49 -132 -59q-10 -2 -21 -2 q-59 0 -120 51q-34 20 -60.5 91t-44.5 163q-17 91 -25 193q-4 54 -4 103q0 42 3 79q-88 -255 -154 -385.5t-114 -184t-79 -56.5t-52 -3q-33 -3 -59 -3t-50 14.5t-43.5 48.5t-37.5 99q-50 416 -90 850t-100 864z" />
<glyph unicode="V" horiz-adv-x="827" d="M-167 1610q0 17 19.5 21.5t43.5 3t43 -9t19 -15.5q68 -205 123 -367.5t111.5 -318.5t125 -322t163.5 -379q92 351 155.5 683t101.5 597t55.5 432t22.5 191q0 14 18.5 20.5t38.5 6.5t37 -7t17 -20q-9 -66 -34.5 -240.5t-61 -403.5t-79 -480t-85 -467.5t-82 -368.5 t-66.5 -180q-48 -15 -59.5 -12t-31.5 43q-63 167 -146 385.5t-166 439.5t-159 424.5t-124 343.5z" />
<glyph unicode="W" horiz-adv-x="1380" d="M17 1408q-1 6 -1 11q0 46 40 69q28 16 53 16q15 0 30 -5q12 -3 24 -98t22.5 -235.5t21.5 -307t21 -307.5t17 -234.5t16 -93.5q9 -20 37 24t65 132t80.5 207.5t86.5 248t82 254.5t68 226q15 33 27 45t50 3q20 -9 32.5 -44.5t18 -89t14.5 -119t28 -130.5q14 -56 38 -141 t52.5 -174t59.5 -170.5t66 -129.5q3 -2 6 -2q14 -1 36 63q26 76 53 203.5t52 287.5t43.5 311.5t25.5 275.5q3 54 3 95q0 53 -5 84q0 37 4.5 51.5t7.5 22.5t3 13.5t-6 23.5q-6 11 4.5 28t27 28.5t35.5 14.5t33 -12q9 -11 9 -52q0 -4 1 -8q0 -39 -5 -95q-5 -62 -12 -145 t-10 -181q-21 -151 -43.5 -311.5t-46 -316t-52 -301.5t-57.5 -262q-6 -14 -21 -29.5t-32.5 -19.5t-35.5 6t-33 43q-59 108 -102 198.5t-79 189.5t-71.5 219.5t-82.5 285.5q-45 -133 -94 -281.5t-100.5 -289.5t-105.5 -262.5t-104 -198.5q-34 -45 -55.5 -60t-38 -10t-27 22.5 t-16.5 31.5q-26 258 -45.5 496t-37.5 425t-35.5 310t-39.5 151z" />
<glyph unicode="X" horiz-adv-x="941" d="M-99 1589q-5 21 1.5 28t19.5 2.5t27.5 -16t27.5 -30.5q53 -74 91.5 -137.5t81.5 -133.5t101 -153t146 -199q45 166 76.5 288t54 212.5t35.5 153t21 113.5q6 29 23 45.5t35 21t29.5 0t11.5 -13.5q-51 -252 -104.5 -495.5t-102.5 -449.5q39 -57 81.5 -115.5t94 -129 t117 -150t146.5 -178.5q19 -51 19 -80q0 -16 -6 -26q-16 -27 -41 -24q-45 48 -86 96.5t-92.5 108t-115.5 138.5t-148 189q-20 -110 -54 -247t-68 -265t-65.5 -231.5t-47.5 -145.5q-33 -23 -56.5 -26t-23.5 15q40 160 65 269.5t42.5 197.5t33 167t38.5 182q14 71 21.5 113 t11.5 65q3 26 0 34q-77 127 -144.5 235t-122.5 204.5t-99 185.5t-75 182z" />
<glyph unicode="Y" horiz-adv-x="607" d="M-136 1844q0 15 16 20.5t39.5 5.5t49 -4t43.5 -7q29 -300 105 -480t153 -277q91 -116 200 -164q20 125 30 288t13 313q1 75 1 140t-1 121q-3 110 -5 133q20 29 46 29q0 1 1 1q25 0 74 -21q2 -53 2 -116q0 -31 -1 -65q-1 -101 -6.5 -209.5t-13 -219.5t-17 -207.5 t-16.5 -175.5t-16 -121q-26 -154 -65 -341t-80.5 -358t-80 -301.5t-68.5 -169.5q-14 -2 -28 -2q-23 0 -48 6q-40 9 -21 41q56 124 110 297q45 148 93.5 362t80.5 499q-51 0 -95 22.5t-82.5 54t-74 69.5t-66.5 73q-45 57 -90.5 155.5t-84 208t-64 218t-33.5 182.5z" />
<glyph unicode="Z" horiz-adv-x="1171" d="M-33 1174.5q0 18.5 10 27.5q45 36 133.5 128t198.5 199t224 212.5t212 171.5q45 33 73.5 41.5t44.5 3t21.5 -21t5.5 -26.5q-8 -134 -41 -299t-77 -340t-93.5 -347.5t-92 -318t-72.5 -253.5t-36 -153q108 74 200.5 141t183.5 131t184.5 130.5t200.5 140.5q42 24 46.5 19.5 t-18.5 -48.5q-111 -82 -228.5 -179.5t-230.5 -193.5t-213.5 -181t-171.5 -142q-58 -30 -90 -30q-6 1 -10 1q-21 4 -21 52q0 23 5 56q50 210 115.5 408.5t128 401t116 413.5t79.5 446q0 9 -8 9q-16 0 -63 -36q-71 -52 -177 -151t-225.5 -227t-218.5 -249q-33 -9 -53.5 -0.5 t-31 27t-10.5 37z" />
<glyph unicode="[" horiz-adv-x="685" d="M202 2179q39 18 71 3l217 6q12 -33 20 -56q6 -21 7.5 -38.5t-12.5 -11.5q-24 6 -86 4.5t-104 -4.5q0 -48 1.5 -201t1.5 -359.5t1 -445t1 -464.5t1.5 -411t1.5 -287q42 6 106 9t112 3l-22 -104q-39 -15 -105 -15t-117 6q-14 0 -33.5 1.5t-28.5 7.5q3 20 3 130v277.5 t-1.5 374.5t-4.5 422t-6 419t-5.5 365.5t-8 262.5t-10.5 106z" />
<glyph unicode="\" horiz-adv-x="1020" d="M226 2020q0 20 13 39.5t34 35.5t43 23.5t41 4.5q26 -173 73.5 -401t103 -472t114 -482.5t108 -433.5t82 -322.5t38.5 -150.5q-15 -21 -41.5 -21.5t-58.5 9.5q-15 21 -44 121.5t-67.5 252t-81 337t-89 378.5t-89.5 377t-79.5 334t-62 249.5t-37.5 121.5z" />
<glyph unicode="]" horiz-adv-x="735" d="M187 2040l20 105q39 14 106 14t118 -6q14 0 33.5 -1.5t28.5 -6.5q-3 -21 -3 -129.5t-1.5 -274t-1.5 -370t1.5 -415.5t3 -411t4.5 -359.5t6 -259t8 -104.5q-39 -18 -71 -3l-216 -6q-11 33 -21 57q-6 20 -7.5 36.5t12.5 13.5q24 -6 87 -4.5t103 4.5v197.5t1.5 353t1.5 438 t2.5 454.5t2.5 403.5v285.5q-43 -6 -106.5 -9t-111.5 -3z" />
<glyph unicode="^" horiz-adv-x="1902" d="M323 1007.5q-3 66.5 34 132.5q56 107 146.5 119.5t181.5 -27t167.5 -109t107.5 -125.5q56 172 130 280t149.5 160.5t151.5 51t139 -49.5q48 -36 53.5 -113t-18.5 -180.5t-71.5 -225.5t-103.5 -244t-115.5 -236.5t-110 -203.5t-83.5 -143.5t-36 -57.5l-85 -122 q33 99 14 202q-14 88 -84.5 200t-238.5 225q-17 11 -56.5 41t-83.5 74t-87.5 100.5t-70.5 120.5t-30 130.5zM433.5 895.5q26.5 -93.5 101.5 -161.5q45 -45 88 -79t83 -63q105 -80 201 -180t138 -210q125 204 218.5 392t148.5 339.5t67 255t-30 138.5q-24 17 -52 32.5 t-51 15.5q-86 0 -169.5 -112.5t-151.5 -327.5l-56 -151l-48 143q-3 2 -20 33.5t-53.5 70t-97.5 72.5t-153 47q-10 9 -21 9q-60 0 -97 -33t-43 -66q-29 -71 -2.5 -164.5z" />
<glyph unicode="_" horiz-adv-x="1181" d="M102 -300q-15 42 5.5 66t67.5 21q54 0 168 1.5t245 3t256 3t201 1.5q18 0 12 -28.5t-12 -40.5h-96t-177 -3.5t-214 -6.5t-211 -5.5t-166 -5.5t-79 -6z" />
<glyph unicode="`" horiz-adv-x="2472" />
<glyph unicode="a" horiz-adv-x="862" d="M-45 74q-10 38 -10 80q0 44 11 94q21 97 61 174q63 107 132 195.5t145.5 151t161.5 90.5q57 19 116 19q30 0 60 -5q-3 -17 -13 -74t-22.5 -132t-20.5 -159t-10 -158q0 -10 -1 -19q0 -63 9 -107q10 -52 35 -63q26 -12 51 -12q43 0 88 34q71 55 167 168q9 0 1.5 -24 t-24 -52.5t-32.5 -56.5t-26 -37q-23 -29 -67.5 -66.5t-94.5 -59.5q-44 -19 -86 -19h-11q-46 3 -76 52q-15 37 -18 89q-2 26 -1.5 52.5t1.5 52.5q3 53 9 98t9 65q-63 -116 -143 -219.5t-157 -163.5t-143 -64h-6q-61 0 -95 76zM54 216q-2 -17 -3 -31q0 -49 23 -66q3 -1 7 -1 q29 0 88 45q66 50 137 140.5t129 211t75 253.5h-33.5t-51.5 -17q-113 -74 -193.5 -173.5t-125 -193.5t-52.5 -168z" />
<glyph unicode="b" horiz-adv-x="804" d="M-54 1830q-2 33 -2 51q0 26 4 26h1q9 0 23 7t28 4t26.5 -26.5t18.5 -83.5q6 -74 11.5 -180.5t13 -229.5t17 -257.5t18 -260.5t16 -234t12.5 -186q9 36 36 97t67 127.5t93.5 127.5t115.5 94q51 21 86.5 22t61 -10.5t42 -29.5t25.5 -32q28 -66 27 -148q0 -25 -2 -51 q-11 -113 -57.5 -225t-126 -204t-186.5 -132q-60 -24 -86.5 -26t-53.5 -2q6 -45 3 -59.5t-8 -17.5q-12 -11 -39 -12.5t-54 4.5q-18 232 -32 448q-6 91 -14 189.5t-15 190.5t-13 173.5t-9 143.5q-3 113 -13 249.5t-19.5 254.5t-15.5 198zM173 173q19 -5 39 -5q40 0 82 21 q62 31 115.5 87t97 130.5t68.5 147t28 136.5v13q0 55 -24 90q-17 31 -46 31q-8 0 -17 -2q-42 -10 -68 -35q-42 -23 -87.5 -83t-85.5 -144t-68.5 -185.5t-33.5 -201.5z" />
<glyph unicode="c" horiz-adv-x="709" d="M6 275q8 105 44 209.5t89.5 193t104.5 130.5q72 50 132 62q30 6 60 6t60 -6q3 -17 -28.5 -35.5t-78.5 -52.5t-103.5 -90.5t-101.5 -147.5q-48 -102 -68 -176q-8 -30 -8 -65q0 -50 17 -110q8 -20 25 -37t49 -20q65 12 115.5 33t95 50.5t86.5 64t85 70.5q66 62 109.5 108 t70 77t45.5 46t41 9q-12 -26 -67 -113t-142.5 -183t-203.5 -180.5t-250 -105.5q-54 2 -88 11.5t-63 72.5q-29 60 -29 140q0 19 2 39z" />
<glyph unicode="d" horiz-adv-x="925" d="M-61 154q4 64 35.5 130.5t80.5 131.5t99 121.5t95 98t66 59.5q42 26 70 42.5t50 27.5t46 15t60 2q-5 68 -7 163q-1 48 -1 95q1 48 1 96q2 96 6 179.5t12 127.5q6 65 28.5 137t56.5 138.5t75.5 118.5t91.5 74q33 14 65 15q17 0 35 -4q52 -12 102 -75q42 -50 42 -126.5 v-158.5q-8 -54 -20.5 -113.5t-25.5 -112.5t-21.5 -92t-11.5 -48q-18 -50 -48.5 -130t-70 -167.5t-90.5 -175.5t-103 -150q0 -45 10 -150t24.5 -227t28.5 -239.5t17 -182.5q-15 -15 -27.5 6t-35.5 72q-17 77 -28 142t-19.5 132t-19 141.5t-31.5 168.5q-57 -71 -135.5 -161.5 t-162.5 -160.5q-85 -70 -167 -98q-28 -10 -54 -9q-48 0 -86 35q-32 43 -32 99v13zM48 183q0 -19 4.5 -37t17.5 -31t43 -8q29 12 48.5 23.5t35.5 25.5t35.5 28.5t50.5 38.5q42 45 102 101t106.5 118.5t60.5 127.5q3 14 4 27q0 51 -43 100q-20 0 -42.5 -5.5t-55 -28 t-78.5 -62.5t-111 -108q-80 -83 -117.5 -153t-60.5 -130v-27zM618 989q0 -45 4 -89t12 -75.5t14 -48t9 -8.5q53 60 89 127.5t79 158.5q39 80 71 204q30 126 42 246q6 60 6 112t-6 97q-12 89 -59 95q-6 1 -12 1q-35 0 -65 -32q-36 -37 -66 -92t-50 -117.5t-29 -108.5 q-12 -60 -17 -107.5t-6.5 -100t-4.5 -113.5t-11 -149z" />
<glyph unicode="e" d="M21 347q2 101 59 262q39 83 83 141t104 91q9 3 51 16q25 8 44 8q13 0 24 -4h10q78 0 122 -45q25 -26 25 -78q0 -44 -18 -106q-57 -151 -149.5 -251.5t-221.5 -193.5q29 -77 89 -87q15 -2 30 -2q45 0 95 22q66 28 128 76t101 84q63 54 100 90.5t79 89.5q8 5 9.5 -2 t-1.5 -22q-2 -14 -8 -42q-9 -20 -18.5 -36t-25.5 -35.5t-42.5 -46.5t-65.5 -72q-45 -42 -86.5 -81.5t-87.5 -69.5q-44 -29 -100 -41q-27 -6 -59 -6t-68 6q-59 20 -95.5 44t-55 49t-27.5 46.5t-12 35.5q-12 52 -12 135v25zM136 315q39 20 91.5 57.5t98 86.5t79.5 108t37 125 q9 45 -3 62q-5 9 -11 9q-19 9 -38 9q-32 0 -64 -24q-50 -38 -91.5 -109.5t-70 -159t-28.5 -164.5z" />
<glyph unicode="f" horiz-adv-x="649" d="M-59 732q0 10 7 27t18 31.5t14 20.5q17 5 103.5 14t189.5 22q-7 124 -7 230q0 138 12 246q19 191 56 310t85 177t89 75q55 22 104 22q44 0 82 -17q82 -37 135 -99.5t75 -126.5q13 -35 13 -54q0 -16 -8 -21h-46t-17.5 1.5t-4.5 4.5t-3 9q-6 0 -16.5 28t-28 61t-46 61 t-67.5 28q-27 6 -50 6q-50 0 -86 -28q-54 -43 -88 -125t-50.5 -188.5t-24 -215.5t-7.5 -208t-3 -162q57 3 94 4.5t68 3t58 3t60 1.5q15 -3 29.5 -17.5t25 -32.5t15 -32.5t-1.5 -14.5q-53 -9 -95.5 -12.5t-80.5 -6.5t-78 -4.5t-91 -4.5q3 -151 11.5 -271t16.5 -229 t15.5 -212.5t10.5 -219.5q-6 -23 -31.5 -21.5t-51.5 3.5q-9 0 -12.5 3t-5 27t-3 80t-5.5 160.5t-13 267.5t-26 404q-68 -6 -110 -9t-73.5 -4.5t-61 -1.5t-74.5 -3q-20 0 -20 10z" />
<glyph unicode="g" horiz-adv-x="946" d="M-110 -915q-1 13 -1 26q0 106 43 209q48 116 113 211t127.5 160t85.5 89q39 42 70.5 71.5t64 55t69.5 55t88 71.5q11 71 14 149q2 40 2 80.5t-2 82.5q-54 -110 -114.5 -172.5t-109.5 -93.5t-80 -38.5t-25 -7.5q-38 -5 -66 -5q-14 0 -25 1q-34 4 -53.5 17t-29.5 31.5 t-16 35.5q-7 37 -7 76q0 41 8 83q16 82 49 156t71 136t72 102q6 5 28.5 30.5t58 56.5t87 64t120.5 59q61 13 125 13q7 0 14 -1q71 -1 116 -32q-23 -9 -72 -23t-64 -20v-5q0 -9 6 -9q-9 2 -20 2q-50 0 -138 -44q-107 -54 -232 -205q-57 -79 -86.5 -143t-42.5 -110.5t-13 -79 t3 -49.5q2 -12 20.5 -21.5t44.5 -3.5q77 17 144.5 79t121.5 138.5t93.5 151.5t56.5 118q29 68 30.5 126t-4.5 58h4h8.5t1.5 -1.5t-20 -3.5q6 5 12 6.5t13 4.5q-3 3 1.5 7.5t10.5 4.5q0 6 14 13l17 6l9 5q12 6 15.5 9t8 3t16 -4.5t41.5 -12.5q-26 -71 -45.5 -174t-34.5 -207 t-25.5 -197.5t-18.5 -146.5q23 23 69.5 56.5t89.5 64.5q54 35 113 74q6 -5 -1 -19.5t-20.5 -33t-27 -34.5t-19.5 -23q-71 -80 -127.5 -138t-92.5 -98q0 -3 -1.5 -34t-1.5 -34q-5 -82 -5 -163q0 -21 1 -41v-19q0 -93 -14 -188q-17 -119 -36.5 -191.5t-40 -118.5t-43 -77.5 t-49.5 -70.5q-23 -33 -53 -56.5t-81 -55.5q-68 -42 -142 -63q-44 -13 -84 -13q-27 0 -52 6q-62 14 -105.5 67t-49.5 160zM2 -862q-1 -8 -1 -14q0 -66 38 -127q46 -36 98 -36q31 0 64 13q88 34 161 105q86 99 139.5 275t59.5 456q4 29 4 49q0 25 -7 34q-6 8 -14 5 q-80 -65 -131 -109t-68 -59q-142 -133 -212.5 -236t-93.5 -189q-33 -95 -37 -167z" />
<glyph unicode="h" horiz-adv-x="788" d="M3 2108q-1 6 35 22q24 11 51 12q13 0 27 -3q3 -9 6 -76.5t4.5 -171t1.5 -235.5t1 -272t1 -276v-251v-194v-105q34 145 95 240t110 102q14 3 27 3q40 0 64 -28q32 -37 51 -101.5t38.5 -143t52 -149.5t89 -126t154.5 -67q-71 -60 -128 -60q-5 0 -10 1q-61 6 -109 53 t-83.5 121.5t-59.5 146t-38.5 125t-20.5 62.5q-17 23 -38 2.5t-43.5 -65.5t-41.5 -103t-34 -109.5t-23.5 -87.5t-8.5 -32q-9 -39 -15.5 -101.5t-8.5 -122.5q-1 -30 -0.5 -58t0.5 -52q2 -50 9 -62q-20 0 -59.5 14t-59.5 14v232.5v320.5t-1.5 378.5t-6.5 409t-11 409.5 t-17 384z" />
<glyph unicode="i" horiz-adv-x="371" d="M54 1188q11 33 36.5 65.5t76.5 52.5q29 6 35 -35q1 -10 1 -19q0 -27 -13 -43q-33 -26 -42 -46t-41 -26q-17 3 -31 1.5t-22 49.5zM77 867q11 6 19 17.5t17 21t24 15.5t38 0q15 -142 21 -313.5t22 -358.5q11 -95 22.5 -148t17.5 -101q-22 -4 -40 -4q-20 0 -34 6 q-26 10 -51 24q-5 48 -12.5 158t-14.5 239t-15 251t-14 193z" />
<glyph unicode="j" horiz-adv-x="462" d="M-258 -601q9 79 30 144t45.5 118t43.5 101q26 48 54 95t65 99.5t85 114.5t110 139q-5 42 -8 81q-6 34 -7.5 66t-5.5 50q-9 54 -19 118t-21.5 124t-22.5 109.5t-20 72.5q17 51 47 73.5t60 39.5q12 -26 23.5 -85.5t22.5 -130.5t18 -143t16 -122q6 -29 10.5 -65t11.5 -78 q17 9 44 33t62.5 48t78.5 41q37 15 81 15h15q3 -3 11.5 -7.5t15 -10t4 -11.5t-21.5 -9q-36 -6 -86 -41.5t-94.5 -80.5t-75.5 -90.5t-31 -76.5q3 12 6 21q5 17 5 -3q-1 -32 -1 -66q0 -83 5 -174q4 -58 4 -130q0 -86 -5 -191q-8 -154 -22 -240.5t-33 -135.5t-43 -76.5 t-57 -66.5q-23 -24 -69.5 -47.5t-123.5 -23.5q-151 0 -207 227q-4 48 -4 92t4 83zM-167 -510q-8 -61 -8 -115q0 -62 11 -115q19 -98 78 -139q24 -11 61 -16q12 -2 24 -2q23 0 43 7q77 36 111 139.5t45 238.5q9 100 9 208q0 37 -1 76q-4 148 -4 279q-3 29 -6 27.5t-18 -16.5 q-56 -59 -111 -131.5t-102.5 -150t-82 -153t-49.5 -137.5zM12 1185q8 23 29 52t63 46q26 3 29 -31t-8 -53q-26 -23 -34 -37.5t-34 -18.5q-15 3 -27.5 1.5t-17.5 40.5z" />
<glyph unicode="k" horiz-adv-x="754" d="M6 1966q20 23 39.5 29t70.5 9q3 -182 3 -361t-3 -355t-3 -344t3 -326q51 39 107.5 94.5t105 109.5t84 94t44.5 44q26 -23 55 -40t29 -14q-74 -82 -154.5 -176.5t-184.5 -148.5q68 -14 123 -22.5t110 -16t122 -14t159 -15.5q26 -29 35 -48.5t25 -59.5q-96 17 -173.5 25.5 t-153 14.5t-156 10.5t-177.5 14.5q-1 -39 -1 -77q1 -105 7 -192q4 -61 4 -115q0 -51 -4 -98q-18 -2 -28.5 6.5t-19.5 20t-19 25.5t-29 19q4 180 4 348q0 213 -6 407q-8 240 -9 466q0 98 2 193q0 60 1.5 135t1.5 148.5t-3 130.5t-11 79z" />
<glyph unicode="l" horiz-adv-x="340" d="M-57 416q3 15 6 29q3 15 6 27t9 21q20 29 36.5 58.5t25.5 54.5q12 29 19 57q-3 33 -4.5 56t-1.5 48.5t-1.5 52.5t-1.5 67v119v175t3 203t7.5 203t11.5 175.5t16 119.5q20 86 64 132q42 46 90 54q10 2 20 1q38 0 74 -24q46 -31 70 -98q26 -65 26 -169v-5q0 -101 -17 -221 q-18 -124 -49.5 -257.5t-67 -259.5t-71.5 -236t-62 -184q0 -9 9.5 -83.5t21 -181t28 -230t29.5 -235t25 -195.5t16 -109q-18 3 -30 6t-24.5 15t-28.5 34t-46 64q-39 272 -61 476t-36 332q-54 -72 -78 -95.5t-30 -23.5q-8 0 -3 27zM120 1236q2 -136 5 -258t3 -194 q74 218 122 427t70 375q17 122 16 211q0 31 -2 58q-8 103 -43 105q-15 5 -28 5q-37 1 -61 -43q-32 -60 -52 -166q-20 -108 -26 -246q-4 -109 -4 -216v-58z" />
<glyph unicode="m" horiz-adv-x="1119" d="M0 48q6 39 10 150t8.5 253.5t9.5 290.5t8 258q0 27 14.5 32t31.5 -1t32.5 -19.5t21.5 -19.5q2 -26 2 -60q0 -63 -8 -151q-12 -134 -12 -333q11 48 35.5 113t56 132t68.5 125t72.5 92t68 34t59.5 -51q6 -14 10.5 -60t6 -111t4 -145.5t9.5 -163.5q26 65 60.5 143.5 t73.5 142.5q38 63 82 99q28 22 58 23q18 0 37 -8q23 -8 32.5 -54t15.5 -108t13 -132.5t28 -126.5q22 -57 60 -91q30 -27 78 -26q13 0 26 1q36 0 52 -1.5t24 -4.5t6.5 -9t-1.5 -17q-82 -42 -142 -42q-20 0 -38 4q-70 20 -110.5 84t-56.5 154.5t-22 179.5q-5 39 -24.5 33 t-48 -45t-61 -97t-62.5 -123.5t-52.5 -126.5t-33.5 -98q-15 -26 -47.5 -14.5t-41.5 43.5q-11 48 -13 118q-2 43 -2 87v53q2 70 6 138q2 34 2 63t-2 52q-4 47 -12.5 65t-31.5 -9q-51 -77 -94 -175t-75.5 -203t-55 -211t-28.5 -191q-16 -4 -30 -4q-27 1 -41 17q-22 24 -36 52z " />
<glyph unicode="n" horiz-adv-x="783" d="M33 927q0 26 13 26t29 -12t34.5 -23.5t29.5 -11.5q0 -82 -1.5 -165.5t-3 -161t-3 -146t-3.5 -121.5q0 11 13 57.5t37 106t52 126t60 118.5q34 51 68 81q25 21 46 21q9 0 18 -3q65 -29 92 -85.5t38.5 -129t24 -161.5t52.5 -188q18 -45 52.5 -65t66 -29.5t50 -11 t13.5 -10.5q-56 -42 -101 -42q-14 0 -27 4q-54 18 -91 79t-60.5 145.5t-42.5 163t-34.5 133.5t-32.5 55q-26 -3 -58 -50.5t-64.5 -119t-62.5 -156t-54.5 -158.5t-39.5 -127.5t-18 -65.5q-45 0 -55.5 -3t-33.5 29q12 201 12 385q0 55 -2 109q-4 234 -13 407z" />
<glyph unicode="o" horiz-adv-x="587" d="M-42 838q12 6 25 18q23 17 31 34q57 -3 125 -16t133.5 -35.5t120.5 -50.5t91 -63q36 -33 42 -100q1 -18 2 -37q0 -52 -11 -110q-15 -80 -46.5 -164.5t-70 -153.5t-83 -113t-82.5 -44q-65 0 -110 31t-72 75.5t-40 93.5t-16 86q-5 95 -5 176q0 54 2 103q6 121 20 200 q-8 15 -17 28q-9 12 -17.5 22t-21.5 20zM87 399q1 -79 12 -137t23 -78q8 -11 23.5 -25t37 -21.5t45.5 -1.5t52 34q71 74 106.5 152t45.5 148q4 31 4 58q0 36 -7 66q-13 53 -43 77q-24 15 -40.5 25t-41 19.5t-63.5 19.5t-102 28q-29 -97 -41 -191q-11 -87 -11 -161v-12z" />
<glyph unicode="p" horiz-adv-x="875" d="M-26 909q9 1 17 1q37 0 51 -12q17 -14 35 -31q17 -56 34 -181t37 -338q6 29 31 82.5t67.5 114.5t95 120.5t112 101t120.5 57.5q23 6 45 6q38 0 76 -17q11 -5 28 -14t31 -27t25 -46.5t11 -71.5q-6 -154 -77.5 -279.5t-171 -211.5t-205.5 -127q-83 -33 -147 -33 q-18 0 -35 3q0 -289 5 -481.5t7 -316.5v-107.5v-78.5q-2 -62 -10 -86t-27 -22.5t-49 9.5q-6 -9 -9 14q-3 20 -4.5 74t-1.5 167q0 9 -1.5 102.5t-3 234t-5.5 310t-10 330t-14 297.5t-19 211q0 5 -3 29t-7.5 59.5t-11.5 77t-16 80.5zM158 145q12 -15 35 -20q17 -6 48.5 -3 t78.5 23q137 57 216 146t114.5 176.5t35.5 156t-26 85.5q-34 22 -66 22q-24 0 -48 -13q-53 -29 -104 -71q-26 -23 -74 -84t-95 -135t-81 -150t-34 -133z" />
<glyph unicode="q" horiz-adv-x="901" d="M92 240q12 78 50.5 170t104 184t148.5 160t184 99q55 17 113 17q48 0 98 -12q-6 -50 -14 -145t-13.5 -209.5t-10 -236.5t-4.5 -222q0 -71 -3 -172.5t-4 -214.5v-64q0 -81 1 -164q3 -116 14.5 -219.5t35.5 -187t64 -128.5q-18 -11 -45 -10t-52 10t-44.5 21t-19.5 21 q-21 0 -29.5 109.5t-9.5 296.5q-1 93 -1 200.5t1 228.5q1 242 1 508q-63 -71 -139 -132.5t-152 -93.5q-55 -23 -109 -23q-19 0 -37 3q-72 11 -118 82q-14 29 -14 72q0 24 4 52zM192 251q-3 -16 -3 -29q0 -32 13 -47q26 -42 76 -42q20 0 44 7q85 24 168 109.5t144 220.5 q53 119 53 257q0 20 -1 41q-11 1 -22 1q-65 0 -126 -31q-71 -35 -130.5 -92t-106 -130.5t-74.5 -141.5t-35 -123z" />
<glyph unicode="r" horiz-adv-x="623" d="M80 938q-3 26 28 13t65 -27q11 -68 17 -108t9 -76.5t5.5 -77.5t8.5 -110q26 69 65.5 127t99.5 99q61 40 146 60q68 16 157 16q23 0 47 -1q0 -24 -16.5 -40.5t-76.5 -25.5q-85 -14 -149 -57.5t-110.5 -100t-74.5 -120.5t-46 -117q-3 -27 -7 -76t-6 -104q0 -54 -2 -106 q0 -10 -1 -20q0 -38 5 -63q2 -14 -14.5 -21.5t-36.5 -10.5t-38.5 3t-18.5 20q1 64 1 125q1 229 -17 403q-22 222 -40 396z" />
<glyph unicode="s" horiz-adv-x="788" d="M-54 624q-3 18 -3 36q0 46 20 90q28 61 83.5 107t127.5 68q47 14 97 14q27 0 55 -4q74 -11 123.5 -32t77.5 -46.5t45 -51.5t31 -51q-3 -12 -28 2.5t-50 30.5q-65 42 -157 51q-29 3 -57 3q-59 1 -113 -13q-78 -20 -127 -68q-32 -31 -31 -71q0 -21 8 -45q23 -68 84 -118 t135.5 -91t148.5 -73.5t122 -64.5q59 34 100.5 55.5t74 41t66.5 35.5t79 38q6 3 10.5 3t0 -8t-24 -24t-60.5 -46q-20 -15 -76.5 -50.5t-123.5 -77.5q37 -33 57 -68q17 -34 25 -71q2 -11 2 -21q0 -26 -14 -53q-60 -96 -134.5 -149t-136.5 -75q-23 -8 -49 -8q-21 -1 -43 5 q-50 12 -81 48q-22 32 -22 64q0 16 6 32q16 48 55.5 95t89.5 88.5t89 74.5q-26 29 -104 72.5t-159.5 95t-147 111t-71.5 119.5zM294.5 -29.5q-14.5 -35.5 5.5 -53.5q17 -7 35 -7q19 0 40 8q41 14 78 42t65.5 62.5t36.5 60.5q9 23 -16.5 52t-51.5 46q-33 -23 -74.5 -60.5 t-72.5 -76t-45.5 -74z" />
<glyph unicode="t" horiz-adv-x="830" d="M12 757q2 14 1 28t0 22.5t12 17.5t40 16q45 12 130 13.5t165 12.5q-3 96 -6 149t-6 93.5t-4.5 79t-1.5 100.5q0 15 16 22t37 8.5t38.5 -6t23.5 -21.5q8 -26 12 -78.5t5.5 -110.5t1.5 -117t-3 -102q127 9 250.5 20t256.5 23q29 -3 38.5 -31.5t-23.5 -34.5 q-111 -11 -253 -32t-269 -53q5 -92 5 -189t4.5 -190.5t17.5 -181t44 -161.5q42 -52 83 -60q16 -3 32 -3q24 0 46 8q37 13 68.5 41t54.5 56q20 20 34 -1q4 -6 4 -13q0 -19 -28 -49q-17 -20 -44.5 -44.5t-64.5 -40.5t-83 -20l-22 -2q-37 0 -77 12q-69 17 -101.5 109t-49 215.5 t-22.5 257.5t-14 240q-131 -12 -192 -20.5t-87.5 -11.5t-35.5 3t-33 26z" />
<glyph unicode="u" horiz-adv-x="804" d="M42 998q20 0 41 -3q17 -3 35 -7.5t30 -18.5q8 -40 8 -116q0 -53 -4 -125q-10 -172 -16 -416q0 -9 1.5 -34.5t6 -55t15.5 -56.5t28 -36q4 -2 8 -3q21 0 60 54q48 65 92.5 167.5t74.5 218.5q21 82 20 149q0 27 -3 52q0 18 15.5 23t34.5 5t38.5 -3t27.5 -6q-5 -65 -15 -165 t-14 -198q-1 -24 -2 -46q0 -72 9 -132q11 -80 48 -104q15 -9 33 -9q22 0 44 13q42 24 83 59.5t73.5 63.5t41.5 20q-12 -51 -51 -99t-88 -80.5t-104 -45.5q-24 -6 -46 -6q-29 0 -54 10q-17 3 -27 34t-18 73.5t-12.5 89.5t-10.5 86q-23 -48 -53 -107.5t-59.5 -113t-56.5 -92 t-44 -44.5q-38 -15 -65 -15q-15 0 -27 5q-33 13 -44 36q-18 9 -26 61t-12 132.5t-4 181.5v206t-3 208t-9 189z" />
<glyph unicode="v" horiz-adv-x="711" d="M42 819q-6 22 -6 36q0 19 10 25q6 3 16 3q23 0 68 -16q9 0 21.5 -75.5t28.5 -184t38.5 -227.5t54.5 -207q8 -6 35 35t63 108t76 154.5t74 178.5t58 177t30 148q-3 9 8.5 4.5t27 -13.5t28.5 -21t13 -20q-34 -232 -130 -457.5t-238 -430.5q-40 -39 -74 -39t-48 32 q-21 62 -37.5 159.5t-32.5 205.5t-37 219.5t-47 205.5z" />
<glyph unicode="w" horiz-adv-x="972" d="M-12 827v117q0 20 13 34t33 22.5t37 11.5t28 3q11 3 11 -21.5t-4 -84t-10 -157.5q-2 -40 -2 -87q0 -68 5 -152q0 -42 2.5 -111.5t7 -134.5t13 -111t26.5 -43q9 0 28.5 20.5t47.5 88t68 187.5t91 319q11 42 35 25.5t36 -58.5q9 -15 35.5 -73t59 -124.5t67.5 -122t58 -57.5 q2 -1 5 -1q27 0 47 60q22 65 36 154.5t21 181.5t7 140q6 8 27 32t41 37q22 13 30 3q3 -4 3 -14q0 -17 -9 -53q0 -145 -22 -270t-53 -216.5t-67.5 -142.5t-65.5 -51h-4q-34 0 -72 46q-40 49 -75.5 111t-63.5 123t-43 83q-17 -83 -53.5 -191.5t-77.5 -203.5q-41 -94 -86 -160 q-41 -60 -77 -61q-3 0 -6 1q-36 26 -58 102t-35.5 178.5t-21 215.5t-10.5 218t-3 187z" />
<glyph unicode="x" horiz-adv-x="711" d="M-40 1028q5 31 34 31q7 0 15 -2q39 -51 73 -98t68 -97.5t72.5 -111.5t89.5 -141q33 86 56.5 160.5t36.5 168.5q5 23 33.5 11.5t45.5 -20.5q9 -20 3 -59t-19.5 -80.5t-28 -78.5t-20.5 -57q-6 -15 -14 -34.5t-13 -40.5q-9 -24 -18 -47q68 -167 130.5 -290t84.5 -185 q0 -21 -35 -8t-61 37q-36 74 -77.5 142.5t-86.5 154.5q-14 -42 -36.5 -96.5t-46 -112.5t-47.5 -114.5t-41 -104.5q-23 -29 -39.5 -36t-59.5 7q54 131 85 209t52.5 133t35.5 106t35 128q-34 45 -73.5 111.5t-79.5 133t-77 126t-63 87.5q-15 22 -15 49q-1 10 1 19z" />
<glyph unicode="y" horiz-adv-x="907" d="M-6 935q15 9 44.5 4.5t44.5 -18.5q8 0 12 -48t6.5 -122t8.5 -161.5t19 -166t35.5 -138.5t61.5 -78q13 -6 27 -6q58 0 129 109q88 135 140 438q0 3 19.5 0t40.5 -8.5t38.5 -14.5t17.5 -16q0 -45 -6 -106.5t-13 -136t-10 -157.5q-1 -41 -1 -83t1 -84q80 68 170.5 104.5 t173.5 44.5q29 -14 31 -19t-12 -17q-114 -33 -198.5 -89t-161.5 -124q0 -96 3 -205.5t3 -219.5t-1.5 -216.5t-12 -193t-30 -147t-52.5 -82.5q-23 -15 -54.5 -19t-62.5 -1.5t-59 13.5t-46 29q-56 56 -80 144t-24 191.5t24 213t63.5 211t97.5 182.5t127 126q8 161 8 315 q-29 -77 -85.5 -166t-139.5 -140q-41 -19 -77 -19q-43 0 -78 28q-65 50 -79 155q-15 121 -24.5 201t-15 152t-10 148.5t-13.5 192.5zM285 -619q-4 -39 -4 -74q0 -53 9 -99q13 -75 54 -118q35 -36 91 -36q12 0 25 2q29 6 47 68.5t26 153t9 198.5q1 36 1 71q0 70 -2 136 q-3 99 -7.5 174t-4.5 101q-17 -20 -36.5 -40t-38.5 -43q-39 -48 -74 -127.5t-60.5 -174.5t-34.5 -192z" />
<glyph unicode="z" horiz-adv-x="1068" d="M26.5 562.5q-6.5 4.5 1.5 17t37 35.5q34 17 110.5 63.5t168.5 96.5t184.5 87.5t154.5 37.5q33 2 43 -20q3 -7 4 -17q0 -23 -17 -64q-56 -151 -117 -294t-133 -276q68 26 128 56t122.5 59.5t129 59.5t146.5 56q48 0 64 5t35 -29q-108 -39 -200 -89t-179.5 -106.5 t-175.5 -114.5t-182 -106q-15 0 -31.5 8t-30 19.5t-21 23.5t-1.5 17q45 77 97 167t98 180t82.5 180.5t52.5 174.5q-3 1 -7 1q-16 -1 -54 -21q-46 -26 -117 -62.5t-161.5 -77.5t-198.5 -69q-5 0 -15.5 -1.5t-17 3z" />
<glyph unicode="{" horiz-adv-x="694" d="M54 850q113 82 158.5 154.5t53 143t-10 137t-34.5 135t-18 141t41 156.5q45 77 104 145t112 119q62 56 132 104q39 -6 65 -11q23 -6 37.5 -12.5t0.5 -15.5q-148 -96 -230 -180t-116 -163t-32.5 -153t16.5 -143.5t31 -138.5t11.5 -137t-40 -137.5t-125.5 -143.5 q99 -113 127 -211t24 -188.5t-25 -171t-25.5 -159t25 -153t131.5 -151.5q36 -29 65 -47t52 -30q26 -12 48 -19l-32 -29q-11 0 -44.5 4.5t-79 28.5t-101 73t-108.5 138q-39 59 -41.5 126t8 139.5t23.5 150t2.5 159.5t-56 167.5t-149.5 172.5z" />
<glyph unicode="|" horiz-adv-x="714" d="M270 -592q3 21 4.5 132.5t5 278.5t5 371t3 415t1.5 412t-1.5 360t-4.5 258t-10 105q65 14 104 -6t36 -71v-130.5t-1.5 -248.5t-4 -327.5t-5 -372.5t-4 -379.5t-3 -346t-1.5 -277.5v-173q0 -8 -16 -11t-37 -1.5t-41 6t-30 6.5z" />
<glyph unicode="}" horiz-adv-x="632" d="M-86 2026l29 29q12 0 44.5 -3t80.5 -24t104.5 -67t116.5 -131q42 -57 47.5 -125.5t-2.5 -141t-16.5 -151t4.5 -160.5t62.5 -165.5t159.5 -162.5q-108 -86 -150.5 -162t-47 -145.5t16 -136.5t40 -133.5t24 -141.5t-32.5 -157q-42 -80 -97.5 -151.5t-106.5 -122.5 q-60 -60 -125 -109q-39 3 -65 9q-23 6 -40 10t-2 16q145 101 221 190.5t107.5 169t27 153t-22.5 143t-37 136t-19 135t32.5 141.5t118.5 150q-105 107 -136.5 205t-31.5 187t17 172t18.5 160.5t-32.5 151.5t-138 145q-39 26 -68 42.5t-54 25.5q-26 11 -47 19z" />
<glyph unicode="~" horiz-adv-x="987" d="M175 541q24 42 57 65q29 20 72.5 27.5t105.5 -24.5q63 -33 128 -42t121.5 -6t96.5 11.5t52 16.5q14 5 29.5 6.5t24 -2.5t4 -15t-24.5 -26q-33 -20 -71.5 -39.5t-82 -31t-89.5 -10t-90 21.5q-86 39 -134 52t-73 11.5t-38.5 -14.5t-30.5 -29z" />
<glyph unicode="&#xa2;" horiz-adv-x="878" d="M97.5 762q9.5 88 39.5 174t74 160t89 109q60 42 111.5 50.5t101.5 0.5q3 -15 -23.5 -29.5t-66.5 -42.5t-87 -74.5t-87 -123.5q-42 -86 -58 -146.5t8 -144.5q8 -18 22 -31t40 -17q110 17 179.5 68t148.5 113q56 51 90 89.5t57.5 65t40 37.5t34.5 8q-9 -20 -55.5 -92 t-120.5 -154t-172 -151.5t-214 -86.5q-45 6 -74.5 11.5t-52.5 56.5q-34 62 -24.5 150zM291 1470q54 15 86.5 -3t29.5 -59q0 -33 1.5 -113t3 -188.5t3 -230.5t3 -239.5t3 -215.5t1.5 -157q0 -9 -14 -10.5t-31 0t-34 4.5t-25 6q0 23 1 121.5t0 229t-2.5 278t-4.5 273.5t-9 211 t-12 93z" />
<glyph unicode="&#xa9;" horiz-adv-x="1122" d="M123.5 667.5q-1.5 103.5 34.5 199.5q23 62 78 134.5t164 123.5q42 15 77.5 25.5t80.5 10.5q48 0 86 -11h10q6 -6 20 -10q26 -9 69.5 -29.5t91 -59.5t89.5 -101.5t59 -153.5q12 -107 -18 -203.5t-98 -170.5q-59 -71 -139.5 -108.5t-166.5 -37.5q-14 0 -29.5 2t-29.5 5 q-110 20 -188.5 64.5t-146.5 130.5q-42 86 -43.5 189.5zM137.5 644.5q-7.5 89.5 18 178.5t86.5 166t165 122q54 23 104 33t133 -4q11 -6 56 -22t97.5 -51.5t101 -101t70.5 -169.5q14 -119 -23 -218.5t-106 -167.5t-158.5 -101t-179.5 -15q-102 18 -179 62t-145 131 q-33 68 -40.5 157.5zM151 670q3 -100 39 -177q62 -77 136 -123.5t179 -60.5l28 -6t28 -3q77 0 153 37t136 99q62 74 92 165t18 192q-18 86 -57 144t-83 95t-87.5 56.5t-69.5 27.5q-15 9 -22 9q-23 6 -44 9t-39 3q-42 0 -74.5 -10.5t-73.5 -27.5q-104 -42 -155 -113t-74 -130 q-33 -86 -30 -186zM179.5 703.5q1.5 62.5 13 113t25.5 83t20 41.5q104 151 264 152q68 0 133 -25t117.5 -58t88 -70t43.5 -58q74 -193 0 -347q-36 -68 -117 -132.5t-203 -64.5h-29.5t-32.5 4q-18 3 -55 13t-80.5 34t-87.5 67t-80 114q-21 71 -19.5 133.5zM193 699 q0 -61 20 -126q29 -68 72.5 -109.5t85.5 -64t77.5 -31t53.5 -11.5q68 -12 127.5 -0.5t107 38.5t82 65.5t54.5 80.5q33 68 37.5 147.5t-37.5 184.5q-15 36 -81.5 94t-160 90.5t-198 14.5t-187.5 -137q-5 -11 -19 -44t-24 -82t-10 -110zM207 700.5q0 -59.5 19 -121.5 q29 -69 70.5 -108.5t82 -62t74.5 -31.5t52 -12q14 0 29.5 -1.5t29.5 -1.5q116 0 191.5 59.5t108.5 125.5q71 142 -3 323q-8 20 -42.5 55t-83.5 66t-110 53t-123 22q-142 0 -244 -137q-6 -8 -19 -40.5t-22.5 -80.5t-9.5 -107.5zM359.5 687q14.5 55 44.5 98t62.5 74t52.5 50 q17 3 39.5 10.5t44 6t33 -14t5.5 -41.5q-105 -20 -147.5 -82.5t-57.5 -133.5q-2 -29 5 -38.5t40 -26.5q96 5 149 45t83 106q15 -6 23.5 -12t20.5 -12q-15 -56 -65.5 -105.5t-113 -76t-123.5 -24t-95 56.5q-15 65 -0.5 120z" />
<glyph unicode="&#xad;" d="M59 581q-14 57 5 89.5t66 29.5q54 0 94 1.5t82 1.5t92 1.5t127 4.5q9 0 12.5 -11.5t2 -27.5t-6 -31t-8.5 -21q-33 3 -103.5 1.5t-148 -6t-140 -12t-74.5 -20.5z" />
<glyph unicode="&#xae;" horiz-adv-x="1377" d="M165.5 704q-4.5 121 36.5 237q29 77 96 163t201 146q48 20 89 32.5t98 12.5q39 0 104 -15h6q9 -8 26 -13q34 -11 87.5 -34.5t108 -71t103.5 -120t69 -183.5q18 -127 -19 -244.5t-120 -203.5q-71 -85 -166 -130t-193 -45q-40 0 -74 9q-134 23 -227.5 78t-170.5 156 q-50 105 -54.5 226zM182.5 674.5q-7.5 107.5 22.5 214t101 198.5t196 145q62 30 126 40t159 -5q12 -8 67 -25.5t119 -62.5t123.5 -120.5t82.5 -200.5q14 -142 -31.5 -261t-127.5 -202t-187 -120t-212 -20q-122 23 -215.5 77t-176.5 155q-39 80 -46.5 187.5zM196 705.5 q3 -116.5 50 -209.5q72 -96 161 -149t214 -74q14 -3 33.5 -6t37.5 -3q91 0 181 43.5t158 120.5q77 85 111 194t19 231q-17 104 -63.5 173.5t-100 114t-103.5 67t-81 33.5q-23 9 -31 9q-45 12 -96 12t-91 -10.5t-85 -30.5q-124 -54 -188 -137.5t-90 -156.5 q-39 -105 -36 -221.5zM233.5 746.5q1.5 75.5 14.5 135t29.5 100t25.5 52.5q62 91 142 134.5t176 43.5q79 0 157 -29.5t140 -70t103.5 -83.5t52.5 -69q96 -229 0 -416q-20 -42 -54 -83.5t-83.5 -75.5t-110 -55t-134.5 -21h-37.5t-36.5 3q-24 6 -68.5 16t-94.5 39.5t-104 82 t-93 139.5q-26 82 -24.5 157.5zM249 743.5q0 -72.5 24 -151.5q39 -80 89.5 -131t99 -79t92 -39t67.5 -14q79 -14 149.5 1t126.5 47.5t98 78.5t65 96q42 77 48 175t-48 223q-12 26 -51.5 68t-100.5 82t-136 68t-154.5 28t-158.5 -37.5t-144 -133.5q-9 -14 -25.5 -53.5 t-28.5 -97.5t-12 -130.5zM262.5 745q-1.5 -71 23.5 -148q39 -79 87.5 -127t95.5 -75t89 -37t63 -13q20 0 36.5 -3.5t34.5 -3.5q68 0 124.5 21t101.5 52t77.5 69.5t52.5 77.5q48 86 45 179.5t-45 206.5q-11 26 -51.5 66.5t-99.5 77.5t-130.5 64t-145.5 27q-179 0 -292 -164 q-9 -9 -24.5 -47.5t-28 -95t-14 -127.5zM434 969l8 5q21 15 27.5 18t29.5 17h3q26 6 34 -11.5t8 -23.5v-2q29 14 60 20t56 6q59 0 121.5 -21t71.5 -62q20 -71 -15.5 -105t-80.5 -56q-15 -6 -26.5 -16t-27.5 -16q23 -6 41.5 -12.5t34.5 -6.5q23 0 42.5 9.5t39.5 15.5 q26 12 83 26h3h6q50 -14 67 -23t17 -34v-14l-15 -3q-39 -12 -104 -26q-60 -20 -118 -34t-114 -14q-26 0 -45.5 3t-40.5 15q3 -27 3 -40.5t-3 -61.5v-52l-24 6q-6 2 -19 1t-28 -7q-8 -3 -16 -6.5t-14 -3.5q-12 0 -21 10q-8 8 -8 26v12q0 39 1.5 101t0 126t-9.5 123.5 t-26 94.5zM451 963q20 14 26.5 17t30.5 12q11 3 14 -3t5 -13t5 -16.5t12 -9.5q36 23 83 29.5t93 -2t80 -27t41 -41.5q12 -45 -3.5 -73t-43.5 -46.5t-62.5 -34t-57.5 -36.5q54 -23 89.5 -25t64 5t55 19.5t64.5 18.5q53 -15 62 -19.5t9 -20.5q-51 -11 -112.5 -32t-121 -34 t-113 -11.5t-90.5 34.5q0 -29 1.5 -43t1.5 -24.5v-29.5v-64q-14 3 -31.5 -1.5t-32.5 -10t-24 -4.5t-9 19q0 39 1.5 101.5t-1.5 129t-10 130.5t-26 106zM470 953q14 -42 21.5 -101t9 -121.5t0 -121.5t-1.5 -101v-15q3 0 8.5 1.5t11.5 1.5q20 12 51 12v14q3 48 3 61.5t-3 40.5 l-6 65l28 -23q29 -29 94 -31q54 0 110.5 14t112.5 31q60 20 91 23q-5 6 -18 8t-35 8q-23 -6 -40 -11t-34 -11q-23 -5 -44 -14t-50 -9q-45 0 -111 26l-21 9l19 19q33 33 76 51q48 26 72 51.5t8 75.5q-6 21 -53 42t-109 21q-23 0 -53.5 -6.5t-54.5 -27.5h-8h-6q-15 0 -21.5 14 t-6.5 23v8q-14 -8 -20 -12t-20 -15zM544 837.5q0 26.5 3 58.5l5 10l24 9q26 6 50.5 11.5t50.5 5.5q42 0 83 -26q20 -14 23.5 -26.5t3.5 -21.5q-5 -23 -29 -44t-58 -37.5t-68.5 -26.5t-55.5 -13l-12 -6l-3 14q-17 66 -17 92.5zM558 838q0 -22 15 -90q29 6 71 22.5t74.5 37 t46.5 44.5t-14 41q-45 34 -90.5 24.5t-96.5 -24.5q-6 -33 -6 -55zM573 837q0 -21 11 -71q54 14 110.5 43t62.5 52q0 6 -1.5 9t-13.5 9q-33 23 -74.5 22t-86.5 -17h-5q-3 -26 -3 -47z" />
<glyph unicode="&#xb0;" horiz-adv-x="377" d="M87 1662.5q-1 29.5 1.5 56.5t10.5 41q11 37 51 65t91 22q23 0 45.5 -18t22.5 -69q-3 -33 -6 -65t-15 -60t-37 -48t-73 -22q-5 0 -19 1t-29 7q-20 12 -31 36t-12 53.5zM134.5 1667.5q6.5 -34.5 35.5 -49.5q26 -14 47 12.5t29.5 65t4 72.5t-30.5 37q-29 6 -52 -15.5 t-31.5 -54.5t-2 -67.5z" />
<glyph unicode="&#xd7;" horiz-adv-x="1071" d="M280 924q-9 8 0 20t23.5 25.5t29.5 23.5t24 13q11 -14 42.5 -42.5t74 -64t92 -76.5t100.5 -81q118 -95 258 -204q-34 -62 -79.5 -74.5t-87.5 29.5q-105 91 -220 198.5t-257 232.5zM343.5 465q-5.5 40 36.5 82q85 104 186.5 224.5t223.5 268.5q9 8 19 4t19.5 -15t17 -24 t10.5 -19q-27 -29 -98.5 -115.5t-147 -182.5t-136.5 -178t-74 -100q-51 15 -56.5 55z" />
<glyph unicode="&#xf7;" horiz-adv-x="839" d="M71 555q-14 48 8.5 75t71.5 27h266t311 6q12 0 14.5 -9.5t1 -22.5t-7 -26t-8.5 -21q-36 3 -135.5 0t-209.5 -8.5t-202.5 -11.5t-109.5 -9zM356.5 401q-5.5 18 0.5 35q8 21 26.5 39t47.5 12q11 0 30.5 -15t19.5 -36q0 -26 -12 -50t-53 -24q-6 0 -12.5 1.5t-17.5 7.5 q-24 12 -29.5 30zM356.5 795q-5.5 18 0.5 36q8 20 26.5 38t47.5 15q11 -5 30.5 -16.5t19.5 -36.5q0 -29 -12 -51.5t-53 -22.5q-6 3 -12.5 1.5t-17.5 4.5q-24 14 -29.5 32z" />
<glyph unicode="&#x2dc;" horiz-adv-x="1355" d="M164 1720q29 50 71 82q36 26 92 35.5t133 -32.5q79 -39 161 -50.5t154 -8.5t122 15t66 18q17 9 36 10.5t30 -4.5t6.5 -18.5t-32.5 -32.5q-42 -26 -90.5 -51.5t-103.5 -39t-111.5 -12t-113.5 28.5q-110 48 -168.5 65.5t-91.5 14.5t-51 -19t-38 -35z" />
<glyph unicode="&#x2000;" horiz-adv-x="1094" />
<glyph unicode="&#x2001;" horiz-adv-x="2188" />
<glyph unicode="&#x2002;" horiz-adv-x="1094" />
<glyph unicode="&#x2003;" horiz-adv-x="2188" />
<glyph unicode="&#x2004;" horiz-adv-x="729" />
<glyph unicode="&#x2005;" horiz-adv-x="547" />
<glyph unicode="&#x2006;" horiz-adv-x="364" />
<glyph unicode="&#x2007;" horiz-adv-x="364" />
<glyph unicode="&#x2008;" horiz-adv-x="273" />
<glyph unicode="&#x2009;" horiz-adv-x="437" />
<glyph unicode="&#x200a;" horiz-adv-x="121" />
<glyph unicode="&#x2010;" d="M59 581q-14 57 5 89.5t66 29.5q54 0 94 1.5t82 1.5t92 1.5t127 4.5q9 0 12.5 -11.5t2 -27.5t-6 -31t-8.5 -21q-33 3 -103.5 1.5t-148 -6t-140 -12t-74.5 -20.5z" />
<glyph unicode="&#x2011;" d="M59 581q-14 57 5 89.5t66 29.5q54 0 94 1.5t82 1.5t92 1.5t127 4.5q9 0 12.5 -11.5t2 -27.5t-6 -31t-8.5 -21q-33 3 -103.5 1.5t-148 -6t-140 -12t-74.5 -20.5z" />
<glyph unicode="&#x2012;" d="M59 581q-14 57 5 89.5t66 29.5q54 0 94 1.5t82 1.5t92 1.5t127 4.5q9 0 12.5 -11.5t2 -27.5t-6 -31t-8.5 -21q-33 3 -103.5 1.5t-148 -6t-140 -12t-74.5 -20.5z" />
<glyph unicode="&#x2013;" horiz-adv-x="1249" d="M102 493q-15 57 5.5 89.5t67.5 29.5q54 0 177.5 1.5t264 1.5t274.5 1.5t211 4.5q9 0 11.5 -12t1.5 -28.5t-5.5 -31t-7.5 -20.5q-20 0 -100.5 1.5t-189.5 -2t-230.5 -6.5t-225.5 -6t-175 -10t-79 -13z" />
<glyph unicode="&#x2014;" horiz-adv-x="1935" d="M130 463q-14 56 7 88.5t67 29.5q37 0 154.5 1.5t276 1.5h340t346 2.5t290.5 2.5t177 3q9 0 11.5 -12.5t2.5 -28.5t-4 -31t-7 -21q-15 0 -94 1.5t-198 0t-264 -3t-295 -3t-292.5 -4.5t-255 -7.5t-184.5 -8.5t-78 -11z" />
<glyph unicode="&#x2018;" horiz-adv-x="397" d="M104 1524q12 68 22 129t16 122t3 126t-15 145q24 20 34 24t43 4q26 -6 32.5 -28.5t6.5 -56.5q-5 0 -6.5 -50t-3 -120t-4.5 -147t-14 -134q-18 -11 -58.5 -20.5t-55.5 6.5z" />
<glyph unicode="&#x2019;" horiz-adv-x="445" d="M148 1518q12 68 22.5 129t16.5 122t3 126t-15 145q24 20 34 23t43 3q26 -6 32.5 -27.5t6.5 -54.5q-5 0 -6.5 -51t-3 -120.5t-5 -146.5t-15.5 -133q-17 -12 -57 -21.5t-56 6.5z" />
<glyph unicode="&#x201c;" horiz-adv-x="598" d="M73 2034.5q-1 23.5 23 31.5q29 6 37.5 4.5t39.5 -15.5q8 -83 24 -151t37 -130.5t48 -122t56 -127.5q-9 -17 -47.5 -15t-55.5 12q-23 54 -48.5 132t-46.5 150.5t-36.5 123.5t-20.5 51q-9 33 -10 56.5zM312 1972q20 26 46 14.5t49 -34.5q12 -54 37.5 -110.5t44.5 -106 t29.5 -83.5t-5.5 -42q-29 -9 -58.5 29.5t-56.5 98t-51 124.5t-35 110z" />
<glyph unicode="&#x201d;" horiz-adv-x="548" d="M113 1757q26 48 45.5 104.5t37 107.5t34 83.5t34.5 32.5q26 -11 24 -60.5t-22 -112t-46.5 -127.5t-46.5 -107q-34 -6 -45.5 20t-14.5 59zM220 1524q48 68 81.5 129t59 120.5t45 122t42.5 133.5q9 2 22.5 -5t25.5 -18t20.5 -22.5t12.5 -20.5q-17 -59 -52 -134 t-67.5 -141.5t-56.5 -115t-18 -51.5q-15 -33 -30 -50.5t-38 -8.5q-26 14 -32 21.5t-15 40.5z" />
<glyph unicode="&#x2022;" horiz-adv-x="896" d="M198.5 615q-11.5 36 3.5 71q11 42 46 74.5t94 26.5q26 -3 63 -31t37 -70q0 -54 -26.5 -98t-103.5 -44q-6 3 -21 3t-33 8q-48 24 -59.5 60z" />
<glyph unicode="&#x202f;" horiz-adv-x="437" />
<glyph unicode="&#x205f;" horiz-adv-x="547" />
<glyph unicode="&#x2122;" horiz-adv-x="658" d="M-151 1714q-11 29 0 59q39 0 74 10.5t70.5 23.5t74.5 26.5t80 19.5q9 -17 18 -21.5t16.5 -15.5t13.5 -36.5t14 -84.5q29 51 40 75t30 57q11 15 43 0q6 -23 21.5 -66.5t47.5 -91.5q23 3 35 16t19.5 31t12 37.5t14.5 37.5q8 23 15.5 26t30.5 -18q9 -50 31.5 -105.5 t64.5 -69.5q6 -26 1.5 -33.5t-19.5 -20.5q-33 -5 -47.5 7t-25.5 28t-19.5 34t-23.5 30q-50 -96 -93 -82t-82 118q-12 21 -21 5.5t-16.5 -46.5t-15 -68t-9.5 -63q-24 -12 -27.5 -10.5t-32.5 -1.5q-9 33 -10 84.5t-7 96t-28.5 65.5t-73.5 -7q12 -45 15 -86t8 -70 q18 -86 10.5 -120.5t-30.5 -34.5q-14 95 -26.5 160.5t-35.5 130.5q-42 -3 -73.5 -17.5t-83.5 -8.5z" />
<glyph unicode="&#x25fc;" horiz-adv-x="1054" d="M0 0v1054h1054v-1054h-1054z" />
</font>
</defs>
</svg>
