<?xml version="1.0" encoding="UTF-8" standalone="no"?>
<svg width="256px" height="256px" viewBox="0 0 256 256" version="1.1" xmlns="http://www.w3.org/2000/svg" xmlns:xlink="http://www.w3.org/1999/xlink" style="background: #2196F3;">
    <!-- Generator: Sketch 47.1 (45422) - http://www.bohemiancoding.com/sketch -->
    <title>icasei-256x256</title>
    <desc>Created with Sketch.</desc>
    <defs></defs>
    <g id="Page-1" stroke="none" stroke-width="1" fill="none" fill-rule="evenodd">
        <g id="256x256" fill="#FFFFFF">
            <g id="A/iCasei/White" transform="translate(40.960000, 97.280000)">
                <g id="A/iCasei">
                    <path d="M147.294174,29.0971954 C148.613627,29.0971954 149.924578,30.0753645 149.924578,33.4132434 C149.924578,37.5527988 145.248399,43.07108 141.96677,43.07108 C141.96677,38.9948593 142.346509,29.0971954 147.294174,29.0971954 M82.1374085,55.9601118 C78.4309818,55.9601118 76.0046169,50.8412613 76.0046169,42.7411767 C76.0046169,35.2170154 78.5505713,30.5519229 82.1374085,30.5519229 C85.0316463,30.5519229 87.6935062,34.4865553 87.6935062,43.1893048 C87.6935062,50.5254324 85.3615094,55.9601118 82.1374085,55.9601118 M167.558373,27.8378202 C164.233669,27.8378202 162.909965,30.4142755 163.339298,33.1736976 C164.65705,41.6411235 158.521992,56.2061319 149.838711,56.2061319 C144.318604,56.2061319 141.992558,52.7933773 141.992558,45.4319158 C147.62177,45.4319158 155.232428,39.7807725 155.232428,33.7893107 C155.232428,29.9686807 152.276979,27.0302326 146.75347,27.0302326 C140.212884,27.0302326 133.095037,34.042931 133.095037,43.6669891 C133.095037,44.6707736 133.170418,45.6323349 133.309278,46.5542065 C133.248633,46.7430846 131.662796,51.55821 126.933057,55.0038987 C128.036851,53.4317909 128.165226,52.2264614 128.165226,50.5547071 C128.165226,43.4285692 114.920822,35.8855483 114.920822,29.1695377 C114.920822,26.3678925 117.460825,24.3248561 117.460825,21.6650806 C117.460825,18.6286748 115.792522,17.1818289 113.520037,17.1818289 C110.472487,17.1818289 108.988669,19.5542057 108.988669,23.2400032 C108.988669,25.5172372 109.994412,28.2015021 111.355806,31.0625412 C107.54736,42.7879036 100.688529,52.5071045 98.5021935,52.5071045 C95.5059362,52.5071045 97.8342489,41.1389497 97.8342489,35.4109603 C97.8342489,30.4435502 96.6746267,27.6376826 93.2836104,27.6376826 C90.3420469,27.6376826 88.6553238,30.0320154 88.6553238,33.7921256 C88.6553238,30.0320154 84.9012879,26.997017 80.356884,26.997017 C72.1063368,26.997017 66.7982033,34.4966889 66.7982033,43.1893048 C66.7982033,43.5375048 66.8061381,43.8800751 66.8186072,44.2187046 C65.0593368,51.6789682 57.6538515,57.5944283 50.6799655,57.5944283 C40.2609362,57.5944283 35.1656267,47.410773 35.1656267,30.2496053 C35.1656267,16.3722708 41.4262261,3.22201868 50.9616528,3.22201868 C58.698985,3.22201868 60.245998,11.4301946 60.245998,14.1693496 C60.245998,18.0395214 62.7341414,19.1727901 64.8439622,19.1727901 C67.379998,19.1727901 69.098744,16.9146973 69.098744,14.7120575 C69.098744,9.76463295 63.6219948,0.000112595005 51.8055811,0.000112595005 C34.4415713,0.000112595005 24.7964736,14.1693496 24.7964736,31.0687339 C24.7964736,31.4974394 24.8063922,31.9289598 24.8259459,32.3618876 C24.7837212,44.4965328 22.677301,55.2586449 16.0621837,55.2366889 C12.2679068,55.2243034 9.20618697,51.5725659 9.20618697,41.6656129 C9.20618697,37.9100065 10.4564932,34.6073135 10.4564932,32.5856701 C10.4564932,31.1278463 9.84749316,27.8411981 6.38421303,27.8411981 C2.3119329,27.8411981 5.66775244e-05,31.8833588 5.66775244e-05,38.7432095 C5.66775244e-05,48.9704953 6.20057785,58.863937 14.892643,58.8929302 C20.3214997,58.9106639 25.96063,54.8307839 27.5555355,43.9462247 C31.5342977,53.1688816 39.5927081,60.8166159 50.2580013,60.8166159 C60.1448287,60.8166159 65.7340827,54.1926517 67.7146788,49.8203061 C69.5617993,55.8748211 74.0826821,59.381311 80.142643,59.381311 C85.6961902,59.381311 89.4315225,52.6399666 89.4315225,48.2802879 C89.4315225,54.8037611 91.5353922,58.8929302 95.574516,58.8929302 C104.640086,58.8929302 111.882623,38.1168998 113.078236,34.4882442 C115.728477,39.5817608 118.689027,44.9356533 118.689027,49.394134 C118.689027,53.1241251 117.308646,54.6897586 114.516711,54.6897586 C112.665907,54.6897586 110.955379,53.7701389 110.955379,52.0187236 C110.955379,51.3876286 110.482689,51.0723626 109.878223,51.0723626 C109.043646,51.0723626 108.496708,52.0007084 108.496708,53.1041395 C108.496708,56.1278783 111.338803,60.1427347 119.610321,60.1427347 C125.71364,60.1427347 130.614262,57.7700765 134.689943,51.1261267 C137.238164,56.4341368 142.614311,59.4803946 149.166516,59.4803946 C157.22606,59.4803946 164.147803,50.8657508 164.984079,42.9430032 C164.886594,46.351254 163.550988,56.6475043 163.550988,57.3906313 C163.550988,58.1011058 163.963601,58.8929302 165.03849,58.8929302 C168.691073,58.8929302 173.766262,47.4895895 173.766262,39.0804315 C173.766262,31.6204495 171.350949,27.8378202 167.558373,27.8378202" id="Fill-1"></path>
                    <path d="M8.3245114,22.0732093 C10.8118046,22.0732093 12.8283909,20.0707071 12.8283909,17.5998097 C12.8283909,15.1289124 10.8118046,13.1261287 8.3245114,13.1261287 C5.83750163,13.1261287 3.82063192,15.1289124 3.82063192,17.5998097 C3.82063192,20.0707071 5.83750163,22.0732093 8.3245114,22.0732093" id="Fill-4"></path>
                    <path d="M165.321112,22.0732093 C167.808689,22.0732093 169.824992,20.0707071 169.824992,17.5998097 C169.824992,15.1289124 167.808689,13.1261287 165.321112,13.1261287 C162.834103,13.1261287 160.817233,15.1289124 160.817233,17.5998097 C160.817233,20.0707071 162.834103,22.0732093 165.321112,22.0732093" id="Fill-6"></path>
                </g>
            </g>
        </g>
    </g>
</svg>