<?xml version="1.0" encoding="utf-8"?>
<!-- Generator: Adobe Illustrator 16.0.0, SVG Export Plug-In . SVG Version: 6.00 Build 0)  -->
<!DOCTYPE svg PUBLIC "-//W3C//DTD SVG 1.1//EN" "http://www.w3.org/Graphics/SVG/1.1/DTD/svg11.dtd">
<svg version="1.1" id="Layer_1" xmlns="http://www.w3.org/2000/svg" xmlns:xlink="http://www.w3.org/1999/xlink" x="0px" y="0px"
	 width="96.884px" height="35.254px" viewBox="0 0 96.884 35.254" enable-background="new 0 0 96.884 35.254" xml:space="preserve">
<g id="Lettering_4_">
	<path fill="#49A1DE" d="M6.388,13.743c1.82,0,3.48-1.612,3.48-3.383c0-1.321-1.016-2.318-2.364-2.318
		c-1.763,0-3.431,1.67-3.431,3.435C4.073,12.812,5.025,13.743,6.388,13.743z"/>
	<path fill="#49A1DE" d="M95.466,27.19h-0.064c-0.723,0.033-1.143,0.736-1.627,1.553c-0.204,0.342-0.434,0.729-0.707,1.104
		c-0.514,0.701-1.943,2.336-4.184,2.336c-0.668,0-1.254-0.244-1.696-0.711c-0.479-0.502-0.729-1.211-0.693-1.943
		c0.153-3.064,0.97-6.002,1.748-8.469c0.224-0.709,0.054-1.495-0.478-2.216c-0.577-0.79-1.49-1.363-2.17-1.363
		c-1.42,0-1.887,1.539-2.271,3.261c-0.553,2.446-1.32,6.829-1.32,8.692c0,0.145,0.008,0.287,0.019,0.449
		c-1.448,1.391-3.354,2.174-5.821,2.385c-0.205,0.02-0.416,0.027-0.624,0.027c-1.853,0-3.3-0.674-3.7-0.879
		c-1.935-1.002-2.426-2.506-2.55-3.129c0.228,0.029,0.572,0.062,1.009,0.062c1.004,0,2.59-0.18,4.418-1.016
		c2.727-1.24,4.806-3.734,4.846-5.799c0.021-1.074-0.314-1.973-0.991-2.662c-0.86-0.879-2.248-1.362-3.907-1.362
		c-5.248,0-9.678,4.663-9.678,10.181c0,1.373,0.458,2.688,1.326,3.811c-0.398,0.295-0.832,0.518-1.286,0.648
		c-0.41,0.125-0.798,0.188-1.152,0.188c-1.29,0-1.843-0.812-1.997-1.098c0.172-0.314,0.615-1.252,0.5-2.387
		c-0.285-2.852-2.955-3.77-5.101-4.506c-1.681-0.572-3.132-1.066-3.132-2.266c0-1.211,1.668-2.188,3.048-2.188
		c1.368,0,2.528,0.774,2.967,1.541c0.104,0.185,0.194,0.366,0.284,0.541c0.395,0.779,0.768,1.519,1.812,1.519
		c1.303,0,1.729-1.188,1.729-1.763c0-1.131-0.644-2.065-1.028-2.523c-1.039-1.241-2.646-1.87-4.775-1.87
		c-3.881,0-8.006,1.994-8.006,5.695c0,1.529,0.857,2.926,2.295,3.73c0.93,0.521,2,0.855,3.035,1.176
		c1.729,0.537,3.221,0.998,3.221,2.133c0,1.387-1.988,2.311-3.307,2.311c-1.461,0-3.201-0.84-3.543-2.389
		c-0.016-0.078-0.025-0.178-0.033-0.283c-0.058-0.566-0.164-1.621-1.27-1.621c-1.036,0-2.011,1.826-2.011,2.928
		c0,0.35,0.055,0.686,0.159,1.006c-0.464,0.211-0.901,0.32-1.301,0.32c-1.586,0-2.298-1.119-2.298-2.225
		c0-1.512,0.879-4.924,1.583-7.666c0.484-1.886,0.867-3.372,0.867-3.85c0-0.714-0.614-1.166-1.181-1.173h-0.053
		c-0.781,0-1.788,0.209-2.272,0.802c-0.439,0.537-0.703,1.25-0.844,1.745c-0.552-0.88-1.922-2.542-4.383-2.542
		c-4.585,0-8.605,5.133-8.605,10.987c0,0.094,0.002,0.18,0.004,0.271c-1.374,1.312-3.264,3.062-7.016,3.062
		c-3.556,0-7.711-2.363-7.711-9.025c0-1.272,0.253-2.54,0.499-3.768c0.041-0.207,0.083-0.419,0.125-0.626
		c1.08-5.1,5.864-14.628,12.531-14.628c2.152,0,3.578,1.693,3.712,3.332c0.021,0.272,0.021,0.561,0.02,0.864
		c0,0.726-0.003,1.549,0.326,2.333c0.375,0.897,1.28,1.222,1.801,1.222c1.875,0,2.554-2.416,2.554-4.042
		c0-3.841-3.708-7.21-7.938-7.21c-4.688,0-9.272,2.563-12.91,7.215C12.97,11.641,11,16.942,11,21.598
		c0,2.297,0.097,4.549,1.231,6.84c-0.06,0.098-0.12,0.197-0.182,0.303c-0.203,0.342-0.433,0.729-0.708,1.104
		c-0.511,0.703-1.941,2.338-4.181,2.338c-0.665,0-1.254-0.246-1.697-0.713c-0.479-0.502-0.73-1.211-0.694-1.943
		c0.152-3.064,0.969-6,1.747-8.468c0.224-0.709,0.055-1.493-0.476-2.215c-0.579-0.792-1.492-1.363-2.167-1.363
		c-1.421,0-1.888,1.54-2.276,3.261c-0.551,2.448-1.319,6.829-1.319,8.694c0,3.518,2.245,5.613,6.004,5.613
		c2.628,0,4.964-1.09,6.938-3.244c0.175-0.188,0.414-0.512,0.665-0.891c2.236,2.584,5.442,4.061,8.846,4.061
		c1.338,0,4.128-0.258,6.09-1.221c0.82-0.408,1.623-0.92,2.385-1.533c0.992,1.809,2.591,2.799,4.535,2.799
		c2.711,0,4.811-1.994,5.438-2.664c0.553,0.693,2.414,2.693,5.572,2.693c1.381,0,2.646-0.352,3.771-1.037
		c1.323,0.752,3.067,1.025,4.288,1.025c2.292,0,3.977-0.914,4.453-1.207c0.441,0.305,1.955,1.219,4.179,1.219
		c1.765,0,3.396-0.682,4.614-1.93c1.75,1.229,4.104,1.93,6.5,1.93c2.902,0,5.933-0.98,8.166-2.631
		c0.959,1.699,2.824,2.631,5.285,2.631c2.631,0,4.965-1.09,6.941-3.244c0.467-0.506,1.812-2.527,1.812-3.383
		C96.763,27.829,96.267,27.19,95.466,27.19z M39.09,30.825c-0.838,0.85-1.736,1.299-2.599,1.299c-1.836,0-2.033-2.465-2.033-3.527
		c0-3.004,2.551-7.973,5.46-7.973c1.439,0,1.976,1.735,1.997,3.217C41.951,26.151,40.733,29.157,39.09,30.825z M69.255,25.799
		c0.004-1.131,0.571-2.574,1.48-3.766c0.979-1.283,2.152-2.021,3.229-2.029l0.017-0.228v0.228c0.585,0,1.032,0.168,1.336,0.498
		c0.347,0.381,0.494,0.98,0.424,1.74c-0.19,2.083-3.411,3.698-6.055,3.698c-0.148,0-0.292-0.006-0.431-0.018V25.799L69.255,25.799
		L69.255,25.799z"/>
	<path fill="#49A1DE" d="M88.114,13.743c1.823,0,3.48-1.612,3.48-3.383c0-1.321-1.017-2.318-2.361-2.318
		c-1.768,0-3.436,1.67-3.436,3.435C85.798,12.812,86.751,13.743,88.114,13.743z"/>
</g>
</svg>
