<?xml version="1.0" standalone="no"?>
<!DOCTYPE svg PUBLIC "-//W3C//DTD SVG 1.1//EN" "http://www.w3.org/Graphics/SVG/1.1/DTD/svg11.dtd" >
<svg xmlns="http://www.w3.org/2000/svg" xmlns:xlink="http://www.w3.org/1999/xlink" version="1.1">
<metadata></metadata>
<defs>
<font id="adobe_jenson_probold" horiz-adv-x="1073" >
<font-face units-per-em="2048" ascent="1475" descent="-573" />
<missing-glyph horiz-adv-x="425" />
<glyph unicode="&#xfb01;" horiz-adv-x="1112" d="M70 27.5q0 11.5 1 21.5t3 10q43 12 58 22.5t20 33.5q8 31 14 170q0 33 1 79t1 97v104v105l-53 10q-14 4 -21.5 9t-9.5 28q16 16 36.5 34.5t41.5 36.5q10 10 10 27q2 66 6 114t14.5 87t31 74.5t52.5 78.5q25 29 60 60t71.5 56.5t70.5 46t57 30.5q49 23 84.5 30t48.5 7 q68 0 125 -22.5t84 -47.5q14 -10 20 -24.5t6 -26.5q0 -29 -18 -53q-8 -10 -22.5 -23.5t-30 -26t-31 -20.5t-25.5 -8t-20.5 5t-18.5 9q-18 12 -39.5 31.5t-47 38t-54.5 32t-57 13.5q-49 0 -76 -49q-18 -35 -29.5 -92.5t-17.5 -119t-7 -117.5t-1 -89q0 -12 10 -16.5t43 -4.5 h168q96 0 185 5.5t140 25.5q23 12 19 -16q-4 -55 -7 -122t-5.5 -129.5t-2.5 -115.5v-84q0 -63 2.5 -121.5t6.5 -95.5q2 -41 22.5 -51t93.5 -10q10 0 11 -19v-22.5t-2 -32.5q-113 -2 -218.5 -3t-214.5 -5v51q0 12 21 20q23 10 32 20.5t13 45.5q2 33 4 77t3 93t1 102.5v102.5 q0 45 -1 73.5t-3 45t-6 24.5t-10 15q-10 14 -25.5 19t-60.5 5h-199q-8 0 -17.5 -13.5t-7.5 -39.5q-4 -20 -5 -75.5t-1 -133.5q0 -51 1 -85t2 -57.5t3.5 -41t2.5 -35.5q2 -41 5 -64.5t14 -36t34.5 -19.5t66.5 -15q2 -4 1 -15.5t-4 -23t-7 -20.5t-8 -9q-10 0 -33.5 -1 t-58.5 -1h-101q-92 0 -155.5 -2t-85.5 -2q-2 0 -3 10t-1 21.5z" />
<glyph unicode="&#xfb02;" horiz-adv-x="1114" d="M51 41.5q-2 7.5 0 17.5q35 8 54.5 16.5t30.5 17.5t14.5 20.5t5.5 27.5q4 31 6 83t2 116v272q0 35 -5 45.5t-28 14.5l-41 8q-33 4 -20 29l24 36q4 10 32 18.5t42 16.5v49.5t2 38.5q4 74 11 122t19.5 83t31 62.5t47.5 60.5q20 25 49.5 48.5t63.5 44t68 39t60 30.5 q35 16 71 25.5t77 9.5q37 0 68.5 -5.5t70.5 -21.5q12 2 31.5 10t42 18.5t47 18.5t43.5 12q6 0 12 -8q4 -4 4 -8t-2 -20q-6 -37 -11 -102.5t-9 -154t-6.5 -197t-2.5 -226.5q0 -170 1 -318.5t1 -243.5q0 -63 35 -63q8 0 38 -3t42 -3q6 0 13.5 -4t7.5 -17q2 -16 3 -31.5 t-3 -29.5h-107q-37 0 -86 -1t-99 -3t-96.5 -4t-72.5 -4q-4 10 -6 21t-4 26q0 12 6 16t10 6q35 14 52.5 30.5t21.5 61.5q10 78 11 178.5t1 196.5v69t-4 60q-2 31 -55 31h-187q-45 0 -56 -10.5t-15 -16.5t-7.5 -24.5t-5.5 -57.5t-3 -101t-1 -157q0 -53 1 -109.5t3 -78.5 q4 -29 16.5 -35t69.5 -6q6 0 12.5 -8t6.5 -19q0 -35 -3 -49t-14 -12q-27 2 -51 2h-53h-64.5h-85.5q-90 0 -117.5 -1t-35.5 -1q-10 0 -14.5 8t-6.5 14q-2 16 -4 23.5zM406 815q0 -20 3 -24.5t19 -4.5h266q18 0 24.5 4.5t6.5 8.5v104.5v114.5v98t-2 55q-2 25 -6 36.5t-12 17.5 q-41 35 -75 47t-83 12q-29 0 -46.5 -11t-33.5 -38q-18 -31 -30.5 -84t-18.5 -113.5t-9 -120t-3 -102.5z" />
<glyph unicode="&#xfb03;" horiz-adv-x="1712" d="M28 55.5q-1 10.5 1 12.5q20 4 43.5 9t42 12t32 18.5t15.5 29.5q4 37 6 96.5t2 155.5v136t-1 77t-2 36t-3 15q-4 10 -17.5 15.5t-60.5 11.5l-12 12t-6 8l-15 39q41 20 80 37t39 29q0 129 34 212t109 150q43 39 100.5 76t123.5 66q33 12 69.5 19t79.5 7q76 0 131 -23.5 t94 -58.5q27 23 59 46.5t83 50.5q47 25 100 42t115 17q59 0 115.5 -22.5t76.5 -45.5q25 -23 25 -53q0 -27 -19 -53q-8 -10 -22 -24.5t-29.5 -28t-32 -22.5t-28.5 -9q-8 0 -18.5 5t-18.5 9q-18 12 -41 33t-49.5 40t-54 34.5t-56.5 15.5t-48 -10t-36 -41q-16 -31 -26.5 -83 t-15.5 -112.5t-7 -122t-2 -110.5q0 -20 33 -21h256q29 0 66.5 1.5t76.5 4.5t76 9t61 16q4 2 13.5 -4t7.5 -12q-6 -55 -9 -122t-4 -129.5t-2.5 -115.5t-1.5 -84q0 -63 2.5 -114.5t4.5 -85.5q2 -41 24.5 -53.5t95.5 -16.5q10 0 11 -25v-28.5t-2 -28.5q-115 -2 -221.5 -3 t-217.5 -5v39q0 20 4.5 26t16.5 11q20 8 31.5 20t15.5 47q2 33 4 76t3 89t1 91v84v84t-2 48.5t-7 26.5t-13 17q-16 14 -38 23.5t-63 9.5h-188q-29 0 -39 -20q-4 -39 -4 -102.5v-137.5v-85t1 -57.5t2 -41t1 -35.5q2 -41 6 -62.5t16.5 -34t37 -19.5t67.5 -15q0 -6 -1 -18.5 t-4 -26t-7 -22.5t-11 -9q-10 0 -33.5 1t-56.5 1h-102q-92 0 -154.5 -2t-87.5 -2q-2 0 -3 10t-1 23.5t1 23.5t3 10q47 20 64.5 30.5t21.5 37.5q4 16 7 53t6 101q0 33 1 80t1 96v98v90q0 8 -2.5 14.5t-13.5 11.5t-32.5 7t-60.5 2h-154q-41 0 -54 -2t-17 -6q-4 -6 -7 -21.5 t-6.5 -46t-5.5 -81t-2 -124.5q0 -90 3 -149t8 -119q0 -12 6 -24.5t22 -16.5l86 -22q10 -4 6 -15l-16 -59q-16 0 -86 2t-170 2h-98t-62.5 -1t-36 -1h-18.5q-2 0 -4 10t-4 22.5t-3 23zM406 813q0 -14 4 -19.5t20 -5.5h295q8 0 16.5 5.5t8.5 13.5q0 76 8 154.5t43 150.5 q-31 49 -98.5 83t-145.5 34q-27 0 -51.5 -12.5t-40.5 -32.5q-18 -23 -29.5 -64t-18.5 -92t-9 -107.5t-2 -107.5z" />
<glyph unicode="&#xfb04;" horiz-adv-x="1708" d="M30 54.5q-1 11.5 1 13.5q66 10 90 23t33 54q4 31 6 89.5t2 154.5v136t-1 77t-3 36t-4 15q-2 4 -16.5 9.5t-61.5 17.5q-10 4 -13 8l-18 51q41 20 80 37t39 29q0 129 33.5 212t109.5 150q43 39 104.5 76t127.5 66q33 12 66.5 19t82.5 7q74 0 128 -19.5t87 -49.5 q29 23 74 53.5t96 52.5q49 23 85 30t85 7t88 -8t66 -23q33 12 84 28.5t86 23.5q4 0 7 -1.5t9 -9.5q2 -2 2 -6t-2 -20q-4 -37 -8 -101.5t-7 -146.5t-6 -176.5t-3 -188.5q0 -221 2 -367.5t2 -248.5q0 -33 6 -56.5t28 -23.5h66q6 0 15.5 -4t9.5 -10q2 -16 3 -36t-3 -34h-97 q-37 0 -87 -1t-101 -3t-97 -5t-75 -5q-6 29 -10 57q0 6 5 11t9 5q45 10 59.5 32t18.5 67q10 78 11 174t1 192v63.5t-4 57.5q-2 18 -10 28.5t-31 10.5h-221q-45 0 -56.5 -8t-15.5 -14t-7 -26t-5 -59.5t-3 -104t-1 -157.5q0 -82 1 -127t4 -66.5t10 -26.5t18 -7q10 -2 23 -2h34 q6 0 12 -4t6 -21q0 -35 -3 -48t-13 -13h-258q-88 0 -115.5 -1t-36.5 -1q-10 0 -14 9t-6 16q-4 20 -4 40q35 8 55.5 14.5t31.5 14.5t14 18.5t5 26.5q4 41 6 92.5t2 114.5v283q0 33 -9 44t-52 11h-248q-14 0 -20 -7t-11 -16q-4 -12 -9 -71.5t-5 -184.5q0 -90 2 -155.5 t6 -126.5q0 -8 7.5 -19.5t23.5 -17.5l82 -12q10 -4 6 -15l-18 -61q-14 0 -84 2t-168 2h-90t-57.5 -1t-35 -1h-22.5q-2 0 -4 10t-4 22.5t-3 24zM403 813q0 -25 21 -25h285q10 0 22 16.5t12 12.5q0 70 9.5 153t38.5 156q-27 41 -86.5 72t-131.5 31q-39 0 -63.5 -12.5 t-40.5 -32.5q-20 -23 -32.5 -66t-19.5 -95t-10.5 -107.5t-3.5 -102.5zM975 819q0 -20 4 -25.5t20 -5.5h285q10 0 23.5 8.5t13.5 39.5q0 10 1 58t2 108.5t1 117t-2 80.5q-2 23 -8 35t-17 22q-29 23 -71.5 34.5t-83.5 11.5q-29 0 -55.5 -14.5t-40.5 -33.5q-23 -31 -36.5 -86 t-21.5 -117.5t-11 -125t-3 -107.5z" />
<glyph horiz-adv-x="0" />
<glyph unicode="&#xd;" horiz-adv-x="425" />
<glyph unicode=" "  horiz-adv-x="425" />
<glyph unicode="&#x09;" horiz-adv-x="425" />
<glyph unicode="&#xa0;" horiz-adv-x="425" />
<glyph unicode="!" horiz-adv-x="509" d="M76 180v2q0 10 7 14.5t13 6.5q12 6 27.5 12t32.5 12q27 10 40 24.5t23 55.5q4 16 30.5 26.5t41.5 10.5q20 0 26 -25q10 -47 34 -73.5t52 -36.5q20 -6 25.5 -21.5t7.5 -44.5q2 -20 -24 -32q-27 -10 -43.5 -18.5t-27.5 -21t-18.5 -33t-13.5 -52.5q-4 -10 -13 -13.5 t-17 -3.5q-35 0 -52.5 24.5t-27.5 45.5q-18 29 -35 40t-58 34q-12 8 -21 30.5t-9 36.5zM102 1106q0 6 7 12q49 41 83.5 76t61.5 68q8 10 16.5 11t20.5 1h2q14 0 24 -14q29 -33 62 -70t61 -60q16 -12 17 -24q0 -25 -11 -43q-29 -53 -45 -113.5t-32 -132.5q-8 -35 -17.5 -80 t-16.5 -89t-14.5 -84t-13.5 -64q-2 -8 -6 -15.5t-12 -9.5q-20 -8 -49 -8q-10 0 -13.5 1t-3.5 11q0 6 -2 34t-6 71t-9 97t-11 110q-10 90 -30 163.5t-46 102.5q-6 6 -11.5 16t-5.5 33z" />
<glyph unicode="&#x22;" horiz-adv-x="681" d="M59 1321q-2 10 8.5 18.5t41.5 24.5q41 23 77.5 30t49.5 7h2q23 0 37 -12.5t12 -20.5q0 -59 -8.5 -123.5t-20.5 -125t-24.5 -111t-20.5 -80.5q-4 -10 -20.5 -19.5t-65.5 -17.5q-18 -6 -24.5 0t-8.5 29q-2 49 -5 103t-7 107.5t-10 102.5t-13 88zM391 1323q-2 8 6.5 17.5 t44.5 25.5q53 18 86 26.5t50 8.5h2q16 0 29.5 -11.5t13.5 -21.5q0 -84 -20.5 -183.5t-49.5 -213.5q-4 -20 -24.5 -35.5t-67.5 -40.5q-33 -14 -35 14q-4 43 -7 98.5t-7 113t-9.5 110.5t-11.5 92z" />
<glyph unicode="#" d="M60 439.5q1 13.5 4.5 39t9.5 66.5q4 18 7 23t11 5l170 -2l55 238h-184q-4 0 -2 18.5t19 83.5q10 41 17 49.5t28 8.5l165 -2l66 284q4 12 8 17.5t23 5.5q16 0 47 -3t49 -9l-76 -295h225l64 299q29 0 60.5 -1t45.5 -5q10 -4 14.5 -9.5t0.5 -23.5l-68 -260h152q18 0 12 -23 q-12 -49 -19.5 -77.5t-13.5 -42t-11 -16.5t-11 -3l-150 2l-51 -236h156q20 0 29.5 -2t9.5 -12q0 -12 -5.5 -35.5t-13.5 -48t-16 -43t-17 -18.5l-184 2l-68 -344q-16 -2 -55 0t-55 6q-8 2 -10 9t2 26l73 307h-231l-72 -324q-6 -4 -22.5 -7t-34.5 -5t-34.5 -2t-24.5 2 q-10 4 -7 27l76 311l-151 -2q-6 0 -9.5 4t-2.5 17.5zM375 571h235l58 238h-240z" />
<glyph unicode="$" d="M53 369q-2 12 0 15t6 5q20 4 47 4q6 0 13.5 -4t11.5 -18q10 -23 22.5 -49.5t36.5 -61.5q47 -63 115 -109.5t144 -62.5q18 199 36 459q-29 10 -68.5 26.5t-82.5 40t-84 53t-74 66.5q-27 31 -48.5 81t-21.5 122q0 111 49.5 176.5t116.5 99.5q35 16 103.5 37t159.5 25 q4 66 7 113t5 92v8t4 8q16 8 36.5 0t39.5 -18q12 -10 16 -18.5t2 -24.5q-4 -41 -6 -77t-4 -83q35 0 64.5 -2t48.5 -4q16 -4 28 -4t31 -4q29 -4 49 32h37.5t26.5 -2q-4 -72 0 -145.5t20 -161.5q4 -12 1 -18.5t-7 -10.5q-16 -8 -25.5 -13t-21.5 -13q-4 0 -10.5 2t-8.5 12 q-27 66 -50 111t-66 80q-49 43 -123 61l-31 -430q115 -41 184.5 -73t110.5 -70q59 -57 86 -113.5t27 -132.5q0 -109 -53.5 -185.5t-133.5 -117.5q-29 -14 -63.5 -25.5t-71.5 -21t-71.5 -14.5t-65.5 -7q-6 -70 -9 -120t-6 -97q0 -10 -2 -14t-18 -9q-23 -8 -37 -10t-33 -2 q-12 0 -16 12.5t-2 28.5q4 43 9 91t9 116q-59 2 -114.5 9t-96.5 18q-23 6 -34 0q-10 -6 -19.5 -13.5t-19.5 -13.5q-8 -8 -16.5 -9t-18.5 -1q-18 0 -27 6q-4 4 -7 17.5t-5 52.5q-2 74 -11.5 145.5t-19.5 157.5zM326 1016q0 -49 12 -79t41 -56q27 -25 58.5 -42.5t66.5 -33.5 q8 111 15 213t11 178q-43 0 -80.5 -15.5t-65.5 -41t-43 -57t-15 -64.5v-2zM551 84q100 8 165.5 67.5t65.5 151.5v2q0 47 -27.5 90t-78.5 72q-23 12 -43.5 21.5t-50.5 23.5q-8 -121 -17.5 -231.5t-13.5 -196.5z" />
<glyph unicode="%" horiz-adv-x="1538" d="M86 889q0 96 25.5 167.5t83.5 131.5q14 14 42.5 32.5t61.5 33t64.5 24.5t54.5 10q80 0 132 -26.5t83 -70.5t44 -103.5t13 -122.5v-2q0 -63 -11 -110.5t-25.5 -81.5t-31 -53.5t-24.5 -27.5q-18 -18 -49 -39.5t-67 -40t-71.5 -31t-62.5 -12.5q-51 0 -98 18.5t-84 57.5 t-58.5 99.5t-21.5 146.5zM262 956q0 -92 16.5 -150t40 -91t47 -45.5t37.5 -12.5h3q27 0 57 21q14 12 31.5 60t17.5 161q0 154 -38 228.5t-103 74.5q-41 0 -68 -33q-6 -10 -13 -24.5t-13.5 -38t-10.5 -60t-4 -90.5zM299 -29q223 358 427 688t400 656q16 25 33 24h2 q6 0 31 -17t41 -40q-215 -346 -422 -680t-393 -655q-20 -31 -29 -31q-10 0 -24.5 7t-27.5 16.5t-24.5 18.5t-13.5 13zM848 309q0 57 11 103.5t28.5 81t37 59.5t38.5 41q14 14 42.5 31.5t61.5 34t67.5 27.5t65.5 11q47 0 92 -17t81 -55t58.5 -96.5t22.5 -140.5 q0 -125 -31.5 -193.5t-58.5 -95.5q-18 -18 -49 -39.5t-67 -41t-70.5 -32t-59.5 -12.5h-2q-76 0 -127 27t-83 72t-45 105.5t-13 129.5zM1024 367q0 -109 21.5 -169.5t49 -90t53.5 -37t34 -7.5h2q18 0 29.5 13.5t21.5 29.5q14 16 26.5 69.5t12.5 131.5q0 45 -3 98.5 t-17.5 98.5t-44 74.5t-83.5 29.5q-33 0 -67.5 -58t-34.5 -183z" />
<glyph unicode="&#x26;" horiz-adv-x="1558" d="M88 311q0 80 27.5 139.5t66.5 92.5q37 33 75 61.5t81 57.5q10 8 7 13t-11 13q-39 29 -64.5 82t-25.5 115q0 72 24.5 127t65.5 92q29 25 63.5 50.5t63.5 45.5q31 23 60.5 35t70.5 12h2q57 0 108.5 -17.5t94.5 -60.5t61.5 -94t18.5 -110t-23 -93t-43 -51 q-12 -12 -34.5 -30.5t-41.5 -40.5q-18 -18 2 -35q82 -61 187 -234q8 -10 19 -9t15 7q53 57 96.5 118.5t73 118t46 102.5t16.5 75q0 14 -28.5 25.5t-74.5 27.5q2 16 14.5 35.5t24.5 30.5q2 2 13.5 1t1.5 -1q14 -2 37.5 -4t50 -4.5t54.5 -4.5t50 -2q86 0 135 13q2 0 9.5 -6.5 t9.5 -14.5v-32.5t-2 -36.5q-49 0 -69.5 -8.5t-39.5 -30.5q-43 -53 -84 -110.5t-75 -106.5q-49 -72 -101.5 -132.5t-105.5 -130.5q-10 -12 -13.5 -21t2.5 -24q33 -78 90.5 -134t135.5 -56q86 0 126 42t58 114q4 10 15.5 6t25.5 -15q10 -8 18.5 -21t4.5 -28 q-37 -133 -121 -216t-213 -83q-104 0 -185.5 62.5t-144.5 167.5q-35 -39 -85 -88.5t-103 -81.5q-37 -23 -85.5 -36.5t-95.5 -13.5q-61 0 -122.5 17.5t-118.5 68.5q-59 51 -85 121t-26 129zM285 426q0 -47 16 -93t45 -81q33 -39 80 -66.5t104 -27.5q51 0 98.5 17.5t76.5 35.5 q12 8 27.5 22.5t25.5 24.5q10 14 -4 47q-25 61 -66 120.5t-88 100.5q-27 25 -56.5 43.5t-55 29.5t-45 17.5t-27.5 6.5h-2q-16 0 -29 -15q-43 -29 -71.5 -78t-28.5 -104zM397 1020q0 -33 13.5 -76t66.5 -86q45 -37 94.5 -58.5t63.5 -21.5t29.5 8.5t25.5 22.5q10 16 15.5 33.5 t5.5 46.5q0 61 -17.5 107t-45 77t-60.5 45.5t-64 14.5h-2q-35 0 -53 -7.5t-35 -23.5q-16 -16 -26.5 -37t-10.5 -45z" />
<glyph unicode="'" horiz-adv-x="350" d="M59 1321q-2 10 8.5 18.5t41.5 24.5q41 23 77.5 30t49.5 7h2q23 0 37 -12.5t12 -20.5q0 -59 -8.5 -123.5t-20.5 -125t-24.5 -111t-20.5 -80.5q-4 -10 -20.5 -19.5t-65.5 -17.5q-18 -6 -24.5 0t-8.5 29q-2 49 -5 103t-7 107.5t-10 102.5t-13 88z" />
<glyph unicode="(" horiz-adv-x="702" d="M135 432q0 158 23.5 310.5t89.5 293.5q80 174 173 287t165 158q14 6 22 -4q6 -8 8 -40t2 -44v-2q0 -4 -2 -12.5t-18 -22.5q-141 -141 -229 -363.5t-88 -521.5q0 -121 21.5 -236.5t55 -215t77.5 -179.5t91 -129q10 -10 18.5 -19t16.5 -18q6 -6 8 -13t-2 -23 q-10 -47 -15 -69t-9 -28q-12 -16 -45 -6q-23 8 -60 44t-75.5 87t-76.5 115.5t-63 132.5q-47 127 -67.5 263t-20.5 255z" />
<glyph unicode=")" horiz-adv-x="702" d="M88 -424q-4 12 8 29q72 90 130.5 190.5t105.5 216.5q45 111 65.5 249t20.5 288q0 156 -24.5 277.5t-63.5 216t-87 163t-96 115.5q-14 14 -19 24.5t-5 26.5t6 43t23 51q16 23 47 7q47 -29 110.5 -105t119.5 -194.5t95 -276.5t39 -346v-2q0 -207 -43 -373t-103.5 -292 t-128 -213t-116.5 -136q-12 -14 -27 -14q-4 0 -13 6t-18.5 15t-16.5 18.5t-9 15.5z" />
<glyph unicode="*" horiz-adv-x="806" d="M82 1118v2q0 4 10 20.5t23.5 35t26 33t16.5 14.5t28.5 -16.5t58.5 -38t67.5 -44t56.5 -34.5q4 -4 9 -1t5 9q0 20 -3 55t-6 74t-5 76.5t-2 62.5q-2 10 12 14q37 4 64.5 3t54.5 -11q10 -4 12 -12t2 -23q-2 -16 -7 -41.5t-12.5 -58.5t-14.5 -67.5t-13 -67.5q-2 -20 6 -15 q55 27 108.5 61t104.5 60q6 -6 14.5 -19t16.5 -29.5t15 -31t11 -20.5q6 -18 5 -28.5t-5 -10.5q-20 -6 -49.5 -13t-62.5 -16.5t-67 -18.5t-62 -17q-14 -4 -2 -17q31 -35 80 -88t81 -94q16 -16 11.5 -29.5t-27.5 -34.5q-8 -8 -21.5 -15t-27.5 -13t-26.5 -10.5t-16.5 -4.5 q-10 18 -26.5 49t-36 67t-41 74t-39.5 68q-16 -20 -45 -57l-58 -74t-52.5 -64.5t-27.5 -31.5q-23 6 -48 25.5t-50 48.5q-4 8 -2 19.5t4 13.5q14 14 40 33.5t53.5 42t55 44t48.5 37.5q4 4 5 10.5t-1 6.5q-23 10 -56.5 22t-67.5 24.5t-63.5 24t-44.5 19.5q-4 4 -10 8t-6 10z " />
<glyph unicode="+" horiz-adv-x="1357" d="M164 506.5q0 21.5 1 37t3 19.5h434l2 408q0 29 14 28h125q12 0 15.5 -7t3.5 -25l-4 -404h411q16 0 20.5 -9t4.5 -22v-90q0 -8 -9 -15t-20 -9h-407l4 -457q0 -8 -4 -15t-10 -7q-12 0 -32 2t-41.5 5t-42 6t-30.5 7v459h-432q-4 20 -5 43.5t-1 45z" />
<glyph unicode="," horiz-adv-x="518" d="M16 -244q0 23 9.5 38.5t25.5 29.5q76 53 113 120.5t41 131.5q2 45 -23.5 75.5t-68.5 57.5q-8 4 -4 24.5t12 24.5q16 10 39.5 24.5t46 30t43 29.5t33.5 25q14 10 22 14t21 4h2q12 0 29.5 -11.5t34 -31.5t28.5 -50t12 -67q0 -82 -25.5 -151.5t-69.5 -128t-103.5 -106.5 t-124.5 -87q-23 -14 -40.5 -18t-19.5 -4q-10 0 -21.5 5t-11.5 21z" />
<glyph unicode="-" horiz-adv-x="669" d="M111 334v2q0 27 13 60.5t36 45.5t80 31t119.5 39t117.5 37.5t74 23.5q25 10 33 7.5t24 -13.5q14 -6 10 -32q-16 -49 -27 -78t-19.5 -44.5t-17.5 -21.5t-24 -12q-8 -4 -60 -13.5t-116.5 -20.5t-126 -21.5t-90.5 -14.5q-20 -4 -23 2t-3 23z" />
<glyph unicode="." horiz-adv-x="518" d="M63 176q0 12 13.5 33.5t25.5 23.5q31 4 47.5 9.5t27.5 14.5t19.5 24.5t22.5 44.5q12 25 31.5 37t40.5 12h2q25 0 31 -21q6 -29 12 -50t16 -36.5t25.5 -27t40.5 -21.5q20 -8 30.5 -20.5t10.5 -51.5q0 -18 -21 -22q-31 -8 -49 -15.5t-29.5 -20.5t-19.5 -37.5t-23 -69.5 q-6 -20 -43 -21q-31 0 -47 27.5t-39 70.5q-16 35 -40.5 50.5t-47.5 27.5q-37 14 -37 39z" />
<glyph unicode="/" horiz-adv-x="876" d="M98 -123q133 358 265.5 723t269.5 756q12 35 18 47t19 12h2q6 0 21.5 -6t32.5 -16.5t30.5 -23.5t15.5 -28q-55 -150 -122.5 -333t-139.5 -376.5t-139.5 -384t-122.5 -353.5q-27 -74 -41 -74t-47 19.5t-62 37.5z" />
<glyph unicode="0" d="M70 625q0 197 42 323.5t105 206.5q35 43 95.5 83t127.5 58q31 8 61.5 13.5t78.5 5.5h2q82 0 162.5 -40t142.5 -126q49 -72 80.5 -191.5t31.5 -293.5q0 -143 -17 -240.5t-43 -162t-55.5 -102.5t-54.5 -61q-61 -57 -146 -90t-175 -33q-92 0 -176 41t-144 125 q-43 61 -80.5 184.5t-37.5 299.5zM336 727q0 -139 9 -237.5t23.5 -166t32 -109.5t33.5 -67q31 -45 63.5 -62t65.5 -17q27 0 49.5 10t36.5 24q33 29 59.5 149t28.5 331q0 209 -21.5 361.5t-76.5 230.5q-16 23 -45 38t-70 15h-2q-29 0 -50 -11.5t-44 -31.5q-12 -12 -28.5 -45 t-30 -89.5t-23.5 -136t-10 -186.5z" />
<glyph unicode="1" d="M145 4q14 55 25 57q14 4 38.5 7.5t53.5 6.5t59.5 7t57.5 8q23 4 28 13.5t9 25.5q2 16 6 55t7 94.5t4 123t1 139.5l-6 526q0 16 -6 24.5t-27 6.5q-43 -4 -85 -8.5t-93 -4.5q-12 10 -23.5 29t-11.5 27q0 6 2 8t15 6q61 14 128.5 36.5t130 45.5t114 43t81.5 33q6 2 17 2 q20 0 20 -17v-806q0 -117 1 -185.5t2 -105.5t3 -51.5t6 -22.5q2 -8 9.5 -13t34 -11.5t77.5 -11.5t142 -13q-2 -45 -9.5 -59.5t-19.5 -14.5h-295q-55 0 -106.5 -2t-105.5 -4t-117.5 -4t-143.5 -2q-25 0 -23 12z" />
<glyph unicode="2" d="M98 18q16 51 31.5 80t32.5 45q18 14 58 46t92.5 77t109.5 102.5t110 125.5q86 109 115 199.5t29 172.5q0 117 -57.5 180.5t-167.5 63.5q-102 0 -164 -49t-107 -146q-4 -4 -12 -3t-41 14q-14 4 -14 18q16 72 54 136.5t85 111.5q45 45 117.5 84t175.5 39h2q86 0 152.5 -31 t107.5 -72q66 -63 90.5 -141t24.5 -149q0 -90 -30 -161t-89 -138q-43 -47 -96.5 -101.5t-109.5 -108t-109.5 -103.5t-96.5 -89q-6 -4 -2 -11t14 -7q25 0 90.5 1t138.5 2t134 2t74 1q20 0 34.5 4t29 18.5t28.5 40t33 68.5q4 10 16 4q10 -4 19.5 -11t21.5 -18q23 -10 12 -30 q-8 -14 -27.5 -56.5t-40 -87.5t-37 -83t-20.5 -46q-12 -20 -26 -20h-48t-104.5 1t-138.5 2t-152 3q-25 0 -70.5 1t-94 1h-90.5h-62q-14 0 -20.5 7t-4.5 11z" />
<glyph unicode="3" d="M99.5 9q-1.5 7 2.5 22l13 24q29 -4 57.5 -4h56.5q117 4 217.5 38t165.5 112q39 47 54.5 93t15.5 93q0 53 -16.5 87t-38.5 54q-33 31 -76 43.5t-102 12.5q-53 0 -93.5 -8.5t-81.5 -18.5q-8 0 -17 14.5t-7 18.5q20 39 46 64.5t40 31.5q45 18 80 31.5t62.5 26t50 25.5 t44.5 30q35 29 52.5 64.5t17.5 70.5q0 92 -54 142t-171 50q-51 0 -93 -15t-75 -39.5t-57.5 -53.5t-38.5 -55q-2 -4 -9.5 0t-15.5 11t-14 14t-6 11q0 8 4 20.5t8 18.5q20 37 52 75t66.5 71t69.5 58.5t60 37.5q41 16 77.5 25.5t77.5 9.5q78 0 140.5 -23.5t103.5 -60.5 t63.5 -92.5t22.5 -118.5q0 -47 -18.5 -86t-51.5 -66q-23 -18 -57.5 -40.5t-77.5 -51.5q-6 -4 -2 -13t10 -11q66 -23 130.5 -68t99.5 -92q25 -33 39 -73t14 -99q0 -74 -28.5 -135.5t-68.5 -108.5t-83 -80t-72 -51q-102 -61 -189 -77.5t-188 -16.5q-80 0 -133 17.5t-63 25.5 q-14 8 -15.5 15z" />
<glyph unicode="4" d="M12 410q0 14 15.5 44.5t19.5 41.5q25 45 79 122.5t126 170t152.5 191.5t158.5 187q33 37 56.5 60.5t41 37t29.5 19.5t21 10q25 14 52.5 17.5t43.5 3.5q20 0 22 -109l11 -671q86 0 137 2t65 2q8 0 4 -32t-16 -73q-6 -18 -13 -24.5t-30 -6.5h-156v-415q0 -23 -14 -23 q-86 -2 -151.5 -4t-81.5 -2q-8 0 -16.5 5t-8.5 20q0 4 1 34.5t3 72.5t5 90t5 91t3.5 75t1.5 38q0 10 -2.5 11t-18.5 1q-8 0 -57 -1t-115 -3t-138.5 -3t-125.5 -1h-80q-23 4 -26 7t-3 14zM211 528.5q2 -10.5 18 -10.5q96 0 181.5 2t169.5 6q0 20 3 64.5t5 98.5t5 112.5t5 111 t4 91t2 51.5v2q0 35 -14 16q-35 -43 -84 -105.5t-101.5 -133t-102.5 -144.5t-87 -141q-6 -10 -4 -20.5z" />
<glyph unicode="5" d="M115 610.5q0 10.5 1 27.5t5 43t12 67q12 57 29.5 126.5t37 137t39 130t35.5 107.5q23 43 43 54q10 6 17.5 7t11.5 1q29 -6 79 -12.5t109.5 -11.5t121 -9t110.5 -4q10 -2 24.5 1t20.5 9q23 14 43 27.5t35 29.5q12 12 18 9q35 -25 44.5 -40.5t4.5 -27.5q-4 -12 -26.5 -40 t-49 -57.5t-52 -54t-37.5 -32.5q-16 -12 -35 -20.5t-41 -8.5q-27 0 -76 1t-101.5 2t-99.5 3t-67 4q-18 0 -25.5 -2t-13.5 -12q-8 -23 -19.5 -57.5t-24 -77.5t-25.5 -91t-21 -98q-2 -12 3 -21t25 -3q117 41 206 64.5t112 23.5q68 0 120 -18.5t87 -43.5q59 -41 105 -113.5 t46 -172.5v-2q0 -92 -39 -169t-102.5 -137.5t-146.5 -102.5t-171 -64q-70 -18 -136 -24.5t-109 -6.5q-27 0 -61 4t-48 14q-16 12 -8 23q4 10 8 18t8 15q6 16 23 16q111 10 212 32.5t175 67.5q72 43 114 103.5t42 138.5q0 109 -81 177.5t-229 68.5q-59 0 -124.5 -13.5 t-116.5 -33.5q-39 -14 -39 10q-2 8 -2 18.5z" />
<glyph unicode="6" d="M70 512v2q0 193 76.5 367t244.5 303q109 82 231.5 123t254.5 41q20 0 42.5 -17.5t32.5 -32.5q6 -16 -8 -20q-43 -4 -104.5 -20.5t-128 -47t-130 -79t-110.5 -111.5q-23 -31 -41 -71t-32.5 -81t-25 -78.5t-12.5 -66.5q6 0 29 9t55.5 23.5t70.5 32t73 29.5q16 10 32.5 12 t28.5 2q80 0 143.5 -33.5t110.5 -84.5q47 -53 74 -122t27 -136q0 -78 -16.5 -135.5t-41 -98.5t-51.5 -68.5t-45 -43.5q-31 -29 -72 -52.5t-86 -42t-90 -29t-84 -10.5q-78 0 -151.5 24t-139.5 79q-66 57 -111.5 167.5t-45.5 266.5zM336 545q0 -139 31.5 -244.5t81.5 -159.5 q33 -35 72.5 -54t70.5 -19h2q47 0 94 36q20 16 51 76t31 166q0 59 -14.5 112.5t-50.5 104.5q-84 115 -218 115q-31 0 -64.5 -7t-62.5 -28q-6 -4 -15 -21.5t-9 -76.5z" />
<glyph unicode="7" d="M61 946q8 29 26.5 81t37 105.5t34 97.5t19.5 56q2 12 31 12q16 0 41.5 -4t52.5 -6q8 0 40 -1t81 -2t111.5 -1h128.5q86 0 141 1t92 2t57.5 2t34.5 1t15 -6q2 -53 -5.5 -80.5t-17.5 -44.5q-80 -141 -155.5 -286.5t-140 -275.5t-113 -234.5t-70.5 -165.5 q-23 -55 -40.5 -108.5t-27.5 -100.5q0 -8 -9 -17.5t-38 -9.5h-2q-23 0 -58.5 7t-58.5 24q-12 16 -14 29.5t8 41.5q12 29 57.5 112t114.5 198q45 72 100.5 169t109.5 194.5t99 180t70 125.5q-2 8 -3 14.5t-11 8.5t-27.5 5t-51.5 5t-86 3t-132 1q-90 0 -143.5 -4t-85 -12 t-47 -21.5t-27.5 -33.5q-25 -31 -40.5 -62t-27.5 -59q-4 -4 -9 -5t-24 9q-43 31 -37 55z" />
<glyph unicode="8" d="M86 315q0 47 17.5 82t39.5 62q10 10 33 28.5t51.5 41t59 46t57.5 43.5q-100 66 -152.5 138.5t-52.5 171.5q0 147 88 235q35 35 79 63.5t91 51.5q43 20 84 28.5t76 8.5h2q88 0 157.5 -24.5t119 -67.5t75 -103.5t25.5 -132.5q0 -47 -26.5 -83t-53.5 -58 q-33 -35 -68.5 -65.5t-72.5 -63.5q68 -37 119 -74t84.5 -79t51 -91t17.5 -113q0 -53 -15.5 -99t-39 -83t-52 -64.5t-53.5 -43.5q-59 -41 -142 -71t-159 -30q-84 0 -169 21.5t-142 68.5q-72 57 -100.5 124t-28.5 132zM309 367q0 -74 26.5 -130.5t65.5 -94.5t85 -57t87 -19h2 q88 0 140.5 44t52.5 142q0 51 -20.5 96t-55.5 80q-53 53 -112.5 86t-90.5 43q-27 6 -50 8t-44 -8q-33 -16 -59.5 -67.5t-26.5 -122.5zM348 1040q0 -51 17.5 -89t45 -66.5t63.5 -50t73 -37.5q29 -12 58.5 -23.5t39.5 -7.5q37 16 62.5 65.5t25.5 114.5q0 63 -12 115.5 t-55 99.5q-25 29 -58 47.5t-84 18.5h-2q-37 0 -66.5 -12.5t-52.5 -34.5q-29 -23 -42 -61t-13 -79z" />
<glyph unicode="9" d="M76 846q0 119 51 211t141 151q66 45 141.5 76t145.5 31h2q90 0 157.5 -31t127.5 -84q84 -78 119.5 -206t35.5 -267q0 -150 -46 -286t-132 -242q-53 -66 -119.5 -113t-136 -76.5t-140.5 -44t-134 -14.5q-41 0 -67.5 4t-43.5 8q-6 2 -10 15.5t0 25.5t6 14t10 5q18 4 55 12 t85.5 25.5t100.5 44t101 69.5q166 141 191 375q-25 -10 -70 -24.5t-91 -28t-83 -23.5t-45 -10q-45 0 -102.5 16.5t-98.5 48.5q-152 121 -151 318zM311 971q0 -111 37 -177.5t90 -117.5q41 -41 93.5 -56.5t93.5 -15.5q14 0 43.5 7t52.5 20q4 4 7 34.5t3 79.5q0 45 -4 95.5 t-18 117.5q-12 51 -31 99.5t-47.5 83.5t-67.5 56.5t-90 21.5h-2q-35 0 -57.5 -12.5t-38.5 -30.5q-20 -27 -42 -78t-22 -127z" />
<glyph unicode=":" horiz-adv-x="518" d="M70 670q0 23 18 28q53 10 81 27.5t46 62.5q10 25 26.5 40.5t45.5 15.5h2q23 0 30 -21q12 -31 20.5 -49t20 -29.5t30 -19.5t50.5 -23q33 -12 21 -51q-4 -16 -10.5 -22t-18.5 -13q-29 -12 -47 -22t-30.5 -24.5t-20.5 -38t-21 -62.5q-8 -18 -28 -18q-25 0 -45.5 10t-24.5 26 q-12 47 -33.5 72t-62.5 43q-25 10 -37 28.5t-12 39.5zM74 168q0 10 12 31.5t25 23.5q29 4 45 8.5t27.5 12.5t19.5 23.5t20 43.5q14 23 29.5 35t44.5 12h2q14 0 17 -8t6 -14q8 -31 15 -50.5t16 -33.5t24.5 -23.5t38.5 -19.5q16 -8 25.5 -20.5t9.5 -47.5q0 -16 -19 -22 q-31 -8 -47 -15.5t-27.5 -20.5t-19.5 -36.5t-21 -66.5q-4 -8 -11 -13.5t-32 -5.5q-29 0 -45 26.5t-36 67.5q-16 35 -39 48.5t-45 23.5q-37 25 -35 41z" />
<glyph unicode=";" horiz-adv-x="518" d="M16 -274q0 23 9.5 38t25.5 27q74 53 114 121t40 133q0 47 -24.5 77t-67.5 54q-8 4 -4 24.5t12 24.5q16 10 39.5 24.5t46 30t43 30t33.5 24.5q14 10 22 15t21 5h2q12 0 29.5 -11t34 -32.5t28.5 -50.5t12 -65q0 -82 -25.5 -151t-69.5 -127t-103.5 -107.5t-124.5 -88.5 q-23 -14 -40.5 -19t-19.5 -5q-10 0 -21.5 6t-11.5 23zM70 670q0 23 18 28q53 10 81 27.5t46 62.5q10 25 26.5 40.5t45.5 15.5h2q23 0 30 -21q12 -31 20.5 -49t20 -29.5t30 -19.5t50.5 -23q33 -12 21 -51q-4 -16 -10.5 -22t-18.5 -13q-29 -12 -47 -22t-30.5 -24.5t-20.5 -38 t-21 -62.5q-8 -18 -28 -18q-25 0 -45.5 10t-24.5 26q-12 47 -33.5 72t-62.5 43q-25 10 -37 28.5t-12 39.5z" />
<glyph unicode="&#x3c;" horiz-adv-x="1163" d="M141 446q0 41 22.5 66t39.5 35q74 45 172 100t202.5 110.5t206 108t181.5 88.5q16 6 22 4t8 -8l39 -143q-109 -45 -197.5 -83t-168.5 -76t-157 -79t-161 -94l17 -12q45 -35 128 -78t174 -87t178 -86t144 -73q10 -8 15.5 -15t-0.5 -26l-33 -102q-4 -18 -9.5 -21.5 t-15.5 5.5q-197 111 -382 212t-378 209q-12 6 -29.5 20.5t-17.5 24.5z" />
<glyph unicode="=" horiz-adv-x="1357" d="M176 331.5q0 20.5 2 37.5l1002 2l-6 -121q-2 -16 -15.5 -21.5t-60.5 -5.5l-883 -2q-25 0 -31 12q-2 6 -3 21.5t-3 36t-2 41zM176 733q0 12 2 18.5t15 6.5l985 2v-42t-2 -45.5t-5.5 -38t-11.5 -16.5q-18 -2 -45 -3t-80 -1h-819q-16 0 -25.5 4.5t-9.5 20.5z" />
<glyph unicode="&#x3e;" horiz-adv-x="1163" d="M156 842l28 80q10 20 15.5 24t15.5 -2q92 -51 174 -96t157 -87t145.5 -82t139.5 -81q12 -8 25.5 -15.5t30 -17.5t41 -25.5t59.5 -35.5q25 -18 25 -39q0 -16 -17.5 -34.5t-42 -36t-49 -32t-37.5 -22.5q-78 -47 -155.5 -92t-159.5 -91t-172 -95.5t-191 -102.5 q-10 23 -18 68t-12 67q-2 20 12 29q8 4 70.5 37t155.5 80t202 104t209 113q-92 53 -246.5 138t-384.5 200q-12 6 -19 18t-1 29z" />
<glyph unicode="?" horiz-adv-x="675" d="M110 172.5q3 11.5 19 22.5q57 29 78.5 46t34.5 44q10 29 17 37t15 8h2q33 0 54.5 -7.5t34.5 -39.5q6 -20 17 -32.5t44 -29.5q29 -14 38 -23.5t13 -31.5q4 -27 -1 -37t-40 -27q-35 -18 -50 -39.5t-26 -58.5q-8 -23 -33.5 -32t-41.5 -9q-23 0 -35 33q-10 25 -26.5 52.5 t-49.5 41.5q-23 10 -35 24.5t-22 30.5t-7 27.5zM127 680q0 10 11.5 29.5t26.5 38t29.5 32t18.5 13.5h88q248 0 248 92q0 12 -10.5 29.5t-35 35t-66.5 28.5t-105 11q-6 0 -16.5 9.5t-19.5 21.5t-16.5 26.5t-7.5 26.5q0 20 10.5 48t29 52.5t44 42t56.5 17.5h2q49 0 91 -24.5 t72.5 -63.5t49 -88t18.5 -99q0 -37 -5 -77.5t-13.5 -78.5t-17.5 -70t-17 -50q-20 -45 -46 -74.5t-56.5 -46t-62.5 -24t-65 -7.5h-59q-35 0 -53.5 -20.5t-13.5 -87.5q-12 -10 -22.5 -15.5t-23.5 -15.5q-16 -4 -19 0t-7 15q-6 12 -12.5 46.5t-12.5 75.5t-9 82t-3 70z" />
<glyph unicode="@" horiz-adv-x="1722" d="M117 305q0 117 27.5 219.5t75.5 190.5t113.5 158.5t141.5 125.5q229 168 531 168q129 0 238.5 -42t190.5 -118.5t128 -184t53 -240.5q4 -129 -45 -240t-130 -190.5t-182.5 -122.5t-199.5 -37q-37 4 -75 15t-40 46q0 27 12.5 103.5t34.5 175.5q-35 -33 -83 -89.5 t-97 -110.5t-90 -94t-62 -40q-12 0 -33.5 10t-44 37t-39 73t-16.5 118v2q0 98 37 185t86 150q18 23 47 51.5t64 58.5t71.5 56.5t73.5 44.5q25 12 46.5 16.5t41.5 4.5q18 0 51 -5t78 -16q35 10 74 16.5t59 6.5q-18 -51 -37.5 -137t-37 -179.5t-29.5 -181.5t-14 -143 q-2 -27 9 -42t30 -15q63 0 121.5 32.5t103.5 92t72.5 143.5t27.5 188q0 117 -40 210t-110.5 159.5t-170 102.5t-215.5 36q-156 0 -281 -60.5t-203 -146.5q-96 -106 -143 -250.5t-47 -298.5q0 -145 43 -259.5t120.5 -196.5t185.5 -125t234 -43q113 0 192 25.5t130 48.5 q8 4 17.5 -2.5t9.5 -8.5q-2 -16 -9.5 -42.5t-11.5 -28.5q-41 -25 -89 -43.5t-98 -30.5t-100.5 -19.5t-95.5 -7.5q-158 0 -288 49.5t-222 142.5t-142 226t-50 303zM729 340q0 -47 12.5 -72.5t32.5 -25.5h2q25 0 51.5 16t52 44t50 61.5t43.5 70.5q10 14 19 43t16.5 60.5 t12.5 61.5t7 50q-18 10 -52 18.5t-81 8.5q-35 0 -54.5 -12.5t-35.5 -32.5q-76 -98 -76 -291z" />
<glyph unicode="A" horiz-adv-x="1492" d="M55 66q39 10 65.5 31.5t45 49t34 60.5t31.5 69q12 25 39 84.5t62 139.5t76 173t80.5 186t76.5 178t64 151q14 35 25.5 68.5t21.5 52.5q6 23 18 28q16 8 43 14.5t49 6.5h2q16 0 20.5 -6t12.5 -29q23 -68 43.5 -125t41 -112.5t43 -115t48.5 -130.5q27 -70 63 -160 t71.5 -177t65.5 -157t42 -96q20 -43 37.5 -74t39 -54.5t51.5 -38.5t75 -24q0 2 -2 -8t-6 -23.5t-9.5 -24.5t-11.5 -11q-78 0 -128 1t-83 2t-56.5 1h-49.5q-25 0 -52.5 -1t-52 -2t-44 -2t-27.5 -1q-12 0 -15 8q-4 8 -13 30.5t-5 26.5q63 16 79.5 30.5t16.5 45.5 q0 18 -12.5 58t-27.5 83t-28.5 79t-17.5 44q-12 29 -23.5 40t-21.5 11h-79h-107.5t-112.5 -2t-90 -4q-27 -2 -38 -14t-22 -41q-8 -20 -19 -49t-22.5 -61.5t-19.5 -63.5t-8 -53q0 -39 27.5 -57.5t99.5 -34.5q6 -2 6 -12.5t-4 -23t-9 -22.5t-10 -10q-98 2 -177 2h-109 q-29 0 -49.5 -1t-26.5 1q-12 0 -14 8q-4 8 -12.5 30.5t-0.5 27.5zM479 575q-4 -8 9.5 -16t35.5 -8h2q16 0 45 -1t74 -1h82t72 2q16 0 25.5 10t6.5 14q-55 168 -89.5 265.5t-61.5 163.5q-4 10 -11 11t-12 -5q-27 -57 -46 -102.5t-38.5 -93.5t-41 -103.5t-52.5 -135.5z" />
<glyph unicode="B" horiz-adv-x="1294" d="M70 1243l28 66q25 4 60 4t73 4q27 2 80.5 4t112.5 4t115.5 3t87.5 1q68 0 145.5 -7t161.5 -40q27 -10 56.5 -30.5t56 -51.5t44 -73t17.5 -93q0 -55 -23.5 -110.5t-83.5 -100.5q-37 -29 -75.5 -43t-55.5 -20q-6 -4 -1 -10.5t20 -10.5q57 -12 116.5 -39.5t105.5 -70.5 t76 -103.5t30 -138.5q0 -72 -24 -129t-63.5 -101t-95 -78t-119.5 -54q-70 -23 -135 -28t-92 -5q-14 0 -62 1t-106.5 3t-115 3t-85.5 1q-35 0 -69.5 -2t-65 -3t-53 -3t-31.5 -2q-2 0 -6 8t-8 18.5t-6 19.5t-2 13q16 10 34.5 17.5t34.5 17.5q18 8 29.5 16.5t19 20.5t10.5 30.5 t3 47.5q4 100 6 173.5t2 127.5v317q0 111 -1 196t-5 138q-2 18 -5 30.5t-17.5 21.5t-42 18.5t-76.5 21.5zM471 327q0 -77 5 -117t13.5 -57.5t24.5 -33.5q31 -35 51.5 -41t57.5 -6h2q51 0 105 18.5t97 55t71 93t28 130.5q0 78 -16.5 131t-61.5 96q-57 57 -119.5 68.5 t-107.5 11.5q-29 0 -71 -4t-58 -25q-8 -8 -14.5 -28.5t-6.5 -79.5v-212zM481 1053q0 -86 2 -148.5t6 -99.5q0 -29 8.5 -34t24.5 -9q33 -6 84 -6q20 0 60.5 4t68.5 20q53 35 74.5 92.5t21.5 135.5v2q0 53 -14 95t-51 79q-35 33 -85 49t-91 16q-14 0 -31.5 -2t-38.5 -8 q-16 -4 -20 -9t-8 -16q-2 -16 -6.5 -53t-4.5 -108z" />
<glyph unicode="C" horiz-adv-x="1380" d="M78 649v2q0 109 33.5 233t132.5 234q82 90 198.5 140.5t231.5 74.5q70 16 135 20.5t129 4.5q70 0 135.5 -8.5t95.5 -20.5q14 -4 40 5t36 14q6 2 16.5 1t32.5 -12q12 -4 14.5 -8t0.5 -10q-31 -84 -36 -164q-2 -36 -2 -78q0 -50 3 -106q0 -8 -29 -8q-29 -2 -39 3t-14 13 q-2 8 -7 23.5t-11.5 33t-13.5 34.5t-13 32q-10 27 -21.5 49.5t-40.5 46.5q-29 27 -93 52.5t-142 25.5q-86 0 -174 -41t-156 -127q-78 -98 -107.5 -216t-29.5 -241q0 -88 25.5 -191.5t84 -193.5t154.5 -150.5t236 -60.5q51 0 96 15.5t83 40t67.5 52t52.5 52.5q29 35 46 69.5 t27 55.5q2 4 9.5 4t23.5 -16q18 -10 23.5 -17.5t3.5 -21.5q-16 -92 -44 -164t-50 -107q-10 -14 -18.5 -16t-24.5 -4q-45 0 -125 -17.5t-191 -17.5q-213 0 -361.5 62.5t-242.5 162t-137 221t-43 240.5z" />
<glyph unicode="D" horiz-adv-x="1599" d="M88 1321q57 0 135 2t166 4q49 0 89 1t76 2t69.5 2t72.5 1q55 0 129 -6t156 -25.5t163 -56.5t152 -100q225 -201 226 -483v-3q0 -41 -10.5 -94t-33 -109.5t-60.5 -114.5t-93 -110q-53 -51 -99 -83.5t-88 -55t-82 -37t-81 -26.5t-78 -19.5t-74 -11.5t-80 -5t-96 -1 q-41 0 -95 1t-105.5 3t-91.5 3t-54 1h-107.5t-93.5 -2q0 14 -2 36.5t2 31.5q61 25 84 39t25 42q4 57 6 146.5t2 193v211v199.5v127t-1 80t-2 46t-1 26q-2 23 -22.5 40t-92.5 29q-4 2 -5 11.5t-3 37.5zM479 743q0 -223 4 -374.5t27 -241.5q6 -25 29 -33q35 -12 67.5 -19 t67.5 -7q59 0 132 21.5t161 74.5q123 78 185 218t62 302q0 82 -17 151.5t-45 126t-63.5 99.5t-74.5 74q-47 37 -97.5 60.5t-97.5 35.5t-89 17t-73 5h-2q-12 0 -32.5 -3t-43 -7t-42 -10t-27.5 -14q-14 -8 -18 -41q-2 -27 -4.5 -75t-4.5 -106.5t-3 -124t-1 -129.5z" />
<glyph unicode="E" horiz-adv-x="1253" d="M63 1270l7 45q0 6 1 9t11 3h65q47 0 123 -3t193 -3h168q131 0 226 6t192 6q39 0 49 -10q4 -6 9 -17.5t1 -37.5q-16 -88 -19.5 -156t-3.5 -115q-51 -2 -61 3.5t-14 15.5q-23 61 -41.5 103t-41 67.5t-50 37t-66.5 11.5h-88q-92 0 -136 -2t-63 -4q-29 -2 -34 -25.5t-5 -42.5 v-210t2 -201q0 -41 21 -41h98q68 0 111 1t74 3q41 2 66.5 9t44 22.5t30.5 41t29 66.5q4 8 30.5 11t48.5 -1q-2 -18 -5 -47t-5 -60.5t-4 -63.5t-2 -58q2 -59 4 -97t8 -92q-6 -2 -18 -4t-29 -2q-25 -2 -33 13q-4 14 -14 43.5t-18 46.5q-10 35 -38 52t-81 21q-41 4 -82 4h-107 q-47 0 -65.5 -1t-28.5 -3q-20 -4 -22 -20q-4 -10 -9.5 -83t-5.5 -196v-78.5t2 -52t5.5 -33t9.5 -20.5q10 -16 35.5 -24.5t57.5 -13.5t67.5 -6t66.5 -1q74 0 134.5 9t109.5 38t87 81t66 138q6 4 30 3t32 -3q4 0 5 -2t1 -14q-2 -45 -9 -94t-16.5 -94.5t-21.5 -81t-23 -56.5 q-8 -16 -22 -16h-28.5t-65.5 2q-43 2 -140.5 3t-232.5 1q-158 0 -297 -4t-252 -8q-8 4 -8 24.5t4 32.5q2 12 10 14q74 16 96.5 27.5t24.5 42.5q2 20 8 117.5t6 238.5v465q0 66 -2 110t-4 71.5t-4 42t-4 18.5q-2 12 -5 23.5t-20 15.5q-16 4 -41.5 10t-76.5 16q-8 2 -7 13z " />
<glyph unicode="F" horiz-adv-x="1171" d="M70 1257q0 8 2 24.5t6 33.5q4 10 22 10q6 0 35 -1t69 -1t83 -1t73 -1h381h98.5t93.5 2t79 4t53 6q16 0 16 -30q-4 -102 -5 -181.5t-1 -97.5q0 -8 -4 -12t-20 -2q-35 4 -43.5 7t-10.5 9q-16 76 -47.5 121t-72.5 63q-35 16 -84.5 20.5t-135.5 4.5q-47 0 -72.5 -2t-58.5 -8 q-20 -4 -27 -18.5t-12 -61.5q-6 -66 -8 -137.5t-2 -133t1 -103.5t1 -48q0 -16 4 -24.5t9 -8.5q16 -2 43.5 -3t87.5 -1q72 0 112.5 2t65.5 4q33 2 51 6t30.5 16.5t19.5 35t18 59.5q2 6 14 10t25.5 7t25.5 2t16 -5q0 -53 -1 -96t-1 -86t5.5 -100.5t5.5 -91.5q-8 -8 -37 -10.5 t-39 1.5q-10 43 -20.5 74t-32.5 47q-14 10 -33 16.5t-46.5 10.5t-67.5 5t-97 1h-86t-49 -2q-12 -2 -20.5 -21.5t-8.5 -70.5v-127q0 -74 3 -128.5t7 -88.5q6 -51 51.5 -64.5t147.5 -21.5q10 0 12 -4.5t0 -14.5l-20 -57h-53q-63 0 -129 3t-140 3q-31 0 -70.5 -1t-74.5 -2 t-61.5 -2t-28.5 -1q-18 0 -21 16q-10 47 0 62h41q39 0 51.5 8t16.5 39q2 29 5 81t5 117.5t4 139t2 147.5v203q0 109 -2 187.5t-6 150.5q-2 33 -6 51t-18.5 28.5t-42 17.5t-76.5 15z" />
<glyph unicode="G" horiz-adv-x="1554" d="M78 668v2q0 160 54 276.5t142 198.5q74 68 154 106.5t186 67.5q92 25 173 31t139 6q29 0 66.5 -2t75.5 -7.5t74 -11.5t60 -12q12 -4 19.5 -5t11.5 5l20 31q2 10 17 8l45 -10q6 -2 9 -5.5t3 -13.5q2 -45 6 -93t9.5 -90t10.5 -75t9 -47q6 -43 0 -47q-4 -4 -11.5 -5 t-29.5 -1h-10q-16 0 -33 26q-66 117 -178.5 194t-261.5 77q-78 0 -141.5 -25.5t-121.5 -83.5q-37 -35 -71.5 -83t-62 -109.5t-44 -138t-16.5 -168.5q0 -53 8 -110.5t27.5 -117t53.5 -116t85 -105.5q49 -47 98 -78t94.5 -49t85 -25.5t68.5 -7.5q33 0 71 13.5t66 33.5 q31 23 45.5 86.5t14.5 180.5q0 66 -2 107.5t-9.5 67t-23.5 38t-43 18.5q-6 2 -23.5 5t-36 6t-35 7.5t-22.5 6.5q-25 8 -33 18t-10 41q0 14 21 14q113 0 207 -4t172 -4q76 0 124 3t76 5q4 -10 3 -38.5t-3 -49.5q-16 -4 -41.5 -7t-40.5 -7q-4 -16 -8 -137t-6 -365 q0 -37 -8 -52t-25 -30q-12 -12 -30.5 -15t-24.5 -3q-35 0 -65.5 -1t-96.5 -5q-53 -4 -103 -8.5t-110 -4.5q-199 0 -356.5 50.5t-265.5 154.5q-86 80 -143.5 203t-57.5 285z" />
<glyph unicode="H" horiz-adv-x="1724" d="M72 1260q-4 23 10 55q2 6 18 6h211h86t82 2q37 2 73 3t71 3q4 -8 6 -34.5t-2 -34.5q-20 -4 -43 -9.5t-41.5 -13.5t-31.5 -19.5t-15 -27.5q-2 -14 -4.5 -35.5t-4.5 -56.5t-3 -85t-1 -122q0 -61 1 -96t5.5 -52.5t10.5 -21.5t16 -4h445h81.5t76.5 1t60.5 2t34.5 3 q16 4 20.5 15.5t4.5 47.5v181q0 72 -1 117.5t-1 74.5q-2 53 -38 68.5t-126 25.5q-4 2 -3 13.5t3 24t5 23.5t7 11q78 0 153 -2t153 -2q23 0 56.5 2t68.5 4q35 4 61.5 3t30.5 -1q20 2 26 1t11 -5q8 -20 11 -31.5t3 -23.5q-43 -8 -71.5 -15.5t-46 -18.5t-26 -26.5t-10.5 -40.5 t-4 -97.5t-2 -207.5v-370q0 -63 1 -110.5t2 -84.5t3 -65.5t4 -53.5q2 -43 30 -64.5t124 -31.5q2 -4 1 -16.5t-5 -25.5t-9 -24.5t-10 -11.5h-303q-66 0 -106.5 -1t-66 -2t-40 -2t-26.5 -1q-14 0 -15 6l2 66q78 8 105 21t33 32q8 23 12 89.5t4 186.5v162q-2 10 -4 19.5 t-10 17.5q-4 2 -9.5 5t-25 4t-58 2t-106.5 1h-270h-108t-67.5 -1t-40 -2t-22.5 -3q-23 -4 -28 -13t-5 -26v-202.5t4 -147.5q4 -51 7.5 -68.5t13.5 -31.5q12 -16 41 -24.5t100 -22.5q12 0 13 -9q0 -14 2 -37.5t-2 -31.5q-43 2 -94.5 4t-102.5 3t-100.5 1h-85.5 q-86 -2 -124 -5t-53 -3q-8 0 -14 6q-4 14 -10 32.5t-4 28.5q39 14 64.5 24.5t42 21t23.5 23.5t9 34q2 23 4 90t2 211v373q0 145 -3 214.5t-5 110.5q-2 20 -6 35.5t-17.5 27t-41 19.5t-76.5 17z" />
<glyph unicode="I" horiz-adv-x="749" d="M51 66q86 8 124 21t52 58q2 12 6.5 33t8.5 62t6 107.5t2 168.5v406q0 104 -1 164.5t-9.5 93t-23.5 44t-42 15.5q-23 4 -46.5 6t-43.5 2q-16 0 -16 17q0 4 2 14t8 25q10 16 16 16q12 2 26.5 2h37.5q12 0 29.5 -1t47 -1h74.5h113q37 0 78 1t75.5 1t60.5 1t34 1q20 0 24 -2 t6 -6l21 -60q-66 -8 -103.5 -16t-57 -16.5t-27 -18.5t-9.5 -24q-4 -14 -6 -37t-4 -61t-3 -93t-1 -133v-321q0 -119 4 -226.5t14 -165.5q8 -49 43 -55q10 -2 40 -7t63 -11q14 0 14 -11q0 -10 -3 -32.5t-7 -32.5q-113 4 -184.5 5t-137.5 1q-123 0 -195.5 -4t-76.5 -4 q-20 0 -25 16q-2 10 -6 28.5t-2 29.5z" />
<glyph unicode="J" horiz-adv-x="684" d="M-215 -358q0 35 16 51q45 45 82 67q19 16 37 16q13 0 25 -9q41 -23 73.5 -42.5t73.5 -19.5q23 0 45.5 6t38.5 23q27 23 41 59.5t14 122.5v475v371q0 141 -2 222t-6 122q-4 47 -9 73.5t-21.5 40t-48 19.5t-89.5 10q0 12 5.5 29.5t9.5 28.5q6 18 26 18q33 0 104.5 -2 t137.5 -2q33 0 73 1t78.5 3t69.5 3t47 1t19 -8l8 -64l-70 -14q-68 -6 -74 -51q0 -18 -1 -42t-2 -60.5t-1 -93v-138.5v-278q0 -123 -2 -264.5t-2 -268.5q0 -68 -13 -103.5t-28 -62.5q-25 -47 -65.5 -89t-87.5 -80t-96.5 -70.5t-92.5 -59.5q-10 -6 -27.5 -14t-38 -14.5 t-42 -11.5t-39.5 -5q-37 0 -78 13.5t-63 33.5q-25 23 -25 58z" />
<glyph unicode="K" horiz-adv-x="1501" d="M68 30.5q0 12.5 1 22.5t5 13q45 6 86 20q18 4 30.5 17.5t18.5 44t9 84t3 139.5v561q0 90 -1 143t-6 83t-12 42t-20 21q-20 14 -49 21t-55 11q0 8 6 35t12 37q59 0 119.5 -2t120.5 -2q135 2 196.5 5t71.5 3q20 0 25 -8q4 -10 6 -28.5t2 -26.5q-61 -16 -89 -25.5t-44 -19.5 q-6 -4 -12.5 -15.5t-9.5 -35t-5 -62.5t-2 -98v-277q0 -18 3 -24.5t14 -3.5q14 2 44.5 23.5t63.5 47.5q39 33 90 80t104.5 99.5t104.5 104.5t90 95q39 41 44 57.5t-5 18.5q-16 2 -45 4t-57 6l2 68q0 6 2 8l6 6q92 0 177 1t150.5 2t106.5 3t47 2q10 0 10 -14q-8 -39 -15 -47 t-19 -13q-78 -23 -129.5 -47t-94.5 -53q-59 -43 -157.5 -127t-257.5 -225q-18 -18 -2 -45q111 -129 226.5 -253t231.5 -255q47 -53 90 -93t91 -59q35 -14 56 -22t44 -15q23 -8 12 -26l-22 -45q-109 6 -253 8q-72 1 -163 1t-201 -1v70q8 2 38 9t48 11q16 4 24.5 12.5 t-5.5 24.5q-47 57 -108.5 130t-120 139.5t-104.5 118.5t-61 69q-33 37 -54 42t-32 5q-14 0 -14 -29v-143q0 -88 1 -146.5t3 -94.5t4 -53.5t4 -25.5q4 -29 33 -41t113 -28q12 -4 8 -21l-10 -55q-20 0 -42 1t-54.5 2t-79.5 2t-119 1q-39 0 -81 -1t-79 -2t-64.5 -2t-39.5 -1 q-2 2 -3 13t-1 23.5z" />
<glyph unicode="L" horiz-adv-x="1202" d="M52 1245q-3 8 1 25l15 43q2 8 8 8q58 -2 118 -3h40q40 0 81 1q98 2 189.5 6t163.5 8q4 0 7 -10t5 -23.5t3 -24.5t1 -15q-29 -6 -58.5 -11.5t-55 -14.5t-44 -24.5t-22.5 -42.5q-4 -20 -7 -47.5t-4 -68.5t-1 -99.5v-138.5l2 -256q0 -111 1 -181.5t2 -114.5t2 -66.5t3 -36.5 q2 -29 10 -41.5t33 -20.5t54.5 -11t98.5 -3q106 0 194.5 22.5t135.5 102.5q12 20 23.5 52t21.5 81q4 14 21 14h2q8 0 27.5 -7t29.5 -11q4 -4 9 -11.5t1 -15.5q-25 -80 -40 -147.5t-27 -128.5q-4 -20 -12.5 -26.5t-24.5 -10.5q-14 -2 -39 -2h-90q-31 0 -69 1t-98.5 2 t-151.5 2t-228 1q-94 0 -168 -5t-109 -9q-25 0 -28 4q-4 12 -9.5 33.5t-0.5 31.5q66 12 109.5 34t51.5 63q2 14 4.5 34.5t4.5 53t3 82t1 120.5v404q0 129 -5.5 213t-13.5 133q-2 14 -8 23.5t-23.5 14.5t-47.5 7q-15 1 -36.5 1t-48.5 -1q-4 0 -7 8z" />
<glyph unicode="M" horiz-adv-x="1847" d="M60.5 36.5q-3.5 24.5 0.5 33.5q59 6 90 27.5t42 86.5q14 106 18 230.5t10 269.5l19 469v6q0 51 -36 69q-38 18 -130 32q2 8 7 23t13 28q4 4 6 9t13 5q8 0 34.5 -1t58.5 -1t65.5 -1t56.5 -1q39 0 74.5 1t56.5 1q4 -35 14 -63.5t21 -47.5q33 -72 86 -170t113.5 -205.5 t122 -215t114.5 -199.5q14 -27 28 2q49 94 102.5 199.5t106 210t100.5 203t83 177.5q6 16 12 46t10 61q59 0 120.5 1t115 2t93.5 2t58 1q2 -8 2 -35.5t-2 -40.5q-41 -4 -66.5 -9t-40 -14t-20.5 -22.5t-6 -36.5q-2 -33 -2 -71.5v-93t1 -128t3 -171.5q2 -70 2 -144v-137.5 v-111.5t2 -66q4 -53 8.5 -83t16.5 -46.5t37.5 -25.5t72.5 -17q4 0 7.5 -19.5t3.5 -34.5q0 -16 -13 -16h-213q-20 0 -56 -1t-78 -2t-84 -4t-74 -7v49q0 27 14 29q31 8 48 14t26.5 15t12.5 24.5t7 44.5q2 20 3 60t3 133.5t5 256t10 428.5q0 16 -9.5 12.5t-13.5 -14.5 q-6 -8 -24.5 -47t-46 -95t-60.5 -125.5t-64.5 -140.5t-62.5 -136.5t-53 -114.5q-74 -158 -104.5 -229.5t-39.5 -85.5q-16 -39 -26.5 -53.5t-30.5 -14.5q-16 0 -27 23q-10 12 -42.5 78.5t-73.5 156.5q-139 293 -235.5 486.5t-153.5 316.5q0 -74 -1.5 -160t-1.5 -176v-180 t3 -172q2 -92 4 -153.5t6 -90.5q10 -29 31.5 -42t76.5 -24q33 -6 35 -16l4 -59q-107 6 -201 7h-63q-64 0 -129 -1q-16 0 -20 12q-2 6 -5.5 30.5z" />
<glyph unicode="N" horiz-adv-x="1599" d="M41 1278v51q35 -2 63.5 -3t64.5 -2t86 -2t130 -1q31 0 41 -8q16 -12 16 -29q2 -12 17.5 -37.5t36 -51.5t40 -49.5t29.5 -31.5q78 -80 253 -254t468 -442q2 27 4 55.5t3 62t1 75.5v100q0 160 -3 261t-11 156q-2 14 -4 31t-6 31t-13.5 24.5t-23.5 14.5q-8 2 -25.5 4t-36 4 t-35 4t-20.5 4q-8 4 -11 7t-3 14l-4 55h233q57 0 123 5t100 5q8 0 16.5 -2t10.5 -6l12 -53q-53 -16 -76.5 -23.5t-43.5 -19.5q-16 -10 -28.5 -29.5t-20 -57.5t-13.5 -99.5t-10 -155.5q-4 -76 -5 -140.5t-3 -125t-2 -122v-128.5q0 -141 3 -226.5t3 -107.5q0 -27 -12.5 -42.5 t-59.5 -39.5q-16 -10 -33 14q-82 121 -193.5 250t-273.5 293l-289.5 289.5t-191.5 185.5q-2 -55 -5 -139t-5 -174v-113t1 -153.5t5 -151.5t12 -102q6 -23 26.5 -37.5t47.5 -23.5t52.5 -15t41.5 -8l15 -58q2 -4 -5.5 -11t-11.5 -7q-53 0 -126 4t-134 4q-53 0 -100 -2t-70 -4 q-4 18 -10 36.5t-12 35.5q49 10 76.5 19t41 21.5t18.5 30t9 43.5q2 18 6 59.5t7 98.5t6 125.5t3 142.5v228q0 102 -2 165.5t-7 99.5t-11 53t-14 28q-29 35 -58.5 49t-77.5 24q-23 8 -22 25z" />
<glyph unicode="O" horiz-adv-x="1617" d="M78 678q0 133 54 259t165 224q104 98 243.5 147.5t280.5 49.5h2q143 0 273.5 -51.5t228.5 -141.5t156.5 -212t58.5 -261q0 -190 -71.5 -328.5t-170.5 -222.5q-57 -49 -116.5 -82.5t-116.5 -55t-109.5 -31t-91.5 -9.5q-176 0 -339 64.5t-273 187.5q-78 86 -126 212 t-48 251zM381 698q0 -150 45 -273.5t117 -201.5q90 -100 173 -138t175 -38q61 0 122.5 37t112 107.5t82 175t31.5 239.5q0 70 -7 140.5t-24.5 138t-48.5 129t-76 114.5q-49 55 -127.5 103.5t-181.5 48.5h-2q-78 0 -147.5 -37t-122.5 -102q-68 -86 -94.5 -193.5t-26.5 -249.5 z" />
<glyph unicode="P" horiz-adv-x="1257" d="M57 1278q0 6 5.5 26.5t9.5 24.5q16 0 55 -1t85 -3t90 -3t71 -1q20 0 61 1t84 1t80 1t49 1q84 0 187.5 -21.5t205.5 -97.5q43 -33 72 -72.5t46.5 -78.5t23.5 -75t6 -58q0 -98 -38 -168t-101 -131q-43 -43 -100.5 -73t-121 -48.5t-129 -27.5t-123.5 -9h-86q-10 0 -13 -5 t-3 -28q0 -59 3 -116.5t7 -104.5q4 -43 16.5 -72.5t55.5 -40.5q14 -4 46 -11t87 -17q14 0 14 -15q0 -41 -6 -59q-139 2 -206.5 3t-102.5 1q-88 0 -162.5 -3t-134.5 -5q-14 0 -17 4t-3 14l-4 58q43 4 70.5 9t45 15t25.5 27.5t12 46.5q4 23 8 97.5t4 205.5v348q0 172 -3 266.5 t-13 135.5q-2 8 -7 15t-18.5 11t-39 6t-68.5 2q-25 0 -25 25zM477 606q0 -37 21 -45q20 -10 47.5 -14t58.5 -4t68 8t57 18q47 20 80 56.5t54.5 80.5t31.5 96t10 107v2q0 27 -8 83.5t-39 112.5t-92 98t-168 42q-35 0 -58.5 -9t-29.5 -13q-20 -14 -23 -54q-2 -29 -4 -106.5 t-3 -166.5t-2 -172t-1 -120z" />
<glyph unicode="Q" horiz-adv-x="1626" d="M78 635q0 55 9 121.5t37 137.5t79 145.5t135 146.5q43 37 103.5 68.5t126 54t132 36t121.5 13.5h2q55 0 126 -10.5t144.5 -35t143.5 -62.5t123 -93q106 -111 147 -240t41 -237q0 -68 -15 -141.5t-46 -144t-77 -134t-107 -113.5q-106 -82 -164 -109.5t-68 -31.5 q-14 -4 -18 -17.5t0 -23.5q20 -43 56 -88t81 -87t95 -75.5t99 -52.5q68 -29 121.5 -35t102.5 -6q63 0 106 6t51 8q10 0 17.5 -4t15.5 -20q4 -12 -6 -28.5t-33 -26.5q-14 -6 -51 -16.5t-83 -19.5t-96 -15.5t-93 -6.5q-51 0 -122 10.5t-140 34.5q-86 29 -156 75t-129 101 q-55 53 -101.5 112.5t-87.5 107.5q-10 10 -32.5 24t-40.5 21q-12 2 -50 15t-87.5 32.5t-100.5 47t-86 60.5q-39 37 -79 84t-72.5 108.5t-53 137.5t-20.5 166zM383 659q0 -49 7 -105t21.5 -111.5t37 -105.5t53.5 -87q88 -111 182 -164t164 -53q18 0 47 7t62.5 23.5t69.5 45 t69 69.5q66 80 106.5 198t40.5 277q0 111 -21.5 212.5t-91.5 209.5q-66 100 -153.5 148.5t-196.5 48.5h-2q-53 0 -107.5 -20.5t-99.5 -59.5q-98 -82 -143 -217t-45 -316z" />
<glyph unicode="R" horiz-adv-x="1392" d="M72 1305q-2 10 5 13t17 3q68 2 140.5 3t140.5 3q47 2 82 4t63.5 4t54 2h54.5q104 0 197.5 -17t189.5 -81q63 -41 104 -112.5t41 -137.5q0 -68 -22.5 -117t-55 -84.5t-68.5 -59t-63 -40.5q-6 -4 -10 -17.5t0 -23.5q10 -41 45 -121t90 -170q31 -51 70 -100t82 -92t89 -77 t91 -52q18 -8 20.5 -21.5t-2.5 -36.5q-2 -16 -11 -20t-15 -4q-143 8 -258 49t-213 141q-63 66 -107.5 146t-83.5 170q-25 53 -56.5 83.5t-107.5 30.5q-25 0 -42 -1t-33 -5q-8 -2 -12.5 -14t-4.5 -23q0 -135 2 -219t4 -143q2 -29 6.5 -38t12.5 -15t27.5 -11.5t44 -10.5t49 -9 t43.5 -10q4 -8 0 -36t-10 -34q-2 -4 -33 -4h-47t-91.5 1t-107.5 1h-94q-53 0 -88 -3t-74 -3q-29 0 -31 6q-4 12 -9 33.5t-1 32.5q33 8 65.5 18t47.5 25q18 23 24 125t6 301v256q0 45 -1 94t-2 94t-2 83t-1 62q0 29 -4 45.5t-17.5 27.5t-41 19.5t-76.5 22.5zM482 752.5 q-1 -41.5 1 -62t5.5 -24.5t9.5 -7q12 -4 35.5 -4h52.5q68 0 125 20.5t94 67.5q29 39 46 95.5t17 124.5v2q0 66 -20.5 120t-54 91.5t-77.5 59t-89 21.5q-31 0 -49.5 -4t-45.5 -14q-31 -12 -36 -43q-6 -47 -8.5 -118.5t-4.5 -205.5q0 -78 -1 -119.5z" />
<glyph unicode="S" horiz-adv-x="1146" d="M78 367q-2 16 10 18q10 2 20.5 3t18.5 1q20 0 29 -20q10 -23 21 -53.5t38 -65.5q29 -41 69 -77t85 -63.5t91 -44t89 -16.5q55 0 102 17.5t82 50.5t54.5 79t19.5 101q0 47 -27.5 95t-74.5 77q-25 16 -66 41t-127 61q-109 47 -183.5 93.5t-129.5 111.5q-31 35 -53.5 92.5 t-22.5 135.5q0 104 52 173.5t124 110.5q39 23 123 44.5t194 21.5q43 0 96.5 -4t82.5 -9q16 -4 31.5 -4t33.5 -2h5q29 0 44 41h43t27 -2q-2 -40 -2 -80t2 -80q4 -80 20 -176q4 -14 1 -20t-9 -10q-16 -10 -25.5 -17.5t-23.5 -13.5q-4 -2 -9 2t-9 14q-27 72 -52.5 118t-74.5 83 q-39 31 -102.5 53.5t-125.5 22.5q-41 0 -75.5 -16.5t-60 -44t-41 -62.5t-15.5 -72q0 -90 57 -145q35 -35 78 -63.5t127 -63.5q104 -45 183 -86t128 -88q63 -61 90 -122t27 -147q0 -115 -55.5 -194.5t-137.5 -122.5q-41 -23 -91 -37t-100 -24.5t-95 -14.5t-72 -4 q-59 0 -126.5 8.5t-121.5 22.5q-23 6 -39 0q-14 -8 -34 -31q-10 -8 -20.5 -10t-20.5 -2h-2q-12 0 -27 8q-4 4 -7 20.5t-5 57.5q-4 80 -12.5 157.5t-22.5 172.5z" />
<glyph unicode="T" horiz-adv-x="1470" d="M29 1077q16 47 49 128t74 214q12 4 43 -2q12 -4 14 -6t4 -10q6 -37 12 -50.5t19 -17.5q12 -4 34.5 -6t57.5 -4q20 0 59 -1t92.5 -1h119h136.5q174 0 284 3t179 7q35 2 57.5 4t36.5 6t30 20.5t26 37.5q8 12 16 12q12 0 22.5 -4t26.5 -10q12 -6 4 -29q-14 -43 -22 -75.5 t-13.5 -66.5t-8.5 -74t-7 -97q0 -8 -4 -12.5t-20 -4.5q-27 0 -41 6q-16 4 -17 17q0 2 1 16.5t1 31.5t1 33.5t1 26.5q0 27 -30 43q-14 8 -91 13.5t-182 5.5h-75q-16 0 -28.5 -11.5t-12.5 -27.5q0 -29 -2.5 -120t-2.5 -284v-210q0 -100 1 -170t3.5 -117t5.5 -74t5 -39 q6 -25 18.5 -47t34.5 -33q10 -4 30.5 -9t45 -9t49.5 -7t43 -5q18 0 12 -19l-8 -43q-2 -6 -6 -9t-27 -3q-25 0 -62.5 1t-79.5 2t-86 2t-83 1q-55 0 -114.5 -1t-109.5 -3t-85 -3t-41 -1q-20 0 -25 16l-10 55q27 4 62.5 8.5t58.5 12.5q33 8 55.5 24.5t28.5 55.5q2 16 12 124.5 t10 307.5v211v218t-1 129t-3 61.5t-4 15.5h-94q-135 0 -226.5 -17.5t-111.5 -29.5q-14 -10 -27.5 -44t-40.5 -110q0 -4 -8 -3t-18 5q-16 10 -29.5 19.5t-17.5 25.5z" />
<glyph unicode="U" horiz-adv-x="1556" d="M88 1260l2 40q2 18 9 22.5t28 4.5q16 0 48 -1t66.5 -3t65.5 -2h47q78 4 153 7t150 3q16 0 17 -8q0 -10 1 -31.5t-7 -36.5q-37 -6 -67 -11t-52.5 -13t-36.5 -20.5t-18 -36.5q-4 -27 -8.5 -74t-7.5 -111q0 -43 -1.5 -100.5t-2.5 -120.5t-2 -129t-1 -123q0 -111 28.5 -187.5 t104.5 -135.5q49 -41 124 -60.5t155 -19.5q106 0 169.5 38.5t94.5 79.5q59 78 80.5 191t21.5 248q0 158 -1 291t-11 204q-4 27 -12 43.5t-28.5 24.5t-58.5 10t-102 2q-4 0 -10 8.5t-4 22.5q6 8 15.5 17.5t13.5 19.5q4 4 12 6t14 2h189q31 0 65.5 1t67.5 1t59.5 1t42.5 1 q8 0 8 -3t-4 -24l-18 -38q-33 -10 -64 -17q-16 -4 -24 -15t-17 -40q-4 -14 -7 -49t-6 -97.5t-7 -158t-8 -230.5q-4 -166 -30 -270t-83 -186q-80 -111 -199.5 -172.5t-259.5 -61.5q-90 0 -159.5 13.5t-121.5 34t-88 45t-57 44.5q-92 88 -119.5 183.5t-29.5 216.5q0 47 -1 92 v45v47q1 47 2 101.5t3 119.5q2 103 3 163v53v38q-1 31 -5 41t-12 19q-16 12 -41 20t-68 21z" />
<glyph unicode="V" horiz-adv-x="1538" d="M51 1266l23 53q4 10 9 11t11 1q37 -4 80 -5t84 -3t74 -2h49q53 0 104.5 2t104.5 2q8 0 12 -6t0 -33q-4 -23 -6 -30t-10 -9q-33 -4 -51.5 -9t-26.5 -14.5t-7 -23.5t7 -39q6 -18 13 -39.5t20.5 -56.5t36 -89t57.5 -136q66 -158 117 -277t102 -227q4 -10 14.5 -7t16.5 13 q29 57 92 198.5t145 340.5q25 59 56.5 144t70.5 192q4 14 -12 21t-47 9l-86 4q-6 0 -10 4.5t0 8.5q16 41 21 52t15 11q18 0 46 -1t58 -2t58.5 -2t48.5 -1q31 0 74 3t78 3q29 0 36 -19.5t7 -45.5q0 -16 -16 -15l-58 -4q-14 -2 -23 -6t-24 -14q-18 -14 -48 -69.5t-75 -143.5 q-14 -29 -41.5 -86.5t-62.5 -132t-74 -159.5t-78 -171t-73.5 -167t-59.5 -144q-14 -35 -37 -74q-12 -20 -24.5 -47t-28.5 -52q-4 -6 -10 -10t-23 -4q-51 0 -59 19q-6 8 -24.5 47t-55.5 133q-135 348 -240.5 577.5t-148.5 325.5q-29 63 -47.5 99t-39 56.5t-47 28.5t-67.5 17z " />
<glyph unicode="W" horiz-adv-x="2148" d="M23 1268q2 10 7 21t9 18q8 18 47 18q12 0 35.5 -1t50.5 -1t53.5 -1t46.5 -1q68 0 134.5 2t134.5 2q8 0 14 -8t9 -19.5t5 -21.5t2 -14q0 -14 -18 -17q-61 -6 -77.5 -15t-10.5 -36q4 -16 12 -45t19 -57q35 -92 70.5 -180.5t72.5 -176.5t77 -179t85 -189q4 -6 11 -11.5 t11 2.5q16 33 44 97.5t58.5 140.5t61.5 152.5t53 134.5q4 12 6.5 26.5t-4.5 30.5q-25 66 -39 108t-24 68.5t-17.5 43t-15.5 30.5q-16 35 -39.5 45t-91.5 14q-12 0 -10 17q4 37 15 48t28 11q18 0 37.5 -1t45 -1t60.5 -1t84 -1q81 0 143 4q41 3 63 3q11 0 17 -1q6 -2 12.5 -12 t9.5 -21.5t4 -22.5t-1 -14q-43 -6 -65.5 -11t-30.5 -15t-5 -26.5t13 -43.5q61 -178 133 -379.5t164 -412.5q2 -4 9 -2t11 6q10 20 37 82.5t60.5 144.5t69.5 175t64.5 179t48 154t19.5 98q0 14 -13 21.5t-34 11.5q-39 6 -59.5 10t-34.5 8q-12 2 -12 17q0 16 5 35.5t17 19.5 q8 0 34 -1t58.5 -3t67.5 -3t62 -1q66 0 100.5 1t58.5 3q12 0 27.5 -4t19.5 -21l4 -26q2 -16 -10 -17q-47 -4 -73.5 -14t-47 -33.5t-40 -65.5t-52.5 -112q-23 -47 -60.5 -138t-83.5 -202.5t-95.5 -233.5t-94.5 -233q-16 -43 -43.5 -99t-60.5 -134q-6 -16 -26.5 -22.5 t-30.5 -6.5q-23 0 -32 11.5t-16 33.5q-10 29 -24 73t-41 116q-14 39 -37.5 106.5t-53.5 148t-60.5 164.5t-61.5 154q-14 -31 -41 -90t-61.5 -136t-73.5 -165l-78 -176q-23 -49 -42 -97.5t-46 -107.5q-8 -18 -14.5 -24.5t-10.5 -8.5q-10 -2 -23 -2h-34q-14 1 -22 21 q-10 23 -36 97.5t-73 188.5q-47 117 -128 316.5t-192 460.5q-25 61 -43 98t-37.5 57.5t-45 29.5t-64.5 15q-10 2 -15 5t-5 16z" />
<glyph unicode="X" horiz-adv-x="1521" d="M54 43.5q1 19.5 5 26.5q72 4 107 26.5t76 67.5q29 31 83 92t113.5 129t114.5 131.5t86 99.5q10 10 6 18.5t-10 18.5q-20 31 -69.5 100.5t-106 146.5t-108.5 147.5t-81 107.5q-20 27 -36.5 43t-34 25.5t-39 14.5t-51.5 7h-9.5t-3.5 10q0 16 5 43t22 27q63 0 137 -2t133 -2 t118.5 4t119.5 4q20 0 22 -8l11 -51q4 -16 -2.5 -20.5t-22.5 -4.5h-68q-24 0 -24 -17q0 -14 16 -40q12 -18 26.5 -42t42 -64t73 -104.5t118.5 -166.5q25 29 56.5 69t62.5 80.5t57.5 76.5t42.5 59q23 35 38.5 62.5t13.5 43.5q-4 16 -23.5 23.5t-69.5 13.5q-29 2 -28 18l-4 70 q12 0 47 -1t74.5 -2t76.5 -2t54 -1q39 0 90 2t96 2q25 0 32 -9t17 -46v-12.5t-10 -10.5q-43 -4 -73 -10t-56.5 -19.5t-52 -36t-60.5 -59.5q-139 -152 -215 -248t-102 -129q-14 -12 0 -32q143 -213 248.5 -351.5t140.5 -179.5q27 -31 49.5 -50t46 -31.5t48 -18.5t59.5 -12 v-62q0 -14 -17 -14q-14 0 -95 3t-196 3q-121 0 -182 -3t-80 -3q-23 0 -26 10q-8 12 -11.5 29.5t-3.5 23.5q0 12 17 13q10 2 31.5 5t50.5 13q24 5 24 21q0 15 -28 57q-18 25 -54.5 78t-76 111.5t-76.5 112.5t-58 81q-61 -82 -117.5 -152.5t-95.5 -126.5q-47 -66 -67.5 -103.5 t-20.5 -57.5q2 -12 14.5 -18.5t30 -10.5t38 -5t38.5 -1q14 0 14 -8q2 -14 1 -40t-7 -36q-59 4 -114.5 6t-100.5 3t-75.5 1h-42.5q-27 0 -63 -1t-52 -3q-10 -2 -14.5 -1t-6.5 11q-4 18 -3 37.5z" />
<glyph unicode="Y" horiz-adv-x="1361" d="M43 1280.5q0 19.5 2 30.5q2 14 10 14q88 0 153.5 -2t106.5 -2q51 0 90 1t78 5q31 4 49.5 4h30.5q8 0 10 -2t2 -16v-2q0 -18 -3 -37t-9 -23q-20 -4 -37.5 -7t-33.5 -7q-18 -4 -23.5 -13.5t10.5 -37.5q29 -51 65 -108.5t70.5 -110t61 -93t37.5 -57.5q10 -16 18 -27.5 t19 -21.5q4 -4 16 -6t18 8q47 72 81 124t57.5 91t39 64.5t25.5 44.5q14 25 28.5 58.5t14.5 49.5q0 18 -36 25.5t-97 17.5l-10 47q-4 16 2 22.5t10 6.5q8 0 38 -1t66.5 -1h76.5h69q59 2 107.5 4t72.5 2q16 0 21.5 -1t9.5 -7q2 -6 3 -31.5t-7 -34.5q-41 -4 -68.5 -12 t-50.5 -21.5t-43 -36t-47 -55.5q-86 -109 -165 -224.5t-138 -209.5q-23 -37 -32 -58.5t-9 -60.5v-172q0 -53 3 -110.5t7 -110.5q2 -37 9 -56.5t27.5 -29.5t61.5 -17t115 -16q0 -14 -5 -31.5t-11 -31.5q-4 -4 -10.5 -6t-26.5 -2q-18 0 -51 2t-78 3t-96.5 3t-106.5 2 q-31 0 -70 -1t-77.5 -2t-69.5 -2t-43 -1q-18 0 -21 8q-4 6 -9 25.5t-5 27.5q0 6 4 7t12 4q72 8 105 19t47 30q16 16 22.5 64t6.5 159v235q0 23 -5.5 47.5t-27.5 59.5q-158 254 -242 386t-110 161q-10 10 -31 13q-13 2 -35 2q-14 0 -33 -1q-12 0 -14 10t-2 29.5z" />
<glyph unicode="Z" horiz-adv-x="1476" d="M61 899q14 72 36 151.5t42.5 150.5t37 124t22.5 76q6 16 16 16q6 0 29.5 -3t38.5 -7q2 -43 4 -58.5t16 -19.5q31 -2 115 -5t219 -3h276q115 0 214.5 4t168.5 8q25 2 35 1t21 -1q12 0 8 -22q-10 -49 -29.5 -75t-52.5 -60q-37 -41 -79 -91.5t-93 -116t-116.5 -150.5 t-147.5 -197q-70 -94 -125 -169t-101.5 -136.5t-84 -112.5t-72.5 -99q4 -2 17 -5t45 -6t87.5 -5t145.5 -2q129 0 208.5 7t128 19.5t74 30t45.5 37.5q33 35 69 98.5t73 163.5q4 18 39 19q23 0 28.5 -4t5.5 -15q-6 -29 -17 -81t-23.5 -109t-24.5 -108.5t-19 -75.5 q-18 -59 -28 -97.5t-15 -40.5q-8 0 -30.5 -6t-38.5 -6q0 47 -6 61.5t-23 16.5q-66 4 -136.5 4h-154.5h-307q-135 0 -257 -4t-189 -4q-23 0 -37.5 9t-30.5 42q-10 20 6 35q6 8 18.5 22.5t37 42t63.5 73.5t96 116q49 61 110.5 138t126 160t128 166t120 157.5t102.5 136 t73 100.5q10 10 7 20.5t-20 12.5q-47 4 -119.5 8t-138.5 4q-197 0 -297 -21q-41 -10 -79.5 -43.5t-79.5 -93.5q-18 -29 -38 -63.5t-37 -67.5t-30 -58.5t-20 -35.5l-29 10q-33 12 -27 37z" />
<glyph unicode="[" horiz-adv-x="702" d="M174 -260q0 82 1 193.5t4 241.5t3 259q0 55 2 137t4 174.5t5.5 186.5t5.5 176t5 143.5t3 85.5q2 25 13 49.5t22 32.5q6 4 32.5 10.5t71.5 10.5t103.5 8t128.5 4q20 0 27 -17.5t13 -41.5q2 -16 -26 -21q-72 -8 -111 -13t-61 -9q-23 -4 -39 -13.5t-21 -29.5 q-4 -27 -18 -251.5t-16 -635.5q-2 -213 -1 -344t4 -207t5 -106.5t4 -38.5q4 -27 15.5 -35t27.5 -13q37 -6 87 -6t107 -4q10 -2 10.5 -10t0.5 -18v-3q0 -10 -9.5 -34.5t-27.5 -26.5q-137 -6 -214 -7t-104 1q-18 2 -32.5 18.5t-18.5 40.5q-6 31 -6 113z" />
<glyph unicode="\" horiz-adv-x="727" d="M84 1341q6 2 19.5 12.5t28.5 20.5t30.5 20.5t23.5 12.5q27 4 31 -16q94 -379 202.5 -752t201.5 -760q-4 -12 -40 -24.5t-71 -12.5h-2q-10 0 -17.5 14.5t-19.5 61.5q-88 350 -184.5 711.5t-202.5 711.5z" />
<glyph unicode="]" horiz-adv-x="702" d="M88 -332q20 2 47 5t52.5 6.5t49 6.5t39.5 5q70 14 76 51q4 27 13.5 217.5t9.5 501.5q0 203 1 347t1 240.5v149.5t-2 76q-2 66 -25 65q-25 0 -56.5 1t-61 2t-53 1h-32.5q-12 0 -12 29v2q0 39 6 48.5t15 11.5q31 4 72.5 7t86.5 6t88 5t74 2q25 0 32 -31.5t11 -79.5 q2 -25 2 -97t-2 -184t-3 -257.5t-1 -310.5q0 -121 -2 -250t-5 -242t-6 -197t-5 -114q-4 -53 -21.5 -71.5t-58.5 -25.5q-43 -6 -90 -10t-89 -5t-73 -1h-41t-14.5 2t-8.5 12q-4 16 -11 41t-3 35z" />
<glyph unicode="^" horiz-adv-x="1081" d="M92 575q4 10 33 63.5t70 129.5t88 164t90 167t73.5 138t40.5 76q10 16 37 26.5t33 10.5h2q12 0 18.5 -7.5t16.5 -27.5q100 -182 197.5 -376t183.5 -355q20 -31 -14 -47q-12 -6 -30 -12.5t-36 -10.5t-36.5 -7t-31.5 -3q-43 92 -74.5 159.5t-62.5 133t-66.5 138.5 t-86.5 175q-88 -170 -159 -321.5t-136 -280.5q-10 -2 -28.5 2t-38 10t-36 11.5t-24.5 9.5q-12 6 -19.5 15t-3.5 19z" />
<glyph unicode="_" horiz-adv-x="1064" d="M0 -160h1065v-106h-1065v106z" />
<glyph unicode="`" horiz-adv-x="851" d="M128 1201q1 11 7 20q10 12 29.5 28.5t41 31.5t42 25.5t31.5 10.5h2q12 0 20 -8.5t23 -30.5q16 -20 42.5 -62t54.5 -89.5t51.5 -90.5t35.5 -65q2 -4 -8.5 -11.5t-25.5 -14.5t-31.5 -12t-26.5 -7q-20 16 -55 45.5t-75 64.5t-80 73t-71 73q-8 8 -7 19z" />
<glyph unicode="a" horiz-adv-x="909" d="M61 203q0 80 99 131q33 18 79 34.5t94 30t95 24.5t84 17q2 41 2 65.5v59.5q0 47 -9 82t-22 45q-12 14 -43.5 26.5t-66.5 12.5q-25 0 -43 -10q-16 -16 -17 -117q0 -18 -16 -22l-139 -43q-18 -6 -30.5 -8.5t-16.5 -2.5q-6 0 -21.5 12.5t-15.5 22.5q0 31 35 76 q25 27 58.5 52.5t67 47t64.5 38t47 22.5q39 16 86 25.5t70 9.5q63 0 112.5 -24t77.5 -54q31 -33 40 -61.5t9 -57.5q0 -115 -1 -218.5t-1 -168.5v-12q0 -133 45 -134q23 0 47.5 7.5t38.5 13.5q6 4 15.5 -7.5t7.5 -23.5l-6 -37q-2 -10 -5 -13t-14 -7q-12 -6 -41.5 -16.5 t-67.5 -20.5t-79 -17.5t-76 -7.5q-33 0 -61.5 20.5t-36.5 92.5q-35 -18 -75 -38.5t-77 -37t-65.5 -27t-38.5 -10.5q-33 0 -68 17.5t-61 46.5q-14 16 -37 59t-23 105zM307 242q0 -51 20.5 -91t63.5 -40h2q10 0 29.5 5t54.5 21q29 14 31 39q0 8 1 28.5t2 44t1 46v35.5 q0 39 -10 39q-68 -12 -102.5 -25.5t-63.5 -32.5q-14 -10 -21.5 -24.5t-7.5 -44.5z" />
<glyph unicode="b" horiz-adv-x="1040" d="M37 1243q20 14 64 42t92.5 55.5t92.5 48t64 20.5q16 0 17 -45q0 -8 -2.5 -54t-3.5 -123t-3 -181.5t-2 -233.5q0 -33 31 -20q20 8 57 22t74 27.5t65.5 23t34.5 9.5q20 2 49 -3.5t61 -16.5t61.5 -28.5t54.5 -42.5q55 -53 95 -122.5t40 -149.5v-2q0 -84 -21.5 -149.5 t-61.5 -120t-98.5 -97.5t-133.5 -82q-18 -10 -41 -16t-45.5 -9t-43 -5t-32.5 -2q-41 0 -89 4t-89 4q-51 0 -82 -2t-52 -6q-10 -2 -21 1t-15 7q-10 10 -15.5 27.5t-8.5 64.5t-4 137t-1 246v324v156.5t-4 111.5q-2 20 -5 33.5t-12.5 28t-25 30.5t-39.5 41q-29 23 -2 47z M348 324q0 -53 8.5 -88t20.5 -58q10 -20 27.5 -40.5t38 -37t42 -27t39.5 -10.5q25 0 55.5 9.5t59.5 31.5q53 41 78.5 104.5t25.5 168.5v2q0 133 -81 221q-53 59 -96.5 76.5t-84.5 17.5q-29 0 -59.5 -4t-46.5 -12t-21 -45q-2 -14 -3 -33.5t-2 -53.5t-1 -87v-135z" />
<glyph unicode="c" horiz-adv-x="813" d="M68 332q0 68 13 118t32.5 86.5t40 61.5t34.5 41q31 33 88.5 71t106.5 66q49 29 92 42t96 13h2q51 0 99.5 -16t77.5 -39q16 -12 25 -27.5t9 -27.5q0 -31 -27.5 -60.5t-56.5 -44.5q-10 -8 -25.5 -10t-27.5 2q-20 8 -53 39q-31 27 -73 47.5t-89 20.5q-29 0 -42 -7.5 t-25 -19.5q-25 -23 -38.5 -93.5t-13.5 -168.5t28 -160.5t50 -87.5q41 -43 77 -56t60 -13q20 0 50 8t59 19t55.5 23.5t44.5 22.5q10 2 20.5 0t10.5 -10q0 -10 -5 -38t-18 -34q-10 -6 -31.5 -20t-49 -29.5t-54 -29t-45.5 -19.5q-37 -10 -70.5 -15t-60.5 -5q-63 0 -136 21.5 t-122 68.5q-14 12 -32.5 33.5t-36 54.5t-28.5 76t-11 96z" />
<glyph unicode="d" horiz-adv-x="1085" d="M70 348v2q0 78 33.5 162t115.5 160q31 29 73 56.5t88 49t92 33.5t87 12q23 0 53.5 -2t51.5 -8q23 -6 22 14q2 18 4 57.5t2 61.5v71v54.5t-1 46t-3 43.5q0 8 -3 15.5t-12 14.5t-29.5 13t-57.5 13q-16 4 -19 16l-4 24q-2 10 12 19q188 74 306 137q20 8 34 2q12 -10 13 -33 q0 -72 -2 -179t-4 -225t-4.5 -235.5t-2.5 -205.5v-220q0 -55 3.5 -111t7.5 -85q6 -35 32 -35q12 0 32 4t36 12q16 6 21.5 2t7.5 -10q4 -16 7 -30.5t3 -30.5q0 -10 -35 -21q-29 -8 -73 -17t-88 -17.5t-79.5 -13.5t-48.5 -5q-20 0 -29.5 13.5t-13.5 29.5q-4 25 -6 48.5 t-2 55.5q-135 -68 -200.5 -95t-88.5 -27q-131 0 -225 92q-53 49 -79.5 120.5t-26.5 151.5zM287 502q0 -41 5 -81t19.5 -80t40 -80t66.5 -79q27 -25 60.5 -36t56.5 -11q27 0 59.5 6t54.5 19q10 6 22.5 13t12.5 17q2 51 4 113t2 119t-1 105t-5 75q-2 16 -8 29.5t-25 25.5 q-41 29 -91 43.5t-116 14.5h-2q-41 0 -61.5 -10.5t-42.5 -32.5q-18 -16 -34.5 -60.5t-16.5 -109.5z" />
<glyph unicode="e" horiz-adv-x="882" d="M68 356q0 135 66.5 235.5t172.5 166.5q47 29 97.5 46t84.5 17h3q49 0 105 -18.5t91 -50.5q29 -29 55.5 -69t42.5 -99q49 8 56 0q10 -8 6 -23q-4 -16 -18.5 -39.5t-34.5 -32.5q-29 -10 -92.5 -24t-135 -29.5t-136 -29t-93.5 -21.5q-6 -2 -10 -7t-4 -28q0 -43 16 -83 t46 -68.5t71 -46t88 -17.5q74 0 133 25.5t110 70.5q14 10 30 11.5t16 -9.5q-4 -49 -10.5 -65t-18.5 -27q-80 -63 -146.5 -98t-119.5 -51q-20 -6 -45 -8t-48 -2q-63 0 -112 14t-85 33.5t-58.5 41t-34.5 35.5q-29 35 -58.5 99.5t-29.5 150.5zM317 461q82 16 133.5 26.5 t84.5 16.5q25 8 24 41v2q0 37 -9 69.5t-25.5 59t-38 42t-46.5 15.5q-8 0 -20 -4t-29 -14q-14 -10 -28.5 -37t-25.5 -62.5t-17 -75.5q-4 -29 -4 -58q0 -11 1 -21z" />
<glyph unicode="f" horiz-adv-x="614" d="M35 8q8 29 16 39t25 14q33 10 51 21.5t27.5 39.5t11.5 81t2 149v264q0 23 -7 36.5t-38 17.5l-68 6q-8 2 -14 8t-2 14l22 39q4 8 8.5 15.5t12.5 11.5q12 4 40 13t46 16v49q0 119 22.5 202.5t88.5 155.5q55 63 118.5 105.5t118.5 66.5q37 16 78 26.5t88 10.5q39 0 78 -14.5 t67 -38.5q16 -14 22.5 -27.5t6.5 -36.5q0 -27 -15.5 -51t-43.5 -55q-8 -10 -21.5 -17.5t-30.5 -7.5q-23 0 -54.5 20.5t-53.5 43.5q-41 37 -60.5 51t-44.5 14q-23 0 -37 -10t-30 -31q-18 -23 -29.5 -69.5t-17.5 -107t-8 -127t-2 -128.5q0 -12 10 -20.5t18 -8.5q18 0 45 1.5 t51.5 3.5t43 3t22.5 1q10 0 21.5 -9.5t15.5 -21.5q2 -10 3 -28.5t1 -39.5q0 -16 -3 -25t-20 -9h-51q-16 0 -51 2t-92 2q-18 0 -21.5 -9.5t-3.5 -40.5v-397q0 -59 5.5 -97t25.5 -38q6 0 20.5 1t31 2t29.5 2t17 1q18 0 19 -53q0 -31 -11.5 -35t-37.5 -4h-234q-29 0 -62.5 -2 t-63.5 -3t-52.5 -3t-28.5 -2q-16 0 -19 4t-1 14z" />
<glyph unicode="g" horiz-adv-x="927" d="M29 -340q0 43 21.5 84t55.5 59q35 23 71 41.5t83 38.5q-45 20 -71.5 39t-42 37t-20.5 36.5t-5 41.5q0 18 4 28.5t18 24.5q16 12 64.5 33.5t109.5 50.5q-29 8 -72.5 29.5t-78.5 52.5q-43 37 -67.5 96.5t-24.5 120.5q0 117 66.5 197t158.5 123q53 23 91 37t87 14h2 q74 0 126 -17.5t83 -33.5q10 -8 21.5 -8.5t23.5 1.5q16 2 41 6.5t49.5 7.5t45 6t32.5 3t23.5 -8t15.5 -19q4 -16 8 -43.5t4 -33.5q0 -12 -7 -21.5t-30 -9.5q-12 0 -57 -1h-31q-32 0 -69 1q41 -59 41 -152q0 -109 -77 -192.5t-200 -128.5q-31 -10 -67.5 -25.5t-65.5 -28.5 q-10 -6 -15 -16t-5 -18q0 -20 28.5 -35t59.5 -15h166q66 0 129 -15t110 -56q23 -20 40.5 -54t17.5 -81q0 -49 -16.5 -93.5t-55.5 -85.5q-43 -47 -83 -79.5t-76 -54t-67.5 -35t-58.5 -25.5q-31 -10 -82 -18.5t-106 -8.5q-94 0 -159.5 18.5t-107.5 48.5t-60.5 65.5t-18.5 70.5 zM221 -281q0 -14 12.5 -37.5t41 -45t77.5 -37t121 -15.5h2q57 0 122 11.5t105 42.5q33 27 45.5 55t12.5 55q0 20 -9.5 41t-33.5 39q-29 16 -76 26.5t-102 10.5q-125 0 -207 -17q-16 -4 -30.5 -11t-31.5 -23q-27 -23 -38 -50.5t-11 -44.5zM281 616q0 -61 20.5 -132.5 t56.5 -116.5q43 -53 82 -70.5t74 -17.5t64.5 31.5t29.5 117.5v2q0 49 -13 100.5t-30 83.5q-10 20 -26.5 44t-40 44.5t-53 34t-66.5 13.5q-25 0 -41 -10.5t-31 -26.5q-14 -14 -20 -36t-6 -61z" />
<glyph unicode="h" horiz-adv-x="1093" d="M37 39v6q43 18 66.5 32.5t33.5 38t12.5 64.5t2.5 115v774q0 33 -2.5 53.5t-9.5 36t-23.5 31.5t-44.5 41q-6 4 -7.5 20.5t9.5 22.5q20 14 58 33.5t80 39t82 38t64 30.5q12 6 23 0q10 -16 10 -31q0 -59 -5 -165.5t-5 -288.5v-201q0 -27 16 -20q12 6 39 19t56.5 27.5 t57.5 28t42 17.5q37 14 60.5 18t47.5 4q244 0 244 -319q0 -29 -1 -75t-3 -97t-2 -98.5v-73.5q0 -25 2 -38t10 -22.5t23.5 -15.5t42.5 -14q27 -6 26 -23v-37q0 -10 -3 -12t-15 -2h-170q-74 0 -136.5 -3t-109.5 -7q-6 0 -8 5t-2 27q0 29 8 35q6 4 19.5 9.5t27.5 11.5 q27 14 35 28.5t12 44.5q4 39 6.5 71t3.5 59.5t1 55v60.5q0 61 -5.5 103.5t-14.5 70t-21.5 45t-26.5 29.5q-27 16 -50.5 23.5t-43.5 7.5q-37 0 -74 -5t-69 -20q-16 -6 -20.5 -22.5t-4.5 -40.5v-203q0 -86 2 -152.5t10 -93.5q4 -16 8.5 -25.5t14.5 -15.5t26.5 -11t44.5 -13 q10 -4 11.5 -7.5t1.5 -15.5q-2 -31 -4 -39t-7 -8q-135 0 -237 -1t-193 -13q-8 0 -10 6z" />
<glyph unicode="i" horiz-adv-x="548" d="M53 17.5v29.5q0 8 15 12q43 10 65.5 21.5t26.5 54.5q0 12 2 43t4 72t3 89v32q0 32 -1 65l-6 211q0 8 -16.5 14.5t-75.5 20.5q-6 2 -8.5 6t4.5 21q8 23 11 28.5t11 7.5q27 8 66 19.5t79.5 24t80.5 24.5t71 23l9 3t9 1q8 0 7 -25q-4 -51 -7.5 -125t-6.5 -150.5t-5 -146 t-2 -108.5q0 -66 -1 -102t3 -58q2 -39 37 -37q35 4 48 5t18 1q4 0 10 -7t6 -13l-8 -62q0 -12 -5 -14t-16 -2q-59 0 -117.5 2t-117.5 2q-72 0 -121 -6t-53 -6q-12 0 -17 10q-2 4 -2 19.5zM201 1139q0 35 13 60.5t31.5 40.5t41 22.5t41.5 7.5h2q53 0 81.5 -36t28.5 -83 q0 -66 -42 -99.5t-87 -33.5q-43 0 -76.5 32.5t-33.5 88.5z" />
<glyph unicode="j" horiz-adv-x="512" d="M-224 -444.5q1 22.5 13 38.5q4 8 16.5 20.5t25.5 25t26.5 21.5t21.5 13q16 8 39 -2q16 -6 36.5 -17t39 -23.5t34 -20.5t25.5 -8q16 0 31.5 5t26.5 13q25 18 30 70q4 25 7.5 75t5.5 114.5t3 139t1 148.5v154q0 74 -1 133t-3 92q-2 27 -4.5 42t-11.5 25.5t-26.5 18.5 t-50.5 18q-8 4 -9 29t7 29q37 16 82 35.5t88 37t77 31.5t50 23q16 10 31 2q6 -4 10 -8.5t4 -14.5q0 -20 -2 -69.5t-5 -113t-5 -135t-2 -137.5v-403q0 -109 -22.5 -167t-59.5 -97q-29 -31 -65.5 -61.5t-76.5 -57.5t-79 -48.5t-72 -35.5q-25 -10 -54.5 -14t-51.5 -4 q-29 0 -66 11t-49 32q-16 18 -15 40.5zM174 1128q0 66 36 106t97 40h2q31 0 53.5 -14.5t38 -34t23.5 -39t8 -31.5q0 -59 -38 -104t-85 -45q-23 0 -47 10t-43.5 27.5t-32 39t-12.5 45.5z" />
<glyph unicode="k" horiz-adv-x="1040" d="M33 8l2 29q2 20 18 24q43 16 57.5 22.5t18.5 18.5q12 41 17.5 175.5t5.5 347.5v123.5v127t-1 120t-4 102.5q-2 43 -8 64.5t-20 31.5q-18 18 -34.5 33.5t-23.5 25.5q-8 10 -6 26.5t8 20.5q10 6 51.5 24.5t89.5 38t91 38t59 29.5q7 4 12 4q19 0 19 -43q0 -6 -1 -25.5 t-1 -55.5t-1 -90.5t-1 -134.5l-2 -602q0 -16 3 -22t19 -6q10 0 30 11t42 32q45 39 101.5 96t93.5 104q14 16 8 22.5t-17 6.5h-79q-16 0 -13 16l13 41q2 18 18 19q74 4 174 6t193 10q12 0 12 -12q0 -6 -1 -17.5t-9 -27.5q-4 -10 -8.5 -13.5t-20.5 -5.5q-37 -4 -72 -19 t-80 -50q-39 -31 -79.5 -65t-100.5 -81q-4 -4 -3 -14t22 -35l37.5 -50t56.5 -74t63.5 -79.5t59.5 -70.5q31 -35 51 -57.5t40.5 -38t46.5 -26.5t67 -24q10 -4 12 -10t2 -24q0 -23 -4 -29t-13 -6q-10 0 -41.5 1t-60.5 1q-18 0 -56 1t-85 3t-98.5 3t-98.5 1q-10 0 -12 8l-10 37 q-2 16 4 18q33 10 44 21.5t-12 38.5q-37 47 -79.5 100t-94.5 127q-14 20 -25 27.5t-26 7.5q-16 0 -18 -20v-156q0 -78 10 -101.5t27 -23.5q18 0 40.5 2t32.5 2t13.5 -5t3.5 -24q0 -20 -1 -31.5t-3 -19.5q-4 -10 -7.5 -11t-11.5 -1q-10 0 -54 2t-151 2q-86 0 -143 -2t-86 -2 q-12 0 -12 12z" />
<glyph unicode="l" horiz-adv-x="540" d="M31 -4l2 29q0 18 10 24q8 4 21.5 10.5t23.5 10.5q29 14 40 28.5t13 48.5q6 98 11.5 228.5t5.5 322.5v173v122t-1 86t-3 64q-2 25 -6.5 40t-15.5 22t-32.5 11.5t-58.5 8.5q-6 4 -6 11t6 36q2 12 22 20q51 23 141.5 48.5t176.5 58.5q4 2 10 2q12 0 12 -17 q-14 -199 -19 -453.5t-5 -557.5q0 -88 1 -145.5t7 -90.5t17.5 -46t33.5 -13q12 0 29.5 3t28.5 3q23 0 18 -21q-2 -8 -4 -25.5t-6 -27.5q0 -10 -27 -10h-112.5t-118 -2t-112.5 -4t-93 -6q-10 0 -10 8z" />
<glyph unicode="m" horiz-adv-x="1603" d="M56 662.5q-3 13.5 1 17.5q113 59 169.5 95t78.5 46q20 10 30.5 12.5t31.5 2.5q18 0 18 -21l-4 -145q63 41 115.5 76.5t97.5 52.5q18 8 36.5 13t37.5 5q82 0 134 -42t93 -113q84 51 130 77.5t81 42.5q31 10 63.5 20.5t69.5 10.5q25 0 62.5 -12.5t60.5 -34.5 q12 -12 26.5 -28.5t25.5 -45t19.5 -76t8.5 -122.5q2 -78 2 -150v-137q0 -51 3 -73.5t9 -29.5q14 -14 41 -26t57 -23q14 -2 15 -14q0 -12 -5 -30.5t-10 -20.5h-120q-94 0 -155.5 -3t-102.5 -7h-11.5t-9.5 4q-4 6 -6 19t-6 20q0 16 10 20q31 14 41 27.5t14 42.5q2 27 4 63.5 t3.5 74.5t1.5 72.5v55.5q0 59 -3.5 99t-9.5 67.5t-16 45t-23 30.5q-23 23 -47 29.5t-41 6.5q-27 0 -68.5 -13t-72.5 -30q-14 -8 -18.5 -18t-4.5 -27v-106.5v-121.5t2.5 -119.5t6.5 -98.5q2 -12 5 -18.5t14 -11.5t29.5 -9t51.5 -10q12 -4 12 -21v-53h-116.5t-120 -1 t-111.5 -3t-94 -6q-6 0 -6 6q0 10 1 25.5t1 23.5q0 4 12 12q51 23 61.5 33t12.5 27q10 70 11 153.5t1 180.5q0 80 -7 115.5t-24 58.5q-16 16 -41.5 26.5t-58.5 10.5q-31 0 -63.5 -9.5t-69.5 -31.5q-31 -20 -33 -50q-2 -14 -3 -42.5t-2 -62.5t-1 -69v-59q0 -88 2 -137t9 -76 t22.5 -36t42.5 -17q16 -4 16 -21q0 -10 -2 -29.5t-6 -19.5h-29.5t-53.5 -1t-59.5 -1h-50.5q-82 0 -126 -4t-78 -8q-6 4 -7.5 29.5t0.5 37.5q14 6 32 14.5t28 16.5q18 8 24 35q6 37 7.5 113.5t1.5 183.5q0 72 -1 110.5t-3 55.5q-4 14 -10.5 18t-41.5 14q-16 4 -24 10.5 t-13 16.5q-4 6 -7 19.5z" />
<glyph unicode="n" horiz-adv-x="1071" d="M47 692q0 4 7 9.5t30 15.5q88 41 154.5 71.5t80.5 38.5q8 4 14.5 6.5t22.5 2.5q20 0 21 -23q2 -25 3 -47.5t1 -38.5q0 -33 20 -20q35 20 72 38.5t76 38.5q29 16 56.5 23.5t64.5 7.5q47 0 80.5 -12t64.5 -35q43 -35 64.5 -88t31.5 -125q4 -31 4 -82v-92v-275q0 -25 9 -24 q6 0 20 1t29.5 2t29 3t19.5 2q12 0 12 -18q0 -14 -4 -36t-8 -28q-4 -10 -16 -10q-147 0 -240.5 -4t-140.5 -4q-12 0 -18.5 4t-10.5 22l-6 29q47 18 62.5 36.5t21.5 65.5q8 63 9 130t1 159q0 80 -9 126t-32 71q-16 18 -44 28.5t-58 10.5q-35 0 -77 -10.5t-58 -16.5 q-10 -4 -12.5 -17.5t-4.5 -52.5q0 -29 -1 -82t-1 -116.5v-129v-116.5q0 -14 2 -23.5t11.5 -15.5t31 -12t57.5 -17q16 -6 9 -22l-15 -41h-221q-80 0 -127 -5t-74 -5q-14 0 -12 20l6 43q25 8 41.5 15.5t27.5 16.5t18.5 23.5t11.5 38.5q2 16 3 47t2 66t1 70v61q0 55 -2 104.5 t-6 84.5q-2 18 -15.5 29.5t-73.5 33.5q-10 4 -15 15.5t-1 33.5z" />
<glyph unicode="o" horiz-adv-x="1017" d="M68 395q0 63 22.5 133t65.5 121q59 66 149 113q27 14 59.5 27.5t64.5 22.5t58.5 14t42.5 5h2q74 0 148 -26.5t133 -78.5t97 -132t38 -186q0 -78 -22.5 -137.5t-53 -101.5t-61.5 -67.5t-47 -35.5q-29 -16 -64.5 -32t-72.5 -28t-74 -19t-68 -7q-37 0 -82 8t-91 26.5t-88 47 t-72 69.5q-39 53 -61.5 125t-22.5 139zM326 465q0 -98 25.5 -186.5t60.5 -131.5q39 -47 73.5 -64t71.5 -17q49 0 82 34q23 25 40 79t17 149q0 37 -4 86t-14 98t-28.5 94t-47.5 74q-27 29 -63.5 47t-73.5 18h-2q-29 0 -47.5 -9t-34.5 -25q-23 -18 -39 -84t-16 -162z" />
<glyph unicode="p" horiz-adv-x="1044" d="M-4 -444q37 10 60.5 18t38 20.5t21.5 32t13 51.5q2 12 5 53.5t6 106t5 147.5t2 177v192q0 102 -4 164t-8 84q-4 14 -18.5 21.5t-57.5 15.5q-4 0 -13 21.5t1 33.5q18 14 49 35t68 43.5t74.5 44t70.5 39.5q12 6 25.5 7t23.5 1q10 -2 11 -12v-137q23 10 62.5 27.5t80.5 34 t75 28.5t44 12q55 0 115.5 -22.5t113.5 -69.5q37 -33 59.5 -71t36 -76.5t17.5 -76.5t4 -73t-10.5 -74t-28.5 -76.5t-43 -70.5t-51 -55q-18 -16 -49 -37t-68 -42.5t-75 -41t-70 -31.5q-25 -10 -42.5 -13t-37.5 -3t-50 3t-59 13q-20 0 -20 -31q0 -6 -1 -26.5t-2 -45t-1 -47 v-32.5q0 -70 1 -112t7 -65.5t17.5 -31.5t31.5 -12q12 -2 34.5 -2.5t59.5 -0.5q23 0 17 -18l-11 -39q-4 -14 -8 -18t-24 -6q-39 0 -107 -3.5t-139.5 -7.5t-134 -7t-93.5 -3q-4 0 -8 8zM367 469q0 -86 4 -146.5t10 -117.5q6 -39 31 -53q47 -27 95 -40.5t81 -13.5q57 0 108 37 q23 16 42.5 68.5t19.5 144.5v2q0 66 -24.5 133.5t-78.5 120.5q-82 80 -161 80q-49 0 -115 -33q-12 -8 -12 -59v-123z" />
<glyph unicode="q" horiz-adv-x="1034" d="M68 354q0 104 34.5 170t87.5 127q14 18 48 41t74 44.5t82 41t75 29.5q49 16 86 16q18 0 43 -3t49.5 -7t46 -9t33.5 -9q14 -6 24.5 -8.5t24.5 1.5q47 14 82 23.5t55 9.5h2q12 0 9 -26q-8 -70 -13.5 -154t-8.5 -173t-5 -178t-2 -171v-135q0 -174 5 -262.5t7 -98.5 q2 -16 27 -16q12 -2 39.5 1t34.5 3q6 0 12 -6t6 -13v-40.5t-4 -36.5q-162 0 -276.5 -9.5t-208.5 -25.5q-8 16 -16.5 30.5t-12.5 26.5q-4 6 1 11.5t11 7.5q25 6 52.5 13t54.5 11q23 6 24 29q2 14 10.5 99t8.5 235v92q0 4 -9.5 10t-19.5 2q-55 -29 -109.5 -50.5t-117.5 -21.5 q-35 0 -68 9.5t-63.5 22.5t-55 28.5t-39.5 30.5q-16 14 -37.5 39.5t-40 61.5t-30.5 83t-12 104zM315 457q0 -104 29 -173t82 -120q41 -41 77 -54.5t54 -13.5q23 0 46.5 8.5t41.5 18.5q20 10 25 41q2 29 3 67.5t1 96.5q0 109 -1 169t-1 91q0 25 -6.5 40t-20.5 29 q-74 68 -184 68h-2q-51 0 -84 -37q-23 -27 -41.5 -92.5t-18.5 -138.5z" />
<glyph unicode="r" horiz-adv-x="792" d="M47 674q31 18 73 39.5l84 43t78.5 42t57.5 32.5q10 6 15 7.5t10 1.5q2 0 7 -3t11 -8.5t11 -11.5t3 -12q-4 -23 -5 -39t-3 -36.5t-3 -45.5t-1 -61q12 10 36.5 30.5t51.5 44t53.5 47t44.5 39.5q10 10 26.5 17.5t39.5 7.5t45.5 -10.5t40.5 -26.5t30.5 -36.5t12.5 -41.5 q0 -23 -11.5 -45t-25.5 -41.5t-27.5 -34t-19.5 -20.5q-27 -20 -51 -21q-16 0 -25.5 6.5t-15.5 14.5q-10 14 -38 30.5t-44 16.5q-23 0 -48.5 -6t-47.5 -25q-14 -14 -19.5 -31.5t-5.5 -64.5v-246q0 -35 4 -72.5t10 -48.5q4 -10 8.5 -16t20.5 -4l119 6q23 0 16 -20l-22 -72 h-287q-76 0 -122 -2t-52 -2q-16 0 -12 14l18 53q37 14 47 21.5t15 28.5q4 18 6 89.5t2 172.5v149q0 25 -2 40.5t-9.5 23.5t-21.5 14t-39 12q-20 6 -30.5 28t-8.5 32z" />
<glyph unicode="s" horiz-adv-x="774" d="M70 258v17.5t4 11.5q6 4 20.5 10t34.5 10q27 -45 49.5 -81t59.5 -85t78.5 -69.5t72.5 -20.5q14 0 33.5 8.5t35 23.5t27 35.5t11.5 47.5q0 31 -20.5 55.5t-50.5 45t-61.5 36.5t-54.5 29q-18 10 -53 29.5t-67.5 49t-58.5 70.5t-26 94t21.5 97.5t69.5 81.5q45 35 102 54 t109 19q59 0 96 -4t59 -4q31 0 41 4q6 6 16 -2q8 -4 9 -18q2 -43 11 -94.5t30 -114.5q2 -12 -8.5 -21.5t-20.5 -9.5q-45 0 -68 35q-10 14 -26.5 42t-38 54.5t-50 46t-63.5 19.5q-31 0 -59.5 -30t-28.5 -81q0 -25 14.5 -44t37 -36.5t48 -32t50.5 -26.5q29 -14 72.5 -37.5 t84.5 -57.5t71 -82t30 -112v-2q0 -61 -25.5 -103t-81.5 -75q-47 -29 -118.5 -44t-133.5 -15q-49 0 -98 6t-74 16q-29 8 -43 8t-30 -16q-6 -4 -21 4q-16 8 -14 25q6 65 8 115v13q0 45 -12 105z" />
<glyph unicode="t" horiz-adv-x="677" d="M48 690.5q-3 14.5 1 18.5q18 16 50 42.5t71 60.5t79 71t77 73q25 27 45 27h2q14 0 14 -35q0 -16 -1 -39.5t-3 -48t-3 -45t-1 -29.5q37 0 79 2.5t81 3.5t67.5 3t38.5 2q20 0 24.5 -3t4.5 -20q0 -12 -3 -36.5t-9 -45.5q-6 -23 -37 -22q-29 -2 -92.5 -2t-135.5 -6 q-20 0 -20 -37q-3 -92 -3 -173v-40q1 -98 1 -166q0 -70 41 -106t88 -36q25 0 57.5 10.5t54.5 26.5q16 10 21.5 11.5t9.5 -9.5q10 -27 10 -45t-10 -22q-47 -27 -83 -45.5t-67.5 -30.5t-65.5 -18.5t-75 -6.5t-93 18.5t-83 61.5q-25 33 -31 65q-5 24 -5 51q0 9 1 19 q2 68 3.5 139.5t1.5 135t1 111t1 65.5q2 20 -25 23q-16 4 -34.5 5t-35.5 3q-6 4 -9 18.5z" />
<glyph unicode="u" horiz-adv-x="1054" d="M43 735q-2 10 2 16.5t21 10.5l60 15t91 22.5t86 19.5t47 8h2q14 0 21 -34q2 -12 2 -44t-4 -100q-2 -39 -3 -86t-3.5 -97t-3.5 -101.5t-1 -98.5q0 -49 16.5 -78.5t39 -45t47 -20.5t37.5 -5q25 0 58.5 8t64.5 31q10 6 17 14t9 27q6 47 9.5 113.5t3.5 135.5q0 59 -1.5 98.5 t-2.5 63t-3 35.5t-4 19q-6 16 -23.5 23t-64.5 17q-23 6 -26 19q-6 14 -7 37q0 10 9 12q2 2 35.5 7t79.5 11.5t97.5 10.5t90.5 4q27 0 37 -6t12 -19q4 -20 4 -39.5v-56.5q0 -41 -4 -104.5t-5 -159.5v-176q0 -49 3.5 -83t5.5 -44q4 -18 16 -15l38 9.5t55 13.5q6 2 14 -8.5 t6 -18.5q-10 -47 -17.5 -57t-17.5 -12q-41 -4 -84 -12.5t-82 -17.5t-70.5 -17.5t-45.5 -14.5q-16 -4 -25.5 -3t-22.5 15q-8 10 -11 16.5t-3 18.5l4 84q-23 -12 -64.5 -37.5t-84.5 -48.5q-37 -18 -64.5 -26.5t-58.5 -8.5q-59 0 -117.5 20.5t-93.5 80.5q-20 35 -24.5 70.5 t-4.5 64.5q0 101 3 203q1 44 1 87q0 58 -2 115q-2 20 -10 36t-59 38q-8 4 -14.5 13.5t-12.5 31.5z" />
<glyph unicode="v" horiz-adv-x="909" d="M20 727q-2 0 0.5 10.5t7.5 22.5t10 22.5t7 10.5q53 0 112.5 1t116 3t108.5 4t89 4q12 0 12 -10v-27q0 -16 -10 -20q-29 -12 -56.5 -29t-35.5 -29q-5 -13 -5 -29q0 -18 17 -69q8 -29 22.5 -70t30 -87t32 -89t32.5 -74q10 -27 22 2q41 104 72 178t51 142q10 31 18.5 55.5 t6.5 34.5q0 18 -23.5 31.5t-52.5 19.5q-10 4 -9 9.5t7 21.5q10 18 15.5 22.5t13.5 6.5q47 0 107.5 5t119.5 5q10 0 14.5 -2t8.5 -10q14 -18 16 -25q6 -18 -8 -31q-45 -43 -90 -114.5t-89 -157.5t-86 -176t-83 -170q-20 -37 -31.5 -69t-15.5 -38q-4 -10 -7.5 -14t-9.5 -8 q-12 -2 -31.5 -6t-42.5 -4t-35 24.5t-36 89.5q-10 25 -33 86.5t-50.5 133t-54 142t-44.5 115.5t-29.5 71t-24 41t-30 24.5t-46.5 19.5z" />
<glyph unicode="w" horiz-adv-x="1374" d="M25 752l14 28q6 12 16 13q51 0 96.5 1t88.5 2t87 2t95 1q18 0 20 -15l15 -47q-35 -6 -52.5 -12t-24.5 -14.5t-7 -18.5t4 -24q10 -47 46 -149.5t87 -246.5q2 -6 8 -6t8 6q35 66 63.5 133.5t59.5 139.5q8 20 5 38.5t-15 61.5q-6 23 -12 37t-16.5 24.5t-27 17.5t-44.5 13 q0 8 4 17.5t14 27.5q6 14 23 15q82 -4 176 -4t184 4q2 -41 1 -51.5t-9 -14.5q-55 -10 -67.5 -27.5t-0.5 -56.5q25 -78 55.5 -182.5t71.5 -208.5q2 -4 7.5 -4t7.5 4q14 35 32.5 77t37 86t33.5 85t26 74q8 29 17 62.5t7 45.5q0 16 -37 29.5t-86 25.5q2 6 8.5 23.5t10.5 28.5 q92 4 139 5t86 3q25 2 37 3t26 1q8 0 11.5 -2t5.5 -12v-17q0 -33 -14 -39l-24.5 -21t-20 -22.5t-20.5 -35t-30 -58.5q-16 -35 -42.5 -90t-54.5 -116.5t-54.5 -120t-44.5 -97.5q-31 -68 -48.5 -108.5t-27.5 -61.5q-4 -10 -19.5 -18.5t-50.5 -8.5q-29 0 -37 3.5t-14 19.5 q-41 117 -82 226.5t-76 199.5q-2 4 -7 7t-7 -1q-66 -133 -112 -236.5t-80 -199.5q-6 -14 -23 -19h-29q-29 6 -44 15.5t-25 44.5q-53 141 -106.5 281.5t-110.5 273.5q-16 39 -28.5 63.5t-25 40t-28 23.5t-39.5 14q-14 4 -10 19z" />
<glyph unicode="x" horiz-adv-x="968" d="M43 35q-8 18 8 31q23 18 35 28t37 33q18 18 46 45t59.5 57.5t64.5 65.5t63 67q6 8 7.5 16.5t-7.5 22.5q-55 88 -90 145.5t-64.5 93.5t-60 56.5t-75.5 36.5q-18 6 -19 23v20q0 18 12 19q35 -2 76 -2h119q43 0 102.5 2t120.5 2q4 -14 3 -34t-5 -30q-41 -10 -48 -20.5 t9 -34.5q18 -31 42 -67t59 -87q8 8 28.5 32t40 51.5t34.5 52t15 34.5t-16 19.5t-70 23.5q2 10 8.5 28.5t14.5 31.5q29 0 83 1t101 3t86 3t66 1q10 0 11 -2t-1 -12q-8 -35 -13 -43.5t-16 -12.5q-47 -10 -77.5 -30.5t-71.5 -57.5q-66 -61 -101.5 -101t-72.5 -77q-8 -8 8 -35 q12 -25 32.5 -58.5t43 -68.5t44 -68.5t38.5 -56.5q18 -27 32.5 -45t32 -30.5t41 -21.5t60.5 -17q27 -6 20 -25q-4 -10 -10 -22.5t-10 -16.5q-4 -12 -25 -12q-29 2 -79 5t-116 3q-78 -2 -144.5 -5t-82.5 -3q-10 18 -17.5 34.5t-11.5 32.5q20 10 47 20.5t25 26.5 q0 12 -12.5 40t-28.5 60t-33.5 60.5t-27.5 42.5q-10 -10 -34 -38.5t-47.5 -60.5t-41 -61.5t-17.5 -44.5q2 -10 17.5 -17t62.5 -17q2 -2 3 -11.5t1 -19.5t-1 -20.5t-3 -12.5q-6 -6 -16 -6q-59 0 -99 -1t-69 -2t-50.5 -2t-39.5 -3q-12 0 -17 6q-4 4 -8 14.5t-10 22.5z" />
<glyph unicode="y" horiz-adv-x="937" d="M14 735q0 14 11 43q6 10 13 12.5t36 4.5q137 0 226 5t136 5q16 0 21 -6q4 -10 12 -29.5t6 -34.5q-37 -12 -58.5 -21t-30.5 -18.5t-9 -23t6 -35.5q8 -31 23.5 -85t35 -114.5t38 -119t32.5 -97.5q14 27 36.5 73t46 100.5t46.5 109.5t37 98q12 33 14 53.5t-6 31.5 t-29.5 18.5t-58.5 15.5q-10 2 -10 27v2q0 29 3 35t13 8q12 0 39 1t56.5 2t59 3t52.5 4q29 2 46 2h28q8 0 18 -1t15 -5q6 -6 15 -26.5t9 -31.5q-33 -10 -53.5 -21t-36.5 -29.5t-32.5 -48.5t-41.5 -77q-57 -109 -102 -199t-82 -166.5t-67.5 -142t-55.5 -125.5 q-25 -55 -47.5 -114.5t-40.5 -109.5t-29.5 -84t-13.5 -40q-10 -31 -12 -50t-2 -32q0 -8 -1 -17t-10 -15q-25 -8 -53 -9q-23 0 -54.5 12.5t-47.5 30.5q-23 16 -21 43t21 52q4 6 20.5 30.5t38 59.5t45 74.5t45 74.5t34.5 60.5t15 29.5q4 8 1 33t-13 53q-27 82 -51.5 157 t-51 147.5t-53 143t-55.5 146.5q-12 31 -21.5 49.5t-19.5 30.5t-23.5 18.5t-35.5 12.5q-14 4 -17.5 6t-3.5 10z" />
<glyph unicode="z" horiz-adv-x="901" d="M47 45q72 68 144.5 138.5t142 139t132 133t116.5 117.5q8 6 8 18.5t-15 12.5h-102h-56h-74t-70.5 -2t-47.5 -6q-49 -4 -65.5 -32.5t-36.5 -74.5q-8 -20 -17 -20q-16 0 -43 25q-20 18 -10 36q37 92 75 181.5t79 158.5q12 0 23.5 -2t21.5 -6q6 -2 9 -8t3 -10t-2 -18.5 t-2 -28.5q0 -12 43 -13h39t80 1t102.5 2t108.5 3.5t98 3.5t70 3q12 2 21 2h18q10 0 18 -20.5t8 -30.5q0 -8 -29.5 -39t-97.5 -101q-23 -23 -72 -73t-104 -108t-105 -112.5t-75 -83.5q-12 -14 -14 -25t6 -13t29.5 -3.5t50 -3.5t61.5 -2t68 2q51 2 82.5 3t51 3.5t31 4.5 t21.5 4q12 4 23.5 24.5t23.5 48.5q10 25 21 25q8 0 32 -31q18 -16 21 -27.5t-6 -27.5q-12 -16 -30.5 -55t-39 -86t-41 -97.5t-37.5 -91.5q-12 2 -28.5 9.5t-22.5 11.5q-6 6 -6 20q0 10 3 28.5t7 33.5q-8 4 -31.5 7t-68.5 4t-117 2t-174 1q-92 0 -140 -4t-59 -4q-10 0 -16 6 q-10 8 -20.5 22.5t-16.5 24.5z" />
<glyph unicode="{" horiz-adv-x="702" d="M57 545q0 16 9 16q63 12 102 34.5t59.5 50.5t27.5 57.5t7 58.5q0 27 -6 80t-14.5 109.5t-14.5 104.5t-6 66q0 70 29 142.5t108 126.5q66 43 126.5 57t117.5 14q14 0 14 -10q0 -27 -5 -36t-9 -13q-8 -4 -19.5 -9t-29.5 -10q-78 -18 -123 -80.5t-45 -138.5q0 -45 8 -93 t17.5 -95t17.5 -93t8 -85q0 -78 -62.5 -146.5t-158.5 -109.5q70 -31 113 -64t67.5 -69.5t32.5 -77.5t8 -86q0 -31 -7 -74t-16.5 -84t-18.5 -74.5t-11 -48.5q-8 -49 -11 -73.5t-3 -59.5q0 -37 24.5 -72.5t59 -63.5t72.5 -46.5t65 -22.5q29 -4 28 -16q0 -12 -17 -31.5 t-28 -19.5h-2q-178 0 -269 76.5t-91 236.5q0 31 8 84t17.5 110.5t17.5 110.5t8 84q0 100 -33.5 147.5t-115.5 75.5q-29 10 -42.5 30t-13.5 30z" />
<glyph unicode="|" horiz-adv-x="602" d="M213 -532v2129h176v-2129h-176z" />
<glyph unicode="}" horiz-adv-x="702" d="M86 1411q0 12 16.5 31.5t26.5 19.5h2q178 0 269.5 -75.5t91.5 -235.5q0 -33 -8.5 -86t-17.5 -110.5t-17.5 -110.5t-8.5 -84q0 -100 34 -150.5t116 -74.5q29 -10 42 -29t13 -29q0 -14 -8 -14q-63 -14 -102 -37t-59.5 -50.5t-28 -57t-7.5 -58.5q0 -27 6.5 -80t14.5 -109.5 t14 -104.5t6 -66q0 -70 -28.5 -142.5t-108.5 -126.5q-66 -43 -126 -57t-118 -14q-12 0 -12 10q0 27 4 36t8 13q8 4 19.5 9t30.5 10q78 18 122.5 74.5t44.5 144.5q0 45 -8 93t-17 96t-17.5 92t-8.5 85q0 78 62.5 146.5t158.5 109.5q-70 31 -112.5 65t-67 69.5t-33 76.5 t-8.5 88q0 31 7.5 73t16.5 83t18 74.5t11 48.5q8 49 11.5 73.5t3.5 59.5q0 47 -24.5 84t-59.5 62.5t-74 41t-65 17.5q-10 0 -17.5 6t-7.5 10z" />
<glyph unicode="~" horiz-adv-x="1079" d="M119 367q0 59 10 120.5t38 110.5t73 80t116 31h2q47 0 82 -11.5t65 -30t57.5 -44t62.5 -56.5q59 -51 85.5 -65.5t47.5 -14.5q29 0 45 45.5t16 167.5q0 2 4 2t18.5 -2t43 -8t76.5 -16q0 -174 -52.5 -265.5t-169.5 -91.5q-53 0 -113.5 42t-123.5 102q-53 49 -90 68.5 t-60 19.5q-55 0 -73.5 -57.5t-20.5 -135.5q-6 -6 -27.5 -12t-93.5 -6q-10 0 -14 5t-4 22z" />
<glyph unicode="&#xa1;" horiz-adv-x="509" d="M57 -268q0 20 9 43q29 53 46 113.5t33 129.5q8 37 16.5 81t16.5 89t15.5 84t13.5 64q2 10 6 17t12 9q12 2 25.5 5.5t21.5 3.5q10 0 14.5 -1t4.5 -12q0 -6 2 -34.5t6 -71.5t9 -96.5t11 -108.5q8 -90 29 -163.5t45 -102.5q8 -6 13.5 -16.5t5.5 -32.5q0 -6 -6 -13 q-51 -41 -85 -75.5t-61 -67.5q-8 -10 -17.5 -11t-21.5 -1h-2q-12 0 -22 14q-29 33 -62 69t-63 58q-14 14 -15 27zM74 694q-2 16 26 33q25 10 41.5 18.5t27.5 20.5t18.5 31.5t15.5 54.5q4 10 12 12t16 2q35 0 53.5 -24.5t28.5 -42.5q16 -31 34 -42.5t59 -31.5 q12 -10 20 -31.5t8 -38.5v-2q0 -8 -6 -12t-12 -6q-14 -6 -28.5 -12.5t-31.5 -14.5q-27 -10 -40 -23.5t-25 -54.5q-4 -16 -31 -27t-41 -11q-18 0 -24 26q-25 90 -86 111q-20 6 -26.5 20.5t-8.5 44.5z" />
<glyph unicode="&#xa2;" d="M127 618q0 76 16.5 133.5t40 99.5t50 69.5t47.5 44.5q27 20 69.5 42.5t88.5 43t90 35t73 20.5l14 201q0 14 17 24q8 0 23.5 -3t28.5 -7t24.5 -8t13.5 -10l-14 -183h47q20 0 46.5 -4t52.5 -11t46.5 -16.5t26.5 -21.5q12 -16 11 -35.5t-11 -40.5q-16 -35 -42 -56.5 t-34 -21.5t-16.5 5.5t-26.5 23.5q-23 23 -51.5 44.5t-65.5 29.5l-33 -619q68 4 124.5 31t125.5 70q12 8 24.5 4t12.5 -41q0 -23 -20 -41q-51 -47 -124 -86t-145 -55l-10 -248q0 -4 -11 -8.5t-25.5 -6.5t-29 -3t-20.5 -1q-27 0 -22 29l14 227q-100 4 -185 33t-132 72 q-41 37 -75 103.5t-34 141.5zM389 709q0 -100 44 -181.5t136 -115.5q8 156 15.5 306t15.5 304q-49 -2 -88 -27.5t-61 -48.5q-23 -29 -42.5 -87t-19.5 -148v-2z" />
<glyph unicode="&#xa3;" d="M23 86q0 12 9 25.5t31 27.5q92 51 139.5 127t47.5 191q0 45 -1 72.5t-5 50.5h-193q-6 0 -17 7t-7 17q18 45 33.5 63.5t48.5 24.5q20 2 54 3t68 1q2 29 -1 66t-1 67q4 45 14.5 93.5t45.5 99.5q31 43 67.5 80t76.5 69.5t79 58t72 48.5q45 23 88 37t90 14q57 0 101 -27.5 t44 -72.5q0 -12 -5 -30.5t-12 -36t-14.5 -31t-11.5 -19.5q-8 -8 -15 -12t-22 -4q-6 0 -19 4t-30 14q-25 16 -67.5 41t-100.5 25q-66 0 -88 -35t-22 -98q0 -137 7 -211t11 -111q4 -16 8 -21.5t21 -5.5h225q18 0 48 7.5t38 11.5q6 4 15.5 -6.5t3.5 -26.5q-10 -35 -35 -70.5 t-72 -35.5h-248q0 -59 -16.5 -109.5t-45 -92.5t-66.5 -77t-79 -63q-16 -10 -13 -17.5t15 -3.5q23 6 54.5 12t67.5 7.5t73 -2t68 -11.5q68 -23 108.5 -32t75.5 -9q20 0 48 3t54.5 19.5t51 51.5t40.5 96q4 12 9.5 19.5t17.5 7.5q10 0 30.5 -16.5t20.5 -36.5q0 -37 -24.5 -83 t-58 -90.5t-71.5 -81t-65 -55.5q-41 -29 -81 -42t-85 -13q-49 0 -99 20.5t-126 63.5q-61 35 -91 43t-65 8t-110 -88q-31 -33 -64 -22q-35 12 -54 40.5t-19 61.5z" />
<glyph unicode="&#xa4;" d="M55 195q4 8 21.5 30.5t39 47t42 47t30.5 34.5q-29 41 -49 102.5t-20 153.5q0 86 25.5 152.5t91.5 140.5q-39 45 -75 86t-67 80q-6 8 -7 13t-1 16v2q0 4 6 10t12 8q6 4 40 23.5t67 29.5q6 -4 28.5 -28.5t49 -55t48 -57t28.5 -33.5q37 23 90 43.5t108 20.5q35 0 82 -9.5 t94 -43.5q8 6 25.5 24.5t39 42t44 48t43.5 42.5q10 2 28.5 -6t36 -19.5t28.5 -22.5t7 -13q-41 -47 -86 -98.5t-67 -81.5q10 -16 25.5 -40t28.5 -55.5t22.5 -71.5t9.5 -85q0 -94 -21.5 -167t-73.5 -128q39 -39 83 -84t63 -70q4 -6 3 -12t-14.5 -18.5t-42 -34t-77.5 -54.5 q-2 2 -21.5 27t-44 54.5t-46 57t-27.5 36.5q-47 -33 -103.5 -54.5t-122.5 -21.5q-106 0 -184 57l-32.5 -32.5l-43 -43l-43 -43t-31.5 -32.5q-29 4 -58.5 31.5t-31.5 54.5zM299 633q0 -61 19.5 -111.5t50 -85.5t70.5 -53t81 -18q41 2 78 9t76 42q41 35 56 95t15 128 q0 117 -58 190.5t-165 73.5h-2q-84 0 -137 -49q-47 -35 -65.5 -95.5t-18.5 -125.5z" />
<glyph unicode="&#xa5;" d="M24 1250.5q1 13.5 4 25.5t9 16q18 0 52 -4t97 -4q94 2 173 5t133 3q8 0 10 -11t0 -25.5t-7.5 -26.5t-11.5 -12q-41 -10 -46 -23.5t-1 -24.5q31 -84 65 -175t87 -218q23 43 48.5 94.5t50 103.5t45 100t36.5 87q6 16 -4 29.5t-62 28.5q-4 6 -4 18t3.5 24.5t10.5 21.5t17 9 q25 2 57.5 -3t67.5 -5q47 0 102.5 4t83.5 4q2 0 5.5 -10t3.5 -23.5t-2.5 -25.5t-8.5 -14q-31 -10 -52 -19.5t-39.5 -23t-38 -37t-44.5 -60.5q-35 -51 -94 -159.5t-123 -237.5h242l-12 -80q-4 -10 -11.5 -13t-29.5 -3l-195 2v-131l242 2q2 0 9 -6.5t3 -16.5l-21 -71h-233 v-55.5v-59.5t1 -54.5t3 -43.5q4 -33 17.5 -46.5t56.5 -21.5q14 -2 32.5 -3t34.5 -1v-70q0 -10 -12 -10h-30.5t-63.5 1t-80 1h-80q-45 0 -92 -2t-89 -4t-72.5 -4t-43.5 -2q-4 16 0 55q0 12 3 15t7 3q80 10 104.5 22.5t29.5 41.5q4 23 7 56.5t5 67.5t3 63.5t1 47.5l-244 -2 q-12 0 -14 15q-8 31 -3 56.5t13 25.5h250v133l-231 -2q-12 0 -15.5 8t-3.5 18l-6 45q-2 16 5 21.5t16 5.5l225 -4q-16 47 -42 106.5t-54.5 121t-59.5 119.5t-57 106q-23 41 -56.5 58t-70.5 24q-6 0 -9 10t-2 23.5z" />
<glyph unicode="&#xa6;" horiz-adv-x="602" d="M213 373h176v-746h-176v746zM213 692v746h176v-746h-176z" />
<glyph unicode="&#xa7;" horiz-adv-x="970" d="M86 518q0 86 34 164t99 156v39q0 37 19.5 74.5t47 71.5t59.5 61.5t56 43.5q29 25 75 46.5t91 21.5h2q18 0 48 -5t59 -15.5t50.5 -28t21.5 -41.5q0 -8 -2.5 -25.5t-5.5 -36t-8 -33t-11 -16.5q-12 -4 -29.5 -12t-34.5 0q-12 8 -30.5 21.5t-43 25.5t-56 20.5t-70.5 8.5 q-59 0 -77 -27.5t-15 -54.5q0 -25 12 -54.5t39 -54.5q78 -72 137 -128t104 -101t76 -80t53 -65q35 -47 55.5 -103.5t20.5 -118.5q0 -43 -11 -93t-26.5 -97t-34 -85t-30.5 -56q-12 -16 -37 -49t-58.5 -71t-72.5 -77t-78 -66q-53 -39 -97 -51t-79 -12q-25 0 -55.5 7t-58 21.5 t-46 37t-18.5 53.5q0 12 6 30.5t14 37t15.5 31.5t9.5 15q14 10 41 -4q12 -8 30.5 -21t43 -26.5t53 -23t61.5 -9.5q29 0 56.5 6.5t46.5 16.5q12 8 20 25.5t6 33.5q0 31 -18.5 55.5t-46.5 49.5q-12 12 -38 37.5t-58.5 57.5t-70.5 70l-77 77q-31 31 -60.5 67.5t-53 78.5t-39 87 t-15.5 92zM209 649q0 -51 26.5 -102t63.5 -98.5t76 -85t63 -60.5q66 -61 109 -107t70.5 -83t45 -71t31.5 -73q27 33 33 79t6 81v2q0 76 -34.5 137.5t-77.5 116.5q-33 43 -94.5 102.5t-141.5 135.5q-45 41 -72.5 72.5t-58.5 72.5q-45 -37 -45 -119z" />
<glyph unicode="&#xa8;" horiz-adv-x="851" d="M98 1091.5q-2 12.5 0 23.5t8 18q18 12 32 20t25 17.5t20.5 23.5t19.5 37q2 4 13 8t20 4h2q12 0 23 -4t15 -10q16 -35 31 -49.5t51 -26.5q6 0 9.5 -10t3.5 -22.5t-3 -24t-10 -13.5q-37 -18 -51 -39.5t-35 -70.5q-2 -4 -11 -6t-19.5 -3t-20.5 1t-12 8q-20 39 -39.5 58.5 t-54.5 27.5q-6 0 -10.5 10t-6.5 22.5zM468 1108q1 25 17 35q18 12 30.5 20t22 17.5t16.5 21.5t17 31q4 6 17.5 10t21.5 4h2q14 0 25.5 -3t13.5 -9q18 -35 34.5 -50.5t55.5 -33.5q6 -4 9.5 -15.5t3.5 -23.5t-4.5 -22.5t-10.5 -12.5q-43 -16 -58 -39.5t-32 -68.5q-2 -6 -12 -7 t-23.5 2t-26 8t-14.5 15q-10 25 -20 38t-21.5 20.5t-23.5 12.5t-25 15q-16 10 -15 35z" />
<glyph unicode="&#xa9;" horiz-adv-x="1585" d="M86 662q0 154 54.5 281.5t149.5 222t224 146.5t281 52h2q154 0 283.5 -55.5t223 -150.5t145.5 -223t52 -273q0 -143 -52 -269.5t-146.5 -220.5t-224.5 -148.5t-285 -54.5q-158 0 -288 54.5t-223.5 148.5t-144.5 220t-51 270zM176 664q0 -127 46 -240t127 -197t193.5 -133 t248.5 -49q137 0 250.5 49t195.5 133t127 197t45 240q0 129 -45 243.5t-127 198.5t-195.5 133t-250.5 49h-3q-131 0 -243.5 -47t-194.5 -130t-128 -197.5t-46 -249.5zM410 655v2q0 70 21.5 137.5t68.5 114.5q43 43 103.5 72t117.5 41q27 6 72 14t77 8q29 0 67 -3t54 -11 q14 -6 22.5 -5t18.5 11q6 4 15.5 5t37.5 -11q14 -4 16.5 -7t0.5 -7q-10 -20 -15.5 -49t-7.5 -61t-1 -62.5t1 -55.5q0 -4 -10 -4t-22.5 2t-22.5 5.5t-12 7.5q-12 37 -26.5 67.5t-35 52t-49.5 33t-72 11.5q-35 0 -69.5 -17.5t-62 -55.5t-46 -96.5t-18.5 -140.5 q0 -53 15.5 -104t43 -90t67.5 -62.5t89 -23.5q35 0 65.5 14t56 35.5t46 48.5t33.5 49q16 2 39.5 -8t21.5 -18q-4 -35 -13.5 -69t-19.5 -61.5t-19 -45t-16 -17.5q-29 0 -52 -3t-45.5 -6t-46.5 -5t-54 -2q-117 0 -200 32.5t-135 85t-75.5 119t-23.5 133.5z" />
<glyph unicode="&#xaa;" horiz-adv-x="720" d="M70 707v2q0 41 22.5 65.5t59.5 40.5q47 23 116.5 43.5t134.5 30.5q2 51 0 80.5t-14 42.5q-8 10 -27.5 22.5t-42.5 12.5q-10 0 -18 -1.5t-16 -3.5q-8 -4 -11.5 -21t-3.5 -65q0 -8 -14 -14l-106 -35q-18 -6 -29.5 -8t-16.5 -2q-20 0 -20 29q0 18 9 38.5t32 43.5 q31 33 74 61.5t71 38.5q25 12 58.5 19.5t58.5 7.5q86 0 140.5 -45.5t54.5 -106.5q0 -49 -5.5 -111.5t-5.5 -160.5q0 -29 12.5 -44.5t30.5 -15.5q14 0 32 6.5t32 14.5q2 0 12 -9.5t8 -15.5q-4 -10 -9 -33.5t-11 -27.5q-8 -4 -31.5 -12.5t-52.5 -17.5t-59.5 -16.5t-55.5 -7.5 q-29 0 -50 13.5t-38 60.5q-14 -6 -39.5 -18.5t-52.5 -23.5t-51.5 -20t-38.5 -9q-53 0 -96 45t-43 127zM260 752q0 -37 19.5 -67t54.5 -30q16 0 34.5 11.5t24.5 27.5l2 125q-31 -4 -56.5 -10t-47.5 -14q-31 -12 -31 -43z" />
<glyph unicode="&#xab;" horiz-adv-x="935" d="M111 379q-12 16 0 33q53 78 111.5 155.5t125.5 171.5q8 8 11 11.5t12 3.5h2q2 0 15 -6.5t28.5 -15.5t30 -19.5t20.5 -18.5t-2 -22q-66 -84 -117 -150.5t-98 -128.5q47 -57 102.5 -134t104.5 -140q4 -4 4 -12.5t-4 -12.5l-82 -59q-10 -8 -14.5 -6t-8.5 6q-25 33 -59.5 81 t-70.5 98t-65.5 94t-45.5 71zM438 380.5q4 10.5 23 37.5q63 84 123.5 160.5t126.5 160.5q16 16 26 17h2q4 0 15.5 -8.5t25 -20.5t24.5 -25.5t17 -21.5q12 -16 -2 -27q-53 -57 -91 -99t-66.5 -72.5t-49 -54.5t-37.5 -44q66 -78 126.5 -151.5t95.5 -118.5q2 -4 2 -9.5t-4 -7.5 q-4 -4 -17.5 -16t-29 -25.5t-28.5 -24t-20 -10.5q-80 98 -141 178.5t-115 157.5q-10 14 -6 24.5z" />
<glyph unicode="&#xac;" horiz-adv-x="1357" d="M170 688q-2 25 1 33t11 8l875 -2q47 0 75.5 -3t28.5 -24l6 -626q0 -20 -16 -21l-141 -6l2 461q0 53 -28 63.5t-77 10.5l-700 -2q-16 0 -22.5 4t-8.5 24z" />
<glyph unicode="&#xad;" horiz-adv-x="669" d="M111 334v2q0 27 13 60.5t36 45.5t80 31t119.5 39t117.5 37.5t74 23.5q25 10 33 7.5t24 -13.5q14 -6 10 -32q-16 -49 -27 -78t-19.5 -44.5t-17.5 -21.5t-24 -12q-8 -4 -60 -13.5t-116.5 -20.5t-126 -21.5t-90.5 -14.5q-20 -4 -23 2t-3 23z" />
<glyph unicode="&#xae;" horiz-adv-x="679" d="M63 1087q0 59 23 111.5t62.5 91.5t94 61.5t115.5 22.5h2q61 0 114.5 -20.5t91.5 -58.5t60.5 -91t22.5 -117q0 -61 -22.5 -112t-62.5 -90t-92 -60.5t-114 -21.5q-63 0 -116.5 21.5t-93 60.5t-62.5 91t-23 111zM121 1087q0 -104 67.5 -168.5t169.5 -64.5q49 0 92.5 17.5 t74 48t49 73.5t18.5 94q0 104 -66.5 170t-169.5 66h-2q-100 0 -166.5 -66.5t-66.5 -169.5zM215 1208v13q0 4 2 4q37 0 56.5 2t35.5 4q12 2 22.5 3t20.5 1q43 0 81 -17.5t38 -64.5q0 -20 -14.5 -38.5t-30.5 -31.5q12 -33 35.5 -67.5t54.5 -42.5q2 -2 2 -15.5t-2 -13.5 q-16 0 -34.5 1t-35.5 5q-39 10 -57 36t-33 54q-10 16 -15 20.5t-22 2.5q0 -10 1.5 -26.5t3.5 -26.5q0 -10 4 -12.5t24 -6.5q14 -2 4 -22l-4 -13h-69q-27 0 -38.5 -1t-15.5 -1q-6 0 -8 2l-4 21q-2 14 2 14q10 2 18.5 6t10.5 19q4 31 4 76t-4 77q0 10 -4 14.5t-21 8.5 q-4 2 -6 4t-2 12zM319 1100q16 0 33 4t21 8q14 14 14 37v2q0 16 -11 32.5t-34 12.5q-8 0 -12 -2q-6 -4 -6 -8q-2 -10 -3.5 -20.5t-1.5 -22.5v-43z" />
<glyph unicode="&#xaf;" horiz-adv-x="851" d="M172 1141q0 12 8 17t13 5h477q8 -10 9 -57t1 -86q0 -16 -47 -16h-422q-12 0 -18.5 9t-10.5 44z" />
<glyph unicode="&#xb0;" horiz-adv-x="622" d="M63 1061q0 41 10.5 81t28.5 64q18 25 45 46.5t58 39t63.5 26.5t63.5 9h2q49 0 90 -17.5t71.5 -49t48 -73.5t17.5 -91q0 -86 -31.5 -132t-99.5 -94q-33 -23 -68.5 -31t-64.5 -8q-102 0 -168 65t-66 165zM190 1094q0 -63 42 -109.5t102 -44.5q55 2 79.5 40t24.5 85 q0 27 -10 54.5t-27.5 50t-42 36t-53.5 13.5h-2q-57 0 -85 -35t-28 -90z" />
<glyph unicode="&#xb1;" horiz-adv-x="1357" d="M172 2l4 127q2 20 21 21l985 -3q2 -4 3 -25.5t1 -47t-3 -47t-5 -27.5zM176 780q0 16 3 19.5t11 3.5h418l-2 393q0 29 15 29h124q14 0 16.5 -5.5t2.5 -27.5l-4 -389h411q10 0 12.5 -4t2.5 -21v-116q-10 -2 -49 -3.5t-117 -1.5h-260v-202.5t2 -221.5q0 -6 -14.5 -5t-69.5 5 l-43 5q-18 2 -23.5 10t-5.5 16l2 393h-426q-2 23 -4 65t-2 58z" />
<glyph unicode="&#xb2;" horiz-adv-x="722" d="M77 780q-1 4 5 21q16 55 32.5 75.5t28.5 28.5q39 25 88.5 58.5t94.5 74.5t75.5 88.5t30.5 100.5q0 45 -27.5 76.5t-91.5 31.5q-51 0 -80.5 -22.5t-54.5 -50.5q-12 -14 -35 -15q-29 0 -34 2t0 11q6 16 15 39.5t21.5 47t24.5 44t23 28.5q10 8 29.5 21.5t45 26t55 20.5 t60.5 8h2q104 0 173 -59.5t69 -169.5q0 -41 -20.5 -83t-55.5 -77q-12 -12 -41 -33.5t-61.5 -43t-63.5 -40t-45 -28.5q-10 -6 -11 -12.5t13 -6.5q8 0 40 1t69.5 3t72.5 4t49 2q16 2 28.5 14.5t35.5 51.5q6 10 12 8q2 0 10.5 -7t17.5 -15.5t14 -16.5t3 -14q-12 -16 -29.5 -50 t-34 -69t-30.5 -61.5t-18 -26.5q-131 4 -252 7t-238 3q-14 0 -15 4z" />
<glyph unicode="&#xb3;" horiz-adv-x="722" d="M82 745q4 6 17.5 20.5t21.5 14.5q39 -2 91 3t99 21.5t80 50.5t33 91q0 45 -35 71.5t-98 26.5q-18 0 -40 -3t-34 -7q-10 -2 -19.5 -3t-9.5 9q0 51 47.5 79t104.5 48q39 14 58.5 32t19.5 46q0 41 -30 72t-83 31q-47 0 -78.5 -22.5t-66.5 -70.5q-16 4 -27.5 18.5t-11.5 24.5 q0 14 10 31q18 33 47 62.5t62.5 52t68.5 36t70 13.5h2q43 0 83 -12.5t69.5 -35t48 -56t18.5 -76.5q0 -47 -40 -81t-99 -73q76 -23 133 -64.5t57 -111.5q0 -43 -15 -79t-39 -63.5t-51.5 -49t-53.5 -33.5q-72 -35 -147 -48.5t-134 -13.5q-33 0 -65.5 11.5t-43.5 15.5 q-10 6 -13 12t-7 10z" />
<glyph unicode="&#xb4;" horiz-adv-x="851" d="M317 991q20 49 50 103.5t60 100.5t56.5 75.5t40.5 29.5h2q39 0 81 -21.5t71 -43.5q18 -16 16 -27.5t-6 -15.5q-35 -27 -80 -70t-88 -85t-76.5 -73.5t-42.5 -37.5q-14 -10 -21 -7t-30 31z" />
<glyph unicode="&#xb5;" horiz-adv-x="1038" d="M78 -471q16 141 29.5 308t15.5 366v81v114.5t-1 127t-1 119.5t-1 92t-1 43q16 10 47 17.5t65.5 12.5t67.5 8t51 3t19 -20q0 -29 -1 -74t-6 -86q-4 -35 -6 -77t-4 -82t-3 -74.5t-1 -57.5q0 -78 12.5 -114.5t28.5 -55.5q20 -23 48 -31t50 -8q37 2 77 20.5t69 67.5 q6 10 10 18.5t7 21t5 29.5t2 48v121v81t-1 61.5t-1 60.5q-2 53 0 89t15 42q6 2 37.5 3t69.5 0t71 -3t39 -2q0 -31 -1 -83t-2 -107.5t-2 -106.5t-1 -84v-158q0 -53 9 -91t50 -38q16 0 38.5 16.5t53.5 55.5q12 0 23.5 -26.5t7.5 -45.5q-2 -14 -21.5 -41t-52.5 -54.5t-75 -48 t-87 -20.5q-66 0 -111.5 39t-62.5 125q-29 -47 -67.5 -87t-59.5 -54q-23 -14 -43 -17.5t-37 -3.5h-2q-41 0 -74.5 21.5t-60.5 58.5q-4 -180 -1 -309t-3 -199q-29 -18 -61.5 -30.5t-63 -20.5t-53.5 -11t-29 -3q-16 0 -20 15t0 38z" />
<glyph unicode="&#xb6;" horiz-adv-x="1308" d="M86 575v3q0 168 60.5 300t152.5 218q51 49 120.5 92t159 74.5t198 51t237.5 19.5q23 0 60.5 -2t68.5 -6q25 -4 30 -16.5t-10 -40.5q-16 -25 -32.5 -32t-40.5 -7q-35 -2 -65 -3t-60 -1q-18 0 -29.5 -8.5t-13.5 -36.5q-2 -20 -4.5 -50t-4.5 -82.5t-4 -133t-4 -200.5 t-3 -287t-1 -390q0 -47 6 -63.5t21 -18.5q20 -4 76.5 -2t119.5 4q45 4 45 -31q0 -27 -28.5 -41t-63.5 -22q-29 -4 -60.5 -5t-62.5 -1q-160 0 -319.5 34.5t-286.5 124.5q-121 86 -191.5 227.5t-70.5 331.5zM549 573q0 -209 27.5 -340t60.5 -176q25 -33 62.5 -57.5t64.5 -30.5 q16 -2 19 11.5t5 27.5q2 18 3.5 95t2.5 184.5t2 231.5t2 238.5t0 206t-1 132.5q0 43 -2 65.5t-5.5 33.5t-8.5 13t-13 2q-20 0 -50 -12t-50 -29q-23 -16 -41.5 -41.5t-34.5 -72.5q-14 -39 -28.5 -154t-14.5 -326v-2z" />
<glyph unicode="&#xb7;" horiz-adv-x="518" d="M63 397q0 12 13.5 35t25.5 25q31 4 47.5 8t27.5 13t19.5 24.5t22.5 44.5q12 25 31.5 37t40.5 12h2q25 0 31 -21q6 -29 12 -50t16 -36.5t25.5 -26.5t40.5 -22q20 -8 30.5 -20t10.5 -51q0 -16 -21 -21q-31 -10 -49 -17t-29.5 -20.5t-19.5 -38t-23 -69.5q-8 -20 -43 -21 q-31 0 -47 28t-39 71q-16 35 -40.5 50t-47.5 27q-37 14 -37 39z" />
<glyph unicode="&#xb8;" horiz-adv-x="851" d="M242 -428q74 33 120 67.5t46 57.5q0 29 -30 41t-91 31q-16 2 -18.5 5t-2.5 11q0 29 10 47q6 4 22.5 26.5t36 50.5t40 56.5t33.5 44.5h122l-92 -125q90 -35 120 -71.5t30 -77.5q0 -43 -34 -83t-81 -73t-96 -54.5t-80 -29.5z" />
<glyph unicode="&#xb9;" horiz-adv-x="722" d="M128 1331.5q-5 22.5 3 26.5q33 12 87 32.5t108.5 40t98.5 37t56 25.5q4 4 16.5 -10.5t12.5 -20.5q-4 -27 -10 -109.5t-6 -201.5q0 -117 7 -179.5t9 -78.5q2 -25 6 -29t10 -4h99q2 -4 1 -18.5t-4.5 -28.5t-7.5 -25.5t-6 -11.5q-115 0 -219 -1t-231 -19q-8 -2 -13.5 9 t-3.5 15q8 18 16.5 29.5t22 19t32.5 11.5t52 10q6 2 10.5 7t7.5 29.5t4 76t1 147.5q0 84 -1 121t-3 61q-2 23 -17 21q-23 -4 -58.5 -7t-64.5 -3q-10 6 -15 28.5z" />
<glyph unicode="&#xba;" horiz-adv-x="780" d="M63 807q0 102 47.5 164.5t110.5 97.5q43 25 101.5 40t95.5 15h2q47 0 99 -18.5t96 -55t73 -92t29 -129.5q0 -51 -15.5 -92t-38 -70.5t-47 -49t-43.5 -29.5q-14 -8 -40.5 -17.5t-56.5 -17.5t-57.5 -14.5t-45.5 -6.5q-61 0 -135 24t-127 95q-20 29 -34 72t-14 84zM276 862 q0 -63 15.5 -119.5t44.5 -89.5q43 -37 80 -37q25 0 42 15.5t27.5 40t14.5 55.5t4 61q0 59 -11.5 122t-43.5 96q-35 37 -95 36h-2q-25 0 -40 -17t-22 -44t-10.5 -58.5t-3.5 -60.5z" />
<glyph unicode="&#xbb;" horiz-adv-x="935" d="M117 117q51 59 90 102t67.5 75t49 55.5t36.5 43.5q-66 80 -126 152.5t-95 118.5q-4 14 2 18q4 4 17.5 16.5t28 24.5t27.5 22.5t19 10.5q80 -96 142.5 -176t113.5 -158q10 -14 7.5 -26.5t-21.5 -35.5q-63 -86 -123.5 -161.5t-128.5 -159.5q-12 -18 -24 -19h-2 q-6 0 -17.5 8.5t-24 20.5t-23.5 23.5t-13 17.5q-10 16 -2 27zM471 78q-8 18 0 28q66 84 117 151t98 126q-47 61 -102.5 141t-102.5 135q-4 6 -5 13.5t3 11.5l82 59q10 6 14.5 5.5t8.5 -5.5q25 -35 59.5 -83t69.5 -97t64.5 -94t45.5 -72q14 -16 0 -30q-53 -78 -110.5 -156 t-124.5 -172q-8 -8 -11.5 -12t-11.5 -4h-2q-4 0 -17.5 6t-28.5 14t-28.5 18.5t-17.5 16.5z" />
<glyph unicode="&#xbc;" horiz-adv-x="1703" d="M117 1126.5q-4 22.5 4 26.5q33 12 87 32.5t108.5 40t98.5 37t56 25.5q4 4 15.5 -10t11.5 -21q-4 -27 -9.5 -109.5t-5.5 -201.5q0 -117 6.5 -179t8.5 -79q2 -25 7 -29t11 -4h98q2 -4 1 -18t-4 -28.5t-7 -26t-6 -11.5q-115 0 -220.5 -1t-230.5 -19q-8 -2 -14 9t-4 15 q8 16 15.5 26.5t19.5 18t31.5 12.5t50.5 11q10 2 16 7t9 30t4 77t1 148q0 84 -1 121t-3 61q-2 23 -16 21q-23 -4 -59.5 -7t-65.5 -3q-10 6 -14 28.5zM379 -29q113 182 221.5 356.5t211.5 341.5t203.5 331.5t201.5 328.5q16 25 30 25h2q8 0 32 -17.5t42 -40.5 q-217 -350 -427 -688t-398 -661q-20 -31 -27 -31q-12 0 -26.5 7t-28 16.5t-24.5 18.5t-13 13zM861 193.5q-1 11.5 0 23.5t3 23.5t6 15.5q45 57 97.5 115.5t100.5 108.5t88 90t58 59q47 45 104.5 68.5t90.5 23.5q16 0 19.5 -12.5t3.5 -65.5t-1 -110.5t-1 -107.5t-1.5 -88 t-1.5 -56q41 0 61.5 7t45.5 25q4 4 13 2t17.5 -6t14.5 -9t6 -9q-20 -57 -38.5 -94t-59.5 -37h-62q0 -29 1 -76t4 -86q0 -8 -30 -16.5t-66 -15.5t-66.5 -12t-34.5 -5q-10 0 -17.5 12t-5.5 35l9 168l-357 12q0 6 -1 17.5zM1012 279h215l14 266q-23 -18 -54.5 -52t-64 -73 t-62.5 -77t-48 -64z" />
<glyph unicode="&#xbd;" horiz-adv-x="1703" d="M128 1126.5q-5 22.5 3 26.5q33 12 87 32.5t108.5 40t98.5 37t56 25.5q4 4 16.5 -10t12.5 -21q-4 -27 -10 -109.5t-6 -201.5q0 -117 7 -179t9 -79q2 -25 6 -29t10 -4h99q2 -4 1 -18t-4.5 -28.5t-7.5 -26t-6 -11.5q-115 0 -219 -1t-231 -19q-8 -2 -13.5 9t-3.5 15 q6 16 13.5 26.5t19.5 18t31.5 12.5t50.5 11q10 2 16.5 7t9.5 30t4 77t1 148q0 84 -1 121t-3 61q-2 23 -17 21q-23 -4 -58.5 -7t-64.5 -3q-10 6 -15 28.5zM379 -29q113 182 221.5 356.5t211.5 341.5t203.5 331.5t201.5 328.5q16 25 30 25h2q8 0 32 -17.5t42 -40.5 q-217 -350 -427 -688t-398 -661q-20 -31 -27 -31q-12 0 -26.5 7t-28 16.5t-24.5 18.5t-13 13zM964 4q-1 4 3 21q16 55 33.5 75.5t27.5 28.5q39 27 89 60.5t95 73.5t76 87t31 101q0 47 -27.5 78.5t-91.5 31.5q-53 0 -81.5 -23.5t-53.5 -52.5q-6 -8 -13.5 -11t-23.5 -3 q-27 0 -32 2t-1 10q6 16 15.5 40t21.5 48.5t23.5 44t21.5 27.5q23 18 76 48t117 30h2q104 0 171.5 -60.5t67.5 -171.5q0 -86 -73 -159q-12 -12 -42 -34t-63 -43.5t-62.5 -39.5t-43.5 -29q-10 -6 -11.5 -12t13.5 -6q8 0 39.5 1t69.5 3t73 4t47 2q16 2 29.5 14.5t32.5 45.5 q8 20 16 16q2 0 10 -7t17.5 -15.5t14.5 -17.5t3 -13q-12 -16 -29.5 -51t-34 -70t-30.5 -61.5t-19 -26.5q-133 4 -253.5 7t-237.5 3q-12 0 -13 4z" />
<glyph unicode="&#xbe;" horiz-adv-x="1703" d="M106 541q4 6 18.5 20t22.5 14q39 -2 91.5 3.5t98.5 21.5t79 50t33 91q0 45 -34 72t-98 27q-20 0 -40.5 -3t-32.5 -8q-12 -2 -21.5 -3t-9.5 10q0 51 47 78.5t107 48.5q39 14 57 31.5t18 45.5q0 41 -29.5 72t-82.5 31q-47 0 -79 -22.5t-67 -69.5q-16 4 -26.5 18t-10.5 25 q0 14 11 30q18 33 46.5 63t62.5 52.5t69 35.5t70 13h2q43 0 82.5 -12t69.5 -34.5t48.5 -56.5t18.5 -77q0 -47 -40 -81t-102 -73q37 -12 72 -27.5t61.5 -37t43 -49t16.5 -62.5q0 -43 -15.5 -78.5t-39 -63.5t-52 -49.5t-53.5 -33.5q-72 -35 -146.5 -48t-135.5 -13 q-31 0 -65 11t-44 15q-10 6 -13 12.5t-8 10.5zM377 -29q113 182 221.5 356.5t211.5 341.5t203.5 331.5t200.5 328.5q16 25 31 25h2q8 0 32 -17.5t42 -40.5q-217 -350 -427 -688t-398 -661q-20 -31 -27 -31q-12 0 -26.5 7t-28 16.5t-24.5 18.5t-13 13zM861 193.5 q-1 11.5 0 23.5t3 23.5t6 15.5q45 57 97.5 115.5t100.5 108.5t88 90t58 59q47 45 104.5 68.5t90.5 23.5q16 0 19.5 -12.5t3.5 -65.5t-1 -110.5t-1 -107.5t-1.5 -88t-1.5 -56q49 0 70 7t37 25q4 4 13 2t17.5 -6t14.5 -9t6 -9q-20 -57 -38.5 -94t-59.5 -37h-62q0 -29 1 -76 t4 -86q0 -8 -30 -16.5t-66 -15.5t-66.5 -12t-34.5 -5q-10 0 -17.5 12t-5.5 35l9 168l-357 12q0 6 -1 17.5zM1012 279h215l14 266q-23 -18 -54.5 -52t-64 -73t-62.5 -77t-48 -64z" />
<glyph unicode="&#xbf;" horiz-adv-x="675" d="M72 -160q0 37 5 77t13 78t17.5 69.5t17.5 50.5q39 90 102.5 120.5t128.5 30.5h60q35 0 52 20.5t13 88.5q12 10 23.5 15t23.5 16q14 4 17.5 -0.5t7.5 -14.5q6 -12 13 -47t12.5 -76t8.5 -83t3 -68q0 -10 -11.5 -29.5t-26.5 -38t-28.5 -32t-19.5 -13.5h-86 q-113 0 -178.5 -23.5t-65.5 -68.5q0 -12 10.5 -29.5t34 -34t64.5 -27.5t102 -11q6 0 16.5 -9.5t19.5 -21.5t16 -26.5t7 -26.5q0 -23 -10 -50.5t-28.5 -52t-44 -41t-54.5 -16.5h-2q-49 0 -92 24.5t-73.5 63.5t-49 88t-18.5 98zM241 670q5 10 40 26q35 18 50 40t27 59 q6 23 32 32t42 9q25 0 37 -33q10 -25 25.5 -52.5t48.5 -41.5q25 -10 36 -24.5t21 -31.5q10 -16 7 -27.5t-19 -21.5q-55 -29 -78 -46t-33 -46t-17 -37t-18 -8h-2q-33 0 -53 7t-33 42q-8 20 -19 32.5t-44 29.5q-27 14 -36 23t-13 32q-6 27 -1 37z" />
<glyph unicode="&#xc0;" horiz-adv-x="1492" d="M55 66q39 10 65.5 31.5t45 49t34 60.5t31.5 69q12 25 39 84.5t62 139.5t76 173t80.5 186t76.5 178t64 151q14 35 25.5 68.5t21.5 52.5q6 23 18 28q16 8 43 14.5t49 6.5h2q16 0 20.5 -6t12.5 -29q23 -68 43.5 -125t41 -112.5t43 -115t48.5 -130.5q27 -70 63 -160 t71.5 -177t65.5 -157t42 -96q20 -43 37.5 -74t39 -54.5t51.5 -38.5t75 -24q0 2 -2 -8t-6 -23.5t-9.5 -24.5t-11.5 -11q-78 2 -127 2h-84q-35 2 -57.5 2h-48.5q-25 0 -52.5 -1t-52.5 -1q-25 -2 -43 -3t-28 -1q-12 0 -15 8q-4 8 -13 30.5t-5 26.5q63 16 79.5 30.5t16.5 45.5 q0 18 -12.5 58t-27.5 83t-28.5 79t-17.5 44q-12 29 -23.5 40t-21.5 11h-79h-107.5t-112.5 -2t-90 -4q-27 -2 -38 -14t-22 -41q-8 -20 -19 -49t-22.5 -61.5t-19.5 -63.5t-8 -53q0 -39 27.5 -57.5t99.5 -34.5q6 -2 6 -12.5t-4 -23t-9 -22.5t-10 -10q-98 2 -177 2h-109 q-29 0 -49.5 -1t-26.5 1q-12 0 -14 8q-4 8 -12.5 30.5t-0.5 27.5zM445.5 1595.5q-3.5 10.5 7.5 24.5q12 16 29.5 36.5t38 39t43 31t40.5 12.5h2q12 0 51 -38t84 -85t82 -92t45 -58q2 -6 -8 -14t-23.5 -18.5t-28.5 -19.5t-26 -15q-29 16 -70.5 39.5t-86.5 48t-90.5 49.5 t-77.5 45q-8 4 -11.5 14.5zM479 575q-4 -8 9.5 -16t35.5 -8h2q16 0 45 -1t74 -1h82t72 2q16 0 25.5 10t6.5 14q-55 168 -89.5 265.5t-61.5 163.5q-4 10 -11 11t-12 -5q-27 -57 -46 -102.5t-38.5 -93.5t-41 -103.5t-52.5 -135.5z" />
<glyph unicode="&#xc1;" horiz-adv-x="1492" d="M55 66q39 10 65.5 31.5t45 49t34 60.5t31.5 69q12 25 39 84.5t62 139.5t76 173t80.5 186t76.5 178t64 151q14 35 25.5 68.5t21.5 52.5q6 23 18 28q16 8 43 14.5t49 6.5h2q16 0 20.5 -6t12.5 -29q23 -68 43.5 -125t41 -112.5t43 -115t48.5 -130.5q27 -70 63 -160 t71.5 -177t65.5 -157t42 -96q20 -43 37.5 -74t39 -54.5t51.5 -38.5t75 -24q0 2 -2 -8t-6 -23.5t-9.5 -24.5t-11.5 -11q-78 2 -127 2h-84q-35 2 -57.5 2h-48.5q-25 0 -52.5 -1t-52.5 -1q-25 -2 -43 -3t-28 -1q-12 0 -15 8q-4 8 -13 30.5t-5 26.5q63 16 79.5 30.5t16.5 45.5 q0 18 -12.5 58t-27.5 83t-28.5 79t-17.5 44q-12 29 -23.5 40t-21.5 11h-79h-107.5t-112.5 -2t-90 -4q-27 -2 -38 -14t-22 -41q-8 -20 -19 -49t-22.5 -61.5t-19.5 -63.5t-8 -53q0 -39 27.5 -57.5t99.5 -34.5q6 -2 6 -12.5t-4 -23t-9 -22.5t-10 -10q-98 2 -177 2h-109 q-29 0 -49.5 -1t-26.5 1q-12 0 -14 8q-4 8 -12.5 30.5t-0.5 27.5zM479 575q-4 -8 9.5 -16t35.5 -8h2q16 0 45 -1t74 -1h82t72 2q16 0 25.5 10t6.5 14q-55 168 -89.5 265.5t-61.5 163.5q-4 10 -11 11t-12 -5q-27 -57 -46 -102.5t-38.5 -93.5t-41 -103.5t-52.5 -135.5z M647 1483q51 59 111.5 119.5t103.5 95.5q37 23 78 22h2q43 0 80 -36.5t68 -79.5q8 -4 6 -12.5t-13 -12.5q-29 -14 -81 -38.5t-110 -51.5t-110.5 -50.5t-81.5 -35.5q-8 6 -18 18.5t-19.5 25.5t-14.5 23.5t-1 12.5z" />
<glyph unicode="&#xc2;" horiz-adv-x="1492" d="M55 66q39 10 65.5 31.5t45 49t34 60.5t31.5 69q12 25 39 84.5t62 139.5t76 173t80.5 186t76.5 178t64 151q14 35 25.5 68.5t21.5 52.5q6 23 18 28q16 8 43 14.5t49 6.5h2q16 0 20.5 -6t12.5 -29q23 -68 43.5 -125t41 -112.5t43 -115t48.5 -130.5q27 -70 63 -160 t71.5 -177t65.5 -157t42 -96q20 -43 37.5 -74t39 -54.5t51.5 -38.5t75 -24q0 2 -2 -8t-6 -23.5t-9.5 -24.5t-11.5 -11q-78 2 -127 2h-84q-35 2 -57.5 2h-48.5q-25 0 -52.5 -1t-52.5 -1q-25 -2 -43 -3t-28 -1q-12 0 -15 8q-4 8 -13 30.5t-5 26.5q63 16 79.5 30.5t16.5 45.5 q0 18 -12.5 58t-27.5 83t-28.5 79t-17.5 44q-12 29 -23.5 40t-21.5 11h-79h-107.5t-112.5 -2t-90 -4q-27 -2 -38 -14t-22 -41q-8 -20 -19 -49t-22.5 -61.5t-19.5 -63.5t-8 -53q0 -39 27.5 -57.5t99.5 -34.5q6 -2 6 -12.5t-4 -23t-9 -22.5t-10 -10q-98 2 -177 2h-109 q-29 0 -49.5 -1t-26.5 1q-12 0 -14 8q-4 8 -12.5 30.5t-0.5 27.5zM447.5 1464.5q-1.5 8.5 1.5 12.5q10 8 42.5 34.5t70.5 57t72 57.5t48 37q25 16 49.5 31.5t50.5 15.5h2q10 0 35 -19.5t58.5 -50t75.5 -69.5t89 -80q8 -10 3 -16.5t-21 -20.5q-23 -14 -52.5 -28.5 t-35.5 -18.5q-18 14 -44 32.5t-52.5 39t-49 38t-36.5 27.5q-10 -8 -39 -27.5t-61.5 -39t-60.5 -35t-36 -15.5q-14 0 -43 6.5t-63 22.5q-2 0 -3.5 8.5zM479 575q-4 -8 9.5 -16t35.5 -8h2q16 0 45 -1t74 -1h82t72 2q16 0 25.5 10t6.5 14q-55 168 -89.5 265.5t-61.5 163.5 q-4 10 -11 11t-12 -5q-27 -57 -46 -102.5t-38.5 -93.5t-41 -103.5t-52.5 -135.5z" />
<glyph unicode="&#xc3;" horiz-adv-x="1492" d="M55 66q39 10 65.5 31.5t45 49t34 60.5t31.5 69q12 25 39 84.5t62 139.5t76 173t80.5 186t76.5 178t64 151q14 35 25.5 68.5t21.5 52.5q6 23 18 28q16 8 43 14.5t49 6.5h2q16 0 20.5 -6t12.5 -29q23 -68 43.5 -125t41 -112.5t43 -115t48.5 -130.5q27 -70 63 -160 t71.5 -177t65.5 -157t42 -96q20 -43 37.5 -74t39 -54.5t51.5 -38.5t75 -24q0 2 -2 -8t-6 -23.5t-9.5 -24.5t-11.5 -11q-78 2 -127 2h-84q-35 2 -57.5 2h-48.5q-25 0 -52.5 -1t-52.5 -1q-25 -2 -43 -3t-28 -1q-12 0 -15 8q-4 8 -13 30.5t-5 26.5q63 16 79.5 30.5t16.5 45.5 q0 18 -12.5 58t-27.5 83t-28.5 79t-17.5 44q-12 29 -23.5 40t-21.5 11h-79h-107.5t-112.5 -2t-90 -4q-27 -2 -38 -14t-22 -41q-8 -20 -19 -49t-22.5 -61.5t-19.5 -63.5t-8 -53q0 -39 27.5 -57.5t99.5 -34.5q6 -2 6 -12.5t-4 -23t-9 -22.5t-10 -10q-98 2 -177 2h-109 q-29 0 -49.5 -1t-26.5 1q-12 0 -14 8q-4 8 -12.5 30.5t-0.5 27.5zM472.5 1409q-3.5 2 0.5 14q25 61 44.5 104.5t42 71t51 41t69.5 13.5h2q20 0 45 -5.5t49.5 -11.5t46 -11t35.5 -5q41 0 119 90q4 -4 15.5 -14t21.5 -21.5t18 -22t6 -12.5q-12 -16 -31.5 -40.5t-42 -48 t-42 -44t-31.5 -26.5q-29 -16 -56.5 -18.5t-62.5 7.5q-27 6 -65.5 17.5t-57.5 11.5q-12 0 -24.5 -11t-22.5 -25.5t-17 -29t-10 -18.5q-8 -8 -22 -9t-61 1q-16 0 -19.5 2zM479 575q-4 -8 9.5 -16t35.5 -8h2q16 0 45 -1t74 -1h82t72 2q16 0 25.5 10t6.5 14 q-55 168 -89.5 265.5t-61.5 163.5q-4 10 -11 11t-12 -5q-27 -57 -46 -102.5t-38.5 -93.5t-41 -103.5t-52.5 -135.5z" />
<glyph unicode="&#xc4;" horiz-adv-x="1492" d="M55 66q39 10 65.5 31.5t45 49t34 60.5t31.5 69q12 25 39 84.5t62 139.5t76 173t80.5 186t76.5 178t64 151q14 35 25.5 68.5t21.5 52.5q6 23 18 28q16 8 43 14.5t49 6.5h2q16 0 20.5 -6t12.5 -29q23 -68 43.5 -125t41 -112.5t43 -115t48.5 -130.5q27 -70 63 -160 t71.5 -177t65.5 -157t42 -96q20 -43 37.5 -74t39 -54.5t51.5 -38.5t75 -24q0 2 -2 -8t-6 -23.5t-9.5 -24.5t-11.5 -11q-78 2 -127 2h-84q-35 2 -57.5 2h-48.5q-25 0 -52.5 -1t-52.5 -1q-25 -2 -43 -3t-28 -1q-12 0 -15 8q-4 8 -13 30.5t-5 26.5q63 16 79.5 30.5t16.5 45.5 q0 18 -12.5 58t-27.5 83t-28.5 79t-17.5 44q-12 29 -23.5 40t-21.5 11h-79h-107.5t-112.5 -2t-90 -4q-27 -2 -38 -14t-22 -41q-8 -20 -19 -49t-22.5 -61.5t-19.5 -63.5t-8 -53q0 -39 27.5 -57.5t99.5 -34.5q6 -2 6 -12.5t-4 -23t-9 -22.5t-10 -10q-98 2 -177 2h-109 q-29 0 -49.5 -1t-26.5 1q-12 0 -14 8q-4 8 -12.5 30.5t-0.5 27.5zM361 1592.5q1 13.5 10 19.5q41 25 61.5 41t42.5 65q2 4 13.5 8.5t25.5 4.5h2q10 0 22.5 -3.5t16.5 -11.5q18 -31 33.5 -50t56.5 -34q8 0 11 -11t3 -24.5t-4 -25.5t-10 -15q-20 -10 -33.5 -20t-22.5 -22.5 t-18.5 -31t-19.5 -44.5q-2 -6 -11.5 -9.5t-21.5 -3.5t-22.5 3.5t-12.5 9.5q-23 41 -45 63.5t-57 26.5q-6 0 -11 11t-7.5 25.5t-1.5 28zM479 575q-4 -8 9.5 -16t35.5 -8h2q16 0 45 -1t74 -1h82t72 2q16 0 25.5 10t6.5 14q-55 168 -89.5 265.5t-61.5 163.5q-4 10 -11 11 t-12 -5q-27 -57 -46 -102.5t-38.5 -93.5t-41 -103.5t-52.5 -135.5zM823.5 1584q-0.5 28 20.5 40q20 12 33.5 20.5t22.5 18.5t17.5 23.5t18.5 33.5q4 6 18.5 10.5t24.5 4.5h2q16 0 28.5 -3t14.5 -10q20 -39 37.5 -55t58.5 -37q8 -4 11.5 -16t3.5 -25.5t-4.5 -25t-12.5 -13.5 q-47 -20 -65.5 -43.5t-34.5 -74.5q-2 -6 -13.5 -8.5t-25.5 0.5t-26.5 10.5t-14.5 17.5q-20 41 -37.5 59.5t-56.5 32.5q-20 12 -20.5 40z" />
<glyph unicode="&#xc5;" horiz-adv-x="1492" d="M55 66q39 10 65.5 31.5t45 49t34 60.5t31.5 69q12 25 39 84.5t62 139.5t76 173t80.5 186t76.5 178t64 151q14 35 25.5 68.5t21.5 52.5q6 23 18 28q16 8 43 14.5t49 6.5h2q16 0 20.5 -6t12.5 -29q23 -68 43.5 -125t41 -112.5t43 -115t48.5 -130.5q27 -70 63 -160 t71.5 -177t65.5 -157t42 -96q20 -43 37.5 -74t39 -54.5t51.5 -38.5t75 -24q0 2 -2 -8t-6 -23.5t-9.5 -24.5t-11.5 -11q-78 2 -127 2h-84q-35 2 -57.5 2h-48.5q-25 0 -52.5 -1t-52.5 -1q-25 -2 -43 -3t-28 -1q-12 0 -15 8q-4 8 -13 30.5t-5 26.5q63 16 79.5 30.5t16.5 45.5 q0 18 -12.5 58t-27.5 83t-28.5 79t-17.5 44q-12 29 -23.5 40t-21.5 11h-79h-107.5t-112.5 -2t-90 -4q-27 -2 -38 -14t-22 -41q-8 -20 -19 -49t-22.5 -61.5t-19.5 -63.5t-8 -53q0 -39 27.5 -57.5t99.5 -34.5q6 -2 6 -12.5t-4 -23t-9 -22.5t-10 -10q-98 2 -177 2h-109 q-29 0 -49.5 -1t-26.5 1q-12 0 -14 8q-4 8 -12.5 30.5t-0.5 27.5zM479 575q-4 -8 9.5 -16t35.5 -8h2q16 0 45 -1t74 -1h82t72 2q16 0 25.5 10t6.5 14q-55 168 -89.5 265.5t-61.5 163.5q-4 10 -11 11t-12 -5q-27 -57 -46 -102.5t-38.5 -93.5t-41 -103.5t-52.5 -135.5z M541 1571q0 139 145 201q23 10 38 15t38 5h2q45 0 81 -16.5t60.5 -42t37.5 -59.5t13 -68q0 -66 -29.5 -104t-84.5 -66q-41 -23 -64.5 -30t-44.5 -7q-39 0 -73.5 13t-61.5 35.5t-42 54.5t-15 69zM653 1610q0 -61 32 -89t79 -30q41 -2 62.5 27.5t21.5 66.5q0 53 -32 83t-71 30 h-2q-39 0 -64.5 -25.5t-25.5 -62.5z" />
<glyph unicode="&#xc6;" horiz-adv-x="1996" d="M31 74q43 6 68.5 14t48 29.5t47 60.5t63.5 103q57 98 126 212.5t141.5 234.5t145 239.5t138.5 226.5q25 39 -4 43q-31 2 -71 5t-75 5q-18 0 -23 5t-3 18l6 57q47 -2 132 -4t196 -2h446q92 0 183.5 6t185.5 6q43 0 51 -8q18 -16 12 -55q-16 -86 -19 -152.5t-3 -107.5 q0 -16 -35 -15q-18 0 -25.5 4.5t-11.5 14.5q-14 51 -28.5 93t-36 70.5t-53 45t-81.5 16.5h-94q-90 0 -132 -2t-54 -4q-23 -4 -31 -20.5t-8 -71.5q0 -94 -2 -197.5t0 -243.5q0 -20 2 -27t12 -7h96q70 0 111 2t64 4q47 2 75.5 7t47 20.5t31.5 42t30 73.5q4 10 16.5 13t32.5 3 q18 0 22.5 -6t2.5 -18q-8 -59 -11.5 -110.5t-3.5 -98.5t3 -95t7 -100q-10 -6 -23 -8t-30 -2q-23 0 -22 6q-2 8 -5 23.5t-7.5 31t-8.5 30t-6 20.5q-20 53 -123 63q-41 4 -83 4h-111h-65.5t-39.5 -4q-10 -2 -13 -84t-3 -213q0 -61 3 -89.5t15 -45.5q12 -14 36 -23.5 t53.5 -15.5t60 -9t57.5 -3q82 0 147.5 8t115.5 36t85 81t58 143q6 6 30.5 5t34.5 -3q4 -2 5 -6t1 -22q-4 -98 -22.5 -183.5t-36.5 -130.5q-10 -16 -25 -16h-96q-47 2 -146.5 3t-238.5 1q-178 0 -310 -4t-243 -8q-4 10 -4 31.5t2 31.5q2 0 4 3t8 5q43 6 69 10.5t39 11.5 t18 17.5t7 26.5q8 104 10.5 216t2.5 189q0 23 -4 28t-19 7q-31 2 -76 3t-92 2t-89 0t-64 -1q-29 -2 -48.5 -7t-37.5 -34q-47 -78 -83 -148.5t-73 -146.5q-16 -35 -23.5 -61.5t4 -46t47 -33.5t103.5 -22q4 -10 -1 -38t-11 -34q-41 0 -84 1t-84 1h-77h-60h-36t-43.5 -1 t-36.5 -1h-18q-2 0 -8 1t-10 7q-4 12 -10 34.5t-4 33.5zM633 680q4 -14 24 -14h287q18 0 21.5 5t3.5 23l8 525q0 8 -15.5 7t-25.5 -18q-59 -100 -137 -223t-166 -283q-4 -8 0 -22z" />
<glyph unicode="&#xc7;" horiz-adv-x="1380" d="M78 649q0 111 33.5 235t132.5 234q82 90 198.5 139.5t231.5 75.5q70 16 135 20.5t129 4.5q70 0 135.5 -8.5t95.5 -20.5q14 -4 40 5t36 14q6 2 16.5 1t32.5 -12q12 -4 14.5 -8t0.5 -10q-31 -84 -36 -164t1 -184q0 -8 -29 -8q-29 -2 -39 3t-14 13q-2 8 -7 23.5t-11.5 33 t-13.5 34.5t-13 32q-10 27 -22.5 48t-41.5 46q-29 23 -92 51.5t-141 28.5q-86 0 -174 -41t-156 -127q-78 -98 -107.5 -216t-29.5 -241q0 -88 25.5 -191.5t84 -193.5t154.5 -150.5t236 -60.5q51 0 96 14.5t83 36t66.5 48t49.5 53.5q33 41 50 76.5t27 56.5q2 4 9.5 4t23.5 -16 q18 -10 24.5 -16.5t2.5 -22.5q-14 -92 -43 -164t-51 -107q-10 -14 -18.5 -16t-24.5 -4q-14 0 -47 -5t-75 -12.5t-91.5 -12.5t-98.5 -5l-43 -53q35 -12 58.5 -30.5t37 -37t19.5 -36t6 -27.5q0 -43 -29.5 -81t-70.5 -68.5t-83 -52t-69 -30.5l-57 64q72 31 111.5 69.5 t39.5 61.5q0 29 -24.5 38t-77.5 25q-12 2 -14 6.5t-2 12.5q0 29 8 47q6 6 31.5 37t56.5 65q-184 10 -315.5 75t-213 162t-119.5 213t-38 226z" />
<glyph unicode="&#xc8;" horiz-adv-x="1253" d="M63 1270l7 45q0 6 1 9t11 3h65q25 0 54.5 -1t68.5 -1q39 -2 86 -3t107 -1h168q66 0 121 2t106 4q98 6 191 6q39 0 49 -10q4 -6 9 -17.5t1 -37.5q-16 -88 -19.5 -156t-3.5 -115q-51 -2 -61 3.5t-14 15.5q-23 61 -41.5 103t-41 67.5t-50 37t-66.5 11.5h-88q-92 0 -136 -2 t-63 -4q-29 -2 -34 -25.5t-5 -42.5v-210t2 -201q0 -41 21 -41h98q68 0 111 1t74 3q41 2 66.5 9t44 22.5t30.5 41t29 66.5q4 8 30.5 11t48.5 -1q-2 -18 -5 -47t-5 -60.5t-4 -63.5t-2 -58q2 -59 4 -97t8 -92q-6 -2 -18 -4t-29 -2q-25 -2 -33 13q-4 14 -14 43.5t-18 46.5 q-10 35 -38 52t-81 21q-41 4 -82 4h-107q-47 0 -65.5 -1t-28.5 -3q-20 -4 -22 -20q-4 -10 -9.5 -83t-5.5 -196v-78.5t2 -52t5.5 -33t9.5 -20.5q10 -16 35.5 -24.5t57.5 -13.5t67.5 -6t66.5 -1q74 0 134.5 9t109.5 38t87 81t66 138q6 4 30 3t32 -3q4 0 5 -2t1 -14 q-2 -45 -9 -94t-16.5 -94.5t-21.5 -81t-23 -56.5q-8 -16 -22 -16h-28.5t-65.5 2q-43 2 -140.5 3t-232.5 1q-158 0 -297 -4t-252 -8q-8 4 -8 24.5t4 32.5q2 12 10 14q74 16 96.5 27.5t24.5 42.5q2 20 8 117.5t6 238.5v465q0 66 -2 110t-4 71.5t-4 42t-4 18.5q-2 12 -5 23.5 t-20 15.5q-16 4 -41.5 10t-76.5 16q-8 2 -7 13zM349 1583q-3 10 7 25q12 16 29.5 36.5t38 39t43 30.5t41.5 12h2q12 0 51 -37.5t84 -85t82 -92.5t45 -57q2 -6 -8 -14t-23.5 -18.5t-29 -19.5t-25.5 -16q-29 16 -71 40t-87 48.5l-90 49t-78 45.5q-8 4 -11 14z" />
<glyph unicode="&#xc9;" horiz-adv-x="1253" d="M63 1270l7 45q0 6 1 9t11 3h65q25 0 54.5 -1t68.5 -1q39 -2 86 -3t107 -1h168q66 0 121 2t106 4q98 6 191 6q39 0 49 -10q4 -6 9 -17.5t1 -37.5q-16 -88 -19.5 -156t-3.5 -115q-51 -2 -61 3.5t-14 15.5q-23 61 -41.5 103t-41 67.5t-50 37t-66.5 11.5h-88q-92 0 -136 -2 t-63 -4q-29 -2 -34 -25.5t-5 -42.5v-210t2 -201q0 -41 21 -41h98q68 0 111 1t74 3q41 2 66.5 9t44 22.5t30.5 41t29 66.5q4 8 30.5 11t48.5 -1q-2 -18 -5 -47t-5 -60.5t-4 -63.5t-2 -58q2 -59 4 -97t8 -92q-6 -2 -18 -4t-29 -2q-25 -2 -33 13q-4 14 -14 43.5t-18 46.5 q-10 35 -38 52t-81 21q-41 4 -82 4h-107q-47 0 -65.5 -1t-28.5 -3q-20 -4 -22 -20q-4 -10 -9.5 -83t-5.5 -196v-78.5t2 -52t5.5 -33t9.5 -20.5q10 -16 35.5 -24.5t57.5 -13.5t67.5 -6t66.5 -1q74 0 134.5 9t109.5 38t87 81t66 138q6 4 30 3t32 -3q4 0 5 -2t1 -14 q-2 -45 -9 -94t-16.5 -94.5t-21.5 -81t-23 -56.5q-8 -16 -22 -16h-28.5t-65.5 2q-43 2 -140.5 3t-232.5 1q-158 0 -297 -4t-252 -8q-8 4 -8 24.5t4 32.5q2 12 10 14q74 16 96.5 27.5t24.5 42.5q2 20 8 117.5t6 238.5v465q0 66 -2 110t-4 71.5t-4 42t-4 18.5q-2 12 -5 23.5 t-20 15.5q-16 4 -41.5 10t-76.5 16q-8 2 -7 13zM518 1470q51 59 111.5 120t103.5 96q37 23 78 22h2q43 0 80 -37t68 -80q8 -4 6 -12t-13 -12q-29 -14 -81 -39t-110 -51.5t-110.5 -50t-81.5 -35.5q-8 6 -18 18t-19.5 25.5t-14.5 23.5t-1 12z" />
<glyph unicode="&#xca;" horiz-adv-x="1253" d="M63 1270l7 45q0 6 1 9t11 3h65q25 0 54.5 -1t68.5 -1q39 -2 86 -3t107 -1h168q66 0 121 2t106 4q98 6 191 6q39 0 49 -10q4 -6 9 -17.5t1 -37.5q-16 -88 -19.5 -156t-3.5 -115q-51 -2 -61 3.5t-14 15.5q-23 61 -41.5 103t-41 67.5t-50 37t-66.5 11.5h-88q-92 0 -136 -2 t-63 -4q-29 -2 -34 -25.5t-5 -42.5v-210t2 -201q0 -41 21 -41h98q68 0 111 1t74 3q41 2 66.5 9t44 22.5t30.5 41t29 66.5q4 8 30.5 11t48.5 -1q-2 -18 -5 -47t-5 -60.5t-4 -63.5t-2 -58q2 -59 4 -97t8 -92q-6 -2 -18 -4t-29 -2q-25 -2 -33 13q-4 14 -14 43.5t-18 46.5 q-10 35 -38 52t-81 21q-41 4 -82 4h-107q-47 0 -65.5 -1t-28.5 -3q-20 -4 -22 -20q-4 -10 -9.5 -83t-5.5 -196v-78.5t2 -52t5.5 -33t9.5 -20.5q10 -16 35.5 -24.5t57.5 -13.5t67.5 -6t66.5 -1q74 0 134.5 9t109.5 38t87 81t66 138q6 4 30 3t32 -3q4 0 5 -2t1 -14 q-2 -45 -9 -94t-16.5 -94.5t-21.5 -81t-23 -56.5q-8 -16 -22 -16h-28.5t-65.5 2q-43 2 -140.5 3t-232.5 1q-158 0 -297 -4t-252 -8q-8 4 -8 24.5t4 32.5q2 12 10 14q74 16 96.5 27.5t24.5 42.5q2 20 8 117.5t6 238.5v465q0 66 -2 110t-4 71.5t-4 42t-4 18.5q-2 12 -5 23.5 t-20 15.5q-16 4 -41.5 10t-76.5 16q-8 2 -7 13zM347 1456q-1 8 1 12q10 8 43 35t71 57.5t71.5 57.5t48.5 37q25 16 49 31.5t51 15.5h2q10 0 34.5 -19.5t58.5 -50t76 -69.5t89 -80q8 -10 3 -16.5t-21 -20.5q-23 -14 -52.5 -28.5t-35.5 -18.5q-18 14 -44 32.5t-52.5 39t-49 38 t-37.5 27.5q-10 -8 -38.5 -27.5t-61.5 -39t-60.5 -35t-35.5 -15.5q-14 0 -43 6.5t-64 22.5q-2 0 -3 8z" />
<glyph unicode="&#xcb;" horiz-adv-x="1253" d="M63 1270l7 45q0 6 1 9t11 3h65q25 0 54.5 -1t68.5 -1q39 -2 86 -3t107 -1h168q66 0 121 2t106 4q98 6 191 6q39 0 49 -10q4 -6 9 -17.5t1 -37.5q-16 -88 -19.5 -156t-3.5 -115q-51 -2 -61 3.5t-14 15.5q-23 61 -41.5 103t-41 67.5t-50 37t-66.5 11.5h-88q-92 0 -136 -2 t-63 -4q-29 -2 -34 -25.5t-5 -42.5v-210t2 -201q0 -41 21 -41h98q68 0 111 1t74 3q41 2 66.5 9t44 22.5t30.5 41t29 66.5q4 8 30.5 11t48.5 -1q-2 -18 -5 -47t-5 -60.5t-4 -63.5t-2 -58q2 -59 4 -97t8 -92q-6 -2 -18 -4t-29 -2q-25 -2 -33 13q-4 14 -14 43.5t-18 46.5 q-10 35 -38 52t-81 21q-41 4 -82 4h-107q-47 0 -65.5 -1t-28.5 -3q-20 -4 -22 -20q-4 -10 -9.5 -83t-5.5 -196v-78.5t2 -52t5.5 -33t9.5 -20.5q10 -16 35.5 -24.5t57.5 -13.5t67.5 -6t66.5 -1q74 0 134.5 9t109.5 38t87 81t66 138q6 4 30 3t32 -3q4 0 5 -2t1 -14 q-2 -45 -9 -94t-16.5 -94.5t-21.5 -81t-23 -56.5q-8 -16 -22 -16h-28.5t-65.5 2q-43 2 -140.5 3t-232.5 1q-158 0 -297 -4t-252 -8q-8 4 -8 24.5t4 32.5q2 12 10 14q74 16 96.5 27.5t24.5 42.5q2 20 8 117.5t6 238.5v465q0 66 -2 110t-4 71.5t-4 42t-4 18.5q-2 12 -5 23.5 t-20 15.5q-16 4 -41.5 10t-76.5 16q-8 2 -7 13zM249 1592.5q1 13.5 9 19.5q41 25 61.5 41t42.5 65q2 4 13.5 8.5t25.5 4.5h2q10 0 22.5 -3.5t16.5 -11.5q18 -31 34 -50t56 -34q8 0 11.5 -11t3.5 -24.5t-4 -25.5t-11 -15q-20 -10 -33.5 -20t-22.5 -22.5t-18 -31t-20 -44.5 q-2 -6 -11 -9.5t-21.5 -3.5t-22.5 3.5t-12 9.5q-23 41 -45.5 63.5t-57.5 26.5q-6 0 -11 11t-7 25.5t-1 28zM711 1584q0 28 20 40t33.5 20.5t23 18.5t17.5 23.5t18 33.5q4 6 18.5 10.5t24.5 4.5h2q16 0 28.5 -3t14.5 -10q20 -39 38 -55t59 -37q8 -4 11 -16t3 -25.5t-4 -25 t-12 -13.5q-47 -20 -65.5 -43.5t-35.5 -74.5q-2 -6 -13 -8.5t-25.5 0.5t-27 10.5t-14.5 17.5q-20 41 -37.5 59.5t-56.5 32.5q-20 12 -20 40z" />
<glyph unicode="&#xcc;" horiz-adv-x="749" d="M51 66q86 8 124 21t52 58q2 12 6.5 33t8.5 62t6 107.5t2 168.5v406q0 104 -1 164.5t-9.5 93t-23.5 44t-42 15.5q-23 4 -46.5 6t-43.5 2q-16 0 -16 17q0 4 2 14t8 25q10 16 16 16q12 2 26.5 2h37.5q12 0 29.5 -1t47 -1h74.5h113q37 0 78 1t75.5 1t60.5 1t34 1q20 0 24 -2 t6 -6l21 -60q-66 -8 -103.5 -16t-57 -16.5t-27 -18.5t-9.5 -24q-4 -14 -6 -37t-4 -61t-3 -93t-1 -133v-321q0 -119 4 -226.5t14 -165.5q8 -49 43 -55q10 -2 40 -7t63 -11q14 0 14 -11q0 -10 -3 -32.5t-7 -32.5q-113 4 -184.5 5t-137.5 1q-59 0 -109 -1t-85 -3t-54.5 -3 t-23.5 -1q-20 0 -25 16q-2 10 -6 28.5t-2 29.5zM73 1595.5q-3 10.5 7 24.5q12 16 29.5 36.5t38 39t43 31t40.5 12.5h2q12 0 51.5 -38t84.5 -85t81.5 -92t45.5 -58q2 -6 -8.5 -14t-23.5 -18.5t-28.5 -19.5t-25.5 -15q-29 16 -71 39.5t-87 48t-90 49.5t-78 45q-8 4 -11 14.5z " />
<glyph unicode="&#xcd;" horiz-adv-x="749" d="M51 66q86 8 124 21t52 58q2 12 6.5 33t8.5 62t6 107.5t2 168.5v406q0 104 -1 164.5t-9.5 93t-23.5 44t-42 15.5q-23 4 -46.5 6t-43.5 2q-16 0 -16 17q0 4 2 14t8 25q10 16 16 16q12 2 26.5 2h37.5q12 0 29.5 -1t47 -1h74.5h113q37 0 78 1t75.5 1t60.5 1t34 1q20 0 24 -2 t6 -6l21 -60q-66 -8 -103.5 -16t-57 -16.5t-27 -18.5t-9.5 -24q-4 -14 -6 -37t-4 -61t-3 -93t-1 -133v-321q0 -119 4 -226.5t14 -165.5q8 -49 43 -55q10 -2 40 -7t63 -11q14 0 14 -11q0 -10 -3 -32.5t-7 -32.5q-113 4 -184.5 5t-137.5 1q-59 0 -109 -1t-85 -3t-54.5 -3 t-23.5 -1q-20 0 -25 16q-2 10 -6 28.5t-2 29.5zM274 1483q51 59 111.5 119.5t103.5 95.5q37 23 78 22h2q43 0 80 -36.5t68 -79.5q8 -4 6 -12.5t-12 -12.5q-29 -14 -81 -38.5t-110.5 -51.5t-111 -50.5t-80.5 -35.5q-8 6 -18.5 18.5t-19.5 25.5t-14.5 23.5t-1.5 12.5z" />
<glyph unicode="&#xce;" horiz-adv-x="749" d="M51 66q86 8 124 21t52 58q2 12 6.5 33t8.5 62t6 107.5t2 168.5v406q0 104 -1 164.5t-9.5 93t-23.5 44t-42 15.5q-23 4 -46.5 6t-43.5 2q-16 0 -16 17q0 4 2 14t8 25q10 16 16 16q12 2 26.5 2h37.5q12 0 29.5 -1t47 -1h74.5h113q37 0 78 1t75.5 1t60.5 1t34 1q20 0 24 -2 t6 -6l21 -60q-66 -8 -103.5 -16t-57 -16.5t-27 -18.5t-9.5 -24q-4 -14 -6 -37t-4 -61t-3 -93t-1 -133v-321q0 -119 4 -226.5t14 -165.5q8 -49 43 -55q10 -2 40 -7t63 -11q14 0 14 -11q0 -10 -3 -32.5t-7 -32.5q-113 4 -184.5 5t-137.5 1q-59 0 -109 -1t-85 -3t-54.5 -3 t-23.5 -1q-20 0 -25 16q-2 10 -6 28.5t-2 29.5zM75 1464.5q-1 8.5 1 12.5q10 8 43 34.5t70.5 57t71.5 57.5t48 37q25 16 49.5 31.5t51.5 15.5h2q10 0 34.5 -19.5t58.5 -50t76 -69.5t89 -80q8 -10 3 -16.5t-22 -20.5q-23 -14 -52.5 -28.5t-35.5 -18.5q-18 14 -43.5 32.5 t-52.5 39t-49.5 38t-36.5 27.5q-10 -8 -39 -27.5t-61.5 -39t-60 -35t-36.5 -15.5q-14 0 -42.5 6.5t-63.5 22.5q-2 0 -3 8.5z" />
<glyph unicode="&#xcf;" horiz-adv-x="749" d="M-11 1592.5q1 13.5 9 19.5q41 25 61.5 41t42.5 65q2 4 13.5 8.5t25.5 4.5h2q10 0 22.5 -3.5t16.5 -11.5q18 -31 33.5 -50t56.5 -34q8 0 11.5 -11t3.5 -24.5t-4 -25.5t-11 -15q-20 -10 -33.5 -20t-22.5 -22.5t-18.5 -31t-19.5 -44.5q-2 -6 -11 -9.5t-21.5 -3.5t-22.5 3.5 t-12 9.5q-23 41 -45.5 63.5t-57.5 26.5q-6 0 -11 11t-7 25.5t-1 28zM51 66q86 8 124 21t52 58q2 12 6.5 33t8.5 62t6 107.5t2 168.5v406q0 104 -1 164.5t-9.5 93t-23.5 44t-42 15.5q-23 4 -46.5 6t-43.5 2q-16 0 -16 17q0 4 2 14t8 25q10 16 16 16q12 2 26.5 2h37.5 q12 0 29.5 -1t47 -1h74.5h113q37 0 78 1t75.5 1t60.5 1t34 1q20 0 24 -2t6 -6l21 -60q-66 -8 -103.5 -16t-57 -16.5t-27 -18.5t-9.5 -24q-4 -14 -6 -37t-4 -61t-3 -93t-1 -133v-321q0 -119 4 -226.5t14 -165.5q8 -49 43 -55q10 -2 40 -7t63 -11q14 0 14 -11q0 -10 -3 -32.5 t-7 -32.5q-113 4 -184.5 5t-137.5 1q-59 0 -109 -1t-85 -3t-54.5 -3t-23.5 -1q-20 0 -25 16q-2 10 -6 28.5t-2 29.5zM451 1584q0 28 20 40t33.5 20.5t23 18.5t17.5 23.5t18 33.5q4 6 18.5 10.5t24.5 4.5h2q16 0 28.5 -3t14.5 -10q20 -39 38 -55t59 -37q8 -4 11 -16t3 -25.5 t-4 -25t-13 -13.5q-47 -20 -65 -43.5t-35 -74.5q-2 -6 -13 -8.5t-25.5 0.5t-27 10.5t-14.5 17.5q-20 41 -37.5 59.5t-56.5 32.5q-20 12 -20 40z" />
<glyph unicode="&#xd0;" horiz-adv-x="1630" d="M56 709.5q-1 13.5 3 13.5h187v105.5v131t-1 125t-3 86.5q-4 23 -23.5 39.5t-83.5 28.5q-27 4 -22 43l2 39q59 0 142 2t161 4q53 0 95 1t77 2t67.5 2t67.5 1q55 0 129 -5t156 -24.5t164.5 -57.5t154.5 -101q223 -199 223 -483q0 -43 -10 -95.5t-33.5 -110t-61.5 -115.5 t-93 -110q-53 -49 -99.5 -82.5t-88.5 -56t-82 -37t-80 -26.5q-41 -12 -78 -19.5t-75 -11.5t-80 -5t-95 -1q-37 0 -89 1t-104.5 3t-94.5 3t-60 1h-106.5t-94.5 -2q0 14 -2 38.5t2 33.5q31 12 51.5 21t31.5 18.5t16 18.5t7 24q2 37 5.5 89t4.5 113.5t2 130t1 138.5h-119 q-53 0 -57 10q-2 2 -5.5 17.5t-5.5 30.5t-3 28.5zM504 623q0 -180 7 -297t26 -189q4 -14 9 -23.5t21 -15.5q61 -27 133 -26q59 0 132 20.5t161 75.5q61 39 108.5 94t78 122t46 140.5t15.5 149.5q0 82 -17.5 152.5t-45 129t-63.5 103.5t-75 76q-98 78 -191 99t-163 21 q-14 0 -35.5 -3t-44 -9t-43 -14t-31.5 -17q-8 -6 -10 -18t-2 -29q-4 -27 -6 -75t-5 -107t-4 -128t-1 -136h309q29 0 36 -4t11 -19q14 -49 14 -67q-16 -4 -35.5 -5t-70.5 -1h-264z" />
<glyph unicode="&#xd1;" horiz-adv-x="1599" d="M41 1278v51q35 -2 63.5 -3t64.5 -2t86 -2t130 -1q31 0 41 -8q16 -12 16 -29q2 -12 17.5 -37.5t36 -51.5t40 -49.5t29.5 -31.5q78 -80 253 -254t468 -442q2 27 4 55.5t3 62t1 75.5v100q0 160 -3 261t-11 156q-2 14 -4 31t-6 31t-13.5 24.5t-23.5 14.5q-8 2 -25.5 4t-36 4 t-35 4t-20.5 4q-8 4 -11 7t-3 14l-4 55h233q61 0 123 6q31 2 57.5 3t42.5 1q8 0 16.5 -2t10.5 -6l12 -53q-53 -16 -76.5 -23.5t-43.5 -19.5q-16 -10 -28.5 -29.5t-20 -57.5t-13.5 -99.5t-10 -155.5q-4 -76 -5 -140.5t-3 -125t-2 -122v-128.5q0 -141 3 -226.5t3 -107.5 q0 -27 -12.5 -42.5t-59.5 -39.5q-16 -10 -33 14q-82 121 -193.5 250t-273.5 293l-289.5 289.5t-191.5 185.5q-2 -55 -5 -139t-5 -174v-113t1 -153.5t5 -151.5t12 -102q6 -23 26.5 -37.5t47.5 -23.5t52.5 -15t41.5 -8l15 -58q2 -4 -5.5 -11t-11.5 -7q-27 0 -59.5 1t-67.5 3 t-68.5 3t-64.5 1q-53 0 -100 -2t-70 -4q-4 18 -10 36.5t-12 35.5q49 10 76.5 19t41 21.5t18.5 30t9 43.5q2 18 6 59.5t7 98.5t6 125.5t3 142.5v228q0 102 -2 165.5t-7 99.5t-11 53t-14 28q-29 35 -58.5 49t-77.5 24q-23 8 -22 25zM548 1442q-3 2 1 14q25 61 44 104.5 t41.5 71t51.5 41t70 13.5h2q20 0 44.5 -5.5t49.5 -11.5t46.5 -11t35.5 -5q41 0 119 90q4 -4 15 -14.5t21.5 -21.5t18.5 -21.5t6 -12.5q-12 -16 -31.5 -40.5t-42 -48t-42 -44t-31.5 -27.5q-29 -16 -56.5 -18t-62.5 8q-27 6 -66 17.5t-57 11.5q-12 0 -24.5 -11.5t-22.5 -25.5 t-17.5 -28.5t-9.5 -18.5q-8 -8 -22.5 -9t-61.5 1q-16 0 -19 2z" />
<glyph unicode="&#xd2;" horiz-adv-x="1617" d="M78 678q0 133 54 259t165 224q104 98 243.5 147.5t280.5 49.5h2q143 0 273.5 -51.5t228.5 -141.5t156.5 -212t58.5 -261q0 -190 -71.5 -328.5t-170.5 -222.5q-57 -49 -116.5 -82.5t-116.5 -55t-109.5 -31t-91.5 -9.5q-176 0 -339 64.5t-273 187.5q-78 86 -126 212 t-48 251zM381 698q0 -150 45 -273.5t117 -201.5q90 -100 173 -138t175 -38q61 0 122.5 37t112 107.5t82 175t31.5 239.5q0 70 -7 140.5t-24.5 138t-48.5 129t-76 114.5q-49 55 -127.5 103.5t-181.5 48.5h-2q-78 0 -147.5 -37t-122.5 -102q-68 -86 -94.5 -193.5t-26.5 -249.5 zM523.5 1595.5q-3.5 10.5 6.5 24.5q12 16 30 36.5t38 39t43 31t41 12.5h2q12 0 51 -38t84 -85t82 -92t45 -58q2 -6 -8 -14t-23.5 -18.5t-29 -19.5t-25.5 -15q-29 16 -70.5 39.5t-87 48t-90.5 49.5t-77 45q-8 4 -11.5 14.5z" />
<glyph unicode="&#xd3;" horiz-adv-x="1617" d="M78 678q0 133 54 259t165 224q104 98 243.5 147.5t280.5 49.5h2q143 0 273.5 -51.5t228.5 -141.5t156.5 -212t58.5 -261q0 -190 -71.5 -328.5t-170.5 -222.5q-57 -49 -116.5 -82.5t-116.5 -55t-109.5 -31t-91.5 -9.5q-176 0 -339 64.5t-273 187.5q-78 86 -126 212 t-48 251zM381 698q0 -150 45 -273.5t117 -201.5q90 -100 173 -138t175 -38q61 0 122.5 37t112 107.5t82 175t31.5 239.5q0 70 -7 140.5t-24.5 138t-48.5 129t-76 114.5q-49 55 -127.5 103.5t-181.5 48.5h-2q-78 0 -147.5 -37t-122.5 -102q-68 -86 -94.5 -193.5t-26.5 -249.5 zM684 1499q51 59 111.5 119.5t103.5 95.5q37 23 78 23h2q43 0 80 -37t67 -80q8 -4 6 -12.5t-12 -12.5q-29 -14 -81 -38.5t-110.5 -51t-110.5 -50t-81 -36.5q-8 6 -18 18.5t-19.5 26t-14.5 23.5t-1 12z" />
<glyph unicode="&#xd4;" horiz-adv-x="1617" d="M78 678q0 133 54 259t165 224q104 98 243.5 147.5t280.5 49.5h2q143 0 273.5 -51.5t228.5 -141.5t156.5 -212t58.5 -261q0 -190 -71.5 -328.5t-170.5 -222.5q-57 -49 -116.5 -82.5t-116.5 -55t-109.5 -31t-91.5 -9.5q-176 0 -339 64.5t-273 187.5q-78 86 -126 212 t-48 251zM381 698q0 -150 45 -273.5t117 -201.5q90 -100 173 -138t175 -38q61 0 122.5 37t112 107.5t82 175t31.5 239.5q0 70 -7 140.5t-24.5 138t-48.5 129t-76 114.5q-49 55 -127.5 103.5t-181.5 48.5h-2q-78 0 -147.5 -37t-122.5 -102q-68 -86 -94.5 -193.5t-26.5 -249.5 zM517 1464.5q-1 8.5 1 12.5q10 8 43 34.5t71 57t71.5 57.5t48.5 37q25 16 49 31.5t51 15.5h2q10 0 34.5 -19.5t58.5 -50t76 -69.5t89 -80q8 -10 3 -16.5t-21 -20.5q-23 -14 -52.5 -28.5t-35.5 -18.5q-18 14 -44 32.5t-52.5 39t-49 38t-37.5 27.5q-10 -8 -38.5 -27.5 t-61.5 -39t-60.5 -35t-35.5 -15.5q-14 0 -43 6.5t-64 22.5q-2 0 -3 8.5z" />
<glyph unicode="&#xd5;" horiz-adv-x="1617" d="M78 678q0 133 54 259t165 224q104 98 243.5 147.5t280.5 49.5h2q143 0 273.5 -51.5t228.5 -141.5t156.5 -212t58.5 -261q0 -190 -71.5 -328.5t-170.5 -222.5q-57 -49 -116.5 -82.5t-116.5 -55t-109.5 -31t-91.5 -9.5q-176 0 -339 64.5t-273 187.5q-78 86 -126 212 t-48 251zM381 698q0 -150 45 -273.5t117 -201.5q90 -100 173 -138t175 -38q61 0 122.5 37t112 107.5t82 175t31.5 239.5q0 70 -7 140.5t-24.5 138t-48.5 129t-76 114.5q-49 55 -127.5 103.5t-181.5 48.5h-2q-78 0 -147.5 -37t-122.5 -102q-68 -86 -94.5 -193.5t-26.5 -249.5 zM542 1419q-3 2 1 15q25 61 44 104t41.5 70.5t51.5 41t70 13.5h2q20 0 44.5 -5t49 -11.5t46 -11.5t36.5 -5q41 0 119 90q4 -4 15 -14t21.5 -21.5t18.5 -21.5t6 -12q-12 -16 -31.5 -41t-42 -48.5t-42 -44t-31.5 -26.5q-29 -16 -56.5 -18.5t-62.5 8.5q-27 6 -66 17t-57 11 q-12 0 -24.5 -11t-22.5 -25.5t-17.5 -28.5t-9.5 -19q-8 -8 -22.5 -9t-61.5 1q-16 0 -19 2z" />
<glyph unicode="&#xd6;" horiz-adv-x="1617" d="M78 678q0 133 54 259t165 224q104 98 243.5 147.5t280.5 49.5h2q143 0 273.5 -51.5t228.5 -141.5t156.5 -212t58.5 -261q0 -190 -71.5 -328.5t-170.5 -222.5q-57 -49 -116.5 -82.5t-116.5 -55t-109.5 -31t-91.5 -9.5q-176 0 -339 64.5t-273 187.5q-78 86 -126 212 t-48 251zM381 698q0 -150 45 -273.5t117 -201.5q90 -100 173 -138t175 -38q61 0 122.5 37t112 107.5t82 175t31.5 239.5q0 70 -7 140.5t-24.5 138t-48.5 129t-76 114.5q-49 55 -127.5 103.5t-181.5 48.5h-2q-78 0 -147.5 -37t-122.5 -102q-68 -86 -94.5 -193.5t-26.5 -249.5 zM423 1600.5q1 13.5 9 19.5q41 25 61.5 41t43.5 65q2 4 13 8.5t25 4.5h3q10 0 22 -3t16 -12q18 -31 34 -50t57 -34q8 0 11 -11t3 -24.5t-4 -25.5t-10 -14q-20 -10 -34 -20.5t-23 -23t-18 -30.5t-20 -45q-2 -6 -11 -9t-21.5 -3t-22.5 3t-12 9q-23 41 -45.5 63.5t-57.5 26.5 q-6 0 -11 11.5t-7 25.5t-1 27.5zM885 1592q0 28 20 40t33.5 20.5t23 18.5t17.5 23.5t18 34.5q4 6 18.5 10t24.5 4h2q16 0 28.5 -3t14.5 -9q20 -39 38 -55.5t59 -37.5q8 -4 11 -16t3 -25.5t-4 -24.5t-12 -13q-47 -20 -65.5 -44t-35.5 -75q-2 -6 -13 -8t-25.5 1t-27 10 t-14.5 17q-20 41 -37.5 59.5t-56.5 32.5q-20 12 -20 40z" />
<glyph unicode="&#xd7;" horiz-adv-x="1357" d="M195 117q31 33 84 85t108 105t102.5 99.5t63.5 66.5q-12 18 -45 52t-79 80t-104.5 101.5t-121.5 116.5q-10 12 -3 25.5t15 21.5l66 64q16 12 23 13t18 -5q12 -8 53 -49t93 -96.5t106.5 -113.5t93.5 -97q47 47 138 139t214 215q23 23 33 25t22 -9q23 -12 49.5 -37.5 t42.5 -48.5q-115 -109 -213 -202t-192 -191q29 -29 112.5 -109.5t225.5 -222.5q20 -20 22 -32.5t-4 -22.5q-4 -6 -14 -20.5t-20.5 -28.5t-20.5 -25.5t-14 -13.5l-27 -14q-25 25 -77 80t-110.5 114.5t-111.5 112.5t-78 76q-47 -51 -134 -146.5t-198 -214.5q-8 -8 -14 -10 t-16 6q-49 41 -68.5 69.5t-19.5 41.5z" />
<glyph unicode="&#xd8;" horiz-adv-x="1617" d="M78 678q0 133 54 260t165 225q109 98 250 146.5t272 48.5q109 0 204 -26.5t191 -80.5l115 138q10 12 20.5 13t53.5 -16q23 -10 28 -16t1 -12l-144 -166q117 -92 184.5 -219t67.5 -281q0 -94 -20.5 -176t-55 -150.5t-79 -125t-93.5 -99.5q-90 -78 -203.5 -128t-226.5 -50 h-2q-231 0 -450 119l-138 -174q-6 -10 -13 -5t-15 13q-29 29 -38 40t-1 21l125 162q-55 43 -102.5 104.5t-80 132t-51 148.5t-18.5 154zM367 694q0 -102 28.5 -196.5t77.5 -178.5l625 789q-59 78 -142.5 124t-187.5 46q-61 0 -135 -29.5t-137 -103.5q-80 -92 -104.5 -208 t-24.5 -241v-2zM526 236q98 -111 191.5 -152t173.5 -41q59 0 123.5 36t118 106.5t88 175t34.5 243.5v2q0 106 -20.5 212t-81.5 210z" />
<glyph unicode="&#xd9;" horiz-adv-x="1556" d="M88 1260l2 40q2 18 9 22.5t28 4.5q16 0 48 -1t66.5 -3t65.5 -2h47q78 4 153 7t150 3q16 0 17 -8q0 -10 1 -31.5t-7 -36.5q-37 -6 -67 -11t-52.5 -13t-36.5 -20.5t-18 -36.5q-4 -27 -8.5 -74t-6.5 -111q0 -43 -2 -100.5t-3 -120.5t-2 -129t-1 -123q0 -111 28.5 -187.5 t104.5 -135.5q49 -41 124 -60.5t155 -19.5q106 0 169.5 38.5t94.5 79.5q59 78 80.5 191t21.5 248q0 158 -1 291t-11 204q-4 27 -12 43.5t-28.5 24.5t-58.5 10t-102 2q-4 0 -10 8.5t-4 22.5q6 8 15.5 17.5t13.5 19.5q4 4 12 6t14 2h189q31 0 65.5 1t67.5 1t59.5 1t42.5 1 q8 0 8 -3t-4 -24l-18 -38q-33 -10 -64 -17q-16 -4 -24 -15t-17 -40q-4 -14 -7 -49t-6 -97.5t-7 -158t-8 -230.5q-4 -166 -30 -270t-83 -186q-80 -111 -199.5 -172.5t-259.5 -61.5q-90 0 -159.5 13.5t-121.5 34t-88 45t-57 44.5q-92 88 -119.5 183.5t-29.5 216.5q0 47 -1 92 t0 92t2 101.5t3 119.5q2 104 3 163.5t0 90.5t-5 41t-12 19q-16 12 -41 20t-68 21zM546 1595.5q-3 10.5 7 24.5q12 16 29.5 36.5t38 39t43 31t41.5 12.5h2q12 0 51 -38t84 -85t82 -92t45 -58q2 -6 -8.5 -14t-23.5 -18.5t-28.5 -19.5t-25.5 -15q-29 16 -71 39.5t-87 48 t-90 49.5t-78 45q-8 4 -11 14.5z" />
<glyph unicode="&#xda;" horiz-adv-x="1556" d="M88 1260l2 40q2 18 9 22.5t28 4.5q16 0 48 -1t66.5 -3t65.5 -2h47q78 4 153 7t150 3q16 0 17 -8q0 -10 1 -31.5t-7 -36.5q-37 -6 -67 -11t-52.5 -13t-36.5 -20.5t-18 -36.5q-4 -27 -8.5 -74t-6.5 -111q0 -43 -2 -100.5t-3 -120.5t-2 -129t-1 -123q0 -111 28.5 -187.5 t104.5 -135.5q49 -41 124 -60.5t155 -19.5q106 0 169.5 38.5t94.5 79.5q59 78 80.5 191t21.5 248q0 158 -1 291t-11 204q-4 27 -12 43.5t-28.5 24.5t-58.5 10t-102 2q-4 0 -10 8.5t-4 22.5q6 8 15.5 17.5t13.5 19.5q4 4 12 6t14 2h189q31 0 65.5 1t67.5 1t59.5 1t42.5 1 q8 0 8 -3t-4 -24l-18 -38q-33 -10 -64 -17q-16 -4 -24 -15t-17 -40q-4 -14 -7 -49t-6 -97.5t-7 -158t-8 -230.5q-4 -166 -30 -270t-83 -186q-80 -111 -199.5 -172.5t-259.5 -61.5q-90 0 -159.5 13.5t-121.5 34t-88 45t-57 44.5q-92 88 -119.5 183.5t-29.5 216.5q0 47 -1 92 t0 92t2 101.5t3 119.5q2 104 3 163.5t0 90.5t-5 41t-12 19q-16 12 -41 20t-68 21zM678 1483q51 59 111.5 119.5t103.5 95.5q37 23 78 22h2q43 0 80 -36.5t67 -79.5q8 -4 6 -12.5t-12 -12.5q-29 -14 -81 -38.5t-110.5 -51.5t-110.5 -50.5t-81 -35.5q-8 6 -18.5 18.5 t-19.5 25.5t-14 23.5t-1 12.5z" />
<glyph unicode="&#xdb;" horiz-adv-x="1556" d="M88 1260l2 40q2 18 9 22.5t28 4.5q16 0 48 -1t66.5 -3t65.5 -2h47q78 4 153 7t150 3q16 0 17 -8q0 -10 1 -31.5t-7 -36.5q-37 -6 -67 -11t-52.5 -13t-36.5 -20.5t-18 -36.5q-4 -27 -8.5 -74t-6.5 -111q0 -43 -2 -100.5t-3 -120.5t-2 -129t-1 -123q0 -111 28.5 -187.5 t104.5 -135.5q49 -41 124 -60.5t155 -19.5q106 0 169.5 38.5t94.5 79.5q59 78 80.5 191t21.5 248q0 158 -1 291t-11 204q-4 27 -12 43.5t-28.5 24.5t-58.5 10t-102 2q-4 0 -10 8.5t-4 22.5q6 8 15.5 17.5t13.5 19.5q4 4 12 6t14 2h189q31 0 65.5 1t67.5 1t59.5 1t42.5 1 q8 0 8 -3t-4 -24l-18 -38q-33 -10 -64 -17q-16 -4 -24 -15t-17 -40q-4 -14 -7 -49t-6 -97.5t-7 -158t-8 -230.5q-4 -166 -30 -270t-83 -186q-80 -111 -199.5 -172.5t-259.5 -61.5q-90 0 -159.5 13.5t-121.5 34t-88 45t-57 44.5q-92 88 -119.5 183.5t-29.5 216.5q0 47 -1 92 t0 92t2 101.5t3 119.5q2 104 3 163.5t0 90.5t-5 41t-12 19q-16 12 -41 20t-68 21zM499 1464.5q-1 8.5 1 12.5q10 8 42.5 34.5t70.5 57t72 57.5t48 37q25 16 49.5 31.5t51.5 15.5h2q10 0 34.5 -19.5t58.5 -50t76 -69.5t89 -80q8 -10 3 -16.5t-22 -20.5q-23 -14 -52.5 -28.5 t-35.5 -18.5q-18 14 -43.5 32.5t-52.5 39t-49.5 38t-36.5 27.5q-10 -8 -39 -27.5t-61.5 -39t-60.5 -35t-36 -15.5q-14 0 -42.5 6.5t-63.5 22.5q-2 0 -3 8.5z" />
<glyph unicode="&#xdc;" horiz-adv-x="1556" d="M88 1260l2 40q2 18 9 22.5t28 4.5q16 0 48 -1t66.5 -3t65.5 -2h47q78 4 153 7t150 3q16 0 17 -8q0 -10 1 -31.5t-7 -36.5q-37 -6 -67 -11t-52.5 -13t-36.5 -20.5t-18 -36.5q-4 -27 -8.5 -74t-6.5 -111q0 -43 -2 -100.5t-3 -120.5t-2 -129t-1 -123q0 -111 28.5 -187.5 t104.5 -135.5q49 -41 124 -60.5t155 -19.5q106 0 169.5 38.5t94.5 79.5q59 78 80.5 191t21.5 248q0 158 -1 291t-11 204q-4 27 -12 43.5t-28.5 24.5t-58.5 10t-102 2q-4 0 -10 8.5t-4 22.5q6 8 15.5 17.5t13.5 19.5q4 4 12 6t14 2h189q31 0 65.5 1t67.5 1t59.5 1t42.5 1 q8 0 8 -3t-4 -24l-18 -38q-33 -10 -64 -17q-16 -4 -24 -15t-17 -40q-4 -14 -7 -49t-6 -97.5t-7 -158t-8 -230.5q-4 -166 -30 -270t-83 -186q-80 -111 -199.5 -172.5t-259.5 -61.5q-90 0 -159.5 13.5t-121.5 34t-88 45t-57 44.5q-92 88 -119.5 183.5t-29.5 216.5q0 47 -1 92 t0 92t2 101.5t3 119.5q2 104 3 163.5t0 90.5t-5 41t-12 19q-16 12 -41 20t-68 21zM429 1606.5q1 13.5 9 19.5q41 25 61.5 41t43.5 66q2 4 13 8t26 4h2q10 0 22 -3t17 -11q18 -31 33.5 -50.5t56.5 -33.5q8 0 11 -11.5t3 -25t-4 -25.5t-10 -14q-20 -10 -33.5 -20.5t-23 -22.5 t-18.5 -30.5t-20 -45.5q-2 -6 -11 -9t-21.5 -3t-22.5 3t-12 9q-23 41 -45.5 63.5t-56.5 26.5q-6 0 -11.5 11.5t-7.5 25.5t-1 27.5zM891 1598.5q0 27.5 20 39.5t33.5 20.5t23 19t17.5 23.5t19 34q4 6 18 10t25 4h2q16 0 28.5 -3t14.5 -9q20 -39 37.5 -55.5t58.5 -36.5 q8 -4 11 -16.5t3 -26t-4 -24.5t-12 -13q-47 -20 -65.5 -44t-35.5 -75q-2 -6 -13 -8t-25.5 1t-26.5 10t-14 17q-20 41 -38 59.5t-57 33.5q-20 12 -20 39.5z" />
<glyph unicode="&#xdd;" horiz-adv-x="1361" d="M43 1280.5q0 19.5 2 30.5q2 14 10 14q88 0 153.5 -2t106.5 -2q51 0 90 1t78 5q31 4 49.5 4h30.5q8 0 10 -2t2 -16v-2q0 -18 -3 -37t-9 -23q-20 -4 -37.5 -7t-33.5 -7q-18 -4 -23.5 -13.5t10.5 -37.5q29 -51 65 -108.5t70.5 -110t61 -93t37.5 -57.5q10 -16 18 -27.5 t19 -21.5q4 -4 16 -6t18 8q47 72 81 124t57.5 91t39 64.5t25.5 44.5q14 25 28.5 58.5t14.5 49.5q0 18 -36 25.5t-97 17.5l-10 47q-4 16 2 22.5t10 6.5q8 0 38 -1t66.5 -1h76.5h69q59 2 107.5 4t72.5 2q16 0 21.5 -1t9.5 -7q2 -6 3 -31.5t-7 -34.5q-41 -4 -68.5 -12 t-50.5 -21.5t-43 -36t-47 -55.5q-86 -109 -165 -224.5t-138 -209.5q-23 -37 -32 -58.5t-9 -60.5v-172q0 -53 3 -110.5t7 -110.5q2 -37 9 -56.5t27.5 -29.5t61.5 -17t115 -16q0 -14 -5 -31.5t-11 -31.5q-4 -4 -10.5 -6t-26.5 -2q-16 0 -50 1t-79 5q-45 2 -96.5 3t-106.5 1 q-29 0 -69 -1t-78 -1q-39 -2 -70 -3t-43 -1q-18 0 -21 8q-4 6 -9 25.5t-5 27.5q0 6 4 7t12 4q72 8 105 19t47 30q16 16 22.5 64t6.5 159v235q0 23 -5.5 47.5t-27.5 59.5q-158 254 -242 386t-110 161q-10 10 -31 13t-68 1q-12 0 -14 10t-2 29.5zM623 1438q51 59 111.5 119.5 t103.5 95.5q37 23 77 22h3q43 0 79.5 -36.5t67.5 -79.5q8 -4 6 -12.5t-12 -12.5q-29 -14 -81 -39t-110.5 -51.5t-110.5 -50t-81 -35.5q-8 6 -18.5 18.5t-19.5 25.5t-14.5 23.5t-0.5 12.5z" />
<glyph unicode="&#xde;" horiz-adv-x="1220" d="M51 1276q0 10 4 25.5t8 19.5q2 8 13 8q12 0 48 -1t79 -3t87 -3t72 -1q49 0 86 1t65 2t50.5 3t46.5 4q16 0 19 -6q2 -8 2 -32.5t-8 -32.5q-49 -6 -77 -13.5t-41 -27t-17.5 -55.5t-4.5 -95l127 2q117 2 214.5 -18.5t181.5 -73.5q78 -49 112.5 -128t34.5 -163 q0 -88 -38 -161.5t-105 -127.5q-84 -68 -187.5 -95.5t-226.5 -27.5q-33 0 -71 3.5t-56 3.5q0 -70 4 -108t25.5 -58.5t67.5 -27.5t130 -13q4 -8 3 -35t-5 -37q-6 -4 -32 -4q-125 0 -201 1t-111 1q-59 0 -102 -1t-74 -2t-51.5 -3t-34.5 -4q-18 -2 -25 26l-2 48q49 6 79 12 t46.5 16t21.5 26.5t7 45.5q2 27 6 102.5t4 198.5v332v274.5t-10 149.5q-4 12 -24.5 19t-43.5 11q-20 4 -36.5 4t-34.5 3q-25 2 -25 16zM473 438q0 -29 11.5 -39t29.5 -20q12 -6 40 -10t56 -4q29 0 53.5 3t51.5 17q78 39 115.5 120t37.5 191v2q0 41 -13 93.5t-47 97.5 t-90 75.5t-143 30.5q-25 0 -45 -3t-34 -13q-8 -4 -11.5 -11t-5.5 -30q-4 -121 -5 -236.5t-1 -263.5z" />
<glyph unicode="&#xdf;" horiz-adv-x="1071" d="M31 63q43 12 66.5 19.5t34.5 13.5t14.5 12.5t5.5 16.5q2 14 5 42t6 88t4 162.5t-1 262.5q-35 4 -50.5 7t-21.5 5q-8 2 -21.5 23.5t-9.5 44.5q41 23 61.5 31t31.5 12q10 4 13 11t3 26v26q0 86 7 148.5t21.5 111t36 84t50.5 66.5q39 41 98 80t117 59q43 16 72.5 23.5 t72.5 7.5q70 0 129.5 -17.5t102.5 -58.5q35 -35 62.5 -87t27.5 -112q0 -53 -20.5 -102t-55.5 -84q-43 -41 -77 -78t-50 -53q-14 -18 -19.5 -35.5t-5.5 -32.5q0 -16 12.5 -30.5t28.5 -30.5q43 -41 84 -81t73 -84t51.5 -93t19.5 -107q0 -160 -136 -251q-47 -33 -93 -61 t-99 -54q-23 -10 -43.5 -17.5t-40.5 -7.5q-16 0 -36.5 5.5t-41.5 17.5q-31 16 -18 43q8 14 17 45t22 51q8 16 15 19.5t24 -7.5q27 -16 65.5 -27.5t63.5 -11.5q31 0 54 12.5t34 24.5q10 10 15 28.5t5 59.5q0 51 -28.5 102.5t-70.5 97.5t-88 84t-81 62q-16 12 -28.5 36 t-12.5 40q0 14 2 30.5t6 29.5q6 20 16.5 37.5t32.5 33.5q47 29 84 56.5t74 68.5q31 35 44 95.5t13 107.5q0 51 -16 96t-46 79t-69 53.5t-82 19.5q-57 0 -94 -49q-25 -31 -39 -89.5t-22.5 -135t-11.5 -168t-3 -189.5v-446q0 -63 2 -99.5t8.5 -57t18.5 -28.5t35 -16q4 -2 6 -8 t-8 -35q-8 -25 -12.5 -31t-14.5 -6q-39 0 -79 1t-91 1q-72 0 -131 -2t-74 -2q-10 0 -16 14.5t-10 50.5z" />
<glyph unicode="&#xe0;" horiz-adv-x="909" d="M61 203q0 80 99 131q33 18 79 34.5t94 30t95 24.5t84 17q2 41 2 65.5v59.5q0 47 -9 82t-22 45q-12 14 -43.5 26.5t-66.5 12.5q-25 0 -43 -10q-16 -16 -17 -117q0 -18 -16 -22l-139 -43q-18 -6 -30.5 -8.5t-16.5 -2.5q-6 0 -21.5 12.5t-15.5 22.5q0 31 35 76 q25 27 58.5 52.5t67 47t64.5 38t47 22.5q39 16 86 25.5t70 9.5q63 0 112.5 -24t77.5 -54q31 -33 40 -61.5t9 -57.5q0 -115 -1 -218.5t-1 -168.5q-2 -145 45 -146q23 0 47.5 7.5t38.5 13.5q6 4 15.5 -7.5t7.5 -23.5l-6 -37q-2 -10 -5 -13t-14 -7q-12 -6 -41.5 -16.5 t-67.5 -20.5t-79 -17.5t-76 -7.5q-33 0 -61.5 20.5t-36.5 92.5q-35 -18 -75 -38.5t-77 -37t-65.5 -27t-38.5 -10.5q-33 0 -68 17.5t-61 46.5q-14 16 -37 59t-23 105zM189.5 1201q0.5 11 7.5 20q10 12 29.5 28.5t41 31.5t42 25.5t30.5 10.5h2q12 0 20.5 -8.5t22.5 -30.5 q16 -20 43 -62t54.5 -89.5t51 -90.5t35.5 -65q2 -4 -8 -11.5t-25.5 -14.5t-32 -12t-26.5 -7q-20 16 -55 45.5t-75 64.5t-80 73t-70 73q-8 8 -7.5 19zM307 242q0 -51 20.5 -91t63.5 -40h2q10 0 29.5 5t54.5 21q29 14 31 39q0 8 1 28.5t2 44t1 46v35.5q0 39 -10 39 q-68 -12 -102.5 -25.5t-63.5 -32.5q-14 -10 -21.5 -24.5t-7.5 -44.5z" />
<glyph unicode="&#xe1;" horiz-adv-x="909" d="M61 203q0 80 99 131q33 18 79 34.5t94 30t95 24.5t84 17q2 41 2 65.5v59.5q0 47 -9 82t-22 45q-12 14 -43.5 26.5t-66.5 12.5q-25 0 -43 -10q-16 -16 -17 -117q0 -18 -16 -22l-139 -43q-18 -6 -30.5 -8.5t-16.5 -2.5q-6 0 -21.5 12.5t-15.5 22.5q0 31 35 76 q25 27 58.5 52.5t67 47t64.5 38t47 22.5q39 16 86 25.5t70 9.5q63 0 112.5 -24t77.5 -54q31 -33 40 -61.5t9 -57.5q0 -115 -1 -218.5t-1 -168.5q-2 -145 45 -146q23 0 47.5 7.5t38.5 13.5q6 4 15.5 -7.5t7.5 -23.5l-6 -37q-2 -10 -5 -13t-14 -7q-12 -6 -41.5 -16.5 t-67.5 -20.5t-79 -17.5t-76 -7.5q-33 0 -61.5 20.5t-36.5 92.5q-35 -18 -75 -38.5t-77 -37t-65.5 -27t-38.5 -10.5q-33 0 -68 17.5t-61 46.5q-14 16 -37 59t-23 105zM307 242q0 -51 20.5 -91t63.5 -40h2q10 0 29.5 5t54.5 21q29 14 31 39q0 8 1 28.5t2 44t1 46v35.5 q0 39 -10 39q-68 -12 -102.5 -25.5t-63.5 -32.5q-14 -10 -21.5 -24.5t-7.5 -44.5zM352 991q20 49 50 103.5t60 100.5t56.5 75.5t40.5 29.5h2q39 0 81 -21.5t71 -43.5q18 -16 16 -27.5t-6 -15.5q-35 -27 -80 -70t-88 -85t-77 -73.5t-42 -37.5q-14 -10 -21 -7t-30 31z" />
<glyph unicode="&#xe2;" horiz-adv-x="909" d="M61 203q0 80 99 131q33 18 79 34.5t94 30t95 24.5t84 17q2 41 2 65.5v59.5q0 47 -9 82t-22 45q-12 14 -43.5 26.5t-66.5 12.5q-25 0 -43 -10q-16 -16 -17 -117q0 -18 -16 -22l-139 -43q-18 -6 -30.5 -8.5t-16.5 -2.5q-6 0 -21.5 12.5t-15.5 22.5q0 31 35 76 q25 27 58.5 52.5t67 47t64.5 38t47 22.5q39 16 86 25.5t70 9.5q63 0 112.5 -24t77.5 -54q31 -33 40 -61.5t9 -57.5q0 -115 -1 -218.5t-1 -168.5q-2 -145 45 -146q23 0 47.5 7.5t38.5 13.5q6 4 15.5 -7.5t7.5 -23.5l-6 -37q-2 -10 -5 -13t-14 -7q-12 -6 -41.5 -16.5 t-67.5 -20.5t-79 -17.5t-76 -7.5q-33 0 -61.5 20.5t-36.5 92.5q-35 -18 -75 -38.5t-77 -37t-65.5 -27t-38.5 -10.5q-33 0 -68 17.5t-61 46.5q-14 16 -37 59t-23 105zM206 979q-5 6 1 12q8 12 35.5 48t58.5 76t59.5 77t40.5 53q23 23 39.5 37t30.5 14h2q12 0 30.5 -22.5 t44 -64.5t58.5 -97t72 -119q8 -10 2 -18t-10 -10q-23 -16 -36 -22.5t-32 -16.5q-10 -4 -21.5 -2t-21.5 16q-6 8 -19.5 29.5t-30.5 48t-33.5 52.5t-26.5 40q-10 -12 -30 -39t-41.5 -54.5t-38.5 -51t-24 -27.5q-18 0 -43.5 8t-54.5 23q-6 4 -11 10zM307 242q0 -51 20.5 -91 t63.5 -40h2q10 0 29.5 5t54.5 21q29 14 31 39q0 8 1 28.5t2 44t1 46v35.5q0 39 -10 39q-68 -12 -102.5 -25.5t-63.5 -32.5q-14 -10 -21.5 -24.5t-7.5 -44.5z" />
<glyph unicode="&#xe3;" horiz-adv-x="909" d="M61 203q0 80 99 131q33 18 79 34.5t94 30t95 24.5t84 17q2 41 2 65.5v59.5q0 47 -9 82t-22 45q-12 14 -43.5 26.5t-66.5 12.5q-25 0 -43 -10q-16 -16 -17 -117q0 -18 -16 -22l-139 -43q-18 -6 -30.5 -8.5t-16.5 -2.5q-6 0 -21.5 12.5t-15.5 22.5q0 31 35 76 q25 27 58.5 52.5t67 47t64.5 38t47 22.5q39 16 86 25.5t70 9.5q63 0 112.5 -24t77.5 -54q31 -33 40 -61.5t9 -57.5q0 -115 -1 -218.5t-1 -168.5q-2 -145 45 -146q23 0 47.5 7.5t38.5 13.5q6 4 15.5 -7.5t7.5 -23.5l-6 -37q-2 -10 -5 -13t-14 -7q-12 -6 -41.5 -16.5 t-67.5 -20.5t-79 -17.5t-76 -7.5q-33 0 -61.5 20.5t-36.5 92.5q-35 -18 -75 -38.5t-77 -37t-65.5 -27t-38.5 -10.5q-33 0 -68 17.5t-61 46.5q-14 16 -37 59t-23 105zM192.5 936q-2.5 2 2.5 16q23 61 42 104.5t40.5 71t48 40t65.5 12.5h2q41 0 91.5 -16.5t78.5 -16.5 q39 0 113 90q4 -4 14 -14.5t21.5 -21.5t18.5 -20.5t5 -11.5q-10 -16 -29.5 -40.5t-41 -49t-41 -44t-31.5 -25.5q-27 -18 -52.5 -19.5t-60.5 8.5q-25 8 -61.5 17.5t-55.5 9.5q-12 0 -23 -11t-21.5 -25.5t-17.5 -28t-9 -17.5q-4 -10 -19.5 -11t-60.5 1q-16 0 -18.5 2zM307 242 q0 -51 20.5 -91t63.5 -40h2q10 0 29.5 5t54.5 21q29 14 31 39q0 8 1 28.5t2 44t1 46v35.5q0 39 -10 39q-68 -12 -102.5 -25.5t-63.5 -32.5q-14 -10 -21.5 -24.5t-7.5 -44.5z" />
<glyph unicode="&#xe4;" horiz-adv-x="909" d="M61 203q0 80 99 131q33 18 79 34.5t94 30t95 24.5t84 17q2 41 2 65.5v59.5q0 47 -9 82t-22 45q-12 14 -43.5 26.5t-66.5 12.5q-25 0 -43 -10q-16 -16 -17 -117q0 -18 -16 -22l-139 -43q-18 -6 -30.5 -8.5t-16.5 -2.5q-6 0 -21.5 12.5t-15.5 22.5q0 31 35 76 q25 27 58.5 52.5t67 47t64.5 38t47 22.5q39 16 86 25.5t70 9.5q63 0 112.5 -24t77.5 -54q31 -33 40 -61.5t9 -57.5q0 -115 -1 -218.5t-1 -168.5q-2 -145 45 -146q23 0 47.5 7.5t38.5 13.5q6 4 15.5 -7.5t7.5 -23.5l-6 -37q-2 -10 -5 -13t-14 -7q-12 -6 -41.5 -16.5 t-67.5 -20.5t-79 -17.5t-76 -7.5q-33 0 -61.5 20.5t-36.5 92.5q-35 -18 -75 -38.5t-77 -37t-65.5 -27t-38.5 -10.5q-33 0 -68 17.5t-61 46.5q-14 16 -37 59t-23 105zM117 1091.5q-2 12.5 0 23.5t8 18q18 12 31.5 20t25 17.5t20.5 23.5t19 37q2 4 13.5 8t19.5 4h2 q12 0 23.5 -4t15.5 -10q16 -35 30.5 -49.5t51.5 -26.5q6 0 9 -10t3 -22.5t-3 -24t-9 -13.5q-37 -18 -51.5 -39.5t-34.5 -70.5q-2 -4 -11.5 -6t-19.5 -3t-20.5 1t-12.5 8q-20 39 -39.5 58.5t-54.5 27.5q-6 0 -10 10t-6 22.5zM307 242q0 -51 20.5 -91t63.5 -40h2q10 0 29.5 5 t54.5 21q29 14 31 39q0 8 1 28.5t2 44t1 46v35.5q0 39 -10 39q-68 -12 -102.5 -25.5t-63.5 -32.5q-14 -10 -21.5 -24.5t-7.5 -44.5zM486.5 1108q0.5 25 17.5 35q18 12 30.5 20t21.5 17.5t16.5 21.5t17.5 31q4 6 17.5 10t21.5 4h2q14 0 25.5 -3t13.5 -9q18 -35 34.5 -50.5 t55.5 -33.5q6 -4 9 -15.5t3 -23.5t-4 -22.5t-10 -12.5q-43 -16 -58.5 -39.5t-31.5 -68.5q-2 -6 -12.5 -7t-24 2t-25.5 8t-14 15q-10 25 -20.5 38t-21.5 20.5t-23.5 12.5t-24.5 15q-16 10 -15.5 35z" />
<glyph unicode="&#xe5;" horiz-adv-x="909" d="M61 203q0 80 99 131q33 18 79 34.5t94 30t95 24.5t84 17q2 41 2 65.5v59.5q0 47 -9 82t-22 45q-12 14 -43.5 26.5t-66.5 12.5q-25 0 -43 -10q-16 -16 -17 -117q0 -18 -16 -22l-139 -43q-18 -6 -30.5 -8.5t-16.5 -2.5q-6 0 -21.5 12.5t-15.5 22.5q0 31 35 76 q25 27 58.5 52.5t67 47t64.5 38t47 22.5q39 16 86 25.5t70 9.5q63 0 112.5 -24t77.5 -54q31 -33 40 -61.5t9 -57.5q0 -115 -1 -218.5t-1 -168.5q-2 -145 45 -146q23 0 47.5 7.5t38.5 13.5q6 4 15.5 -7.5t7.5 -23.5l-6 -37q-2 -10 -5 -13t-14 -7q-12 -6 -41.5 -16.5 t-67.5 -20.5t-79 -17.5t-76 -7.5q-33 0 -61.5 20.5t-36.5 92.5q-35 -18 -75 -38.5t-77 -37t-65.5 -27t-38.5 -10.5q-33 0 -68 17.5t-61 46.5q-14 16 -37 59t-23 105zM266 1085q0 135 133 193q16 8 34 13t36 5h2q80 0 127 -54t47 -122q0 -66 -26.5 -100.5t-77.5 -61.5 q-35 -23 -57.5 -29.5t-41.5 -6.5q-72 0 -124 47t-52 116zM307 242q0 -51 20.5 -91t63.5 -40h2q10 0 29.5 5t54.5 21q29 14 31 39q0 8 1 28.5t2 44t1 46v35.5q0 39 -10 39q-68 -12 -102.5 -25.5t-63.5 -32.5q-14 -10 -21.5 -24.5t-7.5 -44.5zM369 1122q0 -57 28.5 -82.5 t73.5 -27.5q37 -2 56.5 26.5t19.5 63.5q0 49 -30 77.5t-64 28.5h-2q-35 0 -58.5 -24.5t-23.5 -61.5z" />
<glyph unicode="&#xe6;" horiz-adv-x="1327" d="M66 176q0 35 12 61.5t28 51.5q10 16 17.5 21t19.5 12q27 14 77 32.5t109.5 38t119 38t102.5 30.5q2 57 -1 96t-10.5 64.5t-18.5 41t-25 25.5q-25 16 -54.5 27.5t-72.5 11.5q-51 0 -64 -33v-104q0 -14 -32.5 -31.5t-143.5 -44.5q-55 -12 -53 39q2 27 24.5 61.5t59.5 69.5 q29 25 78 57.5t102 55.5q29 12 63.5 21t67.5 9q66 0 130.5 -25.5t111.5 -90.5q23 14 43 27.5t43 25.5q29 18 75 36.5t109 18.5q72 0 136.5 -32.5t99.5 -114.5l22 14q8 8 16 0q16 -16 17 -61q0 -31 -82 -74q-53 -29 -112.5 -55.5t-117 -51t-104.5 -45t-76 -32.5 q-2 -53 17.5 -96.5t51.5 -73t74 -45t85 -15.5q76 0 126 30t83 71q4 8 11 15t15 7q10 0 24.5 -20.5t14.5 -34.5q0 -18 -10 -29q-23 -25 -52.5 -52.5t-64.5 -52t-69.5 -45t-65.5 -32.5q-25 -10 -53.5 -16.5t-67.5 -6.5q-111 0 -187.5 35t-135.5 121q-33 -20 -68 -42t-65.5 -40 t-55 -31.5t-33.5 -17.5q-23 -10 -40 -15.5t-33 -5.5q-104 0 -160.5 56.5t-56.5 144.5zM309 229q0 -51 23.5 -75.5t58.5 -24.5h2q31 0 68 15.5t67 31.5q10 10 15.5 20.5t7.5 34.5q4 49 3 89t-5 57q-23 0 -50.5 -6t-56 -14.5t-54.5 -17.5t-40 -15q-23 -10 -31 -31t-8 -64z M782 444q82 31 121 49.5t60 32.5q23 14 32 25.5t9 40.5q0 51 -31 87t-76 36h-2q-16 0 -37.5 -7.5t-48.5 -29.5q-27 -25 -27 -72v-162z" />
<glyph unicode="&#xe7;" horiz-adv-x="813" d="M68 332q0 68 13 118t32.5 86.5t40 61.5t34.5 41q31 33 88.5 71t106.5 66q49 29 92 42t96 13t101.5 -16t77.5 -39q16 -12 25 -27.5t9 -27.5q0 -31 -27.5 -60.5t-56.5 -44.5q-10 -8 -25.5 -10t-27.5 2q-10 4 -22.5 12.5t-32.5 24.5q-29 23 -71 43.5t-89 20.5 q-29 0 -42 -7.5t-25 -19.5q-25 -23 -38.5 -92.5t-13.5 -163.5q0 -98 28 -160.5t50 -87.5q41 -43 77 -56t60 -13q43 0 100.5 22.5t92.5 42.5q10 2 20.5 0t10.5 -10q0 -10 -5.5 -38t-17.5 -34q-12 -16 -37.5 -31.5t-55.5 -29t-59.5 -22.5t-50.5 -13l-57 -86q35 -12 58.5 -29.5 t37 -36t19.5 -36t6 -29.5q0 -43 -30 -81t-72 -69.5t-85 -53t-69 -30.5l-58 66q72 29 113 68.5t41 62.5q0 29 -25.5 39t-78.5 26q-12 2 -14.5 6.5t-2.5 12.5q0 16 2 25.5t6 19.5q6 6 35 41t62 74q-63 2 -130 23.5t-110 64.5q-14 14 -32.5 38.5t-35 57.5t-27.5 74t-11 88z" />
<glyph unicode="&#xe8;" horiz-adv-x="882" d="M68 356q0 135 66.5 235.5t172.5 166.5q47 29 97.5 46t84.5 17h3q49 0 105 -18.5t91 -50.5q29 -29 55.5 -69t42.5 -99q49 8 56 0q10 -8 6 -23q-4 -16 -18.5 -39.5t-34.5 -32.5q-29 -10 -92.5 -24t-135 -29.5t-136 -29t-93.5 -21.5q-6 -2 -10 -7t-4 -28q0 -43 16 -83 t46 -68.5t71 -46t88 -17.5q74 0 133 25.5t110 70.5q14 10 30 11.5t16 -9.5q-4 -49 -10.5 -65t-18.5 -27q-80 -63 -146.5 -98t-119.5 -51q-20 -6 -45 -8t-48 -2q-63 0 -112 14t-85 33.5t-58.5 41t-34.5 35.5q-29 35 -58.5 99.5t-29.5 150.5zM198 1201q1 11 7 20 q10 12 29.5 28.5t41 31.5t42 25.5t30.5 10.5h2q12 0 20.5 -8.5t22.5 -30.5q16 -20 43 -62t54.5 -89.5t51 -90.5t36.5 -65q2 -4 -8.5 -11.5t-26 -14.5t-31.5 -12t-27 -7q-20 16 -55 45.5t-75 64.5t-79.5 73t-70.5 73q-8 8 -7 19zM317 461q82 16 133.5 26.5t84.5 16.5 q25 8 24 41v2q0 37 -9 69.5t-25.5 59t-38 42t-46.5 15.5q-8 0 -20 -4t-29 -14q-14 -10 -28.5 -37t-25.5 -62.5t-16.5 -75.5t-3.5 -79z" />
<glyph unicode="&#xe9;" horiz-adv-x="882" d="M68 356q0 135 66.5 235.5t172.5 166.5q47 29 97.5 46t84.5 17h3q49 0 105 -18.5t91 -50.5q29 -29 55.5 -69t42.5 -99q49 8 56 0q10 -8 6 -23q-4 -16 -18.5 -39.5t-34.5 -32.5q-29 -10 -92.5 -24t-135 -29.5t-136 -29t-93.5 -21.5q-6 -2 -10 -7t-4 -28q0 -43 16 -83 t46 -68.5t71 -46t88 -17.5q74 0 133 25.5t110 70.5q14 10 30 11.5t16 -9.5q-4 -49 -10.5 -65t-18.5 -27q-80 -63 -146.5 -98t-119.5 -51q-20 -6 -45 -8t-48 -2q-63 0 -112 14t-85 33.5t-58.5 41t-34.5 35.5q-29 35 -58.5 99.5t-29.5 150.5zM317 461q82 16 133.5 26.5 t84.5 16.5q25 8 24 41v2q0 37 -9 69.5t-25.5 59t-38 42t-46.5 15.5q-8 0 -20 -4t-29 -14q-14 -10 -28.5 -37t-25.5 -62.5t-16.5 -75.5t-3.5 -79zM350 991q20 49 50 103.5t59.5 100.5t56.5 75.5t41 29.5h2q39 0 81 -21.5t71 -43.5q18 -16 16 -27.5t-6 -15.5q-35 -27 -80 -70 t-88 -85t-77 -73.5t-42 -37.5q-14 -10 -21 -7t-30 31z" />
<glyph unicode="&#xea;" horiz-adv-x="882" d="M68 356q0 135 66.5 235.5t172.5 166.5q47 29 97.5 46t84.5 17h3q49 0 105 -18.5t91 -50.5q29 -29 55.5 -69t42.5 -99q49 8 56 0q10 -8 6 -23q-4 -16 -18.5 -39.5t-34.5 -32.5q-29 -10 -92.5 -24t-135 -29.5t-136 -29t-93.5 -21.5q-6 -2 -10 -7t-4 -28q0 -43 16 -83 t46 -68.5t71 -46t88 -17.5q74 0 133 25.5t110 70.5q14 10 30 11.5t16 -9.5q-4 -49 -10.5 -65t-18.5 -27q-80 -63 -146.5 -98t-119.5 -51q-20 -6 -45 -8t-48 -2q-63 0 -112 14t-85 33.5t-58.5 41t-34.5 35.5q-29 35 -58.5 99.5t-29.5 150.5zM230.5 979q-5.5 6 0.5 12 q8 12 36 48t58.5 76t59.5 77t41 53q23 23 39 37t31 14h2q12 0 30.5 -22.5t44 -64.5t58.5 -97t71 -119q8 -10 2 -18t-10 -10q-23 -16 -36 -22.5t-31 -16.5q-10 -4 -21.5 -2t-21.5 16q-6 8 -19.5 29.5t-31 48t-34 52.5t-26.5 40q-10 -12 -29.5 -39t-41 -54.5t-39 -51 t-23.5 -27.5q-18 0 -44 8t-54 23q-6 4 -11.5 10zM317 461q82 16 133.5 26.5t84.5 16.5q25 8 24 41v2q0 37 -9 69.5t-25.5 59t-38 42t-46.5 15.5q-8 0 -20 -4t-29 -14q-14 -10 -28.5 -37t-25.5 -62.5t-16.5 -75.5t-3.5 -79z" />
<glyph unicode="&#xeb;" horiz-adv-x="882" d="M68 356q0 135 66.5 235.5t172.5 166.5q47 29 97.5 46t84.5 17h3q49 0 105 -18.5t91 -50.5q29 -29 55.5 -69t42.5 -99q49 8 56 0q10 -8 6 -23q-4 -16 -18.5 -39.5t-34.5 -32.5q-29 -10 -92.5 -24t-135 -29.5t-136 -29t-93.5 -21.5q-6 -2 -10 -7t-4 -28q0 -43 16 -83 t46 -68.5t71 -46t88 -17.5q74 0 133 25.5t110 70.5q14 10 30 11.5t16 -9.5q-4 -49 -10.5 -65t-18.5 -27q-80 -63 -146.5 -98t-119.5 -51q-20 -6 -45 -8t-48 -2q-63 0 -112 14t-85 33.5t-58.5 41t-34.5 35.5q-29 35 -58.5 99.5t-29.5 150.5zM135 1091.5q-2 12.5 0 23.5t8 18 q18 12 31.5 20t25 17.5t20.5 23.5t20 37q2 4 13 8t19 4h2q12 0 23.5 -4t15.5 -10q16 -35 30.5 -49.5t51.5 -26.5q6 0 9.5 -10t3.5 -22.5t-3.5 -24t-9.5 -13.5q-37 -18 -51 -39.5t-35 -70.5q-2 -4 -11 -6t-19.5 -3t-20.5 1t-12 8q-20 39 -40 58.5t-54 27.5q-6 0 -10.5 10 t-6.5 22.5zM317 461q82 16 133.5 26.5t84.5 16.5q25 8 24 41v2q0 37 -9 69.5t-25.5 59t-38 42t-46.5 15.5q-8 0 -20 -4t-29 -14q-14 -10 -28.5 -37t-25.5 -62.5t-16.5 -75.5t-3.5 -79zM505 1108q1 25 17 35q18 12 30.5 20t22 17.5t16.5 21.5t17 31q4 6 17.5 10t21.5 4h2 q14 0 25.5 -3t13.5 -9q18 -35 34.5 -50.5t55.5 -33.5q6 -4 9.5 -15.5t3.5 -23.5t-4.5 -22.5t-10.5 -12.5q-43 -16 -58.5 -39.5t-31.5 -68.5q-2 -6 -12 -7t-23.5 2t-26 8t-14.5 15q-10 25 -20 38t-21.5 20.5t-24 12.5t-24.5 15q-16 10 -15 35z" />
<glyph unicode="&#xec;" horiz-adv-x="548" d="M-7 1201q1 11 7 20q10 12 29.5 28.5t41 31.5t42 25.5t30.5 10.5h2q12 0 20.5 -8.5t22.5 -30.5q16 -20 43 -62t54.5 -89.5t51 -90.5t36.5 -65q2 -4 -8.5 -11.5t-25.5 -14.5t-31.5 -12t-26.5 -7q-20 16 -55.5 45.5t-75 64.5t-79.5 73t-71 73q-8 8 -7 19zM53 17.5v29.5 q0 8 15 12q43 10 65.5 21.5t26.5 54.5q0 12 2 43t3 72t2 89t1 97q0 88 -2 132t-4 79q0 8 -16.5 14.5t-75.5 20.5q-6 2 -8.5 6t4.5 21q8 23 11 28.5t11 7.5q27 8 66 19.5t79.5 24t80.5 24.5t71 23l9 3t9 1q9 0 7 -25q-4 -51 -7.5 -125t-6.5 -150.5t-5 -146t-2 -108.5 q0 -66 -1 -102t3 -58q2 -39 37 -37q35 4 48 5t18 1q4 0 10 -7t6 -13l-8 -62q0 -12 -5 -14t-16 -2q-59 0 -117.5 2t-117.5 2q-72 0 -121 -6t-53 -6q-12 0 -17 10q-2 4 -2 19.5z" />
<glyph unicode="&#xed;" horiz-adv-x="548" d="M53 17.5v29.5q0 8 15 12q43 10 65.5 21.5t26.5 54.5q0 12 2 43t3 72t2 89t1 97q0 88 -2 132t-4 79q0 8 -16.5 14.5t-75.5 20.5q-6 2 -8.5 6t4.5 21q8 23 11 28.5t11 7.5q27 8 66 19.5t79.5 24t80.5 24.5t71 23l9 3t9 1q9 0 7 -25q-4 -51 -7.5 -125t-6.5 -150.5t-5 -146 t-2 -108.5q0 -66 -1 -102t3 -58q2 -39 37 -37q35 4 48 5t18 1q4 0 10 -7t6 -13l-8 -62q0 -12 -5 -14t-16 -2q-59 0 -117.5 2t-117.5 2q-72 0 -121 -6t-53 -6q-12 0 -17 10q-2 4 -2 19.5zM145 991q20 49 50 103.5t60 100.5t56.5 75.5t40.5 29.5h2q39 0 81 -21.5t71 -43.5 q18 -16 16 -27.5t-6 -15.5q-35 -27 -80 -70t-88 -85t-76.5 -73.5t-42.5 -37.5q-14 -10 -21 -7t-30 31z" />
<glyph unicode="&#xee;" horiz-adv-x="548" d="M38 979q-5 6 1 12q8 12 35.5 48t58.5 76t59.5 77t40.5 53q23 23 39.5 37t30.5 14h2q12 0 30.5 -22.5t44.5 -64.5t58.5 -97t71.5 -119q8 -10 2 -18t-10 -10q-23 -16 -36 -22.5t-32 -16.5q-10 -4 -21.5 -2t-21.5 16q-6 8 -19.5 29.5t-30.5 48t-33.5 52.5t-26.5 40 q-10 -12 -30 -39t-41.5 -54.5t-38.5 -51t-24 -27.5q-18 0 -43.5 8t-54.5 23q-6 4 -11 10zM53 17.5v29.5q0 8 15 12q43 10 65.5 21.5t26.5 54.5q0 12 2 43t3 72t2 89t1 97q0 88 -2 132t-4 79q0 8 -16.5 14.5t-75.5 20.5q-6 2 -8.5 6t4.5 21q8 23 11 28.5t11 7.5q27 8 66 19.5 t79.5 24t80.5 24.5t71 23l9 3t9 1q9 0 7 -25q-4 -51 -7.5 -125t-6.5 -150.5t-5 -146t-2 -108.5q0 -66 -1 -102t3 -58q2 -39 37 -37q35 4 48 5t18 1q4 0 10 -7t6 -13l-8 -62q0 -12 -5 -14t-16 -2q-59 0 -117.5 2t-117.5 2q-72 0 -121 -6t-53 -6q-12 0 -17 10q-2 4 -2 19.5z " />
<glyph unicode="&#xef;" horiz-adv-x="548" d="M-74 1091.5q-2 12.5 0 23.5t8 18q18 12 32 20t25 17.5t20 23.5t20 37q2 4 13 8t19 4h3q12 0 23 -4t15 -10q16 -35 31 -49.5t51 -26.5q6 0 9.5 -10t3.5 -22.5t-3 -24t-10 -13.5q-37 -18 -51 -39.5t-35 -70.5q-2 -4 -11 -6t-19.5 -3t-20.5 1t-12 8q-20 39 -40 58.5 t-54 27.5q-6 0 -10.5 10t-6.5 22.5zM53 17.5v29.5q0 8 15 12q43 10 65.5 21.5t26.5 54.5q0 12 2 43t3 72t2 89t1 97q0 88 -2 132t-4 79q0 8 -16.5 14.5t-75.5 20.5q-6 2 -8.5 6t4.5 21q8 23 11 28.5t11 7.5q27 8 66 19.5t79.5 24t80.5 24.5t71 23l9 3t9 1q9 0 7 -25 q-4 -51 -7.5 -125t-6.5 -150.5t-5 -146t-2 -108.5q0 -66 -1 -102t3 -58q2 -39 37 -37q35 4 48 5t18 1q4 0 10 -7t6 -13l-8 -62q0 -12 -5 -14t-16 -2q-59 0 -117.5 2t-117.5 2q-72 0 -121 -6t-53 -6q-12 0 -17 10q-2 4 -2 19.5zM296 1108q1 25 17 35q18 12 30.5 20t22 17.5 t16.5 21.5t17 31q4 6 17.5 10t21.5 4h2q14 0 25.5 -3t13.5 -9q18 -35 34.5 -50.5t55.5 -33.5q6 -4 9.5 -15.5t3.5 -23.5t-4.5 -22.5t-10.5 -12.5q-43 -16 -58 -39.5t-32 -68.5q-2 -6 -12 -7t-23.5 2t-26 8t-14.5 15q-10 25 -20 38t-21.5 20.5t-23.5 12.5t-25 15 q-16 10 -15 35z" />
<glyph unicode="&#xf0;" horiz-adv-x="997" d="M70 395v2q0 236 241 361q47 25 105.5 45t99.5 20q35 0 74 -4t72 -18q-4 18 -13.5 48t-25 63.5t-35 68.5t-39.5 63q-53 -29 -107.5 -58.5t-113.5 -63.5q-16 -12 -29 0q-10 10 -17.5 19t-19.5 26q-4 4 2 11t39 30q51 33 94 59.5t97 58.5q-59 74 -147.5 129.5t-188.5 81.5 q-4 2 -7.5 9.5t3.5 19.5q10 16 16 21.5t18 5.5q51 0 110.5 -12.5t119 -35t118 -55.5t105.5 -73l90 54t111 68q10 -8 26.5 -29.5t24.5 -35.5t-29 -37q-39 -23 -75.5 -47.5t-77.5 -48.5q227 -262 227 -609q0 -115 -21.5 -195.5t-52 -136t-62.5 -86t-52 -42.5 q-25 -16 -59 -31.5t-69.5 -28t-70.5 -20.5t-66 -8q-29 0 -72.5 9t-90 27.5t-90.5 45t-74 63.5q-45 53 -66.5 116.5t-21.5 149.5zM328 455q0 -37 5 -78t15 -81t25.5 -77t34.5 -61q41 -53 77.5 -72.5t59.5 -19.5t41 11t39 29q29 31 52 114t23 237q0 84 -14 136t-65 93 q-41 33 -80 44t-68 11q-59 0 -94 -49q-23 -33 -37 -84t-14 -151v-2z" />
<glyph unicode="&#xf1;" horiz-adv-x="1071" d="M47 692q0 4 7 9.5t30 15.5q88 41 154.5 71.5t80.5 38.5q8 4 14.5 6.5t22.5 2.5q20 0 21 -23q2 -25 3 -47.5t1 -38.5q0 -33 20 -20q35 20 72 38.5t76 38.5q29 16 56.5 23.5t64.5 7.5q47 0 80.5 -12t64.5 -35q43 -35 64.5 -88t31.5 -125q4 -31 4 -82v-92v-275q0 -25 9 -24 q6 0 20 1t29.5 2t29 3t19.5 2q12 0 12 -18q0 -14 -4 -36t-8 -28q-4 -10 -16 -10q-147 0 -240.5 -4t-140.5 -4q-12 0 -18.5 4t-10.5 22l-6 29q47 18 62.5 36.5t21.5 65.5q8 63 9 130t1 159q0 80 -9 126t-32 71q-16 18 -44 28.5t-58 10.5q-35 0 -77 -10.5t-58 -16.5 q-10 -4 -12.5 -17.5t-4.5 -52.5q0 -29 -1 -82t-1 -116.5v-129v-116.5q0 -14 2 -23.5t11.5 -15.5t31 -12t57.5 -17q16 -6 9 -22l-15 -41h-221q-41 0 -71.5 -1t-55.5 -3q-49 -6 -74 -6q-14 0 -12 20l6 43q25 8 41.5 15.5t27.5 16.5t18.5 23.5t11.5 38.5q2 16 3 47t2 66t1 70 v61q0 55 -2 104.5t-6 84.5q-2 18 -15.5 29.5t-73.5 33.5q-10 4 -15 15.5t-1 33.5zM270.5 936q-2.5 2 1.5 16q23 61 42.5 104.5t41 71t48 40t65.5 12.5h2q41 0 91 -16.5t79 -16.5q39 0 113 90q4 -4 14 -14.5t21.5 -21.5t18.5 -20.5t5 -11.5q-10 -16 -29.5 -40.5t-41 -49 t-41 -44t-31.5 -25.5q-27 -18 -52.5 -19.5t-60.5 8.5q-25 8 -61.5 17.5t-55.5 9.5q-12 0 -23 -11t-21.5 -25.5t-17.5 -28t-9 -17.5q-4 -10 -19.5 -11t-60.5 1q-16 0 -18.5 2z" />
<glyph unicode="&#xf2;" horiz-adv-x="1017" d="M68 395q0 63 22.5 133t65.5 121q59 66 149 113q27 14 59.5 27.5t64.5 22.5t58.5 14t42.5 5h2q74 0 148 -26.5t133 -78.5t97 -132t38 -186q0 -78 -22.5 -137.5t-53 -101.5t-61.5 -67.5t-47 -35.5q-29 -16 -64.5 -32t-72.5 -28t-74 -19t-68 -7q-37 0 -82 8t-91 26.5t-88 47 t-72 69.5q-39 53 -61.5 125t-22.5 139zM212 1201q1 11 7 20q10 12 29.5 28.5t41 31.5t42 25.5t30.5 10.5h3q12 0 20 -8.5t23 -30.5q16 -20 42.5 -62t54 -89.5t51.5 -90.5t36 -65q2 -4 -8.5 -11.5t-25.5 -14.5t-31.5 -12t-26.5 -7q-20 16 -55 45.5t-75 64.5t-80 73t-71 73 q-8 8 -7 19zM326 465q0 -98 25.5 -186.5t60.5 -131.5q39 -47 73.5 -64t71.5 -17q49 0 82 34q23 25 40 79t17 149q0 37 -4 86t-14 98t-28.5 94t-47.5 74q-27 29 -63.5 47t-73.5 18h-2q-29 0 -47.5 -9t-34.5 -25q-23 -18 -39 -84t-16 -162z" />
<glyph unicode="&#xf3;" horiz-adv-x="1017" d="M68 395q0 63 22.5 133t65.5 121q59 66 149 113q27 14 59.5 27.5t64.5 22.5t58.5 14t42.5 5h2q74 0 148 -26.5t133 -78.5t97 -132t38 -186q0 -78 -22.5 -137.5t-53 -101.5t-61.5 -67.5t-47 -35.5q-29 -16 -64.5 -32t-72.5 -28t-74 -19t-68 -7q-37 0 -82 8t-91 26.5t-88 47 t-72 69.5q-39 53 -61.5 125t-22.5 139zM326 465q0 -98 25.5 -186.5t60.5 -131.5q39 -47 73.5 -64t71.5 -17q49 0 82 34q23 25 40 79t17 149q0 37 -4 86t-14 98t-28.5 94t-47.5 74q-27 29 -63.5 47t-73.5 18h-2q-29 0 -47.5 -9t-34.5 -25q-23 -18 -39 -84t-16 -162zM401 991 q20 49 50 103.5t60 100.5t56.5 75.5t40.5 29.5h2q39 0 81 -21.5t71 -43.5q18 -16 16 -27.5t-6 -15.5q-35 -27 -80 -70t-88 -85t-76.5 -73.5t-42.5 -37.5q-14 -10 -21 -7t-30 31z" />
<glyph unicode="&#xf4;" horiz-adv-x="1017" d="M68 395q0 63 22.5 133t65.5 121q59 66 149 113q27 14 59.5 27.5t64.5 22.5t58.5 14t42.5 5h2q74 0 148 -26.5t133 -78.5t97 -132t38 -186q0 -78 -22.5 -137.5t-53 -101.5t-61.5 -67.5t-47 -35.5q-29 -16 -64.5 -32t-72.5 -28t-74 -19t-68 -7q-37 0 -82 8t-91 26.5t-88 47 t-72 69.5q-39 53 -61.5 125t-22.5 139zM253 979q-5 6 1 12q8 12 35.5 48t58.5 76t59.5 77t41.5 53q23 23 39 37t30 14h2q12 0 30.5 -22.5t44.5 -64.5t58.5 -97t71.5 -119q8 -10 2 -18t-10 -10q-23 -16 -36 -22.5t-32 -16.5q-10 -4 -21.5 -2t-21.5 16q-6 8 -19.5 29.5 t-30.5 48t-33.5 52.5t-26.5 40q-10 -12 -30 -39t-41.5 -54.5t-38.5 -51t-24 -27.5q-18 0 -43.5 8t-54.5 23q-6 4 -11 10zM326 465q0 -98 25.5 -186.5t60.5 -131.5q39 -47 73.5 -64t71.5 -17q49 0 82 34q23 25 40 79t17 149q0 37 -4 86t-14 98t-28.5 94t-47.5 74 q-27 29 -63.5 47t-73.5 18h-2q-29 0 -47.5 -9t-34.5 -25q-23 -18 -39 -84t-16 -162z" />
<glyph unicode="&#xf5;" horiz-adv-x="1017" d="M68 395q0 63 22.5 133t65.5 121q59 66 149 113q27 14 59.5 27.5t64.5 22.5t58.5 14t42.5 5h2q74 0 148 -26.5t133 -78.5t97 -132t38 -186q0 -78 -22.5 -137.5t-53 -101.5t-61.5 -67.5t-47 -35.5q-29 -16 -64.5 -32t-72.5 -28t-74 -19t-68 -7q-37 0 -82 8t-91 26.5t-88 47 t-72 69.5q-39 53 -61.5 125t-22.5 139zM256 936q-2 2 2 16q23 61 42 104.5t40.5 71t48.5 40t66 12.5h2q41 0 91 -16.5t79 -16.5q39 0 112 90l14.5 -14.5l21.5 -21.5t18.5 -20.5t5.5 -11.5q-10 -16 -29.5 -40.5t-41 -49t-41 -44t-32.5 -25.5q-27 -18 -52 -19.5t-60 8.5 q-25 8 -62 17.5t-55 9.5q-12 0 -23.5 -11t-21.5 -25.5t-17.5 -28t-9.5 -17.5q-4 -10 -19.5 -11t-60.5 1q-16 0 -18 2zM326 465q0 -98 25.5 -186.5t60.5 -131.5q39 -47 73.5 -64t71.5 -17q49 0 82 34q23 25 40 79t17 149q0 37 -4 86t-14 98t-28.5 94t-47.5 74 q-27 29 -63.5 47t-73.5 18h-2q-29 0 -47.5 -9t-34.5 -25q-23 -18 -39 -84t-16 -162z" />
<glyph unicode="&#xf6;" horiz-adv-x="1017" d="M68 395q0 63 22.5 133t65.5 121q59 66 149 113q27 14 59.5 27.5t64.5 22.5t58.5 14t42.5 5h2q74 0 148 -26.5t133 -78.5t97 -132t38 -186q0 -78 -22.5 -137.5t-53 -101.5t-61.5 -67.5t-47 -35.5q-29 -16 -64.5 -32t-72.5 -28t-74 -19t-68 -7q-37 0 -82 8t-91 26.5t-88 47 t-72 69.5q-39 53 -61.5 125t-22.5 139zM182 1091.5q-2 12.5 0 23.5t8 18q18 12 32 20t25 17.5t20 23.5t20 37q2 4 13 8t19 4h3q12 0 23 -4t15 -10q16 -35 31 -49.5t51 -26.5q6 0 9.5 -10t3.5 -22.5t-3 -24t-10 -13.5q-37 -18 -51 -39.5t-35 -70.5q-2 -4 -11 -6t-19.5 -3 t-20.5 1t-12 8q-20 39 -40 58.5t-54 27.5q-6 0 -10.5 10t-6.5 22.5zM326 465q0 -98 25.5 -186.5t60.5 -131.5q39 -47 73.5 -64t71.5 -17q49 0 82 34q23 25 40 79t17 149q0 37 -4 86t-14 98t-28.5 94t-47.5 74q-27 29 -63.5 47t-73.5 18h-2q-29 0 -47.5 -9t-34.5 -25 q-23 -18 -39 -84t-16 -162zM552 1108q1 25 17 35q18 12 30.5 20t22 17.5t16.5 21.5t17 31q4 6 17.5 10t21.5 4h2q14 0 25.5 -3t13.5 -9q18 -35 34.5 -50.5t55.5 -33.5q6 -4 9.5 -15.5t3.5 -23.5t-4.5 -22.5t-10.5 -12.5q-43 -16 -58 -39.5t-32 -68.5q-2 -6 -12 -7t-23.5 2 t-26 8t-14.5 15q-10 25 -20 38t-21.5 20.5t-23.5 12.5t-25 15q-16 10 -15 35z" />
<glyph unicode="&#xf7;" horiz-adv-x="1357" d="M172 441.5q-2 21.5 2 97.5q2 18 6 22t27 4h954q16 0 21.5 -7t5.5 -21l-4 -86q-2 -18 -7.5 -24.5t-21.5 -6.5h-967q-14 0 -16 21.5zM502 812q0 9 2 11q37 16 58.5 27.5t32.5 24t15 25.5t8 34q2 10 12.5 17t22 11.5t20.5 6.5t9 0q23 -33 37 -52.5t27.5 -32t30 -17.5 t44.5 -9q0 -2 2 -12t1 -23.5t-6 -26t-15 -18.5q-41 -20 -60.5 -49t-37.5 -59q-4 -10 -12.5 -13.5t-16.5 -3.5h-2q-25 0 -29 9q-18 31 -28.5 46t-20.5 23t-23.5 12.5l-37.5 12.5q-12 4 -19.5 14t-10.5 21.5t-3 20.5zM514 172v8q63 31 86 54.5t35 64.5q2 4 12 7t22.5 4t24 -2 t15.5 -11q12 -29 23 -46.5t23.5 -27.5t30 -17t43.5 -16v-7v-16t-1 -18.5t-1 -11.5q-25 -14 -42 -26.5t-30.5 -28.5t-23.5 -36.5t-20 -51.5q-4 -8 -25 -8h-2q-29 0 -37 12q-23 57 -53.5 81.5t-71.5 45.5q-4 0 -5 9t-2 19.5t-1 18.5z" />
<glyph unicode="&#xf8;" horiz-adv-x="1021" d="M68 397q0 63 21.5 132t66.5 120q55 63 141 109q49 29 113.5 50t119.5 21q102 0 209 -53q16 20 29.5 40t17.5 26t12.5 12t20.5 6q43 -2 57.5 -15.5t8.5 -23.5q-14 -16 -36 -41.5t-42 -52.5q66 -55 106.5 -133t40.5 -182q0 -80 -22.5 -139.5t-53 -100.5t-61.5 -65.5 t-47 -34.5q-27 -16 -61.5 -31.5t-73.5 -30t-77 -22.5t-69 -8h-2q-98 0 -196 51q-16 -23 -34.5 -48.5t-37.5 -50.5q-12 -20 -25.5 -19t-23.5 11q-16 14 -26.5 31.5t-0.5 28.5q16 18 36 42.5t38 47.5q-37 25 -64.5 62.5t-46 81.5t-28.5 91t-10 88zM305 451q0 -55 10.5 -106.5 t26.5 -96.5q72 98 144.5 195.5t150.5 199.5q-31 59 -77 83t-87 24h-2q-37 0 -64.5 -18.5t-48.5 -45.5q-23 -29 -38 -83t-15 -152zM387 164q29 -55 72 -82t90 -27h2q47 0 90 43q27 27 49.5 93.5t22.5 152.5q0 59 -7.5 119.5t-23.5 101.5q-76 -102 -148.5 -201.5 t-146.5 -199.5z" />
<glyph unicode="&#xf9;" horiz-adv-x="1054" d="M43 735q-2 10 2 16.5t21 10.5l60 15t91 22.5t86 19.5t47 8h2q14 0 21 -34q2 -12 2 -44t-4 -100q-2 -39 -3 -86t-3.5 -97t-3.5 -101.5t-1 -98.5q0 -49 16.5 -78.5t39 -45t47 -20.5t37.5 -5q25 0 58.5 8t64.5 31q10 6 17 14t9 27q6 47 9.5 113.5t3.5 135.5q0 59 -1.5 98.5 t-2.5 63t-3 35.5t-4 19q-6 16 -23.5 23t-64.5 17q-23 6 -26 19q-6 14 -7 37q0 10 9 12q2 2 35.5 7t79.5 11.5t97.5 10.5t90.5 4q27 0 37 -6t12 -19q4 -20 4 -39.5v-56.5q0 -41 -4 -104.5t-4 -159.5v-176q0 -49 3 -83t5 -44q4 -18 16 -15l38 9.5t55 13.5q6 2 14 -8.5t6 -18.5 q-10 -47 -17.5 -57t-17.5 -12q-41 -4 -84 -12.5t-82 -17.5t-70.5 -17.5t-45.5 -14.5q-16 -4 -25.5 -3t-22.5 15q-8 10 -11 16.5t-3 18.5l4 84q-23 -12 -64.5 -37.5t-84.5 -48.5q-37 -18 -64.5 -26.5t-58.5 -8.5q-59 0 -117.5 20.5t-93.5 80.5q-20 35 -24.5 70.5t-4.5 64.5 q0 100 3 202.5t-1 202.5q-2 20 -10 36t-59 38q-8 4 -14.5 13.5t-12.5 31.5zM230.5 1201q0.5 11 7.5 20q10 12 29.5 28.5t41 31.5t42 25.5t30.5 10.5h2q12 0 20.5 -8.5t22.5 -30.5q16 -20 43 -62t54.5 -89.5t51 -90.5t35.5 -65q2 -4 -8 -11.5t-25.5 -14.5t-32 -12t-26.5 -7 q-20 16 -55 45.5t-75 64.5t-80 73t-70 73q-8 8 -7.5 19z" />
<glyph unicode="&#xfa;" horiz-adv-x="1054" d="M43 735q-2 10 2 16.5t21 10.5l60 15t91 22.5t86 19.5t47 8h2q14 0 21 -34q2 -12 2 -44t-4 -100q-2 -39 -3 -86t-3.5 -97t-3.5 -101.5t-1 -98.5q0 -49 16.5 -78.5t39 -45t47 -20.5t37.5 -5q25 0 58.5 8t64.5 31q10 6 17 14t9 27q6 47 9.5 113.5t3.5 135.5q0 59 -1.5 98.5 t-2.5 63t-3 35.5t-4 19q-6 16 -23.5 23t-64.5 17q-23 6 -26 19q-6 14 -7 37q0 10 9 12q2 2 35.5 7t79.5 11.5t97.5 10.5t90.5 4q27 0 37 -6t12 -19q4 -20 4 -39.5v-56.5q0 -41 -4 -104.5t-4 -159.5v-176q0 -49 3 -83t5 -44q4 -18 16 -15l38 9.5t55 13.5q6 2 14 -8.5t6 -18.5 q-10 -47 -17.5 -57t-17.5 -12q-41 -4 -84 -12.5t-82 -17.5t-70.5 -17.5t-45.5 -14.5q-16 -4 -25.5 -3t-22.5 15q-8 10 -11 16.5t-3 18.5l4 84q-23 -12 -64.5 -37.5t-84.5 -48.5q-37 -18 -64.5 -26.5t-58.5 -8.5q-59 0 -117.5 20.5t-93.5 80.5q-20 35 -24.5 70.5t-4.5 64.5 q0 100 3 202.5t-1 202.5q-2 20 -10 36t-59 38q-8 4 -14.5 13.5t-12.5 31.5zM420 991q20 49 50 103.5t59.5 100.5t56 75.5t41.5 29.5h2q39 0 81 -21.5t70 -43.5q18 -16 16.5 -27.5t-5.5 -15.5q-35 -27 -80 -70t-88 -85t-77 -73.5t-42 -37.5q-14 -10 -21.5 -7t-29.5 31z" />
<glyph unicode="&#xfb;" horiz-adv-x="1054" d="M43 735q-2 10 2 16.5t21 10.5l60 15t91 22.5t86 19.5t47 8h2q14 0 21 -34q2 -12 2 -44t-4 -100q-2 -39 -3 -86t-3.5 -97t-3.5 -101.5t-1 -98.5q0 -49 16.5 -78.5t39 -45t47 -20.5t37.5 -5q25 0 58.5 8t64.5 31q10 6 17 14t9 27q6 47 9.5 113.5t3.5 135.5q0 59 -1.5 98.5 t-2.5 63t-3 35.5t-4 19q-6 16 -23.5 23t-64.5 17q-23 6 -26 19q-6 14 -7 37q0 10 9 12q2 2 35.5 7t79.5 11.5t97.5 10.5t90.5 4q27 0 37 -6t12 -19q4 -20 4 -39.5v-56.5q0 -41 -4 -104.5t-4 -159.5v-176q0 -49 3 -83t5 -44q4 -18 16 -15l38 9.5t55 13.5q6 2 14 -8.5t6 -18.5 q-10 -47 -17.5 -57t-17.5 -12q-41 -4 -84 -12.5t-82 -17.5t-70.5 -17.5t-45.5 -14.5q-16 -4 -25.5 -3t-22.5 15q-8 10 -11 16.5t-3 18.5l4 84q-23 -12 -64.5 -37.5t-84.5 -48.5q-37 -18 -64.5 -26.5t-58.5 -8.5q-59 0 -117.5 20.5t-93.5 80.5q-20 35 -24.5 70.5t-4.5 64.5 q0 100 3 202.5t-1 202.5q-2 20 -10 36t-59 38q-8 4 -14.5 13.5t-12.5 31.5zM275.5 979q-5.5 6 0.5 12q8 12 36 48t58.5 76t59.5 77t41 53q23 23 39 37t31 14h2q12 0 30.5 -22.5t44 -64.5t58.5 -97t72 -119q8 -10 1.5 -18t-10.5 -10q-23 -16 -36 -22.5t-31 -16.5 q-10 -4 -21.5 -2t-21.5 16q-6 8 -19.5 29.5t-31 48t-34 52.5t-26.5 40q-10 -12 -29.5 -39t-41 -54.5t-39 -51t-23.5 -27.5q-18 0 -44 8t-54 23q-6 4 -11.5 10z" />
<glyph unicode="&#xfc;" horiz-adv-x="1054" d="M43 735q-2 10 2 16.5t21 10.5l60 15t91 22.5t86 19.5t47 8h2q14 0 21 -34q2 -12 2 -44t-4 -100q-2 -39 -3 -86t-3.5 -97t-3.5 -101.5t-1 -98.5q0 -49 16.5 -78.5t39 -45t47 -20.5t37.5 -5q25 0 58.5 8t64.5 31q10 6 17 14t9 27q6 47 9.5 113.5t3.5 135.5q0 59 -1.5 98.5 t-2.5 63t-3 35.5t-4 19q-6 16 -23.5 23t-64.5 17q-23 6 -26 19q-6 14 -7 37q0 10 9 12q2 2 35.5 7t79.5 11.5t97.5 10.5t90.5 4q27 0 37 -6t12 -19q4 -20 4 -39.5v-56.5q0 -41 -4 -104.5t-4 -159.5v-176q0 -49 3 -83t5 -44q4 -18 16 -15l38 9.5t55 13.5q6 2 14 -8.5t6 -18.5 q-10 -47 -17.5 -57t-17.5 -12q-41 -4 -84 -12.5t-82 -17.5t-70.5 -17.5t-45.5 -14.5q-16 -4 -25.5 -3t-22.5 15q-8 10 -11 16.5t-3 18.5l4 84q-23 -12 -64.5 -37.5t-84.5 -48.5q-37 -18 -64.5 -26.5t-58.5 -8.5q-59 0 -117.5 20.5t-93.5 80.5q-20 35 -24.5 70.5t-4.5 64.5 q0 100 3 202.5t-1 202.5q-2 20 -10 36t-59 38q-8 4 -14.5 13.5t-12.5 31.5zM190.5 1091.5q-2.5 12.5 0 23.5t8.5 18q18 12 31.5 20t24.5 17.5t20.5 23.5t19.5 37q2 4 13 8t20 4h2q12 0 23.5 -4t15.5 -10q16 -35 30.5 -49.5t51.5 -26.5q6 0 9 -10t3 -22.5t-3 -24t-9 -13.5 q-37 -18 -51.5 -39.5t-34.5 -70.5q-2 -4 -11.5 -6t-19.5 -3t-20.5 1t-12.5 8q-20 39 -39.5 58.5t-54.5 27.5q-6 0 -10 10t-6.5 22.5zM560 1108q1 25 18 35q18 12 30.5 20t21.5 17.5t16 21.5t18 31q4 6 17 10t21 4h3q14 0 25 -3t13 -9q18 -35 35 -50.5t56 -33.5q6 -4 9 -15.5 t3 -23.5t-4 -22.5t-11 -12.5q-43 -16 -58 -39.5t-32 -68.5q-2 -6 -12 -7t-23.5 2t-25.5 8t-14 15q-10 25 -20.5 38t-22 20.5t-23.5 12.5t-25 15q-16 10 -15 35z" />
<glyph unicode="&#xfd;" horiz-adv-x="937" d="M14 735q0 14 11 43q6 10 13 12.5t36 4.5q137 0 226 5t136 5q16 0 21 -6q4 -10 12 -29.5t6 -34.5q-37 -12 -58.5 -21t-30.5 -18.5t-9 -23t6 -35.5q8 -31 23.5 -85t35 -114.5t38 -119t32.5 -97.5q14 27 36.5 73t46 100.5t46.5 109.5t37 98q12 33 14 53.5t-6 31.5 t-29.5 18.5t-58.5 15.5q-10 2 -10 27v2q0 29 3 35t13 8q12 0 39 1t56.5 2t59 3t52.5 4q29 2 46 2h28q8 0 18 -1t15 -5q6 -6 15 -26.5t9 -31.5q-33 -10 -53.5 -21t-36.5 -29.5t-32.5 -48.5t-41.5 -77q-57 -109 -102 -199t-82 -166.5t-67.5 -142t-55.5 -125.5 q-25 -55 -47.5 -114.5t-40.5 -109.5t-29.5 -84t-13.5 -40q-10 -31 -12 -50t-2 -32q0 -8 -1 -17t-10 -15q-25 -8 -53 -9q-23 0 -54.5 12.5t-47.5 30.5q-23 16 -21 43t21 52q4 6 20.5 30.5t38 59.5t45 74.5t45 74.5t34.5 60.5t15 29.5q4 8 1 33t-13 53q-27 82 -51.5 157 t-51 147.5t-53 143t-55.5 146.5q-12 31 -21.5 49.5t-19.5 30.5t-23.5 18.5t-35.5 12.5q-14 4 -17.5 6t-3.5 10zM391 991q20 49 50 103.5t59.5 100.5t56.5 75.5t41 29.5h2q39 0 81 -21.5t71 -43.5q18 -16 16 -27.5t-6 -15.5q-35 -27 -80 -70t-88 -85t-77 -73.5t-42 -37.5 q-14 -10 -21.5 -7t-29.5 31z" />
<glyph unicode="&#xfe;" horiz-adv-x="1026" d="M-18 -446q45 8 70.5 17t37.5 23.5t16.5 36t8.5 54.5q2 14 5 56t7 104.5t7 143.5t3 173v680q0 102 -4 173.5t-8 112.5q-2 20 -6 33t-16.5 21t-37 15t-63.5 15q8 35 13 46.5t16 15.5q59 27 151 53.5t180 63.5q2 0 3.5 1t3.5 1q6 0 6 -19q-8 -195 -12.5 -352.5t-4.5 -296.5 q27 12 63 28.5t72.5 31t72.5 23.5t63 9q47 0 108.5 -22.5t110.5 -69.5q66 -63 91.5 -140t25.5 -149q0 -88 -39 -168t-92 -131q-16 -14 -43 -31.5t-58 -34t-63.5 -32.5t-63.5 -29q-37 -16 -58.5 -21t-49.5 -5q-53 0 -129 16q-4 -4 -6.5 -23.5t-3.5 -48t-1 -63.5v-72 q0 -111 9 -137q4 -20 12 -31.5t25.5 -18.5t47 -11.5t76.5 -6.5q18 0 11 -18l-13 -33q-4 -14 -11 -18t-26 -6q-68 -4 -144.5 -6.5t-146 -5.5t-121.5 -4t-71 -1q-6 0 -8 6zM356 471q0 -86 4.5 -152.5t10.5 -105.5q4 -25 9 -37t26 -24q45 -29 92 -43.5t80 -14.5q37 0 62.5 10.5 t41.5 22.5q23 16 42 74.5t19 160.5v3q0 68 -26.5 129t-67.5 108q-45 49 -86 67.5t-76 18.5q-66 0 -118 -43q-8 -6 -10.5 -27.5t-2.5 -37.5v-109z" />
<glyph unicode="&#xff;" horiz-adv-x="937" d="M14 735q0 14 11 43q6 10 13 12.5t36 4.5q137 0 226 5t136 5q16 0 21 -6q4 -10 12 -29.5t6 -34.5q-37 -12 -58.5 -21t-30.5 -18.5t-9 -23t6 -35.5q8 -31 23.5 -85t35 -114.5t38 -119t32.5 -97.5q14 27 36.5 73t46 100.5t46.5 109.5t37 98q12 33 14 53.5t-6 31.5 t-29.5 18.5t-58.5 15.5q-10 2 -10 27v2q0 29 3 35t13 8q12 0 39 1t56.5 2t59 3t52.5 4q29 2 46 2h28q8 0 18 -1t15 -5q6 -6 15 -26.5t9 -31.5q-33 -10 -53.5 -21t-36.5 -29.5t-32.5 -48.5t-41.5 -77q-57 -109 -102 -199t-82 -166.5t-67.5 -142t-55.5 -125.5 q-25 -55 -47.5 -114.5t-40.5 -109.5t-29.5 -84t-13.5 -40q-10 -31 -12 -50t-2 -32q0 -8 -1 -17t-10 -15q-25 -8 -53 -9q-23 0 -54.5 12.5t-47.5 30.5q-23 16 -21 43t21 52q4 6 20.5 30.5t38 59.5t45 74.5t45 74.5t34.5 60.5t15 29.5q4 8 1 33t-13 53q-27 82 -51.5 157 t-51 147.5t-53 143t-55.5 146.5q-12 31 -21.5 49.5t-19.5 30.5t-23.5 18.5t-35.5 12.5q-14 4 -17.5 6t-3.5 10zM141 1091.5q-2 12.5 0 23.5t9 18q18 12 31.5 20t24.5 17.5t20.5 23.5t19.5 37q2 4 13 8t20 4h2q12 0 23 -4t15 -10q16 -35 31 -49.5t51 -26.5q6 0 9.5 -10 t3.5 -22.5t-3 -24t-10 -13.5q-37 -18 -51 -39.5t-35 -70.5q-2 -4 -11 -6t-19.5 -3t-20.5 1t-12 8q-20 39 -39.5 58.5t-54.5 27.5q-6 0 -10.5 10t-6.5 22.5zM511 1108q1 25 17 35q18 12 30.5 20t22 17.5t16.5 21.5t17 31q4 6 17.5 10t21.5 4h2q14 0 25.5 -3t13.5 -9 q18 -35 34.5 -50.5t55.5 -33.5q6 -4 9.5 -15.5t3.5 -23.5t-4.5 -22.5t-10.5 -12.5q-43 -16 -58 -39.5t-32 -68.5q-2 -6 -12 -7t-23.5 2t-26 8t-14.5 15q-10 25 -20 38t-21.5 20.5t-23.5 12.5t-25 15q-16 10 -15 35z" />
<glyph unicode="&#x152;" horiz-adv-x="2293" d="M78 678q0 131 54 259t165 226q109 96 250 145.5t272 49.5q129 0 243 -48t204 -153q-2 41 -3 65.5t-1 53.5q-2 12 2 30.5t12 18.5q20 0 68.5 -2t162.5 -2h150q109 0 212 5t210 5q43 0 53 -10q8 -10 9 -17.5t-1 -37.5q-16 -86 -18 -151.5t-2 -106.5q0 -10 -7.5 -11.5 t-29.5 -1.5q-23 0 -30 6.5t-11 16.5q-10 49 -23.5 90t-33 70.5t-50 45t-75.5 15.5h-107q-88 0 -136 -2t-65 -6q-23 -4 -29.5 -23.5t-6.5 -50.5q-4 -203 0 -405q0 -43 26 -43q70 0 138.5 1t142.5 5q47 2 75.5 9t47 22.5t31 42t26.5 67.5q4 14 41 14q20 0 24.5 -5t2.5 -17 q-6 -53 -9.5 -100.5t-3.5 -96.5q0 -45 2 -94t6 -115q-6 -4 -23.5 -6t-23.5 -2q-25 0 -26 19q-10 43 -19.5 73.5t-25 50t-41 28.5t-68.5 11t-85 3.5t-118 1.5h-72.5t-31.5 -5q-4 -10 -11.5 -82.5t-7.5 -238.5q0 -78 5.5 -110.5t15.5 -49.5q18 -27 70.5 -39t144.5 -12 q86 0 151.5 10t115.5 39t85 82t60 137q10 4 30.5 4t30.5 -2q4 -2 5 -5t1 -21q-4 -98 -23.5 -185.5t-35.5 -132.5q-10 -16 -27 -16q-102 0 -222 3t-259 3h-106.5t-88.5 -1t-79.5 -2t-83.5 -3q-27 0 -33 21.5t-6 39.5q2 23 2 45.5v61.5q-102 -111 -217 -155t-213 -44 q-80 0 -161 16.5t-157 48t-143.5 78t-122.5 107.5q-78 86 -126 206t-48 259zM385 702q0 -143 45 -271t117 -206q90 -98 175 -136t161 -38q63 0 129.5 31t121 97.5t89 173t34.5 257.5q0 68 -7 138.5t-25.5 138t-50 130t-80.5 116.5q-68 72 -148 107.5t-178 35.5h-2 q-59 0 -123.5 -32t-126.5 -103q-76 -88 -103.5 -199t-27.5 -240z" />
<glyph unicode="&#x153;" horiz-adv-x="1552" d="M68 403q0 84 44 177.5t140 152.5q59 35 137 64.5t135 29.5q96 0 178 -50t136 -118q33 35 80 70t88 53t84 29.5t77 11.5q55 0 104.5 -16t87.5 -46t62.5 -71t28.5 -90l51 8q4 -10 3 -18t-5 -35q-4 -16 -14 -23.5t-31 -13.5q-43 -14 -109.5 -30.5t-137 -33t-138.5 -31.5 t-113 -30q-4 -72 16.5 -123t54.5 -83.5t78 -49t91 -16.5q45 0 85 11t71.5 26.5t55.5 32t40 26.5l12 -8q14 -10 19.5 -24.5t1.5 -24.5q-102 -92 -199.5 -141.5t-191.5 -49.5q-90 0 -168 43t-131 117q-37 -35 -79 -63.5t-84 -49t-80 -31t-65 -10.5q-33 0 -74.5 7.5t-85.5 24 t-87 44t-80 68.5q-49 55 -68.5 131t-19.5 153zM324 424q0 -68 15 -144.5t58 -129.5q61 -78 158 -78q29 0 52.5 18.5t39.5 46.5q16 23 33.5 87.5t17.5 160.5q0 92 -20.5 158.5t-53 110.5t-72.5 64.5t-77 20.5q-29 0 -51.5 -14t-38.5 -33q-35 -45 -48 -112.5t-13 -153.5v-2z M958 471q72 16 145 34.5t122 35.5q18 8 18 30q0 20 -11 49t-31.5 55.5t-46.5 44t-52 17.5h-2q-18 0 -42 -14t-42 -37q-29 -35 -42 -93t-16 -122z" />
<glyph unicode="&#x178;" horiz-adv-x="1361" d="M43 1280.5q0 19.5 2 30.5q2 14 10 14q88 0 153.5 -2t106.5 -2q51 0 90 1t78 5q31 4 49.5 4h30.5q8 0 10 -2t2 -16v-2q0 -18 -3 -37t-9 -23q-20 -4 -37.5 -7t-33.5 -7q-18 -4 -23.5 -13.5t10.5 -37.5q29 -51 65 -108.5t70.5 -110t61 -93t37.5 -57.5q10 -16 18 -27.5 t19 -21.5q4 -4 16 -6t18 8q47 72 81 124t57.5 91t39 64.5t25.5 44.5q14 25 28.5 58.5t14.5 49.5q0 18 -36 25.5t-97 17.5l-10 47q-4 16 2 22.5t10 6.5q8 0 38 -1t66.5 -1h76.5h69q59 2 107.5 4t72.5 2q16 0 21.5 -1t9.5 -7q2 -6 3 -31.5t-7 -34.5q-41 -4 -68.5 -12 t-50.5 -21.5t-43 -36t-47 -55.5q-86 -109 -165 -224.5t-138 -209.5q-23 -37 -32 -58.5t-9 -60.5v-172q0 -53 3 -110.5t7 -110.5q2 -37 9 -56.5t27.5 -29.5t61.5 -17t115 -16q0 -14 -5 -31.5t-11 -31.5q-4 -4 -10.5 -6t-26.5 -2q-16 0 -50 1t-79 5q-45 2 -96.5 3t-106.5 1 q-29 0 -69 -1t-78 -1q-39 -2 -70 -3t-43 -1q-18 0 -21 8q-4 6 -9 25.5t-5 27.5q0 6 4 7t12 4q72 8 105 19t47 30q16 16 22.5 64t6.5 159v235q0 23 -5.5 47.5t-27.5 59.5q-158 254 -242 386t-110 161q-10 10 -31 13t-68 1q-12 0 -14 10t-2 29.5zM331 1574q1 13 9 19 q41 25 61.5 41.5t42.5 65.5q2 4 13.5 8t25.5 4h2q10 0 22.5 -3t16.5 -11q18 -31 33.5 -50.5t56.5 -33.5q8 0 11.5 -11.5t3.5 -24.5t-4 -25.5t-11 -14.5q-20 -10 -33.5 -20.5t-22.5 -22.5t-18.5 -30.5t-19.5 -45.5q-2 -6 -11 -9t-21.5 -3t-22.5 3t-12 9q-23 41 -45.5 63.5 t-57.5 26.5q-6 0 -11 11.5t-7 26t-1 27.5zM793 1565.5q0 27.5 20 40.5q20 12 33.5 20t23 18.5t17.5 23.5t18 34q4 6 18.5 10t24.5 4h2q16 0 28.5 -3t14.5 -9q20 -39 38 -55.5t59 -36.5q8 -4 11 -16.5t3 -26t-4 -24.5t-13 -13q-47 -20 -65 -44t-35 -75q-2 -6 -13 -8t-25.5 1 t-27 10t-14.5 18q-20 41 -37.5 59t-56.5 33q-20 12 -20 39.5z" />
<glyph unicode="&#x2c6;" horiz-adv-x="851" d="M189.5 979q-5.5 6 0.5 12q8 12 36 48t58.5 76t59.5 77t41 53q23 23 39 37t31 14h2q12 0 30.5 -22.5t44 -64.5t58.5 -97t72 -119q8 -10 1.5 -18t-10.5 -10q-23 -16 -36 -22.5t-31 -16.5q-10 -4 -21.5 -2t-21.5 16q-6 8 -19.5 29.5t-31 48t-34 52.5t-26.5 40 q-10 -12 -29.5 -39t-41 -54.5t-39 -51t-23.5 -27.5q-18 0 -44 8t-54 23q-6 4 -11.5 10z" />
<glyph unicode="&#x2dc;" horiz-adv-x="851" d="M156 936q-2 2 2 16q23 61 42 104.5t40.5 71t48 40t65.5 12.5h2q41 0 91.5 -16.5t78.5 -16.5q39 0 113 90l14.5 -14.5l21.5 -21.5t18 -20.5t5 -11.5q-10 -16 -29.5 -40.5t-41 -49t-41 -44t-31.5 -25.5q-27 -18 -52.5 -19.5t-60.5 8.5q-25 8 -61.5 17.5t-54.5 9.5 q-12 0 -23.5 -11t-22 -25.5t-17.5 -28t-9 -17.5q-4 -10 -19.5 -11t-60.5 1q-16 0 -18 2z" />
<glyph unicode="&#x2000;" horiz-adv-x="896" />
<glyph unicode="&#x2001;" horiz-adv-x="1792" />
<glyph unicode="&#x2002;" horiz-adv-x="896" />
<glyph unicode="&#x2003;" horiz-adv-x="1792" />
<glyph unicode="&#x2004;" horiz-adv-x="597" />
<glyph unicode="&#x2005;" horiz-adv-x="448" />
<glyph unicode="&#x2006;" horiz-adv-x="298" />
<glyph unicode="&#x2007;" horiz-adv-x="298" />
<glyph unicode="&#x2008;" horiz-adv-x="224" />
<glyph unicode="&#x2009;" horiz-adv-x="358" />
<glyph unicode="&#x200a;" horiz-adv-x="99" />
<glyph unicode="&#x2010;" horiz-adv-x="669" d="M111 334v2q0 27 13 60.5t36 45.5t80 31t119.5 39t117.5 37.5t74 23.5q25 10 33 7.5t24 -13.5q14 -6 10 -32q-16 -49 -27 -78t-19.5 -44.5t-17.5 -21.5t-24 -12q-8 -4 -60 -13.5t-116.5 -20.5t-126 -21.5t-90.5 -14.5q-20 -4 -23 2t-3 23z" />
<glyph unicode="&#x2011;" horiz-adv-x="669" d="M111 334v2q0 27 13 60.5t36 45.5t80 31t119.5 39t117.5 37.5t74 23.5q25 10 33 7.5t24 -13.5q14 -6 10 -32q-16 -49 -27 -78t-19.5 -44.5t-17.5 -21.5t-24 -12q-8 -4 -60 -13.5t-116.5 -20.5t-126 -21.5t-90.5 -14.5q-20 -4 -23 2t-3 23z" />
<glyph unicode="&#x2012;" horiz-adv-x="669" d="M111 334v2q0 27 13 60.5t36 45.5t80 31t119.5 39t117.5 37.5t74 23.5q25 10 33 7.5t24 -13.5q14 -6 10 -32q-16 -49 -27 -78t-19.5 -44.5t-17.5 -21.5t-24 -12q-8 -4 -60 -13.5t-116.5 -20.5t-126 -21.5t-90.5 -14.5q-20 -4 -23 2t-3 23z" />
<glyph unicode="&#x2013;" horiz-adv-x="1167" d="M82 395l24 115h918q41 0 49 -3t8 -11q0 -6 -2 -26.5t-6 -43.5t-9 -40t-11 -17l-955 4q-23 0 -16 22z" />
<glyph unicode="&#x2014;" horiz-adv-x="2129" d="M82 395l24 115h1881q41 0 49 -3t8 -11q0 -6 -2 -26.5t-6 -43.5t-9.5 -40t-11.5 -17l-1917 4q-23 0 -16 22z" />
<glyph unicode="&#x2018;" horiz-adv-x="393" d="M53 1034q0 59 23.5 115.5t58.5 105t75 86t73 60.5q18 12 36.5 15t59.5 -7q10 -4 2 -12q-25 -25 -47.5 -57.5t-37.5 -67.5t-24.5 -69t-9.5 -64q0 -33 13.5 -58.5t43.5 -50.5q14 -14 9 -35q-4 -31 -25 -37q-35 -10 -58.5 -30.5t-39.5 -46.5q-10 -14 -17.5 -17.5t-17.5 -3.5 h-2q-27 0 -47.5 16.5t-35.5 41t-23.5 55.5t-8.5 61z" />
<glyph unicode="&#x2019;" horiz-adv-x="393" d="M6 864q-2 4 4 8q51 53 85 126t34 132q0 66 -57 109q-10 10 -11.5 18.5t2.5 18.5q2 12 8.5 22.5t20.5 12.5q35 10 56.5 29.5t41.5 48.5q8 14 15.5 17t17.5 3h2q27 0 47.5 -15.5t36 -40t23.5 -55t8 -61.5q0 -59 -23.5 -116.5t-58.5 -106.5t-76 -87t-73 -59q-18 -12 -37 -15 t-60 7q-4 0 -6 4z" />
<glyph unicode="&#x201a;" horiz-adv-x="421" d="M-14 -231l8 12q51 59 98 126.5t47 139.5q0 35 -15 61.5t-48 53.5q-10 10 -11.5 18t3.5 21q4 29 30 35q37 12 58.5 33.5t44.5 49.5q8 14 16 17.5t19 3.5h2q27 0 50 -16.5t38.5 -41t24.5 -55t9 -59.5q0 -61 -28.5 -123.5t-69.5 -117t-86 -95.5t-80 -61q-23 -12 -41 -15.5 t-61 6.5q-8 0 -8 7z" />
<glyph unicode="&#x201c;" horiz-adv-x="770" d="M53 1034q0 59 23.5 115.5t58.5 105t75 86t73 60.5q18 12 36.5 15t59.5 -7q14 -4 2 -12q-25 -25 -47.5 -57.5t-37.5 -67.5t-24.5 -69t-9.5 -64q0 -33 13.5 -58.5t43.5 -50.5q14 -14 9 -35q-4 -31 -25 -37q-35 -10 -58.5 -30.5t-39.5 -46.5q-10 -14 -17.5 -17.5t-17.5 -3.5 h-2q-27 0 -47.5 16.5t-35.5 41t-23.5 55.5t-8.5 61zM428 1032q0 59 24.5 116.5t59.5 106t76 86t74 60.5q18 12 35.5 15t58.5 -7q4 0 6 -4t-4 -8q-25 -27 -46.5 -58.5t-38 -66.5t-25.5 -69t-9 -64q0 -61 59 -109q12 -14 9 -35q-4 -31 -29 -37q-35 -10 -56.5 -30.5 t-39.5 -46.5q-8 -14 -16.5 -17.5t-18.5 -3.5h-2q-27 0 -48.5 15.5t-37 40t-23.5 55t-8 61.5z" />
<glyph unicode="&#x201d;" horiz-adv-x="770" d="M6 864q-2 4 4 8q51 53 85 126t34 132q0 66 -57 109q-10 10 -11.5 18.5t2.5 18.5q2 12 8.5 22.5t20.5 12.5q35 10 56.5 29.5t41.5 48.5q8 14 15.5 17t17.5 3h2q27 0 47.5 -15.5t36 -40t23.5 -55t8 -61.5q0 -59 -23.5 -116.5t-58.5 -106.5t-76 -87t-73 -59q-18 -12 -37 -15 t-60 7q-4 0 -6 4zM389 872q51 53 86 126t35 132q0 35 -15.5 61t-45.5 48q-8 10 -9.5 18.5t2.5 18.5q2 12 7.5 22.5t19.5 12.5q35 10 56.5 29.5t41.5 48.5q8 14 15.5 17t17.5 3h2q27 0 48.5 -15.5t35.5 -41t22.5 -56t8.5 -61.5q0 -59 -23.5 -115.5t-58.5 -105.5t-75 -87 t-73 -59q-18 -12 -36.5 -15t-59.5 7q-14 4 -2 12z" />
<glyph unicode="&#x201e;" horiz-adv-x="808" d="M-14 -231l8 12q51 59 98 126.5t47 139.5q0 35 -15 61.5t-48 53.5q-10 10 -11.5 18t3.5 21q4 29 30 35q37 12 58.5 33.5t44.5 49.5q8 14 16 17.5t19 3.5h2q27 0 50 -16.5t38.5 -41t24.5 -55t9 -59.5q0 -61 -28.5 -123.5t-69.5 -117t-86 -95.5t-80 -61q-23 -12 -41 -15.5 t-61 6.5q-8 0 -8 7zM377 -231l8 12q53 59 99 126.5t46 139.5q0 66 -61 115q-14 14 -8 39q4 29 28 35q37 12 59.5 33.5t43.5 49.5q8 14 17 17.5t20 3.5h2q27 0 49 -16.5t37.5 -41t25 -55t9.5 -59.5q0 -61 -29 -123.5t-70 -117t-87 -95.5t-79 -61q-23 -12 -41 -15.5t-61 6.5 q-8 0 -8 7z" />
<glyph unicode="&#x2022;" horiz-adv-x="835" d="M123 442q0 16 18.5 48t38.5 36q45 6 70.5 12.5t43 20.5t31 39t33.5 66q18 37 47 55t62 18h2q14 0 27.5 -5t17.5 -25q6 -35 13.5 -55.5t11.5 -37.5q6 -23 12 -36t17.5 -24t30.5 -22.5t54 -25.5q33 -10 46.5 -30.5t13.5 -80.5q0 -14 -5.5 -20t-21.5 -10 q-47 -14 -73.5 -24.5t-43 -29t-29 -53.5t-30.5 -96q-14 -43 -70 -43q-47 0 -73.5 41t-59.5 106q-25 49 -59.5 72.5t-69.5 40.5q-55 25 -55 63z" />
<glyph unicode="&#x2026;" horiz-adv-x="2007" d="M150 176q0 12 12 33.5t26 23.5q31 4 47.5 9.5t27.5 14.5t19.5 24.5t22.5 44.5q12 25 31.5 37t40.5 12h2q25 0 31 -21q6 -29 12 -50t15 -36.5t24.5 -27t40.5 -21.5q23 -8 32 -20.5t9 -51.5q0 -16 -19 -22q-33 -8 -50 -15.5t-28.5 -20.5t-20.5 -37.5t-22 -69.5 q-10 -20 -43 -21q-31 0 -48 27.5t-40 70.5q-16 35 -39.5 50.5t-48.5 27.5q-35 16 -34 39zM817 176q0 12 13.5 33.5t25.5 23.5q31 4 47.5 9.5t27.5 14.5t19 24.5t23 44.5q12 25 31.5 37t42.5 12h2q23 0 28 -21q8 -29 14.5 -50t15.5 -36.5t24.5 -27t39.5 -21.5q23 -8 32 -20.5 t9 -51.5q0 -18 -20 -22q-31 -8 -49.5 -15.5t-29.5 -20.5t-19.5 -37.5t-22.5 -69.5q-6 -20 -43 -21q-29 0 -46 27.5t-40 70.5q-16 35 -39.5 50.5t-48.5 27.5q-37 16 -37 39zM1487 176q0 12 12 33.5t27 23.5q31 4 47 9.5t27.5 14.5t19.5 24.5t22 44.5q12 25 32 37t40 12h2 q25 0 31 -21q6 -29 12 -50t15.5 -36.5t25 -27t41.5 -21.5q20 -8 29.5 -20.5t9.5 -51.5q0 -16 -18 -22q-33 -8 -50.5 -15.5t-28.5 -20.5t-20.5 -37.5t-21.5 -69.5q-6 -20 -43 -21q-31 0 -48.5 27.5t-39.5 70.5q-16 35 -40 50.5t-46 27.5q-37 14 -37 39z" />
<glyph unicode="&#x202f;" horiz-adv-x="358" />
<glyph unicode="&#x2039;" horiz-adv-x="602" d="M106 381.5q3 11.5 21 36.5q63 86 123.5 161.5t128.5 159.5q14 16 27 17h2q4 0 15 -8.5t24.5 -20.5t24.5 -25.5t17 -21.5q10 -12 3 -21q-53 -59 -93.5 -102t-69 -74.5t-49 -55.5t-36.5 -44q66 -78 126 -151.5t95 -118.5q2 -4 2 -9.5t-4 -7.5q-6 -4 -19.5 -16t-28 -25.5 t-27.5 -24t-19 -10.5q-78 98 -140.5 178.5t-115.5 157.5q-10 14 -7 25.5z" />
<glyph unicode="&#x203a;" horiz-adv-x="602" d="M113 98q-6 10 2 19q53 59 92 102t67.5 75t49 55.5t36.5 43.5q-66 86 -126 155.5t-95 115.5q-4 14 2 18q4 4 17.5 16.5t28 24.5t27.5 22.5t19 10.5q80 -96 142.5 -176t113.5 -158q10 -14 7.5 -26.5t-21.5 -35.5q-63 -86 -123.5 -161.5t-128.5 -159.5q-12 -18 -24 -19h-2 q-6 0 -17.5 8.5t-25 20.5t-24.5 25.5t-17 23.5z" />
<glyph unicode="&#x205f;" horiz-adv-x="448" />
<glyph unicode="&#x20ac;" d="M-10 518q-2 6 2 16.5t11 20.5t13.5 19.5t8.5 13.5h88v21.5v31.5t1 32.5t3 24.5h-23q-37 0 -43 3.5t-10 13.5q-6 12 0 39.5t16 27.5l74 2q35 166 135.5 293t278.5 185q57 18 97 23t101 5q59 0 91 -8t59 -18q14 -4 25.5 -4t27.5 16q10 6 25 2q27 -12 33 -16.5t4 -6.5 q-12 -25 -19.5 -59.5t-10.5 -71.5t-2 -72.5t3 -62.5q0 -4 -47 -14q-16 -4 -20.5 -3t-8.5 11q-4 18 -9 34.5t-17 47.5q-12 29 -23.5 45t-30.5 39q-16 20 -41.5 36.5t-89.5 16.5q-66 0 -114 -36t-81.5 -94t-54 -132t-28.5 -152l460 9q45 2 55.5 -5.5t4.5 -23.5q-4 -25 -10 -37 t-13 -20q-6 -4 -6 -5t-7 -2.5t-29.5 -1.5h-71.5l-396 -2q-4 -29 -3 -55.5t1 -54.5l392 4q51 0 61 -6t6 -23q-8 -25 -15 -37t-12 -20q-6 -4 -7 -6t-11 -3t-33.5 -1h-74.5l-299 2q6 -66 22 -141.5t51 -140t90.5 -106.5t137.5 -42q41 0 70.5 18t76.5 66q27 29 44 50t36 42 q4 4 5 9t5 3q35 -10 47.5 -22.5t7.5 -22.5q-12 -45 -36.5 -100.5t-40.5 -81.5q-18 -25 -33 -25q-43 -8 -97.5 -19.5t-123.5 -11.5q-152 0 -251.5 44t-159.5 118t-90 169t-44 196h-76q-18 0 -28.5 1t-14.5 3t-7 5z" />
<glyph unicode="&#x2122;" horiz-adv-x="1009" d="M53 1210v2q0 4 5 17.5t11.5 29t12.5 32t10 26.5q2 2 17.5 -2t15.5 -6q0 -12 7 -14.5t20 -4.5q16 -4 44.5 -4h63.5q49 0 71.5 2t37.5 2q20 0 29.5 3t13.5 20q2 4 23.5 2t21.5 -6q-8 -23 -11.5 -45.5t-5.5 -63.5q0 -2 -7 -2t-15 1t-16 3l-7 2q8 33 -6 33q-16 4 -32.5 4 h-30.5q-12 0 -13 -8q-4 -16 -4 -60.5v-82.5q0 -61 9.5 -78t56.5 -19q2 0 0 -19.5t-6 -19.5h-88h-121q-4 0 -6 17.5t0 17.5q20 2 32.5 6t18.5 15.5t7 33t1 62.5q0 47 -1 80t-5 53q-25 0 -54.5 -1t-37.5 -11q-4 -4 -7.5 -10.5t-11.5 -22.5q0 -2 -7 0t-15 5t-14.5 6t-6.5 5z M476 975.5q-1 21.5 1 21.5q27 4 35 9.5t10 21.5q4 29 5 74t1 133q0 10 -6 14t-30 8q2 10 3 19.5t3 19.5h135q0 -4 10 -25.5t25.5 -52t34 -63.5t34.5 -57q14 25 35 57.5t38 62t29.5 51t12.5 25.5q33 0 63.5 1t61.5 1q2 0 1 -20.5t-3 -20.5q-35 -2 -37 -28q-2 -12 -2 -38 t1 -55.5t2 -58t1 -47.5q2 -23 13.5 -27t27.5 -6q2 0 4 -20.5t-2 -20.5h-94h-28.5t-39.5 -2q-4 -2 -6 2t0 27v11t4 3q20 0 24.5 6.5t6.5 16.5q0 6 1 14t1 26.5v48.5v79q0 14 -6 2q-10 -14 -25.5 -42t-32 -59.5t-32 -62.5l-25.5 -51q-10 -18 -20 -19q-8 0 -11 7 q-6 12 -21 43.5t-32.5 67.5t-34 69l-24.5 49q-4 8 -6 7t-2 -3q-2 -55 -3.5 -109.5t7.5 -72.5q2 -6 9 -9.5t32 -7.5q4 0 3 -20.5t-3 -20.5h-146q-2 0 -3 21.5z" />
<glyph unicode="&#x25fc;" horiz-adv-x="808" d="M0 0v809h809v-809h-809z" />
</font>
</defs>
</svg>
