<?xml version="1.0" standalone="no"?>
<!DOCTYPE svg PUBLIC "-//W3C//DTD SVG 1.1//EN" "http://www.w3.org/Graphics/SVG/1.1/DTD/svg11.dtd" >
<svg xmlns="http://www.w3.org/2000/svg" xmlns:xlink="http://www.w3.org/1999/xlink" version="1.1">
<metadata></metadata>
<defs>
<font id="carolyna_pro_blackregular" horiz-adv-x="913" >
<font-face units-per-em="2048" ascent="1536" descent="-512" />
<missing-glyph horiz-adv-x="393" />
<glyph horiz-adv-x="0" />
<glyph horiz-adv-x="682" />
<glyph unicode=" "  horiz-adv-x="393" />
<glyph unicode="&#x09;" horiz-adv-x="393" />
<glyph unicode="&#xa0;" horiz-adv-x="393" />
<glyph unicode="!" horiz-adv-x="960" d="M270 63q3 34 28 55t58 15q34 0 55.5 -24t18.5 -58q-3 -37 -28.5 -58.5t-61.5 -15.5q-31 0 -53.5 26.5t-16.5 59.5zM387 299q22 364 129 676q6 17 26.5 79t28.5 82.5t27.5 72.5t35.5 80.5t40.5 72.5t54 83t64.5 79q72 -166 -66 -566q-30 -87 -41.5 -119t-44 -112 t-62 -133.5t-80 -133.5t-112.5 -161z" />
<glyph unicode="&#x22;" horiz-adv-x="548" d="M0 1399q26 5 62.5 39t46.5 65q-12 -6 -31 -6q-20 0 -34.5 9.5t-14.5 23.5t13.5 23.5t33.5 9.5q51 0 51 -41q3 -36 -42.5 -86t-80.5 -56zM158 1348q26 4 61 38.5t47 65.5q-8 -6 -30 -6q-20 0 -36 10t-16 23q0 12 14.5 22t34.5 10q18 0 35 -9.5t17 -31.5q3 -36 -43 -85.5 t-82 -55.5z" />
<glyph unicode="#" horiz-adv-x="1370" d="M133 446q-4 58 53 115q93 80 297 109q1 15 4.5 30t9.5 33t10 29.5t13 33t12 29.5l25 -10q-2 -23 -4 -70t-4 -71q79 14 134.5 32.5t125.5 55.5q4 147 47 199q17 23 57 24t70 -21.5t23 -58.5q-9 -53 -41.5 -91t-90.5 -71q-2 -49 7 -190q8 -53 8 -164v-57q148 26 231 98 q55 55 51 98q-2 23 -18.5 43.5t-34.5 16.5q-44 -7 -69 -51l-23 16q35 53 90 61q52 6 92 -20q26 -26 29 -64q4 -57 -53 -114q-89 -78 -297 -109q-3 -23 -4.5 -77t-5.5 -78l-25 8q-7 17 -12.5 36.5t-7.5 32t-5.5 38t-5.5 34.5q-77 -12 -133 -30.5t-127 -55.5q-4 -149 -47 -199 q-17 -23 -56.5 -24t-69.5 21t-23 57q9 53 41.5 91.5t89.5 71.5q0 95 -9 189q-8 73 -8 166q0 39 2 55q-155 -27 -231 -98q-18 -16 -36 -44t-15 -55q3 -26 20 -40q27 -27 72 -17q20 3 39 17t30 32l23 -14q-36 -54 -90 -62q-28 -5 -71 1.5t-60 19.5q-26 23 -29 63zM389 68 q-6 -36 20 -48t44 9q39 53 43 172q-96 -60 -107 -133zM545 594q0 -58 8 -168q8 -122 8 -180q127 62 262 84v53q0 95 -8 168q-1 21 -3 57t-3 66t0 57q-124 -64 -262 -86q-2 -16 -2 -51zM874 776q94 59 105 133q7 36 -18 47.5t-43 -10.5q-40 -52 -44 -170z" />
<glyph unicode="$" horiz-adv-x="612" d="M143 528q-27 77 4 148q24 56 78 82l11 -27q-45 -18 -64 -65q-25 -65 -4 -125q17 -42 50.5 -66t70.5 -22q16 0 31.5 24t25 62.5t12 80.5t-10.5 84.5t-40 69.5q-8 8 -27.5 22.5t-27.5 22.5q-56 52 -76 103q-14 35 -7 80t32 79q19 26 66.5 41.5t84.5 12.5l13 112l24 -4 l-10 -113q33 -11 55.5 -42.5t28.5 -67.5q7 -49 -10.5 -92t-61.5 -62l-10 25q34 14 48 49t7 74q-6 40 -28 70.5t-58 25.5q-35 -5 -56 -62.5t-17 -121.5t32 -86q18 -14 58 -49q73 -50 96 -107q26 -56 15 -114t-56 -103q-51 -51 -131 -45l-10 -111h-27l10 115q-83 18 -121 102z " />
<glyph unicode="%" horiz-adv-x="880" d="M133 497q-6 65 22.5 125.5t84 106t116.5 45.5q21 0 39 -24q10 -16 60 -35t94 -19q32 0 51.5 2t41.5 11.5t34 27.5l33 -39q0 -1 -12 -22.5t-37 -60t-58 -80.5q-55 -70 -190.5 -257t-210.5 -276l-21 14q41 88 107 189.5t114.5 166t139.5 179.5q29 36 60 69t50.5 52t24.5 26 q-30 -28 -127 -28q-74 0 -143 37v-31q-6 -73 -46 -162q-30 -68 -62.5 -96.5t-74.5 -28.5q-23 0 -33 8q-51 35 -57 100zM196 479q-10 -65 27 -65q64 0 113 112q45 102 45 179q0 13 -6 26.5t-19 13.5q-34 0 -87 -87q-61 -98 -73 -179zM463 76q-10 75 49 170q58 95 136 125 q27 10 52 10q21 0 29 -8q21 -21 21 -58q0 -97 -45 -192q-58 -127 -140 -127q-91 0 -102 80zM545 77q-6 -54 20 -54q63 0 117 114q43 93 43 178q0 12 -5.5 26.5t-17.5 14.5q-43 0 -96 -98.5t-61 -180.5z" />
<glyph unicode="&#x26;" horiz-adv-x="937" d="M133 393q-3 86 54 158.5t139 105.5q-121 86 -90 184q21 70 109 115q98 51 197 29q20 -4 38 -12l6 -2q6 10 28 20.5t35 12.5l10 -23q-28 -4 -53 -25q39 -29 39 -84q-1 -28 -11.5 -46t-26 -22t-31 0.5t-27 20t-12.5 37.5q-3 46 30 88q-60 22 -98.5 5.5t-59 -58t-27 -88 t-3 -85t13.5 -48.5q25 8 55 11.5t60 1.5t45 -19t6 -47q-11 -33 -49.5 -38.5t-82 11t-77.5 43.5q-11 -3 -22 -48t-13.5 -109t3 -127.5t30.5 -109.5t66 -50q90 -8 176 54t86 148q0 31 -14.5 59.5t-40.5 41.5q-60 -28 -86.5 -55t-26.5 -68h-29q0 68 72 114q24 16 91 47.5 t99 57.5q61 52 29 92l25 14q30 -55 -16.5 -105t-119.5 -79q48 -66 42.5 -128t-45 -110t-102.5 -78t-130 -32q-73 0 -137.5 25t-108.5 77.5t-45 122.5zM416 657q9 -8 23.5 -22.5t24.5 -20.5t25 -6q40 0 46 25q2 18 -11.5 26t-37 7t-39.5 -3t-31 -6zM561 872q0 -29 14.5 -40 t28.5 1t14 37q0 49 -30 68q-27 -48 -27 -66z" />
<glyph unicode="'" horiz-adv-x="0" d="M-66 1255q26 4 62 39t47 66q-12 -6 -31 -6q-20 0 -34.5 9.5t-14.5 22.5q0 14 13.5 23.5t33.5 9.5q51 0 51 -41q3 -36 -42 -85.5t-80 -55.5z" />
<glyph unicode="(" horiz-adv-x="854" d="M131 487q0 223 75.5 417t196.5 305.5t254 111.5v-27q-53 0 -97 -21.5t-76.5 -60t-57 -96t-40.5 -124.5t-26 -150.5t-14 -169t-4 -185.5q0 -116 6 -213.5t19 -190.5t37 -163.5t58 -124.5t83.5 -82t111.5 -28v-29q-79 0 -157 42t-144 119.5t-117 179t-79.5 229t-28.5 261.5 z" />
<glyph unicode=")" horiz-adv-x="657" d="M0 -315q62 0 111.5 28t83.5 82t58 124.5t37 163.5t19 190.5t6 213.5q0 100 -4 185.5t-14 169t-26 150.5t-40.5 124.5t-57 96t-76.5 60t-97 21.5v27q133 0 254 -111.5t196.5 -305.5t75.5 -417q0 -134 -28.5 -261.5t-79.5 -229t-117 -179t-144 -119.5t-157 -42v29z" />
<glyph unicode="*" horiz-adv-x="886" d="M131 856v25l283 4l-201 194l16 19l201 -197l-4 283h25l4 -279l194 199l19 -19l-197 -200l281 4l4 -23l-285 -4l203 -196l-17 -19l-202 199l4 -285h-23l-6 283l-197 -201l-16 16l195 203z" />
<glyph unicode="+" horiz-adv-x="774" d="M131 520v27h244v244h24v-244h244v-27h-244v-241h-24v241h-244z" />
<glyph unicode="," horiz-adv-x="456" d="M0 -70q26 6 62.5 41t46.5 66q-11 -8 -31 -8t-34.5 10t-14.5 22q0 14 13.5 23.5t33.5 9.5q51 0 51 -41q3 -35 -43 -84t-80 -55z" />
<glyph unicode="-" horiz-adv-x="970" d="M197 492v24h512v-24h-512z" />
<glyph unicode="." horiz-adv-x="409" d="M0 45q0 18 11.5 29.5t29.5 11.5q16 0 28.5 -11.5t12.5 -29.5q0 -17 -12.5 -29t-28.5 -12q-17 0 -29 12t-12 29z" />
<glyph unicode="/" horiz-adv-x="634" d="M129 29l279 1249l30 -14l-276 -1252z" />
<glyph unicode="0" horiz-adv-x="847" d="M72 429.5q16 128.5 63 244.5q53 131 158 215.5t211 97.5h14q100 0 168 -74q57 -56 81 -156.5t14.5 -208t-45.5 -213t-91 -175.5t-141 -122t-172 -52q-41 0 -89 10t-71 29q-67 51 -91.5 163.5t-8.5 241zM300 419q-14 -235 47 -332q74 -116 229 35q24 23 49 52 q70 90 105.5 230.5t20 277.5t-84.5 209q-37 38 -71 54t-81 16q-72 0 -134 -153q-66 -166 -80 -389z" />
<glyph unicode="1" horiz-adv-x="561" d="M66 731q45 8 105.5 70t98 117t37.5 59l187 6q1 -19 -6 -100.5t-21.5 -238.5t-24.5 -271q-19 -255 -26 -391h-223q0 78 38 389q59 494 82 575q-12 -25 -43.5 -70t-87.5 -99t-104 -66z" />
<glyph unicode="2" d="M66 4q17 48 74.5 135.5t101.5 132.5q105 105 212 252q215 293 149 398q-33 51 -136 51q-83 0 -152 -41q-50 -30 -82.5 -79t-37.5 -97q-6 -91 38 -111q46 -23 91 9.5t64 87.5t1 94l19 10q14 -30 9.5 -67t-23 -68.5t-46 -56.5t-60.5 -31.5t-67 6.5q-56 34 -69 80t11.5 90.5 t60 81.5t77.5 65q53 32 140.5 43t172.5 0t150 -54.5t72 -111.5q19 -175 -353 -534q-49 -48 -137.5 -116.5t-109.5 -94.5q19 29 75.5 61.5t120.5 52.5t124 24t87 -23q12 -11 33.5 -33t32.5 -31.5t27.5 -17.5t31.5 -5q39 0 80 48l-47 -113q-37 -44 -90 -59q-33 -11 -86 12.5 t-78 48.5q-94 80 -181.5 68.5t-134.5 -109.5z" />
<glyph unicode="3" horiz-adv-x="772" d="M70 250l26 2q-11 -97 43 -154t137 -73q58 -5 64 -5q72 0 102 125q28 118 5 255q-21 121 -65 138q-19 7 -40 -10l-59 -49l-15 23q57 45 96 81t90.5 90.5t86.5 88.5q-85 4 -144 47h2q-13 8 -40.5 26t-43.5 27.5t-40.5 15.5t-47.5 1q-64 -21 -131 -115l51 84q67 105 152 131 q20 4 39 4q100 0 180 -55q12 -8 42 -30.5t47.5 -30.5t35.5 -3q25 9 64 58l-50 -86q-34 -49 -67 -66q-20 -16 -33.5 -29.5t-24.5 -26t-42.5 -46t-73.5 -76.5q28 8 47 8q54 0 112 -39q63 -43 96.5 -129.5t18.5 -173.5q-15 -80 -72.5 -143t-132 -94t-151.5 -31q-10 0 -21.5 1 t-25 2.5t-21.5 2.5q-42 8 -78.5 26.5t-66.5 49t-44 76.5t-7 102z" />
<glyph unicode="4" horiz-adv-x="1024" d="M67 563q15 30 64 43q19 5 47.5 3.5t38.5 -7.5q27 63 43.5 134t14 141.5t-34.5 101.5l166 4q47 -58 48.5 -181.5t-42.5 -215.5q37 -8 107.5 -41.5t105.5 -42.5q52 209 61 305h164q-23 -195 -41 -311h14q70 0 127 39l13 -15q-60 -39 -140 -39h-16q-24 -163 -90 -491 l-225 -2q1 4 21 78.5t52.5 197.5t57.5 223q-42 10 -117.5 42t-102.5 40q-73 -128 -185 -132q-74 -3 -125 45q-43 42 -26 81zM84.5 556q-15.5 -30 15.5 -48q47 -13 109 78q-43 14 -74 8q-35 -8 -50.5 -38z" />
<glyph unicode="5" horiz-adv-x="792" d="M66.5 231.5q-1.5 54.5 25.5 85.5l17 -18q-37 -72 4 -151t106 -107q92 -42 158 60q57 90 63 227q6 140 -49 203q-40 47 -104 30q-79 -21 -131 -63h-23q5 39 10.5 158.5t10.5 154.5q19 67 56 100t79.5 35t95.5 -6.5t100.5 -22t97.5 -13t83 21.5q31 20 43 61l18 -153 q-24 -59 -64.5 -86.5t-86 -27.5t-96 11t-98.5 23.5t-89 15t-72 -20.5t-43 -77q-4 -18 -6.5 -40.5t-4.5 -51.5t-3 -41q52 35 121 45q61 6 123 -13q89 -30 149 -90t80.5 -131t-5.5 -150t-100 -143q-58 -49 -151 -63q-87 -11 -169.5 29t-123.5 116q-20 38 -21.5 92.5z" />
<glyph unicode="6" horiz-adv-x="845" d="M70 389q14 166 104 339t191 220q55 25 97 36t90.5 12t98.5 -20.5t103 -64.5l-19 -14q-65 59 -129 59q-40 0 -84 -26q-89 -54 -158 -214.5t-83 -326.5q-3 -50 -2 -65q29 71 90.5 130.5t130.5 82.5q31 10 69 10q48 0 94 -21t76 -61q46 -65 39 -154q-9 -79 -49 -151 q-46 -81 -120 -130t-154.5 -56.5t-157 12.5t-136 75.5t-83.5 133.5q-20 66 -8 194zM281 246q1 -9 4 -23t4 -20q46 -189 186 -189q63 0 105 108q42 111 34 240q-7 128 -62 151q-20 9 -44 1q-79 -26 -147 -107t-80 -161z" />
<glyph unicode="7" horiz-adv-x="710" d="M66 844q58 112 127 129q12 6 40 6q45 0 109.5 -28.5t124 -53t100.5 -16.5q37 8 56 47l22 -2q0 -16 1 -82.5t0.5 -97t-6.5 -92t-17.5 -101.5t-35 -90.5t-57.5 -91.5q-15 -16 -40.5 -43.5t-39.5 -43t-34.5 -40.5t-31.5 -43t-23.5 -43.5t-16.5 -48.5t-4 -52.5t6 -60.5h-166 q-2 10 -2 20t1 20t1 13q0 108 41.5 199t122.5 188q27 33 72.5 81.5t73 80t58.5 74.5t48 90t22 100q-23 -95 -56.5 -139t-71 -43.5t-80 20t-86.5 44t-85.5 37.5t-83 -8t-73.5 -85z" />
<glyph unicode="8" horiz-adv-x="747" d="M68 209q4 58 31 112.5t54 86.5t78.5 85.5t73.5 79.5q-3 6 -13.5 22.5t-17 27.5t-17 30t-17 34t-13 36t-9.5 39t-3 40t4 42q17 76 80 122.5t135.5 54t139.5 -19t92 -83.5q14 -32 14.5 -60.5t-6.5 -49t-29 -45.5t-40.5 -41t-54.5 -45.5t-58 -49.5q67 -59 117 -131.5 t63 -130.5q38 -153 -73.5 -262t-324.5 -109q-52 0 -97.5 21.5t-72.5 60.5q-42 57 -36 133zM94 207q-3 -65 33 -115q62 -80 178 -67q97 12 149.5 68t51 130.5t-50.5 145.5q-8 10 -59 74.5t-77 105.5l-20 -21q-22 -26 -69.5 -76.5t-68.5 -76t-42 -71.5t-25 -97zM385 846 q-28 -69 90 -199q98 80 122 104q72 75 45 146q-1 4 -3 8q-21 46 -74.5 53t-106.5 -25t-73 -87z" />
<glyph unicode="9" horiz-adv-x="847" d="M68 659q9 80 49 152q46 81 120 130t154.5 56.5t157 -12.5t136 -75.5t83.5 -133.5q20 -66 8 -194q-14 -166 -104 -339t-191 -220q-74 -33 -128 -44.5t-122.5 6t-138.5 74.5l19 15q66 -60 129 -60q38 0 84 27q89 54 158 214.5t83 326.5q3 50 2 65q-29 -71 -90.5 -130.5 t-130.5 -82.5q-31 -10 -70 -10q-48 0 -94 21t-76 61q-45 64 -38 153zM231 610q8 -127 62 -152q20 -9 45 -1q79 26 147 107t80 161q-1 9 -4 23t-4 20q-46 188 -186 188q-63 0 -104 -106q-43 -110 -36 -240z" />
<glyph unicode=":" horiz-adv-x="788" d="M266 207q-6 18 1 33t20 18q13 6 24.5 -4.5t14.5 -28.5q4 -19 -1.5 -32.5t-19.5 -18.5q-29 -6 -39 33zM266 469q-6 18 1 33t20 18q13 6 24.5 -4.5t14.5 -28.5q4 -19 -1.5 -32.5t-19.5 -18.5q-29 -6 -39 33z" />
<glyph unicode=";" horiz-adv-x="638" d="M66 -141l2 -11q2 -19 40 12q65 53 116 151q79 154 46 302l-37 6q-2 -65 -28.5 -173t-66 -197t-72.5 -90zM246 471q-1 18 7.5 31.5t22.5 15.5q13 1 22 -10t11 -29q2 -19 -6.5 -33.5t-23.5 -15.5q-14 0 -23 11t-10 30z" />
<glyph unicode="&#x3c;" horiz-adv-x="585" d="M131 432v31q57 31 173 107.5t151 97.5v-27q-15 -11 -72 -54.5t-110 -81t-89 -59.5q23 -10 271 -161v-27q-1 0 -75.5 41t-153 83.5t-95.5 49.5z" />
<glyph unicode="=" horiz-adv-x="774" d="M131 387v25h512v-25h-512zM131 682v25h512v-25h-512z" />
<glyph unicode="&#x3e;" horiz-adv-x="585" d="M131 258v27q37 22 98 61.5t104.5 67t55.5 32.5q-46 28 -141 104t-117 91v27q35 -21 151 -97.5t173 -107.5v-31q-23 -9 -172.5 -91t-151.5 -83z" />
<glyph unicode="?" horiz-adv-x="1220" d="M207 1071q-3 107 41 191.5t115 131.5t161.5 65.5t177 4t164 -65t121.5 -130.5q13 -27 20.5 -55.5t6 -73.5t-19 -91t-62.5 -105.5t-115 -119.5q-62 -53 -129.5 -103.5t-99 -74.5t-71 -66.5t-72.5 -103.5t-76 -162q-7 99 3.5 174.5t41 137t71 109t105.5 102.5 q102 87 165 229q71 160 37 265q-42 129 -232 106l-42 -6q-28 -5 -58.5 -16.5t-70.5 -39t-72.5 -65.5t-57.5 -100.5t-32 -139.5zM274 45q0 36 24 59t58 23q32 0 57 -23.5t25 -58.5q0 -33 -25.5 -57.5t-56.5 -24.5q-34 0 -58 24t-24 58z" />
<glyph unicode="@" horiz-adv-x="1865" d="M209 160q-13 138 16 273t91.5 250t155.5 215t205 171.5t242.5 115t264.5 50.5q97 4 186 -31t153 -101.5t102 -151.5t36 -190.5t-49 -209.5q-41 -94 -94.5 -169t-103 -117t-96.5 -68t-79.5 -33t-48.5 0q-78 35 -57 252q-81 -183 -170 -248q-50 -41 -91 -41 q-164 0 -207 130q-39 115 27 280q63 157 179 257q142 122 285 83q39 -11 77 -35q26 -17 42.5 -48t23.5 -74.5t8.5 -75.5t1.5 -81v-28h-27v28q0 216 -63 256q-19 14 -57 12t-75 -20q-21 -10 -55 -58t-69 -114.5t-66.5 -144t-50.5 -145.5t-18 -120.5t28 -68.5q35 -17 86 24 q74 58 132 173t85 235q0 8 3.5 24.5t4.5 22.5l25 -8q-14 -230 -10 -331.5t28 -111.5q11 -5 36 0.5t66 29.5t85 64t96.5 115t97.5 172q36 78 43 159.5t-12 153t-60 135t-97.5 107.5t-129.5 67t-151 17q-216 -13 -389.5 -170.5t-272.5 -392.5q-102 -245 -90 -481 q9 -131 70 -219.5t151 -124.5t200.5 -39.5t219.5 27t208.5 83.5t166.5 121l20 -22q-45 -46 -113.5 -87t-150 -71.5t-172.5 -52t-184 -26.5t-181.5 2.5t-167.5 37.5t-140.5 76.5t-101 121t-48.5 169.5z" />
<glyph unicode="A" horiz-adv-x="2607" d="M4 -389q13 86 113.5 163.5t195.5 98.5q103 21 219 23h14q109 0 226 -27q125 -29 209 -84l-14 -25q-85 54 -207 82q-114 27 -219 27h-15q-112 -2 -209 -23q-93 -23 -181.5 -94t-106.5 -149q-2 -14 -2 -27q0 -75 75 -135q100 -74 245 -75q26 0 54 3q100 10 193 57t166 114 t143.5 164t121.5 189.5t103 209t86 204t73 192.5q24 67 36 97l76 192q-78 49 -139.5 78.5t-131.5 49.5q-56 16 -112 17q-14 0 -27 -1q-69 -5 -139 -35q3 -16 3 -30q0 -54 -44 -74q-23 -12 -49.5 -10.5t-36.5 20.5q-6 10 -6 20q0 34 67 72l35 18q-7 22 -24.5 34t-40 14.5 t-43 1t-39.5 -6.5q-94 -22 -173.5 -82.5t-76.5 -121.5h-29q-3 70 85.5 139.5t189.5 91.5q34 7 62 7q30 0 55 -8q47 -16 61 -58q72 30 142 35q14 1 28 1q56 0 114 -16q72 -20 134.5 -50.5t144.5 -80.5q124 304 378 496.5t609 267.5l27 6q8 -15 8 -60q1 -111 -47 -407 q-66 -416 -141 -747q60 -25 108 -30q11 -1 23 -1q36 0 68 12q44 16 82.5 49t82.5 88v-43q-87 -98 -177 -122q-33 -9 -67 -9q-61 0 -127 27q-12 -61 -33.5 -138t-36.5 -130q-16 -52 -28 -106q-9 -41 -9 -74q-1 -10 1 -20q4 -40 24 -65q30 -40 87 -40l-5 -27q-70 11 -120.5 51 t-75.5 100.5t-38 127.5q-12 60 -12 128v16q2 77 8 136.5t17 118.5q-197 94 -430 248l-55 -146q-43 -113 -66.5 -171.5t-66 -159t-77.5 -164.5t-83 -142.5t-102 -141.5t-115 -116q-105 -95 -278.5 -180t-338.5 -104q-31 -3 -59 -3q-162 0 -262 82q-58 48 -72 95q-8 30 -9 60 q0 18 3 36zM748 815q2 -6 17.5 -5.5t33.5 9.5q28 14 28 48q0 8 -2 18l-26 -13q-53 -33 -53 -51q0 -3 2 -6zM1595 692q172 -110 258.5 -160.5t167.5 -85.5q60 249 130 472.5t117.5 348.5t111.5 277q-127 -30 -233 -90.5t-183 -134.5t-147 -181.5t-118.5 -208t-103.5 -237.5z " />
<glyph unicode="B" horiz-adv-x="1619" d="M-217 -221l8 24q35 -11 70 -11q37 0 71 12q68 24 125.5 93t105 148.5t92 194t74 200.5t64.5 195q4 14 6 20q14 42 55.5 178t65 204.5t70.5 167.5t100 167q62 82 166 128q105 46 209 50q17 1 34 0q85 0 163 -19q93 -23 139 -69q55 -53 71 -120q8 -34 8 -66t-8 -64 q-16 -62 -42 -110.5t-56 -83.5q-17 -19 -47.5 -40t-54.5 -34.5t-64.5 -34.5t-54.5 -28q83 -39 139 -108t78 -150q17 -60 17 -125q0 -24 -2 -48q-8 -92 -45.5 -175.5t-110.5 -159.5t-172 -125q-84 -40 -171 -40q-10 0 -20 1q-96 5 -166 55q-63 45 -88 120q-12 38 -12 80.5 t12 90.5q25 91 88.5 163t143.5 95l10 -25q-74 -23 -132.5 -89t-82.5 -150q-12 -47 -12 -87q0 -98 69 -163q57 -50 120 -51q57 0 120 42q111 73 193 241q84 173 84 336v22q-6 155 -93 237q-40 -21 -96 -37q-56 -15 -110 -21q-13 -1 -25 -2q-39 0 -67 14q-36 18 -36 59 q0 51 42 69q26 11 58 11q19 -1 41 -5q58 -10 108 -26t83 -33q39 17 82 92t69 165q27 92 31 180v18q0 75 -34 114q-59 61 -133 61q-27 0 -57 -8q-110 -30 -195 -149q-64 -96 -108 -225.5t-81 -287.5t-61 -228q-34 -106 -99.5 -231.5t-155.5 -247t-188 -215.5 q-98 -93 -206 -139q-66 -28 -126 -28q-38 0 -73 11zM811 885q-1 -29 29 -41q20 -8 48 -8q14 0 28 2q46 6 90.5 17t83.5 26q-36 16 -79 29q-43 12 -89 20q-19 3 -37 4q-23 0 -41 -6q-32 -10 -33 -43z" />
<glyph unicode="C" horiz-adv-x="1318" d="M8 463q-7 53 -7 108q0 120 33 250q48 190 154 359q50 80 121.5 151t159 126t191.5 77q54 12 107 12q49 0 97 -10q130 -25 213 -108.5t84 -200.5q45 26 156 73l18 -18q-135 -62 -174 -86q-3 -50 -20 -96q-17 -52 -49 -88q-21 -24 -43 -25q-10 0 -21 6q-27 12 -26.5 41.5 t16 56t37.5 50.5q31 37 80 67q1 112 -78 195t-205 108q-25 5 -50 5l-268 -153q-147 -169 -237 -447q-77 -237 -78 -442q0 -49 5 -97q24 -264 183 -353q54 -31 123 -38q22 -1 42 -1q89 1 167 21q96 26 191 91t184.5 156t204.5 234v-43q-112 -137 -199 -223.5t-182 -150.5 q-96 -64 -195 -90q-83 -21 -179 -22q-19 0 -38 1q-102 4 -195 50t-159 117.5t-109 159t-55 177.5zM1027 1034.5q1 -12.5 13 -18.5q18 -8 40.5 24.5t37.5 69.5q12 34 15 66q-41 -28 -64 -58q-11 -13 -20 -26.5t-16 -29t-6 -28z" />
<glyph unicode="D" horiz-adv-x="1820" d="M0 -201l8 21q60 4 115 43.5t98.5 100t87.5 154t77.5 185.5t72.5 215h-21q-62 0 -116 14q-62 18 -106 50t-77 77t-52 95t-28 106q-8 48 -8 94q1 8 1 15q2 53 11 102q22 103 87 192t165 150q163 106 375 129q67 12 132 12h26q77 108 186.5 166t194.5 62l6 -23 q-35 -7 -99.5 -77t-99.5 -130q189 -18 333 -134q145 -116 213 -298q52 -137 52 -289q0 -49 -6 -100q-11 -106 -49 -210.5t-99.5 -197.5t-150.5 -168.5t-194 -117.5q-79 -33 -163 -45q-39 -6 -82 -6q-50 0 -104 8q-102 14 -196 63l20 19q106 -54 203 -54q20 0 40 2 q114 14 208.5 83t165.5 175t115.5 223t58.5 228q19 142 19 255v5q0 110 -22 208q-22 100 -66.5 168t-122 110.5t-185.5 50.5q-52 -96 -105 -250t-120.5 -381.5t-108.5 -349.5q116 19 236 78l2 -23q-137 -61 -244 -76q-63 -187 -176 -350.5t-248.5 -265.5t-259.5 -113z M116 845q14 -95 60.5 -162t121 -103t169.5 -37q19 63 64 213t71 231t66 196t80 199t83 148q-82 0 -143 -10q-209 -33 -366 -153.5t-195 -307.5q-16 -75 -16 -141q0 -38 5 -73z" />
<glyph unicode="E" horiz-adv-x="1134" d="M2 311q1 110 51 225.5t137.5 207t190.5 130.5q-90 45 -162 134q-40 60 -40 140q0 18 2 36q11 104 69 196q53 84 133.5 133.5t165.5 56.5q21 2 41 2q64 0 124 -17q80 -22 142 -81.5t86 -142.5q86 47 160 74l18 -19q-13 -6 -43.5 -19.5t-47 -21t-40.5 -20.5t-43 -25 q3 -15 3 -31q0 -31 -11 -67q-17 -50 -54 -85q-25 -24 -49 -24q-11 0 -22 5q-27 13 -26.5 42.5t16 56t37.5 50.5q31 33 78 66q-17 66 -60 121q-80 102 -177 102q-28 0 -57 -9q-102 -30 -180 -150q-86 -133 -86 -284q0 -115 56 -202q44 21 90 34t94 15q6 0 11 1q41 0 67 -17 q32 -19 36 -57v-8q0 -32 -34 -44q-20 -6 -48 -6.5t-66 6.5q-74 13 -152 47q-72 -45 -125 -203t-58 -329v-19q-1 -103 39 -175q44 -78 114 -106q50 -20 110 -21q24 -1 49 3q88 12 172 64q98 58 199.5 158t222.5 253v-43q-231 -283 -404 -391q-155 -93 -318 -93q-75 0 -151 20 q-134 35 -198 123q-62 85 -62 201v7zM446 877q68 -27 132 -37q33 -5 56 -5q22 0 36 5q20 8 15.5 29.5t-23.5 31.5q-23 13 -58 13q-61 0 -158 -37zM811 1148.5q-5 -20.5 14 -26.5q20 -8 48 22.5t40 65.5q10 42 10 62q0 7 -1 12q-44 -30 -66 -59q-16 -17 -28 -36.5t-17 -40z " />
<glyph unicode="F" horiz-adv-x="1499" d="M1 1112q0 52 11 102q23 87 59 150t83.5 99t99.5 54t115 23q29 2 60 2q71 0 151 -10q118 -14 258.5 -38t210.5 -32l73 -8q34 33 161 83.5t187 68.5q19 7 36 7q37 0 61 -32q20 -26 20 -55q0 -16 -6 -32q-18 -52 -82 -64q-46 -8 -113 -8q-41 0 -90 3q-75 -49 -147 -190 q-15 -32 -28.5 -66t-29 -81t-24.5 -74.5t-27 -91t-23.5 -81.5t-26 -95.5t-23.5 -86.5q59 -42 126 -52q19 -3 37 -3l97 19q17 62 37 96q26 49 63 79q19 15 36 15q16 0 30 -14q21 -19 14 -46.5t-26.5 -53t-47.5 -46.5q-43 -30 -84 -51q-16 -71 -20 -192l-27 12q2 52 19 170 q-49 -18 -98 -18q-83 0 -165 53q-42 -149 -68.5 -235.5t-68.5 -189.5t-84 -163q-37 -56 -74 -94t-91 -69q-52 -32 -126 -46q-57 -11 -128 -11q-20 0 -42 1q150 8 277 250q36 61 77.5 183.5t65.5 215t66 260.5q-31 31 -57 78l20 18q13 -25 45 -61q3 11 19 73t19.5 76.5 t17.5 63.5t22 69.5t21.5 58t27.5 66.5t31 58q84 145 168 201l-74 8q-67 8 -200 32q-134 24 -246 38q-78 9 -145 10q-30 0 -58 -2q-125 -10 -211 -81t-125 -231q-11 -37 -11 -76q0 -37 10 -77q20 -81 78 -138q56 -55 129 -55h5v-27q-56 1 -103 25.5t-76.5 64t-48.5 89.5 t-19 102zM1257 635q37 18 60 37q28 21 51.5 55.5t7.5 48.5q-17 18 -41.5 -3.5t-44.5 -55.5q-8 -14 -33 -82zM1321 1452q48 -3 85 -3q57 0 91 7q51 12 59 51q7 33 -20 51q-12 9 -26 9q-16 0 -35 -11q-86 -42 -154 -104z" />
<glyph unicode="G" horiz-adv-x="1462" d="M2 554q-1 8 -1 17q0 101 17 203q19 111 62 217t104 193q57 82 129 152t157.5 124.5t183.5 75.5q52 12 102 12q46 0 92 -10q170 -35 252 -159q51 -78 51 -167q0 -53 -18 -110q-20 -54 -53 -90q-24 -24 -47 -24q-10 0 -21 5l14 25q18 -9 43 25.5t35 66.5q14 50 14 96 q0 89 -52 164q-81 116 -230 146q-16 3 -33 3q-74 0 -152 -63q-95 -76 -223 -274q-67 -104 -121 -226.5t-90 -249.5t-41 -248q-2 -22 -2 -44q0 -95 20 -176q25 -98 97 -165t186 -83q16 -1 32 -1q222 0 427 232l6 19l117 395l149 -8q-15 -248 -57 -400q-67 -246 -178 -487 t-246 -391q130 -44 245 -110.5t253 -168.5l-21 -16q-126 98 -242 163.5t-255 110.5q-70 -69 -144 -110.5t-143.5 -54t-117.5 -13.5h-6q-45 0 -97 8q-68 8 -117 68q-29 33 -29 66q0 26 17 51q26 39 130 59q100 18 200 18h10q106 -1 159 -14q42 43 79 93.5t70.5 118t55.5 115 t51.5 134.5t41.5 124t41 132l12 39q-197 -203 -405 -203q-28 0 -56 4q-112 15 -200 68.5t-141.5 133.5t-84 179.5t-31.5 209.5zM88 -676q-7 -12 -7 -26q0 -27 29 -60q43 -49 103 -49q63 0 165.5 65.5t168.5 131.5q-60 8 -153 8q-3 1 -5 1q-91 0 -185 -19q-97 -20 -116 -52z " />
<glyph unicode="H" horiz-adv-x="2025" d="M1 1112q0 52 11 102q23 87 59 150t83.5 99t99.5 54t115 23q29 2 60 2q71 0 151 -10q118 -14 258.5 -38t210.5 -32q27 -4 73 -8q13 12 42.5 27t63 27.5t76.5 26.5t72.5 23t60.5 17.5t33 9.5q22 8 40 8q34 0 57 -27q20 -22 20 -48q0 -14 -6 -29q-18 -47 -82 -59 q-46 -8 -113 -8q-41 0 -90 3q-75 -49 -147 -190q-65 -138 -154 -467q131 -22 247 -21q135 0 249 29q28 92 73 202t105.5 228t136 207.5t146.5 114.5q34 14 82 16q4 0 8 1q43 0 87 -15q48 -16 75 -47q26 -39 29 -85v-12q0 -41 -17 -84q-20 -50 -38.5 -84t-47.5 -79 q-76 -118 -184 -214t-230 -149q-21 -69 -39.5 -139.5t-46.5 -189t-41 -221t-17 -204.5v-24q0 -86 22 -146q25 -70 77 -92q-80 15 -135.5 66.5t-82 120.5t-36.5 162q-7 69 -7 133v44q4 84 17.5 179.5t26 155t27.5 118.5q0 5 2 9q-114 -26 -248 -26q-115 0 -246 19 q-34 -125 -46 -169.5t-43.5 -149t-51.5 -157.5t-50.5 -118.5t-60.5 -107.5q-149 -226 -325 -240l8 21q43 53 80.5 124.5t63.5 136.5t56 166.5t46.5 168.5t46.5 192t47 191q-153 34 -221 86l8 28q76 -58 219 -90q59 222 162 406q84 145 168 201l-74 8q-67 8 -200 32 q-134 24 -246 38q-78 9 -145 10q-30 0 -58 -2q-125 -10 -211 -81t-125 -231q-11 -37 -11 -76q0 -37 10 -77q20 -81 78 -138q56 -55 129 -55h5v-27q-56 1 -103 25.5t-76.5 64t-48.5 89.5t-19 102zM1321 1452q48 -3 85 -3q57 0 91 7q51 12 59 51q7 33 -20 51q-12 9 -26 9 q-16 0 -35 -11q-86 -42 -154 -104zM1726 809q240 120 383 348q29 45 44 71.5t35 72.5q19 44 18 82q0 42 -23 79q-29 44 -64 44q-12 0 -24 -5q-189 -79 -369 -692z" />
<glyph unicode="I" horiz-adv-x="1273" d="M4 186q8 48 41 97l25 -15q-45 -66 -45 -119q0 -43 30 -79q51 -65 145 -84q33 -7 64 -7q58 0 109 23q84 34 150 94t106.5 124.5t76 158t54 165.5t45.5 176.5t45 164.5q72 238 209 508q-128 -39 -367 -82q-27 -5 -83 -14q-77 -12 -117.5 -19.5t-112 -26t-111.5 -38.5 t-90 -55t-74 -78q-24 -44 -38 -106q-9 -40 -9 -86q0 -25 2 -52q5 -56 34 -111.5t73.5 -94t99.5 -54.5q23 -7 47 -6q33 0 66 12l10 -27q-38 -12 -74 -12q-29 -1 -56 7q-62 18 -110 60.5t-79 102.5t-37 123q-2 27 -2 53q1 49 9 92q14 65 42 111t72.5 81.5t94.5 58.5t111.5 40 t120 28.5t122.5 22.5q56 9 83 14q272 50 385 88q26 47 82 95.5t114.5 78t111.5 39.5q13 2 24 2q34 0 49 -22q16 -21 17 -43t-12.5 -41.5t-34 -38t-50.5 -35t-59 -30t-62 -25.5q-36 -69 -62 -154t-52 -195.5t-47 -176.5q-10 -33 -30 -101q-21 -71 -32.5 -108t-33.5 -105 t-38.5 -106.5t-43 -98t-51 -96.5t-59.5 -84.5t-71 -79.5t-82.5 -64t-97.5 -54q-66 -29 -169 -34q-16 -1 -32 -1q-87 0 -172 23q-101 27 -145 83q-18 23 -27 53q-5 17 -5 39q0 19 3 41zM1268 1440q87 38 141 80q36 28 36 52q0 12 -9 23q-12 16 -27 16q-42 0 -113 -122 q-7 -11 -17 -30q-8 -14 -11 -19z" />
<glyph unicode="J" horiz-adv-x="1462" d="M2 -303q0 97 27.5 195.5t73 180.5t107.5 145.5t128 97.5q62 32 130 32h10q72 -3 136 -49q46 -31 46 -81q0 -27 -13 -58q-25 -63 -90 -112q-58 -45 -109 -45q-6 0 -12 1l2 25h8q43 0 96 41q59 44 81 100q9 24 9 44q0 39 -34 65q-59 43 -126 43q-1 1 -2 1q-66 0 -127 -35 q-62 -34 -120 -97t-100.5 -141t-68 -170.5t-25.5 -180.5v-6q0 -129 85 -229q86 -103 208 -109q9 -1 17 -1q103 0 198 79q52 42 98 106.5t80 134.5t65 158.5t51.5 165.5t41 169t31.5 156t24.5 139.5t19.5 106.5q80 389 195 697q-77 -56 -193 -125.5t-214 -134t-175 -134.5 q35 -77 35 -147q0 -41 -12 -80q-16 -47 -44.5 -75t-57 -30t-52 24t-29.5 77q-1 10 -1 19q0 50 30 104q36 65 98 115q-33 56 -84 125l19 16q34 -37 84 -123q110 95 320 223t290 189q5 14 73 96t158 165q89 81 134 81h2q17 0 24 -17q3 -11 3 -22q0 -27 -15 -59 q-20 -46 -58 -90.5t-72.5 -77.5t-66.5 -58q-42 -106 -68.5 -235.5t-48.5 -289.5t-38 -239q-5 -24 -15 -77q-26 -133 -42 -209t-55.5 -219t-78.5 -231t-105.5 -199t-142 -171.5t-183.5 -99.5q-86 -31 -183 -31q-25 0 -51 2q-134 10 -231 120q-95 108 -95 243v6zM428 643 q5 -42 22 -60.5t37 -13t40.5 28t31.5 57.5q11 36 11 73q0 62 -31 128q-112 -109 -112 -194q0 -10 1 -19zM1352 1372q74 66 123 127q22 30 35 60t13.5 44t-1.5 21q-64 -2 -170 -252z" />
<glyph unicode="K" horiz-adv-x="2052" d="M4 836q-3 29 -3 56q0 217 170 319q102 61 319 100q24 4 71 12q52 9 78 14q272 50 387 88q25 47 80.5 95.5t114 78t111.5 39.5q13 2 24 2q34 0 49 -22q16 -21 17 -43t-12.5 -41.5t-34 -38t-50.5 -35t-59 -30t-62 -25.5q-40 -63 -71.5 -138t-47.5 -125.5t-41 -142.5 t-38 -135q-22 -69 -62 -210.5t-66 -224.5t-77.5 -194t-116.5 -196q-71 -91 -216.5 -161.5t-250.5 -78.5l8 21q79 4 144.5 68t134.5 182q71 113 116 246.5t86.5 303t73.5 265.5q94 286 232 508q-130 -39 -369 -82q-25 -5 -79 -13q-75 -13 -115 -20.5t-109.5 -25.5t-108 -38 t-87 -55t-72.5 -78q-22 -43 -36 -105q-9 -41 -10 -89q0 -25 3 -51q6 -56 35.5 -111t73.5 -94t99 -55q23 -7 47 -6q33 0 66 12l8 -27q-38 -12 -74 -12q-30 -1 -56 7q-62 18 -109.5 60.5t-78 102.5t-36.5 123zM1051 848l8 26q58 4 109.5 21t94.5 48t76.5 63t68 81t57 86 t53.5 93q62 111 232.5 215t301.5 110h2q19 41 65.5 72.5t86.5 36.5l4 -21q-34 -3 -68.5 -27.5t-60.5 -60.5q85 -3 98 -41q6 -23 -7.5 -44t-33.5 -29q-15 -6 -28 -6q-23 0 -39 20q-25 32 -25 62q0 8 2 16q-52 -3 -97 -29t-84 -74t-66 -90t-64 -107q-2 -4 -3 -5.5t-2.5 -4.5 t-3 -5.5t-2.5 -4.5q-114 -197 -256 -288t-368 -113q69 -59 144 -208t95 -275q5 -35 9.5 -89t7 -89t12 -75t25 -62t47.5 -34q22 -8 48 -8q14 0 28 2q89 12 227 142q1 1 28.5 28t52 51.5t62 64t80 89t84.5 102.5v-43q-141 -172 -293 -317q-77 -66 -130 -100.5t-109 -42.5 q-25 -2 -48 -2q-66 0 -120 17q-73 23 -117 68t-75 110.5t-44 135.5t-22 149.5t-11 147.5t-8.5 134t-17.5 104h-6zM1221 1440q87 38 141 80q36 28 36 52q0 12 -9 23t-18.5 14.5t-20 -0.5t-21 -11t-22 -21t-20.5 -26.5t-20 -30.5t-17.5 -29.5t-16 -28t-12.5 -22.5zM2073 1569 q-3 -8 -3 -17q0 -22 19 -47q13 -18 37 -8q12 5 21.5 20t6.5 25q-7 27 -81 27z" />
<glyph unicode="L" horiz-adv-x="1845" d="M0 141q0 54 31.5 100.5t81.5 78t96 51t90 30.5q50 11 104 11q134 0 289 -68q60 137 147.5 416.5t139.5 406.5q-42 -5 -85 -5q-54 0 -108 8q-100 14 -181 48.5t-136 88t-61 122.5q-1 7 -1 14q0 63 48 136l16 -25q-31 -47 -37 -93l-2 -20q0 -33 15 -63q19 -38 56.5 -71.5 t91.5 -56.5t117.5 -39.5t134.5 -18.5q19 -1 38 -1q53 0 106 5q81 186 227 278q125 79 270 78q24 0 48 -2q47 0 68 -71q10 -29 10 -56q0 -52 -36 -100q-55 -73 -179 -121q-92 -31 -182 -37q-45 -112 -94 -274.5t-98 -309.5t-107 -264q62 -19 129.5 -66.5t123.5 -98 t114.5 -96.5t124.5 -70q45 -16 89 -16q20 0 41 3q70 14 127 97l21 -19q-64 -95 -144 -104q-20 -2 -40 -2q-56 0 -108 18q-70 25 -128.5 71t-112.5 95.5t-120 96.5t-130 67q-53 -100 -123 -172t-140 -109q-70 -38 -146 -56q-68 -17 -129 -16h-13q-67 2 -128 14t-104 29.5 t-69 36.5q-53 53 -53 121zM29 141q0 -64 43 -102q62 -56 165 -56q16 0 33 1q259 27 412 333q-149 70 -268 70q-39 0 -109 -12q-41 -8 -84.5 -26t-88.5 -46t-74 -70.5t-29 -91.5zM1229 1192q96 14 164 37q109 41 160 107q35 45 35 92q0 21 -7 42q-10 28 -19 40t-26 16 q-4 1 -9 1q-36 0 -89 -44q-60 -49 -131 -150q-15 -23 -27.5 -46t-27 -51t-23.5 -44z" />
<glyph unicode="M" horiz-adv-x="2332" d="M4 186q8 48 41 97l25 -15q-45 -66 -45 -119q0 -43 30 -79q50 -65 151 -84q36 -7 68 -7q60 0 111 23q72 29 129.5 75.5t98 106.5t70.5 123t53 142t39.5 145t37 150.5t37.5 140.5q7 24 55.5 194.5t83.5 273t70 171.5q-128 -39 -367 -82q-27 -5 -83 -14 q-77 -12 -117.5 -19.5t-112 -26t-111.5 -38.5t-90 -55t-74 -78t-38 -105q-9 -40 -9 -87q0 -25 2 -52q5 -56 34 -111.5t73.5 -94t99.5 -54.5q23 -7 47 -6q33 0 66 12l10 -27q-38 -12 -74 -12q-29 0 -56 8q-62 18 -110 60t-79 102t-37 123q-2 27 -2 53q1 49 9 92q14 65 42 111 t72.5 81.5t94.5 58.5t111.5 40t120 28.5t122.5 22.5q56 9 83 14q272 50 385 88l184 -20v-7q0 -35 20 -185q23 -168 48.5 -366.5t37.5 -411.5q4 -69 4 -128q0 -122 -17 -198q57 157 161.5 355.5t200 354t196 324.5t144.5 262l174 -10q-23 -184 -95 -523.5t-83 -396.5 q-8 -41 -25 -129.5t-25 -133t-20 -117.5q-10 -74 -12 -118q-1 -33 -2 -71v-25q0 -52 11.5 -89.5t31.5 -65.5q49 -68 121 -74l-4 -25h-17q-64 0 -115 14q-58 16 -98.5 39t-66.5 68.5t-41 86t-18 108.5q-2 46 -2 84v36q2 51 14 135.5t21.5 138.5t27.5 146q24 132 102.5 423.5 t98.5 387.5q-27 -58 -122 -215.5t-194.5 -318.5t-204.5 -359t-155 -337l-25 -15q10 75 10 190q-1 186 -27 472q-44 464 -83 643q-39 -101 -75 -255.5t-61 -291t-69.5 -292t-98.5 -277.5t-149.5 -227t-222.5 -160q-59 -26 -165 -28q-9 0 -19 -1q-97 0 -191 24 q-104 26 -143 76q-18 23 -27 53q-5 17 -5 39q0 19 3 41z" />
<glyph unicode="N" horiz-adv-x="1650" d="M0 -201l8 21q46 13 90.5 56.5t83.5 113t71.5 141.5t65 169t53.5 165.5t47.5 160.5t37.5 128q32 103 54.5 171t61 166t75 170.5t88 152t108.5 142.5q-5 -27 -5 -76q0 -108 23 -321q26 -253 72 -526q8 -66 61 -305.5t72 -266.5q5 48 17.5 128t40.5 215.5t63.5 271.5 t90.5 286.5t117.5 271.5t149 214.5t180.5 126.5q70 25 138 29q11 1 21 1q57 -1 115 -21q68 -24 114 -81q19 -23 28 -53q5 -16 5 -37q0 -19 -4 -41q-8 -48 -42 -98l-24 14q39 56 43 108q1 7 0 14q0 44 -27 77q-59 74 -128 74q-85 0 -185 -111q-86 -95 -165 -238.5 t-142 -305.5t-117.5 -318.5t-116.5 -326.5t-115 -281h-47q-18 11 -46 100t-54.5 210.5t-43.5 205t-26 133.5q-47 283 -73 530q-20 197 -20 291q0 20 1 35q-32 -348 -137 -750q-63 -250 -199.5 -493t-310.5 -375q-82 -62 -168 -68z" />
<glyph unicode="O" horiz-adv-x="1351" d="M8 437q-5 50 -6 101q0 86 14 177q22 146 68.5 269t105.5 222q120 202 312 295q133 64 283 64q68 0 141 -13q0 -1 -0.5 -2t-2 -4.5t-3 -6.5t-2.5 -6t-2 -4l-1 -1q-25 4 -50 4q-59 0 -122 -21q-70 -28 -136.5 -91.5t-115 -136.5t-93.5 -164.5t-72 -163t-50 -144.5 q-61 -212 -78 -305q-19 -103 -19 -186q0 -226 143 -295q57 -27 122 -27q93 0 203 55q135 73 221 164q118 122 193 268q121 243 121 504v25q-3 75 -10 128t-27.5 107t-54.5 85q-34 30 -92 46q-35 9 -77 10q-28 0 -59 -4q-20 -3 -45 -14t-58 -35t-67.5 -70t-60.5 -108l-10 25 q17 54 51 99.5t71.5 71.5t66.5 40t48 18q37 6 70 6q41 0 75 -9q62 -16 99.5 -51.5t61.5 -93.5t33 -117.5t11 -133.5q1 -18 0 -36q0 -265 -123 -503q-82 -163 -198 -276q-104 -107 -230 -170q-95 -49 -187 -55q-14 -1 -28 0q-75 0 -137 30q-135 65 -209 183t-88 250z" />
<glyph unicode="P" horiz-adv-x="1118" d="M-96 -201l8 21q60 34 105.5 117t76 194.5t56 243t53.5 274t60.5 274.5t84 258t117.5 212q85 109 204 169q78 39 167 40q46 0 96 -11q111 -22 203 -108q71 -69 101 -159q24 -70 24 -138q0 -20 -2 -38q-8 -86 -43 -170t-89 -148t-121 -105.5t-133 -46.5q-20 -1 -39 -1 q-87 1 -171 29q-104 36 -127 105l26 2q18 -37 58 -64.5t96 -37.5q14 -3 28 -2q99 0 187 130q92 135 127 332q15 83 15 150q0 92 -28 154q-32 70 -96 77q-10 1 -20 1q-66 1 -136 -39q-80 -46 -135 -123q-68 -122 -113.5 -263t-71.5 -271t-51 -259.5t-69.5 -270t-109.5 -261.5 q-151 -252 -338 -267z" />
<glyph unicode="Q" horiz-adv-x="1320" d="M6 430q-6 52 -6 105q0 71 10 146q18 130 65 268t120 263q122 209 305 295q132 62 285 62q60 0 124 -10l-10 -25q-27 4 -54 4q-58 0 -118 -20q-70 -28 -136.5 -91.5t-115 -136.5t-93.5 -165t-72 -163.5t-50 -144.5q-60 -210 -77 -300q-20 -107 -20 -192q0 -225 142 -294 q49 -24 109 -25h8q56 0 106 14q52 15 103 41q126 61 221 162q115 119 192 269q68 142 97 262q12 45 19 126q4 55 4 101q0 20 -1 39q-1 40 -3.5 72t-7.5 68t-13.5 62.5t-21 55t-29.5 46.5t-40 36t-52.5 24.5t-67.5 11.5q-14 2 -29 2q-25 0 -53 -5q-20 -3 -45 -14.5t-59 -35.5 t-68.5 -71t-59.5 -109l-10 27q17 55 51.5 101t71.5 71.5t66.5 39.5t48.5 17q36 5 67 5q43 0 78 -9q62 -16 99.5 -51t61.5 -92.5t33 -117t11 -134.5v-26q0 -51 -6 -116q-7 -82 -19 -128q-34 -143 -98 -269q-81 -162 -199 -276q-106 -111 -229 -170q-43 -23 -70 -29h2 q76 -26 142 -69.5t108.5 -86t82.5 -85.5t72.5 -71t69.5 -40q15 -5 31 -5q24 0 52 11q46 18 104 68l16 -21q-68 -54 -133 -82.5t-118 -30.5q-9 -1 -17 -1q-45 0 -87 11q-51 14 -91.5 42t-78 63t-66.5 74t-54 76t-42.5 67t-31.5 48.5t-22 19.5t-16 1q-61 0 -137 -41 q-86 -46 -154 -120l-25 25q85 82 180 127q-104 13 -180.5 74.5t-117.5 155t-54 214.5z" />
<glyph unicode="R" horiz-adv-x="1650" d="M0 -201l6 21q149 8 279 250q49 114 85 262.5t60 282.5t54.5 271t85.5 270t135 237q61 82 159 127.5t194 49.5q14 1 29 0q81 0 155 -19q86 -23 132 -68q81 -70 125.5 -157t50.5 -171q1 -15 0 -29q0 -69 -21 -137q-26 -82 -78 -145.5t-130 -106.5t-170 -53 q71 -54 116.5 -131t62.5 -157q16 -78 22 -166q3 -53 3 -104q1 -32 -1 -62q-4 -78 -4 -148.5t11 -120.5t40 -78q24 -23 70 -23h19q60 6 152 48l9 -25q-109 -34 -193 -34q-93 0 -160 45q-70 51 -108 144.5t-46 203.5q-8 104 -9 206q1 6 1 12v30q0 92 -3 185q-3 108 -21 169h-2 q-23 -3 -48.5 -3t-54.5 3q-57 6 -105 18q-48 10 -72 40q-14 17 -15 38q0 15 8 33q25 54 71 61q9 1 19 1q37 0 75 -23q48 -29 88 -65.5t61 -69.5q25 5 75 95t93 213t57 251q3 27 2 52q0 93 -39 155q-19 32 -70 48q-40 12 -87 12q-12 -1 -26 -1q-62 -4 -130.5 -41.5 t-114.5 -103.5q-68 -122 -114 -263t-71.5 -271t-51 -259.5t-70.5 -270t-111 -261.5l-14 -27q-61 -94 -208 -162.5t-257 -77.5zM850 797q-5 -10 -5 -20q0 -35 66 -55q65 -19 144 -19q23 0 47 2q-23 42 -73 84t-101 54q-9 2 -17 2q-39 0 -61 -48z" />
<glyph unicode="S" horiz-adv-x="1181" d="M3 309q-2 24 -2 46q0 115 59 206q52 80 135 111l14 -33q-69 -24 -113.5 -81.5t-57.5 -127.5q-6 -32 -6 -66q0 -40 8 -82q16 -77 56.5 -139.5t113.5 -103.5t165 -41q44 0 90.5 53.5t83.5 135t62 180.5t31 188q2 22 2 43q0 64 -15 117q-20 71 -68 94q-9 5 -57.5 25.5 t-79.5 36t-77.5 49.5t-72.5 69q-28 35 -44 91q-12 39 -11 83q0 18 2 37q9 81 46 149t93 111t126 70q69 27 142 26h3q75 0 151 -20q77 -24 130.5 -80.5t68.5 -124.5l6 2q76 44 154 72l18 -19q-12 -5 -43 -19t-47.5 -21.5t-40 -20.5t-41.5 -25q2 -12 2 -26q0 -32 -10 -72 q-21 -52 -57 -86q-25 -24 -48 -23q-11 0 -22 5q-27 13 -26.5 42.5t16.5 56t39 50.5q23 29 73 66q-10 68 -59.5 120.5t-122.5 77.5q-44 14 -83 14q-101 0 -165 -96q-71 -105 -71 -275q0 -163 61 -261q33 -52 76 -66q96 -47 160 -124t86 -164q16 -61 15 -124q-1 -27 -3 -53 q-10 -90 -51 -169q-43 -82 -114 -138.5t-163 -74.5q-68 -13 -129 -13q-162 0 -268 95q-105 95 -120 247zM851 1148.5q-5 -20.5 13 -26.5q20 -8 48 22.5t40 65.5q10 41 10 62q0 7 -1 12q-40 -25 -66 -59q-16 -17 -27.5 -36.5t-16.5 -40z" />
<glyph unicode="T" horiz-adv-x="1136" d="M1 1112q0 52 11 102q23 87 59 150t83.5 99t99.5 54t115 23q29 2 60 1q71 -1 151 -9q118 -14 258.5 -38t210.5 -32q107 -13 191 -13h22q92 2 156 12.5t104.5 27.5t59.5 32.5t20 28.5l28 -4q-2 -15 -18 -32t-53 -34.5t-89 -31.5q-53 -12 -136 -20q-59 -5 -127 -6 q-27 0 -56 1q-58 -97 -112 -247t-96 -305.5t-84 -309.5t-94.5 -295.5t-109.5 -226.5q-65 -100 -176 -166t-211 -74l8 21q88 58 152.5 157.5t103 218.5t70 253t65.5 273t76 266.5t114 245.5t169 198q-67 6 -261 46q-161 33 -269 32q-22 0 -41 -1q-70 -7 -131.5 -73 t-95 -157.5t-48.5 -183.5q-7 -42 -7 -79q0 -44 10 -81q18 -68 65 -77v-27q-56 1 -103 25.5t-76.5 64t-48.5 89.5t-19 102z" />
<glyph unicode="U" horiz-adv-x="1413" d="M0 1535q0 46 45 95q14 17 49 37q-21 35 -57 41l12 16q14 0 36 -17t32 -32q16 8 51 8q52 0 98 -18q283 -119 283 -436q0 -55 -9 -117q-28 -203 -170 -542q-15 -35 -45 -103q-99 -233 -118 -313q-8 -35 -8 -61q0 -57 39 -70q49 -13 91 -14q27 0 50 6q61 14 135 61 q122 85 242 254q87 126 190 368l80 170q15 34 103.5 244.5t138.5 308.5l170 -10q-28 -84 -85.5 -257t-80 -237.5t-74.5 -211.5t-121 -336q-57 -155 -83 -283q-25 -121 -25 -203q1 -5 1 -9q2 -84 21.5 -146t52.5 -94t74 -48q39 -15 74 -14h5q38 1 73 12l12 -18 q-20 -8 -54 -12q-14 -1 -30 -1q-22 0 -47 3q-43 5 -88.5 18.5t-89 42.5t-80.5 70.5t-61 106t-32 144.5q-2 25 -2 53q0 63 12 139q16 112 58 241q16 47 38 119t28 90q-69 -143 -158 -269q-124 -176 -246 -256q-104 -73 -207 -73q-48 0 -96 16q-153 57 -153 306v28 q3 78 26.5 171.5t44.5 150t72 180.5q3 9 5 14l5 12.5t6 13.5q6 15 25.5 61.5t32 77t32 84t31 91.5t23 91t13.5 92q1 13 1 27q0 27 -3 57q-4 45 -19 77t-43 61t-68 47q-42 17 -90 17q-20 0 -41 -6q11 -22 11 -45q0 -33 -23 -70q-38 -50 -72 -50q-6 0 -11 1q-32 7 -32 48z M28 1528q5 -22 27 -11q20 9 39 42q15 25 15 52q0 15 -5 31q-24 -9 -38 -26q-39 -46 -39 -77q0 -6 1 -11z" />
<glyph unicode="V" horiz-adv-x="1576" d="M4 999q-5 37 -5 71q0 52 12 94q20 72 66.5 116t111 74.5t143 47.5t160 28.5t165 22.5t155 25.5t133 41.5t95.5 67l4 6l25 -4q29 -118 30 -321q0 -24 -1 -50q-4 -240 -24 -450q-18 -212 -36 -426q-13 -160 -14 -246q0 -30 2 -51q48 180 110 334.5t147 303t165 266 t205 286.5q134 177 303 379l20 -21q-188 -224 -370.5 -487.5t-319.5 -509.5q-184 -322 -252 -629l-26 4q-25 79 -45 150.5t-46.5 190t-41.5 225.5t-21 243q-2 43 -1 83q0 91 8 173q12 120 48 250.5t97 241.5q-52 -36 -129.5 -60.5t-156.5 -34t-167.5 -21.5t-167 -23 t-149.5 -39t-119.5 -68.5t-72.5 -112.5q-17 -51 -18 -115q0 -26 3 -55q5 -56 34 -111t73 -94t99 -55q23 -7 47 -6q33 0 66 12l8 -26q-37 -12 -73 -12q-27 -1 -55 7q-62 18 -110 60t-78.5 102t-35.5 123z" />
<glyph unicode="W" horiz-adv-x="2351" d="M6 1004q-5 36 -5 70q1 52 13 96q20 72 67 116t112 74.5t144 47t161.5 28t166 22.5t155 25.5t132.5 42t95 67.5l24 -4q-7 -124 -8.5 -303.5t-7.5 -281.5q-3 -67 -11 -191t-13 -214.5t-9 -198.5q-3 -81 -4 -151v-46q2 -90 10 -158q44 223 116 417t178.5 369t224 324.5 t282.5 327.5l18 -21q45 -252 45 -520q0 -56 -1 -113q-12 -328 -91 -784q91 343 205 582q27 55 60.5 113.5t60 101t71.5 106.5t66.5 93.5t75 101t69.5 92.5q60 79 150.5 178t122.5 137l18 -20q-356 -427 -637 -934q-186 -331 -252 -629l-26 4q-140 328 -140 672v37 q8 363 166 737q-151 -195 -257 -347t-209.5 -331.5t-178.5 -369.5t-127 -402l-26 4q-16 68 -45.5 168.5t-54 179.5t-48.5 185q-25 108 -37 198q-10 75 -10 164q1 20 1 38q2 112 24 213.5t72.5 217t129.5 226.5q-43 -40 -108 -67.5t-136 -41t-151 -23.5t-156.5 -20 t-150 -24.5t-132.5 -42t-102.5 -69.5t-63.5 -110q-14 -47 -14 -105q0 -26 3 -54q5 -55 34.5 -110t73.5 -93.5t99 -55.5q24 -7 48 -7q32 0 64 12l10 -25q-40 -14 -78 -14q-27 0 -52 7q-62 17 -110 59.5t-79 103t-37 123.5z" />
<glyph unicode="X" horiz-adv-x="1497" d="M0 102l23 15q59 -82 117 -125q47 -35 106 -35q14 0 28 2q98 15 162 68q44 35 91 96t116 168q107 166 199 403q-4 22 -14 74.5t-15 79.5t-19.5 103.5t-22.5 116.5t-20.5 97.5t-23.5 98.5q-3 12 -13.5 57.5t-18.5 71t-22 61.5t-33 57t-42 29q-12 4 -24 4q-31 0 -64 -24 q-46 -33 -82 -80q31 -88 31 -138q0 -18 -4 -32q-10 -32 -27.5 -50.5t-35 -21t-33.5 8t-23 32.5q-5 16 -5 36q0 27 10 60q18 57 54 107l-18 28l20 17l15 -23q32 47 87 78.5t119 37.5q16 1 32 1q48 0 94 -13q62 -17 111.5 -73t70.5 -143q26 -103 88 -418l20 -117 q71 178 132 290.5t167 238.5q36 43 85.5 76.5t82.5 48.5t96 40l11 -22q-4 -2 -27 -11.5t-28.5 -12t-26 -11.5t-27.5 -13t-25 -14t-27 -16t-24 -17t-25 -20.5t-22.5 -22t-23.5 -26.5q-102 -123 -162.5 -235t-132.5 -287l-13 -33q22 -119 54 -256q20 -89 51 -236 q53 -249 87 -325q27 -60 83 -60q16 0 33 5l8 -25q-21 -5 -43 -5q-41 0 -83 18q-65 26 -127.5 90.5t-118.5 181.5t-91 270q-24 108 -45 219q-92 -225 -184 -366q-47 -75 -66 -104t-59 -79.5t-76 -81.5q-99 -86 -227 -86q-41 1 -75.5 14t-64.5 40t-51 52.5t-49 65.5zM360 1249 q11 -34 35 -22q23 11 35 51q4 19 4 38q0 48 -26 97q-52 -82 -51 -137q-1 -14 3 -27z" />
<glyph unicode="Y" horiz-adv-x="1355" d="M2 1059v8q0 64 64 166q67 108 167 199q-26 75 -98 170l17 14q72 -91 104 -168q29 24 52.5 41.5t60 39t67.5 31.5q25 7 53 7h12q35 -2 62 -21q63 -43 77 -117q4 -20 4 -41q0 -61 -29 -140q-39 -108 -66.5 -165.5t-87.5 -166.5q-5 -9 -7.5 -14t-6.5 -12t-7 -13 q-14 -25 -49.5 -88.5t-49.5 -90t-41 -80.5t-38.5 -88.5t-26.5 -83.5t-20.5 -96t-5.5 -98q0 -158 100 -211q46 -23 97 -23q83 0 180 60q44 29 82.5 64t71.5 77.5t58.5 81t53.5 92.5t47 92.5t47.5 99.5t46.5 97l92 197q1 3 33.5 83.5t63.5 157.5t35 82l24 -10 q-117 -316 -178 -586q-52 -233 -52 -461q0 -38 1 -75q128 138 344 417v-43q-28 -35 -82.5 -104t-87 -108.5t-81 -96.5t-93.5 -106q14 -59 16 -145q1 -14 1 -28q0 -74 -11 -156q-12 -100 -36 -202t-67.5 -194.5t-99.5 -162.5t-135 -107q-65 -31 -137 -31q-17 0 -35 2 q-52 6 -84.5 38t-43.5 77q-10 40 -10 88v9q1 53 11 99.5t25 83.5q40 97 96 182q42 62 98 131q34 43 111 129q24 26 58.5 62t43.5 45q5 64 5 141.5t-5 167.5q-9 -15 -54 -64q-78 -85 -163 -141q-76 -50 -156 -60q-18 -2 -36 -2q-57 0 -105 25q-105 57 -167.5 128.5 t-83.5 143.5q-14 47 -14 101q0 27 4 57q11 86 40.5 161.5t82.5 166t101.5 160.5t110.5 154q49 67 72.5 100.5t59.5 87.5t48.5 84.5t23 67t1.5 60t-33 40.5q-20 14 -44.5 16t-53 -9t-51 -21.5t-53 -32.5t-42.5 -31.5t-35 -28.5q11 -51 11 -112t-10.5 -120.5t-38.5 -111.5 t-68 -78q-29 -21 -61 -21q-20 0 -40 8q-54 20 -57 73zM29 1059q1 -27 22.5 -40.5t48 -12t43.5 13.5q72 53 93 166q13 65 13 126q0 45 -7 89q-93 -87 -155 -184q-58 -91 -58 -150v-8zM397 -816q1 -57 28 -100t79 -51q13 -2 26 -2q39 0 74 19q47 24 78 66t56 100t39 109.5 t22 103.5q14 89 16 173q1 34 1 68q0 52 -2 103.5t-2 90.5q0 26 1 46q-15 -17 -39.5 -42.5t-40.5 -43.5q-41 -41 -110 -125q-61 -75 -101 -133q-65 -107 -92 -174q-16 -42 -25 -96q-8 -49 -8 -100v-12z" />
<glyph unicode="Z" horiz-adv-x="1681" d="M4 119q7 44 46 82.5t108 50.5q29 8 68 8q62 0 149 -20q43 72 200.5 345.5t274 457t225.5 317.5q-63 16 -142.5 42t-139 47t-128 41t-121.5 30q-48 9 -97 9h-10q-54 -1 -97 -18q-112 -44 -112 -106q0 -10 3 -19q11 -44 69 -73q43 -22 95 -22q18 0 37 3l4 -26 q-16 -2 -39 -2q-75 0 -127 33.5t-65 80.5q-3 13 -3 25q0 39 26 78q34 52 102 80q40 16 86 18h15q39 0 81 -8q50 -10 103.5 -26.5t113.5 -39.5t116 -45t123 -45t124 -37q49 58 136 110q88 50 186 70q28 6 54 6q64 0 115 -34q23 -15 33 -43t2 -59q-5 -42 -44 -81t-108 -53 q-25 -7 -60 -7q-60 0 -149 20q-115 -159 -236 -360.5t-245 -421t-198 -337.5q63 -17 140 -42t133 -44.5t121 -38.5q64 -19 114 -27q40 -7 83 -7h19q52 2 96 18q66 27 92 51q18 18 18 43q0 10 -3 21q-9 44 -67 73q-43 22 -96 22q-18 0 -38 -3l-2 25q14 2 39 2q75 0 127 -33.5 t63 -81.5q3 -13 3 -27q0 -37 -24 -74q-34 -50 -104 -79q-44 -18 -98.5 -18t-107 14t-118 38t-124.5 49t-135.5 52.5t-141.5 44.5q-53 -88 -133 -136q-80 -50 -157 -56q-29 -2 -55 -2q-45 0 -85 7q-63 11 -98 35q-23 15 -32 43t-3 60zM29 113q-1 -7 -1 -15q0 -34 31 -59 q24 -18 51.5 -20.5t55 9.5t54 31.5t52.5 47.5t47.5 55t42.5 57q-77 15 -134 15q-38 0 -66 -7q-60 -12 -93 -44.5t-40 -69.5zM1274 1331q74 -16 127 -16q33 0 59 6q59 12 92.5 45t42.5 72q1 9 1 17q0 36 -25 56q-19 14 -44 14q-89 0 -246 -185q-5 -6 -7 -9z" />
<glyph unicode="[" horiz-adv-x="735" d="M82 -602v2441h407v-27h-237v-2385h237v-29h-407z" />
<glyph unicode="\" horiz-adv-x="765" d="M131 1061l27 12l280 -1251l-28 -15z" />
<glyph unicode="]" horiz-adv-x="606" d="M127 -573h238v2385h-238v27h408v-2441h-408v29z" />
<glyph unicode="^" horiz-adv-x="561" d="M131 606q21 22 70.5 109.5t68.5 126.5h33q46 -52 70 -95t37.5 -86t19.5 -55h-27q-106 106 -118 209q-6 -17 -45.5 -87t-71.5 -122h-37z" />
<glyph unicode="_" horiz-adv-x="1011" d="M66 0v25h618v-25h-618z" />
<glyph unicode="`" horiz-adv-x="366" d="M94 1126l25 2q12 -12 79 -108.5t66 -104.5q-2 0 -54 -1t-58 -1q-2 4 -26.5 102.5t-31.5 110.5z" />
<glyph unicode="a" d="M-109 219q23 179 110.5 300t197.5 169q87 40 187 42h12q93 0 157 -38q26 -16 42 -46t22.5 -73t8 -74t1.5 -79v-31h-27v31q0 206 -63 250q-29 19 -70 19h-11q-48 -3 -102 -25q-177 -75 -247 -451q-12 -67 -13 -110q0 -61 25 -76q10 -6 22 -6q26 0 64 28q71 55 127.5 168 t81.5 229l10 48l78 -7q18 0 21 -35q1 -10 1 -23q0 -28 -5 -66q-7 -54 -17 -109q-8 -56 -16 -106q-5 -35 -6 -54q0 -8 1 -12q7 -29 37 -2q72 53 183.5 167t209.5 240v-43q-97 -121 -202 -227.5t-176 -159.5q-28 -21 -52 -26.5t-39 1.5t-23.5 17t-12.5 21q-19 52 -19 142 q0 31 2 67q-75 -180 -166 -250q-35 -27 -125 -39q-29 -4 -54 -4q-51 0 -83 16q-39 24 -59 84q-15 44 -15 96q0 18 2 37z" />
<glyph unicode="b" horiz-adv-x="1056" d="M-328 846q-3 17 -3 34q1 24 7 48q10 42 36 82t65 69q55 41 117 49q15 2 30 2q48 0 96 -20l-10 -25q-43 18 -86 18q-12 1 -26 -1q-56 -8 -105 -45q-40 -29 -65 -72q-24 -43 -26 -87q0 -4 -1 -7q1 -39 15 -73q16 -36 59 -54q30 -12 68 -13q19 0 40 3q63 7 168 86 q40 116 114 221.5t172 174.5t191 69q23 0 36.5 -13t13.5 -35q0 -55 -89.5 -161.5t-205.5 -190.5q-166 -506 -166 -761q0 -26 2 -50q20 90 47 177t76.5 188.5t103.5 150.5q44 40 110 48q17 2 32 2q46 0 81 -19q83 -44 117 -129q31 -83 32 -168q0 -35 -6 -70 q-18 -121 -85 -219q59 30 185.5 156t244.5 276v-43q-116 -145 -239 -265.5t-185 -149.5q-94 -44 -172 -44q-134 0 -225 128l-11 18l23 16q33 -55 70.5 -90.5t87.5 -38.5h4l56 80q43 124 48 288q1 17 1 33q0 160 -56 195q-13 8 -29 8q-19 0 -41 -12q-54 -29 -102 -108.5 t-78.5 -176.5t-48 -169.5t-25.5 -126.5v-31h-67v31q-48 109 -72 229q-19 94 -19 201q0 31 2 62q7 143 54 272q-97 -59 -146 -66q-23 -3 -44 -3q-37 0 -67 9q-48 14 -72 43.5t-32 69.5zM301 954q107 86 179 174q71 86 71 127q0 9 -6.5 16t-18.5 7q-13 0 -42 -27.5t-66 -83.5 q-62 -92 -117 -213z" />
<glyph unicode="c" horiz-adv-x="745" d="M-73 252q-1 16 -1 33q0 139 69 263q88 158 244 202q52 15 110 15q39 0 81 -7q41 -6 72 -31.5t37 -54.5l-27 -4q-6 22 -27.5 39.5t-50.5 23.5q-14 3 -29 3q-25 0 -51 -9q-73 -28 -131 -139q-59 -110 -83 -236q-19 -98 -19 -177q0 -23 2 -44q3 -48 20 -75t44.5 -32 t59.5 3.5t68 29.5q59 30 186 157t244 275v-43q-118 -146 -239.5 -265t-183.5 -150q-94 -46 -169 -46q-76 0 -132 47q-85 72 -94 222z" />
<glyph unicode="d" horiz-adv-x="1036" d="M-86 260q2 59 20.5 115t50 100t72 83t87 65.5t94.5 44.5t94 22q20 2 39 2q25 0 48 -3q40 -6 72 -27.5t50 -55.5q6 20 26 84.5t28 90.5t26.5 82t31 89t30.5 79.5t37 86t40 78.5l47 -12q54 -32 54 -135q0 -102 -53 -275q-31 -101 -143 -396q-85 -224 -86 -281q0 -29 23 -29 q32 0 113 71q158 138 321 348v-43q-136 -169 -307 -325q-63 -59 -114 -92.5t-91 -41.5q-10 -2 -19 -2q-27 -1 -44 17q-24 24 -31 80q-2 18 -2 38t2 44q-66 -91 -139 -139q-60 -39 -119 -39q-11 0 -22 2q-70 8 -124 48q-54 39 -86 102q-26 53 -27 104q0 10 1 20zM136 195 q-2 -25 -2 -47q0 -108 46 -127q9 -4 20 -5q18 0 42 13q111 58 194 190q3 36 9.5 70.5t17.5 74t18 62t23.5 71t21.5 64.5q-14 62 -53 90q-31 22 -85 22q-13 0 -28 -1q-78 -18 -146 -172q-67 -149 -78 -305z" />
<glyph unicode="e" horiz-adv-x="757" d="M-117 248q4 81 65.5 187t152 192t173.5 114q21 6 41 6q17 0 33 -4q36 -9 51 -28q18 -29 18 -62q0 -9 -1 -19q-6 -44 -33 -87q-37 -62 -113 -147.5t-164 -161.5q-1 -15 -1 -29q0 -55 10 -95q12 -48 35 -69t56 -22h4q31 -1 64 13q35 14 75.5 40.5t74.5 55t68 61.5 q79 78 154.5 161t111.5 133v-43q-27 -35 -68.5 -81t-96 -104t-83.5 -91q-57 -65 -129 -110q-73 -44 -143 -62q-52 -14 -102 -14q-18 0 -34 2q-66 6 -116.5 35.5t-78.5 88.5q-25 52 -25 120q0 10 1 20zM106 274q79 69 149 150.5t105 138.5q22 32 28 71q2 11 1 21q0 25 -12 43 q-16 23 -46 23q-13 0 -28 -4q-56 -20 -117 -135q-36 -66 -53 -136.5t-27 -171.5z" />
<glyph unicode="f" horiz-adv-x="860" d="M-176 -573q34 154 116.5 439t90.5 314q-21 -1 -52 -1.5t-58 10.5t-23 32q11 52 65 55h3q36 0 79 -43q21 80 123 435q-5 -6 -75 -101t-93 -123v43q24 30 57.5 75t71 97.5t53.5 73.5q32 125 62 211q99 310 232.5 478.5t291.5 203.5q9 1 17 1q33 0 59 -21q55 -40 61 -109 q3 -27 -2 -59t-14.5 -61.5t-30.5 -68t-38 -68t-50.5 -74t-54.5 -72.5t-62.5 -77.5t-63 -74t-67.5 -77.5t-65 -74l-64 -72q-24 -79 -73.5 -261.5t-67.5 -246.5q66 -32 137 -32q81 0 167 42q163 78 304 266v-43q-141 -180 -308 -252q-89 -38 -169 -38q-70 0 -133 30 q56 -103 92 -364q24 -184 24 -339q0 -66 -4 -126q-15 -214 -34 -300q-41 -177 -142 -224q-37 -17 -71 -17q-25 0 -49 10q-138 67 -212 236q-47 106 -47 223q0 70 17 144zM-74 227q-4 -9 7 -14.5t31.5 -6.5t35.5 -0.5t29 1.5q-9 15 -29.5 28t-43 13.5t-30.5 -21.5zM-23 -906 q0 -44 7 -81q11 -53 34 -99t58 -63q20 -9 43 -9q25 0 53 11q32 15 56.5 41t41 70.5t27 76t18.5 96.5t10.5 89.5t7.5 94.5q2 26 3 38q5 63 5 130q0 141 -21 303q-31 242 -84 360q-21 -75 -66 -231.5t-77.5 -274t-59.5 -224.5q-13 -48 -20.5 -79.5t-17.5 -80.5t-14 -86.5 t-4 -81.5zM403 774q2 1 25 27q18 20 63.5 72.5t66.5 76.5t62.5 73t62.5 76t54.5 71.5t50.5 73t39 67t31.5 67t15.5 60t3 57.5q-3 41 -32 73q-27 29 -61 29h-6h-4q-56 -12 -110 -94q-68 -109 -138 -311t-123 -418z" />
<glyph unicode="g" horiz-adv-x="856" d="M-385 -1075l20 22q61 -146 222 -155h6q57 0 111 50q57 54 102 142.5t85 206t67 235t46 236.5q88 513 97 649q-16 -40 -19 -45q-70 -151 -162 -225q-29 -22 -77 -35.5t-97 -13.5q-1 -1 -2 -1q-49 0 -87 27q-39 27 -46 80q-3 20 -3 44q0 72 32 174q44 136 133.5 260 t222.5 176q51 21 107 21q90 0 192 -52q28 -14 45 -45t23.5 -78t8 -77.5t1.5 -82.5v-32h-27v32q0 47 -1 74t-6.5 72.5t-20.5 73.5t-39 40q-41 20 -82 20q-9 0 -18 -2q-49 -5 -93.5 -36t-84 -77.5t-72.5 -104.5t-59.5 -118.5t-45 -119t-28.5 -105.5q-8 -43 -8 -73v-6 q1 -32 12 -39q14 -8 30 -8q33 0 74 32q72 59 132.5 178.5t78.5 231.5v37l139 -2q8 -34 8 -111q0 -99 -14 -269q-24 -301 -55 -482q-22 -121 -55.5 -237.5t-88 -237t-119.5 -209.5t-155 -144q-84 -51 -176 -51h-14q-168 6 -240 160z" />
<glyph unicode="h" horiz-adv-x="1150" d="M-131 6q35 164 65 292t79 305t95 300.5t105.5 227t118.5 135.5l106 -9q-98 -279 -286 -901l-1 -2q-1 -3 -6 -17t-12 -38l31 47q55 92 168.5 179.5t208.5 129.5q57 25 96 25q9 0 19 -2q44 -8 62 -46q15 -32 14 -75v-17q-4 -54 -27 -118q-5 -15 -22 -60t-27.5 -75 t-24 -75.5t-16.5 -75.5t0 -60t20.5 -45t48.5 -15q25 0 69.5 33t89.5 78t101 108.5t92.5 108.5t75.5 93.5t39 49.5v-43q-1 -2 -34.5 -44t-74 -90.5t-90.5 -105.5t-102.5 -107t-93.5 -77q-29 -18 -63 -32q-35 -12 -77 -16q-10 -1 -18 -1q-32 0 -61 9q-37 12 -70 51t-49 104 q-3 10 -3 24q0 74 81 240q10 21 30 61q67 133 68 162q1 21 -19 17q-10 -1 -24 -8q-111 -52 -256 -205.5t-191 -232.5l-67 -193z" />
<glyph unicode="i" horiz-adv-x="669" d="M-67 364q8 80 40.5 150t91 123.5t132.5 73.5l32 -2q-9 -23 -25.5 -77t-39.5 -135t-39 -163q-16 -84 -24 -156q-3 -28 -3 -52q0 -38 8 -66q12 -45 46 -44h2q42 1 119 60t159 145t141 152t97 114v-43q-171 -206 -309 -330t-207 -124q-83 29 -137 89q-54 61 -73 133 q-13 51 -13 105q0 23 2 47zM242 881q15 38 41 32q13 -6 19.5 -22.5t0.5 -32.5q-14 -34 -41 -31q-13 4 -19 19.5t-1 34.5z" />
<glyph unicode="j" horiz-adv-x="401" d="M-1505 -864q16 70 69.5 113.5t135.5 78.5q66 24 136.5 39t127.5 22q38 5 85 5q24 0 50 -2q78 -3 125 -6.5t134 -18t125 -22.5t132 -27q52 111 99 264t83 297t76.5 291t100.5 289t135 248l30 -11q-5 -32 -20.5 -208.5t-38.5 -292.5q-124 -606 -270 -924q218 -45 634 -154 q69 -19 199.5 -56t217 -61t217 -55.5t227 -48t218.5 -28.5q85 -8 158 -8q32 0 61 2q98 5 202.5 27t193.5 64q74 35 87 107q3 19 3 38q0 53 -28 106q-37 71 -101 112q-53 35 -129.5 60t-151.5 34q-52 7 -102 7q-21 0 -42 -1q-70 -4 -113 -22l-11 24q46 19 118 24q23 1 48 1 q49 0 101 -6q78 -9 158.5 -35.5t138.5 -65.5q78 -48 116 -129q26 -54 26 -108q0 -25 -6 -51q-19 -78 -93 -117q-83 -37 -173.5 -60t-188.5 -29q-90 -6 -175 -6h-14q-90 1 -200 17t-195 30.5t-202 43.5t-192 49t-194 53t-181 49q-43 12 -192.5 54t-247.5 67t-203 47 q-151 -283 -363 -401q-166 -93 -386 -93q-59 0 -123 7q-118 12 -225 60.5t-158 133.5q-55 73 -55 140q0 22 6 43zM-1479 -870q-5 -16 -5 -34q0 -57 50 -128q46 -72 137.5 -118.5t192.5 -63.5q41 -6 81 -6q57 0 112 12q93 22 167.5 69t141 117.5t115.5 147.5t90 165 q-261 53 -358 64q-85 10 -165 10q-202 0 -368 -65l-4 -2q-175 -64 -187 -168zM139 879q2 19 14 28.5t29 5.5q11 -2 17.5 -16t-0.5 -33q-10 -39 -39 -37q-13 7 -18.5 22.5t-2.5 29.5z" />
<glyph unicode="k" horiz-adv-x="948" d="M-862 1290q3 0 20 7.5t19 9.5q47 14 84 14h9q66 0 154 -26q94 -28 186 -70t185 -84t189 -72t170 -31q16 38 69 146q46 98 113 196t154.5 189t185.5 153t206 88q49 12 97 12q59 0 117 -18q59 -18 99.5 -70.5t54.5 -116.5q7 -33 7 -65q0 -29 -6 -57q-31 -163 -175.5 -274.5 t-413.5 -178.5q-58 -14 -146 -24q-67 -7 -124 -7q-18 0 -36 1q-196 -442 -309 -1016l-149 4q36 535 245 1012q-71 2 -167 32.5t-189 72t-185 82.5t-182 69q-86 28 -149 28h-4q-40 0 -70 -12l-39 -14zM174 430l21 12q33 -17 68 -17q29 0 61 12q70 26 128 76.5t93 112.5 q28 50 28 86q0 9 -2 17l29 -8q1 -6 1 -12q0 -37 -30 -91q-35 -64 -101 -123.5t-138 -82.5q-2 -2 -29.5 -4.5t-30.5 -1.5q43 -30 79 -77t56 -89t43 -80t43.5 -57.5t53.5 -13t78 45.5q40 34 158.5 162.5t164.5 189.5v-43q-40 -54 -149.5 -171t-153.5 -158q-75 -65 -128 -93 q-48 -26 -102 -26h-12q-30 1 -55.5 14t-43.5 30t-34.5 48t-27 56.5t-21.5 68.5t-17 70.5t-15.5 75t-14.5 71.5zM367 1036q181 4 282 31q517 127 578 430q4 21 4 45q1 28 -5 58q-10 57 -46.5 109.5t-92.5 68.5q-26 8 -54 8q-47 0 -100 -22q-83 -36 -156 -105t-143.5 -160 t-120.5 -175t-83 -155q-60 -119 -63 -133z" />
<glyph unicode="l" horiz-adv-x="708" d="M-32 193q-11 58 -11 125q0 155 59 360q77 267 206 455q126 184 238 186q45 0 83 -31q9 -8 15.5 -21.5t10 -26t5 -31t2 -28t-0.5 -26.5t0 -18q-5 -80 -36 -164t-68.5 -147t-94.5 -134t-92.5 -108.5t-83.5 -86.5l-20 -20q-17 -49 -32 -107q-16 -56 -28 -128q-7 -40 -6 -75 q0 -27 4 -53q10 -56 44 -77q16 -10 35 -11t35.5 2t38.5 15t36.5 21.5t36 28t31 27.5t28.5 27.5t21 20.5q122 119 285 319v-43q-197 -225 -271 -297q-39 -37 -62 -57t-62 -48q-40 -30 -77 -42q-32 -11 -63 -10h-10q-159 10 -196 203zM199 535q71 71 122 130.5t105 138 t85.5 164.5t37.5 175q1 17 1 32q0 66 -28 93q-10 10 -21 10q-50 0 -114 -198q-3 -7 -7 -20q-5 -17 -7 -22q-4 -12 -55 -169.5t-119 -333.5z" />
<glyph unicode="m" horiz-adv-x="1482" d="M-70 -8q99 426 205 643q-9 -13 -33 -50t-49 -72t-53 -69v43q33 41 66.5 91.5t54.5 86.5t37.5 66t17.5 31q162 -10 164 -10l-203 -652l39 68q39 66 66 109.5t68.5 101t77.5 96.5t83 75.5t96 57.5q37 16 66 16q53 0 76 -55q14 -34 14 -80q0 -66 -29 -156q-30 -94 -84 -181 q99 122 172 195t123 81q10 1 19 1q41 1 61 -29q23 -34 23 -89v-7q-2 -58 -8 -117q-4 -40 -5 -73q0 -14 1 -28q3 -42 28 -43q46 0 176 126t283 318v-43q-144 -178 -274.5 -302.5t-188.5 -125.5h-11q-193 0 -193 173q1 30 15 119q6 36 -3 36q-16 -1 -119 -124 q-41 -48 -125 -150q-20 -26 -39 -54l-66 9q25 145 36 243q9 82 9 142v20q-2 66 -22 80q-6 4 -15 4q-17 0 -43 -20q-38 -30 -99 -116t-146 -228q-3 -6 -17 -29.5t-22 -37t-25 -37t-31 -36t-35 -26t-41 -16.5t-45.5 2t-52.5 22z" />
<glyph unicode="n" horiz-adv-x="1097" d="M-131 10q14 120 76 370.5t100 332.5q3 0 10 -1.5t22.5 -10.5t30 -23.5t27.5 -44.5t19 -70q4 -25 5 -59q0 -20 -2 -44q-4 -64 -20 -141q92 193 147 276q108 161 208 161q73 0 142 -38.5t73 -88.5q1 -18 2 -37q-1 -57 -15 -118q-18 -81 -43.5 -139.5t-45.5 -126.5 q-17 -59 -17 -105v-13q3 -45 51 -45q44 0 182.5 134t276.5 308v-43q-131 -161 -257 -284t-182 -140q-17 -4 -43 -4q-37 0 -92 8q-94 14 -106 46q-14 36 -15 82v11q0 40 6 79q7 44 22 99t30 97.5t33.5 96t27.5 83.5q17 56 17 77q0 4 -1 7q-5 25 -40 27h-5q-35 1 -73 -25 q-40 -28 -80 -82t-74.5 -112t-72 -138.5t-61.5 -137.5t-54 -132q-35 -77 -41 -102z" />
<glyph unicode="o" d="M-47 218q-8 46 -8 90q0 105 45 204q73 158 230 212q70 23 152 23q25 0 50 -2q66 -6 104 -65l-22 -14q-33 51 -90 53h-8q-91 0 -167 -132q-74 -131 -92 -301q-4 -40 -4 -74q0 -113 43 -166q28 -35 71 -35q37 0 85 26q50 28 94.5 80t78.5 128q35 76 41 167q1 19 1 38 q0 75 -20 160q-2 12 4 16.5t14.5 1t13.5 -11.5q13 -17 39.5 -58.5t45.5 -71t50.5 -57.5t60.5 -34q6 -1 13 -1q24 0 55 16q39 22 80 77v-43q-31 -37 -62 -56t-57 -22t-53.5 9.5t-46.5 27.5t-41 42t-33 44t-27 43t-18 29q7 -53 7 -102q0 -45 -6 -86q-12 -86 -47.5 -156 t-80.5 -119t-98 -78q-88 -50 -161 -50q-66 0 -121 40q-90 65 -115 208z" />
<glyph unicode="p" horiz-adv-x="1042" d="M-705 -1075l19 22q35 -77 88 -113.5t133 -41.5h14q32 0 58 8q31 9 52.5 25t41.5 49t33 63t34 82q1 2 1 3t1 2.5t1 2.5q14 33 28.5 91t61 291t131.5 685q21 115 51 228.5t44.5 159t49.5 145.5q-35 -54 -137 -183v43q112 143 160 230l172 -8q-28 -92 -68 -293 q95 134 131 178q40 54 87 87.5t91 37.5q17 2 32 2q122 0 171 -104q26 -56 26 -126q0 -61 -19 -132q-42 -156 -147 -256q-97 -93 -214 -97h-6q-65 0 -118 40q-57 43 -81 120q-29 -78 -55.5 -192.5t-45 -224t-44 -233.5t-52 -230.5t-70 -206t-98 -168.5t-136.5 -109 q-75 -37 -169 -37h-14q-86 3 -146.5 46.5t-91.5 113.5zM225 211q18 -81 74.5 -129.5t124.5 -48.5q47 0 106 157q62 168 79 337q4 41 4 72q0 93 -38 95h-4q-64 -6 -153 -116q-40 -48 -98.5 -132.5t-67.5 -95.5z" />
<glyph unicode="q" horiz-adv-x="860" d="M-66 171q-14 49 -14 98q0 51 15 102q29 101 111 196t198 146q63 30 174 33q11 1 22 1q92 0 129 -26q80 -51 80 -283v-32h-26v32q0 219 -70 260q-21 11 -57 11h-11q-44 -2 -84 -17q-22 -11 -64.5 -58t-89.5 -113t-93 -142.5t-75 -145.5t-37 -123q-1 -10 -1 -19 q0 -38 25 -54q24 -11 43.5 -10t42 18.5t41 38.5t38.5 50.5t35 54.5t31 51t27 39l61 200l178 -8q-8 -98 -43 -250.5t-77.5 -299.5t-82.5 -313t-64 -302q-19 -107 -19 -203q0 -26 1 -51q7 -119 54 -182q23 -32 35.5 -43.5t36.5 -18.5q20 -6 50 -6h17l2 -27h-67q-71 0 -145 21 t-107 59q-40 49 -59 124q-16 63 -16 144q0 15 1 31q3 100 15 198t42.5 230.5t56.5 232.5t66 240q31 101 45 158q-3 -6 -17 -30t-23 -39.5t-26 -40.5t-31 -41t-34 -33t-38.5 -24t-40.5 -6t-44 13q-89 60 -117 159z" />
<glyph unicode="r" horiz-adv-x="604" d="M-614 -1183q-1 15 0 30q0 63 14 131q18 84 44 144.5t60 119.5q79 135 228.5 239.5t337.5 151.5q-33 59 -51 161q-15 88 -15 155v22q2 64 18.5 141.5t47 158.5t70.5 149.5t95 116.5t115 59q-10 3 -59 14.5t-90.5 24t-61.5 24.5q-24 -57 -69.5 -122.5t-69.5 -92.5v43 q103 136 115 195q-20 16 -47.5 67.5t-48.5 109.5t-21 110t31 67q19 12 51 18q16 3 33 3q17 1 36 -3q38 -6 56 -34q28 -41 29 -103q0 -57 -25 -131q22 -23 100.5 -85.5t79.5 -63.5q12 -6 9.5 -21t-8.5 -27.5t-18 -33.5q-3 -5 -5 -8q-68 -129 -111.5 -277t-50.5 -286 q-1 -15 0 -31q0 -68 10 -147q13 -97 43 -154q262 69 520 69q77 0 154 -6q113 -9 183.5 -32.5t107.5 -85.5q22 -39 22 -90q0 -25 -5 -51q-15 -84 -66 -130q-88 -84 -214 -112q-66 -15 -133 -15q-61 0 -121 12q-128 25 -252 82t-222 141t-150 175q-187 -47 -332.5 -147 t-220.5 -234q-32 -54 -56.5 -111t-42.5 -137q-16 -69 -16 -135v-21q3 -74 39.5 -157t108.5 -150l-17 -20q-76 71 -115.5 157t-43.5 163zM142 921q14 -86 46 -114q8 21 13.5 55t6 69t-11.5 59t-36 22q-22 -3 -22 -45q-1 -19 4 -46zM270 -373q41 -93 117.5 -175.5t173.5 -138 t200 -78.5q47 -10 94 -11q57 0 115 16q106 28 187 109q43 43 55 113q4 23 5 44q0 42 -17 74q-28 52 -94 76.5t-176 32.5q-84 6 -162 6q-92 -1 -177 -9q-156 -16 -321 -59z" />
<glyph unicode="s" horiz-adv-x="786" d="M0 444v43q142 166 168 220l-12 90q-3 23 -3 45q0 106 65 183q53 62 111 66h9q46 0 58 -46q0 -4 1 -7q1 -8 1 -17q0 -23 -9 -51q-13 -39 -22 -54.5t-33 -55.5q2 -47 56 -296.5t56 -272.5q22 12 105 46t142 69t93 81v-43q-28 -36 -97 -72.5t-147 -67.5t-91 -38q3 -31 4 -58 q0 -155 -111 -200q-31 -15 -149 -15q-3 1 -7 1q-124 0 -151 20q-27 21 -34 42.5t5.5 41t32.5 38t50.5 35.5t56 30t54 26t38.5 19q-8 95 -64 426q-75 -112 -176 -228zM29 68q2 -15 20 -29q18 -13 47 -16.5t54 0.5t43 12q25 11 39.5 24.5t18 33.5t3 36t-4 45t-3.5 47 q-10 -5 -34.5 -16.5t-46.5 -22.5t-49 -25.5t-45 -29t-31 -29.5t-11 -30zM306 1014q0 -5 -1 -9q0 -29 8 -65q9 -42 9 -51q4 11 19 38.5t24 52t6 46.5q-4 29 -15 35.5t-28 -2.5q-20 -13 -22 -45z" />
<glyph unicode="t" horiz-adv-x="782" d="M-160 1026q-7 32 11 56.5t48 34t63 9.5t54 -12l-10 -22q-27 10 -58 10h-6q-34 -1 -58.5 -22t-16.5 -52q11 -46 61.5 -60t128.5 -14q46 0 111 7q22 46 48.5 90t65 93.5t86.5 77.5q41 24 81 24q7 0 14 -1l24 -12q-38 -93 -112 -264q113 20 299 75q111 30 156.5 42t139 28 t165.5 16q26 0 52.5 -2.5t61 -9.5t54 -24t14.5 -41q-7 -36 -88 -54l-4 25q65 13 67 33q3 16 -15 27t-49.5 15t-52 5.5t-40.5 1.5q-62 0 -142 -13.5t-135 -26.5t-180 -46q-193 -56 -313 -76q-154 -355 -195 -579q-12 -81 -12 -142q0 -35 4 -63q21 -129 104 -129q36 0 84 24 q58 30 185.5 156.5t246.5 275.5v-43q-117 -144 -240.5 -264t-185.5 -151q-38 -19 -101 -23q-14 -1 -29 0q-48 0 -98 9q-64 12 -115 50t-60 95q-5 41 -5 82q0 65 13 131q71 290 197 563q-53 -6 -101 -6q-200 0 -217 96z" />
<glyph unicode="u" horiz-adv-x="1046" d="M-111 228q5 68 39 153q11 25 26.5 57t26.5 54t23.5 49.5t17.5 44t7.5 37t-6.5 28.5q-24 29 23 41q22 6 45 6q30 0 61 -10q25 -8 36 -22q17 -30 18 -76q0 -20 -4 -44q-11 -76 -52 -175q-21 -48 -37 -102q-15 -55 -25 -111q-4 -24 -4 -44q0 -28 7 -50q13 -38 50 -41h7 q47 0 90 40q19 17 38.5 42t35.5 49t36.5 63.5t33 65t34 74.5t31 71t32 76.5t29.5 70.5l43 101l166 -8q-34 -169 -84 -318q-67 -195 -67 -270q0 -45 24 -47h3q45 0 169 127q61 62 148.5 162.5t136.5 164.5v-43q-38 -49 -123.5 -146t-145.5 -157q-80 -79 -145 -117 q-57 -33 -95 -33q-6 1 -11 1q-41 6 -67 37t-33 84q-3 25 -3 52q0 31 4 65q8 64 31 128q-18 -30 -51.5 -89t-50.5 -88t-46.5 -71.5t-51.5 -62.5t-51.5 -35.5t-60.5 -15.5q-55 0 -101.5 11.5t-85 40t-57.5 70.5q-15 34 -15 83q0 13 1 27z" />
<glyph unicode="v" horiz-adv-x="778" d="M-14 371q-19 69 -19 129q0 140 101 231q33 29 86 57q17 10 33 10q17 0 33 -10q32 -20 34 -65v-10q0 -41 -21 -91q-24 -56 -59 -92q51 -251 51 -367v-9v-19q41 86 104.5 169.5t121 142.5t129.5 143t122 164l23 -17q-42 -67 -109.5 -148.5t-129 -150.5t-121.5 -143.5 t-102 -154.5t-54 -156l-170 4q-9 106 -13.5 152.5t-14.5 110.5t-25 120zM162 766q-18 -11 -18 -53q0 -50 26 -144q26 31 42 73q15 40 15 75q0 31 -20.5 46t-44.5 3z" />
<glyph unicode="w" horiz-adv-x="1036" d="M-116 199q-3 22 -3 43q1 24 5 48q8 42 36 92.5t55.5 86.5t72.5 83t74 72.5t74 65t58 51.5l23 -14q-95 -100 -158 -345q-42 -165 -42 -274q0 -18 1 -34q4 -61 26 -61h4q8 1 19 12q58 55 100 139.5t78.5 182.5t67.5 149l106 -9q-3 -8 -14 -78t-21 -154.5t-12 -154.5 q0 -9 -1 -17q0 -54 13 -60q8 -3 17 -3q33 0 81 50q60 64 111 164t70 188q-100 54 -127 137q-8 23 -8 43q0 16 4 28q10 30 35 38q28 8 60.5 -9.5t49.5 -60.5q19 -47 19 -105q0 -27 -4 -55q70 -32 128 -33q14 1 27 3q68 10 127 79v-43q-67 -66 -155 -66q-61 0 -131 32 q-10 -40 -24.5 -81t-36 -89t-46.5 -88.5t-56.5 -78t-66.5 -57.5q-36 -22 -78 -30q-13 -3 -26 -2q-29 0 -60 12q-42 16 -63 68q-16 39 -16 76q0 12 2 24q-79 -115 -129 -154q-34 -27 -63.5 -33.5t-57.5 9.5t-53 44t-56 76q-29 44 -36 93zM625 567q21 -62 102 -118q3 25 3 48 q0 50 -15 89q-13 26 -35.5 44.5t-44.5 10.5q-18 -8 -18 -33q0 -17 8 -41z" />
<glyph unicode="x" horiz-adv-x="1087" d="M0 444v43l59 72q79 98 131 135q40 30 90 44q31 9 63 8q19 0 39 -3q52 -9 83 -45q32 -40 56 -114.5t30 -145.5q24 27 65 73t62.5 71t47 55.5t38 49.5t14.5 30l25 8q-2 -18 -10 -35t-29.5 -44.5t-43.5 -53.5t-71 -83t-94 -112q0 -4 1 -100t9 -174.5t27 -89.5q6 -4 15 -4 q23 0 63 26q54 35 113.5 92t126.5 131t108 124t69 85v-43q-362 -440 -477 -440h-34.5t-34.5 3t-37 8t-35 16.5t-35 27t-30 41t-27.5 57.5t-20.5 76.5t-16 98.5q-11 -13 -57.5 -66t-72.5 -84t-60 -74.5t-48 -69t-8 -34.5q-2 -2 -5.5 -4t-10.5 -7.5t-12 -8.5t-5 -2q-2 4 -2 10 q0 39 78 140q38 48 199 239q0 16 -1 52q-2 175 -22 230q-17 45 -49 45q-26 0 -63 -30q-23 -17 -52.5 -47.5t-48.5 -53t-54 -66.5t-46 -57z" />
<glyph unicode="y" horiz-adv-x="1001" d="M-440 -1282q-1 14 -1 28q0 51 14 104q18 67 66.5 141.5t123.5 139t194 122t268 92.5q48 158 127.5 498.5t126.5 488.5q-28 -49 -50.5 -85t-51.5 -75.5t-56 -65.5t-59 -45t-65 -24q-51 -9 -93 -9q-45 0 -79 10q-66 21 -90 70q-20 40 -20 96q0 13 1 26q6 74 35 156.5 t78 174.5q51 95 51 145q0 44 -39 52h-4q-34 0 -70 -47q-28 -33 -41 -69q-5 -18 -5 -34q0 -18 7 -35l-24 -12q-11 20 -11 44q0 19 7 40q14 49 49 86q32 37 64 57.5t60 23.5t53.5 -5.5t45.5 -27t35 -45t22 -56.5t6.5 -63.5t-10.5 -63.5q-11 -37 -30.5 -93t-34 -98t-29.5 -91.5 t-21 -84.5q-6 -28 -6 -54v-11q2 -30 15 -45q13 -16 45 -16q13 0 29 3q171 35 321 400q12 28 44 152t38 167l170 -4q-9 -90 -42 -260.5t-58 -257.5q-37 -140 -106 -438t-116 -455q105 29 221 29q164 0 349 -58q70 -22 150.5 -63t152.5 -85t145.5 -87.5t153 -77.5t151.5 -47 q12 -2 24 -2q44 0 95 26q63 34 105 87q24 34 30 89q1 12 1 22q0 41 -18 73q-17 31 -50 31q-9 0 -19 -2q-32 -7 -63.5 -83t-42.5 -135l-25 5q2 9 5 24t14.5 54t25 69.5t35 58t45.5 31.5q14 3 27 3q32 0 53 -19q30 -27 35 -70q3 -17 3 -34q0 -28 -6 -57q-9 -47 -30 -75 q-40 -57 -115 -96q-56 -30 -104 -30q-15 0 -29 3q-81 17 -163.5 52t-154.5 77t-141.5 84.5t-149.5 83.5t-153 64q-182 58 -339 58q-120 0 -226 -34q-135 -471 -373 -678q-142 -124 -283 -124h-15q-110 5 -168 83q-33 45 -37 103zM-414 -1274q4 -103 67 -147q31 -22 68 -22 q47 0 102 35q157 100 294 431q54 131 102 293q-138 -31 -250 -85t-183 -115t-118 -131.5t-66 -134.5q-16 -55 -16 -108v-16z" />
<glyph unicode="z" horiz-adv-x="851" d="M-164 -1360q-8 41 -8 88q0 373 520 1116q72 102 121 164q-45 120 -122 120q-75 0 -179 -116l-8 -8l-170 10q7 75 37 166.5t63.5 161t71 149.5t51.5 125q7 20 -11 24q-17 3 -40 -15q-38 -33 -162 -181v43q107 128 147 160q27 21 66.5 37.5t80.5 23.5q10 2 20 2 q28 0 48 -16q27 -20 27 -68q-1 -90 -35 -194q-32 -96 -96 -223t-65 -129q36 39 76 62.5t84 31.5q10 2 20 1l68 -20q44 -26 79 -87q113 136 332 419v-43q-186 -230 -317 -405q54 -46 88 -141q33 -96 45 -218q6 -62 6 -129q0 -65 -5 -133q-11 -140 -40.5 -278.5t-83 -267 t-123 -226t-164.5 -156.5t-203 -59q-49 0 -98 29q-96 60 -121 180zM-139 -1354q21 -105 110 -164q45 -28 88 -29q128 0 230 257q114 284 170 784q26 235 26 372q0 47 -3 83q-1 16 -3 26q-58 -72 -110 -147q-67 -94 -130.5 -191t-144.5 -239.5t-136 -267.5t-85 -257 q-19 -82 -18 -151q-1 -40 6 -76z" />
<glyph unicode="{" horiz-adv-x="894" d="M66 592v35q56 9 98 32t67.5 49t40 73.5t20 83.5t3 101.5t-6 103.5t-12.5 114q-10 82 -11.5 150t8.5 142t34 130t70.5 103t114.5 73l10 -25q-52 -20 -77.5 -55t-28.5 -75t7.5 -96.5t26.5 -107t33.5 -118.5t23.5 -121q24 -211 17 -303q-16 -193 -155 -254q-23 -10 -50 -17 q52 -14 90 -41.5t61 -56t35.5 -80t18 -85t2 -102.5t-6.5 -100.5t-12 -108.5v-1q-6 -53 -23.5 -121t-33.5 -119t-26.5 -107t-7.5 -96.5t28.5 -75.5t77.5 -55l-10 -24q-68 26 -114.5 73t-70.5 103t-34 130t-8.5 142.5t11.5 151.5q9 75 12.5 113t6 103.5t-3 101t-20 83 t-40 73.5t-67.5 49t-98 32z" />
<glyph unicode="|" horiz-adv-x="942" d="M383 -328v1573h27v-1573h-27z" />
<glyph unicode="}" horiz-adv-x="751" d="M223.5 937.5q-0.5 31.5 3.5 81.5t7 81t10 84q5 47 20 103.5t30.5 103t30.5 95.5t20.5 88.5t1 75t-28.5 63t-68 44.5l10 25q67 -25 113.5 -72.5t70 -103t33.5 -130t8.5 -142t-10.5 -150.5q-7 -55 -10.5 -88t-7 -83.5t-2.5 -82t5.5 -73.5t15.5 -68.5t28.5 -56.5t42.5 -48.5 t60 -34t79 -22.5v-35q-56 -9 -98 -31.5t-68 -50t-40.5 -73t-20.5 -83.5t-3.5 -100.5t6.5 -104t13 -112.5q9 -84 10.5 -151.5t-8.5 -142t-33.5 -130.5t-70 -103t-113.5 -73l-10 24q44 17 68 44.5t28.5 63t-1 75.5t-20.5 89t-30.5 95t-30.5 103t-20 104q-10 80 -14 126t-6 117 t9 115t32.5 92t63 78.5t101.5 46.5q-40 10 -72 28.5t-54.5 40t-38 53.5t-24.5 60t-13 71t-4.5 74.5z" />
<glyph unicode="~" horiz-adv-x="843" d="M131 571q73 110 152 131q18 7 39 7q95 0 180 -58q14 -9 35 -24t33 -23t27.5 -13t29.5 -1q8 3 15 7.5t14.5 11.5t12 11.5t13 14t10.5 12.5l21 -14q-34 -56 -68 -66q-31 -12 -59 -13t-53 8t-41 18t-37 24q-12 7 -40.5 27t-43.5 28.5t-40 15t-48 1.5q-64 -24 -129 -115z" />
<glyph unicode="&#xa1;" horiz-adv-x="960" d="M254 -31q-72 168 65 566q30 87 41.5 119t44 112t62 133.5t80 133.5t112.5 161q-22 -364 -129 -676q-7 -20 -26.5 -79t-28 -82t-27.5 -73.5t-35.5 -80t-40.5 -73t-53.5 -82.5t-64.5 -79zM616 1442q3 37 29 58.5t62 15.5q31 0 53 -26.5t16 -59.5q-3 -34 -28 -55t-58 -15 q-34 0 -55.5 24t-18.5 58z" />
<glyph unicode="&#xa2;" horiz-adv-x="565" d="M131 567q0 44 15.5 103.5t43.5 101.5q18 27 56 45.5t71 18.5l23 77l25 -14l-21 -63q41 -8 65.5 -42t22.5 -63l-26 10q-1 27 -25 46.5t-43 21.5q-17 -55 -46.5 -169t-45.5 -169q42 0 84.5 39.5t66.5 85.5l15 -25q-28 -52 -75 -90.5t-97 -38.5l-13 -41l-24 9q1 3 10 36 q-30 8 -56 43t-26 78zM184 569q0 -87 37 -98q61 238 90 340q-42 0 -71 -53q-26 -39 -41 -95.5t-15 -93.5z" />
<glyph unicode="&#xa3;" horiz-adv-x="1230" d="M131 586l10 24q109 -35 230 -35q45 0 114 17q57 170 166 276q38 35 107.5 66t109.5 20q31 -5 71 -20t46 -35q18 -45 -8 -96q-39 -78 -156.5 -145.5t-212.5 -88.5l-47 -127h41v-26h-49q-13 -48 -59.5 -114t-77.5 -97q16 -9 30.5 -19.5t32 -24.5t25.5 -20q14 -11 45 -35 t42 -32t30 -19.5t36 -17.5q65 -33 136 -33q66 0 146.5 27t141.5 75l19 -20q-66 -50 -152 -79.5t-153 -29.5q-70 0 -148 33q-65 30 -141 96q-45 35 -113 80q-46 -31 -121 -38.5t-118 22.5q-16 14 -12.5 49t18.5 45q14 8 28 12.5t30.5 3.5t28 -2.5t30 -8.5t26.5 -10.5 t28 -13.5t25 -12q15 12 25 39.5t22 72.5t21 71h-51v26h59l43 119q-13 -2 -32.5 -5.5t-34 -5t-35.5 -1.5q-115 0 -242 37zM166.5 210.5q1.5 -20.5 7.5 -24.5q18 -14 51.5 -9.5t60.5 14.5t48 22l-94 41q-54 0 -64 -12q-11 -11 -9.5 -31.5zM614 600q96 23 202 85.5t140 131.5 q17 42 5 72q-10 28 -35 39q-30 8 -75 -18t-79 -62q-37 -36 -68.5 -82.5t-46.5 -75.5t-43 -90z" />
<glyph unicode="&#xa4;" horiz-adv-x="745" d="M131 502q0 98 76 174l-64 80l21 18l61 -80q65 49 148 49q82 0 147 -49l33 43l29 37l20 -18l-61 -80q73 -77 73 -174q0 -53 -23 -103.5t-61 -83.5l72 -90l-20 -18l-74 92q-62 -43 -135 -43t-135 43l-74 -92l-21 18l72 90q-84 68 -84 187zM256 491q0 -38 0.5 -56.5t3.5 -48 t10.5 -44t20 -30.5t33 -22.5t49.5 -6.5q35 0 59 12t37.5 29.5t21 48.5t9.5 59t2 70q0 41 -2 68.5t-9.5 58t-21 48.5t-37.5 30t-59 12q-25 0 -43.5 -6t-31 -14.5t-21 -26t-12.5 -30.5t-6 -39.5t-2.5 -42t-0.5 -47.5v-11v-11z" />
<glyph unicode="&#xa5;" horiz-adv-x="1015" d="M131 934v22q2 0 10.5 1t10.5 1h14q53 0 77.5 -1.5t63 -14.5t66.5 -41q94 -94 123 -362h24q38 279 123 362q20 21 43.5 33.5t55.5 17t49.5 5.5t58.5 1q3 0 8.5 -1t7.5 -1h19v-22h-35q-48 0 -73 -1.5t-59 -13.5t-59 -36h3q-83 -83 -117 -344h205v-27h-207q-5 -34 -8 -74 h215v-24h-215q-15 -199 -15 -371v-43h-24q0 95 -20 248.5t-21 165.5h-215v24h215l-9 74h-206v27h204q-35 265 -114 344h2q-25 24 -52 35.5t-48 13.5t-66 2h-35zM498 512l8 -74h6q5 68 6 74h-20z" />
<glyph unicode="&#xa6;" horiz-adv-x="290" d="M131 27v354h29v-354h-29zM131 520v391h29v-391h-29z" />
<glyph unicode="&#xa7;" horiz-adv-x="538" d="M135 340q-14 82 33 129l-25 43q-12 31 -7 69.5t24 71.5q-16 27 -17 29q-13 36 -6 81.5t31 78.5q24 31 59 50.5t66 16.5h2l24 -4q34 -12 56.5 -43.5t27.5 -68.5l-24 -2q-5 35 -28 63t-60 31q-51 6 -88 -43q-21 -29 -27.5 -68t4.5 -69l6 -13q46 53 107 47h2l24 -6 q34 -12 56.5 -42.5t27.5 -67.5q14 -81 -32 -127q19 -34 22 -43q26 -71 -12 -146l12 -24q14 -36 8 -82t-32 -80q-46 -62 -111 -53h-2l-25 4q-34 12 -56.5 43t-27.5 69l25 2q5 -35 28 -64t58 -30q27 -3 43 2.5t33 26.5q23 29 28.5 68t-6.5 69l-6 14q-43 -56 -106 -47h-2l-25 4 q-34 11 -55.5 42.5t-26.5 68.5zM160 344q5 -36 27.5 -64.5t58.5 -29.5q51 -6 88 41l4 4q-19 27 -51 55l-30 26t-23.5 20.5t-14.5 13.5l-35 39q-35 -38 -24 -105zM174 631q-15 -39 6 -96q9 -21 21 -39l16 10l10 -25q-7 0 -10 -6q17 -20 33 -33q14 -13 30 -26t24 -20t13 -13 l48 -51q16 40 -9 98q-1 3 -18 37l-19 -10l-10 24l13 6l-35 33l-30 26t-23.5 20.5t-14.5 13.5q-1 2 -19 20.5t-26 30.5zM201 668q23 -34 49 -56q14 -13 30 -26t24 -20t13 -13q12 -10 37 -39q36 39 25 104q-5 35 -28 64.5t-60 32.5q-51 3 -88 -43z" />
<glyph unicode="&#xa8;" horiz-adv-x="0" d="M-641 983q0 26 13.5 42.5t37.5 16.5q23 0 38 -17t15 -42q0 -24 -15 -42.5t-38 -18.5q-24 0 -37.5 18t-13.5 43zM-303 961q0 25 15 42t38 17q22 0 37.5 -17t15.5 -42q0 -26 -15.5 -44t-37.5 -18q-23 0 -38 18t-15 44z" />
<glyph unicode="&#xa9;" horiz-adv-x="1089" d="M131 426q0 167 121 291q123 123 293 123q173 0 293 -123t120 -291q0 -171 -120 -291q-120 -123 -293 -123q-170 0 -293 123q-121 121 -121 291zM281 426q0 -86 12 -151.5t40 -121t81.5 -85t130.5 -29.5q160 0 273.5 113.5t113.5 273.5t-113.5 273.5t-273.5 113.5 q-77 0 -130.5 -29.5t-81.5 -85t-40 -121t-12 -151.5zM428 438q-3 72 41.5 129.5t120.5 57.5q33 0 59 -25.5t47 -83.5l-24 -12q-34 94 -82 94q-30 0 -41.5 -81.5t-2 -166t28.5 -94.5q36 -7 61.5 16.5t33.5 59.5l26 -8q-13 -47 -43.5 -75t-74.5 -22q-64 9 -106 74.5t-44 136.5 z" />
<glyph unicode="&#xaa;" horiz-adv-x="401" d="M67 836.5q7 44.5 34.5 90t52.5 54.5q40 14 61.5 -7t26.5 -69v-16h-23v16q0 17 -7.5 34.5t-18.5 25.5q-18 8 -36 -6t-31 -39.5t-21 -47.5t-11 -36q-5 -17 -2 -34t21 -5q42 29 61 116v15l25 -4q0 -17 -4 -21q-9 -70 -9 -74q0 -10 2 -17t4 -10l1 -3q6 0 21 11.5t47.5 45 t74.5 82.5v-37q-120 -140 -150 -127q-21 11 -24 41q-10 -18 -35 -39q-16 -12 -29 -12q-10 0 -14 4q-24 24 -17 68.5z" />
<glyph unicode="&#xab;" horiz-adv-x="1071" d="M131 174v33q59 29 177.5 107.5t146.5 95.5v-27q-15 -11 -72 -54t-110 -80.5t-89 -60.5q23 -10 271 -161v-27q-1 1 -48.5 27t-102 56.5t-107.5 58t-66 32.5zM354 174v33q59 29 177.5 107.5t146.5 95.5v-27q-12 -8 -117 -86.5t-153 -108.5q13 -5 57 -31.5t113.5 -69 t99.5 -60.5v-27l-150 83q-151 83 -174 91z" />
<glyph unicode="&#xac;" horiz-adv-x="1110" d="M131 344v29h848v-328h-27v299h-821z" />
<glyph unicode="&#xad;" horiz-adv-x="970" d="M197 492v24h512v-24h-512z" />
<glyph unicode="&#xae;" horiz-adv-x="1089" d="M131 426q0 167 121 291q123 123 293 123q173 0 293 -123t120 -291q0 -171 -120 -291q-120 -123 -293 -123q-170 0 -293 123q-121 121 -121 291zM290 426q0 -73 16.5 -142.5t47 -123.5t80.5 -87.5t111 -33.5q160 0 273.5 113.5t113.5 273.5t-113.5 273.5t-273.5 113.5 q-61 0 -111 -33.5t-80.5 -87.5t-47 -123.5t-16.5 -142.5zM446 184v484q114 32 213 -18q70 -35 84 -88q16 -60 -59 -97q-43 -21 -113 -29q44 1 75.5 -10t48.5 -27t28.5 -44.5t16 -52t10.5 -60t12 -58.5l-94 -10q-30 15 -43 59t-13 91q0 55 -32.5 74t-100.5 24v-238h-33z M479 455q2 0 25 1t28 2t24.5 4t26 7t19.5 11.5t17.5 18t9 26t4.5 34.5q-1 49 -47.5 73.5t-106.5 16.5v-194z" />
<glyph unicode="&#xaf;" horiz-adv-x="0" d="M-569 967v47l315 -33l-2 -45z" />
<glyph unicode="&#xb0;" horiz-adv-x="421" d="M135 1042q6 27 36 45.5t62 18.5q58 0 58 -53q0 -29 -32.5 -51.5t-68.5 -22.5q-73 0 -55 63zM158 1020q0 -19 30 -19q29 0 53.5 15.5t24.5 40.5q0 13 -10.5 20.5t-24.5 7.5q-29 0 -52.5 -18.5t-20.5 -46.5z" />
<glyph unicode="&#xb1;" horiz-adv-x="774" d="M131 193v24h512v-24h-512zM131 520v27h244v244h24v-244h244v-27h-244v-241h-24v241h-244z" />
<glyph unicode="&#xb2;" horiz-adv-x="403" d="M39 481q11 28 40.5 74t51.5 68q56 56 120 143t64 141q0 47 -69 47q-43 0 -70 -16q-24 -13 -38.5 -36t-16.5 -46q-3 -39 14 -49q29 -14 54 24t12 66l20 12q12 -27 0.5 -61.5t-39 -54.5t-55.5 -7q-43 25 -43 62q0 28 24 58.5t52 47.5q45 25 90 25q41 0 75 -25.5t40 -64.5 q5 -89 -177 -266q-12 -12 -37.5 -34.5t-37.5 -35.5q28 8 51 8q44 0 74 -24l16 -17q21 -29 37 -26q21 4 41 26l16 -12q-24 -30 -49 -37q-18 -5 -46.5 6.5t-41.5 24.5q-41 33 -76 33q-44 0 -69 -54h-27z" />
<glyph unicode="&#xb3;" horiz-adv-x="419" d="M41 618h29q-6 -48 18.5 -75.5t63.5 -34.5q16 -4 28 -4q48 0 82 33t43 81q19 104 -24 132q-15 12 -41 12q-24 0 -54 -19l-34 -28l-13 22q95 86 121 115q6 7 12.5 13.5t14 13.5t12.5 12q-38 8 -57 22l-17 15q-1 0 -6.5 3.5t-7 4.5t-6.5 4t-7 3.5t-7 2.5t-8 2.5t-7 1t-8 0 t-8 -1.5q-30 -10 -60 -57l-24 10q38 60 84 74q8 4 20 4q43 0 92 -29l19 -14q28 -20 33 -16q11 3 36 32l21 -16q-23 -33 -41 -41q-23 -19 -57 -57t-43 -47q31 0 59 -21q31 -24 47.5 -68t9.5 -88q-12 -58 -66 -96.5t-112 -38.5q-5 0 -18 1t-17 1q-47 9 -78.5 44t-23.5 93z" />
<glyph unicode="&#xb4;" horiz-adv-x="0" d="M-375 915q-1 8 66.5 104.5t79.5 108.5q0 1 6 0l12 -2t6 0q-7 -12 -31 -110.5t-26 -102.5q-6 0 -58 1t-55 1z" />
<glyph unicode="&#xb5;" horiz-adv-x="1030" d="M102 10q29 48 44.5 191.5t10 290.5t-31.5 204l170 11q35 -78 56 -175.5t18 -183.5q0 -2 13 -5t37.5 -5t51.5 -2q56 0 115.5 7t72.5 13q-8 90 2 185t54 143q27 35 71 25l142 -25q-29 10 -46.5 -25t-23.5 -96.5t-7.5 -124t-1.5 -119t-3 -69.5l-170 -2q-4 11 -7.5 40.5 t-6.5 37.5q-66 -19 -177 -19q-80 0 -118 10q-10 -184 -97 -321z" />
<glyph unicode="&#xb6;" d="M133 672q5 58 27.5 104t54 74.5t74.5 48t82.5 28.5t84 12.5t73 3t55.5 -2.5h14q70 -4 104 -16q12 35 39 55l17 -18q-21 -18 -31 -48q31 -16 43 -39q24 -37 -4 -69q-12 -12 -28.5 -16.5t-28.5 2.5q-32 11 -25 59q0 9 3.5 25.5t4.5 23.5q-41 14 -96 14h-16l-232 -913h-26 l114 451q-43 -19 -86 -19h-6l-111 -432h-24l108 436q-31 2 -75 27q-55 32 -84.5 88t-24.5 121zM350 459q49 0 94 28l109 428q-42 3 -86 -2zM711 848q-4 -32 6 -35q12 -6 28 10q13 19 3 39q-8 14 -31 27q-1 -5 -2.5 -13.5t-2.5 -15.5t-1 -12z" />
<glyph unicode="&#xb7;" horiz-adv-x="143" d="M39 190q0 14 9.5 23.5t23.5 9.5q13 0 22.5 -9.5t9.5 -23.5t-9 -23t-23 -9t-23.5 9.5t-9.5 22.5z" />
<glyph unicode="&#xb8;" horiz-adv-x="0" d="M-588 -367l13 25q64 -40 128 8q49 36 59 90q11 58 -40 76q-17 6 -39 6l35 146l39 -4l-31 -101q108 -29 115 -99q7 -59 -53 -113q-67 -59 -152 -55q-39 2 -74 21z" />
<glyph unicode="&#xb9;" horiz-adv-x="231" d="M39 856q24 11 54 42t49 56l18 25l30 8q1 -18 -10 -176q-16 -150 -26 -330h-52q0 27 19.5 196t32.5 253q-52 -71 -103 -94z" />
<glyph unicode="&#xba;" horiz-adv-x="307" d="M67 836.5q7 44.5 34.5 90t52.5 54.5q40 14 61.5 -7t26.5 -69v-16h-23v16q0 17 -7.5 34.5t-18.5 25.5q-18 8 -36 -6t-31 -39.5t-21 -47.5t-11 -36q-5 -17 -2 -34t21 -5q55 38 61 131l25 -4q-3 -42 -22.5 -83t-49.5 -65q-16 -12 -29 -12q-10 0 -14 4q-24 24 -17 68.5z" />
<glyph unicode="&#xbb;" horiz-adv-x="874" d="M197 0v27q26 16 98 60t116 70t58 31q-48 29 -151 106t-121 89v27q29 -17 146.5 -95.5t176.5 -107.5v-33q-23 -8 -173 -91zM420 0v27q26 16 98 60t116 70t58 31q-50 30 -157.5 110t-114.5 85v27q29 -17 146.5 -95.5t176.5 -107.5v-33q-23 -8 -173 -91z" />
<glyph unicode="&#xbc;" horiz-adv-x="964" d="M66 4l679 950l23 -14l-682 -950zM104 856q24 11 54 42t48 56l19 25l31 8q1 -18 -10 -176q-18 -171 -27 -330h-51q0 28 19 197t32 252q-53 -71 -102 -94zM575 258q0 13 14 27.5t29 19.5q18 4 41 -2q25 73 25 119q0 37 -25 65h29q29 -29 29 -98q0 -54 -17 -98 q8 -1 26.5 -9.5t21.5 -9.5q31 -15 40 -18q26 126 27 149h27q-9 -83 -21 -153q34 0 62 22l16 -16q-41 -27 -78 -27h-4q-13 -91 -31 -172l-12 -67l-51 -2q4 29 10 49q4 18 22 86.5t27 109.5q-34 11 -51 21q-4 1 -21 7.5t-26 8.5q-32 -61 -78 -47q-31 9 -31 35zM602 266 q-1 -6 4 -10q17 -6 43 29h-24q-8 -1 -15 -7t-8 -12z" />
<glyph unicode="&#xbd;" horiz-adv-x="946" d="M66 4l679 950l23 -14l-682 -950zM119 856q23 11 53 42t49 56l19 25l28 8q4 -29 -10 -176q-19 -233 -25 -330h-53q0 29 19.5 199t33.5 250q-59 -73 -104 -94zM557 -6q9 26 38.5 70.5t53.5 70.5q50 48 116 140t66 147q0 47 -67 47q-39 0 -72 -20h2q-24 -13 -38.5 -35.5 t-16.5 -46.5q-6 -37 12 -50q31 -13 55 25t11 68l22 12q12 -28 0.5 -62.5t-39 -54t-55.5 -6.5q-43 22 -43 61q0 29 23 58.5t53 50.5q48 23 88 23q42 0 76.5 -26t38.5 -65q7 -89 -174 -266q-10 -11 -37.5 -34t-38.5 -38q21 9 51 9q46 0 74 -25l16 -16q23 -27 37 -27 q18 3 41 29l16 -13q-22 -27 -51 -38q-17 -7 -44 5t-42 25q-36 33 -76 33q-46 0 -69 -53z" />
<glyph unicode="&#xbe;" horiz-adv-x="1032" d="M68 618h26q-4 -48 20.5 -75.5t61.5 -34.5q20 -4 31 -4q48 0 82 33t43 81q19 104 -25 132q-15 12 -41 12q-23 0 -53 -19l-37 -28l-10 22q95 86 121 115q5 7 11.5 13.5t14.5 13.5t13 12q-39 8 -60 22l-16 15q-39 26 -64 20q-28 -9 -59 -57l-25 10q38 60 82 74q12 4 23 4 q43 0 92 -29l18 -14q27 -20 31 -16q6 1 11.5 5t8.5 7t9.5 10t9.5 10l19 -16q-20 -33 -39 -41q-23 -19 -58 -57.5t-43 -46.5q28 0 60 -21q30 -24 47 -68.5t10 -87.5q-13 -58 -66.5 -96.5t-111.5 -38.5q-6 0 -19 1t-18 1q-46 9 -77 44t-23 93zM143 4l680 950l23 -14l-682 -950 zM643 258q0 13 14 27.5t29 19.5q16 3 41 -2q25 73 25 119q0 38 -27 65h31q26 -29 26 -98q0 -63 -16 -98q7 -1 15.5 -4t18 -8t15.5 -7q31 -16 41 -18q26 126 27 149h24l-18 -153q33 0 61 22l17 -16q-41 -27 -78 -27h-4l-31 -172l-14 -67l-49 -2q4 29 8 49q35 131 49 196 q-36 13 -51 21q-35 13 -45 16q-32 -62 -80 -47q-29 9 -29 35zM670 269q-3 -9 4 -13q17 -6 43 29h-25q-16 -2 -22 -16z" />
<glyph unicode="&#xbf;" horiz-adv-x="1220" d="M233 170q44 -80 121.5 -130.5t164.5 -65t177 4t161.5 65.5t115.5 131.5t41 191.5l-21 2q-7 -77 -32 -139.5t-57.5 -100.5t-72.5 -65.5t-70.5 -39t-58.5 -16.5q-216 -41 -269 87q-41 100 26 261q59 143 161 236q6 5 11 10q65 56 105.5 103t71 108t41 136.5t3.5 174.5 q-43 -101 -76 -162t-72.5 -103.5t-71.5 -66.5t-99.5 -74.5t-129.5 -103.5q-273 -232 -170 -444zM782 1393q0 33 25.5 57.5t56.5 24.5q34 0 58 -24t24 -58q0 -36 -24 -59t-58 -23q-32 0 -57 23.5t-25 58.5z" />
<glyph unicode="&#xc0;" horiz-adv-x="2607" d="M4 -389q13 86 113.5 163.5t195.5 98.5q103 21 218.5 23t240.5 -27t209 -84l-14 -25q-84 54 -206.5 82.5t-234 26.5t-209.5 -23q-93 -23 -181.5 -94t-106.5 -149q-16 -91 73 -162q118 -88 299 -72q100 10 193 57t166 114t143.5 164t121.5 189.5t103 209t86 204t73 192.5 q24 67 36 97l76 192q-78 49 -139.5 78.5t-131.5 50t-139 15.5t-139 -35q14 -79 -41 -104q-23 -12 -49.5 -10.5t-36.5 20.5q-26 42 61 92l35 18q-7 22 -24.5 34t-40 14.5t-43 1t-39.5 -6.5q-94 -22 -173.5 -82.5t-76.5 -121.5h-29q-3 70 85.5 139.5t189.5 91.5q70 15 117 -1 t61 -58q72 30 142 35t141.5 -15t134.5 -50.5t145 -80.5q124 304 378 496.5t609 267.5l27 6q27 -51 -39.5 -466.5t-140.5 -747.5q60 -25 108 -30t91.5 11t82 49t82.5 88v-43q-87 -98 -177 -122.5t-194 18.5q-12 -61 -33.5 -138t-37 -130t-27 -106.5t-8 -93t23.5 -65.5 q30 -40 87 -40l-5 -27q-70 11 -120.5 51t-75.5 100.5t-38 127.5t-11.5 144t7.5 136.5t17 118.5q-197 94 -430 248l-55 -146q-43 -113 -66.5 -171.5t-66 -159t-77.5 -164.5t-83 -142.5t-102 -141.5t-115 -116q-105 -95 -278.5 -180t-338.5 -104q-203 -17 -321 79 q-59 48 -72.5 95t-5.5 96zM748 815q2 -6 17.5 -5.5t33.5 9.5q34 17 26 66l-26 -13q-64 -40 -51 -57zM1595 692q172 -110 258.5 -160.5t167.5 -85.5q60 249 130 472.5t117.5 348.5t111.5 277q-127 -30 -233 -90.5t-183 -134.5t-147 -181.5t-118.5 -208t-103.5 -237.5z M2286 1987l24 2q12 -12 79.5 -108.5t66.5 -104.5q-2 0 -55 -1t-58 -1q-2 4 -26 102.5t-31 110.5z" />
<glyph unicode="&#xc1;" horiz-adv-x="2607" d="M4 -389q13 86 113.5 163.5t195.5 98.5q103 21 218.5 23t240.5 -27t209 -84l-14 -25q-84 54 -206.5 82.5t-234 26.5t-209.5 -23q-93 -23 -181.5 -94t-106.5 -149q-16 -91 73 -162q118 -88 299 -72q100 10 193 57t166 114t143.5 164t121.5 189.5t103 209t86 204t73 192.5 q24 67 36 97l76 192q-78 49 -139.5 78.5t-131.5 50t-139 15.5t-139 -35q14 -79 -41 -104q-23 -12 -49.5 -10.5t-36.5 20.5q-26 42 61 92l35 18q-7 22 -24.5 34t-40 14.5t-43 1t-39.5 -6.5q-94 -22 -173.5 -82.5t-76.5 -121.5h-29q-3 70 85.5 139.5t189.5 91.5q70 15 117 -1 t61 -58q72 30 142 35t141.5 -15t134.5 -50.5t145 -80.5q124 304 378 496.5t609 267.5l27 6q27 -51 -39.5 -466.5t-140.5 -747.5q60 -25 108 -30t91.5 11t82 49t82.5 88v-43q-87 -98 -177 -122.5t-194 18.5q-12 -61 -33.5 -138t-37 -130t-27 -106.5t-8 -93t23.5 -65.5 q30 -40 87 -40l-5 -27q-70 11 -120.5 51t-75.5 100.5t-38 127.5t-11.5 144t7.5 136.5t17 118.5q-197 94 -430 248l-55 -146q-43 -113 -66.5 -171.5t-66 -159t-77.5 -164.5t-83 -142.5t-102 -141.5t-115 -116q-105 -95 -278.5 -180t-338.5 -104q-203 -17 -321 79 q-59 48 -72.5 95t-5.5 96zM748 815q2 -6 17.5 -5.5t33.5 9.5q34 17 26 66l-26 -13q-64 -40 -51 -57zM1595 692q172 -110 258.5 -160.5t167.5 -85.5q60 249 130 472.5t117.5 348.5t111.5 277q-127 -30 -233 -90.5t-183 -134.5t-147 -181.5t-118.5 -208t-103.5 -237.5z M2288 1735q-1 8 66 104.5t79 108.5q0 1 6.5 0t12.5 -2t6 0q-7 -12 -31.5 -110.5t-26.5 -102.5q-6 0 -58 1t-54 1z" />
<glyph unicode="&#xc2;" horiz-adv-x="2607" d="M4 -389q13 86 113.5 163.5t195.5 98.5q103 21 218.5 23t240.5 -27t209 -84l-14 -25q-84 54 -206.5 82.5t-234 26.5t-209.5 -23q-93 -23 -181.5 -94t-106.5 -149q-16 -91 73 -162q118 -88 299 -72q100 10 193 57t166 114t143.5 164t121.5 189.5t103 209t86 204t73 192.5 q24 67 36 97l76 192q-78 49 -139.5 78.5t-131.5 50t-139 15.5t-139 -35q14 -79 -41 -104q-23 -12 -49.5 -10.5t-36.5 20.5q-26 42 61 92l35 18q-7 22 -24.5 34t-40 14.5t-43 1t-39.5 -6.5q-94 -22 -173.5 -82.5t-76.5 -121.5h-29q-3 70 85.5 139.5t189.5 91.5q70 15 117 -1 t61 -58q72 30 142 35t141.5 -15t134.5 -50.5t145 -80.5q124 304 378 496.5t609 267.5l27 6q27 -51 -39.5 -466.5t-140.5 -747.5q60 -25 108 -30t91.5 11t82 49t82.5 88v-43q-87 -98 -177 -122.5t-194 18.5q-12 -61 -33.5 -138t-37 -130t-27 -106.5t-8 -93t23.5 -65.5 q30 -40 87 -40l-5 -27q-70 11 -120.5 51t-75.5 100.5t-38 127.5t-11.5 144t7.5 136.5t17 118.5q-197 94 -430 248l-55 -146q-43 -113 -66.5 -171.5t-66 -159t-77.5 -164.5t-83 -142.5t-102 -141.5t-115 -116q-105 -95 -278.5 -180t-338.5 -104q-203 -17 -321 79 q-59 48 -72.5 95t-5.5 96zM748 815q2 -6 17.5 -5.5t33.5 9.5q34 17 26 66l-26 -13q-64 -40 -51 -57zM1595 692q172 -110 258.5 -160.5t167.5 -85.5q60 249 130 472.5t117.5 348.5t111.5 277q-127 -30 -233 -90.5t-183 -134.5t-147 -181.5t-118.5 -208t-103.5 -237.5z M2202 1776q19 23 52 62t59 71.5t48 62.5l31 -16q5 -5 48.5 -100t43.5 -103l-16 -35q-40 15 -75.5 74t-31.5 117q-21 -22 -65.5 -76.5t-71.5 -81.5z" />
<glyph unicode="&#xc3;" horiz-adv-x="2607" d="M4 -389q13 86 113.5 163.5t195.5 98.5q103 21 218.5 23t240.5 -27t209 -84l-14 -25q-84 54 -206.5 82.5t-234 26.5t-209.5 -23q-93 -23 -181.5 -94t-106.5 -149q-16 -91 73 -162q118 -88 299 -72q100 10 193 57t166 114t143.5 164t121.5 189.5t103 209t86 204t73 192.5 q24 67 36 97l76 192q-78 49 -139.5 78.5t-131.5 50t-139 15.5t-139 -35q14 -79 -41 -104q-23 -12 -49.5 -10.5t-36.5 20.5q-26 42 61 92l35 18q-7 22 -24.5 34t-40 14.5t-43 1t-39.5 -6.5q-94 -22 -173.5 -82.5t-76.5 -121.5h-29q-3 70 85.5 139.5t189.5 91.5q70 15 117 -1 t61 -58q72 30 142 35t141.5 -15t134.5 -50.5t145 -80.5q124 304 378 496.5t609 267.5l27 6q27 -51 -39.5 -466.5t-140.5 -747.5q60 -25 108 -30t91.5 11t82 49t82.5 88v-43q-87 -98 -177 -122.5t-194 18.5q-12 -61 -33.5 -138t-37 -130t-27 -106.5t-8 -93t23.5 -65.5 q30 -40 87 -40l-5 -27q-70 11 -120.5 51t-75.5 100.5t-38 127.5t-11.5 144t7.5 136.5t17 118.5q-197 94 -430 248l-55 -146q-43 -113 -66.5 -171.5t-66 -159t-77.5 -164.5t-83 -142.5t-102 -141.5t-115 -116q-105 -95 -278.5 -180t-338.5 -104q-203 -17 -321 79 q-59 48 -72.5 95t-5.5 96zM748 815q2 -6 17.5 -5.5t33.5 9.5q34 17 26 66l-26 -13q-64 -40 -51 -57zM1595 692q172 -110 258.5 -160.5t167.5 -85.5q60 249 130 472.5t117.5 348.5t111.5 277q-127 -30 -233 -90.5t-183 -134.5t-147 -181.5t-118.5 -208t-103.5 -237.5z M1896 1817q36 48 82 78t90 36q41 13 110.5 0t107.5 -45q8 -6 27.5 -21.5t26.5 -20.5t24 -16.5t25.5 -14t24 -6.5t26 -0.5t25 8.5t29 17.5t29.5 29.5l25 -29q-21 -24 -64.5 -45t-66.5 -21q-61 -17 -118.5 2t-90.5 52q-14 11 -35 31t-33 30.5t-32.5 17.5t-43.5 3 q-62 -12 -135 -103z" />
<glyph unicode="&#xc4;" horiz-adv-x="2607" d="M4 -389q-8 -49 5.5 -96t72.5 -95q118 -96 321 -79q165 19 338.5 104t278.5 180q61 53 115 116t102 141.5t83 142.5t77.5 164.5t66 159t66.5 171.5l55 146q233 -154 430 -248q-11 -59 -17 -118.5t-7.5 -136.5t11.5 -144t38 -127.5t75.5 -100.5t120.5 -51l5 27 q-57 0 -87 40q-20 26 -23.5 65.5t8 93t27 106.5t37 130t33.5 138q104 -43 194 -18.5t177 122.5v43q-44 -55 -82.5 -88t-82 -49t-91.5 -11t-108 30q74 332 140.5 747.5t39.5 466.5l-27 -6q-355 -75 -609 -267.5t-378 -496.5q-82 50 -145 80.5t-134.5 50.5t-141.5 15t-142 -35 q-14 42 -61 58t-117 1q-101 -22 -189.5 -91.5t-85.5 -139.5h29q-3 61 76.5 121.5t173.5 82.5q19 5 39.5 6.5t43 -1t40 -14.5t24.5 -34l-35 -18q-87 -50 -61 -92q10 -19 36.5 -20.5t49.5 10.5q55 25 41 104q70 30 139 35t139 -15.5t131.5 -50t139.5 -78.5l-76 -192 q-12 -30 -36 -97q-129 -346 -220 -526q-256 -504 -581 -589q-42 -11 -85 -15q-181 -16 -299 72q-89 71 -73 162q18 78 106.5 149t181.5 94q98 21 209.5 23t234 -26.5t206.5 -82.5l14 25q-84 55 -209 84t-240.5 27t-218.5 -23q-95 -21 -195.5 -98.5t-113.5 -163.5zM748 815 q-13 17 51 57l26 13q8 -49 -26 -66q-18 -9 -33.5 -9.5t-17.5 5.5zM1595 692q55 137 103.5 237.5t118.5 208t147 181.5t183 134.5t233 90.5q-64 -152 -111.5 -277t-117.5 -348.5t-130 -472.5q-81 35 -167.5 85.5t-258.5 160.5zM2062 1802q0 26 14 43t38 17q23 0 38 -17.5 t15 -42.5q0 -24 -15 -42.5t-38 -18.5q-24 0 -38 18t-14 43zM2400 1780q0 25 15.5 42t38.5 17q22 0 37.5 -17t15.5 -42q0 -26 -15.5 -44t-37.5 -18q-23 0 -38.5 18t-15.5 44z" />
<glyph unicode="&#xc5;" horiz-adv-x="2607" d="M4 -389q13 86 113.5 163.5t195.5 98.5q103 21 218.5 23t240.5 -27t209 -84l-14 -25q-84 54 -206.5 82.5t-234 26.5t-209.5 -23q-93 -23 -181.5 -94t-106.5 -149q-16 -91 73 -162q118 -88 299 -72q100 10 193 57t166 114t143.5 164t121.5 189.5t103 209t86 204t73 192.5 q24 67 36 97l76 192q-78 49 -139.5 78.5t-131.5 50t-139 15.5t-139 -35q14 -79 -41 -104q-23 -12 -49.5 -10.5t-36.5 20.5q-26 42 61 92l35 18q-7 22 -24.5 34t-40 14.5t-43 1t-39.5 -6.5q-94 -22 -173.5 -82.5t-76.5 -121.5h-29q-3 70 85.5 139.5t189.5 91.5q70 15 117 -1 t61 -58q72 30 142 35t141.5 -15t134.5 -50.5t145 -80.5q124 304 378 496.5t609 267.5l27 6q27 -51 -39.5 -466.5t-140.5 -747.5q60 -25 108 -30t91.5 11t82 49t82.5 88v-43q-87 -98 -177 -122.5t-194 18.5q-12 -61 -33.5 -138t-37 -130t-27 -106.5t-8 -93t23.5 -65.5 q30 -40 87 -40l-5 -27q-70 11 -120.5 51t-75.5 100.5t-38 127.5t-11.5 144t7.5 136.5t17 118.5q-197 94 -430 248l-55 -146q-43 -113 -66.5 -171.5t-66 -159t-77.5 -164.5t-83 -142.5t-102 -141.5t-115 -116q-105 -95 -278.5 -180t-338.5 -104q-203 -17 -321 79 q-59 48 -72.5 95t-5.5 96zM748 815q2 -6 17.5 -5.5t33.5 9.5q34 17 26 66l-26 -13q-64 -40 -51 -57zM1595 692q172 -110 258.5 -160.5t167.5 -85.5q60 249 130 472.5t117.5 348.5t111.5 277q-127 -30 -233 -90.5t-183 -134.5t-147 -181.5t-118.5 -208t-103.5 -237.5z M2216 1803q2 37 25 79q25 44 71 61.5t87 7t67 -52t16 -102.5q-12 -77 -83 -105q-65 -24 -124 6q-65 33 -59 106zM2277 1841q-28 -60 16 -92q36 -27 83 -12q53 18 57 80q4 48 -28.5 68.5t-72 7t-55.5 -51.5z" />
<glyph unicode="&#xc6;" horiz-adv-x="3350" d="M4 -389q13 84 114.5 162.5t196.5 99.5q102 21 217 22.5t240 -28t209 -84.5l-12 -23q-85 54 -208 82t-234.5 26t-209.5 -22q-93 -25 -181.5 -96t-106.5 -147q-13 -95 73 -164q118 -88 299 -72q98 9 186.5 48t156 93.5t131.5 136t109.5 159t94 180.5t80.5 182.5t74 182 t70 163.5q-53 -4 -124 -5.5t-173.5 1t-201 17t-190.5 39t-159 70.5t-90 107q-16 43 14.5 95.5t107.5 107.5l21 -18q-145 -101 -117 -178q26 -64 112 -110t194 -67t232.5 -30.5t220 -8t163.5 8.5q71 184 174.5 348.5t238.5 305t307.5 240.5t364.5 142l25 2l-8 -23l-37 -112 l-23 -70q98 109 254 154q93 26 177.5 17.5t148.5 -48.5q41 47 94 82l14 -25q-50 -27 -86 -75q54 -34 78 -110.5t-6 -145.5q-23 -45 -75.5 -49.5t-82.5 34.5q-69 86 49 267q-123 79 -303 28q-79 -22 -133 -109.5t-70.5 -187.5t-3 -192t57.5 -125q36 17 112 33q28 5 77 7.5 t115 -6.5t91 -36q23 -27 14 -62q-14 -51 -60 -72.5t-118 -9.5q-117 22 -237 113q-50 -29 -87.5 -109t-55 -181t-11 -211t35.5 -201t93.5 -150t155.5 -59h6q85 2 172.5 36.5t158.5 82.5t152 125.5t137.5 141.5t131.5 156v-43q-8 -10 -26 -31q-45 -54 -72 -85t-81.5 -89 t-96 -94.5t-103.5 -83t-117 -74t-122.5 -47.5t-133.5 -22q-59 0 -88 4q-127 15 -234.5 76t-154.5 164q-45 102 -45 213q-88 -418 -2 -529q26 -39 84 -39l-2 -28q-80 1 -139 45.5t-88.5 115.5t-45 157t-13.5 174t12 162.5t26 125.5h-4q3 0 -54 -7.5t-151.5 -18.5t-171.5 -19 q-52 -134 -80 -204.5t-81 -187.5t-98 -191.5t-110 -159.5t-137 -148q-109 -95 -282 -180t-334 -102q-201 -20 -322 79q-60 48 -74 95t-6 96zM1540 545l375 39q28 112 81.5 244t99 224t119 218t94.5 159.5t73 114.5q-80 -20 -151 -51t-129.5 -67.5t-113.5 -88.5t-97.5 -101.5 t-85.5 -118.5t-74.5 -127.5t-68 -141t-62 -147t-60.5 -156.5zM2126 594l12 20q43 83 125 151.5t176 111.5q-141 122 -166 239q-77 -250 -147 -522zM2490 870q118 -83 213 -100q47 -8 91.5 3.5t56.5 57.5q6 23 -6 37q-19 22 -77.5 29.5t-104.5 5t-76 -7.5q-45 -8 -97 -25z M2894 1225q20 -27 58.5 -24.5t51.5 32.5q26 65 3.5 130t-68.5 95q-97 -163 -45 -233z" />
<glyph unicode="&#xc7;" horiz-adv-x="1318" d="M8 463q-22 168 26 358t154 359q50 80 121.5 151t159 126t191.5 77.5t204 1.5q130 -25 213 -108.5t84 -200.5q45 26 156 73l18 -18q-135 -62 -174 -86q-3 -50 -20 -96q-18 -53 -49.5 -88.5t-63.5 -18.5q-27 12 -26.5 41.5t16 56t37.5 50.5q31 37 80 67q1 112 -78 195 t-205 108q-169 36 -327 -155q-143 -175 -224 -466q-84 -296 -56 -539q29 -256 175 -335q49 -26 110 -30q113 -6 209 19.5t191 91t184.5 156.5t204.5 234v-43q-108 -131 -192 -216t-175 -149.5t-184.5 -93t-202.5 -28.5l2 -98q112 -30 122 -107q8 -65 -54 -126 q-66 -66 -153 -68q-48 -1 -91 22l17 33q62 -44 128 6q52 38 66 99q15 66 -34 90q-19 9 -46 10l4 141q-102 4 -195 50t-159 117.5t-109 159t-55 177.5zM1026.5 1034.5q1.5 -12.5 13.5 -18.5q18 -8 40.5 24.5t37.5 69.5q12 34 15 66q-41 -28 -64 -58q-11 -13 -20 -26.5 t-16.5 -29t-6 -28z" />
<glyph unicode="&#xc8;" horiz-adv-x="1134" d="M2 311q1 110 51 225.5t137.5 207t190.5 130.5q-90 45 -162 134q-49 73 -38 176.5t69 195.5q53 84 133.5 133.5t165.5 56.5t165.5 -15t142 -81.5t85.5 -142.5q86 47 160 74l18 -19q-13 -6 -43.5 -19.5t-47 -21t-40.5 -20.5t-43 -25q9 -43 -8 -98q-17 -50 -54 -85t-71 -19 q-27 13 -26.5 42.5t16 56t37.5 50.5q31 33 78 66q-17 66 -60 121q-103 131 -234 93q-102 -30 -180 -150q-86 -133 -86 -284q0 -115 56 -202q44 21 90 34t94 15.5t78 -16.5q31 -19 35.5 -57t-33.5 -52q-39 -13 -113.5 0t-152.5 47q-72 -45 -125 -203t-58 -329 q-4 -116 39.5 -194t114 -106.5t158.5 -17t172 63.5q98 58 199.5 158t222.5 253v-43q-231 -283 -404 -391q-226 -135 -469 -73q-134 35 -198 123t-62 208zM446 877q69 -26 132.5 -36.5t91.5 -0.5q20 8 15.5 29.5t-23.5 31.5q-61 35 -216 -24zM504 1946l24 2 q12 -12 79.5 -108.5t66.5 -104.5q-2 0 -55 -1t-58 -1q-2 4 -26 102.5t-31 110.5zM811.5 1148.5q-4.5 -20.5 13.5 -26.5q20 -8 48 22.5t40 65.5q14 57 9 74q-44 -30 -66 -59q-16 -17 -28 -36.5t-16.5 -40z" />
<glyph unicode="&#xc9;" horiz-adv-x="1134" d="M2 311q1 110 51 225.5t137.5 207t190.5 130.5q-90 45 -162 134q-49 73 -38 176.5t69 195.5q53 84 133.5 133.5t165.5 56.5t165.5 -15t142 -81.5t85.5 -142.5q86 47 160 74l18 -19q-13 -6 -43.5 -19.5t-47 -21t-40.5 -20.5t-43 -25q9 -43 -8 -98q-17 -50 -54 -85t-71 -19 q-27 13 -26.5 42.5t16 56t37.5 50.5q31 33 78 66q-17 66 -60 121q-103 131 -234 93q-102 -30 -180 -150q-86 -133 -86 -284q0 -115 56 -202q44 21 90 34t94 15.5t78 -16.5q31 -19 35.5 -57t-33.5 -52q-39 -13 -113.5 0t-152.5 47q-72 -45 -125 -203t-58 -329 q-4 -116 39.5 -194t114 -106.5t158.5 -17t172 63.5q98 58 199.5 158t222.5 253v-43q-231 -283 -404 -391q-226 -135 -469 -73q-134 35 -198 123t-62 208zM446 877q69 -26 132.5 -36.5t91.5 -0.5q20 8 15.5 29.5t-23.5 31.5q-61 35 -216 -24zM588 1735q-1 8 66 104.5 t79 108.5q0 1 6.5 0t12.5 -2t6 0q-7 -12 -31.5 -110.5t-26.5 -102.5q-6 0 -58 1t-54 1zM811.5 1148.5q-4.5 -20.5 13.5 -26.5q20 -8 48 22.5t40 65.5q14 57 9 74q-44 -30 -66 -59q-16 -17 -28 -36.5t-16.5 -40z" />
<glyph unicode="&#xca;" horiz-adv-x="1134" d="M2 311q1 110 51 225.5t137.5 207t190.5 130.5q-90 45 -162 134q-49 73 -38 176.5t69 195.5q53 84 133.5 133.5t165.5 56.5t165.5 -15t142 -81.5t85.5 -142.5q86 47 160 74l18 -19q-13 -6 -43.5 -19.5t-47 -21t-40.5 -20.5t-43 -25q9 -43 -8 -98q-17 -50 -54 -85t-71 -19 q-27 13 -26.5 42.5t16 56t37.5 50.5q31 33 78 66q-17 66 -60 121q-103 131 -234 93q-102 -30 -180 -150q-86 -133 -86 -284q0 -115 56 -202q44 21 90 34t94 15.5t78 -16.5q31 -19 35.5 -57t-33.5 -52q-39 -13 -113.5 0t-152.5 47q-72 -45 -125 -203t-58 -329 q-4 -116 39.5 -194t114 -106.5t158.5 -17t172 63.5q98 58 199.5 158t222.5 253v-43q-231 -283 -404 -391q-226 -135 -469 -73q-134 35 -198 123t-62 208zM446 877q69 -26 132.5 -36.5t91.5 -0.5q20 8 15.5 29.5t-23.5 31.5q-61 35 -216 -24zM522 1755q6 8 68.5 82.5 t91.5 114.5l31 -17q5 -5 48.5 -99.5t43.5 -102.5l-17 -35q-40 15 -75 73.5t-31 116.5q-20 -22 -65 -76t-72 -81zM811.5 1148.5q-4.5 -20.5 13.5 -26.5q20 -8 48 22.5t40 65.5q14 57 9 74q-44 -30 -66 -59q-16 -17 -28 -36.5t-16.5 -40z" />
<glyph unicode="&#xcb;" horiz-adv-x="1134" d="M2 311q-2 -120 62 -208t198 -123q243 -62 469 73q173 108 404 391v43q-121 -153 -222.5 -253t-199.5 -158q-84 -52 -172 -63.5t-158.5 17t-114 106.5t-39.5 194q5 171 58 329t125 203q78 -34 152.5 -47t113.5 0q38 14 33.5 52t-35.5 57q-30 19 -78 16.5t-94 -15.5 t-90 -34q-84 131 -44 309q32 147 129 246q100 103 208 87q83 -12 151 -99q43 -55 60 -121q-47 -33 -78 -66q-22 -24 -37.5 -50.5t-16 -56t26.5 -42.5q34 -16 71 19t54 85q17 55 8 98q19 12 43 25t40.5 20.5t47 21t43.5 19.5l-18 19q-74 -27 -160 -74q-24 83 -85.5 142.5 t-142 81.5t-165.5 15t-165.5 -56.5t-133.5 -133.5q-58 -92 -69 -195.5t38 -176.5q72 -89 162 -134q-103 -39 -190.5 -130.5t-137.5 -207t-51 -225.5zM383 1802q0 26 13.5 43t37.5 17q23 0 38 -17.5t15 -42.5q0 -24 -15 -42.5t-38 -18.5q-24 0 -37.5 18t-13.5 43zM446 877 q155 59 216 24q19 -10 23.5 -31.5t-15.5 -29.5q-28 -10 -91.5 0.5t-132.5 36.5zM721 1780q0 25 15 42t38 17q22 0 37.5 -17t15.5 -42q0 -26 -15.5 -44t-37.5 -18q-23 0 -38 18t-15 44zM811.5 1148.5q4.5 20.5 16.5 40t28 36.5q22 29 66 59q5 -17 -9 -74q-12 -35 -40 -65.5 t-48 -22.5q-18 6 -13.5 26.5z" />
<glyph unicode="&#xcc;" horiz-adv-x="1286" d="M4.5 185.5q7.5 48.5 40.5 97.5l25 -15q-81 -120 -15 -198q50 -65 144.5 -84t173.5 16q84 34 150 94t106.5 124.5t76 158t54 165.5t45.5 176.5t45 164.5q72 238 209 508q-128 -39 -367 -82q-27 -5 -83 -14q-77 -12 -117.5 -19.5t-112 -26t-111.5 -38.5t-90 -55t-74 -78 t-38.5 -105.5t-6.5 -138.5q5 -56 34 -111.5t73.5 -94t99.5 -54.5t113 6l10 -27q-68 -22 -130 -4.5t-110 60t-79 102.5t-37 123q-7 80 6.5 145t42 111t73 81.5t94.5 58.5t111.5 40t120 28.5t122.5 22.5q56 9 83 14q272 50 385 88q26 47 82 95.5t114.5 78t111.5 39t73 -19.5 q16 -21 17 -43t-12.5 -41.5t-34 -38t-50.5 -35t-59 -30t-62 -25.5q-36 -69 -62 -154t-52 -195.5t-47 -176.5q-10 -33 -30 -101q-21 -71 -32.5 -108t-33.5 -105t-38.5 -106.5t-43 -98t-51 -96.5t-59.5 -84.5t-71 -79.5t-82.5 -64t-97.5 -54q-66 -29 -169 -34t-204 22t-145 83 q-18 23 -27 53.5t-1.5 79zM668 1802l24 2q12 -12 79.5 -108.5t66.5 -104.5q-2 0 -55 -1t-58 -1q-2 4 -26 102.5t-31 110.5zM1268 1440q87 38 141 79.5t27 75.5q-44 59 -140 -106q-7 -11 -17 -30q-8 -14 -11 -19z" />
<glyph unicode="&#xcd;" horiz-adv-x="1286" d="M4.5 185.5q7.5 48.5 40.5 97.5l25 -15q-81 -120 -15 -198q50 -65 144.5 -84t173.5 16q84 34 150 94t106.5 124.5t76 158t54 165.5t45.5 176.5t45 164.5q72 238 209 508q-128 -39 -367 -82q-27 -5 -83 -14q-77 -12 -117.5 -19.5t-112 -26t-111.5 -38.5t-90 -55t-74 -78 t-38.5 -105.5t-6.5 -138.5q5 -56 34 -111.5t73.5 -94t99.5 -54.5t113 6l10 -27q-68 -22 -130 -4.5t-110 60t-79 102.5t-37 123q-7 80 6.5 145t42 111t73 81.5t94.5 58.5t111.5 40t120 28.5t122.5 22.5q56 9 83 14q272 50 385 88q26 47 82 95.5t114.5 78t111.5 39t73 -19.5 q16 -21 17 -43t-12.5 -41.5t-34 -38t-50.5 -35t-59 -30t-62 -25.5q-36 -69 -62 -154t-52 -195.5t-47 -176.5q-10 -33 -30 -101q-21 -71 -32.5 -108t-33.5 -105t-38.5 -106.5t-43 -98t-51 -96.5t-59.5 -84.5t-71 -79.5t-82.5 -64t-97.5 -54q-66 -29 -169 -34t-204 22t-145 83 q-18 23 -27 53.5t-1.5 79zM670 1612q-1 8 66 104.5t79 108.5q0 1 6.5 0t12.5 -2t6 0q-7 -12 -31.5 -110.5t-26.5 -102.5q-6 0 -58 1t-54 1zM1268 1440q87 38 141 79.5t27 75.5q-44 59 -140 -106q-7 -11 -17 -30q-8 -14 -11 -19z" />
<glyph unicode="&#xce;" horiz-adv-x="1286" d="M4.5 185.5q7.5 48.5 40.5 97.5l25 -15q-81 -120 -15 -198q50 -65 144.5 -84t173.5 16q84 34 150 94t106.5 124.5t76 158t54 165.5t45.5 176.5t45 164.5q72 238 209 508q-128 -39 -367 -82q-27 -5 -83 -14q-77 -12 -117.5 -19.5t-112 -26t-111.5 -38.5t-90 -55t-74 -78 t-38.5 -105.5t-6.5 -138.5q5 -56 34 -111.5t73.5 -94t99.5 -54.5t113 6l10 -27q-68 -22 -130 -4.5t-110 60t-79 102.5t-37 123q-7 80 6.5 145t42 111t73 81.5t94.5 58.5t111.5 40t120 28.5t122.5 22.5q56 9 83 14q272 50 385 88q26 47 82 95.5t114.5 78t111.5 39t73 -19.5 q16 -21 17 -43t-12.5 -41.5t-34 -38t-50.5 -35t-59 -30t-62 -25.5q-36 -69 -62 -154t-52 -195.5t-47 -176.5q-10 -33 -30 -101q-21 -71 -32.5 -108t-33.5 -105t-38.5 -106.5t-43 -98t-51 -96.5t-59.5 -84.5t-71 -79.5t-82.5 -64t-97.5 -54q-66 -29 -169 -34t-204 22t-145 83 q-18 23 -27 53.5t-1.5 79zM604 1653q10 13 70.5 84.5t89.5 111.5l31 -16q5 -5 48.5 -100t43.5 -103l-17 -35q-39 14 -74.5 73.5t-31.5 117.5q-21 -22 -65.5 -76.5t-71.5 -81.5zM1268 1440q87 38 141 79.5t27 75.5q-44 59 -140 -106q-7 -11 -17 -30q-8 -14 -11 -19z" />
<glyph unicode="&#xcf;" horiz-adv-x="1286" d="M4.5 185.5q-7.5 -48.5 1.5 -79t27 -53.5q44 -56 145 -83t204 -22t169 34t123 72t99 88.5t81 111t64.5 118.5t54.5 133.5t45.5 133.5t41.5 139q20 68 30 101q21 66 47 176.5t52 195.5t62 154q33 12 62 25.5t59 30t50.5 35t34 38t12.5 41.5t-17 43q-20 29 -73 19.5 t-111.5 -39t-114.5 -78t-82 -95.5q-113 -38 -385 -88q-27 -5 -83 -14q-214 -37 -309 -72q-200 -76 -247 -239q-23 -77 -14 -176q6 -63 37 -123t79 -102.5t110 -60t130 4.5l-10 27q-58 -22 -113 -6t-99.5 54.5t-73.5 94t-34 111.5q-11 105 21 184.5t76.5 123.5t137.5 78 t148.5 45.5t166.5 29.5q19 3 29 5t26 4.5t28 4.5q239 43 367 82q-137 -270 -209 -508q-18 -60 -45 -164.5t-45.5 -176.5t-54 -165.5t-76 -158t-106.5 -124.5t-150 -94q-79 -35 -173.5 -16t-144.5 84q-66 78 15 198l-25 15q-33 -49 -40.5 -97.5zM793 1802q0 26 13.5 43 t37.5 17q23 0 38 -17.5t15 -42.5q0 -24 -15 -42.5t-38 -18.5q-24 0 -37.5 18t-13.5 43zM1130 1780q0 25 15.5 42t38.5 17q22 0 37.5 -17t15.5 -42q0 -26 -15.5 -44t-37.5 -18q-23 0 -38.5 18t-15.5 44zM1268 1440q54 93 71 116q63 85 97 39q27 -34 -27 -75.5t-141 -79.5z " />
<glyph unicode="&#xd0;" horiz-adv-x="1820" d="M0 -201l8 21q60 4 115 43.5t98.5 100t87.5 154t77.5 185.5t72.5 215q-74 -3 -136.5 14.5t-106.5 49.5t-77 77t-52 95.5t-28 106t-7.5 108.5t11.5 102q22 103 87 192t165 150q163 106 375 129q80 15 158 12q77 108 186.5 166t194.5 62l6 -23q-35 -7 -99.5 -77t-99.5 -130 q189 -18 333 -134t212.5 -297.5t46.5 -389.5q-11 -106 -49 -210.5t-99.5 -197.5t-150.5 -168.5t-194 -117.5q-80 -33 -163.5 -45.5t-185 2t-196.5 63.5l20 19q129 -66 243 -52t208.5 83t165.5 175t115.5 223t58.5 228q18 142 18.5 255t-21 213t-66.5 168t-122.5 110.5 t-185.5 50.5q-39 -73 -85.5 -199.5t-70 -201.5t-82.5 -271h132v-24h-138q-44 -144 -90 -285q116 19 236 78l2 -23q-137 -61 -244 -76q-63 -187 -176 -350.5t-248.5 -265.5t-259.5 -113zM116.5 845q14.5 -95 60.5 -162t120.5 -103t169.5 -37l88 291h-131v24h137 q73 237 135.5 400t134.5 272q-82 0 -143 -10q-209 -33 -366 -153.5t-195 -307.5q-25 -119 -10.5 -214z" />
<glyph unicode="&#xd1;" horiz-adv-x="1650" d="M0 -201l8 21q46 13 90.5 56.5t83.5 113t71.5 141.5t65 169t53.5 165.5t47.5 160.5t37.5 128q32 103 54.5 171t61 166t75 170.5t88 152t108.5 142.5q-15 -87 18 -397q26 -253 72 -526q8 -66 61 -305.5t72 -266.5q5 48 17.5 128t40.5 215.5t63.5 271.5t90.5 286.5 t117.5 271.5t149 214.5t180.5 126.5q70 25 138 29.5t136.5 -20t113.5 -81.5q19 -22 28 -52.5t1 -79t-42 -97.5l-24 14q38 56 42.5 108.5t-26.5 90.5q-131 165 -313 -37q-86 -95 -165 -238.5t-142 -305.5t-117.5 -318.5t-116.5 -326.5t-115 -281h-47q-18 11 -46 100 t-54.5 210.5t-43.5 205t-26 133.5q-47 283 -73 530q-24 238 -19 326q-32 -348 -137 -750q-63 -250 -199.5 -493t-310.5 -375q-82 -62 -168 -68zM965 1788q36 48 82 78.5t90 36.5q41 13 110 0t107 -45q8 -6 27 -21.5t27 -21t24.5 -16.5t25.5 -13.5t23.5 -7t25.5 -1t25.5 8.5 t29 17.5t29.5 29.5l25 -29q-21 -24 -64.5 -44.5t-66.5 -20.5q-61 -17 -118.5 1.5t-90.5 51.5q-13 10 -42 39.5t-50 38.5t-51 4q-64 -13 -136 -102z" />
<glyph unicode="&#xd2;" horiz-adv-x="1351" d="M7.5 437q-13.5 132 9 278t68.5 269t105 222q119 202 311.5 295t424.5 51q0 -1 -0.5 -2t-2 -4.5t-3 -6.5t-2.5 -6t-2 -4l-1 -1q-82 13 -172 -17q-70 -28 -136.5 -91.5t-115 -136.5t-93.5 -164.5t-72 -163t-50 -144.5q-61 -212 -78 -305q-71 -387 124 -481q137 -66 325 28 q135 73 221 164q118 122 193 268q127 254 121 529q-3 75 -10 128t-27.5 107t-54.5 85t-91.5 46.5t-136.5 5.5q-20 -3 -45 -14t-58 -35t-67.5 -70t-60.5 -108l-10 25q17 54 51 99.5t71.5 71.5t66.5 40t48 18q83 13 145 -3t99.5 -51.5t61.5 -93.5t33 -117.5t11 -133.5 q9 -285 -123 -539q-82 -163 -198 -276q-104 -107 -230 -170q-96 -48 -187.5 -54.5t-164.5 29.5q-135 65 -209.5 183t-88 250zM688 1946l25 2q12 -12 79 -108.5t66 -104.5q-2 0 -55 -1t-58 -1q-2 4 -26 102.5t-31 110.5z" />
<glyph unicode="&#xd3;" horiz-adv-x="1351" d="M7.5 437q-13.5 132 9 278t68.5 269t105 222q119 202 311.5 295t424.5 51q0 -1 -0.5 -2t-2 -4.5t-3 -6.5t-2.5 -6t-2 -4l-1 -1q-82 13 -172 -17q-70 -28 -136.5 -91.5t-115 -136.5t-93.5 -164.5t-72 -163t-50 -144.5q-61 -212 -78 -305q-71 -387 124 -481q137 -66 325 28 q135 73 221 164q118 122 193 268q127 254 121 529q-3 75 -10 128t-27.5 107t-54.5 85t-91.5 46.5t-136.5 5.5q-20 -3 -45 -14t-58 -35t-67.5 -70t-60.5 -108l-10 25q17 54 51 99.5t71.5 71.5t66.5 40t48 18q83 13 145 -3t99.5 -51.5t61.5 -93.5t33 -117.5t11 -133.5 q9 -285 -123 -539q-82 -163 -198 -276q-104 -107 -230 -170q-96 -48 -187.5 -54.5t-164.5 29.5q-135 65 -209.5 183t-88 250zM711 1776q-1 8 66 104.5t79 108.5q0 1 6 0t12.5 -2t6.5 0q-7 -12 -31.5 -110.5t-26.5 -102.5q-5 0 -57 1t-55 1z" />
<glyph unicode="&#xd4;" horiz-adv-x="1351" d="M7.5 437q-13.5 132 9 278t68.5 269t105 222q119 202 311.5 295t424.5 51q0 -1 -0.5 -2t-2 -4.5t-3 -6.5t-2.5 -6t-2 -4l-1 -1q-82 13 -172 -17q-70 -28 -136.5 -91.5t-115 -136.5t-93.5 -164.5t-72 -163t-50 -144.5q-61 -212 -78 -305q-71 -387 124 -481q137 -66 325 28 q135 73 221 164q118 122 193 268q127 254 121 529q-3 75 -10 128t-27.5 107t-54.5 85t-91.5 46.5t-136.5 5.5q-20 -3 -45 -14t-58 -35t-67.5 -70t-60.5 -108l-10 25q17 54 51 99.5t71.5 71.5t66.5 40t48 18q83 13 145 -3t99.5 -51.5t61.5 -93.5t33 -117.5t11 -133.5 q9 -285 -123 -539q-82 -163 -198 -276q-104 -107 -230 -170q-96 -48 -187.5 -54.5t-164.5 29.5q-135 65 -209.5 183t-88 250zM645 1755q6 8 68.5 82.5t91.5 114.5l31 -17q5 -5 48.5 -99.5t43.5 -102.5l-17 -35q-40 15 -75 73.5t-31 116.5q-20 -22 -65 -76t-72 -81z" />
<glyph unicode="&#xd5;" horiz-adv-x="1351" d="M7.5 437q-13.5 132 9 278t68.5 269t105 222q119 202 311.5 295t424.5 51q0 -1 -0.5 -2t-2 -4.5t-3 -6.5t-2.5 -6t-2 -4l-1 -1q-82 13 -172 -17q-70 -28 -136.5 -91.5t-115 -136.5t-93.5 -164.5t-72 -163t-50 -144.5q-61 -212 -78 -305q-71 -387 124 -481q137 -66 325 28 q135 73 221 164q118 122 193 268q127 254 121 529q-3 75 -10 128t-27.5 107t-54.5 85t-91.5 46.5t-136.5 5.5q-20 -3 -45 -14t-58 -35t-67.5 -70t-60.5 -108l-10 25q17 54 51 99.5t71.5 71.5t66.5 40t48 18q83 13 145 -3t99.5 -51.5t61.5 -93.5t33 -117.5t11 -133.5 q9 -285 -123 -539q-82 -163 -198 -276q-104 -107 -230 -170q-96 -48 -187.5 -54.5t-164.5 29.5q-135 65 -209.5 183t-88 250zM442 1796q36 48 82 78.5t90 36.5q41 13 110 0t107 -45q6 -5 30.5 -24t30.5 -23t26.5 -17t29 -13.5t26.5 -3t31 5t30 19t34 31.5l25 -29 q-21 -24 -64.5 -44.5t-66.5 -20.5q-61 -17 -118.5 1.5t-90.5 51.5q-14 11 -35 31t-33 30.5t-32.5 17.5t-43.5 3q-63 -12 -135 -102z" />
<glyph unicode="&#xd6;" horiz-adv-x="1351" d="M7.5 437q13.5 -132 88 -250t209.5 -183q73 -36 164.5 -29.5t187.5 54.5q126 63 230 170q116 113 198 276q132 254 123 539q-2 74 -11 133.5t-33 117.5t-61.5 93.5t-99.5 51.5t-145 3q-19 -4 -48 -18t-66.5 -40t-71.5 -71.5t-51 -99.5l10 -25q26 62 60.5 108t67.5 70 t58 35t45 14q79 10 136.5 -5.5t91.5 -46.5t54.5 -85t27.5 -107t10 -128q6 -275 -121 -529q-75 -146 -193 -268q-86 -91 -221 -164q-188 -94 -325 -28q-50 24 -82.5 67t-45.5 95.5t-15 114.5t6.5 125.5t22 126.5t29 120t29.5 104q7 23 10 33q23 73 50 144.5t72 163 t93.5 164.5t115 136.5t136.5 91.5q90 30 172 17q0 -2 11 24q-232 42 -424.5 -51t-311.5 -295q-59 -99 -105 -222t-68.5 -269t-9 -278zM547 1823q0 26 13.5 42.5t37.5 16.5q23 0 38 -17t15 -42q0 -24 -15.5 -43t-37.5 -19q-24 0 -37.5 18.5t-13.5 43.5zM885 1800 q0 25 15 42.5t38 17.5q22 0 37.5 -17.5t15.5 -42.5q0 -26 -15.5 -43.5t-37.5 -17.5q-23 0 -38 17.5t-15 43.5z" />
<glyph unicode="&#xd7;" horiz-adv-x="667" d="M131 285l184 227l-184 231l21 17l180 -225l182 225l23 -17l-185 -231l185 -227l-23 -19l-182 226l-180 -226z" />
<glyph unicode="&#xd8;" horiz-adv-x="1411" d="M7.5 437q-13.5 132 9 278t68.5 269t105 222q119 202 311.5 295t424.5 51q0 -1 -0.5 -2t-2 -4.5t-3 -6.5t-2.5 -6t-2 -4l-1 -1q-82 13 -172 -17q-70 -28 -136.5 -91.5t-115 -136.5t-93.5 -164.5t-72 -163t-50 -144.5q-61 -212 -78 -305q-71 -387 124 -481q0 -2 4 -2 l647 1363q-49 6 -111 0q-20 -3 -45 -14t-58 -35t-67.5 -70t-60.5 -108l-10 25q17 54 51 99.5t71.5 71.5t66.5 40t48 18q83 13 145 -3t99.5 -51.5t61.5 -93.5t33 -117.5t11 -133.5q9 -285 -123 -539q-82 -163 -198 -276q-104 -107 -230 -170q-96 -48 -187.5 -54.5 t-164.5 29.5q-135 65 -209.5 183t-88 250zM354 10q127 -40 293 43q135 73 221 164q118 122 193 268q127 254 121 529q-3 74 -10.5 127.5t-26.5 106t-55.5 86t-90.5 46.5z" />
<glyph unicode="&#xd9;" horiz-adv-x="1413" d="M0 1533q-1 47 45 97q14 17 49 37q-21 35 -57 41l12 16q14 0 36 -17t32 -32q16 8 51 8q52 0 98 -18q332 -140 274 -553q-28 -203 -170 -542q-15 -35 -45 -103q-99 -233 -118 -313q-26 -112 31 -131q80 -22 141 -8t135 61q122 85 242 254q87 126 190 368l80 170 q15 34 103.5 244.5t138.5 308.5l170 -10q-28 -84 -85.5 -257t-80 -237.5t-74.5 -211.5t-121 -336q-56 -156 -82.5 -283.5t-25 -211.5t21.5 -146t53 -94t74 -47.5t79 -14.5t73 12l12 -18q-21 -8 -54.5 -11.5t-76.5 1.5t-88.5 18.5t-89 42.5t-80.5 70.5t-61 106t-31.5 144.5 t9 191.5t58.5 241.5q16 47 38 119t28 90q-69 -143 -158 -269q-124 -176 -246 -256q-153 -107 -303 -57q-162 60 -153 334q3 78 26.5 171.5t44.5 150t72 180.5q3 9 5 14l5 12.5t6 13.5q6 15 25.5 61.5t32 77t32 84t31 91.5t23 91t13.5 92t-2 84t-19 77t-43 61t-68 47 q-42 17 -90 17q-20 0 -41 -6q27 -53 -12 -115q-44 -59 -83 -49q-30 7 -32 46zM28 1528q5 -22 27 -11q20 9 39 42q23 39 10 83q-24 -9 -38 -26q-46 -54 -38 -88zM768 1847l25 2q12 -12 79 -108.5t66 -104.5q-2 0 -55 -1t-58 -1q-2 4 -26 102.5t-31 110.5z" />
<glyph unicode="&#xda;" horiz-adv-x="1413" d="M0 1533q-1 47 45 97q14 17 49 37q-21 35 -57 41l12 16q14 0 36 -17t32 -32q16 8 51 8q52 0 98 -18q332 -140 274 -553q-28 -203 -170 -542q-15 -35 -45 -103q-99 -233 -118 -313q-26 -112 31 -131q80 -22 141 -8t135 61q122 85 242 254q87 126 190 368l80 170 q15 34 103.5 244.5t138.5 308.5l170 -10q-28 -84 -85.5 -257t-80 -237.5t-74.5 -211.5t-121 -336q-56 -156 -82.5 -283.5t-25 -211.5t21.5 -146t53 -94t74 -47.5t79 -14.5t73 12l12 -18q-21 -8 -54.5 -11.5t-76.5 1.5t-88.5 18.5t-89 42.5t-80.5 70.5t-61 106t-31.5 144.5 t9 191.5t58.5 241.5q16 47 38 119t28 90q-69 -143 -158 -269q-124 -176 -246 -256q-153 -107 -303 -57q-162 60 -153 334q3 78 26.5 171.5t44.5 150t72 180.5q3 9 5 14l5 12.5t6 13.5q6 15 25.5 61.5t32 77t32 84t31 91.5t23 91t13.5 92t-2 84t-19 77t-43 61t-68 47 q-42 17 -90 17q-20 0 -41 -6q27 -53 -12 -115q-44 -59 -83 -49q-30 7 -32 46zM28 1528q5 -22 27 -11q20 9 39 42q23 39 10 83q-24 -9 -38 -26q-46 -54 -38 -88zM776 1477q-1 8 66.5 104.5t79.5 108.5q0 1 6 0l12 -2t6 0q-7 -12 -31 -110.5t-26 -102.5q-5 0 -58 1t-55 1z" />
<glyph unicode="&#xdb;" horiz-adv-x="1413" d="M0 1533q-1 47 45 97q14 17 49 37q-21 35 -57 41l12 16q14 0 36 -17t32 -32q16 8 51 8q52 0 98 -18q332 -140 274 -553q-28 -203 -170 -542q-15 -35 -45 -103q-99 -233 -118 -313q-26 -112 31 -131q80 -22 141 -8t135 61q122 85 242 254q87 126 190 368l80 170 q15 34 103.5 244.5t138.5 308.5l170 -10q-28 -84 -85.5 -257t-80 -237.5t-74.5 -211.5t-121 -336q-56 -156 -82.5 -283.5t-25 -211.5t21.5 -146t53 -94t74 -47.5t79 -14.5t73 12l12 -18q-21 -8 -54.5 -11.5t-76.5 1.5t-88.5 18.5t-89 42.5t-80.5 70.5t-61 106t-31.5 144.5 t9 191.5t58.5 241.5q16 47 38 119t28 90q-69 -143 -158 -269q-124 -176 -246 -256q-153 -107 -303 -57q-162 60 -153 334q3 78 26.5 171.5t44.5 150t72 180.5q3 9 5 14l5 12.5t6 13.5q6 15 25.5 61.5t32 77t32 84t31 91.5t23 91t13.5 92t-2 84t-19 77t-43 61t-68 47 q-42 17 -90 17q-20 0 -41 -6q27 -53 -12 -115q-44 -59 -83 -49q-30 7 -32 46zM28 1528q5 -22 27 -11q20 9 39 42q23 39 10 83q-24 -9 -38 -26q-46 -54 -38 -88zM756 1587q18 22 51.5 62t59.5 72.5t48 62.5l31 -17q5 -5 48.5 -99.5t43.5 -102.5l-16 -35q-40 15 -75.5 73.5 t-31.5 116.5q-20 -22 -65 -76t-72 -81z" />
<glyph unicode="&#xdc;" horiz-adv-x="1413" d="M2 1522q6 -34 36 -36q37 -3 77 50q39 62 12 115q21 6 41 6q48 0 90 -17q40 -18 68 -47t43 -61t19 -77t2 -84t-13.5 -92t-23 -91t-31 -91.5t-32 -84t-32 -77t-25.5 -61.5q-93 -229 -118 -312q-37 -125 -41 -230q-9 -274 153 -334q150 -50 303 57q122 80 246 256 q89 126 158 269q-6 -18 -28 -90t-38 -119q-42 -130 -58.5 -241.5t-9 -191.5t31.5 -144.5t61 -106t80.5 -70.5t89 -42.5t88.5 -18.5t76.5 -1.5t54.5 11.5l-12 18q-35 -11 -73 -12t-79 14.5t-74 47.5t-53 94t-21.5 146t25 211.5t82.5 283.5q69 189 121 336t74.5 211.5 t80 237.5t85.5 257l-170 10q-50 -98 -138.5 -308.5t-103.5 -244.5l-80 -170q-103 -242 -190 -368q-120 -169 -242 -254q-74 -47 -135 -61t-141 8q-32 11 -38.5 48t11.5 98.5t46 132.5t68 165q41 94 62 144.5t57.5 148t52.5 158t35 150.5t17 151t-13.5 135.5t-45 126.5 t-89.5 101.5t-135 82.5q-46 18 -98 18q-35 0 -51 -8q-10 15 -32 32t-36 17l-12 -16q36 -6 57 -41q-35 -20 -49 -37q-53 -58 -43 -108zM29 1551q7 30 37 65q14 17 38 26q13 -44 -10 -83q-28 -49 -53 -45q-20 4 -12 37zM733 1714q0 26 13.5 43t37.5 17q23 0 38.5 -17.5 t15.5 -42.5q0 -24 -15.5 -42.5t-38.5 -18.5q-24 0 -37.5 18t-13.5 43zM1071 1692q0 25 15 42t38 17q22 0 38 -17t16 -42q0 -26 -16 -44t-38 -18q-23 0 -38 18t-15 44z" />
<glyph unicode="&#xdd;" horiz-adv-x="1355" d="M2 1059q-4 66 63.5 174t167.5 199q-26 75 -98 170l17 14q72 -91 104 -168q29 24 52.5 41.5t60 39t67 31t65.5 7.5t62 -21q63 -43 77 -117t-25 -181.5t-66.5 -165t-87.5 -166.5q-5 -9 -7.5 -14t-6.5 -12t-7 -13q-14 -25 -49.5 -88.5t-49.5 -90t-41 -80.5t-38.5 -88.5 t-26.5 -83.5t-20.5 -96t-5.5 -98q0 -158 100 -211q119 -61 277 37q44 29 82.5 64t71.5 77.5t58.5 81t53.5 92.5t47 92.5t47.5 99.5t46.5 97l92 197q1 3 33.5 83.5t63.5 157.5t35 82l24 -10q-117 -316 -178 -586.5t-51 -535.5q128 138 344 417v-43q-28 -35 -82.5 -104 t-87 -108.5t-81 -96.5t-93.5 -106q14 -59 16.5 -144.5t-10 -185t-36.5 -201.5t-67.5 -194.5t-99.5 -162.5t-135.5 -107.5t-171.5 -28.5q-52 6 -84.5 38t-43.5 76.5t-10 97.5t11 99.5t25 83.5q40 97 96 182q42 62 98 131q34 43 111 129q24 26 58.5 62t43.5 45q11 128 0 309 q-9 -15 -54 -64q-78 -85 -163 -141q-76 -50 -155.5 -60t-141.5 23q-105 57 -167.5 128.5t-83.5 143.5t-10 158t40.5 161.5t82.5 166t101.5 160.5t110.5 154q49 67 72.5 100.5t59.5 87.5t48.5 84.5t23 67t1.5 60t-33 40.5q-20 14 -44.5 16t-53 -9t-51 -21.5t-53 -32.5 t-42.5 -31.5t-35 -28.5q11 -51 11 -112t-10.5 -120.5t-38.5 -111.5t-68 -78q-47 -33 -101 -13t-57 73zM29 1059q1 -27 22.5 -40.5t48 -12t43.5 13.5q72 53 93.5 166t5.5 215q-93 -87 -155 -184t-58 -158zM397 -815.5q1 -57.5 28 -100.5t79 -51q54 -8 100.5 16.5t77.5 66.5 t56 100t39 109.5t22 103.5q14 89 16 173.5t-1 171t-1 136.5q-15 -17 -39.5 -42.5t-40.5 -43.5q-41 -41 -110 -125q-61 -75 -101 -133q-65 -107 -92 -174q-16 -42 -25 -96t-8 -111.5zM901 1415q-1 8 66.5 104.5t79.5 108.5q0 1 6 0l12 -2t6 0q-7 -12 -31 -110.5t-26 -102.5 q-6 0 -58 1t-55 1z" />
<glyph unicode="&#xde;" horiz-adv-x="1214" d="M0 -201l8 21q60 34 105.5 117t76 194.5t56 243t53.5 274t60.5 274.5t84 258t117.5 212q85 110 204 169.5t263 28.5q111 -22 203 -108q71 -70 101.5 -159.5t22 -175t-43 -170t-88.5 -148.5t-121 -105.5t-133 -46.5q-107 -8 -211 27.5t-127 105.5l26 2q18 -37 58 -64.5 t96 -37.5q115 -21 215 128q92 135 127 332q36 196 -13 304q-32 70 -96 77q-75 7 -155 -38.5t-135 -122.5q-68 -122 -114 -263t-71.5 -271t-51 -259.5t-70 -270t-109.5 -261.5q-151 -252 -338 -267z" />
<glyph unicode="&#xdf;" horiz-adv-x="745" d="M-281 -23h27q5 -33 21 -47q1 -2 4.5 -2t6.5 1l3 1q31 8 56.5 28.5t43 44t31.5 60.5t21.5 66t14 73t9.5 69.5t6 66.5q20 190 43 289q12 47 21.5 79t27.5 78t44.5 83.5t60.5 64.5q38 29 104 36t107 -12t67.5 -56.5t30.5 -84.5q5 -91 -36 -177t-118 -118q-12 0 -12 -4t3 -6 t9 -3.5t9 -2.5q46 -26 80 -74t46.5 -104t7 -110.5t-39 -101t-90.5 -69.5q-76 -30 -156 -37q-1 0 -104 -6l-5 27q74 0 107 4q67 4 147 37q49 21 78 61t34 88t-6 97t-40.5 93t-71.5 72q-38 26 -80 29l2 27q4 0 17 -0.5t19 0t16 2.5t20 6q69 32 104 108.5t29 157.5 q-1 39 -22.5 71t-55.5 50q-26 14 -49.5 -6.5t-41.5 -70.5t-32.5 -104t-26.5 -128.5t-18.5 -121.5t-13 -105.5t-6.5 -59.5q-20 -314 -344 -432q-43 -19 -78 4q-29 24 -31 69z" />
<glyph unicode="&#xe0;" d="M-109 219q23 179 110.5 300t197.5 169q87 40 187.5 42.5t168.5 -38.5q26 -16 42 -46t22.5 -73t8 -74t1.5 -79v-31h-27v31q0 206 -63 250q-33 22 -81.5 19t-101.5 -25q-177 -75 -247 -451q-30 -160 12 -186q31 -19 86 22q71 55 127.5 168t81.5 229l10 48l78 -7 q18 0 21 -35t-4 -89t-16.5 -109.5t-17 -105t-4.5 -66.5q7 -29 37 -2q72 53 183.5 167t209.5 240v-43q-97 -121 -202 -227.5t-176 -159.5q-28 -21 -52 -26.5t-39 1.5t-23.5 17t-12.5 21q-26 70 -17 209q-75 -180 -166 -250q-36 -28 -125.5 -39.5t-136.5 12.5q-39 24 -59 83.5 t-13 133.5zM299 1126l25 2q12 -12 79 -108.5t66 -104.5q-3 0 -55 -1t-58 -1q-2 4 -26 102.5t-31 110.5z" />
<glyph unicode="&#xe1;" d="M-109 219q23 179 110.5 300t197.5 169q87 40 187.5 42.5t168.5 -38.5q26 -16 42 -46t22.5 -73t8 -74t1.5 -79v-31h-27v31q0 206 -63 250q-33 22 -81.5 19t-101.5 -25q-177 -75 -247 -451q-30 -160 12 -186q31 -19 86 22q71 55 127.5 168t81.5 229l10 48l78 -7 q18 0 21 -35t-4 -89t-16.5 -109.5t-17 -105t-4.5 -66.5q7 -29 37 -2q72 53 183.5 167t209.5 240v-43q-97 -121 -202 -227.5t-176 -159.5q-28 -21 -52 -26.5t-39 1.5t-23.5 17t-12.5 21q-26 70 -17 209q-75 -180 -166 -250q-36 -28 -125.5 -39.5t-136.5 12.5q-39 24 -59 83.5 t-13 133.5zM240 915q-1 8 66 104.5t79 108.5q0 1 6.5 0t12.5 -2t6 0q-7 -12 -31.5 -110.5t-26.5 -102.5q-6 0 -57.5 1t-54.5 1z" />
<glyph unicode="&#xe2;" d="M-109 219q23 179 110.5 300t197.5 169q87 40 187.5 42.5t168.5 -38.5q26 -16 42 -46t22.5 -73t8 -74t1.5 -79v-31h-27v31q0 206 -63 250q-33 22 -81.5 19t-101.5 -25q-177 -75 -247 -451q-30 -160 12 -186q31 -19 86 22q71 55 127.5 168t81.5 229l10 48l78 -7 q18 0 21 -35t-4 -89t-16.5 -109.5t-17 -105t-4.5 -66.5q7 -29 37 -2q72 53 183.5 167t209.5 240v-43q-97 -121 -202 -227.5t-176 -159.5q-28 -21 -52 -26.5t-39 1.5t-23.5 17t-12.5 21q-26 70 -17 209q-75 -180 -166 -250q-36 -28 -125.5 -39.5t-136.5 12.5q-39 24 -59 83.5 t-13 133.5zM215 915q6 8 68.5 82.5t91.5 114.5l31 -16q5 -5 48.5 -100t43.5 -103l-17 -35q-39 14 -74.5 73.5t-31.5 117.5q-21 -22 -65.5 -76.5t-71.5 -81.5z" />
<glyph unicode="&#xe3;" d="M-109 219q23 179 110.5 300t197.5 169q87 40 187.5 42.5t168.5 -38.5q26 -16 42 -46t22.5 -73t8 -74t1.5 -79v-31h-27v31q0 206 -63 250q-33 22 -81.5 19t-101.5 -25q-177 -75 -247 -451q-30 -160 12 -186q31 -19 86 22q71 55 127.5 168t81.5 229l10 48l78 -7 q18 0 21 -35t-4 -89t-16.5 -109.5t-17 -105t-4.5 -66.5q7 -29 37 -2q72 53 183.5 167t209.5 240v-43q-97 -121 -202 -227.5t-176 -159.5q-28 -21 -52 -26.5t-39 1.5t-23.5 17t-12.5 21q-26 70 -17 209q-75 -180 -166 -250q-36 -28 -125.5 -39.5t-136.5 12.5q-39 24 -59 83.5 t-13 133.5zM33 956q36 48 82 78.5t90 36.5q41 13 110 0t107 -45q8 -6 27 -21.5t27 -21t24.5 -16.5t25.5 -13.5t23.5 -7t25.5 -1t25.5 8.5t29 17.5t29.5 29.5l25 -28q-21 -24 -64.5 -45t-66.5 -21q-61 -17 -118.5 2t-90.5 52q-14 11 -34.5 31t-32.5 30.5t-32.5 17t-43.5 2.5 q-63 -12 -135 -102z" />
<glyph unicode="&#xe4;" d="M-109 219q-7 -74 13 -133.5t59 -83.5q47 -24 136.5 -12.5t125.5 39.5q91 70 166 250q-9 -139 17 -209q4 -11 12.5 -21t23.5 -17t39 -1.5t52 26.5q71 53 176 159.5t202 227.5v43q-98 -126 -209.5 -240t-183.5 -167q-30 -27 -37 2q-3 17 4.5 66.5t17 105t16.5 109.5t4 89 t-21 35l-78 7l-10 -48q-25 -116 -81.5 -229t-127.5 -168q-55 -41 -86 -22q-42 26 -12 186q70 376 247 451q53 22 101.5 25t81.5 -19q63 -44 63 -250v-31h27v31q0 48 -1.5 79t-8 74t-22.5 73t-42 46q-68 41 -168.5 38.5t-187.5 -42.5q-110 -48 -197.5 -169t-110.5 -300z M178 983q0 26 13.5 42.5t37.5 16.5q23 0 38.5 -17t15.5 -42q0 -24 -15.5 -42.5t-38.5 -18.5q-24 0 -37.5 18t-13.5 43zM516 961q0 25 15 42t38 17q22 0 38 -17t16 -42q0 -26 -16 -44t-38 -18q-23 0 -38 18t-15 44z" />
<glyph unicode="&#xe5;" d="M-109 219q23 179 110.5 300t197.5 169q87 40 187.5 42.5t168.5 -38.5q26 -16 42 -46t22.5 -73t8 -74t1.5 -79v-31h-27v31q0 206 -63 250q-33 22 -81.5 19t-101.5 -25q-177 -75 -247 -451q-30 -160 12 -186q31 -19 86 22q71 55 127.5 168t81.5 229l10 48l78 -7 q18 0 21 -35t-4 -89t-16.5 -109.5t-17 -105t-4.5 -66.5q7 -29 37 -2q72 53 183.5 167t209.5 240v-43q-97 -121 -202 -227.5t-176 -159.5q-28 -21 -52 -26.5t-39 1.5t-23.5 17t-12.5 21q-26 70 -17 209q-75 -180 -166 -250q-36 -28 -125.5 -39.5t-136.5 12.5q-39 24 -59 83.5 t-13 133.5zM270 983q2 37 25 80q25 44 71 61.5t87.5 7t67.5 -52t16 -102.5q-12 -77 -83 -104q-64 -25 -124 5q-65 32 -60 105zM332 1022q-28 -60 16 -93q37 -27 83 -11q52 18 56 79q4 48 -28 69t-71.5 7.5t-55.5 -51.5z" />
<glyph unicode="&#xe6;" horiz-adv-x="1363" d="M-109 219q23 179 110.5 300t197.5 169q87 40 187.5 42.5t168.5 -38.5q59 -39 70 -168q63 76 137 135t139 82q39 10 64.5 2t40.5 -28q23 -36 16.5 -80.5t-33.5 -87.5q-41 -67 -117 -152q-85 -102 -161 -178q-2 -96 24.5 -144t67.5 -50.5t96 23.5t103 63t96 84 q79 78 154.5 161t111.5 133v-43q-27 -35 -68.5 -81t-96 -104t-83.5 -91q-65 -72 -167.5 -126t-206 -74.5t-197.5 4t-137 98.5q-27 46 -17 209q-75 -180 -166 -250q-36 -28 -125.5 -39.5t-136.5 12.5q-39 24 -59 83.5t-13 133.5zM109 213q-30 -160 12 -186q31 -19 86 22 q71 55 127.5 168t81.5 229l10 48l78 -7q31 0 16 -127q33 70 80 132q-8 140 -61 178q-33 22 -81.5 19t-101.5 -25q-177 -75 -247 -451zM713 274q79 69 149 150.5t105 138.5q21 32 27 71t-11 64q-22 32 -74 19q-55 -20 -116 -135q-36 -66 -53 -136.5t-27 -171.5z" />
<glyph unicode="&#xe7;" horiz-adv-x="763" d="M-44 387q33 169 146 274q140 131 347 97q41 -6 71.5 -31.5t36.5 -54.5l-27 -4q-6 22 -27 39.5t-50 23.5q-37 9 -80 -6q-73 -28 -131 -138.5t-83 -236t-18 -221.5q3 -48 20.5 -75t45 -32t59.5 3.5t68 29.5q59 30 186 157t244 275v-43q-118 -145 -240 -264.5t-184 -150.5 q-71 -36 -145 -43l-29 -99q108 -29 116 -100q6 -58 -55 -111q-67 -59 -151 -55q-39 2 -74 21l12 24q64 -40 128 8q49 36 60 90q11 58 -40 76q-17 6 -39 6l33 138q-121 8 -177 128q-55 117 -23 275z" />
<glyph unicode="&#xe8;" horiz-adv-x="759" d="M-115 248q4 81 65.5 187t152 192t173.5 114q38 11 74 2t51 -28q23 -36 17 -80.5t-33 -87.5q-37 -62 -112.5 -147.5t-163.5 -161.5q-3 -76 9 -124.5t35 -69t55.5 -21.5t68 13.5t75.5 40.5t74 54.5t68 61.5q79 78 154.5 161t111.5 133v-43q-27 -35 -68.5 -81t-96 -104 t-83.5 -91q-57 -65 -129 -109.5t-142.5 -63t-137 -12t-116.5 36t-78 88.5t-24 140zM109 274q78 69 148 150.5t105 138.5q21 32 27.5 71t-10.5 64q-22 32 -74 19q-56 -20 -117 -135q-36 -66 -52.5 -136t-26.5 -172zM123 1126l24 2q12 -12 79.5 -108.5t66.5 -104.5 q-3 0 -55 -1t-58 -1q-2 4 -26 102.5t-31 110.5z" />
<glyph unicode="&#xe9;" horiz-adv-x="757" d="M-117 248q4 81 65.5 187t152 192t173.5 114q38 11 74 2t51 -28q23 -36 17 -80.5t-33 -87.5q-37 -62 -113 -147.5t-164 -161.5q-3 -76 9 -124.5t35 -69t56 -21.5t68 13.5t75.5 40.5t74.5 54.5t68 61.5q79 78 154.5 161t111.5 133v-43q-27 -35 -68.5 -81t-96 -104 t-83.5 -91q-57 -65 -129 -109.5t-142.5 -63t-137 -12t-116.5 36t-78 88.5t-24 140zM106 274q79 69 149 150.5t105 138.5q21 32 27.5 71t-10.5 64q-22 32 -74 19q-56 -20 -117 -135q-36 -66 -53 -136.5t-27 -171.5zM246 915q-1 8 66 104.5t79 108.5q0 1 6.5 0t12.5 -2t6 0 q-7 -12 -31.5 -110.5t-26.5 -102.5q-6 0 -58 1t-54 1z" />
<glyph unicode="&#xea;" horiz-adv-x="757" d="M-117 248q4 81 65.5 187t152 192t173.5 114q38 11 74 2t51 -28q23 -36 17 -80.5t-33 -87.5q-37 -62 -113 -147.5t-164 -161.5q-3 -76 9 -124.5t35 -69t56 -21.5t68 13.5t75.5 40.5t74.5 54.5t68 61.5q79 78 154.5 161t111.5 133v-43q-27 -35 -68.5 -81t-96 -104 t-83.5 -91q-57 -65 -129 -109.5t-142.5 -63t-137 -12t-116.5 36t-78 88.5t-24 140zM106 274q79 69 149 150.5t105 138.5q21 32 27.5 71t-10.5 64q-22 32 -74 19q-56 -20 -117 -135q-36 -66 -53 -136.5t-27 -171.5zM139 956q6 8 68.5 82.5t91.5 114.5l31 -16q5 -5 48.5 -100 t43.5 -103l-16 -35q-40 15 -75.5 74t-31.5 117q-21 -22 -65.5 -76.5t-71.5 -81.5z" />
<glyph unicode="&#xeb;" horiz-adv-x="757" d="M-117 248q-4 -81 24 -140t78 -88.5t116.5 -36t137 12t142.5 63t129 109.5q29 33 83.5 91t96 104t68.5 81v43q-36 -50 -111.5 -133t-154.5 -161q-34 -33 -68 -61.5t-74.5 -54.5t-75.5 -40.5t-68 -13.5t-56 21.5t-35 69t-9 124.5q88 76 164 161.5t113 147.5q27 43 33 87.5 t-17 80.5q-15 19 -51 28t-74 -2q-83 -28 -173.5 -114t-152 -192t-65.5 -187zM61 983q0 26 14 42.5t38 16.5q23 0 38 -17t15 -42q0 -24 -15 -42.5t-38 -18.5q-24 0 -38 18t-14 43zM106 274q10 101 27 171.5t53 136.5q61 115 117 135q52 13 74 -19q17 -25 10.5 -64t-27.5 -71 q-35 -57 -105 -138.5t-149 -150.5zM399 961q0 25 15.5 42t38.5 17q22 0 37.5 -17t15.5 -42q0 -26 -15.5 -44t-37.5 -18q-23 0 -38.5 18t-15.5 44z" />
<glyph unicode="&#xec;" horiz-adv-x="669" d="M-67 364.5q8 80.5 40.5 150t91 123t132.5 73.5l32 -2q-9 -23 -25.5 -77t-39.5 -135t-39 -163.5t-24 -155t4.5 -118t48.5 -44.5q42 1 119 60t159 145t141 152t97 114v-43q-171 -206 -309 -330t-207 -124q-83 29 -137 89t-73 132.5t-11 153zM94 1126l25 2q12 -12 79 -108.5 t66 -104.5q-2 0 -54 -1t-58 -1q-2 4 -26.5 102.5t-31.5 110.5z" />
<glyph unicode="&#xed;" horiz-adv-x="669" d="M-67 364.5q8 80.5 40.5 150t91 123t132.5 73.5l32 -2q-9 -23 -25.5 -77t-39.5 -135t-39 -163.5t-24 -155t4.5 -118t48.5 -44.5q42 1 119 60t159 145t141 152t97 114v-43q-171 -206 -309 -330t-207 -124q-83 29 -137 89t-73 132.5t-11 153zM240 915q-1 8 66 104.5 t79 108.5q0 1 6.5 0t12.5 -2t6 0q-7 -12 -31.5 -110.5t-26.5 -102.5q-6 0 -57.5 1t-54.5 1z" />
<glyph unicode="&#xee;" horiz-adv-x="669" d="M-67 364.5q8 80.5 40.5 150t91 123t132.5 73.5l32 -2q-9 -23 -25.5 -77t-39.5 -135t-39 -163.5t-24 -155t4.5 -118t48.5 -44.5q42 1 119 60t159 145t141 152t97 114v-43q-171 -206 -309 -330t-207 -124q-83 29 -137 89t-73 132.5t-11 153zM113 915q18 22 51.5 62 t59.5 72.5t48 62.5l31 -16q5 -5 48.5 -100t43.5 -103l-16 -35q-40 15 -75.5 74t-31.5 117q-21 -22 -65.5 -76.5t-71.5 -81.5z" />
<glyph unicode="&#xef;" horiz-adv-x="669" d="M-67 364.5q8 80.5 40.5 150t91 123t132.5 73.5l32 -2q-9 -23 -25.5 -77t-39.5 -135t-39 -163.5t-24 -155t4.5 -118t48.5 -44.5q42 1 119 60t159 145t141 152t97 114v-43q-171 -206 -309 -330t-207 -124q-83 29 -137 89t-73 132.5t-11 153zM14 983q0 26 14 42.5t38 16.5 q23 0 38 -17t15 -42q0 -24 -15 -42.5t-38 -18.5q-24 0 -38 18t-14 43zM352 961q0 25 15.5 42t38.5 17q22 0 37.5 -17t15.5 -42q0 -26 -15.5 -44t-37.5 -18q-23 0 -38.5 18t-15.5 44z" />
<glyph unicode="&#xf0;" horiz-adv-x="1075" d="M-109 260q4 170 142 297q110 102 248 129q134 26 205 -38q43 -38 51 -103l6 -62l4 13q49 191 98 338h-192v24h202q67 198 144 338l47 -12q96 -57 24 -326h144v-24h-150q-34 -124 -151 -429q-90 -235 -94 -296q-3 -44 24 -42q32 3 111 72q158 138 321 348v-43 q-136 -169 -307 -325q-47 -43 -89 -70t-75 -36.5t-57.5 -5t-39 23t-18.5 49.5q-5 62 25 272q0 3 -3 -4q-13 -27 -13 -33q-41 -92 -104 -171t-126 -121q-71 -46 -141 -37.5t-124.5 48t-86 102.5t-25.5 124zM113 195q-11 -150 44 -174q25 -12 62 8q55 29 101.5 74t83 102 t61 105.5t51.5 113.5q0 54 -4 91.5t-15 71.5t-30.5 53t-51.5 28t-77 4q-78 -18 -146 -172q-67 -149 -79 -305z" />
<glyph unicode="&#xf1;" horiz-adv-x="1097" d="M-131 10q14 120 76 370.5t100 332.5q3 0 10 -1.5t22.5 -10.5t30 -23.5t27.5 -44.5t19.5 -70t2.5 -103.5t-20 -140.5q92 193 147 276q108 161 208 161q73 0 142 -38.5t73 -88.5q6 -74 -12.5 -155t-44 -139.5t-45.5 -126.5t-17 -118q3 -45 51 -45q44 0 182.5 134t276.5 308 v-43q-131 -161 -257 -284t-182 -140q-41 -10 -135 4t-106 46q-14 35 -15 81.5t6 90.5t22 99t30 97.5t33.5 96t27.5 83.5q20 67 16 84q-5 25 -40 27q-38 2 -78.5 -25.5t-80 -81.5t-74 -112t-72 -138.5t-61.5 -137.5t-54 -132q-35 -77 -41 -102zM156 956q36 48 82 78.5 t90 36.5q41 13 110 0t107 -45q8 -6 27 -21.5t27 -21t24.5 -16.5t25.5 -13.5t23.5 -7t25.5 -1t25.5 8.5t29 17.5t29.5 29.5l25 -28q-21 -24 -64.5 -45t-66.5 -21q-61 -17 -118.5 2t-90.5 52q-14 11 -34.5 31t-32.5 30.5t-32.5 17t-43.5 2.5q-64 -13 -136 -102z" />
<glyph unicode="&#xf2;" horiz-adv-x="917" d="M-43 218q-27 154 37 294q73 158 230 212q91 30 202 21q66 -6 104 -65l-22 -14q-33 51 -90 53q-96 6 -175 -132q-74 -131 -92 -301q-17 -170 39 -240q52 -66 156 -9q50 28 94.5 80t78.5 128t40.5 167t-18.5 198q-2 12 4 16.5t14.5 1t13.5 -11.5q13 -17 39.5 -58.5t46 -71 t50.5 -57.5t60 -34t68.5 15.5t80.5 76.5v-43q-31 -37 -62 -56t-57 -22t-53.5 9.5t-46.5 27.5t-41 42t-33 44t-27 43t-18 29q13 -102 1 -188t-48 -156t-81 -119t-98 -78q-166 -95 -282 -10q-90 65 -115 208zM281 1106l24 2q12 -12 79.5 -108.5t66.5 -104.5q-2 0 -54.5 -1 t-58.5 -1q-2 4 -26 102.5t-31 110.5z" />
<glyph unicode="&#xf3;" horiz-adv-x="917" d="M-43 218q-27 154 37 294q73 158 230 212q91 30 202 21q66 -6 104 -65l-22 -14q-33 51 -90 53q-96 6 -175 -132q-74 -131 -92 -301q-17 -170 39 -240q52 -66 156 -9q50 28 94.5 80t78.5 128t40.5 167t-18.5 198q-2 12 4 16.5t14.5 1t13.5 -11.5q13 -17 39.5 -58.5t46 -71 t50.5 -57.5t60 -34t68.5 15.5t80.5 76.5v-43q-31 -37 -62 -56t-57 -22t-53.5 9.5t-46.5 27.5t-41 42t-33 44t-27 43t-18 29q13 -102 1 -188t-48 -156t-81 -119t-98 -78q-166 -95 -282 -10q-90 65 -115 208zM303 895q-1 8 66.5 104.5t79.5 108.5q0 1 6 0l12 -2t6 0 q-7 -12 -31 -110.5t-26 -102.5q-6 0 -58 1t-55 1z" />
<glyph unicode="&#xf4;" horiz-adv-x="915" d="M-45 218q-27 154 37 294q73 158 230 212q91 30 202 21q66 -6 104 -65l-22 -14q-33 51 -90 53q-96 6 -175 -132q-74 -131 -92 -301q-17 -170 39 -240q52 -66 156 -9q50 28 94.5 80t78.5 128t40.5 167t-18.5 198q-2 12 4 16.5t14.5 1t13.5 -11.5q13 -17 39.5 -58.5 t45.5 -71t50.5 -57.5t60.5 -34t68 15.5t80 76.5v-43q-31 -37 -62 -56t-56.5 -22t-53 9.5t-46.5 27.5t-41 42t-33 44t-27 43t-18 29q13 -102 1 -188t-48 -156t-81 -119t-98 -78q-166 -95 -282 -10q-90 65 -115 208zM215 936q6 8 68.5 82.5t91.5 114.5l31 -17q5 -5 48.5 -100 t43.5 -103l-17 -34q-40 15 -75 73.5t-31 116.5q-21 -22 -65.5 -76.5t-71.5 -81.5z" />
<glyph unicode="&#xf5;" horiz-adv-x="921" d="M-39 218q-27 154 37 294q73 158 230 212q91 30 202 21q67 -6 105 -65l-23 -14q-33 51 -90 53q-96 6 -175 -132q-74 -131 -92 -301q-17 -170 39 -240q52 -66 156 -9q50 28 94.5 80t78.5 128t40.5 167t-18.5 198q-2 12 4.5 16.5t15 1t13.5 -11.5q13 -17 39.5 -58.5 t45.5 -71t50.5 -57.5t60.5 -34t68 15.5t80 76.5v-43q-31 -37 -62 -56t-57 -22t-53.5 9.5t-46.5 27.5t-41 42t-33 44t-27 43t-18 29q13 -102 1 -188t-48 -156t-81 -119t-98 -78q-166 -95 -282 -10q-90 65 -115 208zM80 956q36 48 82 78.5t90 36.5q41 13 110 0t107 -45 q6 -5 30.5 -24t30.5 -23t26.5 -17t29 -13.5t26.5 -3t31 5t30 19t34 31.5l24 -28q-21 -24 -64.5 -45t-66.5 -21q-61 -17 -118.5 2t-90.5 52q-14 11 -34.5 31t-32.5 30.5t-32.5 17t-43.5 2.5q-63 -12 -135 -102z" />
<glyph unicode="&#xf6;" horiz-adv-x="921" d="M-46 327q-7 -153 64 -256q77 -113 206 -98q63 7 134 47q53 29 98 78t81 119t48 156t-1 188q2 -3 18 -29t27 -43t33 -44t41 -42t46.5 -27.5t53.5 -9.5t57 22t62 56v43q-41 -55 -80 -76.5t-68 -15.5t-60.5 34t-50.5 57.5t-45.5 71t-39.5 58.5q-5 8 -13.5 11.5t-15 -1 t-4.5 -16.5q25 -107 18.5 -198t-40.5 -167t-78.5 -128t-94.5 -80q-123 -68 -173 36q-44 93 -14 268q30 176 110 287q70 96 149 91q57 -2 90 -53l23 14q-38 59 -105 65q-236 20 -368 -134q-100 -115 -108 -284zM143 983q0 26 14 42.5t38 16.5q23 0 38 -17t15 -42 q0 -24 -15 -42.5t-38 -18.5q-24 0 -38 18t-14 43zM481 961q0 25 15.5 42t38.5 17q22 0 37.5 -17t15.5 -42q0 -26 -15.5 -44t-37.5 -18q-23 0 -38.5 18t-15.5 44z" />
<glyph unicode="&#xf7;" horiz-adv-x="774" d="M131 492v24h512v-24h-512zM334 371q17 30 49.5 35.5t56 -16.5t15.5 -62q-7 -44 -50 -55q-41 -10 -68 15q-31 31 -3 83zM334 725q17 30 49.5 35.5t56 -16.5t15.5 -62q-7 -45 -50 -56q-41 -10 -68 16q-29 32 -3 83zM354 350q-17 -34 12 -49q25 -14 48 4q15 11 16 33 q3 24 -13 34.5t-35.5 3.5t-27.5 -26zM354 705q-17 -34 12 -50q25 -13 48 4q15 11 16 33q3 24 -13 34.5t-35.5 4t-27.5 -25.5z" />
<glyph unicode="&#xf8;" horiz-adv-x="917" d="M-43 218q-27 154 37 294q73 158 230 212q91 30 202 21q66 -6 104 -65l-22 -14l-10 12l-283 -655q53 -31 131 14q50 28 94.5 80t78.5 128t40.5 167t-18.5 198q-2 12 4 16.5t14.5 1t13.5 -11.5q13 -17 39.5 -58.5t46 -71t50.5 -57.5t60 -34t68.5 15.5t80.5 76.5v-43 q-31 -37 -62 -56t-57 -22t-53.5 9.5t-46.5 27.5t-41 42t-33 44t-27 43t-18 29q13 -102 1 -188t-48 -156t-81 -119t-98 -78q-166 -95 -282 -10q-90 65 -115 208zM147.5 177q6.5 -84 38.5 -128l287 653q-19 14 -55 17q-59 3 -114 -50.5t-89.5 -138t-54 -177t-13 -176.5z" />
<glyph unicode="&#xf9;" horiz-adv-x="1046" d="M-111 228.5q5 67.5 39 152.5q11 25 26.5 57t26.5 54t23.5 49.5t17.5 44t7.5 37t-6.5 28.5q-24 29 23 41q51 14 106 -4q25 -8 36 -22q25 -43 14 -119.5t-52 -175.5q-21 -48 -37 -102t-25.5 -110.5t3.5 -94.5t50 -41q51 -3 97 40q19 17 38.5 42t35.5 49t36.5 63.5t33 65 t34 74.5t31 71t32 76.5t29.5 70.5l43 101l166 -8q-34 -169 -84 -318q-107 -312 -43 -317q44 -4 172 127q61 62 148.5 162.5t136.5 164.5v-43q-38 -49 -123.5 -146t-145.5 -157q-80 -80 -145 -117.5t-106 -32t-67 37t-33 84.5t1 117t31 128q-18 -30 -51.5 -89t-50.5 -88 t-46.5 -71.5t-51.5 -62.5t-51.5 -35.5t-60.5 -15.5q-55 0 -101.5 11.5t-85 40t-57.5 71t-14 110zM299 1126l25 2q12 -12 79 -108.5t66 -104.5q-3 0 -55 -1t-58 -1q-2 4 -26 102.5t-31 110.5z" />
<glyph unicode="&#xfa;" horiz-adv-x="1046" d="M-111 228.5q5 67.5 39 152.5q11 25 26.5 57t26.5 54t23.5 49.5t17.5 44t7.5 37t-6.5 28.5q-24 29 23 41q51 14 106 -4q25 -8 36 -22q25 -43 14 -119.5t-52 -175.5q-21 -48 -37 -102t-25.5 -110.5t3.5 -94.5t50 -41q51 -3 97 40q19 17 38.5 42t35.5 49t36.5 63.5t33 65 t34 74.5t31 71t32 76.5t29.5 70.5l43 101l166 -8q-34 -169 -84 -318q-107 -312 -43 -317q44 -4 172 127q61 62 148.5 162.5t136.5 164.5v-43q-38 -49 -123.5 -146t-145.5 -157q-80 -80 -145 -117.5t-106 -32t-67 37t-33 84.5t1 117t31 128q-18 -30 -51.5 -89t-50.5 -88 t-46.5 -71.5t-51.5 -62.5t-51.5 -35.5t-60.5 -15.5q-55 0 -101.5 11.5t-85 40t-57.5 71t-14 110zM301 915q-1 8 66 104.5t79 108.5q0 1 6 0t12.5 -2t6.5 0q-7 -12 -31 -110.5t-26 -102.5q-6 0 -58 1t-55 1z" />
<glyph unicode="&#xfb;" horiz-adv-x="1046" d="M-111 228.5q5 67.5 39 152.5q11 25 26.5 57t26.5 54t23.5 49.5t17.5 44t7.5 37t-6.5 28.5q-24 29 23 41q51 14 106 -4q25 -8 36 -22q25 -43 14 -119.5t-52 -175.5q-21 -48 -37 -102t-25.5 -110.5t3.5 -94.5t50 -41q51 -3 97 40q19 17 38.5 42t35.5 49t36.5 63.5t33 65 t34 74.5t31 71t32 76.5t29.5 70.5l43 101l166 -8q-34 -169 -84 -318q-107 -312 -43 -317q44 -4 172 127q61 62 148.5 162.5t136.5 164.5v-43q-38 -49 -123.5 -146t-145.5 -157q-80 -80 -145 -117.5t-106 -32t-67 37t-33 84.5t1 117t31 128q-18 -30 -51.5 -89t-50.5 -88 t-46.5 -71.5t-51.5 -62.5t-51.5 -35.5t-60.5 -15.5q-55 0 -101.5 11.5t-85 40t-57.5 71t-14 110zM236 915q18 22 51.5 62t59.5 72.5t48 62.5l31 -16q5 -5 48.5 -100t43.5 -103l-16 -35q-40 15 -75.5 74t-31.5 117q-21 -22 -65.5 -76.5t-71.5 -81.5z" />
<glyph unicode="&#xfc;" horiz-adv-x="1046" d="M-111 228.5q-5 -67.5 14 -110t57.5 -71t85 -40t101.5 -11.5q31 0 60.5 15.5t51.5 35.5t51.5 62.5t46.5 71.5t50.5 88t51.5 89q-23 -64 -31 -128t-1 -117t33 -84.5t67 -37t106 32t145 117.5q60 60 145.5 157t123.5 146v43q-49 -64 -136.5 -164.5t-148.5 -162.5 q-175 -178 -194 -105q-15 60 65 295q50 149 84 318l-166 8q-29 -66 -43 -101q-7 -16 -29.5 -70.5t-32 -76.5t-31 -71t-34 -74.5t-33 -65t-36.5 -63.5t-35.5 -49t-38.5 -42q-46 -43 -97 -40q-37 3 -50 41t-3.5 94.5t25.5 110.5t37 102q41 99 52 175.5t-14 119.5 q-23 29 -93 31q-64 2 -77 -21q-6 -11 5 -25q13 -21 2 -57.5t-47.5 -109t-49.5 -103.5q-34 -85 -39 -152.5zM178 983q0 26 13.5 42.5t37.5 16.5q23 0 38.5 -17t15.5 -42q0 -24 -15.5 -42.5t-38.5 -18.5q-24 0 -37.5 18t-13.5 43zM516 961q0 25 15 42t38 17q22 0 38 -17 t16 -42q0 -26 -16 -44t-38 -18q-23 0 -38 18t-15 44z" />
<glyph unicode="&#xfd;" horiz-adv-x="1003" d="M-438 -1282q-5 64 13 131.5t66.5 142t123.5 139t194 122t268 92.5q48 158 127.5 498.5t126.5 488.5q-28 -49 -50.5 -85t-51.5 -75.5t-56 -65.5t-59 -45t-65 -24q-106 -19 -172 1.5t-90 69.5t-18.5 122.5t34.5 156t78 174.5q96 179 12 197q-36 3 -74 -47 q-28 -33 -40.5 -69.5t1.5 -68.5l-24 -12q-19 35 -4.5 84t49.5 86q32 37 64 57.5t60 23.5t53.5 -5.5t45.5 -27t35 -45t22 -56.5t6.5 -63.5t-10.5 -63.5q-11 -37 -30.5 -93t-34 -98t-29.5 -91.5t-21.5 -84.5t-5 -65t14.5 -45q19 -22 74 -13q171 35 321 400q12 28 44 152 t38 167l170 -4q-9 -90 -42 -260.5t-58 -257.5q-37 -140 -106 -438t-116 -455q253 71 570 -29q70 -22 150.5 -63t152.5 -85t145.5 -87.5t153 -77.5t151.5 -47q55 -9 118.5 24.5t105.5 86.5q24 34 30 89t-16.5 95t-69.5 29q-32 -7 -63.5 -83t-42.5 -135l-25 5q2 9 5 24 t14.5 54t25 69.5t35 58t45.5 31.5q50 11 80 -16t35.5 -70.5t-3.5 -90.5t-30 -75q-40 -57 -114.5 -96t-133.5 -27q-81 17 -163.5 52t-154 77t-141 84.5t-149.5 83.5t-153 64q-322 103 -566 24q-135 -471 -373 -678q-150 -131 -298 -124q-110 5 -168 83q-33 45 -37 103z M-412 -1274q4 -103 67 -147q71 -50 170 13q157 100 294 431q54 131 102 293q-138 -31 -250 -85t-183 -115t-118 -131.5t-66 -134.5t-16 -124zM322 997q-1 8 66 104.5t79 108.5q0 1 6.5 0t12.5 -2t6 0q-7 -12 -31.5 -110.5t-26.5 -102.5q-5 0 -57.5 1t-54.5 1z" />
<glyph unicode="&#xfe;" d="M-457 -801l21 19q25 -30 43 -41t31.5 -4t24.5 23t26 45q2 5 4 8.5t4 7.5q38 74 70.5 207t58 285t53 308.5t69.5 313.5t93 264q-43 -47 -92 -76.5t-84 -21.5q-49 16 -37 114l29 -6q-16 -73 14 -82q33 -9 97.5 41.5t86.5 100.5l170 -13l-49 -213q82 97 178.5 161.5 t171.5 64.5q60 2 97 -42.5t41 -140.5q3 -78 -5 -149q-10 -80 -35.5 -146t-83.5 -124.5t-141 -84.5q-45 -15 -87 -17.5t-81.5 14.5t-60.5 55q-17 33 -21.5 71.5t8.5 79.5t44 70l16 -23q-38 -35 -41.5 -92.5t21.5 -95.5q15 -24 52.5 -44t92.5 -7q50 13 100 184q52 177 55 329 q2 133 -43 128l-8 -2q-66 -25 -144 -99t-138 -153q-51 -251 -72 -361q-36 -217 -56 -330t-57 -259t-75 -222q-45 -85 -106 -118.5t-126.5 -14t-128.5 87.5z" />
<glyph unicode="&#xff;" horiz-adv-x="1003" d="M-438 -1282q7 -99 90 -152q95 -60 227 -19q180 55 332 276q138 200 227 511q244 79 566 -24q73 -23 153 -64t149.5 -83.5t141 -84.5t154 -77t163.5 -52q59 -12 133.5 27t114.5 96q21 28 30 75t3.5 90.5t-35.5 70.5t-80 16q-37 -7 -68.5 -66.5t-44.5 -115.5l-12 -55l25 -5 q11 59 42.5 135t63.5 83q47 11 69.5 -29t16.5 -95t-30 -89q-42 -53 -105.5 -86.5t-118.5 -24.5q-72 13 -151.5 47t-153 77.5t-145.5 87.5t-152.5 85t-150.5 63q-317 100 -570 29q47 157 116 455t106 438q25 87 58 257.5t42 260.5l-170 4q-6 -43 -38 -167t-44 -152 q-150 -365 -321 -400q-55 -9 -74 13q-13 15 -14.5 45t5 65t21.5 84.5t29.5 91.5t34 98t30.5 93q10 30 10.5 63.5t-6.5 63.5t-22 56.5t-35 45t-45.5 27t-53.5 5.5t-60 -23.5t-64 -57.5q-35 -37 -49.5 -86t4.5 -84l24 12q-14 32 -1.5 68.5t40.5 69.5q38 50 74 47 q84 -18 -12 -197q-49 -92 -78 -174.5t-34.5 -156t18.5 -122.5t90 -69.5t172 -1.5q33 5 65 24t59 45t56 65.5t51.5 75.5t50.5 85q-47 -148 -126.5 -488.5t-127.5 -498.5q-149 -35 -268 -92.5t-194 -122t-123.5 -139t-66.5 -142t-13 -131.5zM-412 -1274q-3 60 16 124t66 134.5 t118 131.5t183 115t250 85q-145 -491 -334 -674q-109 -106 -199 -79q-66 19 -90 102q-9 28 -10 61zM219 1044q0 26 13.5 43t37.5 17q23 0 38.5 -17.5t15.5 -42.5q0 -24 -15.5 -42.5t-38.5 -18.5q-24 0 -37.5 18t-13.5 43zM557 1022q0 25 15 42t38 17q22 0 38 -17t16 -42 q0 -26 -16 -43.5t-38 -17.5q-23 0 -38 17.5t-15 43.5z" />
<glyph unicode="&#x152;" horiz-adv-x="2166" d="M7.5 437q-13.5 132 9 278t68.5 269t105 222q119 202 311.5 295t424.5 51q0 -1 -0.5 -2t-2 -4.5t-3 -6.5t-2.5 -6t-2 -4l-1 -1q-82 13 -172 -17q-70 -28 -136.5 -91.5t-115 -136.5t-93.5 -164.5t-72 -163t-50 -144.5q-61 -212 -78 -305q-71 -387 124 -481q137 -66 325 28 q135 73 221 164q118 122 193 268q127 254 121 529q-3 75 -10 128t-27.5 107t-54.5 85t-91.5 46.5t-136.5 5.5q-20 -3 -45 -14t-58 -35t-67.5 -70t-60.5 -108l-10 25q17 54 51 99.5t71.5 71.5t66.5 40t48 18q83 13 145 -3t99.5 -51.5t61.5 -93.5t33 -117.5t11 -133.5 q6 -167 -43 -338q105 143 248 198q-90 45 -162 134q-49 73 -38 176.5t69 195.5q53 84 133.5 133.5t165.5 56.5t165.5 -15t142 -81.5t85.5 -142.5q86 47 160 74l18 -19q-13 -6 -43.5 -19.5t-47 -21t-40.5 -20.5t-43 -25q9 -43 -8 -98q-17 -50 -54 -85t-71 -19 q-27 13 -26.5 42.5t16 56t37.5 50.5q31 33 78 66q-17 66 -60 121q-100 127 -236 75q-105 -40 -190 -167q-88 -132 -93 -264q-5 -125 75 -187q44 21 90 34t94 15.5t78 -16.5q31 -19 35.5 -57t-33.5 -52q-39 -13 -113.5 0t-152.5 47q-72 -45 -124.5 -203t-57.5 -329 q-4 -116 39.5 -194t114 -106.5t158 -17t171.5 63.5q98 58 199.5 158t222.5 253v-43q-231 -283 -404 -391q-226 -135 -469 -73q-134 35 -198 123t-62 208q0 47 8 86q-67 -113 -155 -198q-104 -107 -230 -170q-96 -48 -187.5 -54.5t-164.5 29.5q-135 65 -209.5 183t-88 250z M1479 877q69 -26 132 -36.5t91 -0.5q20 8 15.5 29.5t-23.5 31.5q-61 34 -215 -24zM1844 1148.5q-4 -20.5 14 -26.5q20 -8 48 22.5t40 65.5q13 55 8 74q-44 -30 -66 -59q-15 -17 -27.5 -36.5t-16.5 -40z" />
<glyph unicode="&#x153;" horiz-adv-x="1263" d="M-67 123q-19 83 8 223q10 52 30 106.5t52 109.5t70.5 97t90.5 66.5t107 19.5q52 -4 87.5 -38t51 -85.5t20 -102t1.5 -101.5q17 60 69 137t120.5 137.5t139.5 74.5t125 -52q23 -36 17 -80.5t-33 -87.5q-37 -62 -113 -147.5t-164 -161.5q-3 -76 9 -124.5t35 -69t55.5 -21.5 t68 13.5t75.5 40.5t74 54.5t68 61.5q188 184 267 294v-43q-27 -35 -68.5 -81t-96 -104t-83.5 -91q-66 -75 -150.5 -122.5t-165 -58.5t-150 6.5t-114 74.5t-47.5 143q-53 -101 -139 -164q-66 -48 -131.5 -59t-116 20.5t-69.5 114.5zM115 185q-8 -154 59 -149q29 2 70 34 q104 86 149 215q7 27 15 49l12 53q5 36 6 76t-5.5 86t-21 82t-44.5 61t-72 27q-37 -17 -92 -179q-68 -199 -76 -355zM612 274q79 69 149 150.5t105 138.5q21 32 27.5 71t-10.5 64q-22 32 -74 19q-56 -20 -117 -135q-36 -66 -53 -136.5t-27 -171.5z" />
<glyph unicode="&#x178;" horiz-adv-x="1355" d="M2 1059q-4 66 63.5 174t167.5 199q-26 75 -98 170l17 14q72 -91 104 -168q29 24 52.5 41.5t60 39t67 31t65.5 7.5t62 -21q63 -43 77 -117t-25 -181.5t-66.5 -165t-87.5 -166.5q-5 -9 -7.5 -14t-6.5 -12t-7 -13q-14 -25 -49.5 -88.5t-49.5 -90t-41 -80.5t-38.5 -88.5 t-26.5 -83.5t-20.5 -96t-5.5 -98q0 -158 100 -211q119 -61 277 37q44 29 82.5 64t71.5 77.5t58.5 81t53.5 92.5t47 92.5t47.5 99.5t46.5 97l92 197q1 3 33.5 83.5t63.5 157.5t35 82l24 -10q-117 -316 -178 -586.5t-51 -535.5q128 138 344 417v-43q-28 -35 -82.5 -104 t-87 -108.5t-81 -96.5t-93.5 -106q14 -59 16.5 -144.5t-10 -185t-36.5 -201.5t-67.5 -194.5t-99.5 -162.5t-135.5 -107.5t-171.5 -28.5q-52 6 -84.5 38t-43.5 76.5t-10 97.5t11 99.5t25 83.5q40 97 96 182q42 62 98 131q34 43 111 129q24 26 58.5 62t43.5 45q11 128 0 309 q-9 -15 -54 -64q-78 -85 -163 -141q-76 -50 -155.5 -60t-141.5 23q-105 57 -167.5 128.5t-83.5 143.5t-10 158t40.5 161.5t82.5 166t101.5 160.5t110.5 154q49 67 72.5 100.5t59.5 87.5t48.5 84.5t23 67t1.5 60t-33 40.5q-20 14 -44.5 16t-53 -9t-51 -21.5t-53 -32.5 t-42.5 -31.5t-35 -28.5q11 -51 11 -112t-10.5 -120.5t-38.5 -111.5t-68 -78q-47 -33 -101 -13t-57 73zM29 1059q1 -27 22.5 -40.5t48 -12t43.5 13.5q72 53 93.5 166t5.5 215q-93 -87 -155 -184t-58 -158zM397 -815.5q1 -57.5 28 -100.5t79 -51q54 -8 100.5 16.5t77.5 66.5 t56 100t39 109.5t22 103.5q14 89 16 173.5t-1 171t-1 136.5q-15 -17 -39.5 -42.5t-40.5 -43.5q-41 -41 -110 -125q-61 -75 -101 -133q-65 -107 -92 -174q-16 -42 -25 -96t-8 -111.5zM838 1495q0 26 13.5 42.5t37.5 16.5q23 0 38 -17t15 -42q0 -24 -15 -42.5t-38 -18.5 q-24 0 -37.5 18t-13.5 43zM1176 1473q0 25 15 42t38 17q22 0 37.5 -17t15.5 -42q0 -26 -15.5 -44t-37.5 -18q-23 0 -38 18t-15 44z" />
<glyph unicode="&#x2c6;" horiz-adv-x="0" d="M-604 915q6 8 68.5 82.5t91.5 114.5l30 -16q5 -5 48.5 -100t43.5 -103l-16 -35q-39 14 -74.5 73.5t-31.5 117.5q-20 -22 -65.5 -76.5t-72.5 -81.5z" />
<glyph unicode="&#x2dc;" horiz-adv-x="0" d="M-807 956q36 48 82 78.5t90 36.5q41 13 110 0t107 -45q6 -5 30.5 -24t30.5 -23t26.5 -17t29 -13.5t26.5 -3t31 5t30 19t34 31.5l24 -28q-21 -24 -64.5 -45t-66.5 -21q-61 -17 -118.5 2t-90.5 52q-14 11 -34.5 31t-32.5 30.5t-32.5 17t-43.5 2.5q-63 -12 -135 -102z" />
<glyph unicode="&#x2000;" horiz-adv-x="994" />
<glyph unicode="&#x2001;" horiz-adv-x="1989" />
<glyph unicode="&#x2002;" horiz-adv-x="994" />
<glyph unicode="&#x2003;" horiz-adv-x="1989" />
<glyph unicode="&#x2004;" horiz-adv-x="663" />
<glyph unicode="&#x2005;" horiz-adv-x="497" />
<glyph unicode="&#x2006;" horiz-adv-x="331" />
<glyph unicode="&#x2007;" horiz-adv-x="331" />
<glyph unicode="&#x2008;" horiz-adv-x="248" />
<glyph unicode="&#x2009;" horiz-adv-x="397" />
<glyph unicode="&#x200a;" horiz-adv-x="110" />
<glyph unicode="&#x2010;" horiz-adv-x="970" d="M197 492v24h512v-24h-512z" />
<glyph unicode="&#x2011;" horiz-adv-x="970" d="M197 492v24h512v-24h-512z" />
<glyph unicode="&#x2012;" horiz-adv-x="970" d="M197 492v24h512v-24h-512z" />
<glyph unicode="&#x2013;" horiz-adv-x="880" d="M131 432v25h619v-25h-619z" />
<glyph unicode="&#x2014;" horiz-adv-x="1456" d="M131 455v24h1194v-24h-1194z" />
<glyph unicode="&#x2018;" horiz-adv-x="391" d="M2 1149q-3 37 43 85.5t82 53.5l2 -16q-26 -4 -60.5 -39t-45.5 -66q21 7 28 7q20 0 35.5 -10.5t15.5 -24.5q0 -12 -14.5 -22.5t-32.5 -10.5q-53 0 -53 43z" />
<glyph unicode="&#x2019;" horiz-adv-x="391" d="M0 1124q26 4 62 39t47 66q-12 -6 -31 -6q-20 0 -34.5 9.5t-14.5 22.5q0 14 13.5 23.5t33.5 9.5q51 0 51 -41q3 -36 -42.5 -85.5t-80.5 -55.5z" />
<glyph unicode="&#x201c;" horiz-adv-x="548" d="M2 1470q0 22 17 31.5t36 9.5t33 -10t14 -22q0 -13 -15.5 -23t-35.5 -10q-22 0 -28 6q11 -31 45.5 -65.5t60.5 -38.5l-2 -19q-36 6 -82 55.5t-43 85.5zM160 1522q0 41 53 41q19 0 32 -9.5t13 -23.5t-14.5 -23.5t-34.5 -9.5t-29 6q9 -30 44.5 -64.5t62.5 -39.5l-2 -19 q-36 6 -82 55.5t-43 86.5z" />
<glyph unicode="&#x201d;" horiz-adv-x="548" d="M0 1399q26 5 62.5 39t46.5 65q-12 -6 -31 -6q-20 0 -34.5 9.5t-14.5 23.5t13.5 23.5t33.5 9.5q51 0 51 -41q3 -36 -42.5 -86t-80.5 -56zM158 1348q26 4 61 38.5t47 65.5q-8 -6 -30 -6q-20 0 -36 10t-16 23q0 12 14.5 22t34.5 10q18 0 35 -9.5t17 -31.5q3 -36 -43 -85.5 t-82 -55.5z" />
<glyph unicode="&#x201e;" horiz-adv-x="526" d="M1 1.5q-3 18.5 5 27.5q11 9 29.5 5t32.5 -18q10 -10 14 -26q15 29 15 78.5t-15 72.5l12 11q21 -27 20 -96t-28 -93q-12 -12 -26.5 -12t-25 6t-18.5 14q-12 12 -15 30.5zM150 -73q-3 17 6 26t27.5 6t33.5 -18l16 -25q12 29 11.5 79t-15.5 73l15 8q21 -27 19 -95t-30 -92 q-29 -29 -67 9q-13 12 -16 29z" />
<glyph unicode="&#x2022;" horiz-adv-x="673" d="M131 393q0 32 22 54t54 22q31 0 52.5 -22t21.5 -54t-21.5 -54t-52.5 -22q-32 0 -54 22t-22 54z" />
<glyph unicode="&#x2026;" horiz-adv-x="733" d="M131 33q0 13 9.5 23t23.5 10t23.5 -10t9.5 -23t-9.5 -23t-23.5 -10t-23.5 10t-9.5 23zM328 33q0 14 9.5 23.5t22.5 9.5q14 0 23.5 -10t9.5 -23t-9.5 -23t-23.5 -10q-13 0 -22.5 9.5t-9.5 23.5zM537 33q0 13 10 23t22 10q13 0 23 -10t10 -23t-10 -23t-23 -10q-12 0 -22 10 t-10 23z" />
<glyph unicode="&#x202f;" horiz-adv-x="397" />
<glyph unicode="&#x2039;" horiz-adv-x="847" d="M131 174v33q59 29 177.5 107.5t146.5 95.5v-27q-15 -11 -72 -54t-110 -80.5t-89 -60.5q23 -10 271 -161v-27q-1 1 -48.5 27t-102 56.5t-107.5 58t-66 32.5z" />
<glyph unicode="&#x203a;" horiz-adv-x="651" d="M197 0v27q26 16 98 60t116 70t58 31q-48 29 -151 106t-121 89v27q29 -17 146.5 -95.5t176.5 -107.5v-33q-23 -8 -173 -91z" />
<glyph unicode="&#x205f;" horiz-adv-x="497" />
<glyph unicode="&#x20ac;" horiz-adv-x="946" d="M131 375v26h88q-10 71 0 181h-88v26h94q30 153 149.5 260t252.5 107q104 0 188 -66l-14 -20q-313 205 -367 -281h346v-26h-350q-15 -87 0 -181h350v-26h-346q56 -480 367 -281l14 -20q-84 -66 -188 -66q-133 0 -252.5 107t-149.5 260h-94z" />
<glyph unicode="&#x2122;" horiz-adv-x="557" d="M131 731v8q24 0 62 -14l12 27l8 -2l-10 -33q56 -18 76 -2l4 -6q-11 -11 -27.5 -12t-27 2t-31.5 10q-20 -42 -29 -82q0 -27 8 -33l5 -2.5t6 2t6 2.5q35 36 47 49q10 12 25.5 24t19.5 9l3 -5l-1 -1l-27 -54q26 34 49 44q12 8 19 -3q6 -12 0 -32q14 11 22 14l6 -2 q5 -5 6 -13t-0.5 -18.5t-1.5 -13.5h5q8 0 61 57v-12l-6 -6q-47 -51 -55 -51q-11 0 -13.5 10t-0.5 20.5t-1 16.5q-12 -5 -35 -39l-8 -8l-12 4q9 12 19 36.5t-1 28.5q-12 -6 -22.5 -16.5t-16.5 -17.5t-16 -22t-14 -20l-11 5l19 47q10 25 14 32q-47 -53 -65 -71q-23 -11 -29 -8 q-12 7 -14.5 26t2.5 27q1 12 11 40.5t15 39.5q-32 14 -55 18z" />
<glyph unicode="&#x25fc;" horiz-adv-x="747" d="M0 0v748h748v-748h-748z" />
</font>
</defs>
</svg>
